<svg xmlns="http://www.w3.org/2000/svg" xmlns:xlink="http://www.w3.org/1999/xlink" viewBox="0 0 248.68 100"><defs><style>.cls-1{fill:none;}.cls-2{fill:#008545;}.cls-3{clip-path:url(#clip-path);}.cls-4{fill:#898b8e;}.cls-5{clip-path:url(#clip-path-2);}.cls-6{clip-path:url(#clip-path-3);}.cls-7{clip-path:url(#clip-path-4);}.cls-8{clip-path:url(#clip-path-5);}.cls-9{fill:#d6382a;}</style><clipPath id="clip-path"><rect class="cls-1" x="230.55" y="34.94" width="2.03" height="14.97"/></clipPath><clipPath id="clip-path-2"><rect class="cls-1" x="170.69" y="58.51" width="4.49" height="6.92"/></clipPath><clipPath id="clip-path-3"><rect class="cls-1" x="178.92" y="60.01" width="9.73" height="5.43"/></clipPath><clipPath id="clip-path-4"><rect class="cls-1" x="218.95" y="59.63" width="2.99" height="5.8"/></clipPath><clipPath id="clip-path-5"><rect class="cls-1" x="222.69" y="58.51" width="2.62" height="6.92"/></clipPath></defs><g id="Layer_2" data-name="Layer 2"><g id="Layer_1-2" data-name="Layer 1"><rect class="cls-1" width="248.68" height="100"/><g id="surface1"><path class="cls-2" d="M164.44,49.64H160c-.48,2.33-2.22,3.54-5.18,3.7V51.82c2.37,0,3.58-1.14,3.58-3.8V39.38h1.79v8.68h4.21"/><path class="cls-2" d="M163.92,49.64h5.41V48.1h-5.41Z"/><path class="cls-2" d="M169,49.64h5.4V48.1H169Z"/><path class="cls-2" d="M180,53.09h-1.8V51.16H180Zm-3.34,0h-1.81V51.16h1.81Zm6.15-3.45H174V48.07h1.63a2.3,2.3,0,0,0,2.17-.92,4.48,4.48,0,0,0,.38-2.19V39.38h1.79v6.28a5.1,5.1,0,0,1-.48,2.4h3.31"/><path class="cls-2" d="M202.49,49.64H181.32V48.06h15.5l.05-.82a6,6,0,0,0-1.4-4.18,6.24,6.24,0,0,0-4.89-1.83h-5.26l3.9-6.18h2.11l-3,4.63h2.28a8.68,8.68,0,0,1,6.17,2.12A7.23,7.23,0,0,1,199,47.36v.7h3.5"/><path class="cls-2" d="M222,49.64H201.48V48.06H217c0-.3.05-.57.05-.82,0-3.82-2.27-6-6.28-6A5.39,5.39,0,0,0,206,43.47c-.25-.25-.77-.71-1.56-1.4,1.47-1.61,3.55-2.39,6.33-2.39,5.07,0,8.41,3,8.41,7.68v.7H222"/><path class="cls-2" d="M227.39,35V45.66c0,2.64-1.26,4-3.76,4h-2.22V48.07H223a2.28,2.28,0,0,0,2.18-.94A4.45,4.45,0,0,0,225.6,45V35"/><g class="cls-3"><path class="cls-2" d="M230.8,49.64h1.78V35H230.8Z"/></g><path class="cls-4" d="M165.08,58.47h-.81v-.75h.81Zm-1.49,0h-.81v-.75h.81Zm1.19,2.68V59.58h-1.45a1.54,1.54,0,0,0-1.51,1.65,1.56,1.56,0,0,0,1.5,1.66c1,0,1.44-.59,1.46-1.74M167.49,64H167a2,2,0,0,1-2.16-1.28,2.06,2.06,0,0,1-1.74.67,2,2,0,0,1-2-2.11,2,2,0,0,1,2.16-2.14h2.41V62a1.31,1.31,0,0,0,1.46,1.4h.43"/><path class="cls-4" d="M170,60.43v2Q170,64,168.36,64h-1v-.61h.75a1.12,1.12,0,0,0,1-.37,1.73,1.73,0,0,0,.14-.85V60.43Zm0-1.57-.55.07a.5.5,0,0,0-.54-.4c-.37,0-.56.21-.56.61l.13.38H170V60h-2.7v-.43h.56l-.09-.38.26-.67a1.33,1.33,0,0,1,.88-.28c.6,0,1,.23,1.09.67"/><g class="cls-5"><path class="cls-4" d="M173.18,59.32h-.81v-.76h.81ZM175,64h-1.86c-.31.92-1.08,1.39-2.4,1.45v-.59c1.06,0,1.59-.45,1.59-1.5V60h.79v3.4H175"/></g><path class="cls-4" d="M174.82,64h2.41v-.6h-2.41Z"/><path class="cls-4" d="M177.07,64h2.41v-.6h-2.41Z"/><g class="cls-6"><path class="cls-4" d="M184,65.33h-.81v-.75H184ZM188.35,64h-9.13v-.62h6.92v-.31c0-1.51-1-2.37-2.8-2.37a2.52,2.52,0,0,0-2.13.89c-.11-.1-.34-.28-.69-.55a3.82,3.82,0,0,1,2.82-.94c2.26,0,3.75,1.16,3.75,3v.27h1.25"/></g><path class="cls-4" d="M188.13,64h2.41v-.6h-2.41Z"/><path class="cls-4" d="M193,59.32h-.8v-.76h.8Zm-1.49,0h-.8v-.76h.8ZM194.28,64h-3.93v-.61h.73a1.08,1.08,0,0,0,1-.36,1.54,1.54,0,0,0,.17-.86V60H193v2.46a1.75,1.75,0,0,1-.21.94h1.48"/><path class="cls-4" d="M196.75,58.25v4.17q0,1.56-1.68,1.56h-1v-.61h.73a1,1,0,0,0,1-.37,1.55,1.55,0,0,0,.18-.85v-3.9"/><path class="cls-4" d="M198.16,64h.8V58.25h-.8Z"/><path class="cls-4" d="M206.31,62.45l-.78.07a.67.67,0,0,0-.74-.54c-.54,0-.81.27-.81.84l.19.54h2.12V64h-3.78v-.62h.79l-.14-.54a1.17,1.17,0,0,1,.38-.93,1.74,1.74,0,0,1,1.23-.41c.85,0,1.36.32,1.54,1"/><path class="cls-4" d="M210.23,64h-.91a1.6,1.6,0,0,1-1-.33,1.24,1.24,0,0,1-.5-1.08V58.25h.83v4a1.43,1.43,0,0,0,.22.88,1,1,0,0,0,.64.27h.74"/><path class="cls-4" d="M210.06,64h2.4v-.6h-2.4Z"/><path class="cls-4" d="M212.31,64h2.41v-.6h-2.41Z"/><path class="cls-4" d="M214.56,64H217v-.6h-2.41Z"/><path class="cls-4" d="M216.81,64h2.41v-.6h-2.41Z"/><g class="cls-7"><path class="cls-4" d="M221.76,65.34H221v-.76h.8Zm-1.49,0h-.8v-.76h.8ZM221.78,60v2.46c0,1-.57,1.56-1.68,1.56h-1v-.61h.75a1,1,0,0,0,1-.37,1.47,1.47,0,0,0,.18-.85V60"/></g><g class="cls-8"><path class="cls-4" d="M225.2,59.32h-.8v-.76h.8Zm0,.64v3.27c0,1.45-.72,2.14-2.4,2.2v-.59c1.07,0,1.6-.45,1.6-1.5V60"/></g><path class="cls-4" d="M227.41,64h-.79V58.25h.79Zm.72-7-.46,0-.42-.31a.42.42,0,0,0-.47.48l.11.32h1.21v.35h-2.17V57.5h.46l-.07-.31c0-.46.29-.78.93-.78s.77.18.88.56"/><path class="cls-2" d="M24.27,44.58l-2.1-6.28L20,44.58Zm-3-8.39H23.3l4.9,14.22h-2l-1.41-4.26h-5.3L18,50.41H16.16"/><path class="cls-2" d="M29.87,36.19H31.7V48.71h6.82V50.4H29.87"/><path class="cls-2" d="M40.39,36.19h1.84v5.88h7V36.19h1.84V50.4H49.25V43.77h-7V50.4H40.39"/><path class="cls-2" d="M63.42,47.27a8,8,0,0,0,1.08-4.19,6.13,6.13,0,0,0-1.25-4,4.2,4.2,0,0,0-3.4-1.53A4.35,4.35,0,0,0,56.42,39,6.62,6.62,0,0,0,55.1,43.5a6.72,6.72,0,0,0,1.13,4,4.16,4.16,0,0,0,3.68,1.61,3.78,3.78,0,0,0,3.51-1.82M65,38.22a8.18,8.18,0,0,1,1.34,4.83,8.74,8.74,0,0,1-1.53,5.29,6.58,6.58,0,0,1-10,.31,8.46,8.46,0,0,1-1.58-5.29,8.69,8.69,0,0,1,1.35-4.93,5.79,5.79,0,0,1,5.17-2.63A6,6,0,0,1,65,38.22"/><path class="cls-2" d="M68.56,36.19h1.78v6.93l6.58-6.93h2.53L73.82,41.9l5.76,8.5H77.22l-4.73-7.15-2.15,2.2V50.4H68.56"/><path class="cls-2" d="M88.05,44.58,86,38.3l-2.15,6.28Zm-3-8.39h2.06L92,50.41H90l-1.41-4.26h-5.3L81.8,50.41H79.94"/><path class="cls-2" d="M94.06,50.41h1.85V36.19H94.06Z"/><path class="cls-2" d="M105.16,42.7a3.43,3.43,0,0,0,2-.53,2.25,2.25,0,0,0,.75-2,2.11,2.11,0,0,0-1-2,3.35,3.35,0,0,0-1.49-.29H101V42.7Zm-6-6.51h6.24a6.06,6.06,0,0,1,2.54.47A3.4,3.4,0,0,1,109.8,40a3.87,3.87,0,0,1-.51,2.09,3.55,3.55,0,0,1-1.41,1.3,2.87,2.87,0,0,1,1.21.9,3.38,3.38,0,0,1,.44,1.79l.06,1.91a6.76,6.76,0,0,0,.13,1.2,1.17,1.17,0,0,0,.58.87v.33h-2.24l-.14-.48a8,8,0,0,1-.09-1.12l-.11-2.38a2,2,0,0,0-1-1.86,3.77,3.77,0,0,0-1.63-.26H101v6.1H99.12"/><path class="cls-4" d="M34.54,57v.6H29.69v2.71H34v.59H29.69v3.55h-.87V57"/><path class="cls-4" d="M39.57,61.51l-.29.17-.38.07-1,.14a5.59,5.59,0,0,0-1,.17,2,2,0,0,0-.72.33l-.28.61.12.45.33.34.45.2.54.07a3.27,3.27,0,0,0,.88-.11l.71-.34.5-.53.17-.71v-.86Zm-4-1.61.56-.57A2.73,2.73,0,0,1,37,59a4.74,4.74,0,0,1,1-.11,4.88,4.88,0,0,1,.85.07,2.39,2.39,0,0,1,.78.26l.55.53a1.68,1.68,0,0,1,.21.89V63.5c0,.26.16.4.47.4l.25,0v.56l-.24,0h-.28l-.48-.06-.28-.2-.14-.29,0-.39h0L39.2,64l-.49.34-.61.2a3.44,3.44,0,0,1-.83.08,4.54,4.54,0,0,1-.85-.08l-.69-.29-.47-.5L35.09,63a1.24,1.24,0,0,1,.3-.89,1.83,1.83,0,0,1,.8-.48,5.28,5.28,0,0,1,1.12-.23l1.27-.14.43-.06.32-.1.2-.22.06-.36L39.46,60l-.35-.34-.55-.17-.65,0a2.34,2.34,0,0,0-1.25.3,1.06,1.06,0,0,0-.49,1h-.81a2.14,2.14,0,0,1,.24-.81"/><path class="cls-4" d="M45.72,60.12l-.37-.38-.52-.21-.64-.07-.55,0-.49.15-.36.29-.14.44.12.37.34.25.44.17.44.12,1.06.2.67.15.61.29.41.43.16.62a1.15,1.15,0,0,1-.23.74l-.62.51a3,3,0,0,1-.83.28,5.08,5.08,0,0,1-.93.08,3.44,3.44,0,0,1-1.86-.44,1.84,1.84,0,0,1-.82-1.45h.8a1.29,1.29,0,0,0,.59,1,2.47,2.47,0,0,0,1.33.33l.6,0,.57-.18.44-.32.17-.46L46,62.63l-.33-.27-.46-.18-.52-.13-1-.19L43,61.67l-.59-.27L42,61l-.13-.58a1.06,1.06,0,0,1,.22-.71l.57-.47a2.75,2.75,0,0,1,.78-.26,4.36,4.36,0,0,1,.87-.09,3.87,3.87,0,0,1,.92.11,2.48,2.48,0,0,1,.74.32l.51.55a1.78,1.78,0,0,1,.22.76h-.79"/><path class="cls-4" d="M48.84,57v3h0a1.66,1.66,0,0,1,.82-.79A2.71,2.71,0,0,1,51,58.9a4,4,0,0,1,1.13.15,1.93,1.93,0,0,1,.74.41l.39.65a3,3,0,0,1,.11.88v3.46h-.79V61.09l-.08-.64-.26-.52-.51-.35a2.29,2.29,0,0,0-.8-.12,2.71,2.71,0,0,0-.85.13l-.64.4-.4.58-.15.74v3.14H48V57"/><path class="cls-4" d="M55.62,64.45h-.79V59.06h.79Zm0-6.39h-.79V57h.79Z"/><path class="cls-4" d="M58.9,59.66a1.9,1.9,0,0,0-.71.52l-.44.73a2.85,2.85,0,0,0-.14.85,2.64,2.64,0,0,0,.14.84,2.2,2.2,0,0,0,.44.74,1.9,1.9,0,0,0,.71.52,2.25,2.25,0,0,0,1,.2,2.2,2.2,0,0,0,1-.2,2,2,0,0,0,.72-.52A2.36,2.36,0,0,0,62,62.6a2.39,2.39,0,0,0,.14-.84,2.57,2.57,0,0,0-.14-.85l-.43-.73a2,2,0,0,0-.72-.52,2.35,2.35,0,0,0-1-.2,2.4,2.4,0,0,0-1,.2m2.31-.52a2.77,2.77,0,0,1,1,.61,2.54,2.54,0,0,1,.6.91,3.15,3.15,0,0,1,.2,1.1,3.21,3.21,0,0,1-.2,1.11,2.74,2.74,0,0,1-1.57,1.51,3.8,3.8,0,0,1-1.32.22,3.69,3.69,0,0,1-1.3-.22,2.79,2.79,0,0,1-1-.62,2.47,2.47,0,0,1-.59-.89,3.22,3.22,0,0,1-.21-1.11,3.16,3.16,0,0,1,.21-1.1,2.39,2.39,0,0,1,.59-.91,2.92,2.92,0,0,1,1-.61,3.28,3.28,0,0,1,1.3-.24,3.38,3.38,0,0,1,1.32.24"/><path class="cls-4" d="M65,59.06V60h0a1.6,1.6,0,0,1,.8-.78,2.63,2.63,0,0,1,1.27-.32,4.11,4.11,0,0,1,1.15.15,2,2,0,0,1,.74.41l.38.65a3,3,0,0,1,.12.88v3.46h-.8V61.09l-.08-.64-.26-.52-.51-.35a2.35,2.35,0,0,0-.81-.12,2.74,2.74,0,0,0-.84.13l-.63.4-.4.58-.16.74v3.14h-.79V59.06"/><path class="cls-4" d="M78.64,60.53l.73-.09.62-.3.43-.45.15-.61A1.31,1.31,0,0,0,80.09,58a2.24,2.24,0,0,0-1.45-.4h-3.2v2.93ZM78.71,57a5.2,5.2,0,0,1,1.05.12,2.68,2.68,0,0,1,.86.35l.59.6a1.57,1.57,0,0,1,.22.87A1.8,1.8,0,0,1,81,60.17a2.13,2.13,0,0,1-1.29.66v0a2.59,2.59,0,0,1,.72.19l.47.36.26.5.1.63,0,.46,0,.56.12.51.21.38h-.94l-.11-.24-.07-.33,0-.32v-.27l-.09-.79-.24-.7-.53-.5a1.73,1.73,0,0,0-.94-.16H75.44v3.31h-.85V57"/><path class="cls-4" d="M87.36,60.66l-.4-.61-.65-.43a2.42,2.42,0,0,0-1.73,0l-.64.43-.43.61-.2.72h4.2Zm-3.94,2,.39.67.66.51a2.15,2.15,0,0,0,1,.2,2.22,2.22,0,0,0,1.36-.37,2,2,0,0,0,.68-1h.79a2.55,2.55,0,0,1-.92,1.42,3.14,3.14,0,0,1-1.91.5,3.84,3.84,0,0,1-1.34-.22,2.41,2.41,0,0,1-.91-.62,2.66,2.66,0,0,1-.52-.91,3.28,3.28,0,0,1-.18-1.09,3.22,3.22,0,0,1,.18-1,2.66,2.66,0,0,1,.52-.91,2.72,2.72,0,0,1,.91-.65,3.24,3.24,0,0,1,1.34-.25,3,3,0,0,1,1.33.27,2.5,2.5,0,0,1,1.4,1.65,3.25,3.25,0,0,1,.13,1.12h-5"/><path class="cls-4" d="M92,59.06v.56H90.64v3.64l.11.5c.07.12.25.19.53.21l.68,0v.56h-.7a1.74,1.74,0,0,1-1.11-.26,1.14,1.14,0,0,1-.31-.93V59.62H88.71v-.56h1.13V57.44h.8v1.62"/><path class="cls-4" d="M97.24,61.51l-.28.17-.38.07-1,.14a5.66,5.66,0,0,0-1,.17,2,2,0,0,0-.71.33l-.29.61.12.45.32.34.47.2.54.07a3.15,3.15,0,0,0,.87-.11l.72-.34.49-.53.19-.71v-.86Zm-4-1.61.55-.57a2.86,2.86,0,0,1,.82-.32,4.67,4.67,0,0,1,1-.11,5,5,0,0,1,.85.07,2.33,2.33,0,0,1,.77.26l.55.53a1.59,1.59,0,0,1,.21.89V63.5c0,.26.16.4.47.4l.26,0v.56l-.25,0h-.26l-.5-.06-.28-.2-.13-.29,0-.39h0l-.44.47-.49.34-.61.2a3.28,3.28,0,0,1-.83.08,4.63,4.63,0,0,1-.85-.08l-.69-.29-.47-.5L92.77,63a1.24,1.24,0,0,1,.29-.89,1.81,1.81,0,0,1,.81-.48A4.92,4.92,0,0,1,95,61.44l1.25-.14.45-.06.32-.1.19-.22.08-.36L97.14,60l-.36-.34-.55-.17-.66,0a2.29,2.29,0,0,0-1.23.3,1.07,1.07,0,0,0-.51,1H93a1.83,1.83,0,0,1,.23-.81"/><path class="cls-4" d="M100.46,64.45h-.79V59.06h.79Zm0-6.39h-.79V57h.79Z"/><path class="cls-4" d="M102,64.45h.79V57H102Z"/><path class="cls-2" d="M124.26,55.25H119.6l8.51-20.68h4.65Z"/><path class="cls-9" d="M130.92,55.25h-4.64l8.51-20.68h4.65Z"/><path class="cls-2" d="M137.6,55.25h-4.66l8.52-20.68h4.65Z"/></g></g></g></svg>