<svg xmlns="http://www.w3.org/2000/svg" viewBox="0 0 248.68 100"><defs><style>.cls-1{fill:none;}.cls-2{fill:#4091cf;}.cls-3{fill:#0f9146;}.cls-4{fill:#2c9d48;}.cls-5{fill:#54aa47;}.cls-6{fill:#6fb444;}.cls-7{fill:#4091ce;}.cls-8{fill:#2e398e;}.cls-9{fill:#d7d7ec;}</style></defs><g id="Layer_2" data-name="Layer 2"><g id="Layer_1-2" data-name="Layer 1"><rect class="cls-1" width="248.68" height="100"/><path class="cls-2" d="M112.21,7.39c1.32-.72,3.15-1.14,4.43-.1,2.14,2,3.54,4.56,5,7a6.84,6.84,0,0,0,1.28,1.93c-.47.33-1,.61-1.45.92-1.09-1.16-2.12-2.38-3.16-3.59a49.61,49.61,0,0,0-5.6-5.24C112.47,8.09,112,7.81,112.21,7.39Z"/><path class="cls-2" d="M103.07,8.94a5.62,5.62,0,0,1,6.37-.19c1.51,1,2.88,2.13,4.3,3.23a49.58,49.58,0,0,1,4.58,3.87c.81.61,1.41,1.44,2.22,2L119.16,19l0-.26c-3-1.94-6.08-3.87-9.29-5.51-1.75-1-3.56-1.8-5.37-2.63a15.91,15.91,0,0,1-1.6-.8C102.57,9.51,102.85,9.12,103.07,8.94Z"/><path class="cls-2" d="M93.62,12.31a5.9,5.9,0,0,1,3.56-1.62c1.36-.19,2.59.49,3.82.93a116.55,116.55,0,0,1,15.73,7.45,4.37,4.37,0,0,1,1.17.83c-.46.4-.89.83-1.35,1.21a30.26,30.26,0,0,0-5-2.55,85.51,85.51,0,0,0-15.49-4.89c-.76-.23-1.56-.3-2.31-.55C93.39,13,93.38,12.52,93.62,12.31Z"/><path class="cls-3" d="M129,12.54A67.78,67.78,0,0,1,142.14,7a17.37,17.37,0,0,1,2.7,0,46.45,46.45,0,0,1,5.15.44,67.28,67.28,0,0,0-7,1.73A83.41,83.41,0,0,0,124,18,80.87,80.87,0,0,0,116.86,23a12.41,12.41,0,0,1-1.51-.74,10.69,10.69,0,0,1,1.2-1.13c.46-.38.89-.81,1.35-1.21s.85-.62,1.26-.95l1.38-1.05c.32-.24.61-.51.94-.73s1-.59,1.45-.92A61.66,61.66,0,0,1,129,12.54Z"/><path class="cls-4" d="M152.31,8.29a4.83,4.83,0,0,1,2-.25,52.59,52.59,0,0,1,5.31,1.09A138,138,0,0,0,140.36,14a93.6,93.6,0,0,0-16.51,7.15,50.6,50.6,0,0,0-4.74,3,7.22,7.22,0,0,1-1.27-.78,8.26,8.26,0,0,1,1.39-1.11,81.38,81.38,0,0,1,11.71-6.56A112.06,112.06,0,0,1,152.31,8.29Z"/><path class="cls-5" d="M160.3,10.65c1-.18,2-.44,3.08-.53a30.42,30.42,0,0,1,3.09.92,37.92,37.92,0,0,1,3.58,1.4,182.63,182.63,0,0,0-23,4,130.65,130.65,0,0,0-23.43,8c-.74.38-1.51.67-2.21,1.11l-1.27-.81a22.17,22.17,0,0,1,3.53-2.2,107.38,107.38,0,0,1,14.85-6.23A169.94,169.94,0,0,1,160.3,10.65Z"/><path class="cls-6" d="M145.09,18.68A198.87,198.87,0,0,1,173,14.19a1.86,1.86,0,0,1,1,.33,44.35,44.35,0,0,1,6.37,4,4.57,4.57,0,0,1,.7.69A30,30,0,0,1,178,19.1c-1.11,0-2.21-.15-3.31-.15-3.22,0-6.44-.07-9.66,0-1.29.17-2.61,0-3.9.21a136.61,136.61,0,0,0-16.51,2.05c-1.39.3-2.78.52-4.16.83-3.5.8-7,1.64-10.42,2.68-2.29.65-4.51,1.51-6.78,2.22a3.08,3.08,0,0,0-1.15-1c.54.08,1-.32,1.47-.48,1-.39,2-.9,3.11-1.28,1.65-.56,3.25-1.25,4.91-1.78C136.06,21,140.53,19.68,145.09,18.68Z"/><path class="cls-7" d="M88.43,15.22a25.76,25.76,0,0,1,2.78,0,12.64,12.64,0,0,1,2.28.39c2.89.52,5.73,1.27,8.57,2,1.81.53,3.64,1,5.41,1.66a82.16,82.16,0,0,1,7.88,3,12.41,12.41,0,0,0,1.51.74c.32.13.65.25,1,.36a7.22,7.22,0,0,0,1.27.78c.35.18.7.34,1,.55s.84.55,1.27.81c.24.16.47.34.7.5a3.08,3.08,0,0,1,1.15,1c-.36.18-.78.42-1.17.2-1-.49-1.91-1.1-2.93-1.5A50.83,50.83,0,0,0,110,22.56a100.86,100.86,0,0,0-15.06-2.38c-1.12,0-2.22-.22-3.33-.18-2.26-.2-4.52-.15-6.79-.17-.8,0-1.69.17-2.37-.38a1.89,1.89,0,0,1,.21-1.24,7.31,7.31,0,0,1,4.08-2.85A13.75,13.75,0,0,0,88.43,15.22Z"/><path class="cls-8" d="M177.07,24.46c1.92.05,3.85,0,5.77,0,.07,6.31,0,12.62,0,18.93,0,2.56-.44,5.33-2.21,7.3s-4.2,2.41-6.57,2.52-4.89,0-7.33,0a8.87,8.87,0,0,1-4.83,3.6,12.53,12.53,0,0,1-8.07-.13,8.56,8.56,0,0,1-4.41-3.47c-3.42-.11-6.94.31-10.28-.64a20.83,20.83,0,0,1-.24,4.6,8.55,8.55,0,0,1-3.48,5.14,13,13,0,0,1-8.25,2,14,14,0,0,1-6.55-1.84c-.1-1.61,0-3.25,0-4.87l1.09-.21a6.59,6.59,0,0,0,5,3.22,8.43,8.43,0,0,0,3.43-.29,4.22,4.22,0,0,0,2.69-2.72,8.55,8.55,0,0,0,.46-2.79c0-3.67,0-7.34,0-11,1.93,0,3.87,0,5.8,0a11.7,11.7,0,0,0,.44,3.77,2.11,2.11,0,0,0,1.15,1.28,8.15,8.15,0,0,0,2.9.45c1.53,0,3.07,0,4.6,0a8.71,8.71,0,0,1,1.87-6.06A9.88,9.88,0,0,1,156.76,40a15.81,15.81,0,0,1,4.18.23A9.16,9.16,0,0,1,166.69,44a8.8,8.8,0,0,1,1.28,5.3c1.59,0,3.18,0,4.77,0A6.39,6.39,0,0,0,175,49c.55-.2.88-.72,1.28-1.12a2.31,2.31,0,0,0,.83-1.6,85.82,85.82,0,0,0,.24-8.93c0-3,0-5.92,0-8.88,0-.86-.1-1.73,0-2.59,0-.5.17-1.1-.29-1.46m-21,19.18A3.62,3.62,0,0,0,154,46.19a10.16,10.16,0,0,0-.05,4.84,3.64,3.64,0,0,0,1.81,2.57,4.46,4.46,0,0,0,3.65,0A3.58,3.58,0,0,0,161.28,51a9.57,9.57,0,0,0-.27-5.33,3.28,3.28,0,0,0-2.75-2.19A5.4,5.4,0,0,0,156.07,43.64Z"/><path class="cls-8" d="M186.53,24.48h5.77q0,14.34,0,28.7c-1.93,0-3.86,0-5.78,0C186.55,43.61,186.53,34.05,186.53,24.48Z"/><path class="cls-8" d="M122.39,32.19c1.94-.49,3.83-1.14,5.77-1.58,0,7.52,0,15,0,22.57-1.95,0-3.89,0-5.83,0V34.08A17,17,0,0,1,122.39,32.19Z"/><path class="cls-8" d="M61.61,32.74a15.51,15.51,0,0,1,1.27-1.42c0,4.18,0,8.36,0,12.54a12.82,12.82,0,0,0,.38,3.32,2.59,2.59,0,0,0,1.41,1.73,7.33,7.33,0,0,0,2.5.42H79.27c-1-5-2-10-3-15h7.65a7.38,7.38,0,0,1,2.93.56,6.28,6.28,0,0,1,2.93,2.83,17.82,17.82,0,0,1,1.48,4.8c.38,1.69.77,3.37,1.14,5.06A4.68,4.68,0,0,0,92.9,49c.28.3.74.25,1.12.3H100a7.26,7.26,0,0,1-1.83-3,7.06,7.06,0,0,1,.64-5.12,8,8,0,0,1,3.61-3.15,17.4,17.4,0,0,1,7.92-1.49,18.42,18.42,0,0,1,6,1.13c0,1.31,0,2.62,0,3.92a8.24,8.24,0,0,1-.86,0,16.46,16.46,0,0,0-1.46-1,8.76,8.76,0,0,0-3.81-.81,8.42,8.42,0,0,0-4.86,1,4.09,4.09,0,0,0-1.57,3.51A4.76,4.76,0,0,0,105,48a6.34,6.34,0,0,0,4.11,1.37h7.64c0,1.29,0,2.59,0,3.89-7.68,0-15.35,0-23,0a5.44,5.44,0,0,1-4-1.19,8.35,8.35,0,0,1-1.58-3.79q-.73-3.09-1.42-6.18A16.52,16.52,0,0,0,86,39.38a1.75,1.75,0,0,0-1.22-1.13,12.88,12.88,0,0,0-2.15-.06q1.53,7.13,3,14.29A4.46,4.46,0,0,0,85,51c0,.53.16,1,.15,1.59-.15.31-.54.19-.82.19a23.92,23.92,0,0,0-2.81-.06H68.38a18.66,18.66,0,0,1-2.59,0,12.76,12.76,0,0,1-2.62-.31,1.39,1.39,0,0,0-1,0l-.1,0a7,7,0,0,1-3.09-2.27,10,10,0,0,1-1.79-5.5c-.06-1.76,0-3.52,0-5.28a1.42,1.42,0,0,1,.12-.71A47.43,47.43,0,0,1,61.61,32.74Z"/><path class="cls-8" d="M66.5,55.69a4.26,4.26,0,0,1,2-.18,2.94,2.94,0,0,1,2.45,3,2.89,2.89,0,0,1-1.62,2.48,3.29,3.29,0,0,1-4.54-1.64A2.91,2.91,0,0,1,66.5,55.69Z"/><path class="cls-8" d="M68.61,66.51h4.14a.35.35,0,0,1,.42.25q4,8.52,8.09,17c1.37,3,2.84,5.89,4.18,8.88-2,0-4.06,0-6.08,0C76.11,86.09,73,79.44,69.75,72.87c-1.37,2.86-2.78,5.7-4.16,8.55A6.37,6.37,0,0,0,64.92,83q4.67,0,9.33,0a9.39,9.39,0,0,1-1,2.29,2.64,2.64,0,0,1-2.2.87c-2.59,0-5.18,0-7.78,0a2.73,2.73,0,0,0-.39.66c-.92,1.94-1.89,3.86-2.8,5.81-1.47,0-3,0-4.43,0C60,84,64.31,75.24,68.61,66.51Z"/><path class="cls-8" d="M86.57,66.52c1.62,0,3.24,0,4.86,0,0,6.64,0,13.29,0,19.94A8,8,0,0,0,91.7,89c.38.87,1.49.79,2.26,1-.76,1-1.64,1.86-2.44,2.82a2.42,2.42,0,0,1-.52.49,5,5,0,0,1-3.57-2.09,6.28,6.28,0,0,1-.86-3.44Q86.57,77.16,86.57,66.52Z"/><path class="cls-8" d="M133.31,76.75a11.12,11.12,0,0,1,7.31-2.14,20.91,20.91,0,0,1,8.84,2.1c0,5.33,0,10.67,0,16-1.58,0-3.17,0-4.75,0-.22-.48,0-1.09-.11-1.61-.48.29-.91.65-1.4.94a9,9,0,0,1-6.94.91,7.64,7.64,0,0,1-5.07-4.15,11.58,11.58,0,0,1-.85-6.18,8.66,8.66,0,0,1,3-5.85m3.36,2.9a6.83,6.83,0,0,0-1.23,4.09A5.93,5.93,0,0,0,137,88a4.14,4.14,0,0,0,3.51,1.17,9.28,9.28,0,0,0,4.11-1.43c0-3,0-5.91,0-8.86a13.45,13.45,0,0,0-4.74-.79A4,4,0,0,0,136.67,79.65Z"/><path class="cls-8" d="M105.29,74.93a8.3,8.3,0,0,1,5.19.25A6,6,0,0,1,113,77.32a21.21,21.21,0,0,1,5.39-2.42,9.41,9.41,0,0,1,6.08.56A4.89,4.89,0,0,1,127,77.9a9.76,9.76,0,0,1,.64,4.18V92.19a4.91,4.91,0,0,1-1.94.27,22.57,22.57,0,0,1-2.85-.12V82.08a12.42,12.42,0,0,0-.07-2.2,2.73,2.73,0,0,0-1.67-1.94,2.11,2.11,0,0,0-1.31.12l1,.23a13.31,13.31,0,0,0-2.6.16,11.17,11.17,0,0,0-4,1.64c0,4.2,0,8.41,0,12.61-1.62,0-3.23,0-4.85,0q0-6.14,0-12.27c-.06-.66-.1-1.52-.77-1.86a5.13,5.13,0,0,0-2.88-.18,10,10,0,0,0-4.08,1.45c-.14.12-.41.2-.37.43,0,4.14,0,8.28,0,12.43H96.35q0-8.77,0-17.57c1.61,0,3.23,0,4.84,0,0,.45,0,.91,0,1.36A22.24,22.24,0,0,1,105.29,74.93Z"/><path class="cls-8" d="M160.52,75.19a12.12,12.12,0,0,1,4.79-.52c-.3,1.34-.53,2.7-.84,4a8.79,8.79,0,0,0-6.59,1.09c0,4.3,0,8.6,0,12.9-1.62,0-3.24,0-4.85,0,0-5.87,0-11.73,0-17.6,1.63,0,3.26,0,4.89,0a10.71,10.71,0,0,0,0,1.39,14.82,14.82,0,0,1,2.62-1.29m-7.47.08c1,.09,2,0,2.95,0a11.77,11.77,0,0,0,1.78,0,1.64,1.64,0,0,0-.73-.1c-1.05,0-2.11,0-3.16,0A2.94,2.94,0,0,0,153.05,75.27Z"/><path class="cls-8" d="M167.31,77.27A9.61,9.61,0,0,1,173,74.71a20.66,20.66,0,0,1,11,2c0,5.11,0,10.21,0,15.32,0,.22,0,.47-.08.67h-4.76c0-.58,0-1.15,0-1.72a8.3,8.3,0,0,1-4.74,2.19A8.63,8.63,0,0,1,167.29,91a9.18,9.18,0,0,1-2.5-6.79,9.32,9.32,0,0,1,2.52-6.92m5.53,1.14a4.42,4.42,0,0,0-2.46,2.86,7.56,7.56,0,0,0,.21,5.36A4.23,4.23,0,0,0,173.3,89a6.34,6.34,0,0,0,3.37-.2,5.88,5.88,0,0,0,2.46-1.19c.05-2.92,0-5.84,0-8.77a13.86,13.86,0,0,0-3.1-.74A6.62,6.62,0,0,0,172.84,78.41Z"/><path class="cls-8" d="M187.45,76.61c1.6-.67,3.2-1.34,4.84-1.93q0,9,0,18c-1.57,0-3.15,0-4.72,0l-.1-.07C187.45,87.27,187.48,81.94,187.45,76.61Z"/><path class="cls-8" d="M177.07,24.46c.46.36.3,1,.29,1.46-.07.86,0,1.73,0,2.59,0,3,0,5.92,0,8.88a85.56,85.56,0,0,1-.24,8.92,2.33,2.33,0,0,1-.83,1.61A13.61,13.61,0,0,0,177,42.5c0-4.91,0-9.83,0-14.74C177.05,26.66,177,25.56,177.07,24.46Z"/><path class="cls-9" d="M116.36,37.84h.14c0,1,0,2,0,3a2.26,2.26,0,0,1-.13.85C116.32,40.41,116.41,39.13,116.36,37.84Z"/><path class="cls-8" d="M85,51a4.4,4.4,0,0,1,.58,1.44c.07.25.11.51.16.76H67a12.17,12.17,0,0,1-4.9-.72,1.39,1.39,0,0,1,1,0,12.86,12.86,0,0,0,2.63.31,18.68,18.68,0,0,0,2.59,0H81.51a23.79,23.79,0,0,1,2.8.06c.28,0,.67.12.83-.19C85.15,52.08,85,51.56,85,51Z"/><path class="cls-8" d="M74.33,55.56a3.3,3.3,0,0,1,2.93.51,2.82,2.82,0,0,1-.13,4.66,3.35,3.35,0,0,1-3.39.2,2.87,2.87,0,0,1,.59-5.37Z"/><path class="cls-8" d="M189.07,68.1a3.19,3.19,0,0,1,3.78,2,2.86,2.86,0,0,1-.6,2.73,3.31,3.31,0,0,1-3,1,3,3,0,0,1-2.48-2.54A2.94,2.94,0,0,1,189.07,68.1Z"/><path class="cls-8" d="M120.39,58.3a1.64,1.64,0,0,1,.14-.69c.07.78,0,1.57,0,2.35s.06,1.76,0,2.63a3.51,3.51,0,0,1-.12-1.12C120.42,60.41,120.4,59.36,120.39,58.3Z"/><path class="cls-8" d="M153.05,75.27a2.94,2.94,0,0,1,.84-.11c1.05,0,2.11,0,3.16,0a1.64,1.64,0,0,1,.73.1,11.77,11.77,0,0,1-1.78,0C155,75.29,154,75.36,153.05,75.27Z"/><path class="cls-8" d="M119.78,78.06a2.11,2.11,0,0,1,1.31-.12,2.73,2.73,0,0,1,1.67,1.94,11.54,11.54,0,0,1,.07,2.2V92.34a22.57,22.57,0,0,0,2.85.12,4.78,4.78,0,0,0,1.95-.27c0,.13,0,.38,0,.5-1.75,0-3.51,0-5.27,0,0-4,0-8.08,0-12.11a3.25,3.25,0,0,0-.37-1.71,2.33,2.33,0,0,0-1.23-.57Z"/><path class="cls-8" d="M144.36,78.89l.18,0c0,2.76,0,5.53,0,8.29a2.59,2.59,0,0,1-.11.54C144.33,84.79,144.43,81.84,144.36,78.89Z"/><path class="cls-8" d="M127.71,81a10.27,10.27,0,0,1,.1,2.15V91a5.63,5.63,0,0,1-.1,1.74c-.09-2.38,0-4.77,0-7.15C127.69,84,127.62,82.5,127.71,81Z"/></g></g></svg>