<svg xmlns="http://www.w3.org/2000/svg" xmlns:xlink="http://www.w3.org/1999/xlink" viewBox="0 0 261.82 118.18"><defs><style>.cls-1{fill:none;}.cls-2,.cls-6{fill:#fff;}.cls-2{opacity:0;}.cls-3{clip-path:url(#clip-path);}.cls-4{fill:url(#radial-gradient);}.cls-5{fill:#5f636a;}</style><clipPath id="clip-path" transform="translate(0 9.21)"><polygon class="cls-1" points="173.1 20.2 173.1 20.2 173.1 79.56 232.41 79.56 232.41 20.2 173.1 20.2"/></clipPath><radialGradient id="radial-gradient" cx="-1256.8" cy="555.29" r="2.38" gradientTransform="translate(27873.06 -59665.32) rotate(-41.28) scale(47.95)" gradientUnits="userSpaceOnUse"><stop offset="0" stop-color="#7fbf3f"/><stop offset="0.29" stop-color="#7fbf3f"/><stop offset="0.44" stop-color="#5fb744"/><stop offset="0.48" stop-color="#4bb045"/><stop offset="0.57" stop-color="#22a347"/><stop offset="0.64" stop-color="#099b48"/><stop offset="0.69" stop-color="#009848"/><stop offset="0.7" stop-color="#007688"/><stop offset="0.7" stop-color="#0062af"/><stop offset="0.88" stop-color="#009ddf"/><stop offset="0.9" stop-color="#00a5e6"/><stop offset="1" stop-color="#00acec"/></radialGradient></defs><g id="Layer_2" data-name="Layer 2"><g id="Layer_1-2" data-name="Layer 1"><rect class="cls-2" y="9.21" width="248.68" height="100"/><g class="cls-3"><polygon class="cls-4" points="143.69 55.25 206.57 0 261.82 62.93 198.89 118.19 143.69 55.25"/></g><path class="cls-5" d="M24.29,45.27a1.57,1.57,0,0,0,0-3.14,1.57,1.57,0,1,0,0,3.14" transform="translate(0 9.21)"/><path class="cls-5" d="M28.78,60.58a1.55,1.55,0,1,0,0,3.09,1.59,1.59,0,0,0,1.55-1.55,1.55,1.55,0,0,0-1.55-1.54" transform="translate(0 9.21)"/><path class="cls-5" d="M31.1,53.77c0,1.4-.53,1.88-2,1.88H27.43V52.17c0-3.52-1.78-5.36-5.17-5.36-4.1,0-6,2.85-6,5.7A5.24,5.24,0,0,0,18.16,57c1.4.92,2.61,1.11,5.31,1.11h5.75c3,0,4.78-1.16,4.78-4.25v-7H31v7Zm-6.57,1.88H22.84c-2.46,0-3.47-1-3.47-3.24,0-1.88,1.06-3.14,2.75-3.14s2.46,1,2.46,3.19v3.19Z" transform="translate(0 9.21)"/><path class="cls-5" d="M20.67,45.27a1.57,1.57,0,0,0,0-3.14,1.57,1.57,0,0,0,0,3.14" transform="translate(0 9.21)"/><path class="cls-5" d="M45.83,52.51c0-2.85-1.83-5.7-5.94-5.7H37.53v2.46h2.56c1.69,0,2.75,1.21,2.75,3.14v3.24H35.16v2.46H45.83Z" transform="translate(0 9.21)"/><path class="cls-5" d="M32.36,60.58a1.55,1.55,0,1,0,0,3.09A1.6,1.6,0,0,0,34,62.12a1.56,1.56,0,0,0-1.59-1.54" transform="translate(0 9.21)"/><rect class="cls-5" x="145.52" y="50.52" width="2.9" height="16.81"/><path class="cls-5" d="M146.49,60.58v2.8a15,15,0,0,0,2.27.24c4,0,6-1.84,6-5.65v-10H151.7V58c0,1.88-1.06,3-2.75,3a6.62,6.62,0,0,1-2.13-.34Z" transform="translate(0 9.21)"/><rect class="cls-5" x="156.68" y="52.35" width="2.9" height="15.02"/><path class="cls-5" d="M110.07,57c1.4.92,2.61,1.11,5.31,1.11h1c-.05,1.94-1.11,2.9-3.19,2.9a10.81,10.81,0,0,1-3.28-.53l-.2,0v2.8a23.51,23.51,0,0,0,3.62.39c4,0,6-1.84,6-5.46h17c4.69,0,7.2-1.21,7.2-5.6,0-2.85-1.84-5.7-5.94-5.7-3.34,0-5.17,1.84-5.17,5.36V55.7h-2.66A5.76,5.76,0,0,0,130.5,53c0-2.47-1.59-5.37-5.94-5.37h-.39l5.65-6.23H126.3c-2.13,2.37-5.31,5.85-5.7,6.23V50.1h4.1a2.47,2.47,0,0,1,2.76,2.75c0,2.08-.92,2.85-3.48,2.85h-4.69V52.22c0-3.52-1.78-5.36-5.16-5.36-4.11,0-6,2.85-6,5.7A5.37,5.37,0,0,0,110.07,57m25.4-4.54c0-2.17.78-3.19,2.47-3.19s2.75,1.21,2.75,3.14c0,2.27-1,3.24-3.43,3.24h-1.79Zm-21.54-3.19c1.69,0,2.42,1,2.42,3.19V55.6h-1.64c-2.47,0-3.48-1-3.48-3.23,0-1.84,1.06-3.1,2.7-3.1" transform="translate(0 9.21)"/><path class="cls-5" d="M93,58.11a6.76,6.76,0,0,0,3.24-.72,2.93,2.93,0,0,0,1.4-2,6,6,0,0,0,.14-1.6V41.31h-3V53.72c0,1.4-.53,1.88-2,1.88h-.73a4.14,4.14,0,0,1-1.49-.29,10,10,0,0,0,.09-1.3V47.87H87.71v5.94c0,1.31-.58,1.84-1.89,1.84a4.25,4.25,0,0,1-1.49-.24A11.31,11.31,0,0,0,84.42,54V47.87H81.48v5.94c0,1.16-.29,1.65-1.11,1.79h-1.5c-.24,0-.72,0-.72-.24V47.87h-3V55.6H70.27c1.6-1.69,2.56-3.52,2.56-4.88,0-2.65-3.19-4-6.32-4s-6.33,1.35-6.33,4c0,1.89,1.69,3.92,2.65,4.88H58.34V52.12c0-3.52-1.78-5.36-5.16-5.36-4.11,0-6,2.85-6,5.7,0,2.08.63,3.62,1.89,4.49s2.61,1.11,5.31,1.11h1C55.4,60,54.33,61,52.26,61A10.92,10.92,0,0,1,49,60.43l-.19,0v2.8a22.32,22.32,0,0,0,3.62.39c4,0,6-1.83,6-5.46h20c.58,0,1.16.1,1.74.1a5.33,5.33,0,0,0,2.75-.63,9.4,9.4,0,0,0,3.52.63,4.81,4.81,0,0,0,2.76-.72,8.73,8.73,0,0,0,3.52.62ZM55.35,55.65H53.66c-2.46,0-3.48-1-3.48-3.24,0-1.88,1.06-3.14,2.75-3.14s2.47,1,2.47,3.19v3.19Zm11.16-.19c-.44,0-3.53-3-3.53-4.69,0-1,1.88-1.5,3.62-1.5s3.48.54,3.48,1.5c0,1.69-3,4.69-3.57,4.69" transform="translate(0 9.21)"/><rect class="cls-5" x="100.02" y="50.52" width="2.9" height="16.81"/><path class="cls-5" d="M160.3,40.48h-1.64c-.68,0-.82-.14-.82-.67s.19-.73.91-.73a2,2,0,0,1,1.26.44v-1.4l-.24-.1a2.74,2.74,0,0,0-1.06-.24c-1.5,0-2.32.72-2.32,2a1.18,1.18,0,0,0,.14.63H156v1.3h4.3V40.48Z" transform="translate(0 9.21)"/><path class="cls-5" d="M156,68.3a5.75,5.75,0,1,0,5.7,5.75A5.76,5.76,0,0,0,156,68.3m0,8.84A3.12,3.12,0,1,1,159,74,3.13,3.13,0,0,1,156,77.14" transform="translate(0 9.21)"/><path class="cls-5" d="M134.94,68.16a9.31,9.31,0,0,0-3.57.68,5.06,5.06,0,0,0-2.8-.68,14.12,14.12,0,0,0-4.54.72l-.29.1V79.51h2.85V70.86a4.62,4.62,0,0,1,1.59-.24c1.4,0,1.84.44,1.84,1.93v7h2.89V72.36a5.71,5.71,0,0,0-.14-1.45,4.65,4.65,0,0,1,1.55-.29c1.35,0,2,.63,2,1.93v7h2.85v-7.2a4,4,0,0,0-.87-2.94,4.41,4.41,0,0,0-3.34-1.21" transform="translate(0 9.21)"/><path class="cls-5" d="M146.44,77.29c-1.93,0-3-1.21-3-3.24s1.11-3.33,3.05-3.33a4.05,4.05,0,0,1,1.06.14,4.89,4.89,0,0,1,1.11.58l1.21-2.07a6,6,0,0,0-1.69-.87,7.28,7.28,0,0,0-1.84-.24c-3.43,0-5.75,2.36-5.75,5.94a5.23,5.23,0,0,0,5.61,5.6A5.87,5.87,0,0,0,150,78.49l-1.45-1.83a4.16,4.16,0,0,1-2.12.63" transform="translate(0 9.21)"/><path class="cls-5" d="M109.1,68.26c-4.1,0-6,1.78-6,5.65v5.65h2.94V73.91c0-1.94,1.11-3.14,2.8-3.14a6,6,0,0,1,1.64.24l.68-2.56a14.32,14.32,0,0,0-2.08-.19" transform="translate(0 9.21)"/><path class="cls-5" d="M122.1,73.57v5.94h-3.92c-2.7,0-3.91-.19-5.31-1.11C111.66,77.58,111,76,111,73.91c0-2.85,1.88-5.7,6-5.7,3.28.05,5.12,1.88,5.12,5.36m-2.9.34c0-2.18-.82-3.24-2.51-3.24s-2.8,1.26-2.8,3.14c0,2.27,1.11,3.28,3.52,3.28h1.79Z" transform="translate(0 9.21)"/><path class="cls-5" d="M101.52,73.57v5.94H97.61c-2.71,0-3.91-.19-5.31-1.11-1.21-.82-1.89-2.42-1.89-4.49,0-2.85,1.89-5.7,6-5.7,3.33.05,5.12,1.88,5.12,5.36m-3,.34c0-2.18-.78-3.24-2.47-3.24s-2.8,1.26-2.8,3.14c0,2.27,1.11,3.28,3.53,3.28h1.74Z" transform="translate(0 9.21)"/><path class="cls-5" d="M40.13,72.75c-1.73-.53-2.46-.82-2.46-1.35s.87-.92,2-.92a10.15,10.15,0,0,1,2.9.48l.68-2.51A16,16,0,0,0,39.7,68c-3.09,0-4.78,1.4-4.78,3.48,0,1.06.29,2.46,3.52,3.38,1.94.58,2.61.63,2.61,1.26s-1.2,1.21-2.56,1.21a9.2,9.2,0,0,1-3.76-1.07V79a10,10,0,0,0,3.71.77c3.39,0,5.37-1.45,5.37-3.62,0-1.69-1-2.61-3.68-3.38" transform="translate(0 9.21)"/><path class="cls-5" d="M64.67,75.36c0,1.4-.53,1.88-2,1.88H62.5c-1.5,0-2-.53-2-1.88v-7H57.62v7.15c0,3.33,1.88,4.2,4.73,4.2h.48c3,0,4.83-.87,4.83-4.2V68.4H64.72v7Z" transform="translate(0 9.21)"/><path class="cls-5" d="M83.07,64.34a1.55,1.55,0,1,0,1.55,1.55,1.56,1.56,0,0,0-1.55-1.55" transform="translate(0 9.21)"/><rect class="cls-5" x="81.67" y="77.95" width="2.85" height="10.82"/><path class="cls-5" d="M56,73.57v5.94H52.06c-2.7,0-3.91-.19-5.31-1.11-1.21-.82-1.88-2.42-1.88-4.49,0-2.85,1.88-5.7,6-5.7,3.28.05,5.12,1.88,5.12,5.36m-2.9.34c0-2.18-.82-3.24-2.51-3.24s-2.8,1.26-2.8,3.14c0,2.27,1.11,3.28,3.52,3.28h1.79Z" transform="translate(0 9.21)"/><path class="cls-5" d="M79.84,64.1V79.51H76.26c-2.7,0-3.91-.19-5.31-1.11-1.21-.82-1.88-2.42-1.88-4.49a5.34,5.34,0,0,1,5.65-5.65H75a4.07,4.07,0,0,1,2.07.62V64.1ZM77.08,74c0-2.31-.63-3.23-2.27-3.23S72,72,72,73.86c0,2.27,1.06,3.28,3.53,3.28h1.54Z" transform="translate(0 9.21)"/><path class="cls-6" d="M205.8,45.12a1.69,1.69,0,0,1,1.06,1.64c-.1.58-.73.78-1.45.44a1.72,1.72,0,0,1-1.06-1.69c.09-.58.72-.73,1.45-.39" transform="translate(0 9.21)"/><path class="cls-6" d="M207.87,33.67c.58.29,1,.83.92,1.16s-.58.44-1.16.1-1-.82-.92-1.21.58-.34,1.16,0" transform="translate(0 9.21)"/><path class="cls-6" d="M208.07,32.56c.48.25.82.68.77,1s-.48.34-1,0-.82-.68-.77-1,.48-.29,1,0" transform="translate(0 9.21)"/><path class="cls-6" d="M208.26,31.45c.43.24.77.63.72.87s-.43.29-.87,0-.77-.63-.72-.92.43-.24.87,0" transform="translate(0 9.21)"/><path class="cls-6" d="M208.45,30.34c.44.24.73.58.68.82s-.39.24-.82,0-.73-.58-.68-.82.39-.24.82,0" transform="translate(0 9.21)"/><path class="cls-6" d="M208.6,29.33c.38.19.67.53.63.72s-.34.2-.73,0-.68-.53-.63-.72.34-.2.73,0" transform="translate(0 9.21)"/><path class="cls-6" d="M208.74,28.41c.34.19.58.48.58.68s-.34.19-.67,0-.63-.49-.58-.68.33-.19.67,0" transform="translate(0 9.21)"/><path class="cls-6" d="M208.89,27.49c.34.2.58.44.53.63s-.29.15-.63,0-.58-.43-.53-.63.29-.14.63,0" transform="translate(0 9.21)"/><path class="cls-6" d="M209,26.62c.29.15.49.34.49.53s-.25.15-.54,0-.48-.39-.48-.54.24-.09.53.05" transform="translate(0 9.21)"/><path class="cls-6" d="M209.18,25.75c.24.15.43.34.43.49s-.24.09-.48,0-.44-.34-.44-.48.2-.1.49,0" transform="translate(0 9.21)"/><path class="cls-6" d="M209.27,24.93c.25.15.39.29.39.39s-.19.1-.43-.05-.39-.29-.39-.39.24,0,.43.05" transform="translate(0 9.21)"/><path class="cls-6" d="M209.42,24.16c.19.1.34.24.34.34s-.2.05-.39-.05-.34-.24-.34-.34.2-.05.39.05" transform="translate(0 9.21)"/><path class="cls-6" d="M205.07,49.08a1.63,1.63,0,0,1-.92-1.45c.1-.48.63-.67,1.26-.38a1.58,1.58,0,0,1,.92,1.4c-.15.58-.68.72-1.26.43" transform="translate(0 9.21)"/><path class="cls-6" d="M204.59,51.54a1.46,1.46,0,0,1-.87-1.44c.1-.54.63-.68,1.21-.44a1.47,1.47,0,0,1,.87,1.4c-.1.58-.63.77-1.21.48" transform="translate(0 9.21)"/><path class="cls-6" d="M204.11,54.06a1.46,1.46,0,0,1-.83-1.45c.1-.53.63-.73,1.21-.44a1.37,1.37,0,0,1,.82,1.4c-.09.58-.62.78-1.2.49" transform="translate(0 9.21)"/><path class="cls-6" d="M203.57,56.86a1.37,1.37,0,0,1-.82-1.45.77.77,0,0,1,1.16-.48,1.4,1.4,0,0,1,.82,1.4c-.09.58-.62.77-1.16.53" transform="translate(0 9.21)"/><path class="cls-6" d="M203,59.66a1.23,1.23,0,0,1-.67-1.31.7.7,0,0,1,1-.48,1.19,1.19,0,0,1,.68,1.26.69.69,0,0,1-1,.53" transform="translate(0 9.21)"/><path class="cls-6" d="M202.32,63a1.09,1.09,0,0,1-.63-1.26.71.71,0,0,1,1-.53,1.21,1.21,0,0,1,.62,1.26.7.7,0,0,1-1,.53" transform="translate(0 9.21)"/><path class="cls-6" d="M201.55,66.66A1,1,0,0,1,201,65.5a.66.66,0,0,1,.91-.53,1,1,0,0,1,.58,1.16.63.63,0,0,1-.91.53" transform="translate(0 9.21)"/><path class="cls-6" d="M200.77,70.33a.91.91,0,0,1-.48-1,.58.58,0,0,1,.82-.48,1,1,0,0,1,.48,1,.63.63,0,0,1-.82.48" transform="translate(0 9.21)"/><path class="cls-6" d="M208.31,46.47a1.56,1.56,0,0,1,.87,1.36c-.1.48-.58.62-1.11.33a1.39,1.39,0,0,1-.87-1.35c.05-.48.53-.58,1.11-.34" transform="translate(0 9.21)"/><path class="cls-6" d="M210.77,47.54a2,2,0,0,1,1.11,1.69c0,.62-.63.82-1.35.43a1.86,1.86,0,0,1-1.11-1.74c.05-.58.63-.72,1.35-.38" transform="translate(0 9.21)"/><path class="cls-6" d="M227.77,46.62c-.29-.19-.48-.1-.43.14a1.49,1.49,0,0,0,.58.78c.29.19.48.14.43-.15a1.43,1.43,0,0,0-.58-.77" transform="translate(0 9.21)"/><path class="cls-6" d="M225.79,45.27c-.38-.25-.63-.15-.58.14a1.61,1.61,0,0,0,.73,1c.38.24.62.14.58-.2s-.34-.67-.73-.91" transform="translate(0 9.21)"/><path class="cls-6" d="M220.29,63.76c-.49-.29-.83-.09-.87.49a2.11,2.11,0,0,0,.87,1.59c.48.29.82.1.86-.48a2.27,2.27,0,0,0-.86-1.6" transform="translate(0 9.21)"/><path class="cls-6" d="M217.92,59.08c-.58-.34-1-.1-1,.48a2.08,2.08,0,0,0,1,1.69c.58.34,1,.1,1-.53a2.11,2.11,0,0,0-1-1.64" transform="translate(0 9.21)"/><path class="cls-6" d="M215.41,55c-.53-.29-1-.09-1,.44a2,2,0,0,0,.92,1.54c.58.29,1,.1,1-.48a1.7,1.7,0,0,0-.92-1.5" transform="translate(0 9.21)"/><path class="cls-6" d="M213.91,38.41c-.48-.24-.92-.2-.92.14a1.53,1.53,0,0,0,.87,1.11c.48.25.92.2.92-.14a1.57,1.57,0,0,0-.87-1.11" transform="translate(0 9.21)"/><path class="cls-6" d="M224.05,45.75c-.38-.24-.67-.15-.63.19a1.62,1.62,0,0,0,.73,1c.39.24.68.14.63-.2a1.63,1.63,0,0,0-.73-1" transform="translate(0 9.21)"/><path class="cls-6" d="M222,44.59c-.38-.24-.72-.14-.67.19a1.82,1.82,0,0,0,.77,1.07c.44.24.73.14.68-.2a1.39,1.39,0,0,0-.78-1.06" transform="translate(0 9.21)"/><path class="cls-6" d="M218.06,43.87c-.48-.25-.87-.2-.87.19a1.72,1.72,0,0,0,.87,1.21c.49.29.87.14.87-.25a1.89,1.89,0,0,0-.87-1.15" transform="translate(0 9.21)"/><path class="cls-6" d="M220,43.33c-.48-.24-.82-.19-.82.2a1.66,1.66,0,0,0,.87,1.16c.49.24.82.19.78-.2a1.57,1.57,0,0,0-.83-1.16" transform="translate(0 9.21)"/><path class="cls-6" d="M218,42.13c-.53-.29-.92-.2-.92.19a1.85,1.85,0,0,0,.92,1.26c.53.29.91.19.91-.2a1.77,1.77,0,0,0-.91-1.25" transform="translate(0 9.21)"/><path class="cls-6" d="M215.89,42.66c-.53-.29-1-.2-1,.24a1.75,1.75,0,0,0,1,1.3c.53.29,1,.2,1-.24a1.72,1.72,0,0,0-1-1.3" transform="translate(0 9.21)"/><path class="cls-6" d="M213,51.16c-.58-.29-1-.15-1.11.38a1.83,1.83,0,0,0,.92,1.5c.58.29,1.06.1,1.06-.43a1.48,1.48,0,0,0-.87-1.45" transform="translate(0 9.21)"/><path class="cls-6" d="M213.23,48.89c-.62-.34-1.11-.15-1.16.38a1.77,1.77,0,0,0,1,1.55c.63.34,1.11.15,1.16-.43a2,2,0,0,0-1-1.5" transform="translate(0 9.21)"/><path class="cls-6" d="M213.38,46.81c-.68-.34-1.21-.19-1.26.39a1.92,1.92,0,0,0,1.11,1.64c.68.34,1.21.19,1.26-.39a2.11,2.11,0,0,0-1.11-1.64" transform="translate(0 9.21)"/><path class="cls-6" d="M213.52,44.83c-.62-.34-1.16-.19-1.2.34a1.87,1.87,0,0,0,1.06,1.55c.68.33,1.16.19,1.21-.34a2,2,0,0,0-1.07-1.55" transform="translate(0 9.21)"/><path class="cls-6" d="M213.62,43.14c-.58-.29-1-.19-1.06.24a1.67,1.67,0,0,0,1,1.35c.58.29,1,.2,1.07-.28a1.8,1.8,0,0,0-1-1.31" transform="translate(0 9.21)"/><path class="cls-6" d="M213.72,41.4c-.63-.34-1.11-.24-1.16.24s.43,1.07,1.06,1.4,1.11.2,1.16-.24a1.86,1.86,0,0,0-1.06-1.4" transform="translate(0 9.21)"/><path class="cls-6" d="M213.81,39.81c-.58-.29-1.06-.24-1.11.19a1.88,1.88,0,0,0,1,1.35c.58.29,1.06.25,1.11-.24a1.94,1.94,0,0,0-1-1.3" transform="translate(0 9.21)"/><path class="cls-6" d="M210,35c-.44-.19-.77-.19-.82.1s.24.62.67.86.78.2.82-.09-.29-.63-.67-.87" transform="translate(0 9.21)"/><path class="cls-6" d="M210.09,33.77c-.38-.19-.67-.19-.72,0s.24.58.63.77.67.2.72-.05-.29-.58-.63-.77" transform="translate(0 9.21)"/><path class="cls-6" d="M210.14,32.56c-.34-.19-.58-.14-.62,0a.93.93,0,0,0,.53.68c.33.19.58.14.62,0s-.19-.48-.53-.68" transform="translate(0 9.21)"/><path class="cls-6" d="M210.19,31.45c-.29-.14-.53-.19-.58,0a.76.76,0,0,0,.48.58c.29.15.54.2.58,0a.79.79,0,0,0-.48-.58" transform="translate(0 9.21)"/><path class="cls-6" d="M210.24,30.39c-.29-.14-.48-.19-.53,0s.19.39.48.53.48.19.53,0-.19-.38-.48-.53" transform="translate(0 9.21)"/><path class="cls-6" d="M210.29,29.33c-.24-.15-.44-.15-.49,0a.7.7,0,0,0,.39.48c.24.15.44.15.48,0s-.14-.34-.38-.48" transform="translate(0 9.21)"/><path class="cls-6" d="M210.34,28.41c-.25-.14-.39-.14-.44,0s.15.29.39.43.38.15.43,0-.14-.28-.38-.43" transform="translate(0 9.21)"/><path class="cls-6" d="M210.38,27.44c-.19-.09-.33-.14-.38,0s.14.25.34.39.33.15.38,0-.14-.24-.34-.39" transform="translate(0 9.21)"/><path class="cls-6" d="M207.78,50.14c.43.2.82.1.87-.29a1.2,1.2,0,0,0-.68-1.06c-.44-.19-.82-.09-.87.29a1.16,1.16,0,0,0,.68,1.06" transform="translate(0 9.21)"/><path class="cls-6" d="M207.39,52.61c.43.19.77,0,.82-.34a1.2,1.2,0,0,0-.63-1.06c-.43-.2-.77-.05-.87.29a1.3,1.3,0,0,0,.68,1.11" transform="translate(0 9.21)"/><path class="cls-6" d="M206.81,55.12c.44.19.77.05.82-.34a1.11,1.11,0,0,0-.63-1.06c-.38-.19-.77,0-.82.34a1.13,1.13,0,0,0,.63,1.06" transform="translate(0 9.21)"/><path class="cls-6" d="M206.28,57.82a.49.49,0,0,0,.77-.33,1,1,0,0,0-.58-1c-.38-.19-.72,0-.77.34a1,1,0,0,0,.58,1" transform="translate(0 9.21)"/><path class="cls-6" d="M205.65,60.58a.52.52,0,0,0,.77-.39,1,1,0,0,0-.53-1,.54.54,0,0,0-.77.39.91.91,0,0,0,.53,1" transform="translate(0 9.21)"/><path class="cls-6" d="M204.88,63.81a.49.49,0,0,0,.72-.38.86.86,0,0,0-.48-.92.49.49,0,0,0-.72.38.94.94,0,0,0,.48.92" transform="translate(0 9.21)"/><path class="cls-6" d="M215.89,41c-.48-.29-.87-.2-.92.19a1.65,1.65,0,0,0,.87,1.16c.53.29.92.19.92-.19a1.65,1.65,0,0,0-.87-1.16" transform="translate(0 9.21)"/><path class="cls-6" d="M215.75,44.45c-.44-.25-.83-.15-.83.19a1.55,1.55,0,0,0,.78,1.11c.43.24.82.14.82-.24a1.25,1.25,0,0,0-.77-1.06" transform="translate(0 9.21)"/><path class="cls-6" d="M215.75,46.18c-.54-.29-.92-.14-1,.29a1.79,1.79,0,0,0,.87,1.31c.53.29.92.14,1-.29a1.78,1.78,0,0,0-.86-1.31" transform="translate(0 9.21)"/><path class="cls-6" d="M215.46,52.56c-.49-.24-.92-.1-.92.39a1.67,1.67,0,0,0,.87,1.35c.53.29.92.09.92-.39a1.54,1.54,0,0,0-.87-1.35" transform="translate(0 9.21)"/><path class="cls-6" d="M223.86,44.06c-.44-.24-.72-.19-.68.19a1.71,1.71,0,0,0,.82,1.06c.44.25.73.2.68-.19a1.59,1.59,0,0,0-.82-1.06" transform="translate(0 9.21)"/><path class="cls-6" d="M217.73,62.12c-.49-.24-.83,0-.87.44a1.8,1.8,0,0,0,.82,1.45c.48.29.82,0,.87-.49a1.67,1.67,0,0,0-.82-1.4" transform="translate(0 9.21)"/><path class="cls-6" d="M220.29,66.9c-.44-.29-.78,0-.78.49a1.9,1.9,0,0,0,.78,1.49c.43.29.77.05.77-.48a1.94,1.94,0,0,0-.77-1.5" transform="translate(0 9.21)"/><path class="cls-6" d="M215.21,57.68c-.53-.29-.91-.1-1,.43a1.79,1.79,0,0,0,.87,1.5c.53.29.92.1,1-.48a1.73,1.73,0,0,0-.87-1.45" transform="translate(0 9.21)"/><path class="cls-6" d="M212.85,53.72c-.49-.24-.92-.1-1,.38a1.55,1.55,0,0,0,.82,1.36c.53.24.92.09,1-.44a1.6,1.6,0,0,0-.82-1.3" transform="translate(0 9.21)"/><path class="cls-6" d="M210.53,49.9c-.53-.29-1-.09-1.11.39a1.63,1.63,0,0,0,.87,1.4c.58.29,1,.1,1.11-.39a1.37,1.37,0,0,0-.87-1.4" transform="translate(0 9.21)"/><path class="cls-6" d="M215.55,50.39c-.48-.25-.82-.1-.87.29a1.64,1.64,0,0,0,.82,1.25c.49.24.83.1.87-.34a1.47,1.47,0,0,0-.82-1.2" transform="translate(0 9.21)"/><path class="cls-6" d="M214,37.06c-.44-.25-.77-.2-.82.09a1.43,1.43,0,0,0,.77,1c.43.24.77.19.82-.1a1.33,1.33,0,0,0-.77-1" transform="translate(0 9.21)"/><path class="cls-6" d="M221.93,43c-.34-.2-.58-.15-.58.14A1.26,1.26,0,0,0,222,44c.34.19.58.15.58-.14a1.54,1.54,0,0,0-.67-.87" transform="translate(0 9.21)"/><path class="cls-6" d="M218.06,47.68c-.38-.19-.67-.14-.72.24a1.38,1.38,0,0,0,.68,1c.38.19.67.09.72-.24a1.23,1.23,0,0,0-.68-1" transform="translate(0 9.21)"/><path class="cls-6" d="M217.87,56.47c-.48-.29-.87-.1-.87.39a1.68,1.68,0,0,0,.87,1.4c.48.29.87.09.87-.44a2,2,0,0,0-.87-1.35" transform="translate(0 9.21)"/><path class="cls-6" d="M215.65,48.36c-.44-.24-.82-.15-.87.29a1.58,1.58,0,0,0,.77,1.16c.49.24.82.14.82-.29a1.3,1.3,0,0,0-.72-1.16" transform="translate(0 9.21)"/><path class="cls-6" d="M220.33,51c-.43-.25-.77-.15-.77.29a1.49,1.49,0,0,0,.82,1.2c.44.24.77.15.77-.29a1.69,1.69,0,0,0-.82-1.2" transform="translate(0 9.21)"/><path class="cls-6" d="M222.22,72.26c-.34-.24-.63,0-.63.44a1.88,1.88,0,0,0,.63,1.35c.34.24.63,0,.63-.43a2,2,0,0,0-.63-1.36" transform="translate(0 9.21)"/><path class="cls-6" d="M220.14,45.12c-.39-.24-.72-.14-.72.19a1.39,1.39,0,0,0,.77,1c.43.24.72.14.72-.19a1.66,1.66,0,0,0-.77-1" transform="translate(0 9.21)"/><path class="cls-6" d="M211.93,36c-.39-.19-.72-.19-.77.1a1.36,1.36,0,0,0,.67.87c.39.19.73.19.78-.1a1.09,1.09,0,0,0-.68-.87" transform="translate(0 9.21)"/><path class="cls-6" d="M215.94,36.86c-.39-.19-.68-.19-.68.1a1.18,1.18,0,0,0,.68.82c.39.19.67.19.67-.1a1.18,1.18,0,0,0-.67-.82" transform="translate(0 9.21)"/><path class="cls-6" d="M220,41.93c-.34-.19-.54-.14-.54.1a1.1,1.1,0,0,0,.58.77c.34.2.54.15.54-.14a1.14,1.14,0,0,0-.58-.73" transform="translate(0 9.21)"/><path class="cls-6" d="M218,49.66c-.39-.24-.73-.1-.73.24A1.34,1.34,0,0,0,218,51c.38.24.72.09.72-.25a1.56,1.56,0,0,0-.72-1.06" transform="translate(0 9.21)"/><path class="cls-6" d="M220.19,48.94c-.34-.2-.63-.1-.63.19a1.22,1.22,0,0,0,.63.92c.34.19.63.09.63-.2a1.27,1.27,0,0,0-.63-.91" transform="translate(0 9.21)"/><path class="cls-6" d="M222.46,52.32c-.39-.24-.68-.15-.68.24a1.51,1.51,0,0,0,.73,1.11c.38.24.67.14.67-.29a1.51,1.51,0,0,0-.72-1.06" transform="translate(0 9.21)"/><path class="cls-6" d="M225.94,47.05c-.29-.19-.49-.09-.49.15A1.53,1.53,0,0,0,226,48c.29.19.49.1.49-.15a1.21,1.21,0,0,0-.58-.82" transform="translate(0 9.21)"/><path class="cls-6" d="M215.94,35.65c-.34-.19-.58-.14-.58.05a1.11,1.11,0,0,0,.58.73c.34.19.58.14.58,0a1,1,0,0,0-.58-.73" transform="translate(0 9.21)"/><path class="cls-6" d="M215.94,38.21c-.34-.19-.63-.14-.63.1s.29.58.63.77.63.15.63-.09a1.37,1.37,0,0,0-.63-.78" transform="translate(0 9.21)"/><path class="cls-6" d="M222.6,69c-.38-.29-.72-.1-.72.43a2.15,2.15,0,0,0,.72,1.5c.39.29.73.1.73-.48A2,2,0,0,0,222.6,69" transform="translate(0 9.21)"/><path class="cls-6" d="M214,35.85c-.34-.2-.63-.15-.63,0a1,1,0,0,0,.58.72c.34.19.63.15.63-.1s-.25-.48-.58-.67" transform="translate(0 9.21)"/><path class="cls-6" d="M218,45.8c-.34-.2-.63-.1-.63.19a1.21,1.21,0,0,0,.63.87c.34.19.63.1.63-.19a1.36,1.36,0,0,0-.63-.87" transform="translate(0 9.21)"/><path class="cls-6" d="M217.92,40.87c-.29-.14-.48-.1-.53.1s.24.48.53.67.53.1.53-.09a.92.92,0,0,0-.53-.68" transform="translate(0 9.21)"/><path class="cls-6" d="M217.92,54.15c-.34-.19-.63-.09-.63.24a1.16,1.16,0,0,0,.63,1c.34.19.63.1.63-.29a1.48,1.48,0,0,0-.63-.92" transform="translate(0 9.21)"/><path class="cls-6" d="M220.33,60.87c-.38-.25-.67-.1-.72.38a1.57,1.57,0,0,0,.72,1.26c.39.24.73.1.73-.39a1.87,1.87,0,0,0-.73-1.25" transform="translate(0 9.21)"/><path class="cls-6" d="M215.89,39.81c-.24-.15-.48-.1-.48.1a.8.8,0,0,0,.43.57c.24.15.49.1.49-.09a.6.6,0,0,0-.44-.58" transform="translate(0 9.21)"/><path class="cls-6" d="M220.14,70.14c-.29-.19-.58,0-.58.39a1.46,1.46,0,0,0,.53,1.11c.34.19.58,0,.58-.39a1.45,1.45,0,0,0-.53-1.11" transform="translate(0 9.21)"/><path class="cls-6" d="M222.17,46.43c-.34-.2-.58-.15-.58.14a1.21,1.21,0,0,0,.63.87c.34.19.58.14.58-.19a1.38,1.38,0,0,0-.63-.82" transform="translate(0 9.21)"/><path class="cls-6" d="M217.92,36.77c-.29-.15-.53-.15-.53,0s.24.49.53.68.53.15.53-.05-.24-.48-.53-.67" transform="translate(0 9.21)"/><path class="cls-6" d="M229.75,47.92c-.24-.14-.38-.09-.38.1a1.11,1.11,0,0,0,.48.68c.24.14.38.09.34-.15a1.2,1.2,0,0,0-.44-.63" transform="translate(0 9.21)"/><path class="cls-6" d="M224.68,53.77c-.34-.2-.58-.1-.58.24a1.61,1.61,0,0,0,.68,1.06c.34.24.58.1.58-.24a1.69,1.69,0,0,0-.68-1.06" transform="translate(0 9.21)"/><path class="cls-6" d="M223.62,75.79c-.29-.24-.48-.05-.48.39a2,2,0,0,0,.53,1.3c.29.24.48.1.48-.39a2,2,0,0,0-.53-1.3" transform="translate(0 9.21)"/><path class="cls-6" d="M217.63,65.31c-.34-.19-.63,0-.63.39a1.36,1.36,0,0,0,.58,1.11c.34.19.63,0,.63-.39a1.34,1.34,0,0,0-.58-1.11" transform="translate(0 9.21)"/><path class="cls-6" d="M222.36,50.39c-.24-.15-.43-.1-.43.14a.85.85,0,0,0,.48.68c.24.14.44.09.44-.15a1,1,0,0,0-.49-.67" transform="translate(0 9.21)"/><path class="cls-6" d="M217.82,35.56c-.24-.15-.43-.15-.43,0s.19.38.48.53.44.14.44,0a1.2,1.2,0,0,0-.49-.53" transform="translate(0 9.21)"/><path class="cls-6" d="M219.61,36.67c-.19-.1-.39-.1-.34,0s.19.34.39.43.38.1.34,0-.2-.33-.39-.43" transform="translate(0 9.21)"/><path class="cls-6" d="M215.07,60.91c-.29-.14-.58,0-.58.29a1.09,1.09,0,0,0,.53.92c.34.15.58.05.58-.29a1.1,1.1,0,0,0-.53-.92" transform="translate(0 9.21)"/><path class="cls-6" d="M212.56,56.66c-.29-.14-.58,0-.58.29a1,1,0,0,0,.48.83c.29.14.58,0,.58-.29a1,1,0,0,0-.48-.83" transform="translate(0 9.21)"/><path class="cls-6" d="M210.19,52.7c-.29-.14-.58,0-.58.25a.82.82,0,0,0,.48.77c.29.14.58.05.58-.24a.93.93,0,0,0-.48-.78" transform="translate(0 9.21)"/><path class="cls-6" d="M219.51,35.51c-.24-.14-.38-.14-.38.05s.19.34.43.48.39.15.39,0a.86.86,0,0,0-.44-.48" transform="translate(0 9.21)"/><path class="cls-6" d="M220.91,35.56c-.19-.1-.33-.1-.33,0s.14.29.33.38.34.1.34-.05-.14-.29-.34-.38" transform="translate(0 9.21)"/><path class="cls-6" d="M226.81,55.41c-.2-.15-.39-.1-.34.14a1.07,1.07,0,0,0,.43.73c.24.14.39.09.34-.15a1,1,0,0,0-.43-.72" transform="translate(0 9.21)"/><path class="cls-6" d="M224.83,56c-.29-.19-.49-.1-.49.19a1.21,1.21,0,0,0,.53.87c.29.19.49.1.44-.19a1.07,1.07,0,0,0-.48-.87" transform="translate(0 9.21)"/><path class="cls-6" d="M222.6,54.59c-.24-.15-.43-.1-.43.19a.9.9,0,0,0,.48.77c.24.15.44.1.44-.19a1.16,1.16,0,0,0-.49-.77" transform="translate(0 9.21)"/><path class="cls-6" d="M220.29,53.24c-.25-.15-.44-.05-.44.19a.86.86,0,0,0,.44.67c.24.15.43,0,.43-.19a.87.87,0,0,0-.43-.67" transform="translate(0 9.21)"/><path class="cls-6" d="M218,51.88c-.24-.14-.44-.05-.44.2a.88.88,0,0,0,.44.67c.24.15.43,0,.43-.19a.83.83,0,0,0-.43-.68" transform="translate(0 9.21)"/><path class="cls-6" d="M227,57.53c-.24-.14-.39-.09-.34.2a1,1,0,0,0,.44.72c.24.15.38.1.34-.19a1.49,1.49,0,0,0-.44-.73" transform="translate(0 9.21)"/><path class="cls-6" d="M229.17,59.18c-.19-.15-.34-.1-.29.14a1.26,1.26,0,0,0,.39.73c.19.14.34.09.29-.15a1.28,1.28,0,0,0-.39-.72" transform="translate(0 9.21)"/><path class="cls-6" d="M217.87,38.07c-.24-.15-.43-.15-.43,0s.19.38.43.53.44.14.44,0a.87.87,0,0,0-.44-.53" transform="translate(0 9.21)"/><path class="cls-6" d="M203.19,44c-.58-.29-1.11-.14-1.21.29a1.32,1.32,0,0,0,.87,1.35c.58.29,1.11.15,1.21-.33a1.35,1.35,0,0,0-.87-1.31" transform="translate(0 9.21)"/><path class="cls-6" d="M200.72,42.56c-.72-.34-1.4-.19-1.59.39a1.57,1.57,0,0,0,1.06,1.64c.78.34,1.45.14,1.6-.43a1.66,1.66,0,0,0-1.07-1.6" transform="translate(0 9.21)"/><path class="cls-6" d="M184,24.88c.38.15.58.39.43.58a.9.9,0,0,1-1,.1c-.38-.14-.58-.39-.43-.58a.94.94,0,0,1,1-.1" transform="translate(0 9.21)"/><path class="cls-6" d="M186.72,25.71c.48.19.72.48.58.72s-.68.29-1.16.1-.73-.49-.58-.73a1.28,1.28,0,0,1,1.16-.09" transform="translate(0 9.21)"/><path class="cls-6" d="M185.7,47.58c.44.2.68.58.49,1a.87.87,0,0,1-1.11.34c-.44-.19-.68-.58-.49-1a.9.9,0,0,1,1.11-.34" transform="translate(0 9.21)"/><path class="cls-6" d="M189.62,45.6a1,1,0,1,1-.73,1.74,1,1,0,0,1-.72-1.3,1.12,1.12,0,0,1,1.45-.44" transform="translate(0 9.21)"/><path class="cls-6" d="M193.63,44.45a1.23,1.23,0,0,1,.82,1.35,1.08,1.08,0,0,1-1.45.43c-.63-.29-1-.87-.82-1.4s.82-.63,1.45-.38" transform="translate(0 9.21)"/><path class="cls-6" d="M201,31.79c.54.24.87.73.78,1s-.58.38-1.16.09-.87-.72-.77-1.06.62-.34,1.15-.05" transform="translate(0 9.21)"/><path class="cls-6" d="M188.46,28c.48.19.77.53.63.82s-.68.33-1.21.14-.78-.53-.63-.82.72-.34,1.21-.14" transform="translate(0 9.21)"/><path class="cls-6" d="M191,28.94c.53.19.77.58.62.87s-.67.34-1.2.15-.82-.58-.63-.87.68-.34,1.21-.15" transform="translate(0 9.21)"/><path class="cls-6" d="M195.27,32.37c.53.24.87.73.77,1.06s-.68.39-1.26.15-.91-.73-.77-1.06.68-.39,1.26-.15" transform="translate(0 9.21)"/><path class="cls-6" d="M193.48,29.91c.53.24.87.67.72,1s-.67.39-1.25.15-.87-.68-.73-1,.73-.38,1.26-.14" transform="translate(0 9.21)"/><path class="cls-6" d="M195.94,31c.58.29.92.72.78,1.06s-.73.39-1.31.15-.92-.73-.77-1.07.72-.38,1.3-.14" transform="translate(0 9.21)"/><path class="cls-6" d="M197.73,33.43c.58.29,1,.78.82,1.16s-.72.44-1.35.2-1-.83-.82-1.16.72-.49,1.35-.2" transform="translate(0 9.21)"/><path class="cls-6" d="M197.3,43.43a1.24,1.24,0,0,1,.82,1.35c-.15.49-.78.68-1.4.39s-1-.87-.82-1.4.77-.58,1.4-.34" transform="translate(0 9.21)"/><path class="cls-6" d="M197.92,41.4a1.33,1.33,0,0,1,.92,1.45c-.14.48-.82.68-1.5.39s-1.06-1-.91-1.45.82-.68,1.49-.39" transform="translate(0 9.21)"/><path class="cls-6" d="M198.5,39.47c.73.34,1.16,1,1,1.5s-.87.67-1.6.34a1.51,1.51,0,0,1-1-1.55c.19-.48.87-.63,1.59-.29" transform="translate(0 9.21)"/><path class="cls-6" d="M199.08,37.64c.68.33,1.11,1,1,1.44s-.82.63-1.55.29-1.16-1-1-1.45.82-.57,1.54-.28" transform="translate(0 9.21)"/><path class="cls-6" d="M199.57,36.09a1.28,1.28,0,0,1,.87,1.26c-.15.38-.73.53-1.36.24s-1-.82-.87-1.26.73-.53,1.36-.24" transform="translate(0 9.21)"/><path class="cls-6" d="M200.15,34.5c.67.33,1.06.87,1,1.3s-.77.53-1.45.19-1.06-.91-1-1.35.77-.43,1.45-.14" transform="translate(0 9.21)"/><path class="cls-6" d="M200.63,33.05c.63.33,1,.87.92,1.25s-.73.49-1.36.15-1.06-.87-.91-1.26.72-.43,1.35-.14" transform="translate(0 9.21)"/><path class="cls-6" d="M205.7,32.71c.43.24.72.58.68.87s-.44.29-.87.09-.73-.57-.68-.86.43-.29.87-.1" transform="translate(0 9.21)"/><path class="cls-6" d="M206,31.55a1.05,1.05,0,0,1,.63.77c0,.24-.39.24-.78,0s-.67-.53-.63-.77.39-.24.78-.05" transform="translate(0 9.21)"/><path class="cls-6" d="M206.38,30.49c.33.19.58.48.53.67s-.34.2-.68.05-.58-.48-.53-.67.34-.25.68-.05" transform="translate(0 9.21)"/><path class="cls-6" d="M206.67,29.42c.29.15.53.39.48.58s-.29.2-.63,0-.53-.38-.48-.58.29-.14.63,0" transform="translate(0 9.21)"/><path class="cls-6" d="M207,28.51c.29.14.48.33.43.53s-.29.14-.58,0-.48-.39-.43-.53.29-.15.58,0" transform="translate(0 9.21)"/><path class="cls-6" d="M207.2,27.59c.24.14.43.34.38.48s-.24.15-.48,0-.43-.34-.39-.48.25-.15.49,0" transform="translate(0 9.21)"/><path class="cls-6" d="M207.44,26.82c.24.14.38.29.38.43s-.24.1-.43,0S207,27,207,26.82s.2-.1.44,0" transform="translate(0 9.21)"/><path class="cls-6" d="M207.68,26c.19.1.34.25.34.39s-.2.1-.39-.05-.34-.24-.34-.38.15-.05.39,0" transform="translate(0 9.21)"/><path class="cls-6" d="M202.37,47.49a1,1,0,0,1-.63-1.06c.1-.39.53-.49,1-.29s.72.67.62,1a.6.6,0,0,1-1,.34" transform="translate(0 9.21)"/><path class="cls-6" d="M201.88,49.9a1,1,0,0,1-.62-1c.09-.39.48-.48.91-.29a1,1,0,0,1,.63,1c-.09.34-.48.49-.92.29" transform="translate(0 9.21)"/><path class="cls-6" d="M201.4,52.41a1,1,0,0,1-.58-1.06c.1-.38.48-.53.92-.34a.93.93,0,0,1,.58,1c0,.43-.48.58-.92.38" transform="translate(0 9.21)"/><path class="cls-6" d="M201,55.17a1,1,0,0,1-.53-1,.58.58,0,0,1,.87-.34.91.91,0,0,1,.53,1,.61.61,0,0,1-.87.39" transform="translate(0 9.21)"/><path class="cls-6" d="M200.44,58.11a.85.85,0,0,1-.49-1,.53.53,0,0,1,.82-.34.93.93,0,0,1,.53,1,.63.63,0,0,1-.86.33" transform="translate(0 9.21)"/><path class="cls-6" d="M199.86,61.49a.9.9,0,0,1-.49-.91.54.54,0,0,1,.78-.39.88.88,0,0,1,.48.92c0,.38-.39.53-.77.38" transform="translate(0 9.21)"/><path class="cls-6" d="M198.31,32.08c.53.24.87.73.77,1.06s-.67.39-1.2.15-.92-.73-.78-1.06.68-.39,1.21-.15" transform="translate(0 9.21)"/><path class="cls-6" d="M197.05,35.08c.49.24.83.67.68,1s-.63.39-1.11.19-.82-.67-.68-1,.63-.39,1.11-.14" transform="translate(0 9.21)"/><path class="cls-6" d="M196.47,36.62c.58.29.92.77.78,1.16s-.73.48-1.31.24-.91-.77-.77-1.16.73-.48,1.3-.24" transform="translate(0 9.21)"/><path class="cls-6" d="M194.4,42.27a1,1,0,0,1,.72,1.21c-.14.43-.72.58-1.3.34s-.92-.78-.73-1.21.73-.58,1.31-.34" transform="translate(0 9.21)"/><path class="cls-6" d="M189.28,26.62c.53.24.82.58.67.87s-.72.29-1.25.1-.82-.58-.68-.87.73-.34,1.26-.1" transform="translate(0 9.21)"/><path class="cls-6" d="M188.6,48.26a1,1,0,0,1,.68,1.26,1,1,0,0,1-1.35.43,1,1,0,0,1-.68-1.25,1,1,0,0,1,1.35-.44" transform="translate(0 9.21)"/><path class="cls-6" d="M184.64,49.85a1,1,0,0,1,.63,1.26,1.13,1.13,0,0,1-1.45.48,1,1,0,0,1-.63-1.25,1.18,1.18,0,0,1,1.45-.49" transform="translate(0 9.21)"/><path class="cls-6" d="M192.71,46.91a1.07,1.07,0,0,1,.72,1.3,1,1,0,0,1-1.4.44,1.11,1.11,0,0,1-.72-1.36,1.07,1.07,0,0,1,1.4-.38" transform="translate(0 9.21)"/><path class="cls-6" d="M196.52,45.85a1.13,1.13,0,0,1,.73,1.25.89.89,0,0,1-1.26.39,1.09,1.09,0,0,1-.72-1.26c.14-.48.67-.63,1.25-.38" transform="translate(0 9.21)"/><path class="cls-6" d="M200.05,44.73a1.32,1.32,0,0,1,.82,1.31c-.15.48-.68.63-1.3.39a1.3,1.3,0,0,1-.83-1.36c.15-.43.73-.58,1.31-.34" transform="translate(0 9.21)"/><path class="cls-6" d="M195.12,40.29a1.09,1.09,0,0,1,.73,1.11c-.15.39-.68.49-1.21.29a1.08,1.08,0,0,1-.73-1.11c.15-.43.68-.53,1.21-.29" transform="translate(0 9.21)"/><path class="cls-6" d="M201.45,30.54c.48.24.77.62.68.91s-.54.29-1,.05-.77-.63-.67-.92.53-.29,1,0" transform="translate(0 9.21)"/><path class="cls-6" d="M191.79,27.78c.43.2.63.49.53.73s-.53.24-1,0-.68-.49-.54-.73.54-.24,1,0" transform="translate(0 9.21)"/><path class="cls-6" d="M193.87,35.65c.43.2.72.58.58.87s-.58.39-1.07.2-.72-.58-.62-.87a.8.8,0,0,1,1.11-.2" transform="translate(0 9.21)"/><path class="cls-6" d="M190.58,43.24a.9.9,0,1,1-.67,1.59,1,1,0,0,1-.73-1.25,1.12,1.12,0,0,1,1.4-.34" transform="translate(0 9.21)"/><path class="cls-6" d="M195.75,38.5c.53.25.82.68.68,1.07s-.63.48-1.16.24-.82-.68-.68-1.06.68-.44,1.16-.25" transform="translate(0 9.21)"/><path class="cls-6" d="M190.39,36.19c.53.24.82.67.68,1a1,1,0,0,1-1.26.24c-.53-.24-.82-.67-.68-1a1,1,0,0,1,1.26-.24" transform="translate(0 9.21)"/><path class="cls-6" d="M181.16,51.54a.61.61,0,0,1,.39.87.88.88,0,0,1-1.06.39.61.61,0,0,1-.39-.87,1,1,0,0,1,1.06-.39" transform="translate(0 9.21)"/><path class="cls-6" d="M192.71,31.36c.48.19.77.58.63.87s-.63.33-1.12.14-.77-.58-.62-.87.62-.34,1.11-.14" transform="translate(0 9.21)"/><path class="cls-6" d="M203.57,31.69c.44.2.68.58.63.83s-.43.29-.87,0-.67-.58-.62-.82.48-.29.86,0" transform="translate(0 9.21)"/><path class="cls-6" d="M197.54,27.54c.34.15.53.34.48.53s-.34.2-.68.1-.53-.34-.48-.53.34-.2.68-.1" transform="translate(0 9.21)"/><path class="cls-6" d="M194.11,28.75c.38.14.58.43.48.67s-.48.25-.87,0-.58-.43-.48-.67.48-.24.87-.05" transform="translate(0 9.21)"/><path class="cls-6" d="M193.09,37.44c.49.2.73.58.63.92s-.63.43-1.11.19-.77-.63-.63-.91.63-.39,1.11-.2" transform="translate(0 9.21)"/><path class="cls-6" d="M191.21,34.59c.43.2.63.53.53.78s-.53.33-1,.14-.68-.53-.54-.77a.84.84,0,0,1,1-.15" transform="translate(0 9.21)"/><path class="cls-6" d="M187.59,35.22c.48.19.77.58.58.87a1.1,1.1,0,0,1-1.21.24c-.48-.19-.77-.58-.58-.92a1,1,0,0,1,1.21-.19" transform="translate(0 9.21)"/><path class="cls-6" d="M185.85,27.15c.39.15.58.39.48.58s-.53.25-1,.1-.63-.39-.49-.63a1.33,1.33,0,0,1,1-.05" transform="translate(0 9.21)"/><path class="cls-6" d="M198.07,26.48c.34.14.58.38.53.53s-.34.19-.72.1-.58-.39-.54-.58.34-.2.73-.05" transform="translate(0 9.21)"/><path class="cls-6" d="M199.28,29.52c.43.19.67.53.58.77s-.49.25-.92.05-.68-.53-.58-.77.48-.24.92-.05" transform="translate(0 9.21)"/><path class="cls-6" d="M199.76,28.36c.39.2.63.48.53.68s-.39.24-.77.05-.63-.49-.53-.73.38-.19.77,0" transform="translate(0 9.21)"/><path class="cls-6" d="M194.54,34.11c.39.19.63.48.53.77s-.48.29-.91.15-.63-.53-.53-.78.48-.29.91-.14" transform="translate(0 9.21)"/><path class="cls-6" d="M196.47,29.86c.34.14.54.43.44.58s-.39.19-.73,0-.53-.44-.43-.58.39-.2.72-.05" transform="translate(0 9.21)"/><path class="cls-6" d="M191.45,41.26c.39.19.63.53.53.82s-.53.38-1,.24-.63-.53-.53-.82a.74.74,0,0,1,1-.24" transform="translate(0 9.21)"/><path class="cls-6" d="M198.7,30.92c.29.15.48.39.43.53s-.34.2-.63.05-.48-.39-.43-.53.34-.14.63,0" transform="translate(0 9.21)"/><path class="cls-6" d="M201.74,29.42c.34.2.53.44.48.63s-.34.2-.67.05-.54-.43-.49-.63.34-.19.68,0" transform="translate(0 9.21)"/><path class="cls-6" d="M190.15,30.39c.38.15.63.48.53.72s-.53.29-1,.15-.62-.48-.53-.72.53-.29,1-.15" transform="translate(0 9.21)"/><path class="cls-6" d="M181.21,24c.34.09.49.29.34.43a.9.9,0,0,1-.82.1c-.34-.1-.48-.29-.34-.44a.93.93,0,0,1,.82-.09" transform="translate(0 9.21)"/><path class="cls-6" d="M184.69,34.21c.48.14.68.48.53.77a1,1,0,0,1-1.16.19c-.48-.14-.72-.48-.53-.77a1.13,1.13,0,0,1,1.16-.19" transform="translate(0 9.21)"/><path class="cls-6" d="M180.2,54.15a.55.55,0,0,1,.34.82.88.88,0,0,1-1,.39.59.59,0,0,1-.34-.87.76.76,0,0,1,1-.34" transform="translate(0 9.21)"/><path class="cls-6" d="M177.3,55.65a.48.48,0,0,1,.29.72.77.77,0,0,1-.87.34.46.46,0,0,1-.29-.72.75.75,0,0,1,.87-.34" transform="translate(0 9.21)"/><path class="cls-6" d="M187.54,50.82a.75.75,0,0,1,.48,1,.82.82,0,0,1-1.06.38.75.75,0,0,1-.48-1,.86.86,0,0,1,1.06-.39" transform="translate(0 9.21)"/><path class="cls-6" d="M183.58,52.51a.75.75,0,0,1,.48,1,.82.82,0,0,1-1.06.38.74.74,0,0,1-.48-1,.84.84,0,0,1,1.06-.39" transform="translate(0 9.21)"/><path class="cls-6" d="M188.46,33.63c.29.14.48.38.38.53s-.43.24-.72.14-.48-.38-.39-.58a.72.72,0,0,1,.73-.09" transform="translate(0 9.21)"/><path class="cls-6" d="M196.62,24.84c.29.09.43.29.39.43s-.29.15-.58.05S196,25,196,24.88s.34-.14.58,0" transform="translate(0 9.21)"/><path class="cls-6" d="M191.74,49.52a.72.72,0,0,1,.44.82.67.67,0,0,1-.87.29.6.6,0,1,1,.43-1.11" transform="translate(0 9.21)"/><path class="cls-6" d="M195.65,48.21a.68.68,0,0,1,.44.78.55.55,0,0,1-.77.24.67.67,0,0,1-.44-.78.54.54,0,0,1,.77-.24" transform="translate(0 9.21)"/><path class="cls-6" d="M199.28,47.39c.33.15.53.48.43.73s-.39.38-.72.24a.67.67,0,0,1-.44-.78.53.53,0,0,1,.73-.19" transform="translate(0 9.21)"/><path class="cls-6" d="M181.55,33.38c.29.1.48.29.34.49a.69.69,0,0,1-.77.14c-.34-.09-.49-.29-.34-.48a.82.82,0,0,1,.77-.15" transform="translate(0 9.21)"/><path class="cls-6" d="M183.63,35.65c.38.15.58.39.43.63a.77.77,0,0,1-.92.2c-.38-.15-.58-.39-.43-.63s.53-.29.92-.2" transform="translate(0 9.21)"/><path class="cls-6" d="M186.57,37c.34.14.49.39.39.63a.67.67,0,0,1-.82.14c-.34-.14-.53-.38-.39-.63a.78.78,0,0,1,.82-.14" transform="translate(0 9.21)"/><path class="cls-6" d="M189.47,38.12c.29.14.44.38.34.58a.55.55,0,0,1-.68.14c-.29-.14-.43-.38-.38-.58a.63.63,0,0,1,.72-.14" transform="translate(0 9.21)"/><path class="cls-6" d="M192.27,39.33c.29.14.44.38.39.58a.55.55,0,0,1-.68.14.56.56,0,0,1-.38-.58.48.48,0,0,1,.67-.14" transform="translate(0 9.21)"/><path class="cls-6" d="M198.55,25.56c.24.1.44.29.39.44s-.24.14-.53,0-.44-.29-.39-.43.24-.15.53-.05" transform="translate(0 9.21)"/><path class="cls-6" d="M197.15,24c.24.09.39.24.34.38s-.24.15-.48,0-.39-.24-.34-.38.29-.15.48-.05" transform="translate(0 9.21)"/><path class="cls-6" d="M195.75,22.61c.19.1.34.25.34.34s-.19.15-.44.05-.33-.19-.33-.34.19-.14.43-.05" transform="translate(0 9.21)"/><path class="cls-6" d="M200.15,27.44c.29.15.43.34.38.54s-.29.14-.58,0-.43-.34-.43-.54.34-.14.63,0" transform="translate(0 9.21)"/><path class="cls-6" d="M180.54,34.79c.33.09.48.33.33.53a.77.77,0,0,1-.82.14c-.33-.09-.48-.34-.33-.53a.82.82,0,0,1,.82-.14" transform="translate(0 9.21)"/><path class="cls-6" d="M177.69,34c.29.1.43.29.33.44a.83.83,0,0,1-.77.19c-.29-.1-.43-.29-.34-.43a.74.74,0,0,1,.78-.2" transform="translate(0 9.21)"/><path class="cls-6" d="M202,33c-.1.34.19.77.68,1.11-.58-.19-1.07-.1-1.21.29a1.21,1.21,0,0,0,.53,1.11.86.86,0,0,0-1,.39,1.41,1.41,0,0,0,.78,1.3c-.63-.19-1.11,0-1.26.39A1.28,1.28,0,0,0,201,38.7a.87.87,0,0,0-1,.48,1.36,1.36,0,0,0,.63,1.3c-.58-.09-1,.1-1.16.54a1.74,1.74,0,0,0,1.11,1.73c.68.29,1.26.25,1.55-.09a2.15,2.15,0,0,0,1.15,1.4,1.35,1.35,0,0,0,1.36,0,2.23,2.23,0,0,0,1.11,1.21,1.24,1.24,0,0,0,1.3,0,2.47,2.47,0,0,0,1.11,1.2,1.14,1.14,0,0,0,1.31,0,2.5,2.5,0,0,0,1.11,1.26c.77.39,1.35.19,1.45-.44a1.83,1.83,0,0,0-.73-1.44c.49.09.87-.1.92-.54a1.57,1.57,0,0,0-.63-1.25c.44,0,.73-.15.77-.53a1.72,1.72,0,0,0-.86-1.4c.57.19,1,0,1-.39a1.73,1.73,0,0,0-.68-1.21c.44.1.73-.05.78-.38a1.92,1.92,0,0,0-.87-1.31c.48.2.82,0,.87-.29a1.78,1.78,0,0,0-1-1.25c-.48-.24-.92-.24-1.06,0a1.75,1.75,0,0,0-1-1.07c-.48-.24-.92-.24-1.06,0a2.06,2.06,0,0,0-1-1.16c-.53-.29-1-.29-1.25,0a1.85,1.85,0,0,0-.92-1c-.58-.29-1.11-.29-1.21.1h0c.1-.39-.33-.87-1-1.21-.48-.38-1-.34-1.16.05m7.82,11.4a.83.83,0,0,1,.49.67c-.05.25-.29.29-.58.15a.86.86,0,0,1-.49-.68c0-.24.29-.29.58-.14m-2.32-1.11a.79.79,0,0,1,.44.58.33.33,0,0,1-.53.14.71.71,0,0,1-.44-.63c0-.19.25-.24.53-.09m-2.36-1.16c.29.14.43.38.38.58s-.29.24-.57.14-.44-.38-.39-.58.29-.29.58-.14M203,41.4c0,.24-.33.29-.62.15s-.54-.44-.44-.68.34-.29.63-.14.48.48.43.67m7.1,1.31a.81.81,0,0,1,.44.58c-.05.19-.24.24-.49.09a.8.8,0,0,1-.43-.58c0-.19.24-.24.48-.09M203,39.13c.29.15.44.39.39.58s-.29.24-.58.1-.43-.39-.38-.58.33-.24.57-.1M210.34,41c.24.14.43.38.38.58s-.24.24-.48.09-.44-.38-.39-.58.24-.19.49-.09m-6.91-3.48c.24.15.43.39.39.53s-.29.19-.54.1-.43-.39-.38-.53.24-.24.53-.1m7.1,1.88c.24.15.43.34.39.54s-.25.19-.49.09-.43-.34-.38-.53.24-.24.48-.1m-6.71-3.43c.24.15.43.34.38.54s-.29.19-.53.09-.43-.34-.39-.53.25-.24.54-.1m6.81,1.74a.83.83,0,0,1,.43.58c0,.2-.24.2-.48.1a.85.85,0,0,1-.44-.58c0-.19.24-.19.49-.1m-2.08-1a.7.7,0,0,1,.39.48c-.05.2-.25.2-.49.05a.68.68,0,0,1-.38-.48c0-.15.24-.2.48,0m-2.08-1.06a.68.68,0,0,1,.39.48c-.05.14-.24.19-.48,0a.68.68,0,0,1-.39-.49c0-.19.24-.19.48,0m-2.32-1.21a.73.73,0,0,1,.44.53c-.05.19-.29.19-.58,0a.73.73,0,0,1-.44-.58.48.48,0,0,1,.58,0" transform="translate(0 9.21)"/></g></g></svg>