<svg xmlns="http://www.w3.org/2000/svg" xmlns:xlink="http://www.w3.org/1999/xlink" viewBox="0 0 248.68 100"><defs><style>.cls-1{fill:none;}.cls-2{clip-path:url(#clip-path);}.cls-3{fill:#4ea9dd;}.cls-4{fill:#c3daf0;}.cls-5{fill:#49a5db;}.cls-6{fill:#8fbee4;}.cls-7{fill:#48a3da;}.cls-8{fill:#7ab4e0;}.cls-9{fill:#929497;}</style><clipPath id="clip-path"><rect class="cls-1" x="16.1" y="15.79" width="216.48" height="68.42"/></clipPath></defs><g id="Layer_2" data-name="Layer 2"><g id="Layer_1-2" data-name="Layer 1"><rect class="cls-1" width="248.68" height="100"/><g class="cls-2"><path class="cls-3" d="M231.76,84.21a35.27,35.27,0,0,0-29.63-42.5,35.23,35.23,0,0,0,29.63,42.5"/><path class="cls-4" d="M197.62,41.4c-1,0-2.07.05-3.12.14a34.79,34.79,0,0,0-24.85,13.93,34.74,34.74,0,0,0,23.75,9.41c1,0,2.1,0,3.16-.14a34.14,34.14,0,0,0,7.56-1.53,35.44,35.44,0,0,1-2-21.52,34.56,34.56,0,0,0-4.46-.29"/><path class="cls-5" d="M215.36,57.13l0,0,0,0m0,0A36,36,0,0,1,212,59.54a36,36,0,0,0,3.34-2.38M212,59.55l0,0,0,0"/><path class="cls-6" d="M225.56,15.79a35.13,35.13,0,0,0-23.48,25.9,34.92,34.92,0,0,1,19.34,9.13h0a35.35,35.35,0,0,0,4.14-35M204.12,63.21h0"/><path class="cls-7" d="M221.41,50.83a34.7,34.7,0,0,1-6,6.3,35.1,35.1,0,0,0,6.06-6.3h0m-6.08,6.32h0M212,59.54h0m0,0a34.31,34.31,0,0,1-7.83,3.64h0A34.77,34.77,0,0,0,212,59.57"/><path class="cls-8" d="M202.08,41.69a35.44,35.44,0,0,0,2,21.52h0a35.6,35.6,0,0,1-2-21.49,34.79,34.79,0,0,1,19.28,9.11h0a34.94,34.94,0,0,0-19.34-9.14"/><path class="cls-7" d="M202.13,41.72a35.6,35.6,0,0,0,2,21.49A34.31,34.31,0,0,0,212,59.57l0,0h0a36,36,0,0,0,3.34-2.38h0l0,0a35,35,0,0,0,6-6.3,34.79,34.79,0,0,0-19.28-9.11"/><path class="cls-9" d="M17.88,67.81v2.37h1.65a9.27,9.27,0,0,0,1.22-.05A1.06,1.06,0,0,0,21.64,69a1.16,1.16,0,0,0-.19-.68,1.09,1.09,0,0,0-.55-.4,5.79,5.79,0,0,0-1.58-.13Zm0-3.52v2h1.17q1,0,1.29,0a1.26,1.26,0,0,0,.72-.32,1.07,1.07,0,0,0,0-1.36,1,1,0,0,0-.67-.31c-.17,0-.68,0-1.52,0ZM16.1,62.81h3.52a9.82,9.82,0,0,1,1.56.09A2.26,2.26,0,0,1,22.78,64a2,2,0,0,1,.27,1,2.05,2.05,0,0,1-.33,1.14,2.09,2.09,0,0,1-.91.78,2.33,2.33,0,0,1,1.24.81,2.12,2.12,0,0,1,.43,1.33,2.59,2.59,0,0,1-.28,1.18,2.43,2.43,0,0,1-.76.91,2.45,2.45,0,0,1-1.19.42c-.3,0-1,0-2.15.06h-3Z"/><path class="cls-9" d="M29.19,71.67v-1a2.46,2.46,0,0,1-.91.81,2.54,2.54,0,0,1-1.2.3,2.31,2.31,0,0,1-1.15-.29,1.66,1.66,0,0,1-.74-.79A3.68,3.68,0,0,1,25,69.31v-4h1.69V68.2a8.44,8.44,0,0,0,.09,1.66.85.85,0,0,0,.34.48,1,1,0,0,0,.63.18,1.32,1.32,0,0,0,.77-.24,1.18,1.18,0,0,0,.47-.59A7.2,7.2,0,0,0,29.07,68v-2.7h1.69v6.41Z"/><path class="cls-9" d="M34.15,71.67H32.46V65.26H34v.91a2.93,2.93,0,0,1,.72-.86,1.4,1.4,0,0,1,.73-.2,2.19,2.19,0,0,1,1.12.32l-.53,1.48a1.49,1.49,0,0,0-.79-.28.92.92,0,0,0-.6.2,1.42,1.42,0,0,0-.39.71,10.45,10.45,0,0,0-.14,2.15Z"/><path class="cls-9" d="M40.27,65.26v1.35H39.12v2.58a7.18,7.18,0,0,0,0,.92l.15.21.29.09a2.51,2.51,0,0,0,.68-.16l.14,1.31a3.32,3.32,0,0,1-1.33.26,2.19,2.19,0,0,1-.83-.16,1.12,1.12,0,0,1-.53-.4,1.43,1.43,0,0,1-.24-.66,7.9,7.9,0,0,1,0-1.2V66.61h-.78V65.26h.78V64l1.69-1v2.27Z"/><path class="cls-9" d="M42.81,68.46a2.11,2.11,0,0,0,.45,1.46,1.46,1.46,0,0,0,2.22,0,2.64,2.64,0,0,0,0-2.92,1.46,1.46,0,0,0-2.22,0,2.14,2.14,0,0,0-.45,1.46m-1.73-.09a3.59,3.59,0,0,1,.41-1.64,2.85,2.85,0,0,1,1.18-1.2,3.42,3.42,0,0,1,1.69-.42,3.16,3.16,0,0,1,2.38,1,3.28,3.28,0,0,1,.92,2.38,3.34,3.34,0,0,1-.93,2.42,3.16,3.16,0,0,1-2.35,1,3.78,3.78,0,0,1-1.68-.4,2.79,2.79,0,0,1-1.21-1.17,4,4,0,0,1-.41-1.88"/><path class="cls-9" d="M54.81,71.67H53.12V68.4A4.78,4.78,0,0,0,53,67.05a.88.88,0,0,0-.35-.47.93.93,0,0,0-.58-.17,1.34,1.34,0,0,0-.79.24,1.23,1.23,0,0,0-.48.64,5.9,5.9,0,0,0-.13,1.48v2.9H49V65.26h1.56v.94a2.55,2.55,0,0,1,2.11-1.09,2.61,2.61,0,0,1,1,.2,1.76,1.76,0,0,1,.7.52,1.78,1.78,0,0,1,.33.71,5.55,5.55,0,0,1,.09,1.14Z"/><path class="cls-9" d="M63.2,65.77l.45-.35a1.05,1.05,0,0,0,.51-.78.74.74,0,0,0-.24-.55.92.92,0,0,0-.66-.23.93.93,0,0,0-.63.2.63.63,0,0,0-.23.47,1.31,1.31,0,0,0,.38.76Zm-.66,1.85a2.17,2.17,0,0,0-.87.71,1.43,1.43,0,0,0-.29.85,1.19,1.19,0,0,0,.36.9,1.29,1.29,0,0,0,.95.35,2,2,0,0,0,.77-.16,3.13,3.13,0,0,0,.79-.52Zm5.25,3-1,1.31a6.08,6.08,0,0,1-1.44-1,3.62,3.62,0,0,1-1.13.71,4.08,4.08,0,0,1-1.43.23,3.15,3.15,0,0,1-2.48-.93,2.4,2.4,0,0,1-.64-1.66,2.55,2.55,0,0,1,.5-1.53,4.15,4.15,0,0,1,1.51-1.18,4.88,4.88,0,0,1-.68-1,2.27,2.27,0,0,1-.23-.93,1.76,1.76,0,0,1,.64-1.36,2.72,2.72,0,0,1,1.83-.56,2.55,2.55,0,0,1,1.78.59,1.86,1.86,0,0,1,.64,1.43,1.76,1.76,0,0,1-.32,1A4.24,4.24,0,0,1,64,66.79l1.23,1.63a4.61,4.61,0,0,0,.37-1l1.52.35A9.14,9.14,0,0,1,66.77,69a3.39,3.39,0,0,1-.36.64,6.63,6.63,0,0,0,.73.58,5.31,5.31,0,0,0,.65.42"/></g><polygon class="cls-9" points="72.36 71.67 72.36 62.81 74.14 62.81 74.14 66.3 77.62 66.3 77.62 62.81 79.4 62.81 79.4 71.67 77.62 71.67 77.62 67.8 74.14 67.8 74.14 71.67 72.36 71.67"/><path class="cls-9" d="M81.25,71.67h1.69V65.25H81.25Zm0-7.29h1.69V62.81H81.25Z"/><g class="cls-2"><path class="cls-9" d="M86.05,68.33a2.25,2.25,0,0,0,.39,1.49,1.2,1.2,0,0,0,1,.48,1.31,1.31,0,0,0,1-.49,2.08,2.08,0,0,0,.43-1.44,2.27,2.27,0,0,0-.41-1.48,1.3,1.3,0,0,0-1-.48,1.25,1.25,0,0,0-1,.47,2.2,2.2,0,0,0-.39,1.45m-1.51,3.76,1.92.24a.65.65,0,0,0,.23.46,1.18,1.18,0,0,0,.75.19,2,2,0,0,0,1-.2.92.92,0,0,0,.33-.43,2.64,2.64,0,0,0,.08-.78v-.94a2.26,2.26,0,0,1-1.91,1,2.34,2.34,0,0,1-2-1.09,3.78,3.78,0,0,1-.59-2.15A3.54,3.54,0,0,1,85.09,66,2.46,2.46,0,0,1,87,65.11a2.32,2.32,0,0,1,1.95,1v-.91h1.58V71a5.87,5.87,0,0,1-.19,1.7,2.1,2.1,0,0,1-.52.88,2.23,2.23,0,0,1-.9.5,4.72,4.72,0,0,1-1.42.18,3.68,3.68,0,0,1-2.3-.55,1.78,1.78,0,0,1-.68-1.42Z"/><path class="cls-9" d="M93.92,62.81v3.26a2.47,2.47,0,0,1,2-1,2.38,2.38,0,0,1,1,.22,1.76,1.76,0,0,1,.71.55,2.27,2.27,0,0,1,.32.75A6.6,6.6,0,0,1,98,67.91v3.76H96.35V68.28a4.71,4.71,0,0,0-.1-1.28.84.84,0,0,0-.34-.43,1,1,0,0,0-.61-.16,1.45,1.45,0,0,0-.75.2,1.21,1.21,0,0,0-.48.62,3.85,3.85,0,0,0-.15,1.23v3.21H92.23V62.81Z"/><path class="cls-9" d="M101.38,68.32a2.74,2.74,0,0,0,.31,1.48,1.33,1.33,0,0,0,1.16.68,1.22,1.22,0,0,0,1-.49,2.38,2.38,0,0,0,.39-1.51,2.51,2.51,0,0,0-.4-1.59,1.25,1.25,0,0,0-1-.48,1.28,1.28,0,0,0-1,.47,2.19,2.19,0,0,0-.4,1.44M99.7,71.67V62.81h1.69V66a2.4,2.4,0,0,1,1.85-.89,2.47,2.47,0,0,1,1.93.85,3.52,3.52,0,0,1,.76,2.44,3.72,3.72,0,0,1-.78,2.53,2.37,2.37,0,0,1-3,.61,2.5,2.5,0,0,1-.91-.81v.94Z"/><path class="cls-9" d="M111.51,71.67v-1a2.57,2.57,0,0,1-2.11,1.11,2.35,2.35,0,0,1-1.16-.29,1.71,1.71,0,0,1-.74-.79,3.7,3.7,0,0,1-.22-1.43v-4H109V68.2a8.1,8.1,0,0,0,.1,1.66.81.81,0,0,0,.34.48,1,1,0,0,0,.62.18,1.33,1.33,0,0,0,.78-.24,1.16,1.16,0,0,0,.46-.59,6.51,6.51,0,0,0,.13-1.73v-2.7h1.69v6.41Z"/><path class="cls-9" d="M116.47,71.67h-1.69V65.26h1.57v.91a2.93,2.93,0,0,1,.72-.86,1.4,1.4,0,0,1,.73-.2,2.13,2.13,0,0,1,1.11.32l-.52,1.48a1.55,1.55,0,0,0-.79-.28.92.92,0,0,0-.6.2,1.29,1.29,0,0,0-.39.71,10.45,10.45,0,0,0-.14,2.15Z"/><path class="cls-9" d="M118.87,65.26h1.79l1.53,4.55,1.49-4.55h1.75l-2.26,6.17-.4,1.12a4.77,4.77,0,0,1-.42.85,1.76,1.76,0,0,1-1.11.77,3.22,3.22,0,0,1-.86.1,4.41,4.41,0,0,1-1-.1l-.15-1.33a4.05,4.05,0,0,0,.72.08,1,1,0,0,0,.87-.35,2.34,2.34,0,0,0,.43-.88Z"/><path class="cls-9" d="M134.08,68.41V66.92h3.84v3.53a5.1,5.1,0,0,1-1.62,1,6,6,0,0,1-2.15.41,4.8,4.8,0,0,1-2.41-.58,3.62,3.62,0,0,1-1.54-1.67,5.33,5.33,0,0,1-.52-2.36,5.08,5.08,0,0,1,.58-2.46,3.88,3.88,0,0,1,1.68-1.65,4.61,4.61,0,0,1,2.11-.44,4.17,4.17,0,0,1,2.56.69,3.11,3.11,0,0,1,1.19,1.92L136,65.6a1.83,1.83,0,0,0-.69-1,2.14,2.14,0,0,0-1.29-.38,2.42,2.42,0,0,0-1.85.74,3.15,3.15,0,0,0-.69,2.21,3.43,3.43,0,0,0,.7,2.36,2.3,2.3,0,0,0,1.83.79,2.93,2.93,0,0,0,1.11-.22,3.88,3.88,0,0,0,1-.53V68.41Z"/><path class="cls-9" d="M141.18,71.67H139.5V65.26h1.56v.91a2.79,2.79,0,0,1,.73-.86,1.35,1.35,0,0,1,.73-.2,2.18,2.18,0,0,1,1.11.32l-.52,1.48a1.55,1.55,0,0,0-.8-.28,1,1,0,0,0-.6.2,1.42,1.42,0,0,0-.39.71,10.45,10.45,0,0,0-.14,2.15Z"/><path class="cls-9" d="M145.72,68.46a2.11,2.11,0,0,0,.45,1.46,1.46,1.46,0,0,0,2.22,0,2.59,2.59,0,0,0,0-2.92,1.46,1.46,0,0,0-2.22,0,2.14,2.14,0,0,0-.45,1.46M144,68.37a3.59,3.59,0,0,1,.41-1.64,2.85,2.85,0,0,1,1.18-1.2,3.42,3.42,0,0,1,1.69-.42,3.16,3.16,0,0,1,2.38,1,3.28,3.28,0,0,1,.92,2.38,3.34,3.34,0,0,1-.93,2.42,3.14,3.14,0,0,1-2.35,1,3.78,3.78,0,0,1-1.68-.4,2.79,2.79,0,0,1-1.21-1.17,4,4,0,0,1-.41-1.88"/><path class="cls-9" d="M156.12,71.67v-1a2.49,2.49,0,0,1-.92.81,2.53,2.53,0,0,1-1.19.3,2.32,2.32,0,0,1-1.16-.29,1.71,1.71,0,0,1-.74-.79,3.68,3.68,0,0,1-.23-1.43v-4h1.69V68.2a7.39,7.39,0,0,0,.1,1.66.81.81,0,0,0,.34.48,1,1,0,0,0,.62.18,1.28,1.28,0,0,0,.77-.24,1.13,1.13,0,0,0,.47-.59A6.51,6.51,0,0,0,156,68v-2.7h1.69v6.41Z"/><path class="cls-9" d="M161.08,68.35a2.43,2.43,0,0,0,.43,1.6,1.28,1.28,0,0,0,1,.52,1.18,1.18,0,0,0,1-.48,2.36,2.36,0,0,0,.4-1.55,2.32,2.32,0,0,0-.41-1.5,1.22,1.22,0,0,0-1-.49,1.3,1.3,0,0,0-1,.48,2.15,2.15,0,0,0-.41,1.42m-1.67-3.09H161v.94a2.42,2.42,0,0,1,.83-.79,2.31,2.31,0,0,1,1.16-.3,2.45,2.45,0,0,1,1.89.87,3.56,3.56,0,0,1,.77,2.45,3.69,3.69,0,0,1-.78,2.5,2.44,2.44,0,0,1-1.89.89,2.18,2.18,0,0,1-1-.21,3.65,3.65,0,0,1-.9-.73v3.23h-1.69Z"/></g></g></g></svg>