<svg xmlns="http://www.w3.org/2000/svg" xmlns:xlink="http://www.w3.org/1999/xlink" viewBox="0 0 248.68 100"><defs><style>.cls-1{fill:none;}.cls-2{clip-path:url(#clip-path);}.cls-3{fill:#2d2f7b;}.cls-4{fill:#58b0b7;}.cls-5{fill:#e51448;}.cls-6{fill:#f28a04;}.cls-7{fill:#fbc010;}.cls-8{fill:#009b7c;}.cls-9{fill:#a32482;}</style><clipPath id="clip-path"><rect class="cls-1" x="16.1" y="31.52" width="216.48" height="36.96"/></clipPath></defs><g id="Layer_2" data-name="Layer 2"><g id="Layer_1-2" data-name="Layer 1"><rect class="cls-1" width="248.68" height="100"/><g class="cls-2"><path class="cls-3" d="M21.57,65.83a.23.23,0,0,1-.21.26c-.28,0-.59.09-.94.12a12.25,12.25,0,0,1-1.34.06,2.89,2.89,0,0,1-1.07-.2,2.46,2.46,0,0,1-1-.61,3.13,3.13,0,0,1-.68-1.12,4.62,4.62,0,0,1-.27-1.68V61.1a4.86,4.86,0,0,1,.28-1.75,3,3,0,0,1,.71-1.12,2.28,2.28,0,0,1,1-.58,3.83,3.83,0,0,1,1.1-.18,12,12,0,0,1,1.33.06c.35,0,.63.07.85.11l.14,0a.15.15,0,0,1,.06.13v.58q0,.12-.15.12h-.05l-.49,0a3.7,3.7,0,0,0-.48,0H19.18a2.43,2.43,0,0,0-.77.12,1.54,1.54,0,0,0-.65.43,2.28,2.28,0,0,0-.45.82,4.39,4.39,0,0,0-.16,1.3v1.56a4.35,4.35,0,0,0,.14,1.22,2.39,2.39,0,0,0,.41.83,1.66,1.66,0,0,0,.63.47,2,2,0,0,0,.75.15l.89,0,.55,0V61.93a.25.25,0,0,1,.06-.16.17.17,0,0,1,.15-.07h.62a.18.18,0,0,1,.15.07.21.21,0,0,1,.07.16Z"/><path class="cls-3" d="M27.09,62.43A2.11,2.11,0,0,0,26.72,61a1.71,1.71,0,0,0-2.28,0,2,2,0,0,0-.4,1.38v.1h3.05Zm1,.63c0,.17-.07.26-.22.26H24.05v.16a2,2,0,0,0,.41,1.46,1.52,1.52,0,0,0,1.19.43c.34,0,.69,0,1.07,0s.7-.06,1-.1h.05a.16.16,0,0,1,.12,0,.12.12,0,0,1,.06.12v.4a.32.32,0,0,1-.05.18.3.3,0,0,1-.18.08l-1,.15c-.33,0-.69,0-1.08,0a3.47,3.47,0,0,1-1-.13,2.17,2.17,0,0,1-.83-.45,2.21,2.21,0,0,1-.58-.85A3.52,3.52,0,0,1,23,63.47v-1a2.91,2.91,0,0,1,.65-2,2.41,2.41,0,0,1,1.9-.73,2.88,2.88,0,0,1,1.1.2,2.22,2.22,0,0,1,.79.54,2.17,2.17,0,0,1,.47.86,3.6,3.6,0,0,1,.17,1.12Z"/><path class="cls-3" d="M34.32,66a.24.24,0,0,1-.23.23h-.55A.24.24,0,0,1,33.3,66V62.13a3.09,3.09,0,0,0-.07-.74,1.09,1.09,0,0,0-.24-.48.78.78,0,0,0-.39-.24,1.94,1.94,0,0,0-.56-.08,2.29,2.29,0,0,0-.76.13,6.47,6.47,0,0,0-.8.33V66a.24.24,0,0,1-.23.23h-.56a.18.18,0,0,1-.15-.07.24.24,0,0,1-.07-.16V60a.24.24,0,0,1,.07-.16.18.18,0,0,1,.15-.07h.58a.18.18,0,0,1,.15.07.19.19,0,0,1,.06.16v.22a6.25,6.25,0,0,1,.9-.41,3.26,3.26,0,0,1,.93-.13,1.78,1.78,0,0,1,1.52.63,2.91,2.91,0,0,1,.48,1.79V66Z"/><path class="cls-3" d="M39.73,62.43A2.11,2.11,0,0,0,39.36,61a1.44,1.44,0,0,0-1.13-.42,1.43,1.43,0,0,0-1.14.45,2,2,0,0,0-.4,1.38v.1h3.05v-.1Zm1,.63c0,.17-.07.26-.22.26H36.69v.16a2,2,0,0,0,.41,1.46,1.54,1.54,0,0,0,1.19.43c.34,0,.69,0,1.07,0s.7-.06,1-.1h0a.16.16,0,0,1,.12,0,.12.12,0,0,1,.06.12v.4a.32.32,0,0,1,0,.18.3.3,0,0,1-.18.08l-1,.15c-.33,0-.69,0-1.08,0a3.47,3.47,0,0,1-1-.13,2.17,2.17,0,0,1-.83-.45,2.33,2.33,0,0,1-.58-.85,3.52,3.52,0,0,1-.23-1.35v-1a2.91,2.91,0,0,1,.65-2,2.41,2.41,0,0,1,1.9-.73,2.84,2.84,0,0,1,1.1.2,2.22,2.22,0,0,1,.79.54,2.3,2.3,0,0,1,.47.86,3.6,3.6,0,0,1,.17,1.12Z"/><path class="cls-3" d="M45,60.4c0,.14-.08.2-.24.2a2.83,2.83,0,0,0-.78.11,3.23,3.23,0,0,0-.81.38V66a.2.2,0,0,1-.07.16.21.21,0,0,1-.16.07h-.56a.2.2,0,0,1-.16-.07.23.23,0,0,1-.06-.16V60a.23.23,0,0,1,.06-.16.2.2,0,0,1,.16-.07h.53a.2.2,0,0,1,.16.07.19.19,0,0,1,.06.16v.24a3.48,3.48,0,0,1,.83-.43,2.76,2.76,0,0,1,.79-.12q.24,0,.24.21v.47Z"/><path class="cls-3" d="M49.14,63.1h-.85a5.17,5.17,0,0,0-.86.06,1.77,1.77,0,0,0-.54.19.71.71,0,0,0-.27.35,1.64,1.64,0,0,0-.08.53v.14a1,1,0,0,0,.28.84,1.29,1.29,0,0,0,.78.22,2.48,2.48,0,0,0,.77-.12,4,4,0,0,0,.78-.35V63.1Zm1,2.85a.24.24,0,0,1-.07.16.21.21,0,0,1-.16.07h-.53a.22.22,0,0,1-.17-.07.24.24,0,0,1-.07-.16v-.26a5.41,5.41,0,0,1-.84.41,2.58,2.58,0,0,1-.92.16,2.82,2.82,0,0,1-.71-.09,1.35,1.35,0,0,1-.59-.31,1.41,1.41,0,0,1-.42-.58,2.37,2.37,0,0,1-.15-.91v-.14a2,2,0,0,1,.14-.81,1.23,1.23,0,0,1,.47-.59,2.35,2.35,0,0,1,.86-.36,5.89,5.89,0,0,1,1.29-.12h.85v-.46a1.46,1.46,0,0,0-.28-1,1.3,1.3,0,0,0-1-.29q-.57,0-1,0l-.77.07h0a.33.33,0,0,1-.14,0,.17.17,0,0,1-.07-.15v-.4c0-.13.08-.2.24-.22l.78-.1a9.37,9.37,0,0,1,1,0,2.21,2.21,0,0,1,1.72.58,2.32,2.32,0,0,1,.52,1.6V66Z"/><path class="cls-3" d="M52.83,66a.23.23,0,0,1-.06.16.16.16,0,0,1-.14.07H52a.18.18,0,0,1-.15-.07.22.22,0,0,1-.05-.16V57.67a.22.22,0,0,1,.05-.16.2.2,0,0,1,.15-.06h.6a.18.18,0,0,1,.14.06.25.25,0,0,1,.06.16Z"/><path class="cls-3" d="M62.26,66a.17.17,0,0,1,0,.1s0,0-.09.07l-.43,0h-1.8a2.84,2.84,0,0,1-1.84-.5,2,2,0,0,1-.61-1.66V59.63A2,2,0,0,1,58.07,58a2.89,2.89,0,0,1,1.84-.49h.56l.62,0,.59,0,.46,0a.09.09,0,0,1,.08.05.17.17,0,0,1,0,.1v.58c0,.1,0,.14-.12.14H59.91a3.46,3.46,0,0,0-.73.07.83.83,0,0,0-.43.21.7.7,0,0,0-.2.38,2.82,2.82,0,0,0-.06.56v1.61H62a.24.24,0,0,1,.16.07.22.22,0,0,1,.07.17v.44a.24.24,0,0,1-.23.23H58.49V64.1a2.32,2.32,0,0,0,.06.57.71.71,0,0,0,.2.37,1,1,0,0,0,.43.21,2.92,2.92,0,0,0,.73.06h2.22c.08,0,.12,0,.12.14V66Z"/><path class="cls-3" d="M68.51,66a.24.24,0,0,1-.07.16.22.22,0,0,1-.17.07h-.55a.24.24,0,0,1-.23-.23V62.13a3,3,0,0,0-.08-.74,1.08,1.08,0,0,0-.23-.48.81.81,0,0,0-.4-.24,1.89,1.89,0,0,0-.56-.08,2.29,2.29,0,0,0-.76.13,5.78,5.78,0,0,0-.79.33V66a.24.24,0,0,1-.07.16.21.21,0,0,1-.16.07h-.56a.19.19,0,0,1-.16-.07.23.23,0,0,1-.06-.16V60a.23.23,0,0,1,.06-.16.19.19,0,0,1,.16-.07h.57a.2.2,0,0,1,.16.07.28.28,0,0,1,.06.16v.22a6.17,6.17,0,0,1,.89-.41,3.26,3.26,0,0,1,.93-.13,1.8,1.8,0,0,1,1.53.63,2.91,2.91,0,0,1,.47,1.79V66Z"/><path class="cls-3" d="M73.19,66c0,.11-.07.17-.21.2s-.24,0-.38,0l-.36,0a3.58,3.58,0,0,1-.7-.06,1.21,1.21,0,0,1-.48-.24,1.18,1.18,0,0,1-.29-.48,2.72,2.72,0,0,1-.1-.77V60.65l-1.11-.12q-.21,0-.21-.21V60a.19.19,0,0,1,.21-.21h1.11V58.65a.22.22,0,0,1,.21-.23l.6-.09h0a.17.17,0,0,1,.13.05.23.23,0,0,1,0,.15V59.8h1.24a.22.22,0,0,1,.17.07.24.24,0,0,1,.07.16v.4a.26.26,0,0,1-.07.16.22.22,0,0,1-.17.07H71.69v4a.91.91,0,0,0,.14.61.69.69,0,0,0,.48.12H73c.16,0,.24.06.24.17V66Z"/><path class="cls-3" d="M78.1,62.43A2.11,2.11,0,0,0,77.73,61a1.71,1.71,0,0,0-2.28,0,2,2,0,0,0-.39,1.38v.1h3Zm1,.63c0,.17-.07.26-.22.26H75.06v.16a2.09,2.09,0,0,0,.41,1.46,1.54,1.54,0,0,0,1.19.43c.34,0,.7,0,1.08,0s.69-.06,1-.1h.05a.2.2,0,0,1,.13,0,.14.14,0,0,1,0,.12v.4a.32.32,0,0,1,0,.18.3.3,0,0,1-.18.08l-1,.15c-.33,0-.69,0-1.07,0a3.49,3.49,0,0,1-1-.13,2.17,2.17,0,0,1-.83-.45,2.33,2.33,0,0,1-.58-.85,3.52,3.52,0,0,1-.23-1.35v-1a2.86,2.86,0,0,1,.66-2,2.38,2.38,0,0,1,1.89-.73,2.84,2.84,0,0,1,1.1.2,2.14,2.14,0,0,1,.79.54,2.17,2.17,0,0,1,.47.86,3.6,3.6,0,0,1,.17,1.12Z"/><path class="cls-3" d="M83.34,60.4c0,.14-.08.2-.24.2a2.83,2.83,0,0,0-.78.11,3.23,3.23,0,0,0-.81.38V66a.2.2,0,0,1-.07.16.21.21,0,0,1-.16.07h-.56a.2.2,0,0,1-.16-.07A.23.23,0,0,1,80.5,66V60a.23.23,0,0,1,.06-.16.2.2,0,0,1,.16-.07h.53a.19.19,0,0,1,.16.07.23.23,0,0,1,.06.16v.24a3.48,3.48,0,0,1,.83-.43,2.76,2.76,0,0,1,.79-.12q.24,0,.24.21v.47Z"/><path class="cls-3" d="M87.78,66c0,.11-.07.17-.21.2s-.24,0-.38,0l-.36,0a3.58,3.58,0,0,1-.7-.06,1.21,1.21,0,0,1-.48-.24,1.18,1.18,0,0,1-.29-.48,2.72,2.72,0,0,1-.1-.77V60.65l-1.11-.12q-.21,0-.21-.21V60a.19.19,0,0,1,.21-.21h1.11V58.65a.22.22,0,0,1,.21-.23l.6-.09h0a.13.13,0,0,1,.12.05.23.23,0,0,1,0,.15V59.8h1.25a.21.21,0,0,1,.16.07.2.2,0,0,1,.07.16v.4a.24.24,0,0,1-.23.23H86.27v4a.91.91,0,0,0,.14.61.72.72,0,0,0,.49.12h.64c.16,0,.24.06.24.17Z"/><path class="cls-3" d="M92.23,63.1h-.84a5.3,5.3,0,0,0-.87.06,1.6,1.6,0,0,0-.53.19.73.73,0,0,0-.28.35,1.41,1.41,0,0,0-.08.53v.14a1,1,0,0,0,.28.84,1.27,1.27,0,0,0,.78.22,2.48,2.48,0,0,0,.77-.12,4.3,4.3,0,0,0,.78-.35V63.1Zm1,2.85a.24.24,0,0,1-.23.23h-.53a.24.24,0,0,1-.23-.23v-.26a5.09,5.09,0,0,1-.85.41,2.58,2.58,0,0,1-.92.16,2.69,2.69,0,0,1-.7-.09,1.33,1.33,0,0,1-.6-.31,1.48,1.48,0,0,1-.41-.58,2.36,2.36,0,0,1-.16-.91v-.14a2.21,2.21,0,0,1,.14-.81,1.31,1.31,0,0,1,.48-.59,2.22,2.22,0,0,1,.85-.36,6,6,0,0,1,1.3-.12h.84v-.46a1.52,1.52,0,0,0-.27-1,1.33,1.33,0,0,0-1-.29c-.37,0-.71,0-1,0l-.77.07h0a.37.37,0,0,1-.15,0,.16.16,0,0,1-.06-.15v-.4c0-.13.08-.2.24-.22l.78-.1a9.37,9.37,0,0,1,1,0,2.22,2.22,0,0,1,1.72.58,2.32,2.32,0,0,1,.52,1.6V66Z"/><path class="cls-3" d="M96,66a.24.24,0,0,1-.07.16.22.22,0,0,1-.17.07h-.55a.21.21,0,0,1-.16-.07.2.2,0,0,1-.07-.16V60a.2.2,0,0,1,.07-.16.21.21,0,0,1,.16-.07h.55a.22.22,0,0,1,.17.07A.24.24,0,0,1,96,60Zm0-7.4a.24.24,0,0,1-.23.23h-.59a.24.24,0,0,1-.23-.23v-.94a.24.24,0,0,1,.23-.23h.59a.24.24,0,0,1,.23.23Z"/><path class="cls-3" d="M102.48,66a.2.2,0,0,1-.07.16.21.21,0,0,1-.16.07h-.55a.22.22,0,0,1-.17-.07.24.24,0,0,1-.07-.16V62.13a2.61,2.61,0,0,0-.08-.74,1.07,1.07,0,0,0-.22-.48.77.77,0,0,0-.4-.24,1.89,1.89,0,0,0-.56-.08,2.38,2.38,0,0,0-.76.13,6.36,6.36,0,0,0-.79.33V66a.2.2,0,0,1-.07.16.21.21,0,0,1-.16.07h-.56a.21.21,0,0,1-.16-.07.23.23,0,0,1-.06-.16V60a.23.23,0,0,1,.06-.16.21.21,0,0,1,.16-.07h.57a.2.2,0,0,1,.16.07.23.23,0,0,1,.06.16v.22a6.17,6.17,0,0,1,.89-.41,3.39,3.39,0,0,1,.94-.13,1.79,1.79,0,0,1,1.52.63,2.91,2.91,0,0,1,.47,1.79V66Z"/><path class="cls-3" d="M111.64,66a.2.2,0,0,1-.07.16.21.21,0,0,1-.16.07h-.55a.22.22,0,0,1-.17-.07.24.24,0,0,1-.07-.16V61.84a1.84,1.84,0,0,0-.08-.61,1,1,0,0,0-.21-.38.88.88,0,0,0-.34-.19,1.35,1.35,0,0,0-.41-.06,2.61,2.61,0,0,0-.66.09,5.39,5.39,0,0,0-.68.22,3.47,3.47,0,0,1,.1.91V66a.23.23,0,0,1-.06.16.16.16,0,0,1-.14.07h-.61a.18.18,0,0,1-.15-.07.28.28,0,0,1,0-.16V61.82a2.59,2.59,0,0,0-.06-.62,1,1,0,0,0-.16-.38.64.64,0,0,0-.28-.18,1.48,1.48,0,0,0-.38,0,1.89,1.89,0,0,0-.67.13,5.07,5.07,0,0,0-.73.32V66a.28.28,0,0,1,0,.16.18.18,0,0,1-.15.07h-.61a.15.15,0,0,1-.14-.07A.23.23,0,0,1,104,66V60a.23.23,0,0,1,.06-.16.2.2,0,0,1,.16-.07h.57a.19.19,0,0,1,.16.07.23.23,0,0,1,.06.16v.22a4.25,4.25,0,0,1,.77-.38,2.46,2.46,0,0,1,.91-.17,1.79,1.79,0,0,1,.64.11,1.28,1.28,0,0,1,.5.37,5.45,5.45,0,0,1,1-.36,3.51,3.51,0,0,1,.94-.12,2.52,2.52,0,0,1,.73.1,1.49,1.49,0,0,1,.59.35,1.66,1.66,0,0,1,.39.66,3,3,0,0,1,.15,1Z"/><path class="cls-3" d="M117.05,62.43a2.11,2.11,0,0,0-.38-1.41,1.7,1.7,0,0,0-2.27,0,2,2,0,0,0-.4,1.38v.1h3Zm1,.63c0,.17-.07.26-.21.26H114v.16a2,2,0,0,0,.41,1.46,1.54,1.54,0,0,0,1.19.43c.34,0,.69,0,1.07,0s.7-.06,1-.1h.06a.17.17,0,0,1,.12,0,.12.12,0,0,1,.06.12v.4a.32.32,0,0,1,0,.18s-.09.06-.19.08c-.32.06-.65.11-1,.15s-.69,0-1.08,0a3.47,3.47,0,0,1-1-.13,2.17,2.17,0,0,1-.83-.45,2.21,2.21,0,0,1-.58-.85,3.52,3.52,0,0,1-.23-1.35v-1a2.91,2.91,0,0,1,.65-2,2.41,2.41,0,0,1,1.9-.73,2.84,2.84,0,0,1,1.1.2,2.22,2.22,0,0,1,.79.54,2.3,2.3,0,0,1,.47.86,3.61,3.61,0,0,1,.16,1.12Z"/><path class="cls-3" d="M124.28,66a.2.2,0,0,1-.07.16.21.21,0,0,1-.16.07h-.56a.21.21,0,0,1-.16-.07.24.24,0,0,1-.07-.16V62.13a2.61,2.61,0,0,0-.08-.74,1,1,0,0,0-.23-.48.77.77,0,0,0-.4-.24,1.82,1.82,0,0,0-.55-.08,2.39,2.39,0,0,0-.77.13,6.36,6.36,0,0,0-.79.33V66a.24.24,0,0,1-.23.23h-.56a.21.21,0,0,1-.16-.07.28.28,0,0,1-.06-.16V60a.28.28,0,0,1,.06-.16.21.21,0,0,1,.16-.07h.57a.19.19,0,0,1,.16.07.23.23,0,0,1,.06.16v.22a5.79,5.79,0,0,1,.9-.41,3.26,3.26,0,0,1,.93-.13,1.78,1.78,0,0,1,1.52.63,2.91,2.91,0,0,1,.47,1.79V66Z"/><path class="cls-3" d="M129,66c0,.11-.07.17-.21.2s-.24,0-.38,0l-.36,0a3.4,3.4,0,0,1-.69-.06,1.09,1.09,0,0,1-.48-.24,1,1,0,0,1-.29-.48,2.76,2.76,0,0,1-.09-.77V60.65l-1.12-.12q-.21,0-.21-.21V60a.19.19,0,0,1,.21-.21h1.12V58.65a.21.21,0,0,1,.2-.23l.6-.09h0a.17.17,0,0,1,.13.05.23.23,0,0,1,0,.15V59.8h1.25a.21.21,0,0,1,.16.07A.2.2,0,0,1,129,60v.4a.24.24,0,0,1-.23.23h-1.25v4a.91.91,0,0,0,.14.61.71.71,0,0,0,.48.12h.65c.16,0,.24.06.24.17V66Z"/><path class="cls-3" d="M135.94,58.6c0-.14-.11-.21-.22-.21s-.19.07-.23.21l-1.05,3.82H137ZM139,66c0,.12-.06.18-.2.18h-.67a.14.14,0,0,1-.13-.05A.4.4,0,0,1,138,66l-.74-2.67h-3L133.49,66a.33.33,0,0,1-.07.13.17.17,0,0,1-.13.05h-.67c-.14,0-.2-.06-.2-.18s0-.07,0-.08l2.12-7.56a1.05,1.05,0,0,1,.2-.44,1.22,1.22,0,0,1,.3-.26,1.16,1.16,0,0,1,.34-.14,2,2,0,0,1,.34,0l.33,0a1.4,1.4,0,0,1,.34.13,1.23,1.23,0,0,1,.29.27,1.07,1.07,0,0,1,.2.43L139,65.92S139,66,139,66Z"/><path class="cls-3" d="M144.85,66a.23.23,0,0,1-.06.16.19.19,0,0,1-.16.07h-.57a.21.21,0,0,1-.16-.07.28.28,0,0,1-.06-.16v-.22a6.17,6.17,0,0,1-.89.41,3.32,3.32,0,0,1-.93.13,1.8,1.8,0,0,1-1.53-.63,2.91,2.91,0,0,1-.47-1.79V60a.2.2,0,0,1,.07-.16.21.21,0,0,1,.16-.07h.55a.22.22,0,0,1,.17.07A.24.24,0,0,1,141,60v3.82a3,3,0,0,0,.07.74,1,1,0,0,0,.24.47.74.74,0,0,0,.39.25,1.84,1.84,0,0,0,.56.08,2.61,2.61,0,0,0,.76-.12,8.37,8.37,0,0,0,.79-.33V60a.2.2,0,0,1,.07-.16.21.21,0,0,1,.16-.07h.56a.2.2,0,0,1,.16.07.23.23,0,0,1,.06.16V66Z"/><path class="cls-3" d="M149.77,66c0,.11-.07.17-.21.2s-.24,0-.38,0l-.37,0a3.54,3.54,0,0,1-.69-.06,1.21,1.21,0,0,1-.48-.24,1.18,1.18,0,0,1-.29-.48,2.72,2.72,0,0,1-.1-.77V60.65l-1.11-.12c-.15,0-.22-.09-.22-.21V60c0-.14.07-.21.22-.21h1.11V58.65a.22.22,0,0,1,.21-.23l.6-.09h0a.13.13,0,0,1,.12.05.23.23,0,0,1,0,.15V59.8h1.25a.21.21,0,0,1,.16.07.2.2,0,0,1,.07.16v.4a.24.24,0,0,1-.23.23h-1.25v4a.91.91,0,0,0,.14.61.71.71,0,0,0,.48.12h.65c.16,0,.24.06.24.17Z"/><path class="cls-3" d="M155.67,66a.24.24,0,0,1-.07.16.22.22,0,0,1-.17.07h-.55a.21.21,0,0,1-.16-.07.2.2,0,0,1-.07-.16V62.13a1.64,1.64,0,0,0-.34-1.2,1.19,1.19,0,0,0-.89-.33l-.33,0-.4.05-.44.11a3.26,3.26,0,0,0-.41.14v5a.24.24,0,0,1-.23.24h-.56a.21.21,0,0,1-.15-.07.28.28,0,0,1-.07-.17V57.68a.26.26,0,0,1,.07-.16.18.18,0,0,1,.15-.07h.58a.18.18,0,0,1,.15.07.25.25,0,0,1,.06.16v2.4a3.72,3.72,0,0,1,.91-.28,5.61,5.61,0,0,1,.85-.08,2.55,2.55,0,0,1,.84.14,1.52,1.52,0,0,1,.65.43,1.86,1.86,0,0,1,.43.74,3.57,3.57,0,0,1,.15,1.1Z"/><path class="cls-3" d="M161.12,62.55a2.47,2.47,0,0,0-.36-1.42,1.35,1.35,0,0,0-1.19-.52,1.34,1.34,0,0,0-1.17.52,2.48,2.48,0,0,0-.36,1.43v.88a2.41,2.41,0,0,0,.36,1.41,1.32,1.32,0,0,0,1.17.53,1.35,1.35,0,0,0,1.18-.53,2.35,2.35,0,0,0,.37-1.42Zm1,.88A3.9,3.9,0,0,1,162,64.6a2.54,2.54,0,0,1-.48.89,2.32,2.32,0,0,1-.8.58,3,3,0,0,1-1.12.2,2.93,2.93,0,0,1-1.11-.2,2.23,2.23,0,0,1-.8-.58,2.54,2.54,0,0,1-.48-.89,3.9,3.9,0,0,1-.16-1.17v-.88a3.78,3.78,0,0,1,.16-1.16,2.45,2.45,0,0,1,.48-.89,2.23,2.23,0,0,1,.8-.58,2.93,2.93,0,0,1,1.11-.2,3,3,0,0,1,1.12.2,2.12,2.12,0,0,1,.8.58,2.45,2.45,0,0,1,.48.89,3.87,3.87,0,0,1,.16,1.16Z"/><path class="cls-3" d="M166.33,60.4c0,.14-.08.2-.25.2a2.81,2.81,0,0,0-.77.11,3.23,3.23,0,0,0-.81.38V66a.2.2,0,0,1-.07.16.21.21,0,0,1-.16.07h-.56a.2.2,0,0,1-.16-.07.23.23,0,0,1-.06-.16V60a.23.23,0,0,1,.06-.16.2.2,0,0,1,.16-.07h.53a.2.2,0,0,1,.16.07.23.23,0,0,1,.06.16v.24a3.48,3.48,0,0,1,.83-.43,2.76,2.76,0,0,1,.79-.12q.24,0,.24.21v.47Z"/><path class="cls-3" d="M168.55,66a.24.24,0,0,1-.07.16.22.22,0,0,1-.17.07h-.55a.21.21,0,0,1-.16-.07.2.2,0,0,1-.07-.16V60a.2.2,0,0,1,.07-.16.21.21,0,0,1,.16-.07h.55a.22.22,0,0,1,.17.07.24.24,0,0,1,.07.16Zm0-7.4a.24.24,0,0,1-.23.23h-.59a.21.21,0,0,1-.16-.07.26.26,0,0,1-.07-.16v-.94a.26.26,0,0,1,.07-.16.21.21,0,0,1,.16-.07h.59a.24.24,0,0,1,.23.23Z"/><path class="cls-3" d="M173.61,66c0,.11-.07.17-.21.2s-.25,0-.39,0l-.36,0a3.47,3.47,0,0,1-.69-.06,1.09,1.09,0,0,1-.48-.24,1,1,0,0,1-.29-.48,2.72,2.72,0,0,1-.1-.77V60.65L170,60.53c-.15,0-.22-.09-.22-.21V60c0-.14.07-.21.22-.21h1.11V58.65a.22.22,0,0,1,.21-.23l.6-.09h0a.13.13,0,0,1,.11.05.19.19,0,0,1,.06.15V59.8h1.24a.24.24,0,0,1,.23.23v.4a.21.21,0,0,1-.07.16.2.2,0,0,1-.16.07H172.1v4c0,.32,0,.52.14.61a.68.68,0,0,0,.48.12h.64c.17,0,.25.06.25.17Z"/><path class="cls-3" d="M179.57,60s0,.06,0,.08l-1.9,6.69a5.52,5.52,0,0,1-.29.8,1.68,1.68,0,0,1-.4.53,1.58,1.58,0,0,1-.58.29,3.31,3.31,0,0,1-.83.1,3.12,3.12,0,0,1-.52,0,2.37,2.37,0,0,1-.45-.07.67.67,0,0,1-.17-.06s-.07-.06-.07-.13v-.43c0-.12.07-.18.22-.18h0l.51,0,.52,0a2.5,2.5,0,0,0,.42,0,.79.79,0,0,0,.32-.15.91.91,0,0,0,.23-.3,2,2,0,0,0,.17-.5l.11-.47h-.16a1,1,0,0,1-.25,0,.46.46,0,0,1-.23-.1.71.71,0,0,1-.2-.24,1.6,1.6,0,0,1-.17-.43l-1.53-5.3a.19.19,0,0,1,0-.08.18.18,0,0,1,.21-.2h.63a.15.15,0,0,1,.11.07s.07.07.08.12l1.35,5a.41.41,0,0,0,.1.22.28.28,0,0,0,.12,0h.19l1.4-5.31a.25.25,0,0,1,.07-.12.2.2,0,0,1,.14-.06h.65A.17.17,0,0,1,179.57,60Z"/><path class="cls-3" d="M35.76,51.31h-.63a.35.35,0,0,0-.26.1.32.32,0,0,0-.13.26v.89a.32.32,0,0,0,.13.24.38.38,0,0,0,.26.11h.63A.36.36,0,0,0,36,52.8a.34.34,0,0,0,.11-.24v-.89a.35.35,0,0,0-.11-.26A.39.39,0,0,0,35.76,51.31Z"/><path class="cls-3" d="M33.1,51.31h-.63a.34.34,0,0,0-.26.1.33.33,0,0,0-.11.26v.89a.37.37,0,0,0,.11.24.35.35,0,0,0,.26.11h.63a.36.36,0,0,0,.26-.11.31.31,0,0,0,.12-.24v-.89a.35.35,0,0,0-.11-.26A.36.36,0,0,0,33.1,51.31Z"/><path class="cls-3" d="M40.81,40.37h.7a.36.36,0,0,0,.37-.35v-.89a.35.35,0,0,0-.11-.26.33.33,0,0,0-.25-.1h-.71a.37.37,0,0,0-.26.1.33.33,0,0,0-.11.26V40a.31.31,0,0,0,.11.25A.38.38,0,0,0,40.81,40.37Z"/><path class="cls-3" d="M43.84,42.41a5.54,5.54,0,0,0-1.09-.19c-.43,0-.88,0-1.33,0a3.85,3.85,0,0,0-2.74.93,3.35,3.35,0,0,0-1,2.59v.39a4.28,4.28,0,0,0,.2,1.4,2.69,2.69,0,0,0,.51.9H36.3l-.35,0-.38,0a1.7,1.7,0,0,1-.34-.12A.39.39,0,0,1,35,48V43.48a.31.31,0,0,0-.09-.22.29.29,0,0,0-.21-.09H34a.31.31,0,0,0-.3.31v4.3a.45.45,0,0,1-.12.33.64.64,0,0,1-.31.18,2,2,0,0,1-.37.08H24.54a1.61,1.61,0,0,1-.82-.18,1,1,0,0,1-.31-.85V42.74a.54.54,0,0,0,0-.2.4.4,0,0,0-.2-.11,2,2,0,0,0-.42-.09l-.51-.07-.54-.05h-.48a7,7,0,0,0-1.7.2,3.82,3.82,0,0,0-1.33.64,2.87,2.87,0,0,0-.87,1.12A4.08,4.08,0,0,0,17,45.82v.43a3.35,3.35,0,0,0,.81,2.42,3.07,3.07,0,0,0,2.32.84h.14a4.92,4.92,0,0,0,1.25-.15,1.6,1.6,0,0,0,.86-.52,1.46,1.46,0,0,0,.75.74,3.14,3.14,0,0,0,1.22.21h8a5.54,5.54,0,0,0,1-.11,2.22,2.22,0,0,0,1-.43,2,2,0,0,0,1,.43,6,6,0,0,0,1.08.11h6c.41,0,.85,0,1.31-.07.22,0,.34-.12.36-.31s0-.34,0-.54,0-.41,0-.62,0-.42,0-.62V42.71a.34.34,0,0,0-.05-.2S44,42.43,43.84,42.41ZM22.06,47.28a.72.72,0,0,1-.14.44.93.93,0,0,1-.34.27,1.64,1.64,0,0,1-.46.13,4.52,4.52,0,0,1-.51,0H20.3a1.79,1.79,0,0,1-1.49-.55,2.34,2.34,0,0,1-.44-1.53v-.34a2.65,2.65,0,0,1,.2-1.09,1.75,1.75,0,0,1,.56-.69,2,2,0,0,1,.83-.35,5.81,5.81,0,0,1,1.07-.1l.45,0c.16,0,.35,0,.57,0v3.73Zm20.68,1.08c-.23,0-.49,0-.78,0h-.81a2,2,0,0,1-1.59-.6,2.61,2.61,0,0,1-.51-1.73v-.36a2,2,0,0,1,2.26-2.26h.77c.22,0,.45,0,.66.07Z"/><path class="cls-3" d="M54.34,41H55a.34.34,0,0,0,.26-.1.29.29,0,0,0,.12-.25V39.8a.37.37,0,0,0-.11-.27.41.41,0,0,0-.27-.1h-.62a.41.41,0,0,0-.27.1.37.37,0,0,0-.11.27v.88a.3.3,0,0,0,.11.25A.36.36,0,0,0,54.34,41Z"/><path class="cls-3" d="M57,41h.63a.35.35,0,0,0,.26-.1.28.28,0,0,0,.11-.25V39.8a.33.33,0,0,0-.11-.27.42.42,0,0,0-.26-.1H57a.42.42,0,0,0-.26.1.35.35,0,0,0-.13.27v.88a.29.29,0,0,0,.13.25A.37.37,0,0,0,57,41Z"/><path class="cls-3" d="M66,37.48h-.8a.29.29,0,0,0-.21.09.26.26,0,0,0-.09.22v10c0,.29,0,.45-.12.5a1.22,1.22,0,0,1-.59.09H62.76l-.34,0A2.47,2.47,0,0,1,62,48.3a1.25,1.25,0,0,1-.34-.12.33.33,0,0,1-.2-.2V37.8a.31.31,0,0,0-.08-.22.27.27,0,0,0-.21-.1h-.79a.29.29,0,0,0-.22.1.29.29,0,0,0-.09.22v10a.4.4,0,0,1-.13.33.61.61,0,0,1-.3.18,1.53,1.53,0,0,1-.37.08l-.36,0H58l-.34,0-.38,0a1.7,1.7,0,0,1-.34-.12.39.39,0,0,1-.2-.2V43.48a.31.31,0,0,0-.09-.22.29.29,0,0,0-.22-.09h-.74a.29.29,0,0,0-.22.09.32.32,0,0,0-.08.22v4.3a.42.42,0,0,1-.13.33.65.65,0,0,1-.3.18,2.12,2.12,0,0,1-.38.08H48.59v-4.9a.35.35,0,0,0-.08-.22.27.27,0,0,0-.2-.09h-.79a.29.29,0,0,0-.21.09.37.37,0,0,0-.08.22v7.26a4,4,0,0,1-.07.86.85.85,0,0,1-.3.48,1.1,1.1,0,0,1-.55.21,6.86,6.86,0,0,1-.88.05h-.35c-.18,0-.27.08-.27.23v.71a.26.26,0,0,0,0,.17.34.34,0,0,0,.21.09,2.19,2.19,0,0,0,.42.05h.35a4,4,0,0,0,1.52-.23,1.79,1.79,0,0,0,.9-.8,2.18,2.18,0,0,0,.24-.77,7.06,7.06,0,0,0,.06-1V49.79H54a5.64,5.64,0,0,0,1-.11,2.22,2.22,0,0,0,1-.43,2,2,0,0,0,.95.43,6,6,0,0,0,1.08.11h.8a5.45,5.45,0,0,0,1-.11,2.2,2.2,0,0,0,1-.43,1.32,1.32,0,0,0,.43.27,3.13,3.13,0,0,0,.52.16c.17,0,.35.06.54.09l.52,0h1.54c.21,0,.41,0,.6,0l.54,0a1.05,1.05,0,0,0,.37-.07.47.47,0,0,0,.26-.2.71.71,0,0,0,.09-.28,2.81,2.81,0,0,0,0-.44c0-.16,0-.33,0-.5s0-.35,0-.51V37.8a.27.27,0,0,0-.08-.22A.18.18,0,0,0,66,37.48Z"/><path class="cls-3" d="M74.37,40.4H75a.35.35,0,0,0,.26-.1.34.34,0,0,0,.11-.25v-.88a.31.31,0,0,0-.11-.26A.33.33,0,0,0,75,38.8h-.63a.35.35,0,0,0-.26.11.33.33,0,0,0-.11.26v.89a.29.29,0,0,0,.11.24A.33.33,0,0,0,74.37,40.4Z"/><path class="cls-3" d="M77,40.4h.63a.33.33,0,0,0,.25-.1.32.32,0,0,0,.12-.25v-.88a.32.32,0,0,0-.12-.26.36.36,0,0,0-.25-.11H77a.43.43,0,0,0-.27.11.34.34,0,0,0-.12.26v.89a.3.3,0,0,0,.12.24A.39.39,0,0,0,77,40.4Z"/><path class="cls-3" d="M95.92,42.26a3.3,3.3,0,0,0-2.48.9,3.57,3.57,0,0,0-.87,2.59v1.58a2.17,2.17,0,0,1,0,.47.52.52,0,0,1-.19.3,1,1,0,0,1-.32.18,1.37,1.37,0,0,1-.35.08l-.3,0H80.14a1.62,1.62,0,0,1-.83-.19c-.2-.12-.31-.4-.31-.85v-4.6a.41.41,0,0,0,0-.21.28.28,0,0,0-.2-.1,3.26,3.26,0,0,0-.42-.1l-.51-.07a4.9,4.9,0,0,0-.54,0l-.49,0a6.87,6.87,0,0,0-1.69.2,3.74,3.74,0,0,0-1.33.64,3,3,0,0,0-.87,1.12,4.12,4.12,0,0,0-.31,1.65v.43a3.34,3.34,0,0,0,.81,2.42,3,3,0,0,0,2.31.84h.15a5.06,5.06,0,0,0,1.26-.15,1.51,1.51,0,0,0,.85-.52,1.46,1.46,0,0,0,.75.74,3.14,3.14,0,0,0,1.22.21H91.11a4.15,4.15,0,0,0,1.25-.17A1.41,1.41,0,0,0,93.2,49a2.36,2.36,0,0,0,1.09.77,4.38,4.38,0,0,0,1.59.26,3.21,3.21,0,0,0,2.53-.88,3.75,3.75,0,0,0,.78-2.58v-.84a3.65,3.65,0,0,0-.83-2.58A3.16,3.16,0,0,0,95.92,42.26Zm-18.28,5a.72.72,0,0,1-.13.44,1,1,0,0,1-.34.27,1.71,1.71,0,0,1-.47.13l-.5,0h-.31a1.86,1.86,0,0,1-1.5-.55A2.42,2.42,0,0,1,74,46.07v-.34a2.65,2.65,0,0,1,.2-1.09,1.72,1.72,0,0,1,.55-.69,2.13,2.13,0,0,1,.83-.35,6,6,0,0,1,1.08-.1h.45l.56.05v3.72Zm20.19-.79a2.66,2.66,0,0,1-.43,1.72,1.88,1.88,0,0,1-1.51.52,2.72,2.72,0,0,1-1.25-.26,1.32,1.32,0,0,1-.64-1,4.7,4.7,0,0,1-.07-.9v-.73a2.82,2.82,0,0,1,.46-1.72,1.82,1.82,0,0,1,1.53-.6,1.7,1.7,0,0,1,1.49.61,3,3,0,0,1,.42,1.71Z"/><path class="cls-3" d="M120.3,37.48h-.79a.29.29,0,0,0-.22.09.29.29,0,0,0-.08.22v10c0,.29,0,.45-.13.5a1.19,1.19,0,0,1-.59.09h-3.24a1.54,1.54,0,0,0,.44-.47,4.09,4.09,0,0,0,.58-1.44,4.52,4.52,0,0,0,.08-.8v-.31a3.57,3.57,0,0,0-.27-1.45,2.49,2.49,0,0,0-.75-1,3.15,3.15,0,0,0-1.16-.57,5.69,5.69,0,0,0-1.47-.18,4.61,4.61,0,0,0-1,.09c-.32,0-.63.13-.94.21a4.81,4.81,0,0,0-.83.35,3.24,3.24,0,0,0-.65.45.6.6,0,0,0-.27.42l0,.48a.86.86,0,0,0,0,.15s0,.1,0,.13l1.52,3.93H104.2a3.13,3.13,0,0,1-.46,0,.86.86,0,0,1-.34-.13.56.56,0,0,1-.21-.29,1.46,1.46,0,0,1-.07-.51V37.8a.41.41,0,0,0-.08-.24.26.26,0,0,0-.21-.1H102a.26.26,0,0,0-.22.1.32.32,0,0,0-.09.24v9.92a2.91,2.91,0,0,0,.14,1,1.29,1.29,0,0,0,.41.63,1.46,1.46,0,0,0,.67.33,4,4,0,0,0,.9.09h14.81a6.08,6.08,0,0,0,.61,0l.53,0a1.37,1.37,0,0,0,.38-.08c.13-.06.22-.12.25-.2a.91.91,0,0,0,.1-.28,2.81,2.81,0,0,0,0-.44l0-.5V37.8a.27.27,0,0,0-.08-.22A.3.3,0,0,0,120.3,37.48ZM115,45.69a3.25,3.25,0,0,1-.47,1.75,2,2,0,0,1-1.32,1H112l-1.65-4.29a3.07,3.07,0,0,1,1.26-.52,6.49,6.49,0,0,1,1.09-.12,2.67,2.67,0,0,1,1.69.48A1.87,1.87,0,0,1,115,45.5v.19Z"/><path class="cls-3" d="M124.45,37.46h-.79a.27.27,0,0,0-.22.1.32.32,0,0,0-.09.24V49.46a.36.36,0,0,0,.09.24.3.3,0,0,0,.22.1h.79a.24.24,0,0,0,.21-.1.36.36,0,0,0,.08-.24V37.8a.41.41,0,0,0-.08-.24A.27.27,0,0,0,124.45,37.46Z"/><path class="cls-3" d="M135.64,40.4h.63a.33.33,0,0,0,.25-.1.32.32,0,0,0,.12-.25v-.88a.32.32,0,0,0-.12-.26.36.36,0,0,0-.25-.11h-.63a.4.4,0,0,0-.27.11.34.34,0,0,0-.12.26v.89a.3.3,0,0,0,.12.24A.39.39,0,0,0,135.64,40.4Z"/><path class="cls-3" d="M133,40.4h.63a.35.35,0,0,0,.26-.1.34.34,0,0,0,.11-.25v-.88a.35.35,0,0,0-.11-.26.37.37,0,0,0-.27-.11H133a.35.35,0,0,0-.26.11.33.33,0,0,0-.11.26v.89a.29.29,0,0,0,.11.24A.38.38,0,0,0,133,40.4Z"/><path class="cls-3" d="M147.3,41.14h2.18a.35.35,0,0,0,.2,0s.07-.07.07-.16v-.26c0-.13-.09-.2-.27-.2h-1.09a.63.63,0,0,1-.24-.28,1.35,1.35,0,0,1-.11-.57c0-.49.28-.74.86-.74h.5c.14,0,.21-.07.21-.18v-.24c0-.08-.07-.15-.18-.19l-.33,0h-.29a1.77,1.77,0,0,0-1.13.32,1.23,1.23,0,0,0-.4,1,2.07,2.07,0,0,0,.07.49,1.12,1.12,0,0,0,.21.44h-.28c-.19,0-.29,0-.29.16v.28C147,41.07,147.1,41.14,147.3,41.14Z"/><path class="cls-3" d="M158.07,51.31h-.62a.38.38,0,0,0-.27.1.31.31,0,0,0-.12.26v.89a.35.35,0,0,0,.12.24.4.4,0,0,0,.27.11h.62a.35.35,0,0,0,.26-.11.31.31,0,0,0,.12-.24v-.89a.32.32,0,0,0-.12-.26A.37.37,0,0,0,158.07,51.31Z"/><path class="cls-3" d="M155.42,51.31h-.63a.36.36,0,0,0-.27.1.33.33,0,0,0-.1.26v.89a.36.36,0,0,0,.1.24.39.39,0,0,0,.27.11h.63a.34.34,0,0,0,.25-.11.31.31,0,0,0,.12-.24v-.89a.35.35,0,0,0-.11-.26A.34.34,0,0,0,155.42,51.31Z"/><path class="cls-3" d="M174.74,37.48H174a.28.28,0,0,0-.22.09.29.29,0,0,0-.09.22v10c0,.29,0,.45-.13.5a1.19,1.19,0,0,1-.59.09H171c-.25,0-.47,0-.68,0a1.54,1.54,0,0,0-.54.15,1.16,1.16,0,0,0-.63.81,1.3,1.3,0,0,0,0,.18l0,.28,0,.27v.19a3.4,3.4,0,0,1-.4,1.77,1.59,1.59,0,0,1-1.42.56,1.65,1.65,0,0,1-1.48-.6,3.47,3.47,0,0,1-.39-1.82v-.42h.67l.73,0,.71-.07a3.18,3.18,0,0,0,2.35-1.48,5,5,0,0,0,.58-2.46v-.24a3,3,0,0,0-1-2.5,4.34,4.34,0,0,0-2.71-.77c-.42,0-.82,0-1.21.05a6.31,6.31,0,0,0-1.1.19c-.25.07-.38.21-.38.43v5.47h-5.8c-.13,0-.26,0-.38-.06a1.25,1.25,0,0,1-.34-.12.33.33,0,0,1-.2-.2v-4.5a.28.28,0,0,0-.09-.22.29.29,0,0,0-.22-.09h-.74a.31.31,0,0,0-.31.31v4.29a.43.43,0,0,1-.12.34.75.75,0,0,1-.3.18,2.14,2.14,0,0,1-.38.07l-.35,0h-4.34l-.34,0a2.32,2.32,0,0,1-.38-.05,1.25,1.25,0,0,1-.34-.12.33.33,0,0,1-.2-.2V43.47a.31.31,0,0,0-.09-.21.27.27,0,0,0-.22-.1h-.74a.27.27,0,0,0-.22.1.29.29,0,0,0-.09.21v4.3a.4.4,0,0,1-.12.33.65.65,0,0,1-.3.18,1.51,1.51,0,0,1-.38.08l-.35,0h-8a1.6,1.6,0,0,1-.82-.19c-.2-.12-.3-.4-.3-.85v-4.6a.56.56,0,0,0,0-.21.34.34,0,0,0-.2-.1,3.26,3.26,0,0,0-.42-.1l-.52-.07a4.73,4.73,0,0,0-.54,0l-.48,0a7,7,0,0,0-1.7.2,3.69,3.69,0,0,0-1.32.64,2.85,2.85,0,0,0-.87,1.12,4,4,0,0,0-.31,1.65v.43a3.38,3.38,0,0,0,.8,2.42,3.08,3.08,0,0,0,2.32.84h.15a4.92,4.92,0,0,0,1.25-.15,1.48,1.48,0,0,0,.85-.52,1.46,1.46,0,0,0,.75.74,3.14,3.14,0,0,0,1.22.21h8a5.45,5.45,0,0,0,1-.11,2.14,2.14,0,0,0,1-.43,1.86,1.86,0,0,0,.94.43,6.09,6.09,0,0,0,1.08.11h4.12a5.54,5.54,0,0,0,1-.11,2.11,2.11,0,0,0,1-.43,1.94,1.94,0,0,0,.95.43,6.09,6.09,0,0,0,1.08.11h5.43v.55a6.83,6.83,0,0,0,.16,1.5,2.81,2.81,0,0,0,.53,1.13,2.28,2.28,0,0,0,1,.71,4.18,4.18,0,0,0,1.56.25,2.83,2.83,0,0,0,2.35-.89,4.31,4.31,0,0,0,.76-2.59l0-.61a2.75,2.75,0,0,1,.39,0h2.25l.6,0,.54,0a1,1,0,0,0,.37-.08.45.45,0,0,0,.26-.19.77.77,0,0,0,.09-.28c0-.13,0-.28.05-.44s0-.34,0-.51,0-.34,0-.5V37.8a.28.28,0,0,0-.09-.22A.21.21,0,0,0,174.74,37.48Zm-9.32,6.13c.22,0,.42-.06.62-.07h.73a4,4,0,0,1,1,.1,1.82,1.82,0,0,1,.73.33,1.58,1.58,0,0,1,.47.63,2.59,2.59,0,0,1,.17,1v.29a2.83,2.83,0,0,1-.55,1.86,2.27,2.27,0,0,1-1.84.65h-1.29V43.61Zm-29.16,3.67a.79.79,0,0,1-.13.44,1,1,0,0,1-.34.27,1.71,1.71,0,0,1-.47.13,4.36,4.36,0,0,1-.51,0h-.31A1.83,1.83,0,0,1,133,47.6a2.42,2.42,0,0,1-.43-1.53v-.34a2.65,2.65,0,0,1,.2-1.09,1.72,1.72,0,0,1,.55-.69,2,2,0,0,1,.83-.35,6,6,0,0,1,1.07-.1h.45l.57.05v3.72Z"/><path class="cls-3" d="M179.1,37.56a.3.3,0,0,0-.21-.1h-.79a.26.26,0,0,0-.22.1.33.33,0,0,0-.1.24V49.46a.37.37,0,0,0,.1.24.3.3,0,0,0,.22.1h.79a.26.26,0,0,0,.21-.1.36.36,0,0,0,.08-.24V37.8A.36.36,0,0,0,179.1,37.56Z"/><path class="cls-4" d="M215.75,54.87l-1.22-.57.07-.16-.15-.07-.09.15-.82-.39-.43-.2-.12-.06-.14-.07h0l-.44-.21h0l-.09-.05-.13-.06-.11-.05-.15-.07-.88-.42-.24-.1-.12-.07L209.57,52l-.3-.14-.46-.22-.41-.2-.07,0-.47,0h-.16l.73.36.59.29.39.19.81.4.26.13L211,53l.69.34h0l.12.06.12.06.46.23.13.06.12.06h0l1,.47h0l.19,0,.24,0,.11.11-.13.2.23.11.07-.14,1.23.6Z"/><path class="cls-4" d="M212.83,46.29l.51-.46.2-.47.05-.15h-.05l-.12,0-.22,0-.5,1.14v.1Z"/><path class="cls-4" d="M212.54,53l.23-.1V48.7l-.34-.29h-.05l-.35.32v4.15l.37.17Z"/><path class="cls-4" d="M210.51,49.86l.06,0,.43-.41.34-.32.38-.35.31-.31h-1.18l-.76.71-.34.31-.08.36-.24,1v0l0,0Z"/><path class="cls-4" d="M213.52,46l-.19.19-.2.18-.37.34,0,.12.18-.08.15-.06.15-.06.28-.12,1-.41.94-.88-.87-.22-1.07,1Z"/><path class="cls-4" d="M214.37,46.37l-.29.13-.54.22-.41.16L213,47l-.15.06-.09,0,.06,0,0,0h.9l1,0h.14l.48-.19,1.2-.47-.67-.41,0,0-.26-.16-1,.4Z"/><path class="cls-4" d="M212.08,46.46l0-.17-.46-1-.39.06.28.66Z"/><path class="cls-4" d="M216.16,47.3l-1,0h-2l0,0,.09.08.08.07.16.13.07.07,0,0,.09.08.17.15.22.19h.67l1.18,0,1.1,0-.53-.51Z"/><path class="cls-4" d="M210.67,48.21h.43l.71,0-.49-.19-.12,0-.12,0-.08,0-1.29-.49h-.9l-.94.84,1.7,0Z"/><path class="cls-4" d="M209.75,47.17l.28.11.29.11.68.26.26.1.12,0,.11,0,.43.16.08,0-.06-.07-.31-.25-.08-.08-.09-.07-.2-.19-.12-.11-.13-.1v0l-.8-.7-1.41-.59-.44.27-.53.32.92.35Z"/><path class="cls-4" d="M212.36,46.1l0,.16,0,.2,0,.17h0l.07.08h0l.05.05,0,0h.09v-.07h0v-.13l0-.12,0-.2,0-.17Z"/><path class="cls-4" d="M210.58,46.48l.26.23.16.14.34.3.13.11.12.11,0,0,.09.07.09.08.22.2h0l.14.13h0l.06,0,0,0,.09.08h0l0,0h0l0,0h0l0,0,0,0h0l0,0,.13.11.31.27.46.41.46.41.1.08.14.12.13.12.58.5.42.37.12.11,0-.14,0-.1-.21-.74-.11-.46-.2-.16-.08-.06-.43-.38-.43-.37-.13-.1-.12-.11-.05-.05-.13-.11-.11-.09-.1-.09-.1-.08-.08-.07-.09-.07-.08-.08-.09-.07-.08-.08,0,0-.06-.05-.07-.06,0,0-.07-.06h0l-.08-.07,0,0h0l0,0,0,0h0l0,0,0,0h0l-.07,0-.1-.09-.3-.26-.2-.17-.18-.16-.09-.08-.26-.22-.91-.78-.86.25,1.08,1Z"/><path class="cls-4" d="M211.69,53.63l-.17.08L211,54l-.55.27-.1-.15-.15.07.08.16-1.23.57.19.42,1.23-.6.07.14.22-.11-.12-.2.11-.11.25,0,.18,0h0l1-.47Z"/><path class="cls-4" d="M213.11,53.38l.43-.21.73-.36.88-.42,1.95-1h-.16l-.47,0-.07,0-1.42.67-1.13.53-.31.15-.77.36-.1.05.1,0Z"/><path class="cls-5" d="M205.09,49.45h-2.42c0,.22,0,.46,0,.69a9.63,9.63,0,0,0,.13,1.61h2.45a7.79,7.79,0,0,1-.18-1.61C205.05,49.91,205.07,49.67,205.09,49.45Z"/><path class="cls-5" d="M222.59,50.14a10.81,10.81,0,0,1-.13,1.61h3.24a14.88,14.88,0,0,0,.1-1.77v-.53h-3.23C222.58,49.68,222.59,49.91,222.59,50.14Z"/><path class="cls-5" d="M198.74,49.45c0,.18,0,.36,0,.53a13.16,13.16,0,0,0,.12,1.77h3.44a9.63,9.63,0,0,1-.13-1.61q0-.35,0-.69Z"/><path class="cls-5" d="M219.6,51.75H222a10.81,10.81,0,0,0,.13-1.61c0-.23,0-.46,0-.69h-2.33c0,.22,0,.46,0,.69A7.79,7.79,0,0,1,219.6,51.75Z"/><path class="cls-5" d="M230.92,51.75v-2.3h-3.77c0,.18,0,.36,0,.53a17.5,17.5,0,0,1-.1,1.77Z"/><path class="cls-5" d="M197.37,50c0-.18,0-.35,0-.53h-3.94v2.3h4A15,15,0,0,1,197.37,50Z"/><path class="cls-6" d="M202.51,47.47a10,10,0,0,1,1.37-3l-3.16-1.56a13.58,13.58,0,0,0-1.38,3Z"/><path class="cls-6" d="M204.33,44.66a9.75,9.75,0,0,0-1.37,3l2.22,1.1a7.35,7.35,0,0,1,1.33-3Z"/><path class="cls-6" d="M222.06,53.39a10.06,10.06,0,0,1-1.55,2.93l2.87,1.42a13.82,13.82,0,0,0,1.56-2.94Z"/><path class="cls-6" d="M226,55.79a14.92,14.92,0,0,1-1.38,2.55l6.51,3.2,1.46-3-6.43-3.16C226.1,55.53,226.05,55.66,226,55.79Z"/><path class="cls-6" d="M198.54,44.18a14.76,14.76,0,0,1,1-1.9l-4.07-2-1.46,3,4.14,2.05C198.24,44.93,198.39,44.55,198.54,44.18Z"/><path class="cls-6" d="M220.06,56.11a9.79,9.79,0,0,0,1.56-2.94l-2.12-1a7.26,7.26,0,0,1-1.6,2.92Z"/><path class="cls-7" d="M216.3,59.59l1.53,2.49,2.48-1.52L218.8,58.1A10.54,10.54,0,0,1,216.3,59.59Z"/><path class="cls-7" d="M216,59.16a9.91,9.91,0,0,0,2.5-1.49l-1.23-2a7.55,7.55,0,0,1-2.51,1.47Z"/><path class="cls-7" d="M208.19,40.79,206.51,38,204,39.57l1.71,2.79A9.92,9.92,0,0,1,208.19,40.79Z"/><path class="cls-7" d="M208.46,41.21A9.69,9.69,0,0,0,206,42.78l1.28,2.09a7.62,7.62,0,0,1,2.44-1.59Z"/><path class="cls-3" d="M210.73,64.83v3.65h2.9V64.85c-.45,0-.9.06-1.36.06A13.13,13.13,0,0,1,210.73,64.83Z"/><path class="cls-3" d="M213.62,42.87V40.48a10.36,10.36,0,0,0-1.25-.07,9.9,9.9,0,0,0-1.64.13V43a7.3,7.3,0,0,1,1.69-.2A6.86,6.86,0,0,1,213.62,42.87Z"/><path class="cls-3" d="M210.73,60.24v3.22a13.08,13.08,0,0,0,1.53.09,12.26,12.26,0,0,0,1.36-.07V60.29c-.41,0-.83.07-1.25.07A9.9,9.9,0,0,1,210.73,60.24Z"/><path class="cls-3" d="M210.73,57.31v2.42a9,9,0,0,0,1.64.14,10.36,10.36,0,0,0,1.25-.07V57.4a6.89,6.89,0,0,1-1.21.1A6.71,6.71,0,0,1,210.73,57.31Z"/><path class="cls-3" d="M213.62,40V36.49a12.26,12.26,0,0,0-1.36-.07,13.08,13.08,0,0,0-1.53.09V40a11.22,11.22,0,0,1,1.64-.13C212.79,39.91,213.21,39.93,213.62,40Z"/><path class="cls-3" d="M213.62,35.13V31.52h-2.89v3.63a12.85,12.85,0,0,1,1.53-.08C212.72,35.07,213.17,35.09,213.62,35.13Z"/><path class="cls-4" d="M218.22,42.38A9.13,9.13,0,0,0,215.67,41l-1.22,2.06A7.33,7.33,0,0,1,217,44.41Z"/><path class="cls-4" d="M207.19,55.32l-1.26,2.13A9.85,9.85,0,0,0,208.36,59l1.24-2.09A7.26,7.26,0,0,1,207.19,55.32Z"/><path class="cls-4" d="M204,60.74a13.67,13.67,0,0,0,2.47,1.52l1.65-2.8a10.1,10.1,0,0,1-2.43-1.57Z"/><path class="cls-4" d="M220.91,37.85l1.79-3-2.49-1.49-1.8,3,.25.11A15.53,15.53,0,0,1,220.91,37.85Z"/><path class="cls-4" d="M201.37,65.14l2.49,1.48,1.89-3.2a14.84,14.84,0,0,1-2.47-1.51Z"/><path class="cls-4" d="M220.22,39a13.28,13.28,0,0,0-2.51-1.44l-1.77,3A10.29,10.29,0,0,1,218.48,42Z"/><path class="cls-8" d="M218.63,46.2l1.8-1.51a9.89,9.89,0,0,0-.71-.89c-.14-.15-.28-.3-.43-.44l-1.76,1.48A7.2,7.2,0,0,1,218.63,46.2Z"/><path class="cls-8" d="M219.68,43.05l.41.43c.25.29.49.59.72.89l2.24-1.88-1.11-1.34Z"/><path class="cls-9" d="M222.26,47.44l3-1.33a16.48,16.48,0,0,0-.76-1.92l-3,1.32A13.05,13.05,0,0,1,222.26,47.44Z"/><path class="cls-9" d="M203.26,53.5a16,16,0,0,0,.94,1.86l2.19-1a7.53,7.53,0,0,1-.95-1.85Z"/><path class="cls-9" d="M221.8,47.64a14.12,14.12,0,0,0-.74-1.93l-2.17,1a7.17,7.17,0,0,1,.72,1.94Z"/><path class="cls-9" d="M193.74,57.68l.8,1.92,4.87-2.13c-.31-.58-.58-1.1-.91-1.87Z"/><path class="cls-9" d="M226.52,45.57l6-2.61-.88-1.89-5.86,2.57a1.32,1.32,0,0,1,.12.26C226.07,44.34,226.27,44.86,226.52,45.57Z"/><path class="cls-9" d="M202.81,53.71l-3.08,1.35c.34.77.62,1.29.93,1.86l3.08-1.36A15.86,15.86,0,0,1,202.81,53.71Z"/></g></g></g></svg>