<svg xmlns="http://www.w3.org/2000/svg" viewBox="0 0 248.68 100"><defs><style>.cls-1{fill:none;}.cls-2{fill:#183660;}.cls-3{fill:#64bd6b;}</style></defs><g id="Layer_2" data-name="Layer 2"><g id="Layer_1-2" data-name="Layer 1"><rect class="cls-1" width="248.68" height="100"/><polygon class="cls-2" points="19.39 65.19 19.38 65.19 17.65 60.75 16.39 60.75 16.39 66.53 17.18 66.53 17.18 61.7 17.19 61.7 19.1 66.53 19.61 66.53 21.53 61.7 21.55 61.7 21.55 66.53 22.35 66.53 22.35 60.75 21.1 60.75 19.39 65.19"/><rect class="cls-2" x="23.72" y="62.66" width="0.77" height="3.86"/><path class="cls-2" d="M24.1,60.77a.48.48,0,0,0-.35.14.49.49,0,0,0-.15.36.45.45,0,0,0,.15.34.45.45,0,0,0,.35.15.52.52,0,0,0,.36-.14.45.45,0,0,0,.15-.35.49.49,0,0,0-.15-.36.52.52,0,0,0-.36-.14"/><path class="cls-2" d="M28.92,63a1.41,1.41,0,0,0-.45-.34,1.52,1.52,0,0,0-.64-.13,1.4,1.4,0,0,0-.41.06,1.46,1.46,0,0,0-.36.16,1.61,1.61,0,0,0-.28.24.8.8,0,0,0-.2.29h0c0-.08,0-.19,0-.31a3.25,3.25,0,0,0,0-.33h-.73c0,.13,0,.27,0,.43s0,.3,0,.4v3h.76V64.47a1.39,1.39,0,0,1,.29-.92.9.9,0,0,1,.75-.35.84.84,0,0,1,.44.1.75.75,0,0,1,.27.26,1.08,1.08,0,0,1,.13.37,2.15,2.15,0,0,1,0,.45v2.15h.76v-2.4a2.37,2.37,0,0,0-.08-.61,1.42,1.42,0,0,0-.27-.5"/><rect class="cls-2" x="30.58" y="62.66" width="0.77" height="3.86"/><path class="cls-2" d="M31,60.77a.52.52,0,0,0-.36.14.48.48,0,0,0-.14.36.44.44,0,0,0,.14.34.49.49,0,0,0,.36.15.52.52,0,0,0,.36-.14.45.45,0,0,0,.15-.35.49.49,0,0,0-.15-.36.52.52,0,0,0-.36-.14"/><path class="cls-2" d="M35,64.62a1.78,1.78,0,0,0-.41-.22,5.36,5.36,0,0,0-.52-.16,3,3,0,0,1-.66-.21.4.4,0,0,1-.22-.37.41.41,0,0,1,.06-.23.61.61,0,0,1,.17-.15.79.79,0,0,1,.23-.09,1.15,1.15,0,0,1,.26,0,1,1,0,0,1,.9.48l.53-.45a1.3,1.3,0,0,0-.6-.47,2.05,2.05,0,0,0-.8-.17,1.91,1.91,0,0,0-.54.08,1.26,1.26,0,0,0-.47.21,1.15,1.15,0,0,0-.33.36,1.13,1.13,0,0,0-.12.54.88.88,0,0,0,.1.45,1.1,1.1,0,0,0,.26.31,1.43,1.43,0,0,0,.37.19l.39.11a3.73,3.73,0,0,1,.76.25.42.42,0,0,1,.25.4.54.54,0,0,1-.06.27.49.49,0,0,1-.18.17.85.85,0,0,1-.24.09,1.33,1.33,0,0,1-.28,0,1.21,1.21,0,0,1-.6-.15,1.17,1.17,0,0,1-.43-.39l-.55.47a1.72,1.72,0,0,0,.7.52,2.35,2.35,0,0,0,.86.17,2.69,2.69,0,0,0,.57-.06,1.56,1.56,0,0,0,.49-.22A1.1,1.1,0,0,0,35.2,66a1.13,1.13,0,0,0,.13-.58.92.92,0,0,0-.1-.44.91.91,0,0,0-.27-.32"/><path class="cls-2" d="M37.16,61.55h-.75v1.11h-.75v.63h.75v2.09a1.23,1.23,0,0,0,.29.91,1.1,1.1,0,0,0,.83.3,2,2,0,0,0,.35,0,1.32,1.32,0,0,0,.3-.08l0-.62a.79.79,0,0,1-.22.06l-.23,0a.54.54,0,0,1-.42-.15.81.81,0,0,1-.13-.5v-2h1v-.63h-1Z"/><path class="cls-2" d="M40.21,62.76a1.35,1.35,0,0,0-.48.55h0c0-.08,0-.18,0-.31a3.07,3.07,0,0,0,0-.34H39c0,.13,0,.27,0,.43s0,.3,0,.4v3h.77v-2a1.78,1.78,0,0,1,.06-.47,1.36,1.36,0,0,1,.2-.4,1.13,1.13,0,0,1,.34-.27,1.06,1.06,0,0,1,.48-.1,1.29,1.29,0,0,1,.35,0l0-.71a1.21,1.21,0,0,0-.3,0,1.23,1.23,0,0,0-.7.21"/><path class="cls-2" d="M43.42,65.69h0l-1.2-3h-.85L43,66.52l-.24.65a2.27,2.27,0,0,1-.27.48.58.58,0,0,1-.45.16,1.26,1.26,0,0,1-.38-.06l-.08.67a1.19,1.19,0,0,0,.26,0h.25a1.45,1.45,0,0,0,.49-.07,1.07,1.07,0,0,0,.36-.21,1.09,1.09,0,0,0,.27-.33,2.15,2.15,0,0,0,.21-.43l1.88-4.78h-.82Z"/><path class="cls-2" d="M51.39,63.13a2.06,2.06,0,0,0-.66-.42,2.21,2.21,0,0,0-1.65,0,2.06,2.06,0,0,0-.66.42,1.81,1.81,0,0,0-.43.64,2,2,0,0,0-.16.81,1.94,1.94,0,0,0,1.25,1.9,2.34,2.34,0,0,0,1.65,0,2.06,2.06,0,0,0,.66-.42,1.92,1.92,0,0,0,.44-.65,2,2,0,0,0,.16-.83,2,2,0,0,0-.16-.81,1.7,1.7,0,0,0-.44-.64m-.28,2a1.48,1.48,0,0,1-.25.44,1.14,1.14,0,0,1-.41.31,1.32,1.32,0,0,1-1.1,0,1.14,1.14,0,0,1-.41-.31,1.45,1.45,0,0,1-.24-.44,1.6,1.6,0,0,1-.09-.53,1.55,1.55,0,0,1,.09-.53,1.34,1.34,0,0,1,.24-.44,1.27,1.27,0,0,1,.41-.31,1.43,1.43,0,0,1,1.1,0,1.27,1.27,0,0,1,.41.31,1.36,1.36,0,0,1,.25.44,1.84,1.84,0,0,1,.08.53,1.89,1.89,0,0,1-.08.53"/><path class="cls-2" d="M54,60.39a1.14,1.14,0,0,0-.44.33,1.26,1.26,0,0,0-.26.5,2.59,2.59,0,0,0-.07.63v.81h-.77v.63h.77v3.23H54V63.29h.9v-.63H54v-.81a1.87,1.87,0,0,1,0-.34,1,1,0,0,1,.09-.3A.53.53,0,0,1,54.3,61a.74.74,0,0,1,.36-.08l.2,0L55,61l.09-.66a1.77,1.77,0,0,0-.48,0,1.71,1.71,0,0,0-.67.12"/><polygon class="cls-2" points="58.66 63.88 61.38 63.88 61.38 63.19 58.66 63.19 58.66 61.46 61.55 61.46 61.55 60.75 57.85 60.75 57.85 66.53 61.67 66.53 61.67 65.81 58.66 65.81 58.66 63.88"/><path class="cls-2" d="M65.81,63a1.41,1.41,0,0,0-.45-.34,1.55,1.55,0,0,0-.64-.13,1.35,1.35,0,0,0-.41.06,1.46,1.46,0,0,0-.36.16,1.37,1.37,0,0,0-.29.24,1.15,1.15,0,0,0-.2.29h0c0-.08,0-.19,0-.31s0-.23,0-.33h-.72c0,.13,0,.27,0,.43s0,.3,0,.4v3h.77V64.47a1.34,1.34,0,0,1,.29-.92.9.9,0,0,1,.74-.35.82.82,0,0,1,.44.1.62.62,0,0,1,.27.26,1.09,1.09,0,0,1,.14.37,3.19,3.19,0,0,1,0,.45v2.15h.77v-2.4a2,2,0,0,0-.09-.61,1.26,1.26,0,0,0-.26-.5"/><polygon class="cls-2" points="68.86 65.7 68.85 65.7 67.72 62.66 66.87 62.66 68.44 66.52 69.27 66.52 70.82 62.66 70.01 62.66 68.86 65.7"/><path class="cls-2" d="M72,60.77a.48.48,0,0,0-.5.5.48.48,0,0,0,.14.34.49.49,0,0,0,.36.15.52.52,0,0,0,.36-.14.45.45,0,0,0,.15-.35.49.49,0,0,0-.15-.36.52.52,0,0,0-.36-.14"/><rect class="cls-2" x="71.57" y="62.66" width="0.77" height="3.86"/><path class="cls-2" d="M74.9,62.76a1.35,1.35,0,0,0-.48.55h0c0-.08,0-.18,0-.31a3.28,3.28,0,0,0,0-.34h-.73c0,.13,0,.27,0,.43v3.43h.77v-2a1.45,1.45,0,0,1,.07-.47,1.34,1.34,0,0,1,.19-.4,1.13,1.13,0,0,1,.34-.27,1.06,1.06,0,0,1,.48-.1,1.37,1.37,0,0,1,.36,0l0-.71a1.21,1.21,0,0,0-.3,0,1.24,1.24,0,0,0-.71.21"/><path class="cls-2" d="M79.79,63.13a2.06,2.06,0,0,0-.66-.42,2.21,2.21,0,0,0-1.65,0,2,2,0,0,0-1.1,1.06,2.12,2.12,0,0,0-.15.81,2.23,2.23,0,0,0,.15.83,2.26,2.26,0,0,0,.44.65,2,2,0,0,0,.66.42,2.34,2.34,0,0,0,1.65,0,2.06,2.06,0,0,0,.66-.42,1.92,1.92,0,0,0,.44-.65,2,2,0,0,0,.16-.83,2,2,0,0,0-.16-.81,1.7,1.7,0,0,0-.44-.64m-.28,2a1.48,1.48,0,0,1-.25.44,1.14,1.14,0,0,1-.41.31,1.32,1.32,0,0,1-1.1,0,1.14,1.14,0,0,1-.41-.31,1.48,1.48,0,0,1-.25-.44,1.89,1.89,0,0,1-.08-.53,1.84,1.84,0,0,1,.08-.53,1.36,1.36,0,0,1,.25-.44,1.27,1.27,0,0,1,.41-.31,1.43,1.43,0,0,1,1.1,0,1.27,1.27,0,0,1,.41.31,1.36,1.36,0,0,1,.25.44,1.84,1.84,0,0,1,.08.53,1.89,1.89,0,0,1-.08.53"/><path class="cls-2" d="M84.55,63a1.41,1.41,0,0,0-.45-.34,1.55,1.55,0,0,0-.64-.13,1.35,1.35,0,0,0-.41.06,1.46,1.46,0,0,0-.36.16,1.37,1.37,0,0,0-.29.24,1.15,1.15,0,0,0-.2.29h0c0-.08,0-.19,0-.31s0-.23,0-.33h-.72c0,.13,0,.27,0,.43s0,.3,0,.4v3h.77V64.47a1.34,1.34,0,0,1,.29-.92.9.9,0,0,1,.74-.35.82.82,0,0,1,.44.1.62.62,0,0,1,.27.26,1.09,1.09,0,0,1,.14.37,3.19,3.19,0,0,1,0,.45v2.15h.77v-2.4a2,2,0,0,0-.09-.61,1.26,1.26,0,0,0-.26-.5"/><path class="cls-2" d="M91.78,63a1.41,1.41,0,0,0-.45-.34,1.61,1.61,0,0,0-1.41.07,1.46,1.46,0,0,0-.55.58,1.2,1.2,0,0,0-.49-.6,1.49,1.49,0,0,0-.7-.18,1.39,1.39,0,0,0-.77.22,1.32,1.32,0,0,0-.47.53h0c0-.08,0-.19,0-.31a3.25,3.25,0,0,0,0-.33h-.73c0,.13,0,.27,0,.43v3.44H87V64.47a1.39,1.39,0,0,1,.28-.92A.85.85,0,0,1,88,63.2a.74.74,0,0,1,.38.08.64.64,0,0,1,.25.21.84.84,0,0,1,.14.32,1.82,1.82,0,0,1,0,.42v2.3h.77V64.44a2.3,2.3,0,0,1,0-.45,1.15,1.15,0,0,1,.17-.39.86.86,0,0,1,.31-.29.88.88,0,0,1,.45-.11.73.73,0,0,1,.41.1.65.65,0,0,1,.26.26,1.09,1.09,0,0,1,.14.37,2.15,2.15,0,0,1,0,.45v2.15h.77v-2.4a2,2,0,0,0-.09-.61,1.26,1.26,0,0,0-.26-.5"/><path class="cls-2" d="M96.53,63.09a1.72,1.72,0,0,0-.58-.4,2.16,2.16,0,0,0-.78-.14,2.1,2.1,0,0,0-.79.16,2,2,0,0,0-.64.42,2,2,0,0,0-.42.64,2.27,2.27,0,0,0-.15.83,2,2,0,0,0,.16.83,1.78,1.78,0,0,0,.42.64,1.76,1.76,0,0,0,.65.41,2.32,2.32,0,0,0,1.74,0,1.84,1.84,0,0,0,.73-.61l-.53-.43a1.52,1.52,0,0,1-.45.42,1.34,1.34,0,0,1-.68.17,1.28,1.28,0,0,1-.48-.09,1.14,1.14,0,0,1-.39-.25,1,1,0,0,1-.27-.37,1,1,0,0,1-.11-.46H97s0-.09,0-.13v-.13a2.74,2.74,0,0,0-.13-.84,2,2,0,0,0-.38-.63M94,64.25a1.09,1.09,0,0,1,.11-.43,1.28,1.28,0,0,1,.26-.34,1.23,1.23,0,0,1,.38-.24,1.39,1.39,0,0,1,.46-.08,1.32,1.32,0,0,1,.47.08,1,1,0,0,1,.33.24,1,1,0,0,1,.21.34,1.55,1.55,0,0,1,.07.43Z"/><path class="cls-2" d="M101.19,63a1.48,1.48,0,0,0-.44-.34,1.6,1.6,0,0,0-.65-.13,1.4,1.4,0,0,0-.41.06,1.25,1.25,0,0,0-.35.16,1.37,1.37,0,0,0-.29.24.8.8,0,0,0-.2.29h0c0-.08,0-.19,0-.31a3.25,3.25,0,0,0,0-.33h-.73c0,.13,0,.27,0,.43s0,.3,0,.4v3h.76V64.47a1.39,1.39,0,0,1,.29-.92.9.9,0,0,1,.75-.35.84.84,0,0,1,.44.1.75.75,0,0,1,.27.26,1.08,1.08,0,0,1,.13.37,2.15,2.15,0,0,1,0,.45v2.15h.76v-2.4a2,2,0,0,0-.08-.61,1.42,1.42,0,0,0-.27-.5"/><path class="cls-2" d="M103.7,61.55H103v1.11h-.75v.63H103v2.09a1.23,1.23,0,0,0,.29.91,1.1,1.1,0,0,0,.83.3,2,2,0,0,0,.35,0,1.32,1.32,0,0,0,.3-.08l0-.62a.79.79,0,0,1-.22.06l-.23,0a.54.54,0,0,1-.42-.15.81.81,0,0,1-.13-.5v-2h1v-.63h-1Z"/><polygon class="cls-2" points="112.65 65.35 112.63 65.35 111.28 60.75 110.4 60.75 109.04 65.35 109.03 65.35 107.76 60.75 106.88 60.75 108.58 66.53 109.42 66.53 110.82 61.89 110.84 61.89 112.24 66.53 113.08 66.53 114.77 60.75 113.92 60.75 112.65 65.35"/><path class="cls-2" d="M118.36,65.76V64.07a1.63,1.63,0,0,0-.1-.59A1.17,1.17,0,0,0,118,63a1.37,1.37,0,0,0-.5-.33,2,2,0,0,0-.72-.11,2.6,2.6,0,0,0-.89.15,1.91,1.91,0,0,0-.69.42l.4.49a1.65,1.65,0,0,1,1.1-.45,1.1,1.1,0,0,1,.7.21.78.78,0,0,1,.26.64v.11c-.33,0-.65,0-1,0a3.73,3.73,0,0,0-.87.17,1.58,1.58,0,0,0-.62.4,1,1,0,0,0-.23.69,1.14,1.14,0,0,0,.13.57,1.07,1.07,0,0,0,.34.36,1.51,1.51,0,0,0,.45.2,2.1,2.1,0,0,0,.48.06,1.52,1.52,0,0,0,.76-.17,1.46,1.46,0,0,0,.54-.48h0a2.67,2.67,0,0,0,.06.56h.7a2.6,2.6,0,0,1,0-.36c0-.14,0-.28,0-.41m-.73-.87a1.2,1.2,0,0,1-.29.81,1.08,1.08,0,0,1-.83.32,1.43,1.43,0,0,1-.29,0,.77.77,0,0,1-.25-.1.55.55,0,0,1-.18-.19.51.51,0,0,1-.07-.28.47.47,0,0,1,.16-.39,1,1,0,0,1,.41-.22,2.42,2.42,0,0,1,.56-.1l.59,0h.19Z"/><path class="cls-2" d="M120.42,61.55h-.76v1.11h-.74v.63h.74v2.09a1.27,1.27,0,0,0,.29.91,1.14,1.14,0,0,0,.84.3,2.07,2.07,0,0,0,.35,0,1.32,1.32,0,0,0,.3-.08l0-.62a.79.79,0,0,1-.22.06L121,66a.54.54,0,0,1-.42-.15.81.81,0,0,1-.13-.5v-2h1v-.63h-1Z"/><path class="cls-2" d="M125.35,63.09a1.76,1.76,0,0,0-.59-.4,2.11,2.11,0,0,0-.77-.14,2.06,2.06,0,0,0-.79.16,1.88,1.88,0,0,0-1.06,1.06,2.27,2.27,0,0,0-.15.83,2.19,2.19,0,0,0,.15.83,2,2,0,0,0,.43.64,1.72,1.72,0,0,0,.64.41,2.35,2.35,0,0,0,1.75,0,1.91,1.91,0,0,0,.73-.61l-.54-.43a1.52,1.52,0,0,1-.45.42A1.31,1.31,0,0,1,124,66a1.29,1.29,0,0,1-.88-.34,1.26,1.26,0,0,1-.27-.37,1.2,1.2,0,0,1-.11-.46h3.07a.57.57,0,0,0,0-.13v-.13a2.47,2.47,0,0,0-.13-.84,2,2,0,0,0-.37-.63m-2.58,1.16a1.16,1.16,0,0,1,.38-.77,1.31,1.31,0,0,1,.37-.24,1.45,1.45,0,0,1,.47-.08,1.3,1.3,0,0,1,.46.08,1,1,0,0,1,.34.24.83.83,0,0,1,.2.34,1.56,1.56,0,0,1,.08.43Z"/><path class="cls-2" d="M128.14,62.76a1.35,1.35,0,0,0-.48.55h0c0-.08,0-.18,0-.31a3.07,3.07,0,0,0,0-.34h-.72c0,.13,0,.27,0,.43s0,.3,0,.4v3h.77v-2a1.78,1.78,0,0,1,.06-.47,1.36,1.36,0,0,1,.2-.4,1.13,1.13,0,0,1,.34-.27,1.06,1.06,0,0,1,.48-.1,1.29,1.29,0,0,1,.35,0l0-.71a1.21,1.21,0,0,0-.3,0,1.23,1.23,0,0,0-.7.21"/><path class="cls-2" d="M136.83,63.44h-.89l-.73,1.23-1.15-1.19a3.1,3.1,0,0,0,.47-.26,1.79,1.79,0,0,0,.39-.33,1.47,1.47,0,0,0,.28-.42,1.19,1.19,0,0,0,.1-.51,1.38,1.38,0,0,0-.12-.59,1.37,1.37,0,0,0-.33-.42,1.27,1.27,0,0,0-.47-.26,2.12,2.12,0,0,0-.57-.08,2.2,2.2,0,0,0-.58.08,1.53,1.53,0,0,0-.49.26,1.36,1.36,0,0,0-.35.44,1.44,1.44,0,0,0-.12.61,1.33,1.33,0,0,0,.19.71,3.42,3.42,0,0,0,.47.61l-.48.27A1.82,1.82,0,0,0,132,64a1.8,1.8,0,0,0-.29.46,1.5,1.5,0,0,0-.11.58,1.61,1.61,0,0,0,.15.71,1.57,1.57,0,0,0,.41.51,1.71,1.71,0,0,0,.6.31,2.17,2.17,0,0,0,.72.11,2,2,0,0,0,1-.23,2.44,2.44,0,0,0,.74-.63l.72.75H137l-1.32-1.36Zm-3.56-2a.75.75,0,0,1,.55-.21.71.71,0,0,1,.53.21.72.72,0,0,1,.21.52.82.82,0,0,1-.08.35,1.86,1.86,0,0,1-.21.28,1.7,1.7,0,0,1-.3.23,2.91,2.91,0,0,1-.35.18l-.2-.2a1.44,1.44,0,0,1-.18-.25,1.47,1.47,0,0,1-.14-.28.86.86,0,0,1,0-.27.73.73,0,0,1,.22-.56m.95,4.34a1.2,1.2,0,0,1-.7.19,1.4,1.4,0,0,1-.4-.07,1.05,1.05,0,0,1-.34-.2,1.08,1.08,0,0,1-.24-.32.93.93,0,0,1-.09-.42,1,1,0,0,1,.25-.71,2.05,2.05,0,0,1,.68-.44l1.37,1.43a1.82,1.82,0,0,1-.53.54"/><path class="cls-2" d="M141.57,60.75l-2.5,5.78H140l.58-1.42h2.74l.59,1.42h.91l-2.48-5.78Zm-.74,3.65,1.08-2.71L143,64.4Z"/><path class="cls-2" d="M148.58,63.28h0a1.39,1.39,0,0,0-.6-.55,1.79,1.79,0,0,0-.79-.18,2,2,0,0,0-.8.16,1.9,1.9,0,0,0-1,1.08,2,2,0,0,0-.14.78,2,2,0,0,0,.14.78,1.86,1.86,0,0,0,.39.63,1.75,1.75,0,0,0,.61.42,2,2,0,0,0,1.59,0,1.41,1.41,0,0,0,.58-.5h0v.5a2,2,0,0,1-.07.56,1.18,1.18,0,0,1-.22.45,1.08,1.08,0,0,1-.42.3,1.58,1.58,0,0,1-.65.11,1.83,1.83,0,0,1-.78-.17,1.81,1.81,0,0,1-.63-.45l-.49.59a2.66,2.66,0,0,0,.88.52,3,3,0,0,0,1,.18,2.47,2.47,0,0,0,1-.18,1.7,1.7,0,0,0,1-1.16,3.1,3.1,0,0,0,.11-.81V62.66h-.74Zm-.06,1.81a1.36,1.36,0,0,1-.27.43,1.17,1.17,0,0,1-.42.29,1.32,1.32,0,0,1-.53.1,1.2,1.2,0,0,1-.55-.11,1.5,1.5,0,0,1-.4-.3,1.24,1.24,0,0,1-.25-.43,1.54,1.54,0,0,1-.09-.52,1.5,1.5,0,0,1,.09-.52,1.2,1.2,0,0,1,.25-.44,1.28,1.28,0,0,1,.4-.29,1.35,1.35,0,0,1,.55-.11,1.32,1.32,0,0,1,.53.11,1.25,1.25,0,0,1,.42.3,1.57,1.57,0,0,1,.27.43,1.5,1.5,0,0,1,.09.52,1.61,1.61,0,0,1-.09.54"/><path class="cls-2" d="M151.86,62.76a1.35,1.35,0,0,0-.48.55h0c0-.08,0-.18,0-.31a3.07,3.07,0,0,0,0-.34h-.72c0,.13,0,.27,0,.43s0,.3,0,.4v3h.77v-2a1.78,1.78,0,0,1,.06-.47,1.36,1.36,0,0,1,.2-.4,1.13,1.13,0,0,1,.34-.27,1.06,1.06,0,0,1,.48-.1,1.29,1.29,0,0,1,.35,0l0-.71a1.37,1.37,0,0,0-.31,0,1.23,1.23,0,0,0-.7.21"/><rect class="cls-2" x="153.59" y="62.66" width="0.77" height="3.86"/><path class="cls-2" d="M154,60.77a.48.48,0,0,0-.5.5.48.48,0,0,0,.14.34.49.49,0,0,0,.36.15.52.52,0,0,0,.36-.14.45.45,0,0,0,.15-.35.49.49,0,0,0-.15-.36.52.52,0,0,0-.36-.14"/><path class="cls-2" d="M158.05,65.87a1.15,1.15,0,0,1-.53.12,1.19,1.19,0,0,1-.54-.12,1.2,1.2,0,0,1-.4-.3,1.41,1.41,0,0,1-.25-.45,1.84,1.84,0,0,1-.08-.53,1.89,1.89,0,0,1,.08-.53,1.36,1.36,0,0,1,.25-.44,1.23,1.23,0,0,1,.4-.31,1.25,1.25,0,0,1,.53-.11,1,1,0,0,1,.52.13.82.82,0,0,1,.37.31l.55-.45a1.41,1.41,0,0,0-.64-.47,2.06,2.06,0,0,0-.81-.17,2.25,2.25,0,0,0-.82.15,1.92,1.92,0,0,0-.65.42,1.76,1.76,0,0,0-.43.64,2,2,0,0,0-.16.83,2.24,2.24,0,0,0,.16.84,1.83,1.83,0,0,0,.44.64,1.76,1.76,0,0,0,.65.41,2.27,2.27,0,0,0,.83.15,2,2,0,0,0,.83-.16A1.52,1.52,0,0,0,159,66l-.51-.47a1,1,0,0,1-.4.31"/><path class="cls-2" d="M163.14,65.69v-3h-.77v2.06a1.41,1.41,0,0,1-.29.92.92.92,0,0,1-.74.35,1,1,0,0,1-.45-.1.72.72,0,0,1-.26-.26,1.15,1.15,0,0,1-.14-.38,3.27,3.27,0,0,1,0-.45V62.66h-.76v2.4a2.43,2.43,0,0,0,.08.61,1.58,1.58,0,0,0,.26.5,1.28,1.28,0,0,0,.45.34,1.64,1.64,0,0,0,.65.12,1.46,1.46,0,0,0,.77-.21,1.33,1.33,0,0,0,.5-.53h0c0,.08,0,.18,0,.3s0,.24,0,.33h.73c0-.12,0-.26,0-.43v-.4"/><rect class="cls-2" x="164.48" y="60.36" width="0.77" height="6.16"/><path class="cls-2" d="M167.45,61.55h-.76v1.11H166v.63h.74v2.09a1.27,1.27,0,0,0,.29.91,1.1,1.1,0,0,0,.84.3,1.87,1.87,0,0,0,.34,0,1.57,1.57,0,0,0,.31-.08l0-.62a.71.71,0,0,1-.22.06L168,66a.52.52,0,0,1-.42-.15.75.75,0,0,1-.13-.5v-2h1v-.63h-1Z"/><path class="cls-2" d="M172.68,65.69v-3h-.76v2.06a1.41,1.41,0,0,1-.29.92,1,1,0,0,1-1.19.25.84.84,0,0,1-.27-.26,1.14,1.14,0,0,1-.13-.38,2.22,2.22,0,0,1,0-.45V62.66h-.77v2.4a2,2,0,0,0,.09.61,1.4,1.4,0,0,0,.26.5,1.28,1.28,0,0,0,.45.34,1.6,1.6,0,0,0,.65.12,1.46,1.46,0,0,0,.77-.21,1.3,1.3,0,0,0,.49-.53h0v.3q0,.19,0,.33h.72c0-.12,0-.26,0-.43s0-.29,0-.4"/><path class="cls-2" d="M175.24,62.76a1.35,1.35,0,0,0-.48.55h0c0-.08,0-.18,0-.31s0-.24,0-.34H174c0,.13,0,.27,0,.43s0,.3,0,.4v3h.77v-2a1.78,1.78,0,0,1,.06-.47,1.36,1.36,0,0,1,.2-.4,1,1,0,0,1,.34-.27,1.06,1.06,0,0,1,.48-.1,1.29,1.29,0,0,1,.35,0l0-.71a1.21,1.21,0,0,0-.3,0,1.23,1.23,0,0,0-.7.21"/><path class="cls-2" d="M180.3,63.72a2,2,0,0,0-.38-.63,1.72,1.72,0,0,0-.58-.4,2.16,2.16,0,0,0-.78-.14,2.1,2.1,0,0,0-.79.16,2,2,0,0,0-.64.42,2,2,0,0,0-.42.64,2.27,2.27,0,0,0-.15.83,2,2,0,0,0,.16.83,1.78,1.78,0,0,0,.42.64,1.68,1.68,0,0,0,.65.41,2.12,2.12,0,0,0,.81.15,2.18,2.18,0,0,0,.93-.19,1.84,1.84,0,0,0,.73-.61l-.54-.43a1.37,1.37,0,0,1-.44.42,1.34,1.34,0,0,1-.68.17,1.28,1.28,0,0,1-.48-.09,1.32,1.32,0,0,1-.67-.62,1.41,1.41,0,0,1-.11-.46h3.08s0-.09,0-.13v-.13a2.74,2.74,0,0,0-.13-.84m-3,.53a1.32,1.32,0,0,1,.12-.43,1.28,1.28,0,0,1,.26-.34,1.23,1.23,0,0,1,.38-.24,1.39,1.39,0,0,1,.46-.08,1.36,1.36,0,0,1,.47.08,1,1,0,0,1,.33.24,1,1,0,0,1,.21.34,1.55,1.55,0,0,1,.07.43Z"/><path class="cls-2" d="M128,43.29h-1.29v-.42c0-.58.53-.8,1.08-.8V40.83l-.69.08a1.85,1.85,0,0,0-1.18.65,2.39,2.39,0,0,0-.5,1.56v1.36H128Z"/><path class="cls-2" d="M121.1,44.66a1.13,1.13,0,0,0,1.13-1.12,1.1,1.1,0,0,0-.33-.81,1.14,1.14,0,0,0-1.59,0,1,1,0,0,0-.33.8,1.11,1.11,0,0,0,.33.79,1.09,1.09,0,0,0,.79.33"/><path class="cls-2" d="M118.22,44.66a1.07,1.07,0,0,0,.78-.33,1.12,1.12,0,0,0,.32-.79,1.11,1.11,0,0,0-1.91-.8,1.13,1.13,0,0,0,0,1.59,1.06,1.06,0,0,0,.8.33"/><path class="cls-2" d="M157.36,44.66a1,1,0,0,0,.8-.33,1.11,1.11,0,0,0,.33-.79,1.06,1.06,0,0,0-.33-.8,1.12,1.12,0,0,0-1.59,0,1.05,1.05,0,0,0-.34.8,1.1,1.1,0,0,0,.34.79,1.07,1.07,0,0,0,.79.33"/><path class="cls-2" d="M154.47,44.66a1,1,0,0,0,.78-.33,1.11,1.11,0,0,0,.33-.79,1.09,1.09,0,0,0-.32-.8,1.13,1.13,0,0,0-1.59,0,1.08,1.08,0,0,0-.32.81,1.14,1.14,0,0,0,.32.79,1.08,1.08,0,0,0,.8.33"/><path class="cls-2" d="M161.61,54.7a3.23,3.23,0,0,0,1-1.83c0-.11.06-.77.06-.77l0-6.3h-1.88c0,4.35,0,6.41,0,6.51a1.41,1.41,0,0,1-.47,1,1.63,1.63,0,0,1-1.08.37v1.9l.46,0a3.34,3.34,0,0,0,1.85-.79"/><path class="cls-2" d="M153.18,52.27a3.37,3.37,0,0,0,1.76.48,3.44,3.44,0,0,0,1.78-.48A3.6,3.6,0,0,0,158,51a3.44,3.44,0,0,0,.49-1.77c0-1.22,0-2.25,0-3.41l-3.67,0a3.42,3.42,0,0,0-1.74.45,3.38,3.38,0,0,0-1.22,1.24,3.55,3.55,0,0,0-.44,1.75A3.41,3.41,0,0,0,151.9,51a3.52,3.52,0,0,0,1.28,1.29m.55-4.19a1.43,1.43,0,0,1,1.09-.44l1.78,0v1.55a1.59,1.59,0,0,1-.48,1.17,1.63,1.63,0,0,1-2.33,0,1.59,1.59,0,0,1-.48-1.17,1.56,1.56,0,0,1,.42-1.13"/><path class="cls-2" d="M167,42.5h-1.89V52.6H167s0-10.1,0-10.1"/><path class="cls-2" d="M102.37,42.5H100.5V52.61h1.87V42.5"/><path class="cls-2" d="M147.6,42.5h-1.9V52.61h1.9Z"/><path class="cls-2" d="M53.18,42.5H51.31V52.61h1.87V42.5"/><path class="cls-2" d="M137.13,54.62a1.13,1.13,0,1,0,1.59,1.6,1.11,1.11,0,0,0,.33-.8,1.09,1.09,0,0,0-.32-.8,1.15,1.15,0,0,0-1.6,0"/><path class="cls-2" d="M143.15,42.5h-1.82v8.22h-1.11a1.76,1.76,0,0,1-1.1-.34,1.67,1.67,0,0,1-.29-1.12l0-3.43v0h-1.9l0,3.58a2,2,0,0,1-.14.86.77.77,0,0,1-.54.38,7.25,7.25,0,0,1-1.32.08h-.38a1.46,1.46,0,0,1-.9-.32,1.67,1.67,0,0,1-.29-1.12l0-3.45h-1.91v3.58a2,2,0,0,1-.14.86.77.77,0,0,1-.54.38,7.61,7.61,0,0,1-1.37.08H129a1.47,1.47,0,0,1-.92-.32,1.67,1.67,0,0,1-.29-1.12V45.81h-1.91v3.58a2,2,0,0,1-.14.86.77.77,0,0,1-.54.38c-.21,0-2,0-2,0-.71,0-1-.41-1-1.23s0-3.63,0-3.63l-3.67,0a3.42,3.42,0,0,0-1.74.45,3.27,3.27,0,0,0-1.21,1.24,3.55,3.55,0,0,0-.44,1.75,3.54,3.54,0,0,0,1.75,3.06,3.38,3.38,0,0,0,1.77.48,3.53,3.53,0,0,0,1.29-.25,3.84,3.84,0,0,0,1.14-.72l0,0a3.44,3.44,0,0,0,1,.68,4.1,4.1,0,0,0,1.24.13c.93,0,1.6,0,1.6,0a4,4,0,0,0,.93-.11,3.53,3.53,0,0,0,1-.58L127,52a2.47,2.47,0,0,0,1,.54,4.7,4.7,0,0,0,1.09.1h1.15a4.38,4.38,0,0,0,1.11-.12,3,3,0,0,0,1-.54l0,0a2.47,2.47,0,0,0,1,.54,4.7,4.7,0,0,0,1.09.1h1.39a4.24,4.24,0,0,0,1.1-.12,2.89,2.89,0,0,0,1-.54h0l.1.08a2.33,2.33,0,0,0,.9.48,4.76,4.76,0,0,0,1.09.1h3.25V42.5Zm-22.81,6.73a1.59,1.59,0,0,1-.48,1.17,1.64,1.64,0,0,1-2.33,0,1.7,1.7,0,0,1-.06-2.3,1.43,1.43,0,0,1,1.09-.44l1.78,0Z"/><path class="cls-2" d="M133.5,56.55a1.05,1.05,0,0,0,.8-.34,1.15,1.15,0,0,0,0-1.59,1.15,1.15,0,0,0-1.6,0,1.11,1.11,0,0,0,0,1.59,1,1,0,0,0,.79.34"/><path class="cls-2" d="M129.81,54.62a1.16,1.16,0,0,0,0,1.6,1.08,1.08,0,0,0,.8.33,1.06,1.06,0,0,0,.79-.34,1.1,1.1,0,0,0,.32-.79,1.06,1.06,0,0,0-.33-.8,1.11,1.11,0,0,0-1.58,0"/><path class="cls-2" d="M22,44.63a1.09,1.09,0,0,0,.8-.33,1.16,1.16,0,0,0,.32-.8,1.13,1.13,0,0,0-.32-.8,1.14,1.14,0,0,0-1.6,0,1.14,1.14,0,0,0,.8,1.93"/><path class="cls-2" d="M35,52.63V48.8c0-1,0-4,0-6.27l-1.89,0c0,2.18,0,5.36,0,6.29v3.83Z"/><path class="cls-2" d="M19.15,44.63a1,1,0,0,0,.78-.34,1.09,1.09,0,0,0,.33-.79,1.06,1.06,0,0,0-.33-.8,1.13,1.13,0,0,0-1.58,0,1.15,1.15,0,0,0,0,1.59,1.07,1.07,0,0,0,.8.34"/><path class="cls-2" d="M31.44,52.61V50.73H28.8a1.4,1.4,0,0,1-1.09-.44,1.57,1.57,0,0,1-.43-1.13,1.68,1.68,0,0,1,.26-.9,1.64,1.64,0,0,1,1.85-.69l.35.11,1.12-1.52c-.17-.09-.37-.16-.44-.19a3.53,3.53,0,0,0-4.54,1.42,3.41,3.41,0,0,0-.48,1.77,3.7,3.7,0,0,0,.28,1.44l.05.11h-1.6c-.7,0-1-.41-1-1.24V45.81l-3.67,0a3.39,3.39,0,0,0-1.74.45,3.23,3.23,0,0,0-1.22,1.24,3.55,3.55,0,0,0-.44,1.75,3.54,3.54,0,0,0,1.75,3.06,3.41,3.41,0,0,0,1.77.48,3.58,3.58,0,0,0,1.3-.25,3.84,3.84,0,0,0,1.14-.72l0,0a3.33,3.33,0,0,0,1,.68,3.58,3.58,0,0,0,1.17.15h7.23ZM21.28,49.23a1.56,1.56,0,0,1-.49,1.17,1.62,1.62,0,0,1-2.32,0,1.7,1.7,0,0,1-.06-2.3,1.41,1.41,0,0,1,1.09-.44l1.78,0Z"/><path class="cls-2" d="M43.3,44.66a1,1,0,0,0,.78-.33,1.14,1.14,0,0,0,0-1.58,1.12,1.12,0,0,0-1.91.79,1.07,1.07,0,0,0,.33.79,1,1,0,0,0,.8.33"/><path class="cls-2" d="M73.29,45.81H69.6a3.39,3.39,0,0,0-1.74.45,3.14,3.14,0,0,0-1.22,1.23,3.58,3.58,0,0,0-.44,1.75A3.54,3.54,0,0,0,68,52.29a3.5,3.5,0,0,0,3.54,0A3.55,3.55,0,0,0,72.78,51a3.41,3.41,0,0,0,.51-1.77Zm-1.91,3.42a1.59,1.59,0,0,1-.49,1.18,1.62,1.62,0,0,1-2.32,0,1.7,1.7,0,0,1-.07-2.31,1.48,1.48,0,0,1,1.09-.44l1.79,0Z"/><path class="cls-2" d="M79.85,56.52a1,1,0,0,0,.78-.34,1.12,1.12,0,0,0,0-1.59,1.11,1.11,0,0,0-1.58,0,1.09,1.09,0,0,0-.32.8,1.06,1.06,0,0,0,.32.79,1.05,1.05,0,0,0,.8.34"/><path class="cls-2" d="M96.23,42.5l0,8.23H94.47a1.45,1.45,0,0,1-1-.41A2,2,0,0,1,93,49.19a3.43,3.43,0,0,0-.47-1.77,3.47,3.47,0,0,0-1.27-1.28,3.62,3.62,0,0,0-3.55,0,3.57,3.57,0,0,0-1.28,1.28A3.52,3.52,0,0,0,86,49.19l0,1.54H83.83a1.45,1.45,0,0,1-1-.34,1.63,1.63,0,0,1-.28-1.11V45.81h-1.9l0,3.59a1.89,1.89,0,0,1-.14.86.77.77,0,0,1-.53.38,4.94,4.94,0,0,1-1.1.09H77.29l0-8.23H75.36l0,10.11h4.18a4.24,4.24,0,0,0,1.1-.12,3,3,0,0,0,1-.54,5,5,0,0,0,1,.56,4.55,4.55,0,0,0,1.08.1h5.89a3.44,3.44,0,0,0,2.45-1l0,0,.06.05a3.24,3.24,0,0,0,2.38.94h3.53l0-10.11Zm-5.17,7.32a1.43,1.43,0,0,1-.32.49l0,0-.18.15a1.57,1.57,0,0,1-.88.24H87.86c0-.36,0-1.21,0-1.52v0a1.64,1.64,0,0,1,.08-.5s0-.09,0-.14a2,2,0,0,1,.16-.28,1.64,1.64,0,0,1,.21-.25,1.82,1.82,0,0,1,.54-.36l.1,0,.12,0,.09,0a1.58,1.58,0,0,1,.65,0,1.71,1.71,0,0,1,.3.09,1.65,1.65,0,0,1,.9.9,1.68,1.68,0,0,1,.07.24,1.74,1.74,0,0,1,0,.39,1.81,1.81,0,0,1-.1.63"/><path class="cls-2" d="M56.4,54v1.9a5.84,5.84,0,0,0,5.29-3.39,5.46,5.46,0,0,0,.49-1.7s0-.75,0-.75v-.91a3.46,3.46,0,0,0-.47-1.76,3.42,3.42,0,0,0-1.28-1.28,3.55,3.55,0,0,0-4.83,1.28,3.37,3.37,0,0,0-.48,1.76,3.67,3.67,0,0,0,.44,1.78,3.23,3.23,0,0,0,1.22,1.24,3.49,3.49,0,0,0,1.74.44h.81a3.91,3.91,0,0,1-3,1.39m2.16-3.27a1.47,1.47,0,0,1-1.1-.44A1.61,1.61,0,0,1,57,49.14a1.65,1.65,0,1,1,3.29,0v1.58Z"/><path class="cls-2" d="M105.59,54v1.9a5.84,5.84,0,0,0,5.3-3.39,6.06,6.06,0,0,0,.49-1.7s0-.75,0-.75v-.91a3.37,3.37,0,0,0-.47-1.76,3.47,3.47,0,0,0-1.27-1.28,3.55,3.55,0,0,0-3.54,0,3.45,3.45,0,0,0-1.29,1.28,3.37,3.37,0,0,0-.48,1.76,3.56,3.56,0,0,0,.44,1.78A3.2,3.2,0,0,0,106,52.16a3.51,3.51,0,0,0,1.74.44h.82a3.92,3.92,0,0,1-3,1.39m2.16-3.27a1.45,1.45,0,0,1-1.09-.44,1.67,1.67,0,0,1,1.24-2.79,1.58,1.58,0,0,1,1.15.48,1.61,1.61,0,0,1,.48,1.17v1.58Z"/><path class="cls-2" d="M169.68,52.3a1.42,1.42,0,0,1-.48,1,1.62,1.62,0,0,1-1.07.37v1.9l.45,0a3.25,3.25,0,0,0,2.93-2.71c0-.08,0-.43,0-.43l0-6.55H169.7c0,4.35,0,6.41,0,6.51"/><path class="cls-2" d="M169.76,42.6a1.09,1.09,0,0,0-.33.79,1.07,1.07,0,0,0,.33.79,1.05,1.05,0,0,0,.8.34,1,1,0,0,0,.78-.34,1.12,1.12,0,0,0,.32-.79,1.06,1.06,0,0,0-.32-.79,1.09,1.09,0,0,0-1.58,0"/><path class="cls-2" d="M180,47.38a3.49,3.49,0,0,0-1.28-1.28,3.55,3.55,0,0,0-4.83,1.28,3.41,3.41,0,0,0-.48,1.77,3.63,3.63,0,0,0,.44,1.77A3.27,3.27,0,0,0,175,52.16a3.45,3.45,0,0,0,1.74.45h.82a3.88,3.88,0,0,1-3,1.39v1.9a5.82,5.82,0,0,0,5.78-5.09s0-.74,0-.74v-.91a3.5,3.5,0,0,0-.47-1.77m-1.4,3.34H176.5a1.41,1.41,0,0,1-.84-.42,1.7,1.7,0,0,1,.06-2.3,1.55,1.55,0,0,1,.69-.41h0l.19-.05h.28a1.54,1.54,0,0,1,1.15.49,1.55,1.55,0,0,1,.48,1.17Z"/><path class="cls-2" d="M83.54,56.18a1.15,1.15,0,0,0,0-1.59,1.15,1.15,0,0,0-1.6,0,1.09,1.09,0,0,0-.33.8,1.07,1.07,0,0,0,.33.79,1.14,1.14,0,0,0,.8.34,1.05,1.05,0,0,0,.8-.34"/><path class="cls-2" d="M39.75,45.8H37.87c0,4.36,0,6.45,0,6.56a1.47,1.47,0,0,1-.47,1,1.79,1.79,0,0,1-1.08.37v1.89l.45,0a3.42,3.42,0,0,0,1.86-.8,3.26,3.26,0,0,0,1.1-2.16Z"/><path class="cls-2" d="M43.17,54.75a3.29,3.29,0,0,0,1.11-2.14h4.56l0-10.1H47l0,8.21H44.29l0-4.92H42.44c0,4.36,0,6.45,0,6.56a1.44,1.44,0,0,1-.48,1,1.74,1.74,0,0,1-1.08.37v1.89l.46,0a3.39,3.39,0,0,0,1.85-.8"/><path class="cls-2" d="M106.21,49.53a1.48,1.48,0,0,0,.39.8,1.43,1.43,0,0,0,.23.2,1.43,1.43,0,0,1-.23-.2,1.48,1.48,0,0,1-.39-.8"/><path class="cls-3" d="M211.82,36.16a19,19,0,1,1-18.95,19,19,19,0,0,1,18.95-19m0-1.81a20.76,20.76,0,1,0,20.76,20.76,20.78,20.78,0,0,0-20.76-20.76"/><path class="cls-3" d="M222.93,63.18a5.49,5.49,0,0,0-2.4-.44c-1.94,0-4.92.61-8.64,3.34h0l-.08,0c-3.72-2.74-6.64-3.3-8.58-3.3a5.55,5.55,0,0,0-2.41.44c-.05,0-.14.07-.11.16s.06.07.13.07h.07a5.77,5.77,0,0,1,1.4-.17c2.52,0,5.77,1.9,8.37,3.79-.52.44-1.06.91-1.61,1.42l-.18-.14a2.06,2.06,0,0,0-.68-.41.65.65,0,0,0-.39,0,.52.52,0,0,0-.39.58.47.47,0,0,0,.4.45.46.46,0,0,0,.39-.22l.28.24.12.12-.17.14-.37.33a3.75,3.75,0,0,1-.82.54.6.6,0,0,1-.33.08.72.72,0,0,1-.19,0h-.06l-.12,0h-.05a.26.26,0,0,0-.23.13.49.49,0,0,0,0,.34.48.48,0,0,0,.12.21,1.06,1.06,0,0,0,.7.37h.31a2.09,2.09,0,0,0,.66-.19,5.65,5.65,0,0,0,1.12-.72l.33-.26.33.31a1.55,1.55,0,0,0,.51.33.58.58,0,0,0,.19,0h.07l.09,0a.46.46,0,0,0,.35-.41.55.55,0,0,0-.2-.55.4.4,0,0,0-.5.06l0,.06-.25-.27c.54-.49,1.2-1,1.83-1.5.63.5,1.33,1,1.88,1.5l-.26.27-.05-.06a.39.39,0,0,0-.49-.06.55.55,0,0,0-.21.55.47.47,0,0,0,.36.41l.08,0h.07a.58.58,0,0,0,.19,0,1.45,1.45,0,0,0,.51-.33l.34-.31.33.26a5.6,5.6,0,0,0,1.11.72,2.09,2.09,0,0,0,.66.19h.31a1.1,1.1,0,0,0,.71-.37.83.83,0,0,0,.12-.21.56.56,0,0,0,0-.34.26.26,0,0,0-.22-.13h-.06l-.12,0H217a.72.72,0,0,1-.19,0,.62.62,0,0,1-.33-.08,3.75,3.75,0,0,1-.82-.54l-.37-.33-.16-.14.12-.12.27-.24a.42.42,0,0,0,.79-.23.51.51,0,0,0-.39-.58.65.65,0,0,0-.39,0,2.28,2.28,0,0,0-.68.41,2.09,2.09,0,0,0-.17.14c-.54-.5-1.1-1-1.62-1.42,2.61-1.89,5.86-3.79,8.37-3.79a5.77,5.77,0,0,1,1.4.17h.07c.08,0,.12,0,.14-.07s-.07-.14-.12-.16"/><path class="cls-3" d="M213,62a9.51,9.51,0,0,0-.54,1.42,5.61,5.61,0,0,1,1.75-.56,4.22,4.22,0,0,0,3.31-4c-.08.15-.3.48-2.15.56a3.68,3.68,0,0,0-3.42,1.76,4.72,4.72,0,0,1,.35,1c1-2.48,3.6-2.14,4-2.24A5,5,0,0,0,213,62"/><path class="cls-3" d="M211.82,64.92l.46-.23c-.12-4.88-2.75-5.16-4-5.22-1.85-.08-2.06-.4-2.14-.56a4.2,4.2,0,0,0,3.31,4,3.27,3.27,0,0,1,1.38.46c-.36-3.19-3-3.11-3.52-3.35.5.11,4.25-.69,4.08,4.72Z"/><path class="cls-3" d="M210.28,50.86a1.68,1.68,0,0,0,1.51,1.74,1.64,1.64,0,0,0,1.51-1.74c0-1.34-1.51-3.88-1.51-3.88s-1.59,2.48-1.51,3.88M212.45,52a1.08,1.08,0,0,1-.67.24,1.27,1.27,0,0,1-1.17-1.35,3.63,3.63,0,0,1,.27-1,2.06,2.06,0,0,0-.08.49A1.55,1.55,0,0,0,212.23,52l.22,0"/><path class="cls-3" d="M207.64,56c0,2.78,3.94,3.67,3.94,3.67v-.86c0-2.89-3.94-3.68-3.94-3.68Z"/><path class="cls-3" d="M212,58.83v.86s3.94-.89,3.94-3.67v-.87s-3.94.79-3.94,3.68"/><path class="cls-3" d="M208.63,52.89c0,2.26,3,3,3,3v-.7c0-2.35-3-3-3-3Z"/><path class="cls-3" d="M211.94,55.17v.7s3-.72,3-3v-.7s-3,.63-3,3"/><path class="cls-3" d="M201.3,48.07c2.61-2.63,4.28-3.09,6.36-3.42-2.13,1.36-4.13,4.52-3.51,6.74,1.13-2.36,3.1-4.66,4.91-5.5a4.15,4.15,0,0,0-.07,4.77,10.18,10.18,0,0,1,2.78-5.18,10.18,10.18,0,0,1,2.78,5.18,4.13,4.13,0,0,0-.07-4.77c1.82.84,3.78,3.14,4.91,5.5.62-2.22-1.37-5.38-3.51-6.74,2.09.33,3.76.79,6.37,3.42-.86-3.51-3.89-4.73-6.31-5.16,2.66-.23,3.19,0,5.54,1-2.55-2.52-4.34-3-6.9-2.73a3.44,3.44,0,0,1,1.5-.76,3.8,3.8,0,0,0-3.4.42,2.38,2.38,0,0,0-.9-1.61h0a2.35,2.35,0,0,0-.89,1.61,3.83,3.83,0,0,0-3.41-.42,3.39,3.39,0,0,1,1.5.76c-2.55-.24-4.34.21-6.9,2.73,2.35-1,2.88-1.25,5.54-1-2.41.43-5.44,1.65-6.3,5.16"/></g></g></svg>