<svg xmlns="http://www.w3.org/2000/svg" viewBox="0 0 248.68 100"><defs><style>.cls-1{fill:none;}.cls-2,.cls-3{fill:#113d63;}.cls-3,.cls-4,.cls-5{fill-rule:evenodd;}.cls-4{fill:#57ac33;}.cls-5{fill:#f89d33;}</style></defs><g id="Layer_2" data-name="Layer 2"><g id="Layer_1-2" data-name="Layer 1"><rect class="cls-1" width="248.68" height="100"/><path id="Path_1" data-name="Path 1" class="cls-2" d="M51.4,73.93h0l1.23-1.24,1.22,1.22-1.24,1.24Z"/><path id="Path_2" data-name="Path 2" class="cls-2" d="M53.85,73.92h0l1.22-1.22,1.21,1.22-1.22,1.21Z"/><path id="Path_3" data-name="Path 3" class="cls-2" d="M56.74,84.35h0L58,83.13l1.24,1.24L58,85.58Z"/><rect id="Rectangle_1" data-name="Rectangle 1" class="cls-2" x="59.55" y="83.48" width="1.72" height="1.75" transform="translate(-41.95 67.42) rotate(-45)"/><path id="Path_4" data-name="Path 4" class="cls-2" d="M72.07,74h0l1.21-1.22L74.52,74,73.3,75.25Z"/><path id="Path_5" data-name="Path 5" class="cls-2" d="M73.31,71.57h0l1.22-1.22,1.24,1.24-1.22,1.22Z"/><rect id="Rectangle_2" data-name="Rectangle 2" class="cls-2" x="74.89" y="73.15" width="1.72" height="1.75" transform="translate(-30.15 75.24) rotate(-45)"/><path id="Path_6" data-name="Path 6" class="cls-2" d="M80.8,84.35h0L82,83.13l1.24,1.24L82,85.58Z"/><path id="Path_7" data-name="Path 7" class="cls-2" d="M85,73.06v7.62H82.88V75.85H81.17v4.83H79V75.85H77.32v4.83H75.4V77H73.68v3.66h-2v-2.5H70v2.5h-4.5V75.85H63.77v6.51a1.16,1.16,0,0,1-.31.88,1.38,1.38,0,0,1-1,.3h-.22v1.69h.24a4.16,4.16,0,0,0,1.11-.13,2.46,2.46,0,0,0,.93-.46,2.27,2.27,0,0,0,.66-.87,4,4,0,0,0,.27-1.38H86.73V73.06Z"/><rect id="Rectangle_3" data-name="Rectangle 3" class="cls-2" x="88.03" y="73.06" width="1.72" height="9.34"/><path id="Path_8" data-name="Path 8" class="cls-2" d="M97.57,80.68v-1a2.79,2.79,0,0,0-.13-.91,1.26,1.26,0,0,0-.4-.61,1.78,1.78,0,0,0-.36-.25,2.2,2.2,0,0,0-.39-.17,3.29,3.29,0,0,0-.53-.1c-.21,0-.48,0-.79,0V75.84h.56a4.32,4.32,0,0,1,1.29.17,3.54,3.54,0,0,1,1.07.52A3.09,3.09,0,0,1,99,77.79a4.44,4.44,0,0,1,.36,1.84V82.4H93.77V80.68Z"/><path id="Path_9" data-name="Path 9" class="cls-2" d="M100.32,83.54h.21a1.33,1.33,0,0,0,1-.3,1.17,1.17,0,0,0,.32-.89v-6.5h1.72v6.5a2.35,2.35,0,0,1,0,.27,4.28,4.28,0,0,1-.17.88,2.22,2.22,0,0,1-.34.71,2.42,2.42,0,0,1-.72.67,2.34,2.34,0,0,1-.92.31l-.36,0-.45,0h-.23Z"/><rect id="Rectangle_4" data-name="Rectangle 4" class="cls-2" x="104.83" y="73.06" width="1.72" height="9.34"/><rect id="Rectangle_5" data-name="Rectangle 5" class="cls-2" x="124.85" y="73.06" width="1.72" height="9.34"/><path id="Path_10" data-name="Path 10" class="cls-2" d="M132.17,73.93h0l1.24-1.24,1.22,1.22-1.24,1.24Z"/><path id="Path_11" data-name="Path 11" class="cls-2" d="M134.63,73.92h0l1.21-1.22,1.22,1.22-1.22,1.21Z"/><path id="Path_12" data-name="Path 12" class="cls-2" d="M137.52,84.35h0l1.22-1.22L140,84.37l-1.23,1.21Z"/><rect id="Rectangle_6" data-name="Rectangle 6" class="cls-2" x="140.33" y="83.48" width="1.72" height="1.75" transform="translate(-18.3 124.55) rotate(-45)"/><rect id="Rectangle_7" data-name="Rectangle 7" class="cls-2" x="151.16" y="73.06" width="1.72" height="1.72" transform="translate(-7.74 129.14) rotate(-45)"/><path id="Path_13" data-name="Path 13" class="cls-2" d="M153.71,73.92h0l1.22-1.22,1.21,1.22-1.22,1.22Z"/><path id="Path_14" data-name="Path 14" class="cls-2" d="M156.15,73.92h0l1.22-1.22,1.21,1.22-1.21,1.21Z"/><path id="Path_15" data-name="Path 15" class="cls-2" d="M165,73.93h0l1.23-1.23,1.21,1.21-1.22,1.23Z"/><path id="Path_16" data-name="Path 16" class="cls-2" d="M167.41,73.93h0l1.23-1.23,1.22,1.21-1.23,1.23Z"/><path id="Path_17" data-name="Path 17" class="cls-2" d="M169.91,75.85h0v6.82a2.6,2.6,0,0,1-.68,1.9,2.68,2.68,0,0,1-1.95.66h-2.43a2.68,2.68,0,0,1-1.95-.66,2.52,2.52,0,0,1-.68-1.9v-2h1.72v2.21a.89.89,0,0,0,.11.36.39.39,0,0,0,.22.18,1.2,1.2,0,0,0,.42,0h2.75a1.12,1.12,0,0,0,.41,0,.38.38,0,0,0,.23-.18,1.08,1.08,0,0,0,.11-.36v-.32h0V79.39h0V77.57h-.41a1.16,1.16,0,0,0-.82.25,1,1,0,0,0-.28.75,1.9,1.9,0,0,0,.2.81,2.57,2.57,0,0,0,.44.65v2.11l-.46-.22a4,4,0,0,1-1-.85,3.93,3.93,0,0,1-.68-1.15,4,4,0,0,1-.25-1.37,3.58,3.58,0,0,1,.16-1.08,2.31,2.31,0,0,1,.52-.86,2.36,2.36,0,0,1,.92-.56,4.14,4.14,0,0,1,1.4-.21Z"/><path id="Path_18" data-name="Path 18" class="cls-2" d="M174.32,77.57h-.45a.9.9,0,0,0-.7.26,1.14,1.14,0,0,0-.24.79v1a1.17,1.17,0,0,0,.24.8.88.88,0,0,0,.7.27h.45Zm-3.11,7.66h0V83.48h2.37a1.4,1.4,0,0,0,.41,0,.44.44,0,0,0,.23-.18.77.77,0,0,0,.07-.16.64.64,0,0,0,0-.2V82.4h-.4a3.05,3.05,0,0,1-1.42-.33,2.47,2.47,0,0,1-.95-.92,2.92,2.92,0,0,1-.35-1.38v-1.3a2.85,2.85,0,0,1,.35-1.37,2.47,2.47,0,0,1,.95-.92,3.05,3.05,0,0,1,1.42-.33h2.13v6.82a2.6,2.6,0,0,1-.68,1.9,2.68,2.68,0,0,1-2,.66Z"/><rect id="Rectangle_8" data-name="Rectangle 8" class="cls-2" x="185.01" y="73.06" width="1.72" height="1.72" transform="translate(2.17 153.08) rotate(-45)"/><path id="Path_19" data-name="Path 19" class="cls-2" d="M198.54,77.1a2.47,2.47,0,0,0-.95-.92,3.07,3.07,0,0,0-1.43-.33h-4.63v4.83h-1V77.87h-1.75v2.81h-2.08V75.85H185v4.83h-2.13V79.62a4.27,4.27,0,0,0-.35-1.83,3,3,0,0,0-1.07-1.26A3.54,3.54,0,0,0,180.4,76a4.29,4.29,0,0,0-1.28-.17h-.57v1.72c.32,0,.58,0,.8,0a3.18,3.18,0,0,1,.52.1,1.71,1.71,0,0,1,.39.17,1.78,1.78,0,0,1,.36.25,1.26,1.26,0,0,1,.4.61,2.79,2.79,0,0,1,.14.91v1h-3.81V82.4h21.53V78.47a2.73,2.73,0,0,0-.34-1.37m-1.38,3.58h-3.91V77.57h3a.87.87,0,0,1,.7.26,1.14,1.14,0,0,1,.24.79Z"/><path id="Path_20" data-name="Path 20" class="cls-3" d="M59.55,75.85v4.83H55.92V75.85a6.73,6.73,0,0,0-2.33.55,5.71,5.71,0,0,0-1.86,1.29,6.69,6.69,0,0,0-1.29,2,9.18,9.18,0,0,0-.63,2.69h3.48V80.67H52.05c0-.13.08-.26.13-.38a5.28,5.28,0,0,1,.89-1.52A2.6,2.6,0,0,1,54.2,78V82.4h7.07V75.85Z"/><path id="Path_21" data-name="Path 21" class="cls-3" d="M156.51,75.85v4.83h-3.63V75.85h-1.72v4.83H149V75.85h-2.12a3.07,3.07,0,0,0-1.43.33,2.54,2.54,0,0,0-.95.92,2.73,2.73,0,0,0-.34,1.37v2.21h-2.14V75.85h-1.72v4.83H136.7V75.85a6.62,6.62,0,0,0-2.33.55,5.73,5.73,0,0,0-1.86,1.3,6.46,6.46,0,0,0-1.29,2,9.25,9.25,0,0,0-.63,2.69h3.55V80.67h-1.31c0-.13.08-.26.13-.38a5.42,5.42,0,0,1,.89-1.52A2.6,2.6,0,0,1,135,78V82.4h23.25V75.85Zm-9.23,3.85a1.15,1.15,0,0,1-.23.8.88.88,0,0,1-.71.26h-.43V78.62a1.19,1.19,0,0,1,.23-.79.9.9,0,0,1,.71-.26h.43Z"/><path id="Path_22" data-name="Path 22" class="cls-2" d="M121.83,73.06v7.62h-2.06V75.85h-2.12a3.07,3.07,0,0,0-1.43.33,2.38,2.38,0,0,0-.94.92,2.64,2.64,0,0,0-.35,1.37v2.21h-2.21V75.85H110.6a3,3,0,0,0-1.42.33,2.43,2.43,0,0,0-1,.92,2.85,2.85,0,0,0-.35,1.37v1.29a2.93,2.93,0,0,0,.35,1.39,2.4,2.4,0,0,0,1,.91,3,3,0,0,0,1.41.34H111v.49a1.5,1.5,0,0,1,0,.2,1.19,1.19,0,0,1-.08.16.41.41,0,0,1-.22.17,1.45,1.45,0,0,1-.41.06h-2.38v1.75h2.22a2.7,2.7,0,0,0,2-.66,2.53,2.53,0,0,0,.68-1.9v-.28h10.83V73.06ZM111,80.68h-.45a.91.91,0,0,1-.71-.27,1.21,1.21,0,0,1-.23-.8v-1a1.19,1.19,0,0,1,.23-.79.94.94,0,0,1,.71-.26H111Zm7-1a1.14,1.14,0,0,1-.24.79.88.88,0,0,1-.71.26h-.43V78.62a1.19,1.19,0,0,1,.23-.79.9.9,0,0,1,.71-.26H118Z"/><path id="Path_23" data-name="Path 23" class="cls-2" d="M105.82,66.77h93.06V42.26c0-12-12.19-21.83-27.23-21.83H129.6V32.18h40.46c7,0,12.63,4.53,12.63,10.13V55H143.64V38.85h-14V55.1H119.33a28.17,28.17,0,0,1-13.51,11.67"/><path id="Path_24" data-name="Path 24" class="cls-2" d="M90.42,55.09c6.89,0,12.48-4.74,12.48-10.6V32.18H96.05V46h-14V20.43h37V44c0,12.56-12,22.75-26.79,22.75H49.81V55Z"/><path id="Path_25" data-name="Path 25" class="cls-4" d="M91,6.48H68.13V29.3H79V17.36H91Z"/><path id="Path_26" data-name="Path 26" class="cls-5" d="M178.4,38.85H155.57V55h10.89V49.73H178.4Z"/><path id="Path_27" data-name="Path 27" class="cls-2" d="M49.81,88.91H51.2v1.57h1.52V88.91h1.4v4.5h-1.4V91.58H51.2v1.83H49.81Z"/><path id="Path_28" data-name="Path 28" class="cls-2" d="M58,88.91h1.38v2.68a2.14,2.14,0,0,1-.12.75,1.56,1.56,0,0,1-.39.62,1.61,1.61,0,0,1-.56.37,2.66,2.66,0,0,1-1,.15,5.79,5.79,0,0,1-.72,0,2.05,2.05,0,0,1-.64-.19,1.53,1.53,0,0,1-.48-.39,1.32,1.32,0,0,1-.3-.51,2.89,2.89,0,0,1-.13-.77V88.91h1.39v2.74a.82.82,0,0,0,.2.58.76.76,0,0,0,.57.2.72.72,0,0,0,.56-.2.79.79,0,0,0,.21-.58Z"/><path id="Path_29" data-name="Path 29" class="cls-2" d="M60.26,88.91h1.83l.7,2.73.71-2.73h1.82v4.5H64.18V90l-.88,3.44h-1L61.4,90v3.44H60.26Z"/><path id="Path_30" data-name="Path 30" class="cls-2" d="M69,92.66H67.39l-.22.74H65.75l1.69-4.5H69l1.69,4.5H69.19Zm-.29-1-.49-1.62-.5,1.62Z"/><path id="Path_31" data-name="Path 31" class="cls-2" d="M71.1,88.91h1.3l1.69,2.48V88.91H75.4v4.5H74.09l-1.68-2.47v2.47H71.1Z"/><path id="Path_32" data-name="Path 32" class="cls-2" d="M78.44,93.41v-4.5h2.32a3,3,0,0,1,1,.11,1,1,0,0,1,.55.41,1.17,1.17,0,0,1,.21.72,1.23,1.23,0,0,1-.16.65,1.32,1.32,0,0,1-.44.44,1.58,1.58,0,0,1-.49.17,1.76,1.76,0,0,1,.37.17,1.7,1.7,0,0,1,.22.24,1.38,1.38,0,0,1,.19.28l.67,1.3H81.3L80.55,92a.94.94,0,0,0-.25-.34.6.6,0,0,0-.34-.11h-.12v1.84Zm1.4-2.68h.58a2.2,2.2,0,0,0,.37-.06.43.43,0,0,0,.23-.14.5.5,0,0,0,.08-.26.41.41,0,0,0-.14-.34.9.9,0,0,0-.51-.12h-.62Z"/><path id="Path_33" data-name="Path 33" class="cls-2" d="M83.31,88.91H87v1H84.7v.71h2.16v.92H84.7v.89h2.4v1H83.31Z"/><path id="Path_34" data-name="Path 34" class="cls-2" d="M87.61,91.92l1.32-.09a1,1,0,0,0,.17.5.76.76,0,0,0,.62.27.71.71,0,0,0,.46-.14.44.44,0,0,0,.15-.32.41.41,0,0,0-.15-.32,2,2,0,0,0-.71-.26,2.84,2.84,0,0,1-1.3-.55,1.07,1.07,0,0,1-.4-.86,1.1,1.1,0,0,1,.21-.66,1.19,1.19,0,0,1,.6-.48,2.6,2.6,0,0,1,1.1-.18,2.28,2.28,0,0,1,1.32.32,1.39,1.39,0,0,1,.54,1l-1.31.08A.77.77,0,0,0,90,89.8a.75.75,0,0,0-.46-.13.55.55,0,0,0-.37.1.33.33,0,0,0-.12.25.23.23,0,0,0,.1.19,1.11,1.11,0,0,0,.47.17,5.3,5.3,0,0,1,1.3.4,1.34,1.34,0,0,1,.58.5,1.28,1.28,0,0,1,.18.66,1.44,1.44,0,0,1-.24.8,1.57,1.57,0,0,1-.67.55,2.83,2.83,0,0,1-1.08.19A2.21,2.21,0,0,1,88.11,93a1.7,1.7,0,0,1-.5-1.12"/><path id="Path_35" data-name="Path 35" class="cls-2" d="M92.21,91.16a2.12,2.12,0,0,1,2.32-2.33,2.37,2.37,0,0,1,1.73.6,2.26,2.26,0,0,1,.61,1.69,2.78,2.78,0,0,1-.26,1.3,1.93,1.93,0,0,1-.77.78,2.49,2.49,0,0,1-1.25.28,2.89,2.89,0,0,1-1.26-.24,1.94,1.94,0,0,1-.81-.77,2.49,2.49,0,0,1-.31-1.31m1.39,0a1.54,1.54,0,0,0,.25,1,.88.88,0,0,0,.69.3.85.85,0,0,0,.69-.29,1.62,1.62,0,0,0,.25-1.05,1.35,1.35,0,0,0-.26-.93.89.89,0,0,0-.69-.29.82.82,0,0,0-.67.3,1.5,1.5,0,0,0-.26,1"/><path id="Path_36" data-name="Path 36" class="cls-2" d="M100.55,88.91h1.39v2.68a2.15,2.15,0,0,1-.13.75,1.56,1.56,0,0,1-.39.62,1.52,1.52,0,0,1-.56.37,2.66,2.66,0,0,1-1,.15,5.79,5.79,0,0,1-.72,0,1.82,1.82,0,0,1-.64-.19,1.53,1.53,0,0,1-.48-.39,1.46,1.46,0,0,1-.3-.51,2.89,2.89,0,0,1-.13-.77V88.91H99v2.74a.79.79,0,0,0,.21.58.88.88,0,0,0,1.12,0,.77.77,0,0,0,.21-.58Z"/><path id="Path_37" data-name="Path 37" class="cls-2" d="M102.87,93.41v-4.5h2.32a3,3,0,0,1,1,.11,1,1,0,0,1,.56.41,1.27,1.27,0,0,1-.4,1.81,1.62,1.62,0,0,1-.48.17,1.69,1.69,0,0,1,.36.17,1.26,1.26,0,0,1,.22.24,2,2,0,0,1,.2.28l.67,1.3h-1.57L105,92a.84.84,0,0,0-.25-.34.6.6,0,0,0-.34-.11h-.12v1.84Zm1.4-2.68h.58a2.2,2.2,0,0,0,.37-.06.43.43,0,0,0,.23-.14.42.42,0,0,0,.08-.26.43.43,0,0,0-.13-.34,1,1,0,0,0-.52-.12h-.61Z"/><path id="Path_38" data-name="Path 38" class="cls-2" d="M110.63,91.57l1.21.36a2.09,2.09,0,0,1-.38.86,1.68,1.68,0,0,1-.66.52,2.39,2.39,0,0,1-1,.18,2.91,2.91,0,0,1-1.2-.22,1.93,1.93,0,0,1-.8-.75,2.57,2.57,0,0,1-.34-1.38,2.33,2.33,0,0,1,.59-1.71,2.72,2.72,0,0,1,3-.26,2,2,0,0,1,.72,1.06l-1.22.27a1.17,1.17,0,0,0-.14-.3.72.72,0,0,0-.28-.24.85.85,0,0,0-.38-.09.83.83,0,0,0-.73.38,1.71,1.71,0,0,0-.19.89,1.75,1.75,0,0,0,.23,1,.91.91,0,0,0,1.25.06,1.42,1.42,0,0,0,.29-.65"/><path id="Path_39" data-name="Path 39" class="cls-2" d="M112.52,88.91h3.72v1h-2.33v.71h2.16v.92h-2.16v.89h2.39v1h-3.79Z"/><path id="Path_40" data-name="Path 40" class="cls-2" d="M124.52,88.91h2.07a2.35,2.35,0,0,1,1,.16,1.62,1.62,0,0,1,.62.48,2,2,0,0,1,.36.72,3.64,3.64,0,0,1,.11.87,3,3,0,0,1-.16,1.12,1.92,1.92,0,0,1-.46.66,1.53,1.53,0,0,1-.63.36,2.92,2.92,0,0,1-.83.12h-2.06Zm1.39,1v2.46h.34a1.46,1.46,0,0,0,.62-.09.69.69,0,0,0,.29-.34,2.07,2.07,0,0,0,.1-.78,1.48,1.48,0,0,0-.23-1,1,1,0,0,0-.77-.26Z"/><path id="Path_41" data-name="Path 41" class="cls-2" d="M129.39,88.91h3.72v1h-2.34v.71h2.17v.92h-2.17v.89h2.41v1h-3.8Z"/><path id="Path_42" data-name="Path 42" class="cls-2" d="M133.48,88.91h1.46l1,3.23,1-3.23h1.42l-1.67,4.5h-1.51Z"/><path id="Path_43" data-name="Path 43" class="cls-2" d="M138.81,88.91h3.73v1H140.2v.71h2.17v.92H140.2v.89h2.4v1h-3.79Z"/><path id="Path_44" data-name="Path 44" class="cls-2" d="M143.35,88.91h1.39V92.3h2.17v1.11h-3.56Z"/><path id="Path_45" data-name="Path 45" class="cls-2" d="M147.26,91.16a2.12,2.12,0,0,1,2.32-2.33,2.37,2.37,0,0,1,1.73.6,2.26,2.26,0,0,1,.61,1.69,2.78,2.78,0,0,1-.26,1.3,1.93,1.93,0,0,1-.77.78,2.49,2.49,0,0,1-1.25.28,2.89,2.89,0,0,1-1.26-.24,1.94,1.94,0,0,1-.81-.77,2.59,2.59,0,0,1-.31-1.31m1.39,0a1.54,1.54,0,0,0,.25,1,1,1,0,0,0,1.39,0,1.67,1.67,0,0,0,.24-1.05,1.4,1.4,0,0,0-.25-.93.93.93,0,0,0-.7-.29.82.82,0,0,0-.67.3,1.5,1.5,0,0,0-.26,1"/><path id="Path_46" data-name="Path 46" class="cls-2" d="M152.67,88.91H155a1.59,1.59,0,0,1,1.13.35,1.36,1.36,0,0,1,.37,1,1.34,1.34,0,0,1-.41,1.06,1.76,1.76,0,0,1-1.25.38h-.76v1.68h-1.39Zm1.39,1.91h.34a.94.94,0,0,0,.57-.13.48.48,0,0,0,.16-.36A.51.51,0,0,0,155,90a.72.72,0,0,0-.53-.15h-.4Z"/><path id="Path_47" data-name="Path 47" class="cls-2" d="M157.19,88.91H159l.71,2.73.7-2.73h1.82v4.5h-1.13V90l-.88,3.44h-1L158.34,90v3.44h-1.15Z"/><path id="Path_48" data-name="Path 48" class="cls-2" d="M163.14,88.91h3.72v1h-2.33v.71h2.16v.92h-2.16v.89h2.4v1h-3.79Z"/><path id="Path_49" data-name="Path 49" class="cls-2" d="M167.69,88.91H169l1.69,2.48V88.91H172v4.5h-1.31L169,90.94v2.47h-1.31Z"/><path id="Path_50" data-name="Path 50" class="cls-2" d="M172.6,88.91h4.22V90H175.4v3.39H174V90h-1.42Z"/><path id="Path_51" data-name="Path 51" class="cls-2" d="M179.55,88.91H183v1h-2v.79h1.74v.91H181v1.84h-1.4Z"/><path id="Path_52" data-name="Path 52" class="cls-2" d="M186.66,88.91h1.39v2.68a2.4,2.4,0,0,1-.12.75,1.67,1.67,0,0,1-.39.62,1.61,1.61,0,0,1-.56.37,2.66,2.66,0,0,1-1,.15,5.79,5.79,0,0,1-.72,0,2.05,2.05,0,0,1-.64-.19,1.71,1.71,0,0,1-.78-.9,2.53,2.53,0,0,1-.12-.77V88.91h1.38v2.74a.79.79,0,0,0,.21.58.72.72,0,0,0,.56.2.76.76,0,0,0,.57-.2.82.82,0,0,0,.2-.58Z"/><path id="Path_53" data-name="Path 53" class="cls-2" d="M189,88.91h1.3L192,91.39V88.91h1.31v4.5H192l-1.68-2.48v2.48H189Z"/><path id="Path_54" data-name="Path 54" class="cls-2" d="M194.23,88.91h2.06a2.4,2.4,0,0,1,1,.16,1.7,1.7,0,0,1,.62.48,1.93,1.93,0,0,1,.35.72,3.19,3.19,0,0,1,.11.87,3,3,0,0,1-.16,1.12,1.79,1.79,0,0,1-.46.66,1.56,1.56,0,0,1-.62.36,2.92,2.92,0,0,1-.83.12h-2.06Zm1.38,1v2.46H196a1.42,1.42,0,0,0,.62-.09.64.64,0,0,0,.29-.34,2.08,2.08,0,0,0,.11-.78,1.61,1.61,0,0,0-.23-1,1,1,0,0,0-.78-.26Z"/><path id="Path_55" data-name="Path 55" class="cls-2" d="M117.22,92l1.32-.08a1,1,0,0,0,.18.49.74.74,0,0,0,.61.28.68.68,0,0,0,.46-.14.42.42,0,0,0,.16-.32.44.44,0,0,0-.15-.32,2,2,0,0,0-.71-.26,3,3,0,0,1-1.31-.55,1.1,1.1,0,0,1-.39-.87,1.16,1.16,0,0,1,.2-.65,1.34,1.34,0,0,1,.61-.49,3,3,0,0,1,1.1-.18,2.35,2.35,0,0,1,1.32.32,1.42,1.42,0,0,1,.54,1l-1.31.08a.74.74,0,0,0-.22-.44.7.7,0,0,0-.46-.14.61.61,0,0,0-.37.1.34.34,0,0,0-.12.26.26.26,0,0,0,.1.19,1,1,0,0,0,.47.16,5.93,5.93,0,0,1,1.3.4,1.34,1.34,0,0,1,.58.5,1.29,1.29,0,0,1,.18.67,1.39,1.39,0,0,1-.24.79,1.44,1.44,0,0,1-.67.55,2.65,2.65,0,0,1-1.08.19,2.25,2.25,0,0,1-1.59-.44,1.7,1.7,0,0,1-.5-1.12"/></g></g></svg>