<svg xmlns="http://www.w3.org/2000/svg" xmlns:xlink="http://www.w3.org/1999/xlink" viewBox="0 0 248.68 100"><defs><style>.cls-1{fill:none;}.cls-2{fill:#1c1844;}.cls-3{clip-path:url(#clip-path);}.cls-4{fill:#499bd2;}.cls-5{fill:#acd5eb;}</style><clipPath id="clip-path"><rect class="cls-1" x="17.48" y="6.66" width="213.72" height="86.67"/></clipPath></defs><g id="Layer_2" data-name="Layer 2"><g id="Layer_1-2" data-name="Layer 1"><rect class="cls-1" width="248.68" height="100"/><polygon class="cls-2" points="78.86 75 78.86 80.69 82.84 80.69 82.84 79.79 79.86 79.79 79.86 75 78.86 75"/><path class="cls-2" d="M83.74,80.7h1V76.41h-1Zm0-5h1v-.93h-1Z"/><g class="cls-3"><path class="cls-2" d="M85.9,76.41h1v.66a1.55,1.55,0,0,1,1.34-.75A1.47,1.47,0,0,1,89.74,78V80.7h-1V78.27c0-.67-.33-1-.92-1a1,1,0,0,0-1,1.07V80.7h-1Z"/><path class="cls-2" d="M90.59,78.58h0a2.22,2.22,0,0,1,2.24-2.26,2.17,2.17,0,0,1,1.71.75l-.62.66a1.46,1.46,0,0,0-1.1-.53,1.28,1.28,0,0,0-1.24,1.36v0a1.29,1.29,0,0,0,1.28,1.37A1.52,1.52,0,0,0,94,79.42l.58.57a2.07,2.07,0,0,1-1.74.81,2.18,2.18,0,0,1-2.22-2.22"/><path class="cls-2" d="M98.58,78.58h0a1.31,1.31,0,0,0-1.3-1.38A1.27,1.27,0,0,0,96,78.55v0a1.33,1.33,0,0,0,1.31,1.37,1.27,1.27,0,0,0,1.28-1.36m-3.55,0h0a2.27,2.27,0,0,1,4.54,0v0a2.23,2.23,0,0,1-2.29,2.23A2.2,2.2,0,0,1,95,78.58"/></g><rect class="cls-2" x="100.52" y="74.78" width="0.99" height="5.92"/><g class="cls-3"><path class="cls-2" d="M102.71,76.41h1v.66a1.53,1.53,0,0,1,1.33-.75A1.47,1.47,0,0,1,106.54,78V80.7h-1V78.27c0-.67-.33-1-.91-1a1,1,0,0,0-1,1.07V80.7h-1Z"/><path class="cls-2" d="M109.84,77.88v0a2.87,2.87,0,0,1,2.93-2.94,3,3,0,0,1,2.21.88l-.65.73a2.25,2.25,0,0,0-1.58-.7,1.92,1.92,0,0,0-1.87,2h0a1.92,1.92,0,0,0,1.87,2,2.21,2.21,0,0,0,1.64-.74l.62.65a2.95,2.95,0,0,1-5.17-1.91"/><path class="cls-2" d="M119.13,78.58h0a1.32,1.32,0,0,0-1.32-1.38,1.27,1.27,0,0,0-1.28,1.36v0a1.33,1.33,0,0,0,1.3,1.37,1.29,1.29,0,0,0,1.3-1.36m-3.58,0h0a2.25,2.25,0,0,1,2.28-2.26,2.23,2.23,0,0,1,2.28,2.24v0a2.24,2.24,0,0,1-2.3,2.23,2.21,2.21,0,0,1-2.26-2.22"/></g><rect class="cls-2" x="121.06" y="74.78" width="0.99" height="5.92"/><rect class="cls-2" x="123.3" y="74.78" width="0.99" height="5.92"/><g class="cls-3"><path class="cls-2" d="M128.42,78.25c-.09-.62-.45-1.13-1.09-1.13a1.18,1.18,0,0,0-1.13,1.13Zm-3.18.32h0a2.12,2.12,0,0,1,2.09-2.24,2.07,2.07,0,0,1,2,2.3c0,.09,0,.18,0,.28h-3.14A1.2,1.2,0,0,0,127.46,80a1.52,1.52,0,0,0,1.15-.51l.56.51a2.16,2.16,0,0,1-1.75.81,2.13,2.13,0,0,1-2.18-2.23"/><path class="cls-2" d="M133.51,78.35v0a1.18,1.18,0,0,0-1.25-1.17,1.15,1.15,0,0,0-1.21,1.17v0a1.16,1.16,0,0,0,1.21,1.18,1.2,1.2,0,0,0,1.25-1.18m-3.24,3.16.36-.74a2.81,2.81,0,0,0,1.52.47,1.2,1.2,0,0,0,1.35-1.33v-.34a1.79,1.79,0,0,1-1.51.8,1.93,1.93,0,0,1-1.93-2h0A1.93,1.93,0,0,1,133.5,77v-.63h1v3.41a2.21,2.21,0,0,1-.53,1.62,2.42,2.42,0,0,1-1.77.58,3.58,3.58,0,0,1-1.9-.51"/><path class="cls-2" d="M138.55,78.25a1.13,1.13,0,0,0-1.09-1.13,1.16,1.16,0,0,0-1.1,1.13Zm-3.15.32h0a2.1,2.1,0,0,1,2.07-2.24,2.07,2.07,0,0,1,2.05,2.3c0,.09,0,.18,0,.28h-3.14A1.2,1.2,0,0,0,137.59,80a1.52,1.52,0,0,0,1.16-.51l.58.51a2.22,2.22,0,0,1-1.75.81,2.12,2.12,0,0,1-2.18-2.23"/></g><polygon class="cls-2" points="40.34 84.76 41.33 84.76 41.33 87.62 44.03 84.76 45.25 84.76 42.89 87.23 45.36 90.46 44.14 90.46 42.23 87.89 41.33 88.82 41.33 90.46 40.34 90.46 40.34 84.76"/><path class="cls-2" d="M46.07,90.47h1V86.16h-1Zm0-5h1v-.94H46Z"/><g class="cls-3"><path class="cls-2" d="M48.24,86.16h1v.65a1.58,1.58,0,0,1,1.32-.74,1.47,1.47,0,0,1,1.53,1.65v2.74h-1V88c0-.68-.34-1.06-.92-1.06a1,1,0,0,0-1,1.07v2.42h-1Z"/><path class="cls-2" d="M56.4,88.1h0a1.18,1.18,0,0,0-1.24-1.17,1.15,1.15,0,0,0-1.22,1.17h0a1.16,1.16,0,0,0,1.22,1.18A1.19,1.19,0,0,0,56.4,88.1m-3.24,3.17.36-.73A3,3,0,0,0,55,91a1.18,1.18,0,0,0,1.35-1.31v-.33a1.75,1.75,0,0,1-1.49.79,2,2,0,0,1,0-4,1.85,1.85,0,0,1,1.49.72v-.65h1v3.44a2.25,2.25,0,0,1-.54,1.61,2.52,2.52,0,0,1-1.75.57,3.78,3.78,0,0,1-1.92-.5"/><path class="cls-2" d="M61.76,88.32h0a1.3,1.3,0,0,0-1.25-1.38,1.25,1.25,0,0,0-1.22,1.38h0a1.29,1.29,0,0,0,1.22,1.38,1.3,1.3,0,0,0,1.25-1.38m-3.47,0h0a2,2,0,0,1,2-2.23,1.79,1.79,0,0,1,1.46.74v-2.3h1v5.94h-1v-.72a1.69,1.69,0,0,1-1.46.81,2.07,2.07,0,0,1-2-2.23"/><path class="cls-2" d="M67.2,88.34v0a1.32,1.32,0,0,0-1.32-1.38,1.28,1.28,0,0,0-1.28,1.37h0a1.33,1.33,0,0,0,1.3,1.38,1.3,1.3,0,0,0,1.3-1.36m-3.58,0v0a2.28,2.28,0,0,1,4.56,0h0a2.24,2.24,0,0,1-2.3,2.24,2.21,2.21,0,0,1-2.26-2.22"/><path class="cls-2" d="M69.08,86.16h1v.65a1.5,1.5,0,0,1,1.3-.74,1.34,1.34,0,0,1,1.27.75,1.74,1.74,0,0,1,1.45-.75,1.45,1.45,0,0,1,1.5,1.65v2.74h-1V88c0-.68-.33-1.06-.87-1.06s-.92.38-.92,1.07v2.42h-1V88c0-.67-.33-1-.86-1s-.92.41-.92,1.07v2.42h-1Z"/><path class="cls-2" d="M82.37,88.34v0a1.33,1.33,0,0,0-1.32-1.38,1.29,1.29,0,0,0-1.29,1.37h0a1.34,1.34,0,0,0,1.31,1.38,1.3,1.3,0,0,0,1.3-1.36m-3.57,0v0a2.28,2.28,0,0,1,4.55,0h0a2.24,2.24,0,0,1-2.3,2.24,2.21,2.21,0,0,1-2.25-2.22"/><path class="cls-2" d="M84.47,87h-.54v-.82h.54v-.33a1.44,1.44,0,0,1,.36-1,1.24,1.24,0,0,1,1-.35,2.32,2.32,0,0,1,.78.12v.82a1.75,1.75,0,0,0-.57-.09c-.36,0-.56.2-.56.65v.22h1.12V87h-1.1v3.46h-1Z"/><path class="cls-2" d="M89.29,89.64l.61-.71a2.68,2.68,0,0,0,1.77.72c.63,0,1-.28,1-.7v0c0-.41-.22-.64-1.27-.88-1.21-.29-1.9-.65-1.9-1.7v0a1.74,1.74,0,0,1,1.93-1.64,3,3,0,0,1,2.06.72l-.53.75a2.55,2.55,0,0,0-1.54-.58c-.58,0-.92.3-.92.66v0c0,.44.26.64,1.36.89s1.81.73,1.81,1.67v0c0,1.08-.84,1.7-2,1.7a3.54,3.54,0,0,1-2.36-.9"/><path class="cls-2" d="M97.29,88.92v-.29a2.66,2.66,0,0,0-1-.17c-.63,0-1,.25-1,.71v0c0,.41.36.64.82.64.66,0,1.14-.37,1.14-.91m-2.92.3h0c0-.93.71-1.39,1.76-1.39a3.34,3.34,0,0,1,1.15.18v-.11c0-.6-.38-.92-1.06-.92a2.84,2.84,0,0,0-1.22.26l-.27-.78a3.69,3.69,0,0,1,1.62-.36,1.8,1.8,0,0,1,1.4.5,1.7,1.7,0,0,1,.47,1.33v2.55h-1v-.55a1.63,1.63,0,0,1-1.38.63,1.35,1.35,0,0,1-1.51-1.33"/><path class="cls-2" d="M99.26,88.89V86.16h1v2.45c0,.66.33,1,.91,1a.94.94,0,0,0,1-1V86.16h1v4.3h-1v-.67a1.53,1.53,0,0,1-1.33.76,1.47,1.47,0,0,1-1.53-1.66"/><path class="cls-2" d="M107.48,88.32h0a1.28,1.28,0,0,0-1.23-1.38A1.25,1.25,0,0,0,105,88.31h0a1.24,1.24,0,1,0,2.46,0m-3.46,0h0a2,2,0,0,1,2-2.23,1.75,1.75,0,0,1,1.46.74v-2.3h1v5.94h-1v-.72a1.67,1.67,0,0,1-1.46.81,2.06,2.06,0,0,1-2-2.23"/></g><path class="cls-2" d="M109.64,90.47h1V86.16h-1Zm0-5h1.05v-.94H109.6Z"/><path class="cls-2" d="M117.7,88.2l-1-2.29-1,2.29Zm-1.42-3.48h.93l2.47,5.74h-1l-.57-1.38H115.4l-.6,1.38h-1Z"/><g class="cls-3"><path class="cls-2" d="M120.46,86.16h1v1A1.5,1.5,0,0,1,123,86.08v1.06h-.06c-.87,0-1.46.56-1.46,1.68v1.64h-1Z"/><path class="cls-2" d="M126.17,88.92v-.29a2.76,2.76,0,0,0-1-.17c-.63,0-1,.25-1,.71v0c0,.41.36.64.82.64.66,0,1.15-.37,1.15-.91m-2.94.3h0c0-.93.73-1.39,1.77-1.39a3.43,3.43,0,0,1,1.15.18v-.11c0-.6-.37-.92-1.05-.92a2.82,2.82,0,0,0-1.23.26l-.27-.78a3.75,3.75,0,0,1,1.61-.36,1.87,1.87,0,0,1,1.43.5,1.81,1.81,0,0,1,.46,1.33v2.55h-1v-.55a1.67,1.67,0,0,1-1.39.63,1.36,1.36,0,0,1-1.52-1.33"/><path class="cls-2" d="M131.61,88.32h0a1.28,1.28,0,0,0-1.23-1.38,1.3,1.3,0,0,0-1.24,1.38h0a1.3,1.3,0,0,0,1.24,1.38,1.26,1.26,0,0,0,1.23-1.38m-2.45,1.47v.67h-1V84.52h1v2.36a1.71,1.71,0,0,1,1.45-.8,2.05,2.05,0,0,1,2,2.23h0a2,2,0,0,1-2,2.23,1.72,1.72,0,0,1-1.45-.76"/></g><path class="cls-2" d="M133.58,90.47h1V86.16h-1Zm0-5h1v-.94h-1Z"/><g class="cls-3"><path class="cls-2" d="M138.39,88.92v-.29a2.54,2.54,0,0,0-1-.17c-.62,0-1,.25-1,.71v0c0,.41.36.64.85.64s1.12-.37,1.12-.91m-2.92.3h0c0-.93.72-1.39,1.76-1.39a3.36,3.36,0,0,1,1.16.18v-.11c0-.6-.37-.92-1.07-.92a2.86,2.86,0,0,0-1.21.26l-.26-.78a3.67,3.67,0,0,1,1.6-.36,1.88,1.88,0,0,1,1.42.5,1.77,1.77,0,0,1,.47,1.33v2.55h-1v-.55a1.67,1.67,0,0,1-1.39.63,1.36,1.36,0,0,1-1.52-1.33"/><path class="cls-2" d="M22.33,33.51a1.87,1.87,0,0,1,1.9-2,1.85,1.85,0,0,1,1.92,2,1.82,1.82,0,0,1-1.92,2,1.85,1.85,0,0,1-1.9-2M18.7,39.93l2.41.38a13,13,0,0,0-.55,3.49c0,2.61,1.89,4.07,4.43,4.07a5.54,5.54,0,0,0,4-1.56,2.91,2.91,0,0,0,.8-1.62,6.93,6.93,0,0,0-.13-1.49,20.47,20.47,0,0,0-2.08-5.15l3.19-1.33a20.11,20.11,0,0,1,1.7,4.59,4.44,4.44,0,0,0,1.77.28,2.17,2.17,0,0,1,2.44,2.1c0,1-.42,2.16-2.44,2.16a5.58,5.58,0,0,1-1.77-.21,7.16,7.16,0,0,1-1.12,2.81,7.52,7.52,0,0,1-6.8,3.44c-4.73,0-7-3.27-7-7a10.56,10.56,0,0,1,1.22-5"/><path class="cls-2" d="M31.93,43.63a2.13,2.13,0,0,1,2.29-2c1.9,0,2.87-.81,2.73-3l-.61-12.24,3.32-.24.59,13c.26,4.74-1.92,6.82-6,6.82a2.09,2.09,0,0,1-2.29-2.22"/><path class="cls-2" d="M50.42,41.59c-.36-2.27-1.47-3.36-2.6-3.36a1.51,1.51,0,0,0-1.59,1.45c0,.87.55,1.91,3.88,1.91Zm5,0a2.17,2.17,0,0,1,2.46,2.1c0,1-.4,2.16-2.44,2.16H53.24c-1.06,4.14-4.4,7.07-8,7.07a6.91,6.91,0,0,1-5-1.76l.64-2.73a7.2,7.2,0,0,0,3.78.84A5.5,5.5,0,0,0,50,45.85c-5.14,0-6.54-2.81-6.54-5.45a5.19,5.19,0,0,1,4.88-5.46c1.73,0,4.69,1.24,5.14,6.65Z"/><path class="cls-2" d="M53.13,43.63a2,2,0,0,1,2.27-2h.85c3.19,0,4.59-.45,4.59-1.27,0-.37-.16-.69-.8-1.53A22.93,22.93,0,0,0,56,35a33.43,33.43,0,0,1,.45-4c0-.19.16-.4,1-.9A56.68,56.68,0,0,1,68,26.15l-.86,4A53.83,53.83,0,0,0,58.73,33a43.58,43.58,0,0,1,6.34,7.06,3.26,3.26,0,0,0,2.87,1.53,2.17,2.17,0,0,1,2.43,2.11c0,1-.41,2.15-2.43,2.15-2.41-.06-3.33-.67-5.23-3.1-.74,2.3-2.67,3.1-6.5,3.1H55.4a2.07,2.07,0,0,1-2.27-2.22"/><path class="cls-2" d="M70.64,31.91a1.89,1.89,0,0,1,1.9-2,1.87,1.87,0,0,1,1.93,2,1.81,1.81,0,0,1-1.93,2,1.84,1.84,0,0,1-1.9-2m-5,11.71a2.1,2.1,0,0,1,2.3-2c2.7,0,3.18-1.4,3.45-3.39L73.91,38c0,.31-.06.54-.06.88,0,1.61.57,2.68,2.79,2.73a2.17,2.17,0,0,1,2.46,2.1c0,1-.42,2.17-2.46,2.17-2.64,0-3.67-1.14-4.2-2.43a4.89,4.89,0,0,1-4.59,2.43,2.05,2.05,0,0,1-2.24-2.24"/><path class="cls-2" d="M85.18,51.4a1.74,1.74,0,0,1-1.82,1.88,1.72,1.72,0,0,1-1.81-1.88,1.82,1.82,0,1,1,3.63,0m-4.44,0a1.85,1.85,0,1,1-3.69,0,1.8,1.8,0,0,1,1.87-1.94,1.77,1.77,0,0,1,1.82,1.94m-6.43-7.77a2.1,2.1,0,0,1,2.31-2c2.7,0,3.18-1.41,3.45-3.4L82.61,38c0,.31-.06.54-.06.89,0,1.62.58,2.68,2.8,2.73a2.16,2.16,0,0,1,2.45,2.09c0,1-.41,2.17-2.45,2.17-2.66,0-3.66-1.13-4.21-2.43a4.88,4.88,0,0,1-4.59,2.43,2.06,2.06,0,0,1-2.24-2.23"/><path class="cls-2" d="M83.07,43.63a2.12,2.12,0,0,1,2.28-2c1.9,0,2.87-.81,2.73-3l-.62-12.24,3.33-.24.58,13c.28,4.74-1.9,6.82-6,6.82a2.09,2.09,0,0,1-2.28-2.22"/><path class="cls-2" d="M109.21,26.39a1.83,1.83,0,1,1,3.65,0,1.83,1.83,0,1,1-3.65,0m-4.49,0a1.82,1.82,0,0,1,1.85-1.94,1.79,1.79,0,0,1,1.84,1.94,1.76,1.76,0,0,1-1.84,1.93,1.79,1.79,0,0,1-1.85-1.93M108,35.93c-2.33.79-3.89,1.92-3.89,3.06,0,.78.64,1.22,1.91,1.22a6.58,6.58,0,0,0,2.18-.44Zm3,2.58c.13,2.54,1.11,3.08,2.87,3.08a2.16,2.16,0,0,1,2.42,2.1c0,1-.4,2.16-2.42,2.16-2.44,0-4.19-.64-5-2.7a6.18,6.18,0,0,1-3.34,1.06c-2.63,0-4.34-1.74-4.34-3.94a6.37,6.37,0,0,1,2.71-5,21.58,21.58,0,0,1,4-2.39l-.06-2,2.87-.28Z"/><path class="cls-2" d="M122.39,51.4a1.74,1.74,0,0,1-1.82,1.88,1.72,1.72,0,0,1-1.81-1.88,1.82,1.82,0,1,1,3.63,0m-4.44,0a1.85,1.85,0,1,1-3.7,0,1.8,1.8,0,0,1,1.88-1.94A1.77,1.77,0,0,1,118,51.4m-6.42-7.77a2.08,2.08,0,0,1,2.3-2c2.7,0,3.18-1.41,3.45-3.4l2.55-.22a6.18,6.18,0,0,0-.07.89c0,1.62.57,2.68,2.8,2.73A2.18,2.18,0,0,1,125,43.69c0,1-.44,2.17-2.46,2.17-2.66,0-3.66-1.13-4.21-2.43a4.91,4.91,0,0,1-4.58,2.43,2.05,2.05,0,0,1-2.24-2.23"/><path class="cls-2" d="M120.23,43.63a2.09,2.09,0,0,1,2.3-2c1.87,0,2.76-.81,2.66-3.69l-.46-11.59,3.27-.24.46,11.85c.11,2.81.86,3.55,2.67,3.67a2.18,2.18,0,0,1,2.44,2.11c0,1-.41,2.15-2.44,2.15a4,4,0,0,1-4-2.42,5.1,5.1,0,0,1-4.63,2.42,2.07,2.07,0,0,1-2.28-2.22"/><path class="cls-2" d="M128.85,43.63a2.08,2.08,0,0,1,2.28-2h.75c2.77,0,4-.43,4-1.13,0-.94-2.45-3.48-6.38-5.66a21.47,21.47,0,0,1,.46-4,2.46,2.46,0,0,1,.85-.67,45.88,45.88,0,0,1,9.88-4l-.89,4a38.11,38.11,0,0,0-7.26,2.75c2.65,1.92,6.23,4.17,6.23,7.87a4.57,4.57,0,0,1-2.14,4,9.38,9.38,0,0,1-5.14,1.13h-.31a2.11,2.11,0,0,1-2.28-2.22"/><path class="cls-2" d="M24.63,58a.81.81,0,1,1,1.61,0,.81.81,0,1,1-1.61,0m-2,0a.79.79,0,0,1,.82-.84.76.76,0,0,1,.81.84.78.78,0,0,1-.81.86.79.79,0,0,1-.82-.86M24.1,62.2c-1,.33-1.73.83-1.73,1.34,0,.34.29.54.86.54a2.51,2.51,0,0,0,.95-.2Zm1.31,1.14c.06,1.12.5,1.35,1.27,1.35a1,1,0,0,1,1.09.94c0,.42-.18.94-1.09.94-1.08,0-1.85-.27-2.23-1.19a2.75,2.75,0,0,1-1.48.47,1.76,1.76,0,0,1-1.91-1.74,2.82,2.82,0,0,1,1.19-2.2,10,10,0,0,1,1.78-1L24,60l1.28-.11Z"/><path class="cls-2" d="M30,69a.77.77,0,0,1-.8.83.84.84,0,0,1,0-1.68A.77.77,0,0,1,30,69m-2,0a.82.82,0,1,1-1.63,0,.79.79,0,0,1,.82-.85A.77.77,0,0,1,28,69M25.7,65.61a.89.89,0,0,1,1-.92H27a2.92,2.92,0,0,0,1.43-.2v-.11a6,6,0,0,0-1-2.56l1.42-.47a7.58,7.58,0,0,1,.89,3.29,3.43,3.43,0,0,1-.22,1.29c-.3.29-.9.64-2.78.64h-.13a.89.89,0,0,1-1-1"/><path class="cls-2" d="M30.83,64.41a7.68,7.68,0,0,0,2.26.28,3.75,3.75,0,0,0,1.5-.25c0-.8-.9-2-2.56-2.84l1.29-1.05a4.83,4.83,0,0,1,2.64,4,4,4,0,0,1-.13,1.06,4.17,4.17,0,0,1-3,.95,3.51,3.51,0,0,1-1.72-.35Z"/><path class="cls-2" d="M40.19,64.69c-.16-1-.65-1.47-1.14-1.47a.66.66,0,0,0-.71.64c0,.36.24.83,1.71.83Zm2.18,0a1,1,0,0,1,1.1.94c0,.43-.17.94-1.08.94h-1a3.9,3.9,0,0,1-3.54,3.14,3,3,0,0,1-2.19-.79l.26-1.2a3.47,3.47,0,0,0,1.7.37A2.46,2.46,0,0,0,40,66.57c-2.28,0-2.88-1.21-2.88-2.41a2.29,2.29,0,0,1,2.14-2.42c.76,0,2.08.56,2.27,2.95Z"/><path class="cls-2" d="M46.66,64.09c.89-.32,1.34-.69,1.34-.92s-.34-.52-1.7-.52a7.2,7.2,0,0,0-1.18.11,3.41,3.41,0,0,0,1.54,1.33M50,64.7a1,1,0,0,1,1.1.94c0,.41-.2.94-1.1.94h-.24a6.83,6.83,0,0,1-3.14-.8,10.73,10.73,0,0,1-4.25.8.94.94,0,1,1,0-1.88h.06A16.27,16.27,0,0,0,45,64.51a7.38,7.38,0,0,1-1.09-1.44l-.69.27L43,62a8,8,0,0,1,3.41-.77c2.56,0,2.87,1,2.87,1.63a2.49,2.49,0,0,1-.84,1.72A8.44,8.44,0,0,0,50,64.7Z"/><path class="cls-2" d="M49,65.63a.88.88,0,0,1,1-.94c1,0,1.43-.29,1.59-1.33l1.24,0c0,.1-.1.29-.13.53-.06.54.07.94.58.94s.81-.2,1-1.27l1.2-.06a4.28,4.28,0,0,0-.07.48c-.07.67.18.85.5.85.64,0,.9-.81,1-1.72l1.15-.1c0,.15,0,.2,0,.45,0,.79.22,1.27,1.21,1.27a1,1,0,0,1,1.09.94c0,.44-.19.94-1.09.94a1.78,1.78,0,0,1-1.86-1,1.77,1.77,0,0,1-1.57,1,1.2,1.2,0,0,1-1.27-.83,1.66,1.66,0,0,1-1.52.83,1.22,1.22,0,0,1-1.25-.83,2.16,2.16,0,0,1-1.82.83.88.88,0,0,1-1-.94"/><path class="cls-2" d="M58.29,65.6a.94.94,0,0,1,1-.91c.84,0,1.28-.34,1.22-1.33L60.24,58l1.47-.1L62,63.56c.12,2.11-.84,3-2.67,3a.92.92,0,0,1-1-1"/></g><polygon class="cls-2" points="63.59 57.95 63.94 66.58 65.41 66.58 65.06 57.86 63.59 57.95"/><g class="cls-3"><path class="cls-2" d="M73.18,58a.81.81,0,1,1,.82.86.77.77,0,0,1-.82-.86m-2,0a.79.79,0,0,1,.82-.84.77.77,0,0,1,.82.84.78.78,0,0,1-.82.86.8.8,0,0,1-.82-.86m1.47,4.23c-1,.33-1.73.83-1.73,1.34,0,.34.29.54.85.54a2.39,2.39,0,0,0,1-.2ZM74,63.34c.07,1.12.5,1.35,1.27,1.35a1,1,0,0,1,1.1.94c0,.42-.19.94-1.1.94A2.08,2.08,0,0,1,73,65.38a2.78,2.78,0,0,1-1.48.47,1.76,1.76,0,0,1-1.92-1.74,2.75,2.75,0,0,1,1.2-2.2,10,10,0,0,1,1.77-1l0-.88,1.3-.11Z"/><path class="cls-2" d="M79,69a.78.78,0,0,1-.8.83A.84.84,0,1,1,79,69m-2,0a.82.82,0,1,1-.82-.85.78.78,0,0,1,.82.85M74.2,65.6a.94.94,0,0,1,1-.91c1.19,0,1.4-.63,1.52-1.49l1.13-.1c0,.13,0,.24,0,.4,0,.71.24,1.18,1.25,1.19a1,1,0,0,1,1.08.94c0,.42-.19.94-1.08.94a1.74,1.74,0,0,1-1.87-1.07,2.18,2.18,0,0,1-2,1.07.9.9,0,0,1-1-1"/><path class="cls-2" d="M81.45,69.07a.79.79,0,0,1-.83.88.81.81,0,0,1-.85-.88.82.82,0,0,1,.85-.89.81.81,0,0,1,.83.89m-3.34-3.46a.89.89,0,0,1,1-.92h.36a2.92,2.92,0,0,0,1.43-.2v-.11a6.21,6.21,0,0,0-1-2.56l1.42-.48a7.72,7.72,0,0,1,.9,3.3A3.61,3.61,0,0,1,82,65.93c-.32.3-.91.65-2.79.65h-.12a.89.89,0,0,1-1-1"/><path class="cls-2" d="M85.75,62.68c.26.45.46.86.64,1.24a1.2,1.2,0,0,0,1.17.77,1,1,0,0,1,1.07.94c0,.41-.18,1-1.07,1a1.39,1.39,0,0,1-.64-.14,3.75,3.75,0,0,1-.07.54A3.26,3.26,0,0,1,84,69.55a2.52,2.52,0,0,1-1.88-.75l.15-1.24a3.8,3.8,0,0,0,1.67.33,1.94,1.94,0,0,0,1.79-1.7,11,11,0,0,0-1.33-2.83Z"/><path class="cls-2" d="M91.82,64.09c.88-.32,1.33-.69,1.33-.92s-.33-.52-1.68-.52a7.1,7.1,0,0,0-1.18.11,3.28,3.28,0,0,0,1.53,1.33m3.36.61a1,1,0,0,1,1.09.94c0,.41-.19.94-1.09.94h-.25a6.79,6.79,0,0,1-3.13-.8,10.71,10.71,0,0,1-4.24.8.94.94,0,1,1,0-1.88h.06a16.33,16.33,0,0,0,2.5-.19A6.67,6.67,0,0,1,89,63.07c-.23.08-.47.17-.69.27L88.15,62a7.81,7.81,0,0,1,3.41-.77c2.54,0,2.87,1,2.87,1.63a2.45,2.45,0,0,1-.84,1.72,8.25,8.25,0,0,0,1.51.12Z"/><path class="cls-2" d="M94.17,65.6a.94.94,0,0,1,1-.91c.84,0,1.28-.34,1.21-1.33L96.11,58l1.46-.1.27,5.71c.11,2.11-.84,3-2.67,3a.92.92,0,0,1-1-1"/></g><polygon class="cls-2" points="99.46 57.95 99.83 66.58 101.28 66.58 100.92 57.86 99.46 57.95"/><g class="cls-3"><path class="cls-2" d="M109.05,58a.78.78,0,0,1,.82-.84.77.77,0,0,1,.8.84.81.81,0,1,1-1.62,0m-2,0a.78.78,0,0,1,.81-.84.76.76,0,0,1,.81.84.78.78,0,0,1-.81.86.79.79,0,0,1-.81-.86m1.45,4.23c-1,.33-1.72.83-1.72,1.34,0,.34.28.54.85.54a2.37,2.37,0,0,0,.94-.2Zm1.31,1.14c.06,1.12.5,1.35,1.27,1.35a1,1,0,0,1,1.07.94c0,.42-.17.94-1.07.94a2.08,2.08,0,0,1-2.23-1.19,2.78,2.78,0,0,1-1.48.47,1.75,1.75,0,0,1-1.91-1.74,2.82,2.82,0,0,1,1.19-2.2,10,10,0,0,1,1.77-1l0-.88,1.26-.11Z"/><path class="cls-2" d="M110.1,65.6a.9.9,0,0,1,1-.91h.39c1.4,0,2-.2,2-.55,0-.17-.06-.3-.36-.68a10.25,10.25,0,0,0-1.8-1.7c0-.19.15-1.55.21-1.75s.09-.18.46-.39a25,25,0,0,1,4.65-1.75l-.39,1.75a25.14,25.14,0,0,0-3.71,1.27A19.91,19.91,0,0,1,115.38,64a1.39,1.39,0,0,0,1.27.67,1,1,0,0,1,1.07.94c0,.42-.17,1-1.07,1-1.06,0-1.48-.29-2.32-1.38-.33,1-1.18,1.38-2.87,1.38h-.35a.92.92,0,0,1-1-1"/><path class="cls-2" d="M115.61,65.6a.93.93,0,0,1,1-.91c.84,0,1.23-.34,1.19-1.63L117.6,58l1.44-.1.21,5.23c.06,1.23.39,1.56,1.18,1.61a1,1,0,0,1,1.08.94c0,.42-.17,1-1.08,1a1.76,1.76,0,0,1-1.76-1.07,2.28,2.28,0,0,1-2,1.07.92.92,0,0,1-1-1"/><path class="cls-2" d="M124.54,64.57a1.14,1.14,0,0,0-1-1.13c-.37,0-.69.2-1,.92a2.94,2.94,0,0,0,1.5.55c.27,0,.45-.06.45-.34m-4.06.12c.44,0,.68-.16,1-.82.62-1.46,1.15-1.95,2.2-1.95a2.29,2.29,0,0,1,2,1.87c.39.88.74.9,1,.9a1,1,0,0,1,1.07.94c0,.41-.17.94-1.07.94a1.45,1.45,0,0,1-1.2-.57,1.61,1.61,0,0,1-1.35.72,4.18,4.18,0,0,1-2.2-.75,1.69,1.69,0,0,1-1.48.6h0c-.48,0-1.08-.21-1.08-.94,0-.41.17-.94,1.08-.94Z"/><path class="cls-2" d="M130.79,64.57a1.14,1.14,0,0,0-1-1.13c-.38,0-.7.2-1,.92a2.85,2.85,0,0,0,1.49.55c.26,0,.44-.06.44-.34m-4.06.12c.45,0,.69-.16,1-.82.63-1.46,1.17-1.95,2.21-1.95a2.31,2.31,0,0,1,2,1.87c.37.88.72.9,1,.9a1,1,0,0,1,1.08.94c0,.41-.18.94-1.08.94a1.51,1.51,0,0,1-1.22-.57,1.52,1.52,0,0,1-1.33.72,4.21,4.21,0,0,1-2.2-.75,1.69,1.69,0,0,1-1.48.6h0a1,1,0,0,1-1.09-.94c0-.41.18-.94,1.09-.94Z"/><path class="cls-2" d="M132,65.6a.94.94,0,0,1,1-.91c.83,0,1.26-.34,1.21-1.33L133.88,58l1.47-.1.27,5.71c.11,2.11-.84,3-2.66,3a.91.91,0,0,1-1-1"/></g><polygon class="cls-2" points="137.24 57.95 137.59 66.58 139.05 66.58 138.71 57.86 137.24 57.95"/><g class="cls-3"><path class="cls-2" d="M151.49,43.36l45.33,38.35,3.54,3a3.34,3.34,0,0,0,3.88.19l14.06-9L225,71.6c2.22-1.41,2.39-4.93.07-6.14L171.81,43.75a3.41,3.41,0,0,1,0-6.08l.12,0,.74-.34c2.14-.86,4.15-1.71,6.06-2.58L209.48,21.6a3.41,3.41,0,0,0,1.33-4.85l0-.05a3.39,3.39,0,0,0-4.31-1.3l-.43.19-53.9,22a3.42,3.42,0,0,0-.65,5.8"/><path class="cls-4" d="M230.4,7.59l-.06-.06a3.19,3.19,0,0,0-4.34,0L150,63.13a3.42,3.42,0,0,0,.67,5.8l43,22,4.11,2.1a3.36,3.36,0,0,0,3.82-.69l11.15-11.46,5.8-6A3.43,3.43,0,0,0,217,69.18l-46.55-4.25a4.8,4.8,0,0,1-2-.49l-.17-.12a3.41,3.41,0,0,1-.23-5.39l.1-.08.67-.48c1.88-1.32,3.64-2.62,5.3-3.89l55.58-42c1.53-1.29,2.1-3.52.69-4.92"/><path class="cls-5" d="M223.81,65.23l-40.73,9.4a3,3,0,0,1-1.08-.11,3,3,0,0,1-1.66-4.44l.07-.1.41-.58c1.22-1.6,2.34-3.17,3.37-4.69L210.38,27.1,195.24,38.54,166.16,79.09a3,3,0,0,0,2.14,4.66L210,90.28l4,.62a3,3,0,0,0,3-1.63l6.46-13.16,3.22-6.56a3,3,0,0,0-2.87-4.32"/></g></g></g></svg>