<svg xmlns="http://www.w3.org/2000/svg" xmlns:xlink="http://www.w3.org/1999/xlink" viewBox="0 0 251.27 109.76"><defs><style>.cls-1{fill:none;}.cls-2{fill:#1e1e1c;}.cls-3{fill:#404040;}.cls-4{fill:#9e9b9c;}.cls-5{clip-path:url(#clip-path);}.cls-6{fill:url(#linear-gradient);}.cls-7{clip-path:url(#clip-path-2);}.cls-8{fill:url(#linear-gradient-2);}.cls-9{clip-path:url(#clip-path-3);}.cls-10{fill:url(#linear-gradient-3);}.cls-11{clip-path:url(#clip-path-4);}.cls-12{fill:url(#linear-gradient-4);}.cls-13{clip-path:url(#clip-path-5);}.cls-14{fill:url(#linear-gradient-5);}.cls-15{clip-path:url(#clip-path-6);}.cls-16{fill:url(#linear-gradient-6);}.cls-17{clip-path:url(#clip-path-7);}.cls-18{fill:url(#linear-gradient-7);}</style><clipPath id="clip-path" transform="translate(0 9.76)"><path class="cls-1" d="M232.56,53.05c-.29,2-2.36,4.25-5.43,6.47-7.41,5.34-20.67,10.56-29.06,12.38.37.38.75.76,1.13,1.12l.77.74c.24.23.48.46.73.68s.48.45.73.66l.49.43.42.35q.78.66,1.59,1.26s.24.18.65.46c.24.17.54.36.89.57l.08,0c2,1.18,5.36,2.77,8.11,1.75l.05,0,0,0,0,0h0l.06,0c5.62-2.26,12.27-8,14.27-11.16,2.35-3.7,4.14-11.5,4.42-15.78,0,0,0,.07,0,.11"/></clipPath><linearGradient id="linear-gradient" x1="2941.39" y1="-2164.36" x2="2942.33" y2="-2164.36" gradientTransform="matrix(0, -90.55, -90.55, 0, -195762.24, 266444.84)" gradientUnits="userSpaceOnUse"><stop offset="0" stop-color="#ddd9d7"/><stop offset="0.13" stop-color="#ddd9d7"/><stop offset="0.17" stop-color="#cac7c5"/><stop offset="0.25" stop-color="#a2a2a1"/><stop offset="0.28" stop-color="#a9a9a9"/><stop offset="0.32" stop-color="#bbb"/><stop offset="0.37" stop-color="#a2a3a3"/><stop offset="0.42" stop-color="#808181"/><stop offset="0.47" stop-color="#898a8a"/><stop offset="0.56" stop-color="#a3a3a3"/><stop offset="0.67" stop-color="#cbcbcb"/><stop offset="0.7" stop-color="#d6d6d6"/><stop offset="0.74" stop-color="#c0c1c1"/><stop offset="0.82" stop-color="#868a8b"/><stop offset="0.9" stop-color="#4d5455"/><stop offset="0.92" stop-color="#6a6f70"/><stop offset="0.97" stop-color="#adaeae"/><stop offset="1" stop-color="#c8c7c7"/></linearGradient><clipPath id="clip-path-2" transform="translate(0 9.76)"><path class="cls-1" d="M171.54,36.37l-.19.3-.09.13a9.27,9.27,0,0,0-1.34,4.12v0c-.09,8.86,6.12,24.32,11.25,30.7a16.82,16.82,0,0,0,5.2,4l.32.16L187,76c7.44,3.45,19.46,5.25,23.75,4.78.12,0,.24,0,.36-.06l.28,0,.25-.05.23-.06.51-.14c.24-.06.45-.14.65-.2l.62-.23c-2.75,1-6.15-.57-8.11-1.75l-.08,0c-.35-.21-.65-.4-.89-.57-.41-.28-.65-.46-.65-.46q-.81-.6-1.59-1.26l-.42-.35-.49-.43c-.24-.21-.49-.43-.73-.66-.51-.45-1-.93-1.5-1.42s-.75-.74-1.13-1.12c-10.93-11.06-18.78-28.84-21.19-40.76a18.65,18.65,0,0,0-5.34,5.23"/></clipPath><linearGradient id="linear-gradient-2" x1="2914.31" y1="-2208.65" x2="2915.25" y2="-2208.65" gradientTransform="matrix(0, 191.79, 191.79, 0, 423779.91, -558899.24)" gradientUnits="userSpaceOnUse"><stop offset="0" stop-color="#4e4d4d"/><stop offset="0.03" stop-color="#4e4d4d"/><stop offset="0.04" stop-color="#636263"/><stop offset="0.06" stop-color="#737374"/><stop offset="0.08" stop-color="#7e7f80"/><stop offset="0.11" stop-color="#858687"/><stop offset="0.18" stop-color="#878889"/><stop offset="0.35" stop-color="#4e4d4d"/><stop offset="0.39" stop-color="#676666"/><stop offset="0.45" stop-color="#858484"/><stop offset="0.52" stop-color="#9d9c9c"/><stop offset="0.59" stop-color="#b0afaf"/><stop offset="0.68" stop-color="#bebdbd"/><stop offset="0.79" stop-color="#c6c5c5"/><stop offset="1" stop-color="#c8c7c7"/></linearGradient><clipPath id="clip-path-3" transform="translate(0 9.76)"><path class="cls-1" d="M169.89,40.65c0-.35.05-.79.1-1.27-.05.48-.08.92-.1,1.27"/></clipPath><linearGradient id="linear-gradient-3" x1="2926.15" y1="-2148.27" x2="2927.08" y2="-2148.27" gradientTransform="matrix(0, -82.25, -82.25, 0, -176517.86, 240766.92)" gradientUnits="userSpaceOnUse"><stop offset="0" stop-color="#ddd9d7"/><stop offset="0.05" stop-color="#a5a5a4"/><stop offset="0.1" stop-color="#757979"/><stop offset="0.14" stop-color="#585e5f"/><stop offset="0.16" stop-color="#4d5455"/><stop offset="0.45" stop-color="#63696b"/><stop offset="0.82" stop-color="#868b8f"/><stop offset="0.84" stop-color="#8b8f93"/><stop offset="0.86" stop-color="#999c9f"/><stop offset="0.88" stop-color="#b0b1b3"/><stop offset="0.9" stop-color="#c8c7c7"/><stop offset="1" stop-color="#c8c7c7"/></linearGradient><clipPath id="clip-path-4" transform="translate(0 9.76)"><path class="cls-1" d="M169.88,41.06v0Zm0-.1a.15.15,0,0,1,0,.07v-.21a.65.65,0,0,0,0,.14"/></clipPath><linearGradient id="linear-gradient-4" x1="2926.14" y1="-2148.27" x2="2927.08" y2="-2148.27" gradientTransform="matrix(0, -82.25, -82.25, 0, -176519.43, 240761.8)" gradientUnits="userSpaceOnUse"><stop offset="0" stop-color="#ddd9d7"/><stop offset="0.05" stop-color="#a5a5a4"/><stop offset="0.1" stop-color="#757979"/><stop offset="0.14" stop-color="#585e5f"/><stop offset="0.16" stop-color="#4d5455"/><stop offset="0.22" stop-color="#5a6061"/><stop offset="0.34" stop-color="#7b8081"/><stop offset="0.49" stop-color="#b2b4b4"/><stop offset="0.59" stop-color="#d6d7d7"/><stop offset="0.66" stop-color="#d3d5d5"/><stop offset="0.71" stop-color="#cbcdcd"/><stop offset="0.75" stop-color="#bdbfc0"/><stop offset="0.78" stop-color="#a8acae"/><stop offset="0.81" stop-color="#8e9396"/><stop offset="0.82" stop-color="#868b8f"/><stop offset="0.84" stop-color="#8b8f93"/><stop offset="0.86" stop-color="#999c9f"/><stop offset="0.88" stop-color="#b0b1b3"/><stop offset="0.9" stop-color="#c8c7c7"/><stop offset="0.92" stop-color="#c2c2c2"/><stop offset="0.95" stop-color="#b2b3b4"/><stop offset="0.98" stop-color="#979a9d"/><stop offset="1" stop-color="#868b8f"/></linearGradient><clipPath id="clip-path-5" transform="translate(0 9.76)"><path class="cls-1" d="M170,39.36v0s0,0,0,0Z"/></clipPath><linearGradient id="linear-gradient-5" x1="2926.14" y1="-2148.27" x2="2927.08" y2="-2148.27" gradientTransform="matrix(-0.01, -82.25, -82.25, 0.01, -176490.73, 240781.84)" xlink:href="#linear-gradient-4"/><clipPath id="clip-path-6" transform="translate(0 9.76)"><path class="cls-1" d="M232.54,53.05a.45.45,0,0,0,0-.11v-.06a1,1,0,0,0,0,.17"/></clipPath><linearGradient id="linear-gradient-6" x1="2926.14" y1="-2148.25" x2="2927.08" y2="-2148.25" gradientTransform="matrix(0, -82.25, -82.25, 0, -176442.93, 240722.82)" xlink:href="#linear-gradient-4"/><clipPath id="clip-path-7" transform="translate(0 9.76)"><path class="cls-1" d="M170,39.08v0a1.1,1.1,0,0,0,0,.18s0,0,0,.05h0s0,0,0,0c-.05.48-.08.92-.1,1.27v.27a9.2,9.2,0,0,1,1.35-4.12s.06-.09.08-.14a2.9,2.9,0,0,0,.19-.29,18.53,18.53,0,0,1,5.34-5.23A12.56,12.56,0,0,1,184.47,29c9.72.71,17.15,14.62,28.72,23a55.93,55.93,0,0,0,13.91,7.51c3.08-2.22,5.15-4.46,5.44-6.47a1,1,0,0,1,0-.17v.06s0,0,0-.06c.12-1.94-1.05-3.14-3.16-4.5h0c-3.26-2.1-8.44-4.62-14.86-10.54-7.48-6.91-15.72-18.4-25.36-18.66h-.24c-7.91,0-17.53,10.61-18.9,19.91"/></clipPath><linearGradient id="linear-gradient-7" x1="2921.47" y1="-2154.65" x2="2922.4" y2="-2154.65" gradientTransform="matrix(0, -98.97, -98.97, 0, -213045.13, 289212.58)" gradientUnits="userSpaceOnUse"><stop offset="0" stop-color="#676767"/><stop offset="0.03" stop-color="#676767"/><stop offset="0.08" stop-color="#7b7b7a"/><stop offset="0.16" stop-color="#909090"/><stop offset="0.23" stop-color="#9e9e9d"/><stop offset="0.29" stop-color="#a2a2a1"/><stop offset="0.35" stop-color="#989897"/><stop offset="0.45" stop-color="#7d7d7c"/><stop offset="0.52" stop-color="#676767"/><stop offset="0.57" stop-color="#898989"/><stop offset="0.63" stop-color="#adadad"/><stop offset="0.67" stop-color="#bbb"/><stop offset="0.71" stop-color="#b9b9b9"/><stop offset="0.73" stop-color="#b2b3b4"/><stop offset="0.74" stop-color="#a6a8aa"/><stop offset="0.75" stop-color="#95999c"/><stop offset="0.76" stop-color="#868b8f"/><stop offset="0.79" stop-color="#8b8f93"/><stop offset="0.83" stop-color="#999c9f"/><stop offset="0.87" stop-color="#b0b1b3"/><stop offset="0.9" stop-color="#c8c7c7"/><stop offset="0.92" stop-color="#c2c2c2"/><stop offset="0.95" stop-color="#b2b3b4"/><stop offset="0.98" stop-color="#979a9d"/><stop offset="1" stop-color="#868b8f"/></linearGradient></defs><g id="Layer_2" data-name="Layer 2"><g id="Layer_1-2" data-name="Layer 1"><rect class="cls-1" y="9.76" width="248.68" height="100"/><polygon class="cls-2" points="19.36 39.77 20.32 38.75 21.33 39.77 21.5 39.77 22.66 38.55 21.44 37.35 21.29 37.35 20.32 38.34 19.31 37.35 19.16 37.35 17.98 38.55 19.19 39.77 19.36 39.77"/><path class="cls-2" d="M18.6,38.9a3.44,3.44,0,0,0,1.77-.49c.12-.4.19-.79.27-1.16h0v0c.3,2.07,1,2.92,2.74,2.92H55.87a23.65,23.65,0,0,0,6.31-1l1.49-.43.47-1.91-.09-.07-1.48.37c-2.38.6-4.81-.19-4.81-1.63,0-1.16,1.2-1.68,2.36-1.68a4.83,4.83,0,0,1,2.88.91l.36-.43C62.63,32.79,61.69,32,60.47,32c-1.76,0-3.4,1.93-3.4,4a3,3,0,0,0,1,2.24c-.61.06-1.34.08-2.15.08H23.82c-1.46,0-1.84-.56-2-2.25l-.58-5h-.53l-.61,1.55-1.54,1.07c-1.74,1.18-2.42,2-2.42,3.15s1,2.08,2.5,2.08M18.11,35l2.1-1,.37,2.58a4.54,4.54,0,0,1-2,.38c-1.05,0-1.75-.27-1.75-.72s.42-.8,1.26-1.21" transform="translate(0 9.76)"/><path class="cls-2" d="M69.76,40.19H83.7a3.39,3.39,0,0,0,1.92-.69,10.67,10.67,0,0,0,.29-1h0c.24,1,1.25,1.72,2.75,1.73h4v0a3,3,0,0,0,2.1-1,8.24,8.24,0,0,0,4.53,1.3,13.81,13.81,0,0,0,5.27-.92,6.23,6.23,0,0,0,2.82.62h0a6.28,6.28,0,0,0,3.22-.9,6.83,6.83,0,0,0,.51-2.62V29.51l.91-.71v-.05l-.91-1.15V26.22h-.53c-1.2.8-1.46,1.74-.84,2.73l.28,8.9a6.49,6.49,0,0,1-2.25.41,14.07,14.07,0,0,1-1.72-.13,5.57,5.57,0,0,0,.41-2,3,3,0,0,0-3-3c-2,0-3.88,1.54-6.35,5.17A7.15,7.15,0,0,1,96,37.77l.9-1.33-.49-.35-.62.84a3.09,3.09,0,0,1-2.92,1.33h-3.7c-1.63,0-2.16-.34-2.16-1.48V35.09h-.6l-.45,2.72a4.25,4.25,0,0,1-2.15.45H70.17c-1.61,0-2.17-.43-2.17-1.65V26.22h-.6L66.5,28l.24,8.61c.08,2.62.87,3.54,3,3.54m33-5.17a3.38,3.38,0,0,1,3,2.36,16.44,16.44,0,0,1-6.37,1.2A8.25,8.25,0,0,1,98,38.43c1.86-2.38,3.24-3.41,4.81-3.41" transform="translate(0 9.76)"/><polygon class="cls-2" points="86.76 43.43 87.92 42.22 86.7 41.02 86.55 41.02 85.37 42.22 86.59 43.43 86.76 43.43"/><polygon class="cls-2" points="115.36 49.95 115.94 47.82 115.94 35.98 115.34 35.98 114.45 37.8 114.76 49.95 115.36 49.95"/><polygon class="cls-2" points="123.68 41.39 124.63 40.38 125.64 41.39 125.81 41.39 126.97 40.18 125.75 38.98 125.61 38.98 124.63 39.97 123.62 38.98 123.47 38.98 122.29 40.18 123.51 41.39 123.68 41.39"/><path class="cls-2" d="M124.54,40.49c1.85,0,3-1.37,3-3.47,0-1.83-.88-3-4.2-4.42l-.07.06v1.91a5.48,5.48,0,0,0-1.46,3.35,2.47,2.47,0,0,0,2.77,2.57m-.55-5.4c2.05.9,2.79,1.67,2.79,2.31s-.8,1.16-2.15,1.16-2.15-.45-2.15-1.18A3.57,3.57,0,0,1,124,35.09" transform="translate(0 9.76)"/><path class="cls-2" d="M127.48,42.94v.6L131,44.68a11.6,11.6,0,0,0,2.65-6.83,8,8,0,0,0-1.35-4.09h-.53l-.65,1.63c1.35,1.65,1.79,2.48,1.79,3.5,0,1.73-2,3.19-5.44,4" transform="translate(0 9.76)"/><polygon class="cls-2" points="136.93 49.95 137.51 47.82 137.51 35.98 136.91 35.98 136.01 37.8 136.33 49.95 136.93 49.95"/><path class="cls-2" d="M143.56,37.85a8,8,0,0,0-1.35-4.09h-.52L141,35.39c1.35,1.65,1.8,2.48,1.8,3.51,0,1.72-2,3.18-5.45,4v.6l3.54,1.14a11.65,11.65,0,0,0,2.64-6.83" transform="translate(0 9.76)"/><polygon class="cls-2" points="141.8 42.1 142.96 40.89 141.74 39.69 141.59 39.69 140.41 40.89 141.63 42.1 141.8 42.1"/><path class="cls-2" d="M151.12,37.66c0-2.51-1.25-4.57-2.81-4.57-1.36,0-2.79,2-2.79,3.89a2.29,2.29,0,0,0,2.48,2.5,3.56,3.56,0,0,0,1.74-.4l.54-1.4a3.64,3.64,0,0,1,.11.93c0,2.14-2.28,3.64-6.27,4.33v.6l3.52,1.14a10.32,10.32,0,0,0,3.48-7m-3-.11c-1.21,0-1.92-.28-1.92-1A1.62,1.62,0,0,1,147.79,35c1,0,1.93,1,2.36,2.29a6.44,6.44,0,0,1-2,.28" transform="translate(0 9.76)"/><polygon class="cls-2" points="21.29 58.66 20.32 59.66 19.31 58.66 19.16 58.66 17.98 59.86 19.19 61.08 19.36 61.08 20.32 60.07 21.33 61.08 21.5 61.08 22.66 59.86 21.44 58.66 21.29 58.66"/><polygon class="cls-2" points="43.55 72.95 43.4 72.95 42.43 73.94 41.41 72.95 41.27 72.95 40.09 74.15 41.3 75.36 41.47 75.36 42.43 74.35 43.44 75.36 43.61 75.36 44.77 74.15 43.55 72.95"/><path class="cls-2" d="M52.57,61.5h3.72a7.67,7.67,0,0,0,3.43-.85A7.19,7.19,0,0,0,60.21,58a5.68,5.68,0,0,0-.9-2.9h-.52l-.66,1.63A6.77,6.77,0,0,1,59.52,59a8.15,8.15,0,0,1-3.17.56H45.24c-1.63,0-2.16-.33-2.16-1.48V56.41h-.6L42,59.12a4.25,4.25,0,0,1-2.15.45H23.82c-1.46,0-1.84-.56-2-2.24l-.58-5h-.53l-.61,1.56L18.52,55c-1.74,1.17-2.42,2-2.42,3.14s1,2.08,2.49,2.08a3.45,3.45,0,0,0,1.78-.49c.12-.39.19-.78.27-1.16h0v0c.3,2.08,1,2.92,2.74,2.92H39.82a3.32,3.32,0,0,0,1.91-.68c.13-.36.21-.69.3-1h0c.24,1,1.25,1.71,2.75,1.72h7.75Zm-34-3.22c-1,0-1.74-.26-1.74-.71s.42-.81,1.26-1.22l2.09-1,.38,2.59a4.56,4.56,0,0,1-2,.37" transform="translate(0 9.76)"/><polygon class="cls-2" points="57.55 62.2 58.77 63.42 58.94 63.42 60.1 62.2 58.88 61 58.73 61 57.55 62.2"/><path class="cls-2" d="M98.91,47.53h-.53c-1.19.81-1.46,1.74-.84,2.74l.28,8.89a6.48,6.48,0,0,1-2.24.41,1.9,1.9,0,0,1-2-1.18l-.41-.8c-.75-1.43-1.26-1.86-2.06-1.86-1.24,0-2.4,1.48-2.79,3.41a3.71,3.71,0,0,1-1.8.43,4.36,4.36,0,0,1-3-.9c1-.8,1.38-1.4,1.38-2,0-1.08-.86-1.68-2.23-1.68a5.13,5.13,0,0,0-2.37.67l-.58,1.59.22.49a2.13,2.13,0,0,1,1.84,1l.05.1a6.7,6.7,0,0,1-3.24.8H71.26c-1.43,0-2.12-.67-2.85-2.79l-1.37-4h-.5l-.66,1.63,1.33,3.28c.23.54.43,1,.64,1.42a4.68,4.68,0,0,1-2.62.71c-1.69,0-2.14-.3-2.21-1.46l0-.3h-.56a6.87,6.87,0,0,0-.26,1.58c0,1.4.82,2.09,2.65,2.09a4.63,4.63,0,0,0,2.94-1A9.85,9.85,0,0,0,68,59.63h.07c.78,1.37,1.56,1.86,2.7,1.87h7.76a6.46,6.46,0,0,0,3.94-1.92,4.36,4.36,0,0,0,3.63,1.93h0a3.71,3.71,0,0,0,2.21-.8A15.54,15.54,0,0,0,92.62,62a14.13,14.13,0,0,0,.47-1.43,2.37,2.37,0,0,0,2.07.9h0a6.26,6.26,0,0,0,3.24-.9A6.8,6.8,0,0,0,98.91,58V50.83l.92-.71v-.06l-.92-1.14ZM89.06,59a1.74,1.74,0,0,1,1.54-1.38c.54,0,1,.32,1.46,1.25l.43.81a4,4,0,0,0,.28.46A15.34,15.34,0,0,1,89.06,59" transform="translate(0 9.76)"/><polygon class="cls-2" points="103.05 71.27 103.63 69.13 103.63 57.3 103.03 57.3 102.13 59.11 102.45 71.27 103.05 71.27"/><path class="cls-2" d="M112.22,61.8c1.85,0,3-1.37,3-3.46,0-1.84-.88-3-4.2-4.42l-.07,0v1.91a5.5,5.5,0,0,0-1.46,3.36,2.47,2.47,0,0,0,2.77,2.56m-.54-5.39c2,.9,2.79,1.66,2.79,2.3s-.81,1.16-2.16,1.16-2.15-.45-2.15-1.18a3.54,3.54,0,0,1,1.52-2.28" transform="translate(0 9.76)"/><polygon class="cls-2" points="111.15 60.29 109.97 61.49 111.19 62.71 111.36 62.71 112.31 61.7 113.32 62.71 113.49 62.71 114.65 61.49 113.44 60.29 113.29 60.29 112.31 61.28 111.3 60.29 111.15 60.29"/><path class="cls-2" d="M119.91,54.4c-1.36,0-2.79,2-2.79,3.9a2.28,2.28,0,0,0,2.48,2.49,3.55,3.55,0,0,0,1.74-.39l.54-1.41a3.67,3.67,0,0,1,.11.94c0,2.13-2.28,3.63-6.27,4.32v.6L119.24,66a10.28,10.28,0,0,0,3.48-7c0-2.51-1.25-4.57-2.81-4.57m-.15,4.46c-1.21,0-1.92-.28-1.92-1a1.62,1.62,0,0,1,1.55-1.61c1,0,1.93,1,2.36,2.28a6.11,6.11,0,0,1-2,.28" transform="translate(0 9.76)"/><polygon class="cls-2" points="132.05 60.44 133.15 59.32 132.01 58.2 131.86 58.2 130.75 59.32 131.9 60.44 132.05 60.44"/><polygon class="cls-2" points="132.96 60.33 131.99 61.32 130.98 60.33 130.83 60.33 129.65 61.53 130.87 62.75 131.03 62.75 131.99 61.73 133 62.75 133.17 62.75 134.33 61.53 133.11 60.33 132.96 60.33"/><path class="cls-2" d="M134.7,61.5h0a6.17,6.17,0,0,0,3.21-.9,6.8,6.8,0,0,0,.51-2.62V50.83l.92-.71v-.06l-.92-1.14V47.53h-.52c-1.2.81-1.46,1.74-.85,2.74l.28,8.89a6.43,6.43,0,0,1-2.24.41c-1.44,0-1.95-.56-2.23-2.24l-.47-2.93h-.5l-.25.68c-.54,1.59-1.21,2-2,2a2.81,2.81,0,0,1-2.12-1.35H127l-.66,1.65c1.22,1.14,1.8,2.06,1.8,2.89,0,1.68-2,3.14-5.45,4v.6L126.26,66a11.56,11.56,0,0,0,2.64-6.83V59a3,3,0,0,0,.53,0c1,0,1.77-.67,2.13-2.17l.2,1.18c.49,2.65,1.14,3.47,2.93,3.48h0" transform="translate(0 9.76)"/><polygon class="cls-2" points="143.15 69.13 143.15 57.3 142.55 57.3 141.65 59.11 141.97 71.27 142.57 71.27 143.15 69.13"/><path class="cls-2" d="M144.33,64.25v.6L147.85,66a10.28,10.28,0,0,0,3.48-7c0-2.51-1.25-4.57-2.81-4.57-1.37,0-2.79,2-2.79,3.9a2.28,2.28,0,0,0,2.47,2.49,3.52,3.52,0,0,0,1.74-.39l.55-1.41a4.17,4.17,0,0,1,.11.94c0,2.13-2.28,3.63-6.27,4.32m4-5.39c-1.22,0-1.93-.28-1.93-1A1.63,1.63,0,0,1,148,56.3c.95,0,1.93,1,2.36,2.28a6.15,6.15,0,0,1-2,.28" transform="translate(0 9.76)"/><polygon class="cls-2" points="21.55 80.44 22.15 80.27 22.15 80.01 20.53 80.01 20.49 80.35 19.24 83.42 17.73 80.01 16.16 80.01 16.16 80.27 16.77 80.44 16.74 84.35 16.14 84.52 16.14 84.78 17.98 84.78 17.98 84.52 17.17 84.26 17.18 80.66 18.73 84.12 18.88 84.56 19.16 84.56 19.31 84.11 20.79 80.57 20.77 84.36 20.14 84.51 20.14 84.78 22.17 84.78 22.17 84.52 21.57 84.36 21.55 80.44"/><polygon class="cls-2" points="23.77 81.28 22.64 81.5 22.64 81.78 23.07 81.92 23.07 84.36 22.59 84.51 22.59 84.78 24.29 84.78 24.29 84.51 23.77 84.36 23.77 81.28"/><path class="cls-2" d="M23.86,70.12a.48.48,0,1,0-.48.48.48.48,0,0,0,.48-.48" transform="translate(0 9.76)"/><path class="cls-2" d="M28,72.72c0-.91-.32-1.21-1-1.21a1.72,1.72,0,0,0-1.17.65h0l-.15-.65h0l-1,.35v.22l.48.11V74.6l-.45.14V75h1.62v-.27l-.47-.13V72.4a1.25,1.25,0,0,1,.81-.36c.47,0,.64.27.66.77v1.8l-.4.13V75h1.57v-.26L28,74.61Z" transform="translate(0 9.76)"/><polygon class="cls-2" points="29.99 81.28 28.87 81.5 28.87 81.78 29.3 81.92 29.3 84.36 28.82 84.51 28.82 84.78 30.51 84.78 30.51 84.51 29.99 84.36 29.99 81.28"/><path class="cls-2" d="M30.09,70.12a.48.48,0,1,0-.48.48.48.48,0,0,0,.48-.48" transform="translate(0 9.76)"/><path class="cls-2" d="M32.63,73.06l-.33-.14c-.43-.19-.56-.36-.56-.64a.49.49,0,0,1,.53-.48.75.75,0,0,1,.49.18l.29.64h.23l0-.89a2,2,0,0,0-.9-.22,1.17,1.17,0,0,0-1.28,1c0,.46.23.72.74,1l.31.14c.52.23.67.44.67.71a.53.53,0,0,1-.6.52.86.86,0,0,1-.59-.21l-.37-.81H31l.12,1a2.06,2.06,0,0,0,1,.28,1.29,1.29,0,0,0,1.39-1.09c0-.41-.21-.72-.85-1" transform="translate(0 9.76)"/><path class="cls-2" d="M35.53,74.6c-.27,0-.49,0-.49-.6V72H36v-.4H35v-1h-.26l-.4.89-.52.14V72h.5l0,2.31c0,.46.16.81.75.81a1.85,1.85,0,0,0,1-.33l0-.21a4.27,4.27,0,0,1-.5,0" transform="translate(0 9.76)"/><path class="cls-2" d="M38.48,71.51c-.27,0-.45.17-.71.52l-.26.35h0l-.07-.87h0l-1,.35v.24l.47.09v2.4l-.44.15V75h1.79v-.27l-.64-.12v-2A2.47,2.47,0,0,1,38,72.2l.59.22a.79.79,0,0,0,.26-.53.34.34,0,0,0-.38-.38" transform="translate(0 9.76)"/><path class="cls-2" d="M41.34,71.86l.49.17-.89,2.4h0L40.06,72l.51-.13v-.25H38.93v.25l.33.13,1.3,3.38-.4.92h0a.44.44,0,0,0-.39-.29.37.37,0,0,0-.38.4.46.46,0,0,0,.48.45c.39,0,.57-.29.81-.91L42.23,72l.33-.14v-.25H41.34Z" transform="translate(0 9.76)"/><path class="cls-2" d="M45.88,71.51a1.77,1.77,0,0,0-1.7,1.87,1.64,1.64,0,0,0,1.7,1.75,1.77,1.77,0,0,0,1.71-1.89,1.6,1.6,0,0,0-1.71-1.73m.1,3.28c-.71,0-1-.82-1-1.62s.3-1.32.86-1.33,1,.58,1,1.6c0,.76-.31,1.34-.85,1.35" transform="translate(0 9.76)"/><path class="cls-2" d="M50.11,69.65a1.77,1.77,0,0,0-1.57,1.86v0l-.51.15V72h.51V74.6l-.45.14V75h1.8v-.27l-.65-.14V72h1v-.39h-1v-.56c0-.79.33-1.07.72-1.07a.59.59,0,0,1,.32.08l.18.62a.53.53,0,0,0,.19,0,.38.38,0,0,0,.4-.4c0-.33-.35-.67-.94-.67" transform="translate(0 9.76)"/><polygon class="cls-2" points="53.48 80.44 54.09 80.27 54.09 80.01 52.08 80.01 52.08 80.27 52.69 80.44 52.69 84.36 52.08 84.51 52.08 84.78 54.1 84.78 54.1 84.52 53.48 84.36 53.48 80.44"/><path class="cls-2" d="M57.89,72.72c0-.91-.32-1.21-1-1.21a1.72,1.72,0,0,0-1.18.65h0l-.16-.65h0l-1,.35v.22l.48.11V74.6l-.45.14V75h1.62v-.27l-.47-.13V72.4a1.22,1.22,0,0,1,.81-.36c.47,0,.63.27.65.77v1.8l-.4.13V75h1.58v-.26l-.47-.14Z" transform="translate(0 9.76)"/><path class="cls-2" d="M61.9,69.66l-1.38.18v.25l.67.14v1.36a2.09,2.09,0,0,0-.59-.08,1.84,1.84,0,0,0-1.82,2,1.48,1.48,0,0,0,1.44,1.64,1.39,1.39,0,0,0,1-.52l.18.49,1-.14v-.25l-.56-.15Zm-.71,4.76a1,1,0,0,1-.55.17c-.86,0-1.16-.74-1.16-1.48s.43-1.26,1-1.26a.93.93,0,0,1,.76.46Z" transform="translate(0 9.76)"/><path class="cls-2" d="M66.08,71.55l-1.27.13V72l.56.12V74.3a1.07,1.07,0,0,1-.71.3c-.48,0-.71-.26-.72-.84V71.53l-1.2.13v.28l.49.13v1.81c0,.83.37,1.25,1,1.25a1.59,1.59,0,0,0,1.19-.6l.23.59,1-.16V74.7l-.57-.14Z" transform="translate(0 9.76)"/><path class="cls-2" d="M68.7,73.06l-.32-.14c-.43-.19-.57-.36-.57-.64a.49.49,0,0,1,.53-.48.75.75,0,0,1,.49.18l.3.64h.23l0-.89a2.06,2.06,0,0,0-.91-.22,1.17,1.17,0,0,0-1.28,1c0,.46.23.72.75,1l.31.14c.51.23.67.44.67.71a.54.54,0,0,1-.6.52.86.86,0,0,1-.59-.21l-.37-.81h-.26l.12,1a2.05,2.05,0,0,0,1,.28,1.28,1.28,0,0,0,1.39-1.09c0-.41-.21-.72-.85-1" transform="translate(0 9.76)"/><path class="cls-2" d="M71.61,74.6c-.28,0-.49,0-.49-.6V72H72v-.4H71.1v-1h-.26l-.4.89-.52.14V72h.51l0,2.31c0,.46.17.81.75.81a1.9,1.9,0,0,0,1-.33l-.06-.21a4,4,0,0,1-.49,0" transform="translate(0 9.76)"/><path class="cls-2" d="M74.55,71.51c-.26,0-.44.17-.7.52l-.27.35h0l-.07-.87h0l-1,.35v.24l.48.09v2.4l-.45.15V75h1.79v-.27l-.64-.12v-2a2.47,2.47,0,0,1,.48-.46l.6.22a.84.84,0,0,0,.26-.53.35.35,0,0,0-.39-.38" transform="translate(0 9.76)"/><path class="cls-2" d="M77.41,71.86l.49.17L77,74.43h0L76.13,72l.52-.13v-.25H75v.25l.33.13,1.3,3.38-.39.92h0a.44.44,0,0,0-.38-.29.38.38,0,0,0-.39.4.46.46,0,0,0,.48.45c.4,0,.57-.29.81-.91L78.31,72l.33-.14v-.25H77.41Z" transform="translate(0 9.76)"/><path class="cls-2" d="M83,74.48V72.6c0-.74-.31-1.09-1.07-1.09s-1.43.53-1.43.88.12.33.36.33a1.38,1.38,0,0,0,.32,0l0-.72a.81.81,0,0,1,.42-.12c.4,0,.64.27.66.84V73l-.75.2c-.72.18-1.15.44-1.15,1a.86.86,0,0,0,.88.87c.47,0,.66-.23,1-.59h0a.53.53,0,0,0,.55.57,2.32,2.32,0,0,0,.73-.19v-.22h-.33c-.21,0-.26,0-.26-.21m-.71-.23a.71.71,0,0,1-.59.34.52.52,0,0,1-.57-.54c0-.29.2-.43.55-.56l.61-.2Z" transform="translate(0 9.76)"/><path class="cls-2" d="M87.21,72.72c0-.91-.32-1.21-1-1.21a1.72,1.72,0,0,0-1.18.65h0l-.16-.65h0l-1,.35v.22l.48.11V74.6l-.45.14V75h1.62v-.27L85,74.61V72.4a1.22,1.22,0,0,1,.81-.36c.47,0,.63.27.65.77v1.8l-.4.13V75h1.58v-.26l-.47-.14Z" transform="translate(0 9.76)"/><path class="cls-2" d="M91.22,69.66l-1.38.18v.25l.67.14v1.36a2.09,2.09,0,0,0-.59-.08,1.84,1.84,0,0,0-1.82,2,1.48,1.48,0,0,0,1.44,1.64,1.39,1.39,0,0,0,1-.52l.18.49,1-.14v-.25l-.56-.15Zm-.71,4.76a1,1,0,0,1-.56.17c-.85,0-1.15-.74-1.15-1.48s.43-1.26,1-1.26a.93.93,0,0,1,.76.46Z" transform="translate(0 9.76)"/><polygon class="cls-2" points="99.08 80.44 99.68 80.27 99.68 80.01 98.06 80.01 98.02 80.35 96.77 83.42 95.26 80.01 93.69 80.01 93.69 80.27 94.3 80.44 94.27 84.35 93.67 84.52 93.67 84.78 95.51 84.78 95.51 84.52 94.7 84.26 94.7 80.66 96.26 84.12 96.41 84.56 96.69 84.56 96.84 84.11 98.32 80.57 98.3 84.36 97.67 84.51 97.67 84.78 99.7 84.78 99.7 84.52 99.1 84.36 99.08 80.44"/><path class="cls-2" d="M100.43,70.12a.48.48,0,0,0,.48.48.48.48,0,1,0-.48-.48" transform="translate(0 9.76)"/><polygon class="cls-2" points="101.3 81.28 100.17 81.5 100.17 81.78 100.6 81.92 100.6 84.36 100.12 84.51 100.12 84.78 101.82 84.78 101.82 84.51 101.3 84.36 101.3 81.28"/><path class="cls-2" d="M105.51,72.72c0-.91-.32-1.21-1-1.21a1.72,1.72,0,0,0-1.17.65h0l-.15-.65h0l-1,.35v.22l.47.11V74.6l-.45.14V75h1.62v-.27l-.46-.13V72.4a1.19,1.19,0,0,1,.8-.36c.47,0,.64.27.66.77v1.8l-.4.13V75H106v-.26l-.47-.14Z" transform="translate(0 9.76)"/><path class="cls-2" d="M108.31,74.53c-.73,0-1.25-.53-1.25-1.45h2.37c0-1-.47-1.57-1.31-1.57a1.79,1.79,0,0,0-1.72,1.93,1.58,1.58,0,0,0,3,.69l-.15-.1a1.38,1.38,0,0,1-1,.5M108,71.86c.46,0,.67.43.68.91h-1.55a1,1,0,0,1,.87-.91" transform="translate(0 9.76)"/><path class="cls-2" d="M112.11,71.51c-.27,0-.44.17-.7.52l-.27.35h0l-.06-.87h0l-1,.35v.24l.48.09v2.4l-.45.15V75h1.79v-.27l-.64-.12v-2a2.47,2.47,0,0,1,.48-.46l.6.22a.84.84,0,0,0,.26-.53.35.35,0,0,0-.39-.38" transform="translate(0 9.76)"/><path class="cls-2" d="M115.4,74.48V72.6c0-.74-.31-1.09-1.08-1.09s-1.43.53-1.43.88a.31.31,0,0,0,.36.33,1.3,1.3,0,0,0,.32,0l0-.72a.82.82,0,0,1,.43-.12c.39,0,.63.27.66.84V73l-.75.2c-.73.18-1.15.44-1.15,1a.85.85,0,0,0,.88.87c.47,0,.65-.23,1-.59h0a.52.52,0,0,0,.55.57,2.32,2.32,0,0,0,.73-.19v-.22h-.34c-.21,0-.25,0-.25-.21m-.71-.23a.73.73,0,0,1-.6.34.53.53,0,0,1-.57-.54c0-.29.2-.43.56-.56l.61-.2Z" transform="translate(0 9.76)"/><polygon class="cls-2" points="117.47 79.42 116.3 79.66 116.3 79.91 116.77 80.05 116.77 84.36 116.31 84.51 116.31 84.78 117.96 84.78 117.96 84.51 117.47 84.37 117.47 79.42"/><path class="cls-2" d="M122.59,72.66h0c.62-.22,1.06-.6,1.06-1.23s-.7-1.21-2.05-1.19l-1.73,0v.25l.61.18v3.91l-.61.15V75h2v-.26l-.59-.16v-1.7l.58,0,.31.46L123.34,75h1.23v-.26L124,74.6Zm-.78-.08h-.55V70.5c1,0,1.57.39,1.57,1.07a1.06,1.06,0,0,1-1,1" transform="translate(0 9.76)"/><path class="cls-2" d="M126.52,74.53c-.74,0-1.25-.53-1.25-1.45h2.37c0-1-.47-1.57-1.31-1.57a1.79,1.79,0,0,0-1.72,1.93,1.58,1.58,0,0,0,3,.69l-.14-.1a1.38,1.38,0,0,1-1,.5m-.35-2.67c.46,0,.67.43.68.91H125.3a1,1,0,0,1,.87-.91" transform="translate(0 9.76)"/><path class="cls-2" d="M129.92,73.06l-.33-.14c-.43-.19-.56-.36-.56-.64a.49.49,0,0,1,.53-.48A.7.7,0,0,1,130,72l.3.64h.23l0-.89a2,2,0,0,0-.9-.22,1.17,1.17,0,0,0-1.28,1c0,.46.23.72.74,1l.31.14c.52.23.67.44.67.71a.53.53,0,0,1-.6.52.86.86,0,0,1-.59-.21l-.37-.81h-.26l.12,1a2.06,2.06,0,0,0,1,.28,1.29,1.29,0,0,0,1.39-1.09c0-.41-.21-.72-.85-1" transform="translate(0 9.76)"/><path class="cls-2" d="M133.05,71.51a1.77,1.77,0,0,0-1.7,1.87,1.64,1.64,0,0,0,1.7,1.75,1.77,1.77,0,0,0,1.71-1.89,1.6,1.6,0,0,0-1.71-1.73m.1,3.28c-.71,0-1-.82-1.05-1.62s.31-1.32.86-1.33,1,.58,1,1.6c0,.76-.3,1.34-.85,1.35" transform="translate(0 9.76)"/><path class="cls-2" d="M138.45,71.55l-1.28.13V72l.56.12V74.3a1,1,0,0,1-.71.3c-.47,0-.7-.26-.72-.84V71.53l-1.2.13v.28l.5.13v1.81c0,.83.37,1.25,1,1.25a1.58,1.58,0,0,0,1.18-.6l.24.59,1-.16V74.7l-.56-.14Z" transform="translate(0 9.76)"/><path class="cls-2" d="M141.39,71.51c-.26,0-.44.17-.7.52l-.27.35h0l-.07-.87h0l-1,.35v.24l.48.09v2.4l-.45.15V75h1.79v-.27l-.64-.12v-2a2.48,2.48,0,0,1,.49-.46l.59.22a.84.84,0,0,0,.26-.53.35.35,0,0,0-.39-.38" transform="translate(0 9.76)"/><path class="cls-2" d="M144,74.56a1.31,1.31,0,0,1-1.22-1.45c0-.7.4-1.27,1-1.27a.63.63,0,0,1,.4.11l.1.7a2,2,0,0,0,.27,0,.38.38,0,0,0,.4-.42c0-.4-.44-.74-1-.74A1.87,1.87,0,0,0,142,73.43a1.55,1.55,0,0,0,1.56,1.7,1.48,1.48,0,0,0,1.34-.89l-.15-.11a1.13,1.13,0,0,1-.82.43" transform="translate(0 9.76)"/><path class="cls-2" d="M147.28,74.53c-.73,0-1.25-.53-1.25-1.45h2.37c0-1-.47-1.57-1.31-1.57a1.79,1.79,0,0,0-1.72,1.93,1.6,1.6,0,0,0,1.6,1.69,1.63,1.63,0,0,0,1.45-1l-.15-.1a1.38,1.38,0,0,1-1,.5m-.35-2.67c.46,0,.67.43.68.91h-1.55a1,1,0,0,1,.87-.91" transform="translate(0 9.76)"/><path class="cls-2" d="M150.68,73.06l-.33-.14c-.43-.19-.56-.36-.56-.64a.49.49,0,0,1,.53-.48.75.75,0,0,1,.49.18l.29.64h.23l0-.89a2,2,0,0,0-.9-.22,1.17,1.17,0,0,0-1.28,1c0,.46.23.72.74,1l.32.14c.51.23.66.44.66.71a.53.53,0,0,1-.6.52.81.81,0,0,1-.58-.21l-.38-.81H149l.12,1a2.13,2.13,0,0,0,1,.28,1.29,1.29,0,0,0,1.39-1.09c0-.41-.21-.72-.85-1" transform="translate(0 9.76)"/><path class="cls-3" d="M170,39.29s0,0,0,.05h0a.13.13,0,0,1,0-.06" transform="translate(0 9.76)"/><path class="cls-4" d="M212.36,80.4l.65-.21-.65.21" transform="translate(0 9.76)"/><g class="cls-5"><rect class="cls-6" x="201.01" y="49.48" width="28.64" height="34.98" transform="translate(144.7 290.88) rotate(-89.02)"/></g><path class="cls-4" d="M232.56,52.88v.06a.45.45,0,0,1,0,.11,1,1,0,0,1,0-.17" transform="translate(0 9.76)"/><g class="cls-7"><rect class="cls-8" x="161.5" y="24.37" width="60.49" height="63.64" transform="translate(-6.2 93.13) rotate(-24.15)"/></g><g class="cls-9"><rect class="cls-10" x="169.37" y="39.66" width="1.14" height="0.73" transform="translate(49.26 175.95) rotate(-59.53)"/></g><g class="cls-11"><rect class="cls-12" x="169.78" y="40.87" width="0.21" height="0.13" transform="translate(48.45 176.36) rotate(-59.53)"/></g><g class="cls-13"><rect class="cls-14" x="169.98" y="39.36" width="0.03" height="0.02" transform="translate(49.84 175.66) rotate(-59.52)"/></g><g class="cls-15"><rect class="cls-16" x="232.47" y="52.91" width="0.15" height="0.1" transform="translate(68.96 236.28) rotate(-59.52)"/></g><g class="cls-17"><rect class="cls-18" x="167.11" y="2.03" width="68.34" height="74.63" transform="translate(57.18 195.05) rotate(-56.42)"/></g></g></g></svg>