<svg xmlns="http://www.w3.org/2000/svg" xmlns:xlink="http://www.w3.org/1999/xlink" viewBox="0 0 248.68 100"><defs><style>.cls-1{fill:none;}.cls-2{clip-path:url(#clip-path);}.cls-3{fill:#fff;}.cls-4{fill:#3276b7;}.cls-5{fill:#22201f;}</style><clipPath id="clip-path"><rect class="cls-1" x="19.85" y="6.65" width="208.98" height="86.7"/></clipPath></defs><g id="Layer_2" data-name="Layer 2"><g id="Layer_1-2" data-name="Layer 1"><rect class="cls-1" width="248.68" height="100"/><g class="cls-2"><path class="cls-3" d="M78.2,40.16A25,25,0,1,1,53.18,15a25.13,25.13,0,0,1,25,25.16"/><path class="cls-4" d="M64.87,51.66c-6,0-9.58-4.47-9.58-11.5s3.6-11.51,9.58-11.51a8.73,8.73,0,0,1,8.69,5.91l-4.37,1.72c-.84-1.89-1.77-3.36-4.32-3.36-2.91,0-4.33,2.28-4.33,7.24S62,47.4,65.05,47.4c2.27,0,3.59-1.58,4.65-3.53l4,2.26c-2.14,4-4.8,5.57-8.83,5.53m-13.32-.41H46.31V36.84c0-3-1-3.92-2.71-3.92a6.73,6.73,0,0,0-4.93,2.34v16H33.42V29.07h4.84v2.39c2-1.37,4.18-2.81,6.79-2.81,4.38,0,6.5,2.91,6.5,7.41Zm1.63-44.6a33.51,33.51,0,1,0,33.31,33.5A33.42,33.42,0,0,0,53.18,6.65"/></g><polygon class="cls-5" points="96.69 51.2 96.69 21.25 102.65 21.25 114.35 41.66 114.44 41.66 114.44 21.25 119.8 21.25 119.8 51.2 114.32 51.2 102.14 29.88 102.05 29.88 102.05 51.2 96.69 51.2"/><path class="cls-5" d="M131.45,51.21h-5.12V29.63h5.12Zm-5.13-30.38h5.14v4.8h-5.14Z"/><g class="cls-2"><path class="cls-5" d="M147.67,40.88c-3.43.66-7.2,1.35-7.2,4.4A2.33,2.33,0,0,0,143,47.8c1.61,0,3.61-1.38,4.71-2.27Zm.52,10.32-.34-1.86a11,11,0,0,1-6.66,2.28,5.51,5.51,0,0,1-5.83-5.72c0-4.89,4-7.47,12.31-8.47V35.61c0-1.68-1.33-2.58-3.15-2.58a5.52,5.52,0,0,0-4.7,2.64l-3.29-2.52c1.31-2.28,4.87-4,8-3.93,5.77.11,8.26,2.22,8.26,8.72V48.1a9.6,9.6,0,0,0,.4,3.1Z"/><path class="cls-5" d="M165,33a3.57,3.57,0,1,0,0,7.14A3.57,3.57,0,0,0,165,33m-4.6,20.24c0,1.67,1.42,2.41,5.71,2.41,3.3,0,4.41-1.65,4.41-2.41,0-1-1.53-2.48-6.48-2.48-2.8,0-3.64,1.59-3.64,2.48m15-20.58a6.92,6.92,0,0,0-3.31.49A6.37,6.37,0,0,1,173.25,37c0,4.06-2.73,7-8.07,7-2.23,0-4,.11-4,1.35,0,3.47,14.1-1.24,14.1,7.39,0,3.07-3.08,6.4-9.94,6.4-5.78,0-9.6-1.75-9.6-5.16a3.82,3.82,0,0,1,3.91-4v-.08c-1-.62-3.2-1.16-3.2-3.5,0-2.07,2.4-3.63,3.36-3.93-1.78-1.47-3.17-3.11-3.17-5.73,0-3.78,2.87-7.51,8.44-7.51a8.44,8.44,0,0,1,5.28,1.92c1-1.33,2.6-2,5.05-1.92Z"/><path class="cls-5" d="M188.92,40.88c-3.42.66-7.17,1.35-7.17,4.4a2.33,2.33,0,0,0,2.49,2.52c1.59,0,3.61-1.38,4.68-2.27Zm.56,10.32-.35-1.86a11.1,11.1,0,0,1-6.67,2.28,5.51,5.51,0,0,1-5.83-5.72c0-4.89,4-7.47,12.29-8.47V35.61c0-1.68-1.31-2.58-3.13-2.58a5.55,5.55,0,0,0-4.7,2.64l-3.3-2.52c1.31-2.28,4.87-4,8-3.93,5.78.11,8.25,2.22,8.25,8.72V48.1a9.89,9.89,0,0,0,.41,3.1Z"/><path class="cls-5" d="M198.83,51.2V29.63h4.71v3.69h.07c1.26-2.58,3-4,6-4.1v5.42a8.16,8.16,0,0,0-.91,0c-2.55,0-4.75,2.93-4.75,3.48V51.2Z"/><path class="cls-5" d="M223.3,40.88c-3.42.66-7.17,1.35-7.17,4.4a2.32,2.32,0,0,0,2.47,2.52c1.61,0,3.63-1.38,4.7-2.27Zm.53,10.32-.32-1.86a11.18,11.18,0,0,1-6.69,2.28A5.51,5.51,0,0,1,211,45.9c0-4.89,4-7.47,12.3-8.47V35.61c0-1.68-1.31-2.58-3.13-2.58a5.54,5.54,0,0,0-4.71,2.64l-3.3-2.52c1.32-2.28,4.88-4,8-3.93,5.77.11,8.24,2.22,8.24,8.72V48.1a9.89,9.89,0,0,0,.42,3.1Z"/><path class="cls-5" d="M111.8,64.2c-.82-2.53-2.6-4.31-5.4-4.31-3.79,0-6.12,3.56-6.12,10.58s2,10.58,6.28,10.58c2.55,0,4.13-.9,5.82-4.42l5.29,1.4c-1.78,5.16-5.67,7.84-11.11,7.84-7.6,0-12-5.63-12-15.4s4.37-15.39,12-15.39c5.69,0,9,2.57,10.41,7.89Z"/><path class="cls-5" d="M129.71,67.6c-2.84,0-4.21,2.25-4.21,7.08s1.37,7,4.21,7,4.21-2.23,4.21-7-1.37-7.08-4.21-7.08m0-4.15c5.82,0,9.32,4.36,9.32,11.23s-3.5,11.19-9.32,11.19-9.32-4.36-9.32-11.19,3.5-11.23,9.32-11.23"/></g><rect class="cls-5" x="144" y="55.48" width="5.12" height="29.97"/><rect class="cls-5" x="156.26" y="55.48" width="5.11" height="29.97"/><g class="cls-2"><path class="cls-5" d="M179.74,72c-.11-3-1.67-4.7-4.14-4.7s-4,1.74-4.13,4.7Zm-8.27,3.49c.09,4.49,2.06,6.23,4.45,6.23s3.51-1.07,4.8-2.56l3.71,2.33c-2,3.07-4.87,4.38-9,4.38-5.57,0-9.08-4.35-9.08-11.19s3.51-11.22,9.33-11.22c5.61,0,8.75,4.74,8.75,10v2.08Z"/><path class="cls-5" d="M196.55,67.26a3.57,3.57,0,1,0,3.52,3.58,3.55,3.55,0,0,0-3.52-3.58M192,87.52c0,1.66,1.42,2.41,5.71,2.41,3.3,0,4.42-1.65,4.42-2.41,0-1-1.53-2.47-6.48-2.47-2.81,0-3.65,1.57-3.65,2.47m14.95-20.58a6.94,6.94,0,0,0-3.31.49,6.15,6.15,0,0,1,1.17,3.81c0,4.1-2.73,7-8.09,7-2.23,0-4,.09-4,1.33,0,3.49,14.12-1.24,14.12,7.39,0,3-3.09,6.4-9.94,6.4-5.78,0-9.58-1.76-9.58-5.16a3.8,3.8,0,0,1,3.87-4v-.09c-1-.61-3.16-1.15-3.16-3.48,0-2.09,2.4-3.64,3.34-3.94-1.77-1.45-3.18-3.12-3.18-5.75,0-3.76,2.89-7.5,8.45-7.5a8.45,8.45,0,0,1,5.27,1.92c1-1.33,2.61-2,5-1.92Z"/><path class="cls-5" d="M222.56,72c-.09-3-1.66-4.7-4.12-4.7S214.39,69,214.3,72Zm-8.26,3.49c.09,4.49,2.08,6.23,4.46,6.23s3.51-1.07,4.78-2.56l3.73,2.33c-2,3.07-4.86,4.38-9,4.38-5.58,0-9.09-4.35-9.09-11.19s3.51-11.22,9.33-11.22c5.6,0,8.75,4.74,8.75,10v2.08Z"/></g></g></g></svg>