<svg xmlns="http://www.w3.org/2000/svg" xmlns:xlink="http://www.w3.org/1999/xlink" viewBox="0 0 248.68 100"><defs><style>.cls-1{fill:none;}.cls-2{clip-path:url(#clip-path);}.cls-3{fill:#214c86;}.cls-4{fill:#ce3c8c;}</style><clipPath id="clip-path"><rect class="cls-1" x="26.17" y="6.85" width="196.35" height="86.3"/></clipPath></defs><g id="Layer_2" data-name="Layer 2"><g id="Layer_1-2" data-name="Layer 1"><rect class="cls-1" width="248.68" height="100"/><g class="cls-2"><path class="cls-3" d="M58.62,67.84c-.14.72.2.89.86.39A5.31,5.31,0,0,0,61.05,66c3.88-15.37-2.71-30.75-19.77-46a4.34,4.34,0,0,0-4-.35c-1.37.52-1.73,1.53-.88,2.25,17.88,15.2,25.28,30.58,22.25,46"/><path class="cls-4" d="M62,67.42c-.31.83,0,1.08.73.58a7,7,0,0,0,2.09-2.46c7.39-17.33,1.49-34.72-17.7-51.86a5.24,5.24,0,0,0-4.57-.51c-1.57.53-2,1.62-1,2.43C61.7,32.71,68.5,50.09,62,67.42"/><path class="cls-3" d="M53.48,7.79c-1-.91-3.36-1.21-5.09-.68s-2.2,1.71-1.14,2.61C69.71,28.8,75.63,48.2,65.06,67.53c-.5.91-.31,1.24.52.71a9.49,9.49,0,0,0,2.61-2.6C79.79,46.32,74.9,26.88,53.48,7.79"/><path class="cls-4" d="M48.78,41.81c.47-.73,0-1.74-1.2-2.23s-2.52-.31-2.95.45c-9,15.55-7.9,31,3.44,46.52.56.75,1.38,1.77,1.76,2.26s.24.31-.27-.43c-10.46-15.55-10.73-31-.78-46.57"/><path class="cls-3" d="M43.16,35.88c.54-.82-.07-1.91-1.43-2.4s-2.9-.2-3.37.62C28.44,51.62,31.49,69,47.53,86.54c.77.82,1.84,1.91,2.32,2.42s.22.23-.5-.61c-15-17.54-17.11-34.92-6.19-52.47"/><path class="cls-4" d="M49.25,88.42C29.13,68.87,25.14,49.54,37.26,30c.59-.95-.11-2.11-1.65-2.6s-3.28-.13-3.8.82C20.8,47.75,25.9,67.07,47.12,86.6c1,1,2.37,2.1,2.92,2.61s.15.15-.79-.79"/><path class="cls-3" d="M217.16,86a3.47,3.47,0,0,0,.14.9.88.88,0,0,0,.31.47.71.71,0,0,0,.47.14.74.74,0,0,0,.79-.61A3.85,3.85,0,0,0,219,86c0-.36,0-.85,0-1.4s0-1,0-1.41a3.66,3.66,0,0,0-.16-.9.74.74,0,0,0-.29-.46.76.76,0,0,0-.5-.15.72.72,0,0,0-.47.15.85.85,0,0,0-.31.46,3.33,3.33,0,0,0-.14.9c0,.37,0,.83,0,1.41s0,1,0,1.4M217,79.33v1.45h.05a2.31,2.31,0,0,1,2.37-1.72,2.46,2.46,0,0,1,2.42,1.41,10.34,10.34,0,0,1,.68,4.33,11.87,11.87,0,0,1-.22,2.51,4.85,4.85,0,0,1-.65,1.62,2.11,2.11,0,0,1-1,.83,3.14,3.14,0,0,1-1.32.25,3,3,0,0,1-1.33-.28,1.8,1.8,0,0,1-.85-1.12h0v4.54h-3.47V79.33ZM212.18,89.8h-3.47V79.33h3.47Zm0-11.21h-3.47V76h3.47ZM202.12,76v4.5h0a2.51,2.51,0,0,1,1.1-1.13,3.18,3.18,0,0,1,1.3-.3,3.58,3.58,0,0,1,1,.14,2.3,2.3,0,0,1,.86.46,2.8,2.8,0,0,1,.6.87,3.81,3.81,0,0,1,.22,1.38V89.8h-3.46V82.88a1.89,1.89,0,0,0-.19-.94.88.88,0,0,0-1.31,0,1.79,1.79,0,0,0-.19.94V89.8h-3.47V76Zm-9.65,11.14a.91.91,0,0,0,.2.43.81.81,0,0,0,.72.39,1.2,1.2,0,0,0,.71-.23.81.81,0,0,0,.31-.67.83.83,0,0,0-.39-.71,3.5,3.5,0,0,0-.93-.45l-1.2-.4a4.68,4.68,0,0,1-1.21-.59,3.32,3.32,0,0,1-.93-1,3.5,3.5,0,0,1-.11-2.89,2.66,2.66,0,0,1,.75-1,3.49,3.49,0,0,1,1.28-.69,6.33,6.33,0,0,1,1.84-.26c2.61,0,3.91,1.09,3.91,3.31h-3a1.24,1.24,0,0,0-.26-.93.8.8,0,0,0-.68-.25.89.89,0,0,0-.63.21.73.73,0,0,0-.25.6.75.75,0,0,0,.38.68,3.73,3.73,0,0,0,.93.38c.37.12.76.25,1.19.37a4.61,4.61,0,0,1,1.21.56,3.08,3.08,0,0,1,.94,1,3.63,3.63,0,0,1,.08,3,3.37,3.37,0,0,1-.8,1.13,3.77,3.77,0,0,1-1.32.69,6.37,6.37,0,0,1-1.76.22,4.52,4.52,0,0,1-3.13-.87,3.3,3.3,0,0,1-1-2.59h3a3.68,3.68,0,0,0,.06.58m-6.24-7.8V81h0a3,3,0,0,1,.92-1.44,2.27,2.27,0,0,1,1.41-.5h.57v3.25a2.5,2.5,0,0,0-.47,0l-.41,0a2.44,2.44,0,0,0-1.44.39,1.83,1.83,0,0,0-.51,1.46V89.8h-3.45V79.33Zm-7.66,2.23a.76.76,0,0,0-.76-.37.78.78,0,0,0-.74.37,3,3,0,0,0-.19,1.23v.47h1.9v-.47a2.83,2.83,0,0,0-.21-1.23m-1.69,5a1.49,1.49,0,0,0,.29,1.11.86.86,0,0,0,.64.3.83.83,0,0,0,.73-.39,2.76,2.76,0,0,0,.25-1.44h3.13a4.16,4.16,0,0,1-1,2.9,4.1,4.1,0,0,1-3.11,1,6.93,6.93,0,0,1-2.09-.27,3.06,3.06,0,0,1-1.37-.94,4,4,0,0,1-.74-1.68,11.61,11.61,0,0,1-.23-2.53,11.15,11.15,0,0,1,.26-2.58,4.37,4.37,0,0,1,.79-1.68,3.05,3.05,0,0,1,1.37-1,6.08,6.08,0,0,1,2-.3,6.31,6.31,0,0,1,1.83.26,3,3,0,0,1,1.3.83,3.78,3.78,0,0,1,.79,1.55,9.43,9.43,0,0,1,.27,2.39v1.07h-5.14Zm-9.82-7.21v1.28h0a2.49,2.49,0,0,1,2.52-1.55,4.29,4.29,0,0,1,1.06.12,2.59,2.59,0,0,1,.87.46,2.07,2.07,0,0,1,.57.88,3.6,3.6,0,0,1,.21,1.39V89.8h-3.46V82.88a1.78,1.78,0,0,0-.2-.94.71.71,0,0,0-.64-.29.73.73,0,0,0-.66.29,1.79,1.79,0,0,0-.19.94V89.8H163.7V79.33Zm-8.9,0V76.26h3.45v3.07H163v2.34h-1.37v5a.81.81,0,0,0,.21.63.91.91,0,0,0,.63.18H163V89.8c-.32,0-.64,0-1,0h-.92a11,11,0,0,1-1.36-.06,1.58,1.58,0,0,1-.9-.34,1.44,1.44,0,0,1-.52-.8,4.59,4.59,0,0,1-.16-1.41V81.67H157V79.33Zm-4.8,0V81h0a2.83,2.83,0,0,1,.93-1.44,2.23,2.23,0,0,1,1.41-.5h.55v3.25a2.14,2.14,0,0,0-.45,0l-.42,0a2.44,2.44,0,0,0-1.44.39,1.83,1.83,0,0,0-.5,1.46V89.8H150V79.33Zm-8.27,8a2.62,2.62,0,0,0,.25-1.3V84.75h0a.64.64,0,0,1-.46.27,2.36,2.36,0,0,0-.71.21,1.2,1.2,0,0,0-.55.51,1.9,1.9,0,0,0-.15.85,1.4,1.4,0,0,0,.21.83.74.74,0,0,0,.63.31.91.91,0,0,0,.82-.42m.33,1.93c0-.19-.06-.4-.08-.63h0a2,2,0,0,1-.92,1A2.77,2.77,0,0,1,143,90a4.15,4.15,0,0,1-1.35-.19,2.17,2.17,0,0,1-.89-.63,2.53,2.53,0,0,1-.5-1,4.8,4.8,0,0,1-.14-1.24,5.57,5.57,0,0,1,.13-1.29,2.34,2.34,0,0,1,.48-.94,2.8,2.8,0,0,1,.88-.67,6.23,6.23,0,0,1,1.39-.48l1.35-.32a1.43,1.43,0,0,0,.8-.4,1.13,1.13,0,0,0,.23-.74c0-.65-.3-1-.88-1a1,1,0,0,0-.74.28,2.2,2.2,0,0,0-.25,1.11h-3a3.56,3.56,0,0,1,.4-1.8,3,3,0,0,1,1-1.09,4,4,0,0,1,1.29-.51,7.64,7.64,0,0,1,1.29-.12,8.71,8.71,0,0,1,1.66.14,3.26,3.26,0,0,1,1.3.53,2.46,2.46,0,0,1,.85,1,3.69,3.69,0,0,1,.3,1.65v5.11a11.73,11.73,0,0,0,.07,1.28,2.7,2.7,0,0,0,.26,1h-3.34a2.55,2.55,0,0,1-.14-.56m-11-7.3a1.33,1.33,0,0,0,1-.4,2,2,0,0,0,.35-1.29c0-1.09-.46-1.66-1.39-1.66h-.66v3.35Zm1.12-6a4.67,4.67,0,0,1,1.78.32,3.5,3.5,0,0,1,1.23.91,3.73,3.73,0,0,1,.72,1.33,5.78,5.78,0,0,1,.23,1.7,4.32,4.32,0,0,1-1.14,3.23A4.82,4.82,0,0,1,135,84.54h-1.24V89.8h-3.58V76ZM123.4,87.17a1.08,1.08,0,0,0,1.12.85,1.11,1.11,0,0,0,1.15-.85,9.31,9.31,0,0,0,.26-2.57,9,9,0,0,0-.26-2.55,1.09,1.09,0,0,0-1.15-.88,1.07,1.07,0,0,0-1.12.88,9.11,9.11,0,0,0-.24,2.55,9.46,9.46,0,0,0,.24,2.57M126,88.7a2.58,2.58,0,0,1-1,1,2.94,2.94,0,0,1-1.36.28,2.6,2.6,0,0,1-2.4-1.24,8.32,8.32,0,0,1-.78-4.17,8.38,8.38,0,0,1,.78-4.19,2.58,2.58,0,0,1,2.4-1.29,2.43,2.43,0,0,1,1.28.32,3,3,0,0,1,1,.92h0V76h2.66V89.8h-2.54V88.7Zm-9.14-9.32v1.4h0a4,4,0,0,1,1-1.21,2.21,2.21,0,0,1,1.4-.45h.24a1.75,1.75,0,0,0,.24,0v2.55l-.42,0-.41,0a2.47,2.47,0,0,0-.7.1,1.64,1.64,0,0,0-.63.32,1.86,1.86,0,0,0-.47.59,2.06,2.06,0,0,0-.17.88V89.8h-2.66V79.38Zm-9.41,6.67a4.8,4.8,0,0,0,.18,1.17,1.6,1.6,0,0,0,.43.75,1.06,1.06,0,0,0,.77.28,1.15,1.15,0,0,0,1.12-.86,12.37,12.37,0,0,0,0-5.59,1.14,1.14,0,0,0-1.12-.86,1.06,1.06,0,0,0-.77.28,1.55,1.55,0,0,0-.43.75,5.05,5.05,0,0,0-.18,1.16c0,.45,0,.93,0,1.47s0,1,0,1.45M105,82.24a4.51,4.51,0,0,1,.69-1.71,3,3,0,0,1,1.27-1,4.49,4.49,0,0,1,1.91-.36,4.43,4.43,0,0,1,2,.32,2.78,2.78,0,0,1,1.26,1,4.85,4.85,0,0,1,.66,1.73,13.9,13.9,0,0,1,.18,2.4,11.94,11.94,0,0,1-.2,2.36,4.63,4.63,0,0,1-.69,1.7,2.84,2.84,0,0,1-1.27,1,5.08,5.08,0,0,1-1.91.32,4.64,4.64,0,0,1-2-.3,2.6,2.6,0,0,1-1.26-1,4.92,4.92,0,0,1-.65-1.71,14.24,14.24,0,0,1-.19-2.4,12,12,0,0,1,.21-2.36m-6.32-1V79.38H100V78.21a3.39,3.39,0,0,1,.19-1.18,1.72,1.72,0,0,1,.55-.77,2.11,2.11,0,0,1,.88-.41,4.6,4.6,0,0,1,1.15-.13,13.68,13.68,0,0,1,1.43.06v1.88h-.54a1.09,1.09,0,0,0-.77.21.7.7,0,0,0-.24.62v.9h1.55v1.84h-1.55V89.8H100V81.22Zm-.37-1.84-2.7,5.07,2.81,5.35H95.62l-1.54-3.41L92.53,89.8H89.77l2.81-5.35-2.7-5.07h2.76l1.44,3.15,1.42-3.15ZM82.44,85.27a6.59,6.59,0,0,0,.27,1.58,1.77,1.77,0,0,0,.59.89,1.54,1.54,0,0,0,1,.28,1.59,1.59,0,0,0,1-.28,1.76,1.76,0,0,0,.58-.89,7.12,7.12,0,0,0,.27-1.58c0-.67.07-1.45.07-2.39s0-1.71-.07-2.35A7.23,7.23,0,0,0,85.85,79a1.48,1.48,0,0,0-1.57-1.18,1.54,1.54,0,0,0-1,.28,1.6,1.6,0,0,0-.59.9,6.68,6.68,0,0,0-.27,1.58c0,.64-.07,1.44-.07,2.35s0,1.72.07,2.39M79.75,80a6.44,6.44,0,0,1,.63-2.28,3.61,3.61,0,0,1,1.42-1.48,5,5,0,0,1,2.48-.52,5,5,0,0,1,2.48.52,3.68,3.68,0,0,1,1.42,1.48A6.66,6.66,0,0,1,88.81,80a28.11,28.11,0,0,1,0,5.8,6.67,6.67,0,0,1-.63,2.26,3.37,3.37,0,0,1-1.42,1.45,5.18,5.18,0,0,1-2.48.5,5.12,5.12,0,0,1-2.48-.5,3.32,3.32,0,0,1-1.42-1.45,6.45,6.45,0,0,1-.63-2.26,30.1,30.1,0,0,1,0-5.8m-2.28,2.75a3.19,3.19,0,0,0-.47-.92,2.36,2.36,0,0,0-.71-.59,1.9,1.9,0,0,0-1.81,0,2.08,2.08,0,0,0-.69.6,3.14,3.14,0,0,0-.47.91,4.38,4.38,0,0,0-.21,1.09h4.57a3.57,3.57,0,0,0-.21-1.09m.32,6.41a3,3,0,0,1-2.24.85,3.6,3.6,0,0,1-1.66-.37,3.67,3.67,0,0,1-1.18-1.11,4.75,4.75,0,0,1-.7-1.66,9.61,9.61,0,0,1-.28-2.1A7.48,7.48,0,0,1,72,82.69,5,5,0,0,1,72.79,81,3.73,3.73,0,0,1,74,80a2.91,2.91,0,0,1,1.48-.38,2.76,2.76,0,0,1,1.78.55,4.08,4.08,0,0,1,1.12,1.4,6.44,6.44,0,0,1,.57,1.85,9.94,9.94,0,0,1,.14,1.91h-6a4.59,4.59,0,0,0,.14,1.26,2.92,2.92,0,0,0,.42,1,2.25,2.25,0,0,0,1.93,1A1.87,1.87,0,0,0,77,88.09a2.32,2.32,0,0,0,.7-1.46h1.29a4.16,4.16,0,0,1-1.15,2.53M64.91,76v5.26h0a2.35,2.35,0,0,1,.43-.76A2.62,2.62,0,0,1,66,80a3.83,3.83,0,0,1,.73-.29,2.68,2.68,0,0,1,.74-.09,3,3,0,0,1,1.3.26,2.35,2.35,0,0,1,.86.77,3.54,3.54,0,0,1,.45,1.15,9.51,9.51,0,0,1,.12,1.47V89.8h-1.3V83a2.27,2.27,0,0,0-.44-1.46A1.43,1.43,0,0,0,67.27,81a2.46,2.46,0,0,0-1,.23,2.09,2.09,0,0,0-.72.67,3,3,0,0,0-.44,1,5.44,5.44,0,0,0-.15,1.26V89.8H63.6V76ZM53.83,77.54V76H62.6v1.55H58.94V89.8H57.47V77.54Z"/><path class="cls-3" d="M173.38,52h1.18v2h-1.18Zm-2.63,0h1.18v2h-1.18Zm3.95,5.17a6.49,6.49,0,0,0-2-.21c-1.56,0-2.81.76-2.81,3.2s1.08,3,2.66,3a7.28,7.28,0,0,0,2.13-.32Zm0,7a7,7,0,0,1-2.15.35c-2.37,0-4-1.13-4-4.35s1.9-4.55,4.19-4.55a10.49,10.49,0,0,1,3.28.49V65.6h4.11l.11,1.22H174.7Z"/><path class="cls-3" d="M180,65.58h6.95V62.92c0-3.24-3.72-4.5-6.37-4.5l5.73-6.69,1.86-.19L183,57.47c2.62.46,5.23,2.16,5.23,5.45v3.9h-8.12Z"/></g><polygon class="cls-3" points="192.03 51.88 192.03 66.82 193.35 66.82 193.35 51.69 192.03 51.88"/><g class="cls-2"><path class="cls-3" d="M193.65,69.53c.3,0,.53,0,.8,0,2.84,0,4-1,4-3.84V59.06l1.3-.19v5.77a6.28,6.28,0,0,0,3.3,1h.13l.12,1.22h-.15a8.54,8.54,0,0,1-3.4-.73v0c0,3.13-1.67,4.61-5.21,4.61h-.36Z"/><path class="cls-3" d="M215.2,53.32h1.2V55h-1.2Zm-1.34-2.88h1.19V52h-1.19Zm-1.27,2.88h1.19V55h-1.19ZM203,65.6h1.06c2,0,2.73-1.22,2.73-3.58v-2.7l1.29-.2v3.29a5.44,5.44,0,0,1-.39,2.23.59.59,0,0,1-.05.12c0,.08-.11.22-.15.31.18.06.37.11.54.18a.93.93,0,0,1,.29,0l.2.07a17,17,0,0,0,2.54.23c2,0,2.71-1.22,2.71-3.58V58.29l1.31-.22v4.34a5.13,5.13,0,0,1-.39,2.23,6.31,6.31,0,0,0,3.27,1c2,0,2.77-1.19,2.77-3.58V57.64l1.3-.19v5c0,2.89-1.25,4.41-3.92,4.41a7.94,7.94,0,0,1-4.06-1.11,3.54,3.54,0,0,1-2.87,1.11,20.24,20.24,0,0,1-4.39-.54v0c-.09,0-.14,0-.14-.07a4.36,4.36,0,0,1-2.45.64h-1.09Z"/><path class="cls-3" d="M87.06,56.51c3.12,0,4.83.51,5.5,4.13l1.19,6.3H82.51l1.06-2.14h7.56l-.71-3.56C90,58.72,89.2,58.66,87,58.57Z"/><path class="cls-3" d="M92.22,69.46c.28,0,1.27.07,1.53.07C96,69.53,97,68.43,97,66V58.78l2.18-.35v7.79c0,3.61-1.68,5.41-5.38,5.41h-.63Z"/><path class="cls-3" d="M103.67,62.24c0,1.85,1,2.56,2.19,2.56h1.28v-5a3.22,3.22,0,0,0-1.16-.17,2.33,2.33,0,0,0-2.31,2.63m-1.4,7.21c.29,0,1.33.1,1.61.1a2.92,2.92,0,0,0,3.19-2.61h-1.28c-2.39,0-4.31-1.5-4.31-4.67s2.12-4.74,4.47-4.74a10.91,10.91,0,0,1,3.38.56V64.8h1.75l1.24,2.14h-3c-.17,3.26-1.88,4.69-5.33,4.69h-.67Z"/></g><rect class="cls-3" x="116.3" y="50.56" width="2.22" height="2.65"/><g class="cls-2"><path class="cls-3" d="M118.64,63.59c-2-.8-3.25-2-3.25-3.78a2,2,0,0,1,2.16-2.25c1.5,0,2.27.74,2.27,2.5a5.7,5.7,0,0,1-1.18,3.53m27.11,1.21h-.56a5.25,5.25,0,0,1-2.52-.61,6.74,6.74,0,0,0,.24-1.85V55.86l-2.2.36V62c0,1.9-.54,2.85-2.08,2.85a5.18,5.18,0,0,1-2.5-.57,6.2,6.2,0,0,0,.24-1.89V56.46l-2.18.34V62c0,1.9-.5,2.85-2,2.85a16.47,16.47,0,0,1-2.85-.28,6.74,6.74,0,0,0,.32-2.18V57.41l-2.18.35V62c0,1.9-.56,2.85-2.06,2.85h-1.46a8.86,8.86,0,0,1-3.17-.55A7.32,7.32,0,0,0,122.09,60a4.44,4.44,0,1,0-8.88-.15,5.25,5.25,0,0,0,3.24,5h-5.58l.21,2.15h5.73a4,4,0,0,0,2.43-.88,15.09,15.09,0,0,0,4.15.88h2.11a4.69,4.69,0,0,0,2.38-.57,24.05,24.05,0,0,0,4.39.57A4.31,4.31,0,0,0,135,66a7.79,7.79,0,0,0,3.73.91,4.18,4.18,0,0,0,2.86-.91,7.74,7.74,0,0,0,3.7.91h.65Z"/><path class="cls-3" d="M145.52,64.8h8.24v-2c0-2.7-3.75-3.75-6.44-3.75h-.08l6.55-8,2.44.74-4.8,5.53c2.33.64,4.5,2.4,4.5,5.43V67H145.75Z"/></g><polygon class="cls-3" points="158.8 66.95 158.8 51.74 160.97 51.41 160.97 66.95 158.8 66.95"/><g class="cls-2"><path class="cls-3" d="M157.26,48.62h1.18a4.67,4.67,0,0,1-.3-1.45,2.33,2.33,0,0,1,2.37-2.62,2.9,2.9,0,0,1,2.27,1.17l-.84,1c-.56-.48-1.05-.88-1.43-.88-.58,0-1,.49-1,1.36s.33,1.45,1,1.45h2.62l-.6,1.52h-6.07Z"/></g></g></g></svg>