<svg xmlns="http://www.w3.org/2000/svg" viewBox="0 0 248.68 100"><defs><style>.cls-1{fill:none;}.cls-2{fill:#00758d;}.cls-3{fill:#3d3935;}</style></defs><g id="Layer_2" data-name="Layer 2"><g id="Layer_1-2" data-name="Layer 1"><rect class="cls-1" width="248.68" height="100"/><polygon class="cls-2" points="91.73 54.3 107.38 54.3 122.06 6.73 116.8 6.73 91.73 54.3"/><polygon class="cls-2" points="129.56 6.73 124.3 6.73 138.97 54.3 154.62 54.3 129.56 6.73"/><path class="cls-3" d="M49,45.05v9.21H75.2A14.19,14.19,0,1,0,75,25.89H60.87A4.93,4.93,0,0,1,56,21v-.11a4.92,4.92,0,0,1,4.92-4.92H84.53V6.7H60.59a14.2,14.2,0,0,0,.22,28.39h14.1A4.93,4.93,0,0,1,79.84,40v.11a4.93,4.93,0,0,1-4.93,4.92Z"/><path class="cls-3" d="M162.05,54.29h9a.11.11,0,0,0,.12-.1h0V16a.1.1,0,0,1,.1-.12h16a5,5,0,0,1,5,5,4.93,4.93,0,0,1-4.93,4.92H176.18a.13.13,0,0,0-.11.12.07.07,0,0,0,0,.05l16,28.1a.12.12,0,0,0,.1.06h9.91a.11.11,0,0,0,.12-.11.08.08,0,0,0,0-.05L191.6,35.7l-.5-.91a.11.11,0,0,1,0-.15h0l1-.36a14.2,14.2,0,0,0-3.77-27.54l-.76,0H162.07a.12.12,0,0,0-.12.12V54.18a.1.1,0,0,0,.11.11h0"/><path class="cls-3" d="M46.65,92.74,47,91.08a7,7,0,0,0,2.51.52c1.06,0,1.59-.36,1.59-1.1a1,1,0,0,0-.41-.88A5.73,5.73,0,0,0,49.24,89a5,5,0,0,1-1.92-1.08,2.39,2.39,0,0,1-.65-1.78,2.51,2.51,0,0,1,.87-2A3.7,3.7,0,0,1,50,83.37a6.32,6.32,0,0,1,2.57.49l-.38,1.63a5.67,5.67,0,0,0-2.07-.42q-1.44,0-1.44,1a1,1,0,0,0,.33.79,4.71,4.71,0,0,0,1.22.58c.39.14.77.29,1.14.46a4.24,4.24,0,0,1,.88.56,2.12,2.12,0,0,1,.64.84,3.33,3.33,0,0,1,.21,1.18,2.46,2.46,0,0,1-1,2.07,4,4,0,0,1-2.52.74,7.29,7.29,0,0,1-3-.56"/><path class="cls-3" d="M60.38,93.12,59.8,91H56.27q-.27,1-.57,2.1h-2A62,62,0,0,1,57,83.54h2a59.72,59.72,0,0,1,3.35,9.58Zm-2.33-7.5a31,31,0,0,0-1.29,3.73h2.56a32.76,32.76,0,0,0-1.27-3.73"/><path class="cls-3" d="M62.75,89.32V83.54h2v5.64c0,1.59.62,2.38,1.85,2.38s1.84-.79,1.83-2.38V83.54h2v5.78a4.1,4.1,0,0,1-1,3,4.38,4.38,0,0,1-5.63,0,4.13,4.13,0,0,1-1-3"/><path class="cls-3" d="M72.25,93.12V83.54h3.2a4.73,4.73,0,0,1,3.47,1.28,4.67,4.67,0,0,1,1.29,3.49,4.73,4.73,0,0,1-1.3,3.52,4.61,4.61,0,0,1-3.46,1.29ZM75.4,85.2H74.21v6.24H75.4q2.79,0,2.79-3.15T75.4,85.2"/><rect class="cls-3" x="81.71" y="83.54" width="1.96" height="9.58"/><path class="cls-3" d="M94.74,93.12,94.16,91H90.63q-.28,1-.57,2.1H88a62,62,0,0,1,3.33-9.58h2a60.72,60.72,0,0,1,3.35,9.58Zm-2.34-7.5a31,31,0,0,0-1.29,3.73h2.56a32.76,32.76,0,0,0-1.27-3.73"/><path class="cls-3" d="M100.5,89.57h-.59v3.55H98V83.54h2.82a4.67,4.67,0,0,1,2.79.74,2.46,2.46,0,0,1,1,2.11,2.37,2.37,0,0,1-1.9,2.56,2.58,2.58,0,0,1,1.14,1.27l1.39,2.9h-2.11l-1.3-2.7a1.74,1.74,0,0,0-.52-.65,1.29,1.29,0,0,0-.74-.2m.17-4.36h-.78v2.71h.75c1.24,0,1.86-.45,1.86-1.36a1.15,1.15,0,0,0-.46-1,2.73,2.73,0,0,0-1.4-.3"/><path class="cls-3" d="M112.4,93.12l-.58-2.1h-3.54c-.19.64-.38,1.34-.58,2.1h-2A62,62,0,0,1,109,83.54h2a60.72,60.72,0,0,1,3.35,9.58Zm-2.34-7.5a31,31,0,0,0-1.29,3.73h2.56a32.76,32.76,0,0,0-1.27-3.73"/><path class="cls-3" d="M118.85,93.12H115.6V83.54h3a4.57,4.57,0,0,1,2.59.63,2.08,2.08,0,0,1,.94,1.85A2.18,2.18,0,0,1,121,88a2.32,2.32,0,0,1,1.42,2.28,2.46,2.46,0,0,1-1,2.12,4.27,4.27,0,0,1-2.64.71M117.5,85.2v2.32h1.41a1.09,1.09,0,0,0,1.24-1.21c0-.74-.53-1.12-1.58-1.12Zm0,3.79v2.45h1.18a2.77,2.77,0,0,0,1.36-.27,1,1,0,0,0,.46-.92q0-1.26-1.65-1.26Z"/><rect class="cls-3" x="123.91" y="83.54" width="1.96" height="9.58"/><path class="cls-3" d="M133.75,93.12l-.57-2.1h-3.53c-.2.64-.39,1.34-.58,2.1h-2a61,61,0,0,1,3.32-9.58h2a59.72,59.72,0,0,1,3.35,9.58Zm-2.34-7.5a32.82,32.82,0,0,0-1.28,3.73h2.55a30.91,30.91,0,0,0-1.27-3.73"/><path class="cls-3" d="M142.7,89.57h-.58v3.55h-2V83.54H143a4.7,4.7,0,0,1,2.8.74,2.48,2.48,0,0,1,1,2.11,2.37,2.37,0,0,1-1.9,2.56A2.58,2.58,0,0,1,146,90.22l1.39,2.9h-2.1L144,90.42a1.68,1.68,0,0,0-.53-.65,1.29,1.29,0,0,0-.74-.2m.18-4.37h-.75v2.71h.75c1.24,0,1.86-.45,1.87-1.37a1.18,1.18,0,0,0-.47-1,2.62,2.62,0,0,0-1.4-.31"/><path class="cls-3" d="M154.6,93.12,154,91h-3.54q-.27,1-.57,2.1h-2a62,62,0,0,1,3.33-9.58h2a60.72,60.72,0,0,1,3.35,9.58Zm-2.34-7.5A32.87,32.87,0,0,0,151,89.35h2.56a32.76,32.76,0,0,0-1.27-3.73"/><rect class="cls-3" x="157.8" y="83.54" width="1.96" height="9.58"/><polygon class="cls-3" points="161.73 93.13 161.73 83.54 163.69 83.54 163.69 91.46 167.56 91.46 167.56 93.13 161.73 93.13"/><path class="cls-3" d="M176.61,91.28c.29-.86.61-2,.95-3.48s.6-2.88.79-4.26h2a40.3,40.3,0,0,1-2.59,9.58h-2.15a41.23,41.23,0,0,1-1.78-6,42.57,42.57,0,0,1-1.79,6h-2.15a34.15,34.15,0,0,1-1.49-4.52,50.48,50.48,0,0,1-1.08-5.06h2c.21,1.4.48,2.83.82,4.29a31.42,31.42,0,0,0,.95,3.45,36.59,36.59,0,0,0,1.06-3.57,34.56,34.56,0,0,0,.83-4.17h1.75a37.49,37.49,0,0,0,.84,4.22,31,31,0,0,0,1.07,3.52"/><path class="cls-3" d="M186.73,93.12l-.58-2.1h-3.53q-.28,1-.57,2.1h-2a59.89,59.89,0,0,1,3.33-9.58h2a59.72,59.72,0,0,1,3.35,9.58Zm-2.34-7.5a31,31,0,0,0-1.29,3.73h2.56a32.76,32.76,0,0,0-1.27-3.73"/><path class="cls-3" d="M191.85,93.12h-2V89.29a24.9,24.9,0,0,1-3.17-5.75h2a20.83,20.83,0,0,0,2.15,4.17A20.94,20.94,0,0,0,193,83.55h2a26.48,26.48,0,0,1-3.18,5.75Z"/><path class="cls-3" d="M195.6,92.74l.35-1.66a7,7,0,0,0,2.52.52c1.05,0,1.58-.36,1.58-1.1a1,1,0,0,0-.4-.88,6.05,6.05,0,0,0-1.46-.62,5,5,0,0,1-1.92-1.08,2.37,2.37,0,0,1-.65-1.79,2.52,2.52,0,0,1,.87-2,3.69,3.69,0,0,1,2.43-.72,6.34,6.34,0,0,1,2.58.49l-.39,1.63a5.57,5.57,0,0,0-2.06-.42q-1.44,0-1.44,1a1,1,0,0,0,.33.79,4.56,4.56,0,0,0,1.22.58c.39.14.77.29,1.15.46a4.52,4.52,0,0,1,.88.56,2.12,2.12,0,0,1,.64.84,3.19,3.19,0,0,1,.2,1.18,2.47,2.47,0,0,1-.95,2.08,4,4,0,0,1-2.51.73,7,7,0,0,1-3-.56"/><polygon class="cls-3" points="51.21 67.62 52.27 68.65 53.55 67.36 52.25 66.06 51.21 67.1 50.15 66.06 48.86 67.36 50.16 68.65 51.21 67.62"/><path class="cls-3" d="M49.47,75.16c-.81,0-1.26-.42-1.26-1.09,0-1.08.94-1.94,2.64-2.28v2.28a4.43,4.43,0,0,0,.07.81,3.82,3.82,0,0,1-1.45.28M53.55,77h1.13c2,0,3.07-1.07,3.07-2.73a29.33,29.33,0,0,0-.42-4H55.59a24.9,24.9,0,0,1,.42,3.7c0,.77-.32,1.19-1.33,1.19H53.54c-.73,0-.95-.36-.95-1V69.51H50.85v.74c-3.24.53-4.34,2.48-4.34,4A2.62,2.62,0,0,0,49.44,77a4.35,4.35,0,0,0,2.14-.69,2.7,2.7,0,0,0,2,.69"/><polygon class="cls-3" points="55.59 78.77 54.56 77.78 53.27 79.06 54.59 80.35 55.59 79.35 56.62 80.35 57.91 79.06 56.61 77.78 55.59 78.77"/><path class="cls-3" d="M61.05,70.24a14.43,14.43,0,0,1,1.46,4.08c0,.58-.43.8-1.42.8a8.92,8.92,0,0,1-2.29-.33l-.33,1.73a11.42,11.42,0,0,0,3,.43c1.8,0,2.74-.86,2.74-2.37a11.55,11.55,0,0,0-1.42-4.34Z"/><path class="cls-3" d="M76.68,74.8a16,16,0,0,0-1.83-2.65,4.48,4.48,0,0,1,1.65-.39c1.08,0,1.7.47,1.7,1.19a2.27,2.27,0,0,1-1.52,1.85m-7.58.36c-1.4,0-2.16-.53-2.16-1.59a1.53,1.53,0,0,1,1.48-1.64c.81,0,1.3.52,1.37,1.59,0,.52.07,1,.09,1.62l-.78,0m25.53-1.23c0,.81-.32,1.18-1.33,1.18a3.15,3.15,0,0,1-1.64-.41,10.73,10.73,0,0,0,.3-2.88v-1H90.35v1A6.81,6.81,0,0,1,90,74.47a1.11,1.11,0,0,1-1.2.65,3.07,3.07,0,0,1-1.37-.32,10.62,10.62,0,0,0,.33-3H86.18a7.06,7.06,0,0,1-.3,2.64,1.12,1.12,0,0,1-1.21.65,3.22,3.22,0,0,1-1.46-.36,11.55,11.55,0,0,0,.32-2.93H81.91a6.81,6.81,0,0,1-.31,2.64,1,1,0,0,1-1,.65h0A12.54,12.54,0,0,1,78.7,75a3.43,3.43,0,0,0,1.22-2.51c0-1.41-1.29-2.53-3.24-2.53a8.32,8.32,0,0,0-4.29,1.59L73.11,73l.38-.21A12.41,12.41,0,0,1,75.07,75a20.27,20.27,0,0,1-2.7.15h-.79c0-.76,0-1.24,0-1.73-.11-2.07-1.29-3.25-3-3.25a3.28,3.28,0,0,0-3.23,3.49c0,2.06,1.42,3.32,3.62,3.32h.94c-.3.87-1.45,1.39-3.39,1.39v1.58c3.45,0,4.9-1.2,5.14-3h.78a10.12,10.12,0,0,0,4.54-.75,8,8,0,0,0,3.63.75h0a2.49,2.49,0,0,0,2-.9,3.93,3.93,0,0,0,2.21.9,2.52,2.52,0,0,0,2-.86A3.9,3.9,0,0,0,89,77a2.54,2.54,0,0,0,2.11-1,3.36,3.36,0,0,0,2.24,1h0c2,0,3.07-1.07,3.07-2.73v-7.3H94.63Z"/><rect class="cls-3" x="98.6" y="66.92" width="1.74" height="10.03"/><polygon class="cls-3" points="109.61 67.62 110.68 68.65 111.95 67.36 110.65 66.06 109.61 67.1 108.55 66.06 107.26 67.36 108.56 68.65 109.61 67.62"/><polygon class="cls-3" points="114 78.77 112.96 77.78 111.67 79.06 112.99 80.35 114 79.35 115.02 80.35 116.31 79.06 115.01 77.78 114 78.77"/><path class="cls-3" d="M107.87,75.16c-.8,0-1.26-.42-1.26-1.09,0-1.08.94-1.94,2.64-2.28v2.28a7.38,7.38,0,0,0,.07.81,3.78,3.78,0,0,1-1.45.28M112,77h1.14c2,0,3.07-1.07,3.07-2.73a29.33,29.33,0,0,0-.42-4H114a25.88,25.88,0,0,1,.41,3.7c0,.77-.32,1.19-1.33,1.19H112c-.73,0-1-.36-1-1V69.51h-1.75v.74c-3.23.53-4.34,2.48-4.34,4a2.62,2.62,0,0,0,2.93,2.7,4.39,4.39,0,0,0,2.15-.69,2.65,2.65,0,0,0,2,.69"/><path class="cls-3" d="M123.81,77h1.13c2,0,3.07-1.07,3.07-2.73a28.76,28.76,0,0,0-.41-4h-1.74a25.78,25.78,0,0,1,.41,3.69c0,.78-.32,1.19-1.32,1.19h-1.14a1.46,1.46,0,0,1-1.46-1.19,25.17,25.17,0,0,1-.74-3.69h-1.8a33.54,33.54,0,0,0,1,4.3L121,75a7.5,7.5,0,0,1-1.63.15,7.78,7.78,0,0,1-2.15-.33l-.33,1.73a7.19,7.19,0,0,0,2.43.43,4.56,4.56,0,0,0,2.51-.75,2.8,2.8,0,0,0,2,.75"/><polygon class="cls-3" points="125.86 78.77 124.82 77.78 123.53 79.06 124.85 80.35 125.86 79.35 126.88 80.35 128.17 79.06 126.87 77.78 125.86 78.77"/><path class="cls-3" d="M145.72,73.93c0,.82-.32,1.19-1.33,1.19-.83,0-1.3-.19-1.51-.52l.43-.09.5-1.77c-2.53-.63-3.47-2.61-5.56-2.61a4.35,4.35,0,0,0-1.95.56l.48,1.55a3.54,3.54,0,0,1,1.4-.32c1.21,0,1.89.89,3.47,1.65-1.63.62-2.73,1.53-6,1.53h0a1.48,1.48,0,0,1-1.47-1.19,25,25,0,0,1-.73-3.69h-1.8a30.17,30.17,0,0,0,1,4.3l.16.43a7.38,7.38,0,0,1-1.63.15,7,7,0,0,1-2.14-.33l-.33,1.73a7,7,0,0,0,2.4.45,4.4,4.4,0,0,0,2.51-.75,2.8,2.8,0,0,0,2,.75h0c3.67,0,4.25-1.27,6.12-2,.16,1.33,1.06,2,2.6,2,2,0,3.07-1.07,3.07-2.73v-7.3h-1.74Z"/><rect class="cls-3" x="149.69" y="66.92" width="1.74" height="10.03"/><path class="cls-3" d="M161.09,75.12c-.75,0-1.44,0-2.13-.08,2.48-2.71,3.39-3.63,4.63-3.63a1.52,1.52,0,0,1,1.62,1.51c0,1.27-1.62,2.19-4.12,2.19m2.83-5.53c-1.46,0-2.64.8-4.74,3.11a12.81,12.81,0,0,0,.37-2.68V66.92h-1.74v7.34c-.15.2-.32.38-.48.56-.43,0-.84-.14-1.26-.22l-.35,1.73a23.5,23.5,0,0,0,5.22.62c3.87,0,6-1.72,6-4.28a3,3,0,0,0-3-3.08"/><polygon class="cls-3" points="191.21 68 189.91 66.71 188.62 68 189.92 69.28 191.21 68"/><path class="cls-3" d="M179.7,75.12h-2.15c2.41-2.67,3.41-3.71,4.62-3.71a1.51,1.51,0,0,1,1.6,1.42.28.28,0,0,1,0,.09c0,1.27-1.62,2.2-4.08,2.2m-7.86,0c-1.4,0-2.16-.53-2.16-1.59a1.53,1.53,0,0,1,1.48-1.64c.82,0,1.3.52,1.37,1.59,0,.52.07,1,.1,1.62l-.79,0m24.62-1.23c0,.82-.32,1.19-1.33,1.19-.84,0-1.3-.19-1.51-.52l.43-.09.5-1.77c-2.53-.63-3.47-2.61-5.56-2.61a4.35,4.35,0,0,0-2,.56l.48,1.55a3.53,3.53,0,0,1,1.39-.32c1.22,0,1.89.89,3.47,1.65-1.63.62-2.73,1.53-5.95,1.53h0a3.17,3.17,0,0,1-1.48-.33,3.76,3.76,0,0,0,.61-2.11,3,3,0,0,0-2.87-3.08.54.54,0,0,0-.18,0c-1.4,0-2.66.83-4.65,3.14a13.09,13.09,0,0,0,.37-2.71V66.92h-1.74v7.46c-.19.24-.39.48-.58.74h-1.59c0-.76,0-1.24-.06-1.73-.11-2.07-1.28-3.25-3-3.25A3.28,3.28,0,0,0,168,73.63c0,2.06,1.42,3.32,3.62,3.32h.94c-.3.87-1.45,1.39-3.39,1.39v1.58c3.45,0,4.9-1.2,5.14-3h5.53A6.84,6.84,0,0,0,184,75.8,3.51,3.51,0,0,0,186.4,77h0c3.66,0,4.24-1.27,6.11-2,.17,1.33,1.07,2,2.6,2,2,0,3.07-1.07,3.07-2.73v-7.3h-1.72Z"/><rect class="cls-3" x="200.43" y="66.92" width="1.74" height="10.03"/></g></g></svg>