<svg xmlns="http://www.w3.org/2000/svg" viewBox="0 0 248.68 100"><defs><style>.cls-1{fill:none;}.cls-2{fill:#0066cb;}.cls-3{fill:#fff;}</style></defs><g id="Layer_2" data-name="Layer 2"><g id="Layer_1-2" data-name="Layer 1"><rect class="cls-1" width="248.68" height="100"/><path class="cls-2" d="M213.18,30.61A19.39,19.39,0,1,0,232.58,50,19.4,19.4,0,0,0,213.18,30.61Zm-7.33,11.48c1.63-2.54,4.7-2.23,9-2.09,3.55.13,7.2.56,9.54-.61.18-.09.37.12.33.36a6.27,6.27,0,0,1-.89,2.53c-1.62,2.53-4.7,2.23-9,2.08-3.54-.12-7.2-.56-9.53.62-.19.09-.37-.12-.34-.37A6.38,6.38,0,0,1,205.85,42.09Zm14.66,15.83c-1.62,2.54-4.7,2.23-9,2.08-3.54-.12-7.2-.56-9.53.62-.19.09-.37-.12-.34-.37a6.54,6.54,0,0,1,.89-2.52c1.63-2.54,4.71-2.23,9-2.09,3.54.13,7.2.56,9.54-.61.18-.09.37.12.33.36A6.27,6.27,0,0,1,220.51,57.92Zm-7.33-5c-5.69-.17-11.56-.75-15.31.82a.41.41,0,0,1-.54-.48,7.62,7.62,0,0,1,1.43-3.38c2.61-3.38,7.55-3,14.42-2.77,5.69.16,11.57.74,15.31-.82a.41.41,0,0,1,.54.48,7.63,7.63,0,0,1-1.42,3.37C225,53.51,220.05,53.11,213.18,52.91Z"/><path class="cls-3" d="M224.7,39.75a6.27,6.27,0,0,1-.89,2.53c-1.62,2.53-4.7,2.23-9,2.08-3.54-.12-7.2-.56-9.53.62-.19.09-.37-.12-.34-.37a6.38,6.38,0,0,1,.89-2.52c1.63-2.54,4.7-2.23,9-2.09,3.55.13,7.2.56,9.54-.61C224.55,39.3,224.74,39.51,224.7,39.75Z"/><path class="cls-3" d="M229,46.76a7.63,7.63,0,0,1-1.42,3.37c-2.62,3.38-7.56,3-14.43,2.78-5.69-.17-11.56-.75-15.31.82a.41.41,0,0,1-.54-.48,7.62,7.62,0,0,1,1.43-3.38c2.61-3.38,7.55-3,14.42-2.77,5.69.16,11.57.74,15.31-.82A.41.41,0,0,1,229,46.76Z"/><path class="cls-3" d="M221.4,55.39a6.27,6.27,0,0,1-.89,2.53c-1.62,2.54-4.7,2.23-9,2.08-3.54-.12-7.2-.56-9.53.62-.19.09-.37-.12-.34-.37a6.54,6.54,0,0,1,.89-2.52c1.63-2.54,4.71-2.23,9-2.09,3.54.13,7.2.56,9.54-.61C221.25,54.94,221.44,55.15,221.4,55.39Z"/><path class="cls-2" d="M19.64,42.75a.61.61,0,0,0,.61-.61.6.6,0,0,0-.61-.6.59.59,0,0,0-.6.6.6.6,0,0,0,.6.61"/><path class="cls-2" d="M18,42.73a.6.6,0,0,0,.6-.6.61.61,0,1,0-1.21,0,.6.6,0,0,0,.61.6"/><path class="cls-2" d="M113.5,54.48h-2.36a2.07,2.07,0,0,0-2.07,2.07v1.24a2.07,2.07,0,0,0,2.07,2.07h2.36a.29.29,0,0,0,.29-.29v-.31h-2.65a1.45,1.45,0,0,1-1.47-1.47V56.55a1.45,1.45,0,0,1,1.47-1.47h2.65v-.31a.29.29,0,0,0-.29-.29"/><path class="cls-2" d="M70.85,54.48H68.49a2.07,2.07,0,0,0-2.07,2.07v1.24a2.07,2.07,0,0,0,2.07,2.07h2.36a.29.29,0,0,0,.3-.29v-.31H68.49A1.46,1.46,0,0,1,67,57.79V56.55a1.45,1.45,0,0,1,1.47-1.47h2.66v-.31a.29.29,0,0,0-.3-.29"/><path class="cls-2" d="M138.45,59.51l.09,0-.09,0a1.48,1.48,0,0,1-.13-.61V56.23a.11.11,0,0,0-.1-.1h-.39v.51l-.17-.17a1.29,1.29,0,0,0-1-.4h0A1.63,1.63,0,0,0,135,57.69v.55a1.63,1.63,0,0,0,1.63,1.62H137a1.31,1.31,0,0,0,.81-.32l.12-.1,0,.15c0,.15.08.21.15.21h.45Zm-.62-1.09c0,.62-.42,1-1.17,1a1.16,1.16,0,0,1-1.15-1.14v-.55a1.16,1.16,0,0,1,1.15-1.13h0a1.14,1.14,0,0,1,1.14,1.13Z"/><path class="cls-2" d="M27.2,59.06a.49.49,0,0,1,0-.21v-4a.29.29,0,0,0-.29-.3h-.3v4.34a1.11,1.11,0,0,0,.13.52,1,1,0,0,0,.43.41,1.12,1.12,0,0,0,.5.11h.26V59.3H27.6a.44.44,0,0,1-.4-.24"/><path class="cls-2" d="M29.35,54.55a.36.36,0,1,0,.36.35.35.35,0,0,0-.36-.35"/><path class="cls-2" d="M29.36,56.05h-.31v3.84h.6V56.34a.29.29,0,0,0-.29-.29"/><path class="cls-2" d="M33.05,55.84a1.83,1.83,0,0,0-1,.35l-.12.08,0-.15a.28.28,0,0,0-.28-.21h-.3v4h.58V57.61a1.18,1.18,0,0,1,1.18-1.18c.53,0,.85.27.85.73v2.73h.59V57.16a1.46,1.46,0,0,0-.1-.52,1.34,1.34,0,0,0-1.34-.8"/><path class="cls-2" d="M38.85,58.08v-.6a1.63,1.63,0,0,0-1.63-1.67,1.61,1.61,0,0,0-1.64,1.67v.78a1.6,1.6,0,0,0,1.64,1.63,2.66,2.66,0,0,0,1.31-.33l.13-.1-.12-.28a.19.19,0,0,0-.13-.11.29.29,0,0,0-.24,0,2.17,2.17,0,0,1-1,.21,1,1,0,0,1-1-1v-.18Zm-2.69-.6v-.1a1,1,0,0,1,1-1,1,1,0,0,1,1,1v.1Z"/><path class="cls-2" d="M47.89,54.69,46.26,59l-1.54-4.05a.27.27,0,0,0-.26-.18H44l.67,1.77L43.75,59,42.12,54.7a.27.27,0,0,0-.26-.19h-.44l2,5.38H44l1-2.56,1,2.56h.56l2.06-5.38h-.44a.3.3,0,0,0-.27.18"/><path class="cls-2" d="M54.87,58.85V56.51h.82v-.6h-.82V54.8a.29.29,0,0,0-.29-.29h-.31v1.4h-.68v.6h.68v2.34a1,1,0,0,0,1.06,1h.44v-.6H55.3a.42.42,0,0,1-.43-.44"/><path class="cls-2" d="M60.08,58.08v-.6a1.64,1.64,0,1,0-3.27,0v.78a1.6,1.6,0,0,0,1.64,1.63,2.66,2.66,0,0,0,1.31-.33l.13-.1-.13-.28a.16.16,0,0,0-.12-.11.29.29,0,0,0-.24,0,2.14,2.14,0,0,1-.95.21,1,1,0,0,1-1.05-1v-.18Zm-2.69-.6v-.1a1,1,0,0,1,1.05-1,1,1,0,0,1,1,1v.1Z"/><path class="cls-2" d="M62.12,56.2l-.15.11v-.37a.17.17,0,0,0-.17-.17h-.43v4.12H62V57.63a1.25,1.25,0,0,1,.14-.59,1.2,1.2,0,0,1,1-.6h.54a.26.26,0,0,0,.27-.21l.11-.38h-.92a1.75,1.75,0,0,0-1,.35"/><path class="cls-2" d="M73.81,55.76h-.18a1.55,1.55,0,0,0-1.55,1.56v1a1.55,1.55,0,0,0,1.55,1.56h.18a1.56,1.56,0,0,0,1.55-1.56v-1a1.56,1.56,0,0,0-1.55-1.56m1,2.57a1,1,0,0,1-1,1h-.18a1,1,0,0,1-.95-1v-1a1,1,0,0,1,.95-1h.18a1,1,0,0,1,1,1Z"/><path class="cls-2" d="M78.42,55.84a1.84,1.84,0,0,0-1,.34l-.12.09,0-.15a.27.27,0,0,0-.27-.21h-.31v4h.59V57.61a1.17,1.17,0,0,1,1.17-1.18c.54,0,.85.27.85.73v2.73h.6V57.16a1.46,1.46,0,0,0-.11-.52,1.32,1.32,0,0,0-1.34-.8"/><path class="cls-2" d="M83.45,56.09l-1,2.81L81.3,56.09a.27.27,0,0,0-.25-.18H80.6l1.55,4h.52l1.48-4h-.43a.28.28,0,0,0-.27.18"/><path class="cls-2" d="M88.1,58.08v-.6a1.64,1.64,0,1,0-3.27,0v.78a1.6,1.6,0,0,0,1.64,1.63,2.66,2.66,0,0,0,1.31-.33l.13-.1-.13-.28a.16.16,0,0,0-.12-.11.29.29,0,0,0-.24,0,2.17,2.17,0,0,1-1,.21,1,1,0,0,1-1-1v-.18Zm-2.69-.6v-.1a1,1,0,0,1,1-1,1,1,0,0,1,1,1v.1Z"/><path class="cls-2" d="M90.14,56.2l-.16.11v-.37a.16.16,0,0,0-.16-.17h-.43v4.12H90V57.63a1.26,1.26,0,0,1,.15-.59,1.2,1.2,0,0,1,1-.6h.54a.26.26,0,0,0,.27-.21l.11-.38h-.92a1.75,1.75,0,0,0-1,.35"/><path class="cls-2" d="M94.75,57.6l-1.13-.25a.53.53,0,0,1-.31-.18.48.48,0,0,1-.08-.44.54.54,0,0,1,.55-.36h1.37l0-.29a.3.3,0,0,0-.08-.22.32.32,0,0,0-.21-.08h-1.1a1.11,1.11,0,0,0-1.16,1.1,1,1,0,0,0,.85,1l1.11.24a.52.52,0,0,1,.44.53.62.62,0,0,1-.61.63H92.89v.31a.29.29,0,0,0,.29.29h1.23a1.19,1.19,0,0,0,1.2-1.24,1,1,0,0,0-.86-1"/><path class="cls-2" d="M97.19,54.55a.36.36,0,1,0,.36.35.35.35,0,0,0-.36-.35"/><path class="cls-2" d="M97.2,56.05h-.31v3.84h.6V56.34a.29.29,0,0,0-.29-.29"/><path class="cls-2" d="M100.62,55.76h-.18a1.55,1.55,0,0,0-1.55,1.56v1a1.55,1.55,0,0,0,1.55,1.56h.18a1.56,1.56,0,0,0,1.55-1.56v-1a1.56,1.56,0,0,0-1.55-1.56m.95,2.57a1,1,0,0,1-.95,1h-.18a1,1,0,0,1-1-1v-1a1,1,0,0,1,1-1h.18a1,1,0,0,1,.95,1Z"/><path class="cls-2" d="M105.23,55.84a1.78,1.78,0,0,0-1,.35l-.12.08,0-.15a.28.28,0,0,0-.28-.21h-.3v4h.59V57.61a1.17,1.17,0,0,1,1.17-1.18c.53,0,.85.27.85.73v2.73h.59V57.16a1.46,1.46,0,0,0-.1-.52,1.33,1.33,0,0,0-1.34-.8"/><path class="cls-2" d="M116.48,55.76h-.18a1.55,1.55,0,0,0-1.55,1.56v1a1.55,1.55,0,0,0,1.55,1.56h.18A1.56,1.56,0,0,0,118,58.33v-1a1.56,1.56,0,0,0-1.55-1.56m1,2.57a1,1,0,0,1-1,1h-.18a1,1,0,0,1-1-1v-1a1,1,0,0,1,1-1h.18a1,1,0,0,1,1,1Z"/><path class="cls-2" d="M120,56.2l-.15.11v-.37a.17.17,0,0,0-.17-.17h-.43v4.12h.6V57.63A1.25,1.25,0,0,1,120,57a1.2,1.2,0,0,1,1-.6h.54a.26.26,0,0,0,.27-.21l.11-.38H121a1.75,1.75,0,0,0-1,.35"/><path class="cls-2" d="M124.52,55.77a2,2,0,0,0-1.08.27l-.08.05,0-.09a.32.32,0,0,0-.26-.15h-.31v5.61h.31a.29.29,0,0,0,.29-.29V59.44l.16.12a1.71,1.71,0,0,0,1,.34h0a1.76,1.76,0,0,0,1.78-1.77v-.58a1.76,1.76,0,0,0-1.82-1.78m1.23,2.36a1.21,1.21,0,0,1-1.19,1.18h0a1.17,1.17,0,0,1-1.17-1.18v-.91a1,1,0,0,1,.92-.84l.3,0a1.21,1.21,0,0,1,1.19,1.19Z"/><path class="cls-2" d="M129.16,55.76H129a1.56,1.56,0,0,0-1.56,1.56v1A1.56,1.56,0,0,0,129,59.89h.17a1.56,1.56,0,0,0,1.56-1.56v-1a1.56,1.56,0,0,0-1.56-1.56m1,2.57a1,1,0,0,1-1,1H129a1,1,0,0,1-1-1v-1a1,1,0,0,1,1-1h.17a1,1,0,0,1,1,1Z"/><path class="cls-2" d="M132.69,56.2l-.16.11v-.37a.16.16,0,0,0-.16-.17h-.43v4.12h.59V57.63a1.26,1.26,0,0,1,.15-.59,1.2,1.2,0,0,1,1-.6h.53a.27.27,0,0,0,.28-.21l.1-.38h-.91a1.72,1.72,0,0,0-1,.35"/><path class="cls-2" d="M140.86,58.85V56.51h.82v-.6h-.82V54.8a.29.29,0,0,0-.3-.29h-.3v1.4h-.69v.6h.69v2.34a1,1,0,0,0,1.06,1h.44v-.6h-.47a.42.42,0,0,1-.43-.44"/><path class="cls-2" d="M143.38,54.55a.36.36,0,1,0,.36.35.35.35,0,0,0-.36-.35"/><path class="cls-2" d="M143.38,56.05h-.3v3.84h.6V56.34a.29.29,0,0,0-.3-.29"/><path class="cls-2" d="M146.8,55.76h-.18a1.56,1.56,0,0,0-1.55,1.56v1a1.56,1.56,0,0,0,1.55,1.56h.18a1.55,1.55,0,0,0,1.55-1.56v-1a1.55,1.55,0,0,0-1.55-1.56m.95,2.57a1,1,0,0,1-.95,1h-.18a1,1,0,0,1-1-1v-1a1,1,0,0,1,1-1h.18a1,1,0,0,1,.95,1Z"/><path class="cls-2" d="M151.42,55.84a1.78,1.78,0,0,0-1,.35l-.12.08,0-.15a.29.29,0,0,0-.28-.21h-.31v4h.59V57.61a1.18,1.18,0,0,1,1.18-1.18c.53,0,.84.27.84.73v2.73h.6V57.16a1.27,1.27,0,0,0-.11-.52,1.32,1.32,0,0,0-1.33-.8"/><path class="cls-2" d="M19.74,56.87H17.65a.91.91,0,1,1,0-1.81h3.06a.27.27,0,0,0,.27-.27v-.27H17.62a1.45,1.45,0,1,0,0,2.89h2.05a1,1,0,1,1,0,2H16.48a.27.27,0,0,0-.27.26v.29h3.53a1.53,1.53,0,0,0,0-3.05"/><path class="cls-2" d="M25.22,59.61a1.45,1.45,0,0,1-.13-.59V56.46a.09.09,0,0,0-.09-.09h-.37v.49l-.17-.18a1.27,1.27,0,0,0-.93-.37h0a1.55,1.55,0,0,0-1.56,1.55v.53a1.56,1.56,0,0,0,1.56,1.55h.32a1.28,1.28,0,0,0,.78-.31l.12-.1,0,.15c0,.14.07.2.14.2h.42Zm-.59-1c0,.6-.4.92-1.13.92a1.12,1.12,0,0,1-1.11-1.09v-.53a1.12,1.12,0,0,1,1.11-1.1h0a1.1,1.1,0,0,1,1.1,1.1Z"/><path class="cls-2" d="M52.44,59.61a1.45,1.45,0,0,1-.12-.59V56.46a.09.09,0,0,0-.09-.09h-.37v.49l-.17-.18a1.27,1.27,0,0,0-.93-.37h0a1.55,1.55,0,0,0-1.55,1.55v.53a1.56,1.56,0,0,0,1.56,1.55H51a1.25,1.25,0,0,0,.78-.31l.12-.1,0,.15c.05.15.08.2.14.2h.43Zm-.58-1c0,.6-.4.92-1.14.92a1.12,1.12,0,0,1-1.1-1.09v-.53a1.12,1.12,0,0,1,1.1-1.1h0a1.1,1.1,0,0,1,1.1,1.1Z"/><path class="cls-2" d="M181.36,54.5H179a2.07,2.07,0,0,0-2.07,2.07v1.24A2.07,2.07,0,0,0,179,59.87h2.36a.28.28,0,0,0,.29-.29v-.3H179a1.46,1.46,0,0,1-1.47-1.47V56.57A1.46,1.46,0,0,1,179,55.09h2.65v-.3a.28.28,0,0,0-.29-.29"/><path class="cls-2" d="M175.07,54.5h-2.36a2.07,2.07,0,0,0-2.07,2.07v1.24a2.07,2.07,0,0,0,2.07,2.06h2.36a.28.28,0,0,0,.29-.29v-.3h-2.65a1.45,1.45,0,0,1-1.47-1.47V56.57a1.46,1.46,0,0,1,1.47-1.48h2.65v-.3a.29.29,0,0,0-.29-.29"/><path class="cls-2" d="M169.31,54.71,167.67,59l-1.53-4a.29.29,0,0,0-.27-.19h-.43l.66,1.78L165.16,59l-1.62-4.26a.28.28,0,0,0-.27-.18h-.44l2,5.38h.57l1-2.56,1,2.56H168L170,54.53h-.45a.27.27,0,0,0-.26.18"/><path class="cls-2" d="M160.78,56.89h-2.09a.91.91,0,1,1,0-1.82h3.07a.26.26,0,0,0,.26-.26v-.28h-3.36a1.45,1.45,0,0,0-1.5,1.45,1.43,1.43,0,0,0,1.5,1.45h2.05a1,1,0,1,1,0,2h-3.23a.27.27,0,0,0-.27.26v.29h3.54a1.53,1.53,0,0,0,0-3"/><path class="cls-2" d="M182.89,53.81s-.06,0-.09,0l-.16.19a5.37,5.37,0,0,1,.79,3.21,4.93,4.93,0,0,1-.79,3.15l.17.2a.12.12,0,0,0,.08,0,.14.14,0,0,0,.09,0,5.14,5.14,0,0,0,.85-3.35,5.14,5.14,0,0,0-.85-3.39.12.12,0,0,0-.09-.06"/><path class="cls-2" d="M156.48,54.05l-.16-.19a.1.1,0,0,0-.08,0h0a.12.12,0,0,0-.09.06,5.14,5.14,0,0,0-.84,3.39,5.14,5.14,0,0,0,.84,3.35.14.14,0,0,0,.09,0,.1.1,0,0,0,.08,0h0l.16-.2a4.93,4.93,0,0,1-.79-3.15,5.35,5.35,0,0,1,.79-3.21"/><path class="cls-2" d="M35,40.18a.47.47,0,0,0-.46.46v6c0,.63-.3.92-.69.92h-.63a.63.63,0,0,1-.72-.68l.45-.33-.06-.78L30,44.16a2.72,2.72,0,0,0-1.27-.31,3.86,3.86,0,0,0-1.27.31v.27a.45.45,0,0,0,.61.44,2,2,0,0,1,.66-.08,2,2,0,0,1,.9.24l2.21,1.25-.19.14h0v0l-.42.31a4.5,4.5,0,0,1-.72.44,4.36,4.36,0,0,1-1.79.4H21.34a.63.63,0,0,1-.72-.68v-.36a1.77,1.77,0,0,0,0-.23V43.85H18.31a2.22,2.22,0,0,0-2.21,2.21v.27a2.22,2.22,0,0,0,2.21,2.21h.12A2.21,2.21,0,0,0,20,47.9a1.58,1.58,0,0,0,1.35.64h7.32a5.51,5.51,0,0,0,1.6-.25,5.22,5.22,0,0,0,1.44-.75,1.57,1.57,0,0,0,1.54,1h.6a1.71,1.71,0,0,0,1.66-1.9V40.18ZM19.69,46.33a1.26,1.26,0,0,1-1.26,1.27h-.12A1.27,1.27,0,0,1,17,46.33v-.27a1.27,1.27,0,0,1,1.27-1.27h1.38Z"/><path class="cls-2" d="M47.19,40.18a.47.47,0,0,0-.46.46v6c0,.63-.3.92-.69.92h-.78a.63.63,0,0,1-.71-.68v-.87a2.24,2.24,0,0,0-2.23-2.22h-.26a2.22,2.22,0,0,0-2.22,2.22v.87a.63.63,0,0,1-.72.68h-.77c-.39,0-.69-.29-.69-.92v-6a.47.47,0,0,0-.46-.46h-.49v6.46a1.71,1.71,0,0,0,1.66,1.9h.75a1.59,1.59,0,0,0,1.36-.65,2.23,2.23,0,0,0,1.58.65h.26a2.25,2.25,0,0,0,1.59-.65,1.59,1.59,0,0,0,1.35.65H46a1.71,1.71,0,0,0,1.66-1.9V40.18ZM43.6,46.33a1.28,1.28,0,0,1-1.28,1.27h-.26a1.28,1.28,0,0,1-1.29-1.27v-.28a1.28,1.28,0,0,1,1.29-1.27h.26a1.28,1.28,0,0,1,1.28,1.27Z"/><path class="cls-2" d="M49.82,48V40.18h-.48a.47.47,0,0,0-.46.46v8l.62-.22a.44.44,0,0,0,.32-.42"/><path class="cls-2" d="M55.59,43.85a2.22,2.22,0,0,0-2.2,2.21v.27a2.21,2.21,0,0,0,2.2,2.21h.12a2.2,2.2,0,0,0,2.21-2.21V43.85ZM57,46.33a1.26,1.26,0,0,1-1.27,1.27h-.12a1.27,1.27,0,0,1-1.27-1.27v-.27a1.27,1.27,0,0,1,1.27-1.27H57Z"/><path class="cls-2" d="M64,50.07a.61.61,0,1,0-1.21,0,.61.61,0,0,0,1.21,0"/><path class="cls-2" d="M62.28,50.06a.61.61,0,1,0-.61.6.61.61,0,0,0,.61-.6"/><path class="cls-2" d="M73,40.18a.47.47,0,0,0-.46.46v6c0,.63-.3.92-.69.92h-.77a.63.63,0,0,1-.72-.68v-.87a2.23,2.23,0,0,0-2.22-2.22h-.27a2.23,2.23,0,0,0-2.22,2.22v.87a.63.63,0,0,1-.71.68H63.86a.61.61,0,0,1-.7-.68V43.76h-.49a.46.46,0,0,0-.45.46v2.7a.69.69,0,0,1-.71.68h-.93c-.39,0-.69-.29-.69-.92v-6a.46.46,0,0,0-.46-.46H59v6.46a1.71,1.71,0,0,0,1.65,1.9h.93a1.53,1.53,0,0,0,1.14-.46,1.68,1.68,0,0,0,1.19.46h1.07a1.61,1.61,0,0,0,1.36-.65,2.19,2.19,0,0,0,1.57.65h.27a2.25,2.25,0,0,0,1.58-.65,1.59,1.59,0,0,0,1.36.65h.75a1.71,1.71,0,0,0,1.66-1.9V40.18Zm-3.58,6.15a1.28,1.28,0,0,1-1.28,1.27h-.27a1.28,1.28,0,0,1-1.28-1.27v-.28a1.28,1.28,0,0,1,1.28-1.27h.27a1.28,1.28,0,0,1,1.28,1.27Z"/><path class="cls-2" d="M74.69,40.64v8l.62-.21a.46.46,0,0,0,.31-.43V40.18h-.47a.46.46,0,0,0-.46.46"/><path class="cls-2" d="M81.72,42.75a.61.61,0,0,0,.61-.61.61.61,0,0,0-1.21,0,.6.6,0,0,0,.6.61"/><path class="cls-2" d="M80,42.73a.6.6,0,0,0,.61-.6.61.61,0,0,0-.61-.61.6.6,0,0,0-.6.61.59.59,0,0,0,.6.6"/><path class="cls-2" d="M90.26,50.66a.61.61,0,1,0-.61-.61.6.6,0,0,0,.61.61"/><path class="cls-2" d="M91.94,49.46a.61.61,0,0,0,0,1.21.61.61,0,1,0,0-1.21"/><path class="cls-2" d="M106.93,42.75a.61.61,0,0,0,.61-.61.61.61,0,0,0-1.21,0,.6.6,0,0,0,.6.61"/><path class="cls-2" d="M105.25,42.73a.59.59,0,0,0,.6-.6.6.6,0,0,0-.6-.61.61.61,0,0,0-.61.61.6.6,0,0,0,.61.6"/><path class="cls-2" d="M109.58,40.18a.47.47,0,0,0-.47.46v6c0,.63-.3.92-.69.92h-1a.61.61,0,0,1-.7-.68V43.76h-.48a.46.46,0,0,0-.46.46v2.7a.68.68,0,0,1-.7.68h-1a.63.63,0,0,1-.72-.68l.45-.33-.06-.78-2.94-1.65a2.73,2.73,0,0,0-1.28-.31,4,4,0,0,0-1.27.31v.27a.46.46,0,0,0,.62.44,2,2,0,0,1,.65-.08,2,2,0,0,1,.91.24l2.21,1.25-.2.14h0v0l-.43.31a5,5,0,0,1-.71.44,4.36,4.36,0,0,1-1.79.4H95.78a.68.68,0,0,1-.69-.68V40.18h-.48a.46.46,0,0,0-.46.46v6.28a.63.63,0,0,1-.72.68h-1a.61.61,0,0,1-.7-.68V43.76h-.49a.46.46,0,0,0-.45.46v2.7a.69.69,0,0,1-.71.68H83.42a.63.63,0,0,1-.72-.68v-.36a.9.9,0,0,0,0-.23V43.85H80.39a2.22,2.22,0,0,0-2.2,2.21v.27a2.21,2.21,0,0,0,2.2,2.21h.12a2.19,2.19,0,0,0,1.56-.64,1.58,1.58,0,0,0,1.35.64h6.7a1.53,1.53,0,0,0,1.14-.46,1.68,1.68,0,0,0,1.19.46h1a1.62,1.62,0,0,0,1.2-.47,1.71,1.71,0,0,0,1.17.47h3.63a5.56,5.56,0,0,0,1.6-.25,5.37,5.37,0,0,0,1.44-.75,1.57,1.57,0,0,0,1.54,1h1a1.57,1.57,0,0,0,1.16-.46,1.64,1.64,0,0,0,1.18.46h1a1.71,1.71,0,0,0,1.66-1.9V40.18ZM81.77,46.33a1.25,1.25,0,0,1-1.26,1.27h-.12a1.27,1.27,0,0,1-1.27-1.27v-.27a1.27,1.27,0,0,1,1.27-1.27h1.38Z"/><path class="cls-2" d="M117.17,42.75a.6.6,0,0,0,.6-.61.59.59,0,0,0-.6-.6.6.6,0,0,0-.61.6.61.61,0,0,0,.61.61"/><path class="cls-2" d="M115.48,42.73a.6.6,0,0,0,.61-.6.61.61,0,1,0-1.21,0,.6.6,0,0,0,.6.6"/><path class="cls-2" d="M122.5,43.83h-.27A2.23,2.23,0,0,0,120,46.05v.28a1.85,1.85,0,0,0,0,.23v.36a.63.63,0,0,1-.71.68h-.45a.63.63,0,0,1-.71-.68v-.36a1.77,1.77,0,0,0,0-.23V43.85h-2.33a2.22,2.22,0,0,0-2.2,2.21v.27a2.21,2.21,0,0,0,2.2,2.21H116a2.21,2.21,0,0,0,1.56-.64,1.58,1.58,0,0,0,1.34.64h.45a1.61,1.61,0,0,0,1.36-.65,2.16,2.16,0,0,0,1.56.65h.27a2.21,2.21,0,0,0,2.22-2.21v-.28a2.23,2.23,0,0,0-2.22-2.22m-5.28,2.5A1.26,1.26,0,0,1,116,47.6h-.13a1.26,1.26,0,0,1-1.26-1.27v-.27a1.26,1.26,0,0,1,1.26-1.27h1.39Zm6.56,0a1.28,1.28,0,0,1-1.28,1.27h-.27A1.27,1.27,0,0,1,121,46.5v-.08h0v-.37a1.29,1.29,0,0,1,1.29-1.27h.27a1.28,1.28,0,0,1,1.28,1.27Z"/><path class="cls-2" d="M136.72,40.18a.47.47,0,0,0-.46.46v6c0,.63-.3.92-.69.92h-1.79a1.15,1.15,0,0,1-.82-.32l1.78-1.69A.86.86,0,0,0,135,45c0-.68-1.31-1.25-2.59-1.25a4.2,4.2,0,0,0-2.58.89l-.07.78,1.87,1.84h0a1.23,1.23,0,0,1-.86.32h-3.5c-.38,0-.68-.29-.68-.92v-6a.47.47,0,0,0-.47-.46h-.48v6.46a1.71,1.71,0,0,0,1.66,1.9h3.41a2.27,2.27,0,0,0,1.58-.61,2.27,2.27,0,0,0,1.58.61h1.7a1.71,1.71,0,0,0,1.66-1.9V40.18Zm-5.95,5a3.18,3.18,0,0,1,1.59-.42,3.12,3.12,0,0,1,1.54.39h0l-1.61,1.53Z"/><path class="cls-2" d="M138.42,40.64v8l.62-.21a.46.46,0,0,0,.31-.43V40.18h-.47a.46.46,0,0,0-.46.46"/><path class="cls-2" d="M144.3,42.73a.6.6,0,0,0,.61-.6.61.61,0,0,0-1.22,0,.6.6,0,0,0,.61.6"/><path class="cls-2" d="M146,42.75a.6.6,0,0,0,.6-.61.61.61,0,0,0-1.21,0,.61.61,0,0,0,.61.61"/><path class="cls-2" d="M166.37,43.54a.47.47,0,0,0-.46.46v2.92a.67.67,0,0,1-.7.68h-.66a.69.69,0,0,1-.71-.68V44.59h-.94v2.33a.69.69,0,0,1-.71.68h-.65a.68.68,0,0,1-.71-.68V44.36h-.48a.45.45,0,0,0-.46.45v2.11a.63.63,0,0,1-.72.68h-2.55a.63.63,0,0,1-.71-.68V43.54h-.49A.47.47,0,0,0,155,44v2.92a.67.67,0,0,1-.7.68h-.66a.69.69,0,0,1-.71-.68V44.59H152v2.33a.7.7,0,0,1-.72.68h-.65a.67.67,0,0,1-.7-.68V44.36h-.49a.46.46,0,0,0-.46.45v2.11a.63.63,0,0,1-.71.68h-.55a.63.63,0,0,1-.72-.68v-.36a.9.9,0,0,0,0-.23V43.85h-2.33a2.22,2.22,0,0,0-2.2,2.21v.27a2.21,2.21,0,0,0,2.2,2.21h.12a2.21,2.21,0,0,0,1.57-.64,1.56,1.56,0,0,0,1.34.64h.55a1.65,1.65,0,0,0,1.2-.47,1.63,1.63,0,0,0,1.16.47h.67a1.64,1.64,0,0,0,1.17-.47,1.63,1.63,0,0,0,1.16.47h.68a1.6,1.6,0,0,0,1.15-.46,1.65,1.65,0,0,0,1.2.46h2.55a1.62,1.62,0,0,0,1.2-.47,1.65,1.65,0,0,0,1.17.47h.66a1.62,1.62,0,0,0,1.17-.47,1.67,1.67,0,0,0,1.17.47h.68a1.61,1.61,0,0,0,1.63-1.67V43.54ZM146,46.33a1.25,1.25,0,0,1-1.26,1.27h-.12a1.27,1.27,0,0,1-1.27-1.27v-.27a1.27,1.27,0,0,1,1.27-1.27H146Z"/><path class="cls-2" d="M169,42.46a.25.25,0,0,0,.24.16h1.84V42h-1.13a.49.49,0,0,1-.14-.39.48.48,0,0,1,.49-.48h.29a.25.25,0,0,0,.23-.16l.15-.45h-.7a1.08,1.08,0,0,0-1,1.48h-.44Z"/><path class="cls-2" d="M181.3,40.18a.47.47,0,0,0-.46.46v6c0,.63-.3.92-.69.92h-.78a.63.63,0,0,1-.71-.68v-.87a2.24,2.24,0,0,0-2.23-2.22h-.26A2.22,2.22,0,0,0,174,46.05v.87a.63.63,0,0,1-.72.68h-1V46.06a2.23,2.23,0,0,0-2.22-2.21,2.2,2.2,0,0,0-2.2,2.21v.27a2.21,2.21,0,0,0,2.2,2.21h1.27v.38A1.28,1.28,0,0,1,170,50.19h-1.72l.21.61a.44.44,0,0,0,.42.33h1.14a2.23,2.23,0,0,0,2.22-2.21v-.38h1a1.59,1.59,0,0,0,1.36-.65,2.23,2.23,0,0,0,1.58.65h.26a2.25,2.25,0,0,0,1.59-.65,1.59,1.59,0,0,0,1.35.65h.75a1.71,1.71,0,0,0,1.67-1.9V40.18Zm-10,7.42h-1.27a1.26,1.26,0,0,1-1.26-1.27v-.27a1.27,1.27,0,1,1,2.53,0Zm6.4-1.27a1.28,1.28,0,0,1-1.29,1.27h-.26a1.28,1.28,0,0,1-1.29-1.27v-.28a1.28,1.28,0,0,1,1.29-1.27h.26a1.28,1.28,0,0,1,1.29,1.27Z"/><path class="cls-2" d="M183.46,40.18a.46.46,0,0,0-.46.46v8l.61-.21a.47.47,0,0,0,.32-.43V40.18Z"/></g></g></svg>