<svg xmlns="http://www.w3.org/2000/svg" viewBox="0 0 248.68 100"><defs><style>.cls-1{fill:none;}.cls-2{fill:#404040;}.cls-3{fill:#404041;}.cls-4{fill:#aad7ad;}.cls-5{fill:#4f8da7;}.cls-6{fill:#1fbab3;}.cls-7{fill:#047e79;}.cls-8{fill:#00bccc;}</style></defs><g id="Layer_2" data-name="Layer 2"><g id="Layer_1-2" data-name="Layer 1"><rect class="cls-1" width="248.68" height="100"/><path class="cls-2" d="M39.39,85.37h-2v-.65h4.73v.65h-2v5.9h-.72Z"/><path class="cls-2" d="M42.2,90.8A2.8,2.8,0,0,1,41.75,89a3.22,3.22,0,0,1,.48-2A2.1,2.1,0,0,1,45.16,87a2.52,2.52,0,0,1,.47,1.67l0,.54H42.47a2.81,2.81,0,0,0,.12.92.82.82,0,0,0,.44.47,2,2,0,0,0,.86.15h.63l.65,0,.28,0,0,.55a12.86,12.86,0,0,1-1.75.15A1.83,1.83,0,0,1,42.2,90.8Zm2.72-2.17a2.07,2.07,0,0,0-.28-1.23,1.05,1.05,0,0,0-.9-.36,1.19,1.19,0,0,0-1,.38,1.9,1.9,0,0,0-.32,1.21Z"/><path class="cls-2" d="M47.22,91.11a1.34,1.34,0,0,1-.6-.78,4.61,4.61,0,0,1-.18-1.43,3.63,3.63,0,0,1,.38-1.79,1.53,1.53,0,0,1,1.47-.68l.58,0c.2,0,.48.06.83.13l0,.57c-.5,0-.88-.08-1.15-.08a1.72,1.72,0,0,0-.83.16.92.92,0,0,0-.4.56,4,4,0,0,0-.12,1.12A4.31,4.31,0,0,0,47.28,90a1,1,0,0,0,.41.56,1.83,1.83,0,0,0,.87.17l1.12-.08,0,.58a10,10,0,0,1-1.37.13A2.11,2.11,0,0,1,47.22,91.11Z"/><path class="cls-2" d="M50.67,84.48h.71V86.8a5.11,5.11,0,0,1,.77-.27,3,3,0,0,1,.72-.09,1.75,1.75,0,0,1,1,.23,1.19,1.19,0,0,1,.47.72,5.52,5.52,0,0,1,.14,1.38v2.5h-.71V88.79a5.29,5.29,0,0,0-.08-1.05.82.82,0,0,0-.31-.51,1.16,1.16,0,0,0-.65-.15,3.14,3.14,0,0,0-1.13.22l-.18.06v3.91h-.71Z"/><path class="cls-2" d="M55.66,86.54h.7v.33a3.13,3.13,0,0,1,.78-.33,2.94,2.94,0,0,1,.74-.1,1.67,1.67,0,0,1,.94.23,1.27,1.27,0,0,1,.47.72,5.65,5.65,0,0,1,.13,1.38v2.5h-.7V88.79a4.59,4.59,0,0,0-.08-1,.85.85,0,0,0-.29-.52,1,1,0,0,0-.6-.16,3,3,0,0,0-.66.08,2.43,2.43,0,0,0-.54.18l-.18.09v3.84h-.71Z"/><path class="cls-2" d="M60.64,84.65h.7v.82h-.7Zm0,1.89h.7v4.73h-.7Z"/><path class="cls-2" d="M63.13,91.11a1.33,1.33,0,0,1-.59-.78,4.61,4.61,0,0,1-.18-1.43,3.64,3.64,0,0,1,.37-1.79,1.55,1.55,0,0,1,1.47-.68l.59,0c.2,0,.47.06.82.13l0,.57c-.5,0-.88-.08-1.14-.08a1.7,1.7,0,0,0-.83.16.94.94,0,0,0-.41.56,4.11,4.11,0,0,0-.11,1.12A3.89,3.89,0,0,0,63.2,90a.92.92,0,0,0,.41.56,1.83,1.83,0,0,0,.87.17l1.11-.08,0,.58a9.91,9.91,0,0,1-1.36.13A2.18,2.18,0,0,1,63.13,91.11Z"/><path class="cls-2" d="M66.62,91a1.55,1.55,0,0,1-.34-1.06,1.35,1.35,0,0,1,.35-1,1.83,1.83,0,0,1,1.1-.4l1.49-.15V88q0-.9-.78-.9a17.5,17.5,0,0,0-1.86.12l0-.54a9.11,9.11,0,0,1,1.84-.21A1.33,1.33,0,0,1,69.93,88v2.42c0,.23.2.37.55.42l0,.55A1.54,1.54,0,0,1,69.32,91a4.14,4.14,0,0,1-1.7.37A1.32,1.32,0,0,1,66.62,91ZM69,90.55l.22-.07V88.91l-1.4.14a.89.89,0,0,0-.62.24.86.86,0,0,0-.19.61q0,.87.72.87A3.77,3.77,0,0,0,69,90.55Z"/><path class="cls-2" d="M71.29,84.48H72v6.79h-.71Z"/><path class="cls-2" d="M75.35,91A1.5,1.5,0,0,1,75,89.94a1.35,1.35,0,0,1,.34-1,1.84,1.84,0,0,1,1.11-.4l1.48-.15V88c0-.6-.26-.9-.77-.9a17.51,17.51,0,0,0-1.87.12l0-.54a9.2,9.2,0,0,1,1.85-.21,1.64,1.64,0,0,1,1.17.37A1.6,1.6,0,0,1,78.65,88v2.42c0,.23.2.37.55.42l0,.55A1.51,1.51,0,0,1,78.05,91a4.18,4.18,0,0,1-1.71.37A1.31,1.31,0,0,1,75.35,91Zm2.37-.45.22-.07V88.91l-1.4.14a.75.75,0,0,0-.8.85q0,.87.72.87A3.72,3.72,0,0,0,77.72,90.55Z"/><path class="cls-2" d="M80,86.54h.7v.33a3.13,3.13,0,0,1,.78-.33,2.94,2.94,0,0,1,.74-.1,1.67,1.67,0,0,1,.94.23,1.27,1.27,0,0,1,.47.72,5.65,5.65,0,0,1,.13,1.38v2.5H83V88.79a4.59,4.59,0,0,0-.08-1,.85.85,0,0,0-.29-.52,1,1,0,0,0-.6-.16,3,3,0,0,0-.66.08,2.43,2.43,0,0,0-.54.18l-.18.09v3.84H80Z"/><path class="cls-2" d="M85.12,90.78A3.26,3.26,0,0,1,84.74,89,3.22,3.22,0,0,1,85.2,87a1.86,1.86,0,0,1,1.55-.6,5.68,5.68,0,0,1,1.13.13V84.48h.7v6.79h-.7V91a2.93,2.93,0,0,1-1.47.41A1.43,1.43,0,0,1,85.12,90.78Zm2-.13a3,3,0,0,0,.55-.18l.19-.09V87.17a6.57,6.57,0,0,0-1.07-.11,1.18,1.18,0,0,0-1,.43,2.62,2.62,0,0,0-.3,1.44,2.81,2.81,0,0,0,.25,1.36.87.87,0,0,0,.83.44A2.68,2.68,0,0,0,87.14,90.65Z"/><path class="cls-2" d="M91.39,84.72h.75l1.51,5.91h.53l1.5-5.91h.76l-1.71,6.55H93.1Z"/><path class="cls-2" d="M97.57,91.11a1.36,1.36,0,0,1-.64-.78,4.41,4.41,0,0,1-.19-1.4,4.33,4.33,0,0,1,.2-1.44,1.44,1.44,0,0,1,.65-.79,2.35,2.35,0,0,1,1.18-.26,2.39,2.39,0,0,1,1.19.26,1.54,1.54,0,0,1,.64.79,4.36,4.36,0,0,1,.19,1.44,4.14,4.14,0,0,1-.19,1.4,1.33,1.33,0,0,1-.62.78,2.45,2.45,0,0,1-1.21.25A2.38,2.38,0,0,1,97.57,91.11Zm2-.54A.92.92,0,0,0,100,90a4.42,4.42,0,0,0,.1-1.09A4.15,4.15,0,0,0,100,87.8a.87.87,0,0,0-.39-.57,1.5,1.5,0,0,0-.78-.17,1.55,1.55,0,0,0-.79.17.92.92,0,0,0-.4.57,4.08,4.08,0,0,0-.12,1.13A4.31,4.31,0,0,0,97.58,90a.87.87,0,0,0,.39.56,1.5,1.5,0,0,0,.81.18A1.44,1.44,0,0,0,99.57,90.57Z"/><path class="cls-2" d="M102.43,91.11a1.34,1.34,0,0,1-.6-.78,4.61,4.61,0,0,1-.18-1.43,3.63,3.63,0,0,1,.38-1.79,1.54,1.54,0,0,1,1.47-.68l.59,0c.2,0,.47.06.82.13l0,.57c-.5,0-.88-.08-1.14-.08a1.7,1.7,0,0,0-.83.16.94.94,0,0,0-.41.56,4,4,0,0,0-.12,1.12A3.83,3.83,0,0,0,102.5,90a.92.92,0,0,0,.41.56,1.82,1.82,0,0,0,.86.17l1.12-.08,0,.58a10.05,10.05,0,0,1-1.36.13A2.15,2.15,0,0,1,102.43,91.11Z"/><path class="cls-2" d="M105.92,91a1.55,1.55,0,0,1-.34-1.06,1.35,1.35,0,0,1,.35-1,1.81,1.81,0,0,1,1.1-.4l1.49-.15V88q0-.9-.78-.9a17.5,17.5,0,0,0-1.86.12l0-.54a9.11,9.11,0,0,1,1.84-.21A1.32,1.32,0,0,1,109.22,88v2.42c0,.23.21.37.55.42l0,.55a1.54,1.54,0,0,1-1.13-.37,4.14,4.14,0,0,1-1.7.37A1.32,1.32,0,0,1,105.92,91Zm2.38-.45.22-.07V88.91l-1.41.14a.88.88,0,0,0-.61.24.86.86,0,0,0-.19.61q0,.87.72.87A3.82,3.82,0,0,0,108.3,90.55Z"/><path class="cls-2" d="M111.28,91.22a.86.86,0,0,1-.38-.53,3.6,3.6,0,0,1-.12-1V87.15h-.68v-.61h.68V85.09h.7v1.45H113v.61h-1.5v2.27a7.68,7.68,0,0,0,0,.79.66.66,0,0,0,.19.39.67.67,0,0,0,.46.14l.84-.06,0,.59a7.09,7.09,0,0,1-1,.1A1.57,1.57,0,0,1,111.28,91.22Z"/><path class="cls-2" d="M113.76,84.65h.7v.82h-.7Zm0,1.89h.7v4.73h-.7Z"/><path class="cls-2" d="M116.28,91.11a1.38,1.38,0,0,1-.63-.78,4.14,4.14,0,0,1-.19-1.4,4.33,4.33,0,0,1,.2-1.44,1.42,1.42,0,0,1,.64-.79,2.39,2.39,0,0,1,1.19-.26,2.35,2.35,0,0,1,1.18.26,1.45,1.45,0,0,1,.64.79,4.33,4.33,0,0,1,.2,1.44,4.14,4.14,0,0,1-.19,1.4,1.31,1.31,0,0,1-.63.78,2.38,2.38,0,0,1-1.2.25A2.45,2.45,0,0,1,116.28,91.11Zm2-.54a.9.9,0,0,0,.38-.55,3.92,3.92,0,0,0,.11-1.09,4.59,4.59,0,0,0-.11-1.13,1,1,0,0,0-.39-.57,1.5,1.5,0,0,0-.78-.17,1.52,1.52,0,0,0-.79.17.92.92,0,0,0-.4.57,4.08,4.08,0,0,0-.12,1.13A4.31,4.31,0,0,0,116.3,90a.87.87,0,0,0,.39.56,1.47,1.47,0,0,0,.81.18A1.44,1.44,0,0,0,118.29,90.57Z"/><path class="cls-2" d="M120.57,86.54h.7v.33a3.29,3.29,0,0,1,.78-.33,3.07,3.07,0,0,1,.74-.1,1.65,1.65,0,0,1,.94.23,1.22,1.22,0,0,1,.47.72,5.57,5.57,0,0,1,.14,1.38v2.5h-.7V88.79a5.27,5.27,0,0,0-.08-1,.9.9,0,0,0-.29-.52,1,1,0,0,0-.61-.16,3.13,3.13,0,0,0-.66.08,2.43,2.43,0,0,0-.54.18l-.18.09v3.84h-.71Z"/><path class="cls-2" d="M125.6,91a1.5,1.5,0,0,1-.35-1.06,1.35,1.35,0,0,1,.35-1,1.83,1.83,0,0,1,1.1-.4l1.49-.15V88q0-.9-.78-.9a17.5,17.5,0,0,0-1.86.12l0-.54a9.12,9.12,0,0,1,1.85-.21,1.6,1.6,0,0,1,1.16.37A1.55,1.55,0,0,1,128.9,88v2.42c0,.23.2.37.55.42l0,.55a1.54,1.54,0,0,1-1.13-.37,4.14,4.14,0,0,1-1.7.37A1.28,1.28,0,0,1,125.6,91Zm2.37-.45.22-.07V88.91l-1.4.14a.89.89,0,0,0-.62.24.91.91,0,0,0-.19.61q0,.87.72.87A3.73,3.73,0,0,0,128,90.55Z"/><path class="cls-2" d="M130.26,84.48H131v6.79h-.71Z"/><path class="cls-2" d="M135.74,85.37h-2v-.65h4.74v.65h-2v5.9h-.72Z"/><path class="cls-2" d="M138.35,86.54h.7v.64a4.82,4.82,0,0,1,1.73-.75v.72a5.38,5.38,0,0,0-.8.24c-.28.1-.51.2-.68.28l-.24.13v3.47h-.71Z"/><path class="cls-2" d="M141.57,91a1.5,1.5,0,0,1-.34-1.06,1.35,1.35,0,0,1,.34-1,1.84,1.84,0,0,1,1.11-.4l1.48-.15V88c0-.6-.26-.9-.77-.9a17.51,17.51,0,0,0-1.87.12l0-.54a9.2,9.2,0,0,1,1.85-.21,1.64,1.64,0,0,1,1.17.37,1.6,1.6,0,0,1,.36,1.16v2.42c0,.23.2.37.55.42l0,.55a1.51,1.51,0,0,1-1.12-.37,4.18,4.18,0,0,1-1.71.37A1.31,1.31,0,0,1,141.57,91Zm2.37-.45.22-.07V88.91l-1.4.14a.75.75,0,0,0-.8.85q0,.87.72.87A3.72,3.72,0,0,0,143.94,90.55Z"/><path class="cls-2" d="M146.18,84.65h.7v.82h-.7Zm0,1.89h.7v4.73h-.7Z"/><path class="cls-2" d="M148.15,86.54h.7v.33a3.13,3.13,0,0,1,.78-.33,2.94,2.94,0,0,1,.74-.1,1.7,1.7,0,0,1,.94.23,1.21,1.21,0,0,1,.46.72,5.13,5.13,0,0,1,.14,1.38v2.5h-.7V88.79a5.27,5.27,0,0,0-.08-1,.85.85,0,0,0-.29-.52,1,1,0,0,0-.6-.16,3,3,0,0,0-.66.08,2.36,2.36,0,0,0-.55.18l-.18.09v3.84h-.7Z"/><path class="cls-2" d="M153.13,84.65h.7v.82h-.7Zm0,1.89h.7v4.73h-.7Z"/><path class="cls-2" d="M155.1,86.54h.7v.33a3.13,3.13,0,0,1,.78-.33,3,3,0,0,1,.74-.1,1.65,1.65,0,0,1,.94.23,1.22,1.22,0,0,1,.47.72,5.57,5.57,0,0,1,.14,1.38v2.5h-.7V88.79a5.27,5.27,0,0,0-.08-1,.9.9,0,0,0-.29-.52,1,1,0,0,0-.61-.16,3.13,3.13,0,0,0-.66.08,2.43,2.43,0,0,0-.54.18l-.18.09v3.84h-.71Z"/><path class="cls-2" d="M160.32,93.18a1.23,1.23,0,0,1-.44-1.06,1.34,1.34,0,0,1,.07-.49,1,1,0,0,1,.22-.35,4.67,4.67,0,0,1,.46-.39.46.46,0,0,1-.2-.25.92.92,0,0,1-.07-.36.7.7,0,0,1,.06-.27,4.77,4.77,0,0,1,.26-.52,1.37,1.37,0,0,1-.74-1.42,1.53,1.53,0,0,1,.44-1.22,1.94,1.94,0,0,1,1.34-.41,4.48,4.48,0,0,1,1,.13l1.4,0v.61l-.9,0a.86.86,0,0,1,.24.39,1.94,1.94,0,0,1,.07.59,1.47,1.47,0,0,1-.43,1.2,2.14,2.14,0,0,1-1.37.36,2.25,2.25,0,0,1-.49,0l-.12.33a.92.92,0,0,0-.05.25.3.3,0,0,0,.2.32,1.76,1.76,0,0,0,.6.08h.37a4.49,4.49,0,0,1,1,.09,1,1,0,0,1,.6.39,1.47,1.47,0,0,1,.2.83,1.42,1.42,0,0,1-.51,1.21,2.9,2.9,0,0,1-1.68.37A2.66,2.66,0,0,1,160.32,93.18Zm2.66-.5a.81.81,0,0,0,.31-.73.85.85,0,0,0-.1-.46.58.58,0,0,0-.35-.21,3.16,3.16,0,0,0-.71-.06l-1,0a1.63,1.63,0,0,0-.42.39.89.89,0,0,0-.11.46.74.74,0,0,0,.29.68,2,2,0,0,0,1,.19A2,2,0,0,0,163,92.68Zm-.43-3.82a1.12,1.12,0,0,0,.24-.81,1.08,1.08,0,0,0-.24-.79,1.54,1.54,0,0,0-1.65,0,1.41,1.41,0,0,0,0,1.6,1.2,1.2,0,0,0,.82.23A1.23,1.23,0,0,0,162.55,88.86Z"/><path class="cls-2" d="M167.66,91a1.87,1.87,0,0,1-.74-1.09,9.13,9.13,0,0,1,0-3.8,1.91,1.91,0,0,1,.72-1.1,2.59,2.59,0,0,1,1.51-.37,8.79,8.79,0,0,1,1.77.21l0,.61a9.81,9.81,0,0,0-1.64-.17,2,2,0,0,0-1.12.26,1.46,1.46,0,0,0-.52.86,8.16,8.16,0,0,0-.13,1.7,7.39,7.39,0,0,0,.12,1.51,1.36,1.36,0,0,0,.53.82,2.09,2.09,0,0,0,1.2.28,8,8,0,0,0,1.56-.17l0,.63a8.83,8.83,0,0,1-1.72.19A2.68,2.68,0,0,1,167.66,91Z"/><path class="cls-2" d="M172.42,91.11a1.36,1.36,0,0,1-.64-.78,4.41,4.41,0,0,1-.19-1.4,4.33,4.33,0,0,1,.2-1.44,1.4,1.4,0,0,1,.65-.79,2.35,2.35,0,0,1,1.18-.26,2.39,2.39,0,0,1,1.19.26,1.48,1.48,0,0,1,.63.79,4.08,4.08,0,0,1,.2,1.44,4.14,4.14,0,0,1-.19,1.4,1.31,1.31,0,0,1-.63.78,3,3,0,0,1-2.4,0Zm2-.54a.92.92,0,0,0,.39-.55,4.42,4.42,0,0,0,.1-1.09,4.15,4.15,0,0,0-.11-1.13.87.87,0,0,0-.39-.57,1.5,1.5,0,0,0-.78-.17,1.55,1.55,0,0,0-.79.17.92.92,0,0,0-.4.57,4.08,4.08,0,0,0-.12,1.13,4.31,4.31,0,0,0,.11,1.08.87.87,0,0,0,.39.56,1.47,1.47,0,0,0,.81.18A1.44,1.44,0,0,0,174.42,90.57Z"/><path class="cls-2" d="M176.7,86.54h.7v.64a4.87,4.87,0,0,1,1.74-.75v.72a4.76,4.76,0,0,0-.8.24,6.86,6.86,0,0,0-.69.28l-.24.13v3.47h-.71Z"/><path class="cls-2" d="M179.88,86.54h.7v.34a3.78,3.78,0,0,1,.72-.33,2.48,2.48,0,0,1,.73-.11,1.44,1.44,0,0,1,1.28.59,3.27,3.27,0,0,1,.41,1.85,4.06,4.06,0,0,1-.21,1.44,1.45,1.45,0,0,1-.66.79,2.56,2.56,0,0,1-1.23.25,5.07,5.07,0,0,1-1-.1v2.11h-.71Zm2.8,3.77A2.44,2.44,0,0,0,183,88.9a2.72,2.72,0,0,0-.27-1.39.9.9,0,0,0-.82-.43,2.12,2.12,0,0,0-.59.09,3.87,3.87,0,0,0-.55.19l-.18.1v3.19a7.69,7.69,0,0,0,1,.1A1.19,1.19,0,0,0,182.68,90.31Z"/><path class="cls-2" d="M185.39,91.11a1.31,1.31,0,0,1-.63-.78,4.14,4.14,0,0,1-.19-1.4,4.08,4.08,0,0,1,.2-1.44,1.38,1.38,0,0,1,.64-.79,2.83,2.83,0,0,1,2.37,0,1.49,1.49,0,0,1,.64.79,4.33,4.33,0,0,1,.2,1.44,4.41,4.41,0,0,1-.19,1.4,1.38,1.38,0,0,1-.63.78,3,3,0,0,1-2.41,0Zm2-.54a.9.9,0,0,0,.38-.55,4.34,4.34,0,0,0,.11-1.09,4.08,4.08,0,0,0-.12-1.13.9.9,0,0,0-.38-.57,1.92,1.92,0,0,0-1.58,0,1,1,0,0,0-.4.57,4.15,4.15,0,0,0-.11,1.13,4.39,4.39,0,0,0,.1,1.08,1,1,0,0,0,.39.56,1.52,1.52,0,0,0,.81.18A1.48,1.48,0,0,0,187.4,90.57Z"/><path class="cls-2" d="M189.68,86.54h.7v.64a4.82,4.82,0,0,1,1.73-.75v.72a5.05,5.05,0,0,0-.8.24,6.86,6.86,0,0,0-.69.28l-.23.13v3.47h-.71Z"/><path class="cls-2" d="M192.89,91a1.55,1.55,0,0,1-.34-1.06,1.35,1.35,0,0,1,.35-1,1.83,1.83,0,0,1,1.1-.4l1.49-.15V88q0-.9-.78-.9a17.5,17.5,0,0,0-1.86.12l0-.54a9.11,9.11,0,0,1,1.84-.21,1.61,1.61,0,0,1,1.17.37A1.55,1.55,0,0,1,196.2,88v2.42c0,.23.2.37.55.42l0,.55a1.54,1.54,0,0,1-1.13-.37,4.14,4.14,0,0,1-1.7.37A1.32,1.32,0,0,1,192.89,91Zm2.38-.45.22-.07V88.91l-1.4.14a.89.89,0,0,0-.62.24.91.91,0,0,0-.19.61q0,.87.72.87A3.77,3.77,0,0,0,195.27,90.55Z"/><path class="cls-2" d="M198.25,91.22a.94.94,0,0,1-.38-.53,3.6,3.6,0,0,1-.12-1V87.15h-.67v-.61h.67V85.09h.7v1.45H200v.61h-1.5v2.27a5.28,5.28,0,0,0,0,.79.6.6,0,0,0,.18.39.67.67,0,0,0,.46.14l.84-.06.05.59a7.09,7.09,0,0,1-1,.1A1.6,1.6,0,0,1,198.25,91.22Z"/><path class="cls-2" d="M200.73,84.65h.7v.82h-.7Zm0,1.89h.7v4.73h-.7Z"/><path class="cls-2" d="M203.26,91.11a1.36,1.36,0,0,1-.64-.78,4.41,4.41,0,0,1-.19-1.4,4.33,4.33,0,0,1,.2-1.44,1.42,1.42,0,0,1,.64-.79,2.41,2.41,0,0,1,1.19-.26,2.39,2.39,0,0,1,1.19.26,1.48,1.48,0,0,1,.63.79,4.08,4.08,0,0,1,.2,1.44,4.14,4.14,0,0,1-.19,1.4,1.31,1.31,0,0,1-.63.78,3,3,0,0,1-2.4,0Zm2-.54a1,1,0,0,0,.39-.55,4.42,4.42,0,0,0,.1-1.09,4.15,4.15,0,0,0-.11-1.13.91.91,0,0,0-.39-.57,1.5,1.5,0,0,0-.78-.17,1.55,1.55,0,0,0-.79.17.92.92,0,0,0-.4.57,4.08,4.08,0,0,0-.12,1.13,4.31,4.31,0,0,0,.11,1.08.87.87,0,0,0,.39.56,1.47,1.47,0,0,0,.81.18A1.44,1.44,0,0,0,205.26,90.57Z"/><path class="cls-2" d="M207.54,86.54h.7v.33a3.47,3.47,0,0,1,.78-.33,3.08,3.08,0,0,1,.75-.1,1.64,1.64,0,0,1,.93.23,1.22,1.22,0,0,1,.47.72,5.57,5.57,0,0,1,.14,1.38v2.5h-.7V88.79a5.27,5.27,0,0,0-.08-1,.9.9,0,0,0-.29-.52,1,1,0,0,0-.61-.16,3,3,0,0,0-.65.08,2.36,2.36,0,0,0-.55.18l-.18.09v3.84h-.71Z"/><path class="cls-3" d="M46,78.9h-1.2v0a2.51,2.51,0,0,1-.57,1.75,2.1,2.1,0,0,1-1.62.62H40a3.16,3.16,0,0,1-1.31-.26,2.25,2.25,0,0,1-1-.75,1.81,1.81,0,0,1-.37-1.14,14.59,14.59,0,0,1,.25-2.09l.87.14A16.52,16.52,0,0,0,38.3,79a1.35,1.35,0,0,0,.23.78,1.4,1.4,0,0,0,.6.53,1.9,1.9,0,0,0,.86.19h2.6a1.22,1.22,0,0,0,1-.39A1.62,1.62,0,0,0,43.91,79V78.9h-.18a3.64,3.64,0,0,1-.68-.07,1.84,1.84,0,0,1-.61-.27l.39-.7a.93.93,0,0,0,.4.17,2.89,2.89,0,0,0,.58,0H46Zm-6,3.12h.82V83h-.82Zm1.3,0h.82V83h-.82Z"/><path class="cls-3" d="M50.11,78.07v.83H46v-.83h1.46V74h.92v4Zm-2.65-5.91h.88v1h-.88Z"/><path class="cls-3" d="M58,78.07v.83h-7.9v-.83H51.2v-.61a1.73,1.73,0,0,1,.25-.91,2,2,0,0,1,.67-.68,1.84,1.84,0,0,1,1.85,0,1.77,1.77,0,0,1,.66.67,1.74,1.74,0,0,1,.25.92v.61h1.27V76.85a2.37,2.37,0,0,0-.72-2,2.86,2.86,0,0,0-1.77-.56,13.12,13.12,0,0,0-2.13.27l-.07-.73a9.83,9.83,0,0,1,2.38-.37,3.87,3.87,0,0,1,1.67.35A2.73,2.73,0,0,1,56.66,75a3.83,3.83,0,0,1,.42,1.89v1.23Zm-5.62-1.34a.91.91,0,0,0-.26.67v.67H54v-.68a.93.93,0,0,0-.26-.66.9.9,0,0,0-.66-.27A.88.88,0,0,0,52.39,76.73Z"/><path class="cls-3" d="M66.4,78.07v.83H66a.7.7,0,0,1-.37-.12,1.12,1.12,0,0,1-.33-.28v.4H58v-.83h3.07a9.53,9.53,0,0,1-.14-1.57A8.86,8.86,0,0,1,61,75.25a7.72,7.72,0,0,1,.2-1A3.24,3.24,0,0,1,62,74a5.24,5.24,0,0,1,1-.09,2.37,2.37,0,0,1,1.82.6,2.78,2.78,0,0,1,.55,1.94v1.21a.86.86,0,0,0,.29.28.73.73,0,0,0,.41.12Zm-4.5-.7a6.47,6.47,0,0,0,.1.7h2.39V76.44A1.83,1.83,0,0,0,64,75.15a1.57,1.57,0,0,0-1.2-.4,3.59,3.59,0,0,0-.81.09,10.12,10.12,0,0,0-.15,1.66A8.44,8.44,0,0,0,61.9,77.37Z"/><path class="cls-3" d="M68.53,72v7H66.4v-.83h1.2V72Z"/><path class="cls-3" d="M70.22,72h.93v7h-.93Z"/><path class="cls-3" d="M75.58,73.9a9.56,9.56,0,0,1,1,.14v4.17a5.61,5.61,0,0,1-.38,2.29,1.45,1.45,0,0,1-1.44.81,14.23,14.23,0,0,1-1.54-.15v-.83a10.3,10.3,0,0,0,1.47.15,1.08,1.08,0,0,0,.54-.11.78.78,0,0,0,.31-.47,3.58,3.58,0,0,0,.11-1H74.26a1.53,1.53,0,0,1-1.49-.7,3.8,3.8,0,0,1-.35-1.71A4.56,4.56,0,0,1,72.63,75a1.47,1.47,0,0,1,.66-.85,2.51,2.51,0,0,1,1.26-.26A10,10,0,0,1,75.58,73.9Zm-2,3.71a1,1,0,0,0,1,.46h1V74.73a7.08,7.08,0,0,0-.85-.07,1.28,1.28,0,0,0-1.1.42,2.45,2.45,0,0,0-.32,1.38A2.42,2.42,0,0,0,73.58,77.61Z"/><path class="cls-3" d="M88.29,78.9h-1.2v0a2.51,2.51,0,0,1-.57,1.75,2.1,2.1,0,0,1-1.62.62H82.29A3.24,3.24,0,0,1,81,81.05a2.37,2.37,0,0,1-1-.75,1.87,1.87,0,0,1-.37-1.14,15.06,15.06,0,0,1,.26-2.09l.86.14A15.58,15.58,0,0,0,80.55,79a1.35,1.35,0,0,0,.22.78,1.49,1.49,0,0,0,.61.53,1.87,1.87,0,0,0,.86.19h2.6a1.2,1.2,0,0,0,1-.39A1.57,1.57,0,0,0,86.16,79V78.9H86a3.64,3.64,0,0,1-.68-.07,1.89,1.89,0,0,1-.62-.27l.39-.7a1,1,0,0,0,.4.17,3.07,3.07,0,0,0,.59,0h2.23Zm-6,3.12h.83V83h-.83Zm1.31,0h.82V83h-.82Z"/><path class="cls-3" d="M92.06,78.07v.83H88.23v-.83h1.46V74h.92v4Zm-2.35-5.91h.88v1h-.88Z"/><path class="cls-3" d="M98.12,78.07v.83H92.06v-.83h1.27a4.31,4.31,0,0,1-.22-1.56,3.93,3.93,0,0,1,.23-1.5,1.47,1.47,0,0,1,.75-.76A3.66,3.66,0,0,1,95.52,74a11.49,11.49,0,0,1,1.37.07l.34,0v3.93Zm-4-.54a2,2,0,0,0,.23.54h2V74.88l-.85,0a1.78,1.78,0,0,0-.89.17.87.87,0,0,0-.42.53,3.57,3.57,0,0,0-.12,1A3.77,3.77,0,0,0,94.12,77.53Zm.07-5.36H95v.94h-.83Zm1.31,0h.82v.94H95.5Z"/><path class="cls-3" d="M102,78.07v.83H98.12v-.83h1.45V74h.93v4Zm-3-5.9h.83v.94H99Zm1.3,0h.82v.94h-.82Z"/><path class="cls-3" d="M104.08,72v7H102v-.83h1.2V72Z"/><path class="cls-3" d="M105.77,72h.93v7h-.93Z"/><path class="cls-3" d="M118.1,78.07v.83h-5.25a5.84,5.84,0,0,1-1.46-.15,1.54,1.54,0,0,1-.85-.51,1.59,1.59,0,0,1-.29-1,7,7,0,0,1,.09-1c.06-.39.13-.77.21-1.13l.73,0-.09.72a11.21,11.21,0,0,0-.11,1.16.91.91,0,0,0,.37.82,2.67,2.67,0,0,0,1.35.25h2.94V74h.92v4Zm-4.91,1.61h.89v.95h-.89Z"/><path class="cls-3" d="M120.48,74V78.9H118.1v-.83h1.45V74ZM119,79.68h.82v.93H119Zm1.3,0h.82v.93h-.82Z"/><path class="cls-3" d="M121.85,81.29l-.23,0v-.81l.52,0a.73.73,0,0,0,.67-.35,1.8,1.8,0,0,0,.22-1V74H124V79a3.25,3.25,0,0,1-.4,1.76,1.35,1.35,0,0,1-1.21.61Z"/><path class="cls-3" d="M130,78.07v.83h-5v-.83h3.16v-.9a2.84,2.84,0,0,0-.54-2,1.65,1.65,0,0,0-1.25-.57h-.85l-.07-.69.48-.1a4.59,4.59,0,0,1,.62,0,2.48,2.48,0,0,1,1.27.33,2.34,2.34,0,0,1,.91,1.08,4.51,4.51,0,0,1,.35,1.9v.95Z"/><path class="cls-3" d="M133.86,78.07v.83H130v-.83h1.45V74h.93v4Zm-3-5.9h.83v.94h-.83Zm1.31,0H133v.94h-.82Z"/><path class="cls-3" d="M137.16,78.07v.83h-3.3v-.83h1.2V72H136v6.12Z"/><path class="cls-3" d="M139.28,72v7h-2.12v-.83h1.2V72Z"/><path class="cls-3" d="M148.37,78.07v.83h-3.3a3.46,3.46,0,0,1-1.42-.24,1.45,1.45,0,0,1-.75-.77,4.95,4.95,0,0,1,0-3,1.43,1.43,0,0,1,.73-.78,3.36,3.36,0,0,1,1.4-.24l1.18,0c.5,0,.86.05,1.09.08v4Zm-4.63-.68a1,1,0,0,0,.5.52,2.32,2.32,0,0,0,.93.16h1.2V74.82c-.52,0-.93-.06-1.24-.06a2.12,2.12,0,0,0-.91.16,1,1,0,0,0-.48.52,2.54,2.54,0,0,0-.15,1A2.64,2.64,0,0,0,143.74,77.39Zm.44-5.22H145v.94h-.83Zm1.31,0h.81v.94h-.81Z"/><path class="cls-3" d="M153.64,74.52a2.78,2.78,0,0,1,.55,1.94V78.9h-5.82v-.83H150a9.53,9.53,0,0,1-.14-1.57,8.86,8.86,0,0,1,.09-1.25,9.7,9.7,0,0,1,.2-1,3.24,3.24,0,0,1,.72-.2,5.31,5.31,0,0,1,1-.09A2.37,2.37,0,0,1,153.64,74.52Zm-2.87,2.85a6.47,6.47,0,0,0,.1.7h2.4V76.44a1.82,1.82,0,0,0-.38-1.29,1.56,1.56,0,0,0-1.19-.4,3.68,3.68,0,0,0-.82.09,10.12,10.12,0,0,0-.15,1.66C150.73,76.79,150.75,77.08,150.77,77.37Z"/><path class="cls-3" d="M157.44,78.07v.83h-1.85V72h.92v6.12Z"/><path class="cls-3" d="M163.57,78.07v.83h-1.1a4.23,4.23,0,0,1-1-.12,5.47,5.47,0,0,1-.94-.32,5,5,0,0,1-.92.32,4.07,4.07,0,0,1-1,.12h-1.23v-.83h1.2a3.16,3.16,0,0,0,1-.19,4.93,4.93,0,0,1-1.13-1.26,2.71,2.71,0,0,1-.45-1.27l0-.75a6,6,0,0,1,1.23-.5,4.23,4.23,0,0,1,1.26-.19,4.35,4.35,0,0,1,1.27.19,6.4,6.4,0,0,1,1.25.5l0,.75a2.71,2.71,0,0,1-.45,1.27,4.8,4.8,0,0,1-1.14,1.26,3.22,3.22,0,0,0,1,.19Zm-4.17-1.69a3.65,3.65,0,0,0,1.15,1.09,3.83,3.83,0,0,0,1.16-1.1,2.28,2.28,0,0,0,.42-1.3,4.92,4.92,0,0,0-1.58-.32,4.76,4.76,0,0,0-1.56.32A2.4,2.4,0,0,0,159.4,76.38Z"/><path class="cls-3" d="M165.7,72v7h-2.13v-.83h1.2V72Z"/><path class="cls-3" d="M167.39,72h.93v7h-.93Z"/><path class="cls-3" d="M177.44,78.07v.83h-3.31a3.38,3.38,0,0,1-1.41-.24,1.38,1.38,0,0,1-.75-.77,3.71,3.71,0,0,1-.24-1.48,3.9,3.9,0,0,1,.23-1.47,1.43,1.43,0,0,1,.73-.78,3.31,3.31,0,0,1,1.39-.24l1.18,0c.5,0,.87.05,1.09.08v4Zm-4.63-.68a1,1,0,0,0,.49.52,2.38,2.38,0,0,0,.94.16h1.2V74.82c-.52,0-.94-.06-1.24-.06a2.09,2.09,0,0,0-.91.16.91.91,0,0,0-.48.52,2.54,2.54,0,0,0-.15,1A2.64,2.64,0,0,0,172.81,77.39Zm.43-5.22h.83v.94h-.83Zm1.31,0h.82v.94h-.82Z"/><path class="cls-3" d="M185.81,78.07v.83H183a1.67,1.67,0,0,1-1.08-.39,1.24,1.24,0,0,1-1,.39h-3.57v-.83H179V74.51h.92v3.56h.8a.66.66,0,0,0,.63-.36,1.91,1.91,0,0,0,.2-.91V74.51h.93v2.28a3.35,3.35,0,0,1-.13,1,1.32,1.32,0,0,0,.33.2.92.92,0,0,0,.39.09H184V76.18a20.78,20.78,0,0,0-.16-2.13l.78,0q.12.57.21,1.2a7.36,7.36,0,0,1,.09,1v1.89Z"/><path class="cls-3" d="M193.21,75.22a7.36,7.36,0,0,1,.09,1V78.9h-1.88a1.65,1.65,0,0,1-1.08-.39,1.24,1.24,0,0,1-1,.39h-3.58v-.83h1.55V74.51h.93v3.56h.8a.68.68,0,0,0,.63-.36,1.91,1.91,0,0,0,.2-.91V74.51h.92v2.28a3.73,3.73,0,0,1-.12,1,1.32,1.32,0,0,0,.33.2.92.92,0,0,0,.39.09h.93V76.18q0-.68-.15-2.13l.78,0Q193.12,74.59,193.21,75.22Z"/><path class="cls-3" d="M199.66,78.9h-1.22a3.78,3.78,0,0,1-.47,1.78,1.47,1.47,0,0,1-1.34.63,14.46,14.46,0,0,1-1.54-.15v-.83a10.28,10.28,0,0,0,1.48.15,1,1,0,0,0,.53-.11.74.74,0,0,0,.31-.47,3.24,3.24,0,0,0,.11-1h-1.33a1.52,1.52,0,0,1-1.49-.7,3.67,3.67,0,0,1-.36-1.71,5.14,5.14,0,0,1,.21-1.54,1.53,1.53,0,0,1,.67-.85,2.49,2.49,0,0,1,1.26-.26,10.19,10.19,0,0,1,1,.06c.38,0,.7.09,1,.14v4h1.2Zm-4.16-1.29a1,1,0,0,0,1,.46h1V74.73a7.08,7.08,0,0,0-.85-.07,1.26,1.26,0,0,0-1.09.42,2.37,2.37,0,0,0-.32,1.38A2.56,2.56,0,0,0,195.5,77.61Zm2.18-5-2,.4-.1-.36.47-.12a.83.83,0,0,1-.26-.33.92.92,0,0,1-.09-.39.91.91,0,0,1,1-.92,1.36,1.36,0,0,1,.72.23l-.11.44a.74.74,0,0,0-.18-.09.51.51,0,0,0-.25,0,.52.52,0,0,0-.4.16.53.53,0,0,0-.16.38.54.54,0,0,0,.24.45l1.09-.29Z"/><path class="cls-3" d="M206.56,78.07v.83h-.38a.7.7,0,0,1-.37-.12,1.12,1.12,0,0,1-.33-.28v.4h-5.82v-.83h1.58a9.53,9.53,0,0,1-.14-1.57,8.86,8.86,0,0,1,.09-1.25,10,10,0,0,1,.19-1,3.52,3.52,0,0,1,.73-.2,5.24,5.24,0,0,1,1-.09,2.39,2.39,0,0,1,1.82.6,2.83,2.83,0,0,1,.55,1.94v1.21a.86.86,0,0,0,.29.28.71.71,0,0,0,.41.12Zm-4.5-.7c0,.29.06.52.09.7h2.4V76.44a1.83,1.83,0,0,0-.37-1.29,1.57,1.57,0,0,0-1.2-.4,3.75,3.75,0,0,0-.82.09A11.26,11.26,0,0,0,202,76.5,8.44,8.44,0,0,0,202.06,77.37Z"/><path class="cls-3" d="M208.69,72v7h-2.13v-.83h1.2V72Z"/><path class="cls-3" d="M210.38,72h.93v7h-.93Z"/><path class="cls-4" d="M134.84,8.06h0a1.56,1.56,0,0,0-1-1.47,1.53,1.53,0,0,0-1.71.38h0l-4.35,5.23,1.56,5.42,4.91-2.78Z"/><path class="cls-5" d="M146.88,21.51h0a1.54,1.54,0,0,0-1.12-2.66h0l-6.77.62-2.73,4.94,5.43,1.5Z"/><path class="cls-6" d="M145.88,39.54h0a1.55,1.55,0,0,0,1.1-2.67h0l-5.23-4.35-5.42,1.56L139.1,39Z"/><path class="cls-7" d="M132.42,51.58h0a1.54,1.54,0,0,0,2.66-1.12h0l-.62-6.77L129.53,41l-.95,6.1Z"/><path class="cls-6" d="M117,51.58h0a1.54,1.54,0,0,1-2.65-1.12h0l.62-6.77L119.87,41l.94,6.1Z"/><path class="cls-4" d="M102.35,37.12h0a1.54,1.54,0,0,0,1.11,2.66h0l6.77-.62L113,34.23l-5.43-1.51Z"/><path class="cls-8" d="M103.36,19.09h0a1.55,1.55,0,0,0-1.47,1,1.53,1.53,0,0,0,.38,1.71h0l5.23,4.35,5.42-1.57-2.78-4.9Z"/><path class="cls-6" d="M116.81,7.05h0a1.54,1.54,0,0,0-2.66,1.11h0l.62,6.77,4.93,2.73,1.51-5.43Z"/><path class="cls-2" d="M139,14.92a.37.37,0,0,0-.48-.05l-9.42,5.53-1.58,2.77c.17.08.34.15.51.25L130.1,22a.61.61,0,0,1,.78,0l1,1a.57.57,0,0,1,0,.77l-1.43,2.12a4.59,4.59,0,0,1,.24.5l2.77-1.58h0L139,15.4A.37.37,0,0,0,139,14.92Z"/><path class="cls-2" d="M100.84,51.19a.4.4,0,0,1,.42-.24l20.64,7.14.67,4.27L116,59.22l-15-7.58A.39.39,0,0,1,100.84,51.19Z"/><path class="cls-2" d="M148.39,51.19A.4.4,0,0,0,148,51l-20.64,7.14-.67,4.27,6.57-3.14,15.05-7.58A.36.36,0,0,0,148.39,51.19Z"/><path class="cls-2" d="M144.59,28.89,134,26.14,131,27c.06.18.13.35.18.53l2.51.48a.59.59,0,0,1,.51.58V30a.58.58,0,0,1-.51.58l-2.51.48c0,.18-.12.36-.18.53l3.07.84h0l10.56-2.75a.38.38,0,0,0,0-.75Z"/><path class="cls-2" d="M139,43.13l-5.52-9.42-2.77-1.58c-.08.17-.16.34-.25.51l1.43,2.12a.57.57,0,0,1,0,.77l-1,1a.59.59,0,0,1-.78.05L128,35.12l-.51.25,1.59,2.76h0l9.42,5.52a.38.38,0,0,0,.53-.53Z"/><path class="cls-2" d="M126.37,35.79l-.48,2.51a.58.58,0,0,1-.58.51h-1.39a.59.59,0,0,1-.58-.51l-.48-2.51c-.18,0-.35-.12-.53-.18l-.84,3.07h0l2.75,23.37a.39.39,0,0,0,.38.31.38.38,0,0,0,.37-.31l2.75-23.37-.84-3.07C126.73,35.67,126.55,35.74,126.37,35.79Z"/><path class="cls-2" d="M121.25,35.12l-2.12,1.44a.58.58,0,0,1-.77-.05l-1-1a.57.57,0,0,1,0-.77l1.43-2.12c-.09-.16-.16-.34-.24-.51l-2.77,1.59h0l-5.53,9.42a.38.38,0,0,0,0,.49.38.38,0,0,0,.48,0l9.42-5.52,1.58-2.77C121.58,35.29,121.41,35.21,121.25,35.12Z"/><path class="cls-2" d="M118.09,31l-2.51-.48a.58.58,0,0,1-.51-.58V28.57a.59.59,0,0,1,.51-.58l2.51-.48c0-.18.12-.35.18-.53l-3.07-.84h0l-10.56,2.75a.4.4,0,0,0-.32.38.38.38,0,0,0,.32.37l10.56,2.75,3.08-.84A4.76,4.76,0,0,1,118.09,31Z"/><path class="cls-2" d="M118.51,26.4c.09-.17.16-.34.25-.5l-1.43-2.12a.57.57,0,0,1,0-.77l1-1a.59.59,0,0,1,.77,0l2.12,1.44a4.66,4.66,0,0,1,.5-.25l-1.58-2.77h0l-9.42-5.53a.39.39,0,0,0-.48.05.38.38,0,0,0,0,.49l5.53,9.41Z"/><path class="cls-2" d="M122.86,22.75l.48-2.52a.59.59,0,0,1,.58-.51h1.39a.58.58,0,0,1,.58.51l.48,2.52a3.68,3.68,0,0,1,.53.18l.84-3.08h0L125,9.29a.38.38,0,0,0-.75,0l-2.75,10.56.84,3.08A3.31,3.31,0,0,1,122.86,22.75Z"/></g></g></svg>