<svg xmlns="http://www.w3.org/2000/svg" width="111.947" height="104.723" viewBox="0 0 111.947 104.723">
  <g id="advantages-2" transform="translate(-1727.037 -1899.973)">
    <g id="Artwork_6" data-name="Artwork 6" transform="translate(1831.518 1998.876)" opacity="0.2">
      <g id="Group_48616" data-name="Group 48616" transform="translate(-103.518 -96.876)">
        <g id="Group_48615" data-name="Group 48615" transform="translate(0 0)">
          <path id="Path_107133" data-name="Path 107133" d="M98.411,13.46C80.852,3.131,51.928,7.869,33.183,22.444,14.737,34.386,2.752,61.069,16.989,90.9c8.518,17.846,29.206,20.8,48.234,21.683,22.125.885,44.694-8.408,53.544-30.091C128.059,59.923,120.537,25.85,98.411,13.46Z" transform="translate(-11.683 -9.944)" fill="#42a7c6"/>
        </g>
      </g>
    </g>
    <g id="globe-2-outline" transform="translate(1759 1930)">
      <g id="globe-2">
        <rect id="Rectangle_13447" data-name="Rectangle 13447" width="48" height="48" fill="#42a7c6" opacity="0"/>
        <rect id="Rectangle_13448" data-name="Rectangle 13448" width="48" height="48" fill="#42a7c6" opacity="0"/>
        <path id="Path_58788" data-name="Path 58788" d="M22,2A20,20,0,1,0,42,22,20,20,0,0,0,22,2Zm0,4a16.38,16.38,0,0,1,3.58.42,5.22,5.22,0,0,1-1.56,2c-.44.34-.92.62-1.4.92a9.12,9.12,0,0,0-3.7,3.34,12.98,12.98,0,0,0-1.24,6.6c0,2.72,0,4.32-1.9,5.74-2.74,2.14-6.92.94-9.52-.14A16.66,16.66,0,0,1,6,22,16,16,0,0,1,22,6ZM8,29.6a16.84,16.84,0,0,0,4,.54,10,10,0,0,0,6.28-2c3.42-2.68,3.42-6.12,3.42-8.88a9.52,9.52,0,0,1,.74-4.68,5.72,5.72,0,0,1,2.24-1.82,19.5,19.5,0,0,0,1.84-1.22,9.1,9.1,0,0,0,2.8-3.74A16,16,0,0,1,36,14.24c-2.86.4-6.92,1.34-7.72,5.06A14,14,0,0,0,28,22a5.86,5.86,0,0,1-.58,2.94l-.2.34c-1.3,2.16-2.76,4.62-.78,8,.24.42.5.82.76,1.22a4.58,4.58,0,0,1,1.04,2.16A15.78,15.78,0,0,1,22,38,16,16,0,0,1,8,29.6Zm23.86,5.04a13.58,13.58,0,0,0-1.26-2.28c-.22-.32-.44-.64-.64-.98-.78-1.36-.5-2,.76-4l.2-.34A9.54,9.54,0,0,0,32,22.18a10.839,10.839,0,0,1,.18-2c.32-1.46,3.42-1.86,5.34-2A15.88,15.88,0,0,1,31.8,34.74Z" transform="translate(2 2)" fill="#42a7c6"/>
      </g>
    </g>
  </g>
</svg>
