<svg xmlns="http://www.w3.org/2000/svg" width="110.984" height="102.696" viewBox="0 0 110.984 102.696">
  <g id="advantages-1" transform="translate(-1421.667 -1784)">
    <path id="Path_107133" data-name="Path 107133" d="M98.411,13.46C80.852,3.131,56.866,17.447,38.121,32.021,19.675,43.963,2.752,61.069,16.989,90.9c8.518,17.846,29.206,20.8,48.234,21.683,22.125.885,44.694-8.408,53.544-30.091C128.059,59.923,120.537,25.85,98.411,13.46Z" transform="translate(1409.984 1774.056)" fill="rgba(29,68,135,0.1)"/>
    <g id="vuesax_linear_convert-3d-cube" data-name="vuesax/linear/convert-3d-cube" transform="translate(1452.667 1811)">
      <g id="convert-3d-cube">
        <g id="Group" transform="translate(4 4)">
          <path id="Vector" d="M14,0A13.99,13.99,0,0,1,0,14l2.1-3.5" transform="translate(26 26)" fill="none" stroke="#1d4487" stroke-linecap="round" stroke-linejoin="round" stroke-width="2.5"/>
          <path id="Vector-2" data-name="Vector" d="M0,14A13.99,13.99,0,0,1,14,0L11.9,3.5" fill="none" stroke="#1d4487" stroke-linecap="round" stroke-linejoin="round" stroke-width="2.5"/>
        </g>
        <g id="Group-2" data-name="Group" transform="translate(26.7 4)">
          <g id="Group-3" data-name="Group" transform="translate(0.7 4.9)">
            <path id="Vector-3" data-name="Vector" d="M0,0,7.96,4.6,15.84.02" fill="none" stroke="#1d4487" stroke-linecap="round" stroke-linejoin="round" stroke-width="2.5"/>
            <path id="Vector-4" data-name="Vector" d="M0,8.16V0" transform="translate(7.96 4.58)" fill="none" stroke="#1d4487" stroke-linecap="round" stroke-linejoin="round" stroke-width="2.5"/>
          </g>
          <path id="Vector-5" data-name="Vector" d="M6.78.42,1.98,3.08A4.274,4.274,0,0,0,0,6.44v5.08a4.222,4.222,0,0,0,1.98,3.36l4.8,2.66a4.237,4.237,0,0,0,3.74,0l4.8-2.66a4.274,4.274,0,0,0,1.98-3.36V6.44a4.223,4.223,0,0,0-1.98-3.36L10.52.42A4.373,4.373,0,0,0,6.78.42Z" fill="none" stroke="#1d4487" stroke-linecap="round" stroke-linejoin="round" stroke-width="2.5"/>
        </g>
        <g id="Group-4" data-name="Group" transform="translate(4 26)">
          <g id="Group-5" data-name="Group" transform="translate(0.7 4.9)">
            <path id="Vector-6" data-name="Vector" d="M0,0,7.94,4.6,15.84.02" fill="none" stroke="#1d4487" stroke-linecap="round" stroke-linejoin="round" stroke-width="2.5"/>
            <path id="Vector-7" data-name="Vector" d="M0,8.16V0" transform="translate(7.94 4.58)" fill="none" stroke="#1d4487" stroke-linecap="round" stroke-linejoin="round" stroke-width="2.5"/>
          </g>
          <path id="Vector-8" data-name="Vector" d="M6.78.42,1.98,3.08A4.274,4.274,0,0,0,0,6.44v5.08a4.223,4.223,0,0,0,1.98,3.36l4.8,2.66a4.237,4.237,0,0,0,3.74,0l4.8-2.66a4.274,4.274,0,0,0,1.98-3.36V6.44a4.222,4.222,0,0,0-1.98-3.36L10.52.42A4.373,4.373,0,0,0,6.78.42Z" fill="none" stroke="#1d4487" stroke-linecap="round" stroke-linejoin="round" stroke-width="2.5"/>
        </g>
        <path id="Vector-9" data-name="Vector" d="M0,0H48V48H0Z" fill="none" opacity="0"/>
      </g>
    </g>
  </g>
</svg>
