<svg xmlns="http://www.w3.org/2000/svg" width="110.984" height="102.696" viewBox="0 0 110.984 102.696">
  <g id="advantages-3" transform="translate(-1728 -1902)">
    <g id="Artwork_6" data-name="Artwork 6" transform="translate(1831.518 1998.876)" opacity="0.2">
      <g id="Group_48616" data-name="Group 48616" transform="translate(-103.518 -96.876)">
        <g id="Group_48615" data-name="Group 48615" transform="translate(0 0)">
          <path id="Path_107133" data-name="Path 107133" d="M35.938,13.46C53.5,3.131,77.483,17.447,96.229,32.021,114.674,43.963,131.6,61.069,117.36,90.9c-8.518,17.846-29.206,20.8-48.234,21.683-22.125.885-44.694-8.408-53.544-30.091C6.29,59.923,13.812,25.85,35.938,13.46Z" transform="translate(-11.683 -9.944)" fill="#804d98"/>
        </g>
      </g>
    </g>
    <g id="vuesax_linear_note-2" data-name="vuesax/linear/note-2" transform="translate(1804 1942)">
      <g id="note-2" transform="translate(-45 -14)">
        <path id="Vector" d="M29.383,15.877l-1.96,8.36c-1.68,7.22-5,10.14-11.24,9.54a21.027,21.027,0,0,1-3.24-.54l-3.36-.8c-8.34-1.98-10.92-6.1-8.96-14.46L2.583,9.6a20.949,20.949,0,0,1,1.48-4.4c2.34-4.84,6.32-6.14,13-4.56l3.34.78C28.783,3.377,31.343,7.517,29.383,15.877Z" transform="translate(13.937 5.003)" fill="none" stroke="#804d98" stroke-linecap="round" stroke-linejoin="round" stroke-width="2.5"/>
        <path id="Vector-2" data-name="Vector" d="M26.148,28.58a18.744,18.744,0,0,1-4.7,2.16l-3.16,1.04c-7.94,2.56-12.12.42-14.7-7.52l-2.56-7.9c-2.56-7.94-.44-12.14,7.5-14.7L11.688.62A20.447,20.447,0,0,1,14.028,0a20.949,20.949,0,0,0-1.48,4.4l-1.96,8.38c-1.96,8.36.62,12.48,8.96,14.46l3.36.8A21.027,21.027,0,0,0,26.148,28.58Z" transform="translate(3.972 10.2)" fill="none" stroke="#804d98" stroke-linecap="round" stroke-linejoin="round" stroke-width="2.5"/>
        <path id="Vector-3" data-name="Vector" d="M0,0,9.7,2.46" transform="translate(25.28 17.06)" fill="none" stroke="#804d98" stroke-linecap="round" stroke-linejoin="round" stroke-width="2.5"/>
        <path id="Vector-4" data-name="Vector" d="M0,0,5.8,1.48" transform="translate(23.32 24.8)" fill="none" stroke="#804d98" stroke-linecap="round" stroke-linejoin="round" stroke-width="2.5"/>
        <path id="Vector-5" data-name="Vector" d="M0,0H48V48H0Z" transform="translate(48 48) rotate(180)" fill="none" opacity="0"/>
      </g>
    </g>
  </g>
</svg>
