<svg xmlns="http://www.w3.org/2000/svg" width="36.527" height="22.725" viewBox="0 0 36.527 22.725">
  <g id="airplane" transform="translate(-0.001 -96.736)">
    <g id="Group_55066" data-name="Group 55066" transform="translate(0.001 96.736)">
      <path id="Path_122397" data-name="Path 122397" d="M36.344,101.975a3.031,3.031,0,0,0-1.578-1.722,10.973,10.973,0,0,0-8.446-.369l-2.9,1.054-8.267-4.092a1.071,1.071,0,0,0-.841-.047L9.38,98.6a1.07,1.07,0,0,0-.259,1.875l5.239,3.766-7.281,2.65-2.7-2.191a1.07,1.07,0,0,0-1.04-.174l-2.633.958a1.07,1.07,0,0,0-.64,1.372l1.677,4.607A5.973,5.973,0,0,0,9.4,115.03l6.414-2.335-1.383,5.431a1.07,1.07,0,0,0,1.4,1.27l4.936-1.8a1.07,1.07,0,0,0,.614-.576l3.314-7.562,9.824-3.576a3.055,3.055,0,0,0,1.823-3.911Zm-24.33-2.059,2.6-.947,6.026,2.982-3.85,1.4Zm21.774,3.959-10.254,3.732a1.07,1.07,0,0,0-.614.576l-3.314,7.562-2.6.947,1.383-5.431a1.07,1.07,0,0,0-1.4-1.27l-8.317,3.027a3.833,3.833,0,0,1-4.912-2.291l-1.311-3.6,1.058-.385,2.7,2.191a1.071,1.071,0,0,0,1.04.174L27.053,101.9a8.847,8.847,0,0,1,6.809.3.911.911,0,0,1-.073,1.681Z" transform="translate(-0.001 -96.736)" fill="#fff"/>
    </g>
  </g>
</svg>
