<svg id="award" xmlns="http://www.w3.org/2000/svg" width="60" height="60" viewBox="0 0 60 60">
  <path id="Vector" d="M21.225,46.256a8.605,8.605,0,0,1-4.175-1.025L5.225,38.406C.325,35.106,0,34.506,0,29.331v-12.4c0-5.175.325-5.775,5.125-9l11.95-6.9a8.916,8.916,0,0,1,8.325,0L37.225,7.856c4.9,3.3,5.225,3.9,5.225,9.075v12.4c0,5.175-.325,5.775-5.125,9l-11.95,6.9A8.242,8.242,0,0,1,21.225,46.256Zm0-42.5a4.737,4.737,0,0,0-2.3.525L7.1,11.106c-3.35,2.275-3.35,2.275-3.35,5.825v12.4c0,3.55,0,3.55,3.475,5.9l11.725,6.75a5.246,5.246,0,0,0,4.575,0L35.35,35.156c3.35-2.275,3.35-2.275,3.35-5.825v-12.4c0-3.55,0-3.55-3.475-5.9L23.5,4.281A4.57,4.57,0,0,0,21.225,3.756Z" transform="translate(8.775 10.619)" fill="#153365"/>
  <path id="Vector-2" data-name="Vector" d="M29.375,17.825A1.889,1.889,0,0,1,27.5,15.95V9.375c0-3.95-1.675-5.625-5.625-5.625H9.375c-3.95,0-5.625,1.675-5.625,5.625v6.4a1.875,1.875,0,1,1-3.75,0v-6.4C0,3.325,3.325,0,9.375,0h12.5c6.05,0,9.375,3.325,9.375,9.375V15.95A1.889,1.889,0,0,1,29.375,17.825Z" transform="translate(14.375 3.125)" fill="#153365"/>
  <path id="Vector-3" data-name="Vector" d="M14.149,19.4a4.28,4.28,0,0,1-1.625-.325l-2.45-.95-2.45.975a3.8,3.8,0,0,1-3.675-.325,3.835,3.835,0,0,1-1.45-3.4l.15-2.625L.974,10.725A3.809,3.809,0,0,1,.174,7.1,3.773,3.773,0,0,1,2.949,4.675l2.55-.65L6.924,1.8a3.678,3.678,0,0,1,6.325,0l1.425,2.225,2.55.65A3.773,3.773,0,0,1,20,7.1a3.84,3.84,0,0,1-.825,3.6L17.5,12.725l.15,2.625a3.863,3.863,0,0,1-1.45,3.4A3.507,3.507,0,0,1,14.149,19.4ZM3.874,8.325,5.549,10.35a3.99,3.99,0,0,1,.85,2.625L6.249,15.6l2.45-.975a4,4,0,0,1,2.75,0l2.45.975-.15-2.625a4.035,4.035,0,0,1,.85-2.625l1.675-2.025-2.55-.65a4.124,4.124,0,0,1-2.225-1.6l-1.4-2.2-1.425,2.2A4.043,4.043,0,0,1,6.449,7.7Z" transform="translate(19.926 24.675)" fill="#153365"/>
  <path id="Vector-4" data-name="Vector" d="M0,0H60V60H0Z" fill="none" opacity="0"/>
</svg>
