<svg id="buildings" xmlns="http://www.w3.org/2000/svg" width="36" height="36" viewBox="0 0 36 36">
  <g id="buildings-2" data-name="buildings">
    <path id="Vector" d="M17.625,23.25h-12C2,23.25,0,21.255,0,17.625v-12C0,2,2,0,5.625,0h7.5A1.133,1.133,0,0,1,14.25,1.125v16.5C14.25,20,15.255,21,17.625,21a1.125,1.125,0,1,1,0,2.25Zm-12-21c-2.37,0-3.375,1.005-3.375,3.375v12C2.25,20,3.255,21,5.625,21h7.2A6.389,6.389,0,0,1,12,17.625V2.25Z" transform="translate(1.875 10.875)" fill="#fff"/>
    <path id="Vector-2" data-name="Vector" d="M8.625,8.25h-7.5A1.133,1.133,0,0,1,0,7.125v-3A4.123,4.123,0,0,1,4.125,0H8.79a1.13,1.13,0,0,1,.885.435,1.144,1.144,0,0,1,.195.975,4.6,4.6,0,0,0-.12,1.215v4.5A1.133,1.133,0,0,1,8.625,8.25ZM2.25,6H7.5V2.25H4.125A1.876,1.876,0,0,0,2.25,4.125Z" transform="translate(6.375 4.875)" fill="#fff"/>
    <path id="Vector-3" data-name="Vector" d="M1.125,9.75A1.133,1.133,0,0,1,0,8.625v-7.5A1.133,1.133,0,0,1,1.125,0,1.133,1.133,0,0,1,2.25,1.125v7.5A1.133,1.133,0,0,1,1.125,9.75Z" transform="translate(19.875 10.875)" fill="#fff"/>
    <path id="Vector-4" data-name="Vector" d="M1.125,9.75A1.133,1.133,0,0,1,0,8.625v-7.5A1.133,1.133,0,0,1,1.125,0,1.133,1.133,0,0,1,2.25,1.125v7.5A1.133,1.133,0,0,1,1.125,9.75Z" transform="translate(25.875 10.875)" fill="#fff"/>
    <path id="Vector-5" data-name="Vector" d="M7.125,9.75h-6A1.133,1.133,0,0,1,0,8.625v-6A2.638,2.638,0,0,1,2.625,0h3A2.638,2.638,0,0,1,8.25,2.625v6A1.133,1.133,0,0,1,7.125,9.75ZM2.25,7.5H6V2.625a.371.371,0,0,0-.375-.375h-3a.371.371,0,0,0-.375.375Z" transform="translate(19.875 24.375)" fill="#fff"/>
    <path id="Vector-6" data-name="Vector" d="M1.125,8.25A1.133,1.133,0,0,1,0,7.125v-6A1.133,1.133,0,0,1,1.125,0,1.133,1.133,0,0,1,2.25,1.125v6A1.133,1.133,0,0,1,1.125,8.25Z" transform="translate(7.875 18.375)" fill="#fff"/>
    <path id="Vector-7" data-name="Vector" d="M14.625,32.25h-9C2,32.25,0,30.255,0,26.625v-21C0,2,2,0,5.625,0h9C18.255,0,20.25,2,20.25,5.625v21C20.25,30.255,18.255,32.25,14.625,32.25Zm-9-30c-2.37,0-3.375,1.005-3.375,3.375v21C2.25,29,3.255,30,5.625,30h9C17,30,18,29,18,26.625v-21c0-2.37-1-3.375-3.375-3.375Z" transform="translate(13.875 1.875)" fill="#fff"/>
    <path id="Vector-8" data-name="Vector" d="M0,0H36V36H0Z" fill="none" opacity="0"/>
  </g>
</svg>
