<svg xmlns="http://www.w3.org/2000/svg" width="27.006" height="36" viewBox="0 0 27.006 36">
  <path id="bulb" d="M25.491,3.43A13.5,13.5,0,0,0,7.3,23.373a9.394,9.394,0,0,1,3.2,6.848v.241A5.54,5.54,0,0,0,16.036,36h.93A5.54,5.54,0,0,0,22.5,30.463V29.64a7.984,7.984,0,0,1,2.9-6,13.49,13.49,0,0,0,.093-20.213ZM16.966,33h-.93A2.538,2.538,0,0,1,13.5,30.463s-.01-.39-.012-.465H19.5v.465A2.538,2.538,0,0,1,16.966,33Zm6.449-11.61A11.5,11.5,0,0,0,19.87,27H18V16.224A4.5,4.5,0,0,0,21,12a1.5,1.5,0,0,0-3,0,1.5,1.5,0,1,1-3,0,1.5,1.5,0,0,0-3,0,4.5,4.5,0,0,0,3,4.224V27H13.019a12.95,12.95,0,0,0-3.672-5.821A10.5,10.5,0,0,1,15.273,3.07,11.177,11.177,0,0,1,16.515,3a10.38,10.38,0,0,1,6.977,2.667,10.488,10.488,0,0,1-.072,15.72Z" transform="translate(-2.995 0.002)" fill="#1d4487"/>
</svg>
