<svg xmlns="http://www.w3.org/2000/svg" width="20.718" height="22.818" viewBox="0 0 20.718 22.818">
  <g id="cal" transform="translate(-12.825 -11.756)">
    <path id="Path_1380" data-name="Path 1380" d="M10.994,1.435a.56.56,0,0,0-1.12,0v1.54H8.745c-.607,0-1.1,0-1.493.032a2.87,2.87,0,0,0-1.1.273A2.8,2.8,0,0,0,4.93,4.5a2.87,2.87,0,0,0-.273,1.1c-.032.4-.032.886-.032,1.493V18.873c0,.607,0,1.1.032,1.493a2.87,2.87,0,0,0,.273,1.1,2.8,2.8,0,0,0,1.224,1.223,2.871,2.871,0,0,0,1.1.273c.4.032.886.032,1.493.032H20.524c.607,0,1.1,0,1.493-.032a2.871,2.871,0,0,0,1.1-.273,2.8,2.8,0,0,0,1.223-1.223,2.871,2.871,0,0,0,.273-1.1c.032-.4.032-.886.032-1.493V7.095c0-.607,0-1.1-.032-1.493a2.871,2.871,0,0,0-.273-1.1A2.8,2.8,0,0,0,23.115,3.28a2.87,2.87,0,0,0-1.1-.273c-.4-.032-.886-.032-1.493-.032h-1.13V1.435a.56.56,0,0,0-1.12,0v1.54H10.994Zm7.279,3.15v-.49H10.994v.49a.56.56,0,1,1-1.12,0v-.49H8.769c-.636,0-1.08,0-1.426.029a1.787,1.787,0,0,0-.681.154,1.68,1.68,0,0,0-.734.734,1.787,1.787,0,0,0-.154.681c-.028.345-.029.789-.029,1.425V18.849c0,.636,0,1.08.029,1.426a1.787,1.787,0,0,0,.154.681,1.68,1.68,0,0,0,.734.734,1.786,1.786,0,0,0,.681.154c.345.028.789.029,1.426.029H20.5c.636,0,1.08,0,1.426-.029a1.786,1.786,0,0,0,.681-.154,1.68,1.68,0,0,0,.734-.734,1.786,1.786,0,0,0,.154-.681c.028-.345.029-.789.029-1.426V7.118c0-.636,0-1.08-.029-1.425a1.786,1.786,0,0,0-.154-.681,1.68,1.68,0,0,0-.734-.734,1.787,1.787,0,0,0-.681-.154c-.345-.028-.789-.029-1.426-.029H19.394v.49a.56.56,0,0,1-1.12,0ZM9.385,8.224a.56.56,0,0,0,0,1.12h10.5a.56.56,0,1,0,0-1.12Zm7.209,4.2h1.05a.56.56,0,1,1,0,1.12h-1.05a.56.56,0,1,1,0-1.12Zm-3.57,0h1.05a.56.56,0,0,1,0,1.12h-1.05a.56.56,0,1,1,0-1.12Zm-3.64,0h1.05a.56.56,0,1,1,0,1.12H9.385a.56.56,0,0,1,0-1.12Zm4.69,2.52h-1.05a.56.56,0,1,0,0,1.12h1.05a.56.56,0,0,0,0-1.12Zm-3.64,0H9.385a.56.56,0,0,0,0,1.12h1.05a.56.56,0,1,0,0-1.12Z" transform="translate(8.55 11.231)" fill="#fff" stroke="#fff" stroke-width="0.7" fill-rule="evenodd"/>
  </g>
</svg>
