<svg id="calculator" xmlns="http://www.w3.org/2000/svg" width="36" height="36" viewBox="0 0 36 36">
  <g id="calculator-2" data-name="calculator">
    <path id="Vector" d="M17.625,32.25h-6C3.48,32.25,0,28.77,0,20.625v-9C0,3.48,3.48,0,11.625,0h6C25.77,0,29.25,3.48,29.25,11.625v9C29.25,28.77,25.77,32.25,17.625,32.25Zm-6-30C4.71,2.25,2.25,4.71,2.25,11.625v9C2.25,27.54,4.71,30,11.625,30h6C24.54,30,27,27.54,27,20.625v-9C27,4.71,24.54,2.25,17.625,2.25Z" transform="translate(3.375 1.875)" fill="#fff"/>
    <path id="Vector-2" data-name="Vector" d="M12.375,8.25h-9A3.38,3.38,0,0,1,0,4.875v-1.5A3.38,3.38,0,0,1,3.375,0h9A3.38,3.38,0,0,1,15.75,3.375v1.5A3.38,3.38,0,0,1,12.375,8.25Zm-9-6A1.133,1.133,0,0,0,2.25,3.375v1.5A1.133,1.133,0,0,0,3.375,6h9A1.133,1.133,0,0,0,13.5,4.875v-1.5A1.133,1.133,0,0,0,12.375,2.25Z" transform="translate(10.125 7.995)" fill="#fff"/>
    <path id="Vector-3" data-name="Vector" d="M1.485,3a1.493,1.493,0,0,1-.57-.12A1.461,1.461,0,0,1,0,1.5,1.479,1.479,0,0,1,.105.931,1.367,1.367,0,0,1,.435.436.913.913,0,0,1,.66.256.834.834,0,0,1,.915.121,1.046,1.046,0,0,1,1.2.031,1.5,1.5,0,0,1,2.55.436a1.433,1.433,0,0,1,.33.495A1.493,1.493,0,0,1,3,1.5a1.5,1.5,0,0,1-.45,1.065A1.485,1.485,0,0,1,1.485,3Z" transform="translate(10.74 19.379)" fill="#fff"/>
    <path id="Vector-4" data-name="Vector" d="M1.5,3A1.485,1.485,0,0,1,0,1.5,1.479,1.479,0,0,1,.1.93,1.367,1.367,0,0,1,.435.435.913.913,0,0,1,.66.255.834.834,0,0,1,.915.12,1.046,1.046,0,0,1,1.2.03a1.457,1.457,0,0,1,.87.09,1.482,1.482,0,0,1,.48.315A1.589,1.589,0,0,1,2.88.93,1.493,1.493,0,0,1,3,1.5a1.5,1.5,0,0,1-.45,1.065A1.476,1.476,0,0,1,1.5,3Z" transform="translate(16.74 19.38)" fill="#fff"/>
    <path id="Vector-5" data-name="Vector" d="M1.485,2.981a1.493,1.493,0,0,1-.57-.12,1.482,1.482,0,0,1-.48-.315A1.507,1.507,0,0,1,.1,2.051a1.479,1.479,0,0,1-.1-.57A1.479,1.479,0,0,1,.1.911,1.367,1.367,0,0,1,.435.416a1.551,1.551,0,0,1,2.115,0A1.525,1.525,0,0,1,3,1.481a1.511,1.511,0,0,1-1.515,1.5Z" transform="translate(22.74 19.399)" fill="#fff"/>
    <path id="Vector-6" data-name="Vector" d="M1.515,3A1.485,1.485,0,0,1,.45,2.561,1.5,1.5,0,0,1,0,1.5,1.525,1.525,0,0,1,.45.431,1.317,1.317,0,0,1,.675.251.834.834,0,0,1,.93.116a1.046,1.046,0,0,1,.285-.09,1.526,1.526,0,0,1,1.35.4A2.607,2.607,0,0,1,2.76.656l.135.27.09.27a2.033,2.033,0,0,1,.03.3,1.5,1.5,0,0,1-.45,1.065A1.476,1.476,0,0,1,1.515,3Z" transform="translate(10.725 25.384)" fill="#fff"/>
    <path id="Vector-7" data-name="Vector" d="M1.515,3A1.485,1.485,0,0,1,.45,2.561,1.5,1.5,0,0,1,0,1.5,1.525,1.525,0,0,1,.45.431,1.539,1.539,0,0,1,1.8.026a1.046,1.046,0,0,1,.285.09A.834.834,0,0,1,2.34.251a2.364,2.364,0,0,1,.225.18A1.51,1.51,0,0,1,3,1.5,1.485,1.485,0,0,1,1.515,3Z" transform="translate(16.725 25.384)" fill="#fff"/>
    <path id="Vector-8" data-name="Vector" d="M1.485,2.992A1.485,1.485,0,0,1,0,1.492,1.51,1.51,0,0,1,.435.427,1.482,1.482,0,0,1,.915.112,1.52,1.52,0,0,1,2.55.427a1.51,1.51,0,0,1,.435,1.065,1.461,1.461,0,0,1-.915,1.38A1.51,1.51,0,0,1,1.485,2.992Z" transform="translate(22.74 25.388)" fill="#fff"/>
    <path id="Vector-9" data-name="Vector" d="M0,0H36V36H0Z" fill="none" opacity="0"/>
  </g>
</svg>
