<svg id="calendar-11" xmlns="http://www.w3.org/2000/svg" width="30" height="30" viewBox="0 0 30 30">
  <g id="vuesax_outline_calendar" data-name="vuesax/outline/calendar">
    <g id="calendar">
      <path id="Vector" d="M.938,5.625A.944.944,0,0,1,0,4.688V.938A.944.944,0,0,1,.938,0a.944.944,0,0,1,.938.938v3.75A.944.944,0,0,1,.938,5.625Z" transform="translate(9.063 1.563)" fill="#804d98"/>
      <path id="Vector-2" data-name="Vector" d="M.938,5.625A.944.944,0,0,1,0,4.688V.938A.944.944,0,0,1,.938,0a.944.944,0,0,1,.938.938v3.75A.944.944,0,0,1,.938,5.625Z" transform="translate(19.063 1.563)" fill="#804d98"/>
      <path id="Vector-3" data-name="Vector" d="M1.25,2.493a1.244,1.244,0,0,1-.475-.1,1.29,1.29,0,0,1-.412-.263A1.291,1.291,0,0,1,0,1.243,1.244,1.244,0,0,1,.1.768,1.443,1.443,0,0,1,.363.356,1.29,1.29,0,0,1,.775.093,1.276,1.276,0,0,1,2.137.356a1.314,1.314,0,0,1,.363.887,1.879,1.879,0,0,1-.025.25.794.794,0,0,1-.075.225.946.946,0,0,1-.112.225,1.97,1.97,0,0,1-.15.187A1.314,1.314,0,0,1,1.25,2.493Z" transform="translate(9.375 15.632)" fill="#804d98"/>
      <path id="Vector-4" data-name="Vector" d="M1.25,2.5a1.244,1.244,0,0,1-.475-.1,1.29,1.29,0,0,1-.412-.263A1.291,1.291,0,0,1,0,1.249,1.244,1.244,0,0,1,.1.774,1.443,1.443,0,0,1,.363.361,1.29,1.29,0,0,1,.775.1,1.253,1.253,0,0,1,2.137.361a1.314,1.314,0,0,1,.363.887,1.879,1.879,0,0,1-.025.25.794.794,0,0,1-.075.225.946.946,0,0,1-.112.225,1.97,1.97,0,0,1-.15.187A1.314,1.314,0,0,1,1.25,2.5Z" transform="translate(13.75 15.626)" fill="#804d98"/>
      <path id="Vector-5" data-name="Vector" d="M1.25,2.5a1.244,1.244,0,0,1-.475-.1,1.29,1.29,0,0,1-.412-.263l-.15-.187A.946.946,0,0,1,.1,1.724.794.794,0,0,1,.025,1.5,1.879,1.879,0,0,1,0,1.249,1.314,1.314,0,0,1,.363.361,1.29,1.29,0,0,1,.775.1,1.249,1.249,0,0,1,2.137.361a1.314,1.314,0,0,1,.363.887,1.879,1.879,0,0,1-.025.25.794.794,0,0,1-.075.225.946.946,0,0,1-.112.225,1.97,1.97,0,0,1-.15.187A1.314,1.314,0,0,1,1.25,2.5Z" transform="translate(18.125 15.626)" fill="#804d98"/>
      <path id="Vector-6" data-name="Vector" d="M1.25,2.484a1.244,1.244,0,0,1-.475-.1,1.443,1.443,0,0,1-.412-.263A1.314,1.314,0,0,1,0,1.234,1.244,1.244,0,0,1,.1.759,1.167,1.167,0,0,1,.363.347a1.309,1.309,0,0,1,1.775,0,1.314,1.314,0,0,1,.363.887,1.314,1.314,0,0,1-.363.887A1.314,1.314,0,0,1,1.25,2.484Z" transform="translate(9.375 20.016)" fill="#804d98"/>
      <path id="Vector-7" data-name="Vector" d="M1.25,2.484a1.314,1.314,0,0,1-.887-.363A1.314,1.314,0,0,1,0,1.234,1.244,1.244,0,0,1,.1.759,1.167,1.167,0,0,1,.363.347a1.309,1.309,0,0,1,1.775,0A1.167,1.167,0,0,1,2.4.759a1.244,1.244,0,0,1,.1.475,1.314,1.314,0,0,1-.363.887A1.314,1.314,0,0,1,1.25,2.484Z" transform="translate(13.75 20.016)" fill="#804d98"/>
      <path id="Vector-8" data-name="Vector" d="M1.25,2.5a1.314,1.314,0,0,1-.887-.363A1.167,1.167,0,0,1,.1,1.726,1.244,1.244,0,0,1,0,1.251,1.244,1.244,0,0,1,.1.776,1.167,1.167,0,0,1,.363.364,1.248,1.248,0,0,1,1.487.026.754.754,0,0,1,1.725.1.947.947,0,0,1,1.95.214a1.97,1.97,0,0,1,.187.15,1.314,1.314,0,0,1,.363.887,1.314,1.314,0,0,1-.363.887A1.314,1.314,0,0,1,1.25,2.5Z" transform="translate(18.125 19.999)" fill="#804d98"/>
      <path id="Vector-9" data-name="Vector" d="M22.188,1.875H.938A.944.944,0,0,1,0,.938.944.944,0,0,1,.938,0h21.25a.944.944,0,0,1,.938.938A.944.944,0,0,1,22.188,1.875Z" transform="translate(3.438 10.425)" fill="#804d98"/>
      <path id="Vector-10" data-name="Vector" d="M17.188,25h-10C2.625,25,0,22.375,0,17.813V7.188C0,2.625,2.625,0,7.188,0h10c4.563,0,7.188,2.625,7.188,7.188V17.813C24.375,22.375,21.75,25,17.188,25Zm-10-23.125c-3.575,0-5.312,1.738-5.312,5.313V17.813c0,3.575,1.738,5.313,5.313,5.313h10c3.575,0,5.313-1.737,5.313-5.312V7.188c0-3.575-1.737-5.312-5.312-5.312Z" transform="translate(2.813 3.438)" fill="#804d98"/>
      <path id="Vector-11" data-name="Vector" d="M0,0H30V30H0Z" fill="none" opacity="0"/>
    </g>
  </g>
</svg>
