<svg id="calendar-tick" xmlns="http://www.w3.org/2000/svg" width="36" height="36" viewBox="0 0 36 36">
  <g id="calendar-tick-2" data-name="calendar-tick">
    <path id="Vector" d="M1.125,6.75A1.133,1.133,0,0,1,0,5.625v-4.5A1.133,1.133,0,0,1,1.125,0,1.133,1.133,0,0,1,2.25,1.125v4.5A1.133,1.133,0,0,1,1.125,6.75Z" transform="translate(10.875 1.875)" fill="#fff"/>
    <path id="Vector-2" data-name="Vector" d="M1.125,6.75A1.133,1.133,0,0,1,0,5.625v-4.5A1.133,1.133,0,0,1,1.125,0,1.133,1.133,0,0,1,2.25,1.125v4.5A1.133,1.133,0,0,1,1.125,6.75Z" transform="translate(22.875 1.875)" fill="#fff"/>
    <path id="Vector-3" data-name="Vector" d="M1.5,2.981A1.577,1.577,0,0,1,.435,2.546,1.549,1.549,0,0,1,0,1.481,1.493,1.493,0,0,1,.12.911,1.732,1.732,0,0,1,.435.416a1.571,1.571,0,0,1,2.13,0A1.577,1.577,0,0,1,3,1.481a2.255,2.255,0,0,1-.03.3.953.953,0,0,1-.09.27,1.136,1.136,0,0,1-.135.27l-.18.225A1.577,1.577,0,0,1,1.5,2.981Z" transform="translate(11.25 18.769)" fill="#fff"/>
    <path id="Vector-4" data-name="Vector" d="M1.5,2.992a1.493,1.493,0,0,1-.57-.12,1.549,1.549,0,0,1-.5-.315A1.549,1.549,0,0,1,0,1.492,1.493,1.493,0,0,1,.12.922,1.732,1.732,0,0,1,.435.427,1.549,1.549,0,0,1,.93.112,1.526,1.526,0,0,1,2.565.427,1.577,1.577,0,0,1,3,1.492a2.255,2.255,0,0,1-.03.3.953.953,0,0,1-.09.27,1.136,1.136,0,0,1-.135.27,2.364,2.364,0,0,1-.18.225A1.577,1.577,0,0,1,1.5,2.992Z" transform="translate(16.5 18.758)" fill="#fff"/>
    <path id="Vector-5" data-name="Vector" d="M1.5,3a1.493,1.493,0,0,1-.57-.12,1.4,1.4,0,0,1-.5-.315A1.4,1.4,0,0,1,.12,2.068,1.493,1.493,0,0,1,0,1.5,1.493,1.493,0,0,1,.12.928,1.4,1.4,0,0,1,.435.433,1.4,1.4,0,0,1,.93.118a1.434,1.434,0,0,1,1.14,0,1.4,1.4,0,0,1,.5.315A1.4,1.4,0,0,1,2.88.928,1.493,1.493,0,0,1,3,1.5a1.493,1.493,0,0,1-.12.57,1.353,1.353,0,0,1-.81.81A1.493,1.493,0,0,1,1.5,3Z" transform="translate(11.25 24.002)" fill="#fff"/>
    <path id="Vector-6" data-name="Vector" d="M26.625,2.25H1.125A1.133,1.133,0,0,1,0,1.125,1.133,1.133,0,0,1,1.125,0h25.5A1.133,1.133,0,0,1,27.75,1.125,1.133,1.133,0,0,1,26.625,2.25Z" transform="translate(4.125 12.51)" fill="#fff"/>
    <path id="Vector-7" data-name="Vector" d="M7.125,14.25A6.961,6.961,0,0,1,2.43,12.465a6.46,6.46,0,0,1-1.41-1.68A7.042,7.042,0,0,1,0,7.125a7.125,7.125,0,0,1,14.25,0A7.008,7.008,0,0,1,13.215,10.8,7.1,7.1,0,0,1,7.125,14.25Zm0-12A4.884,4.884,0,0,0,2.25,7.125,4.753,4.753,0,0,0,2.955,9.63,4.406,4.406,0,0,0,3.9,10.77,4.76,4.76,0,0,0,7.125,12,4.882,4.882,0,0,0,12,7.125,4.982,4.982,0,0,0,10.785,3.9,4.894,4.894,0,0,0,7.125,2.25Z" transform="translate(19.875 21.375)" fill="#fff"/>
    <path id="Vector-8" data-name="Vector" d="M2.606,5.2a1.113,1.113,0,0,1-.795-.33L.326,3.387A1.124,1.124,0,0,1,1.916,1.8l.72.72L5.036.3a1.125,1.125,0,0,1,1.53,1.65L3.371,4.9A1.173,1.173,0,0,1,2.606,5.2Z" transform="translate(23.539 25.908)" fill="#fff"/>
    <path id="Vector-9" data-name="Vector" d="M19.68,30H8.625C3.15,30,0,26.85,0,21.375V8.625C0,3.15,3.15,0,8.625,0h12C26.1,0,29.25,3.15,29.25,8.625v11.79a1.13,1.13,0,0,1-1.98.735,4.878,4.878,0,0,0-8.535,3.225,4.753,4.753,0,0,0,.705,2.505,4.406,4.406,0,0,0,.945,1.14,1.115,1.115,0,0,1,.33,1.245A1.073,1.073,0,0,1,19.68,30ZM8.625,2.25c-4.29,0-6.375,2.085-6.375,6.375v12.75c0,4.29,2.085,6.375,6.375,6.375h8.73a7.049,7.049,0,0,1-.855-3.375A7.118,7.118,0,0,1,27,18.105V8.625c0-4.29-2.085-6.375-6.375-6.375Z" transform="translate(3.375 4.125)" fill="#fff"/>
    <path id="Vector-10" data-name="Vector" d="M0,0H36V36H0Z" fill="none" opacity="0"/>
  </g>
</svg>
