<svg id="clock" xmlns="http://www.w3.org/2000/svg" width="36" height="36" viewBox="0 0 36 36">
  <path id="Vector" d="M16.125,32.25A16.125,16.125,0,1,1,32.25,16.125,16.139,16.139,0,0,1,16.125,32.25Zm0-30A13.875,13.875,0,1,0,30,16.125,13.892,13.892,0,0,0,16.125,2.25Z" transform="translate(1.875 1.875)" fill="#fff"/>
  <path id="Vector-2" data-name="Vector" d="M7.23,13.755a1,1,0,0,1-.57-.165L2.01,10.815A4.424,4.424,0,0,1,0,7.275V1.125A1.133,1.133,0,0,1,1.125,0,1.133,1.133,0,0,1,2.25,1.125v6.15A2.217,2.217,0,0,0,3.165,8.88l4.65,2.775A1.123,1.123,0,0,1,8.2,13.2,1.156,1.156,0,0,1,7.23,13.755Z" transform="translate(16.335 10.14)" fill="#fff"/>
  <path id="Vector-3" data-name="Vector" d="M0,0H36V36H0Z" fill="none" opacity="0"/>
</svg>
