<svg id="contact-linkedin" xmlns="http://www.w3.org/2000/svg" width="30" height="30" viewBox="0 0 30 30">
  <g id="linkedin">
    <rect id="Rectangle_13783" data-name="Rectangle 13783" width="30" height="30" transform="translate(30 30) rotate(180)" fill="#0a66c2" opacity="0"/>
    <path id="Path_107144" data-name="Path 107144" d="M22.75,25.49H20.663a2.5,2.5,0,0,1-2.5-2.5V16.278a1.15,1.15,0,0,0-.863-1.162,1.05,1.05,0,0,0-.838.237,1.063,1.063,0,0,0-.375.813V22.99a2.5,2.5,0,0,1-2.5,2.5H11.5A2.5,2.5,0,0,1,9,22.99V16.165a8.125,8.125,0,0,1,16.25,0V22.99A2.5,2.5,0,0,1,22.75,25.49ZM17.125,12.6a4.662,4.662,0,0,1,.588,0,3.638,3.638,0,0,1,2.95,3.625V22.99H22.75V16.165a5.625,5.625,0,0,0-11.25,0V22.99h2.087V16.165A3.563,3.563,0,0,1,17.125,12.6Z" transform="translate(2.25 2.01)" fill="#0a66c2"/>
    <path id="Path_107145" data-name="Path 107145" d="M7,25.5H4.5A2.5,2.5,0,0,1,2,23V10.5A2.5,2.5,0,0,1,4.5,8H7a2.5,2.5,0,0,1,2.5,2.5V23A2.5,2.5,0,0,1,7,25.5Zm-2.5-15V23H7V10.5Z" transform="translate(0.5 2)" fill="#0a66c2"/>
    <path id="Path_107146" data-name="Path 107146" d="M5.75,8.5A3.75,3.75,0,1,1,9.5,4.75,3.75,3.75,0,0,1,5.75,8.5Zm0-5A1.25,1.25,0,1,0,7,4.75,1.25,1.25,0,0,0,5.75,3.5Z" transform="translate(0.5 0.25)" fill="#0a66c2"/>
  </g>
</svg>
