<svg xmlns="http://www.w3.org/2000/svg" width="465.999" height="353.23" viewBox="0 0 465.999 353.23">
  <g id="contact-us" transform="translate(-882.524 -362.81)">
    <g id="Artwork_61" data-name="Artwork 61" transform="translate(1070.287 362.81)">
      <g id="Group_55492" data-name="Group 55492" transform="translate(0 0)">
        <g id="Group_55483" data-name="Group 55483" transform="translate(4.214 4.741)">
          <g id="Group_55482" data-name="Group 55482">
            <g id="Group_55480" data-name="Group 55480" transform="translate(22.155)">
              <path id="Path_130276" data-name="Path 130276" d="M178.523,263.153c-6.247-26.61-19.864-67.8-46.344-83.5-5.073-3.011-11.864-7.071-15.744-9.373l-1.708-17.662a44.565,44.565,0,0,0,4.5-2.557l.185-.1.569-.409c3.7-2.467,6.5-5.473,7.585-10.731l2.107-9.218,7.255-32.342c.265-1.009.5-2.037.7-3.116l.185-.819-.05-.035a52.5,52.5,0,0,0,.7-7.79c.33-28.382-19.19-63.126-43.6-77.6-11.18-6.626-20.353-8.2-28.233-4.864l-1.1.36-.6.33A20.7,20.7,0,0,0,62.288,5.18L41.645,16.575l-1.114,2.277,10.052,7.58a54.174,54.174,0,0,0-.524,6.636,55.653,55.653,0,0,0,.275,7.535l.155.649.2,1.738c.195,1.543.409,2.4.7,3.95L59.571,98.5h0c1.343,9.168,6.227,21.566,12.478,30.734l-2.082,13.961c-3.85-2.282-10.746-6.806-15.754-9.777-10.346-6.132-17.941-6.506-24.867-3.126l-.929.38-2.4,1.338-.07.04L7.9,142.094l4.05,6.526a95.034,95.034,0,0,0-5.5,12.473C3.326,169.757,9.832,184.467,19.3,190.08l71.5,42.4,3.1,1.843,55.257,32.762c.724,6.626,1.873,15.549,2.487,20.208a2.147,2.147,0,0,0,3.186,1.583l20.118-11.21h0C178.543,275.661,180.216,270.358,178.523,263.153Z" transform="translate(-3.779 0.583)" fill="#2eb67d"/>
              <path id="Path_130277" data-name="Path 130277" d="M178.147,265.174c-6.247-26.61-19.864-67.8-46.344-83.5-5.073-3.006-11.864-7.071-15.744-9.373L71.778,196.735l-3.635-27.249L88.636,156.6l24.293-5.068,1.373-7.151c3.7-2.467,4.3-5.338,5.388-10.6l9.607-2.167,7.255-32.342c.265-1.009.5-2.037.7-3.116l.19-.819-.055-.035a52.5,52.5,0,0,0,.7-7.79c.33-28.377-19.19-63.121-43.6-77.6-11.18-6.626-20.353-8.2-28.233-4.864l-1.1.36-.6.33A22.391,22.391,0,0,0,61.912,7.2L41.269,18.6l-1.114,2.277,10.052,7.58a54.18,54.18,0,0,0-.524,6.636,55.627,55.627,0,0,0,.275,7.535l.155.649.2,1.743c.195,1.538.409,2.392.7,3.945L59.2,100.517h0c1.343,9.168,6.227,21.566,12.478,30.734L69.6,145.213c-3.85-2.282-10.746-6.8-15.754-9.777C43.5,129.3,35.9,128.93,28.975,132.31l-.929.384-2.4,1.333-.07.04L7.524,144.115l4.05,6.526a95.326,95.326,0,0,0-5.5,12.473C2.95,171.778,9.456,186.488,18.929,192.1l71.5,42.4,3.106,1.843,55.252,32.767c.724,6.621,1.653-.245,2.267,4.414a2.145,2.145,0,0,0,3.186,1.583l14.686-1.054.624-6.761C173.134,265.289,179.84,272.379,178.147,265.174Z" transform="translate(-5.281 8.654)" fill="#c1ffe5"/>
              <path id="Path_130278" data-name="Path 130278" d="M155.272,292.589a4.046,4.046,0,0,1-4.01-3.515c-.584-4.449-1.658-12.778-2.392-19.3L19.832,193.251C9.655,187.214,2.754,171.435,6.16,161.982a98.264,98.264,0,0,1,5.1-11.749l-4.529-7.3,23.394-12.868c7.86-3.83,16.338-2.816,26.565,3.246,2.691,1.6,5.922,3.64,8.943,5.543,1.553.984,3.051,1.927,4.384,2.756l1.553-10.4c-6.037-9.078-10.985-21.4-12.374-30.909l-8.4-52.65c-.195-.949-.345-1.733-.494-2.886l-.32-2.2a56.965,56.965,0,0,1-.325-7.989,54.237,54.237,0,0,1,.4-5.762L39.635,20.954,41.7,16.735,62.869,5.046a21.779,21.779,0,0,1,2.771-1.523l.469-.265,1.433-.5c8.294-3.525,18.1-1.9,29.79,5.038,24.9,14.76,44.865,50.313,44.531,79.255a53.258,53.258,0,0,1-.529,6.786l.08.05-.424,2.2c-.195,1.059-.444,2.132-.724,3.186l-9.348,41.5a18,18,0,0,1-8.384,11.889l-.494.365c-1.373.884-2.617,1.6-3.795,2.227l1.493,15.415,14.91,8.878c26.25,15.569,40.172,54.657,47.227,84.7,1.8,7.685.085,14.051-4.489,16.618L157.264,292.07A4.091,4.091,0,0,1,155.272,292.589ZM12.067,144.316l3.575,5.767-.514.969a91.916,91.916,0,0,0-5.393,12.219c-2.821,7.84,3.366,21.566,12.039,26.7l130.672,77.5.1.944c.724,6.611,1.873,15.514,2.487,20.163l20.493-11.035c2.986-1.673,4.025-6.551,2.641-12.423h0c-5.638-24.013-19.04-66.632-45.46-82.3l-16.578-9.867-1.922-19.924,1.168-.584A42.639,42.639,0,0,0,119.689,150l.669-.464c4.03-2.686,5.992-5.443,6.846-9.577l9.368-41.595c.275-1.029.5-2.012.689-3.041l.125-.814a49.973,49.973,0,0,0,.679-7.505c.325-27.733-18.815-61.8-42.673-75.944C84.815,4.791,76.137,3.228,68.872,6.314l-1.513.6a21.036,21.036,0,0,0-2.537,1.393l-20.393,11.5,9.687,7.31-.15,1.1a51.356,51.356,0,0,0-.5,6.4,54.233,54.233,0,0,0,.26,7.3l.115.429.24,1.952c.13,1.029.275,1.748.449,2.612l.23,1.208L62.949,99.73c1.353,9.233,6.247,21.262,12.179,29.96l.419.619L72.931,147.8,70.5,146.358c-1.8-1.069-4.274-2.627-6.906-4.289-2.991-1.883-6.187-3.9-8.853-5.483-9.148-5.428-16.273-6.372-23.064-3.056l-1.039.429Z" transform="translate(-5.28 -0.95)" fill="#299872"/>
            </g>
            <g id="Group_55481" data-name="Group 55481" transform="translate(0 12.613)">
              <path id="Path_130279" data-name="Path 130279" d="M174.086,265.431c-6.252-26.6-19.864-67.8-46.349-83.5-5.073-3.011-11.864-7.076-15.744-9.373l-1.7-17.667c5.168-2.582,11.3-6.332,12.833-13.8l2.107-9.223,7.255-32.342c.265-1.009.509-2.037.7-3.116l.185-.819-.055-.03a51.311,51.311,0,0,0,.7-7.79c.335-28.382-19.19-63.126-43.6-77.6s-44.471-3.206-44.8,25.172a55.611,55.611,0,0,0,.27,7.535l.155.654.2,1.738c.19,1.538.409,2.392.7,3.95l8.184,51.552v.005c1.343,9.168,6.232,21.561,12.483,30.729L65.53,145.47c-3.845-2.282-10.741-6.8-15.754-9.772-26.55-15.744-40.971,8.808-47.767,27.678-3.121,8.664,3.386,23.369,12.853,28.987l71.5,42.4,3.106,1.843,71.26,42.259C170.2,284.475,176.953,277.644,174.086,265.431Z" transform="translate(0.657 -1.939)" fill="#2eb67d"/>
              <path id="Path_130280" data-name="Path 130280" d="M168.552,284.285a14.493,14.493,0,0,1-7.29-2.247L15.395,195.532C5.213,189.5-1.682,173.716,1.723,164.264,6.142,151.99,14.152,136.376,27.169,131.7c7.655-2.746,16.089-1.433,25.082,3.9,2.671,1.588,5.877,3.61,8.878,5.5,1.578.994,3.1,1.957,4.444,2.791l1.553-10.4c-6.037-9.078-10.98-21.4-12.369-30.9l-8.4-52.67c-.19-.944-.35-1.728-.489-2.871l-.325-2.2a57.6,57.6,0,0,1-.32-7.989c.17-14.436,5.263-25.2,14.336-30.295S80.474,2.708,92.9,10.073c24.892,14.765,44.865,50.318,44.531,79.26a53.4,53.4,0,0,1-.524,6.736l.095.055-.459,2.252c-.18,1.044-.434,2.117-.7,3.171l-9.363,41.51c-1.538,7.485-7.111,11.565-12.663,14.481l1.488,15.415,14.91,8.878c26.25,15.564,40.172,54.652,47.232,84.7h0c1.683,7.176.335,13.188-3.6,16.074A8.768,8.768,0,0,1,168.552,284.285ZM35.194,134.114a19.854,19.854,0,0,0-6.741,1.163c-11.625,4.174-19,18.77-23.154,30.275-2.821,7.84,3.361,21.566,12.034,26.71L163.2,278.767c3.371,2,6.347,2.272,8.389.774,2.627-1.927,3.45-6.576,2.142-12.139-5.638-24.013-19.045-66.632-45.47-82.3L111.7,175.234l-1.922-19.919,1.168-.584c5.358-2.676,10.491-6.037,11.819-12.483l9.373-41.595c.265-1.024.5-2,.684-3.031l.125-.824a49.439,49.439,0,0,0,.679-7.505c.325-27.733-18.815-61.8-42.668-75.944C79.764,6.713,69.283,5.47,61.419,9.884c-7.84,4.4-12.244,14.006-12.4,27.019a53.519,53.519,0,0,0,.265,7.305l.115.424.235,1.957c.13,1.019.275,1.733.449,2.587l.235,1.228,8.194,51.612c1.353,9.228,6.247,21.257,12.169,29.96l.424.614L68.5,150.083l-2.437-1.438c-1.818-1.079-4.309-2.652-6.966-4.329-2.971-1.873-6.142-3.875-8.788-5.448C44.971,135.7,39.912,134.114,35.194,134.114Z" transform="translate(-0.844 -3.476)" fill="#299872"/>
            </g>
          </g>
          <path id="Path_130281" data-name="Path 130281" d="M69.171,34.314,67.481,15.09,45.3,27.554l2.535,13.309L37.915,88.872l-.644.369L34.737,99.592,26.5,108.676l-3.435,1.373,1.7,17.662L46.925,115.34l-1.7-17.662,10.007-5.691,3.38-11.619,1.184-4.044Z" transform="translate(87.885 55.519)" fill="#299872"/>
          <path id="Path_130282" data-name="Path 130282" d="M34.793,62.5,56.13,49.824l5.7,15.844.845,9.929-1.756,7.6L38.484,95.236l2.2-9.287L36.272,66.3Z" transform="translate(134.728 194.225)" fill="#299872"/>
        </g>
        <g id="Group_55490" data-name="Group 55490" transform="translate(174.178)">
          <g id="Group_55486" data-name="Group 55486" transform="translate(0)">
            <g id="Group_55484" data-name="Group 55484" transform="translate(10.851)">
              <path id="Path_130283" data-name="Path 130283" d="M126.844,76.059c0-27.514-20.633-61.374-45.005-72.329C72.8-.335,65.331-.724,59.049,2.706l-.759.384-.025.015-.16.095L38.311,14.82a1.773,1.773,0,0,0-.529,2.582L46.1,28.657c-.28,19.684,10.157,42.763,25.082,58.432v16.548c0,3.086,3.156,6.541,5.148,5.638l13.312-6.032,4.814,8.594a1.94,1.94,0,0,0,2.666.729l17.721-10.306v-.03C122.24,98.06,126.844,89.022,126.844,76.059Z" transform="translate(-35.535 1.526)" fill="#2eb67d"/>
              <path id="Path_130284" data-name="Path 130284" d="M126.461,78.008c0-27.514-20.633-61.374-45-72.329C72.418,1.614,64.947,1.225,58.666,4.655l-.759.384-.025.015-.16.095L37.928,16.769a1.772,1.772,0,0,0-.524,2.582l8.309,11.255c-.28,19.689,10.157,42.768,25.082,58.432v16.553c0,3.081,10.871-3.745,12.863-4.649l5.6,4.249,5.308-5.023,12.414-.235v-7.3C114.377,88.469,126.461,90.976,126.461,78.008Z" transform="translate(-37.054 9.31)" fill="#c1ffe5"/>
              <path id="Path_130285" data-name="Path 130285" d="M97.67,116.26a3.739,3.739,0,0,1-1.019-.14,3.8,3.8,0,0,1-2.337-1.828l-3.965-7.071-11.724,5.313a4.156,4.156,0,0,1-4.03-.509,8.761,8.761,0,0,1-3.8-6.856V89.37C55.436,72.967,45.659,50.132,45.7,30.8L37.774,20.057a3.671,3.671,0,0,1,1.1-5.353L59.71,2.535c6.731-3.675,14.745-3.361,24.428.984,24.572,11.05,46.124,45.659,46.124,74.067,0,12.713-4.249,22.33-12,27.244v.02l-.944.584-17.726,10.3A3.825,3.825,0,0,1,97.67,116.26Zm-5.7-13.946,5.662,10.122,17.8-10.336c7.116-4.01,11.03-12.713,11.03-24.512,0-27.1-20.5-60.085-43.877-70.6C74.056,3.16,67.155,2.8,61.483,5.9l-.809.409L40.8,17.985,49.524,29.57l-.01.639c-.265,18.456,9.612,41.4,24.557,57.094l.524.554v17.312c0,1.932,1.878,3.87,2.557,3.875Z" transform="translate(-37.055 0)" fill="#299872"/>
            </g>
            <g id="Group_55485" data-name="Group 55485" transform="translate(0 11.555)">
              <path id="Path_130286" data-name="Path 130286" d="M116.048,78.157c0-27.514-20.628-61.374-45-72.329C52.892-2.331,38,5.868,35.62,25.407,33.1,46.12,44.084,72.08,60.382,89.188v16.553c0,3.081,3.161,6.536,5.153,5.633l15.759-7.146C100.928,112.387,116.048,101.7,116.048,78.157Z" transform="translate(-33.372 -0.801)" fill="#2eb67d"/>
              <path id="Path_130287" data-name="Path 130287" d="M66.346,114.938a4.8,4.8,0,0,1-2.557-.824,8.78,8.78,0,0,1-3.795-6.861v-15.8C42.962,73.264,32.8,46.739,35.242,26.69,36.46,16.709,40.93,9.069,47.84,5.174c7.011-3.955,16.059-3.8,25.491.434C97.9,16.654,119.46,51.263,119.46,79.67c0,12.438-4.12,22.031-11.6,27.024-6.681,4.454-15.534,4.839-25.012,1.114l-15.015,6.811A3.658,3.658,0,0,1,66.346,114.938ZM59.225,6.118a19.182,19.182,0,0,0-9.517,2.367C43.881,11.77,40.086,18.4,39.017,27.15c-2.337,19.2,7.64,44.8,24.253,62.237l.524.554v17.312c0,1.937,1.878,3.875,2.552,3.88l16.423-7.465.764.32c8.559,3.56,16.458,3.391,22.221-.459,6.387-4.264,9.9-12.733,9.9-23.858,0-27.1-20.5-60.085-43.877-70.6A30.93,30.93,0,0,0,59.225,6.118Z" transform="translate(-34.882 -2.314)" fill="#299872"/>
            </g>
          </g>
          <path id="Path_130288" data-name="Path 130288" d="M54.609,22.711,74.217,11.306l3.38,10.14V38.558l-1.9,9.084L61.331,61.8,49.767,67.287l8.348-16.9V32.432Z" transform="translate(24.561 45.148)" fill="#299872"/>
          <g id="Group_55487" data-name="Group 55487" transform="translate(13.323 46.093)">
            <path id="Path_130289" data-name="Path 130289" d="M52.306,23.576c0,4.474-3.141,6.287-7.011,4.05A15.5,15.5,0,0,1,38.28,15.477c0-4.474,3.141-6.287,7.016-4.05A15.51,15.51,0,0,1,52.306,23.576Z" transform="translate(-34.635 -4.288)" fill="#c1ffe5"/>
            <path id="Path_130290" data-name="Path 130290" d="M48.97,29.888a7.613,7.613,0,0,1-3.77-1.133,16.661,16.661,0,0,1-7.65-13.242c0-2.636.954-4.639,2.686-5.643s3.95-.819,6.232.494a16.677,16.677,0,0,1,7.645,13.242c0,2.636-.959,4.639-2.691,5.643A4.868,4.868,0,0,1,48.97,29.888ZM42.693,11.772a2.332,2.332,0,0,0-1.188.295c-.9.519-1.418,1.773-1.418,3.445a14.317,14.317,0,0,0,6.382,11.045c1.438.839,2.776,1.019,3.69.494s1.418-1.778,1.418-3.445A14.351,14.351,0,0,0,45.2,12.556,5.179,5.179,0,0,0,42.693,11.772Z" transform="translate(-37.55 -9.231)" fill="#157755"/>
          </g>
          <g id="Group_55488" data-name="Group 55488" transform="translate(32.812 57.34)">
            <path id="Path_130291" data-name="Path 130291" d="M56.209,25.829c0,4.474-3.141,6.287-7.016,4.05A15.51,15.51,0,0,1,42.183,17.73c0-4.474,3.141-6.287,7.011-4.05A15.5,15.5,0,0,1,56.209,25.829Z" transform="translate(-38.538 -6.537)" fill="#c1ffe5"/>
            <path id="Path_130292" data-name="Path 130292" d="M52.868,32.144A7.6,7.6,0,0,1,49.1,31.01a16.663,16.663,0,0,1-7.65-13.247c0-2.637.954-4.639,2.686-5.638s3.95-.824,6.232.494a16.677,16.677,0,0,1,7.645,13.242c0,2.636-.959,4.639-2.691,5.643A4.886,4.886,0,0,1,52.868,32.144ZM46.6,14.028a2.319,2.319,0,0,0-1.188.295c-.9.519-1.423,1.773-1.423,3.44a14.323,14.323,0,0,0,6.387,11.05c1.443.839,2.781,1.014,3.685.494s1.423-1.778,1.423-3.445A14.343,14.343,0,0,0,49.1,14.812,5.179,5.179,0,0,0,46.6,14.028Z" transform="translate(-41.453 -11.483)" fill="#157755"/>
          </g>
          <g id="Group_55489" data-name="Group 55489" transform="translate(52.301 68.592)">
            <path id="Path_130293" data-name="Path 130293" d="M60.116,28.082c0,4.474-3.141,6.287-7.016,4.05a15.5,15.5,0,0,1-7.016-12.149c0-4.474,3.141-6.287,7.016-4.05A15.5,15.5,0,0,1,60.116,28.082Z" transform="translate(-42.445 -8.792)" fill="#c1ffe5"/>
            <path id="Path_130294" data-name="Path 130294" d="M56.771,34.4a7.582,7.582,0,0,1-3.765-1.134,16.678,16.678,0,0,1-7.65-13.247c0-2.637.954-4.639,2.686-5.638s3.95-.824,6.227.494a16.656,16.656,0,0,1,7.645,13.242c0,2.637-.954,4.639-2.686,5.638A4.84,4.84,0,0,1,56.771,34.4ZM50.5,16.279a2.319,2.319,0,0,0-1.188.295c-.9.519-1.423,1.773-1.423,3.44a14.326,14.326,0,0,0,6.382,11.05c1.448.839,2.786,1.014,3.69.494s1.423-1.778,1.423-3.445a14.343,14.343,0,0,0-6.377-11.05A5.179,5.179,0,0,0,50.5,16.279Z" transform="translate(-45.356 -13.737)" fill="#157755"/>
          </g>
        </g>
        <g id="Group_55491" data-name="Group 55491" transform="translate(0 210.138)">
          <path id="Path_130295" data-name="Path 130295" d="M34.7,62.256c1.373.794,1.373,2.077,0,2.871a5.5,5.5,0,0,1-4.978,0c-1.373-.794-1.373-2.077,0-2.871A5.5,5.5,0,0,1,34.7,62.256Z" transform="translate(114.573 36.095)" fill="rgba(125,125,125,0.39)"/>
          <path id="Path_130296" data-name="Path 130296" d="M37.3,60.751c1.378.794,1.378,2.082,0,2.876a5.521,5.521,0,0,1-4.973,0c-1.378-.794-1.378-2.082,0-2.876A5.49,5.49,0,0,1,37.3,60.751Z" transform="translate(124.981 30.085)" fill="rgba(125,125,125,0.39)"/>
          <path id="Path_130297" data-name="Path 130297" d="M32.093,60.751c1.373.794,1.373,2.082,0,2.876a5.5,5.5,0,0,1-4.978,0c-1.373-.794-1.373-2.082,0-2.876A5.5,5.5,0,0,1,32.093,60.751Z" transform="translate(104.166 30.085)" fill="rgba(125,125,125,0.39)"/>
          <path id="Path_130298" data-name="Path 130298" d="M34.7,59.243c1.373.794,1.373,2.082,0,2.876a5.5,5.5,0,0,1-4.978,0c-1.373-.794-1.373-2.082,0-2.876A5.531,5.531,0,0,1,34.7,59.243Z" transform="translate(114.573 24.078)" fill="rgba(125,125,125,0.39)"/>
          <path id="Path_130299" data-name="Path 130299" d="M29.487,59.243c1.373.794,1.373,2.082,0,2.876a5.5,5.5,0,0,1-4.978,0c-1.373-.794-1.373-2.082,0-2.876A5.532,5.532,0,0,1,29.487,59.243Z" transform="translate(93.759 24.078)" fill="rgba(125,125,125,0.39)"/>
          <ellipse id="Ellipse_11146" data-name="Ellipse 11146" cx="3.52" cy="2.032" rx="3.52" ry="2.032" transform="translate(130.251 75.214)" fill="rgba(125,125,125,0.39)"/>
          <ellipse id="Ellipse_11147" data-name="Ellipse 11147" cx="3.519" cy="2.032" rx="3.519" ry="2.032" transform="translate(104.224 75.214)" fill="rgba(125,125,125,0.39)"/>
          <path id="Path_130300" data-name="Path 130300" d="M29.487,56.237c1.373.794,1.373,2.082,0,2.876a5.532,5.532,0,0,1-4.978,0c-1.373-.794-1.373-2.082,0-2.876A5.5,5.5,0,0,1,29.487,56.237Z" transform="translate(93.759 12.058)" fill="rgba(125,125,125,0.39)"/>
          <ellipse id="Ellipse_11148" data-name="Ellipse 11148" cx="3.52" cy="2.032" rx="3.52" ry="2.032" transform="translate(91.209 67.701)" fill="rgba(125,125,125,0.39)"/>
          <path id="Path_130301" data-name="Path 130301" d="M26.881,54.732c1.373.794,1.373,2.082,0,2.876a5.5,5.5,0,0,1-4.978,0c-1.373-.794-1.373-2.082,0-2.876A5.5,5.5,0,0,1,26.881,54.732Z" transform="translate(83.353 6.048)" fill="rgba(125,125,125,0.39)"/>
          <path id="Path_130302" data-name="Path 130302" d="M21.649,54.717c1.373.789,1.373,2.077,0,2.871a5.5,5.5,0,0,1-4.978,0c-1.378-.794-1.378-2.082,0-2.871A5.5,5.5,0,0,1,21.649,54.717Z" transform="translate(62.444 5.989)" fill="rgba(125,125,125,0.39)"/>
          <path id="Path_130303" data-name="Path 130303" d="M24.252,53.212c1.373.794,1.373,2.077,0,2.871a5.5,5.5,0,0,1-4.978,0c-1.373-.794-1.373-2.077,0-2.871A5.5,5.5,0,0,1,24.252,53.212Z" transform="translate(72.854 -0.022)" fill="rgba(125,125,125,0.39)"/>
          <path id="Path_130304" data-name="Path 130304" d="M19.038,53.212c1.378.794,1.378,2.077,0,2.871a5.49,5.49,0,0,1-4.973,0c-1.378-.794-1.378-2.077,0-2.871A5.49,5.49,0,0,1,19.038,53.212Z" transform="translate(52.038 -0.022)" fill="rgba(125,125,125,0.39)"/>
          <path id="Path_130305" data-name="Path 130305" d="M21.649,51.707c1.373.794,1.373,2.082,0,2.876a5.5,5.5,0,0,1-4.978,0c-1.378-.794-1.378-2.082,0-2.876A5.5,5.5,0,0,1,21.649,51.707Z" transform="translate(62.444 -6.032)" fill="rgba(125,125,125,0.39)"/>
          <ellipse id="Ellipse_11149" data-name="Ellipse 11149" cx="3.52" cy="2.032" rx="3.52" ry="2.032" transform="translate(52.056 45.08)" fill="rgba(125,125,125,0.39)"/>
          <path id="Path_130306" data-name="Path 130306" d="M19.038,50.2c1.378.794,1.378,2.082,0,2.876a5.49,5.49,0,0,1-4.973,0c-1.378-.794-1.378-2.082,0-2.876A5.49,5.49,0,0,1,19.038,50.2Z" transform="translate(52.038 -12.042)" fill="rgba(125,125,125,0.39)"/>
          <path id="Path_130307" data-name="Path 130307" d="M13.827,50.2c1.373.794,1.373,2.082,0,2.876a5.5,5.5,0,0,1-4.978,0c-1.373-.794-1.373-2.082,0-2.876A5.5,5.5,0,0,1,13.827,50.2Z" transform="translate(31.223 -12.042)" fill="rgba(125,125,125,0.39)"/>
          <path id="Path_130308" data-name="Path 130308" d="M16.433,48.7c1.373.794,1.373,2.077,0,2.871a5.5,5.5,0,0,1-4.978,0c-1.373-.794-1.373-2.077,0-2.871A5.5,5.5,0,0,1,16.433,48.7Z" transform="translate(41.63 -18.048)" fill="rgba(125,125,125,0.39)"/>
          <path id="Path_130309" data-name="Path 130309" d="M11.221,48.7c1.373.794,1.373,2.077,0,2.871a5.5,5.5,0,0,1-4.978,0c-1.373-.794-1.373-2.077,0-2.871A5.5,5.5,0,0,1,11.221,48.7Z" transform="translate(20.816 -18.048)" fill="rgba(125,125,125,0.39)"/>
          <ellipse id="Ellipse_11150" data-name="Ellipse 11150" cx="3.52" cy="2.032" rx="3.52" ry="2.032" transform="translate(39.041 22.54)" fill="rgba(125,125,125,0.39)"/>
          <path id="Path_130310" data-name="Path 130310" d="M8.613,47.193c1.378.794,1.378,2.082,0,2.876a5.521,5.521,0,0,1-4.973,0c-1.378-.794-1.378-2.082,0-2.876A5.49,5.49,0,0,1,8.613,47.193Z" transform="translate(10.407 -24.058)" fill="rgba(125,125,125,0.39)"/>
          <path id="Path_130311" data-name="Path 130311" d="M11.221,45.688c1.373.794,1.373,2.082,0,2.876a5.5,5.5,0,0,1-4.978,0c-1.373-.794-1.373-2.082,0-2.876A5.5,5.5,0,0,1,11.221,45.688Z" transform="translate(20.816 -30.068)" fill="rgba(125,125,125,0.39)"/>
          <path id="Path_130312" data-name="Path 130312" d="M6.007,45.688c1.378.794,1.378,2.082,0,2.876a5.49,5.49,0,0,1-4.973,0c-1.378-.794-1.378-2.082,0-2.876A5.49,5.49,0,0,1,6.007,45.688Z" transform="translate(0 -30.068)" fill="rgba(125,125,125,0.39)"/>
          <path id="Path_130313" data-name="Path 130313" d="M8.613,44.184c1.378.794,1.378,2.077,0,2.871a5.49,5.49,0,0,1-4.973,0c-1.378-.794-1.378-2.077,0-2.871A5.49,5.49,0,0,1,8.613,44.184Z" transform="translate(10.407 -36.074)" fill="rgba(125,125,125,0.39)"/>
          <path id="Path_130314" data-name="Path 130314" d="M6.007,42.679c1.378.794,1.378,2.082,0,2.871a5.49,5.49,0,0,1-4.973,0c-1.378-.789-1.378-2.077,0-2.871A5.49,5.49,0,0,1,6.007,42.679Z" transform="translate(0 -42.084)" fill="rgba(125,125,125,0.39)"/>
          <path id="Path_130315" data-name="Path 130315" d="M42.62,63.52c1.373.794,1.373,2.077,0,2.871a5.5,5.5,0,0,1-4.978,0c-1.373-.794-1.373-2.077,0-2.871A5.5,5.5,0,0,1,42.62,63.52Z" transform="translate(146.204 41.142)" fill="rgba(125,125,125,0.39)"/>
          <path id="Path_130316" data-name="Path 130316" d="M45.226,62.015c1.373.794,1.373,2.082,0,2.876a5.532,5.532,0,0,1-4.978,0c-1.373-.794-1.373-2.082,0-2.876A5.5,5.5,0,0,1,45.226,62.015Z" transform="translate(156.611 35.132)" fill="rgba(125,125,125,0.39)"/>
          <path id="Path_130317" data-name="Path 130317" d="M47.831,60.51c1.378.794,1.378,2.082,0,2.876a5.49,5.49,0,0,1-4.973,0c-1.378-.794-1.378-2.082,0-2.876A5.49,5.49,0,0,1,47.831,60.51Z" transform="translate(167.019 29.122)" fill="rgba(125,125,125,0.39)"/>
          <path id="Path_130318" data-name="Path 130318" d="M37.406,63.52c1.378.794,1.378,2.077,0,2.871a5.49,5.49,0,0,1-4.973,0c-1.378-.794-1.378-2.077,0-2.871A5.49,5.49,0,0,1,37.406,63.52Z" transform="translate(125.388 41.142)" fill="rgba(125,125,125,0.39)"/>
          <path id="Path_130319" data-name="Path 130319" d="M40.014,62.015c1.373.794,1.373,2.082,0,2.876a5.532,5.532,0,0,1-4.978,0c-1.373-.794-1.373-2.082,0-2.876A5.5,5.5,0,0,1,40.014,62.015Z" transform="translate(135.798 35.132)" fill="rgba(125,125,125,0.39)"/>
          <path id="Path_130320" data-name="Path 130320" d="M42.62,60.51c1.373.794,1.373,2.082,0,2.876a5.5,5.5,0,0,1-4.978,0c-1.373-.794-1.373-2.082,0-2.876A5.5,5.5,0,0,1,42.62,60.51Z" transform="translate(146.204 29.122)" fill="rgba(125,125,125,0.39)"/>
          <path id="Path_130321" data-name="Path 130321" d="M45.226,59.006c1.373.794,1.373,2.077,0,2.871a5.5,5.5,0,0,1-4.978,0c-1.373-.794-1.373-2.077,0-2.871A5.5,5.5,0,0,1,45.226,59.006Z" transform="translate(156.611 23.116)" fill="rgba(125,125,125,0.39)"/>
          <path id="Path_130322" data-name="Path 130322" d="M47.831,57.5c1.378.794,1.378,2.082,0,2.871a5.49,5.49,0,0,1-4.973,0c-1.378-.789-1.378-2.077,0-2.871A5.49,5.49,0,0,1,47.831,57.5Z" transform="translate(167.019 17.106)" fill="rgba(125,125,125,0.39)"/>
        </g>
      </g>
    </g>
    <g id="Artwork_62" data-name="Artwork 62" transform="translate(882.524 521.942)">
      <g id="Group_55510" data-name="Group 55510" transform="translate(0 -0.001)">
        <g id="Group_55508" data-name="Group 55508" transform="translate(0)">
          <g id="Group_55507" data-name="Group 55507">
            <g id="_9" data-name="9">
              <g id="Group_55502" data-name="Group 55502">
                <g id="Group_55495" data-name="Group 55495" transform="translate(0)">
                  <g id="Group_55494" data-name="Group 55494">
                    <path id="Path_130323" data-name="Path 130323" d="M39.818,105.454l7.419-7.637c-14.7-16.175-22.01-34.261-20.048-49.622,1.573-12.313,8.927-22.766,21.846-31.064C82.9-4.621,123.083,44.619,123.487,45.121l7.844-7.147c-1.867-2.329-46.207-56.74-87.542-30.192C28.257,17.759,19,31.26,17.008,46.825,14.621,65.51,22.934,86.881,39.818,105.454Z" transform="translate(-14.79 1.318)" fill="#1d4487"/>
                    <g id="Group_55493" data-name="Group 55493" transform="translate(6.103 20)">
                      <path id="Path_130324" data-name="Path 130324" d="M40.424,34.626A127.728,127.728,0,0,0,16.932,13.114l9.414-6.609A135.518,135.518,0,0,1,48.268,27.483Z" transform="translate(60.986 -6.505)" fill="#e1ebfe"/>
                      <path id="Path_130325" data-name="Path 130325" d="M48.78,21.7A85.193,85.193,0,0,0,65.238,47.316l-7.419,7.637A96.937,96.937,0,0,1,40.078,27.805Z" transform="translate(-40.078 33.501)" fill="#e1ebfe"/>
                    </g>
                    <path id="Path_130326" data-name="Path 130326" d="M40.907,109.428l9.955-10.249-1.148-1.264C35.37,82.132,28.23,64.573,30.123,49.745c1.5-11.757,8.578-21.774,21.029-29.767C83.6-.876,122.813,47.093,123.206,47.58l1.21,1.5,10.533-9.6-1.068-1.33c-1.907-2.38-47.272-57.99-89.94-30.588C27.94,17.85,18.4,31.8,16.339,47.911,13.883,67.127,22.363,89.028,39.606,108Zm4.977-10.344L41,104.109C25.346,86.277,17.683,66.055,19.943,48.372,21.861,33.36,30.835,20.306,45.9,10.63c36.957-23.736,76.842,20.008,84.054,28.492l-5.17,4.709c-7.176-8.215-43.864-47.29-75.6-26.911-13.4,8.6-21.025,19.492-22.671,32.365C24.543,64.765,31.587,82.84,45.884,99.084Z" transform="translate(-15.922 0)" fill="#153365"/>
                  </g>
                </g>
                <g id="Group_55496" data-name="Group 55496" transform="translate(16.864 89.828)">
                  <path id="Path_130327" data-name="Path 130327" d="M36.444,55.312c-5.617-10.369-9.708-18.5-9.708-18.5s9.239-7,13.966-9.508h0c4.483-2.932,10.94-2.867,18.311.89,14.765,7.521,27.151,25.937,28.23,42.439.465,7.121-1.791,11.594-4.727,15.757,0,0-7.775,10.965-15.906,12.251-3.415.541-10.994-10.278-18.638-23.013A62.868,62.868,0,0,1,36.444,55.312Z" transform="translate(-24.433 -23.399)" fill="#1d4487"/>
                  <path id="Path_130328" data-name="Path 130328" d="M41.513,29.577h0c4.483-2.928,10.94-2.863,18.311.89,9.334,4.756,17.708,13.868,22.886,24.1-4.938,2.928-12.622,8.745-12.622,8.745s-2.118,7.539,3.5,17.9c.389,1.17-2.314,7.492-1.838,8.654-.56.6-2.627.327-3.077.963-4.215,3.179,2.961,1.526-5.166,2.816-3.415.541-7.081-3.008-14.725-15.739a62.923,62.923,0,0,1-11.528-20.32c-5.617-10.366-9.708-18.5-9.708-18.5S36.786,32.087,41.513,29.577Z" transform="translate(-22.784 -17.406)" fill="#e1ebfe"/>
                  <path id="Path_130329" data-name="Path 130329" d="M68.145,101.805a3.924,3.924,0,0,0,.556-.04c9.043-1.435,17.189-13.127,17.243-13.239A24.051,24.051,0,0,0,90.86,71.842C89.737,54.7,77.177,35.812,61.642,27.9c-7.735-3.946-14.882-4.225-20.132-.8-4.658,2.471-13.686,9.29-14.068,9.584l-1.206.908.679,1.355c.044.08,4.131,8.2,9.661,18.406A65.08,65.08,0,0,0,48.388,78.128C60.494,98.332,65.3,101.805,68.145,101.805ZM49.965,28.375a22.5,22.5,0,0,1,10.028,2.761C74.242,38.4,86.21,56.38,87.234,72.079c.414,6.344-1.457,10.42-4.4,14.587-.073.105-7.415,10.355-14.7,11.506-.338-.011-3.924-.712-16.8-22.152A62.236,62.236,0,0,1,39.973,56.067l-.127-.3c-4.218-7.779-7.6-14.358-9-17.094a133.927,133.927,0,0,1,12.505-8.444A11.9,11.9,0,0,1,49.965,28.375Z" transform="translate(-26.236 -24.724)" fill="#153365"/>
                </g>
                <g id="Group_55497" data-name="Group 55497" transform="translate(11.352 98.948)">
                  <path id="Path_130330" data-name="Path 130330" d="M30.374,46.965c1.075,16.5,13.919,35.976,28.688,43.5s25.861.24,24.782-16.262S69.925,38.227,55.159,30.7,29.294,30.463,30.374,46.965Z" transform="translate(-28.484 -25.908)" fill="#153365"/>
                  <path id="Path_130331" data-name="Path 130331" d="M71.293,96.583a15.1,15.1,0,0,0,8.433-2.409c5.239-3.448,7.811-10.111,7.248-18.762-1.115-17.043-14.427-37.233-29.672-45-7.757-3.957-14.925-4.225-20.175-.767S29.311,39.76,29.878,48.407C30.99,65.454,44.3,85.64,59.55,93.408A26.218,26.218,0,0,0,71.293,96.583ZM45.577,30.873a22.608,22.608,0,0,1,10.075,2.776c14.231,7.252,26.657,26.094,27.7,42,.476,7.288-1.519,12.792-5.621,15.492s-9.977,2.365-16.527-.966c-14.235-7.255-26.66-26.094-27.7-42-.476-7.292,1.519-12.8,5.621-15.5A11.533,11.533,0,0,1,45.577,30.873Z" transform="translate(-29.801 -27.234)" fill="#153365"/>
                </g>
                <g id="Group_55498" data-name="Group 55498" transform="translate(11.738 108.449)">
                  <path id="Path_130332" data-name="Path 130332" d="M66.076,85.723a12.371,12.371,0,0,0,6.91-1.973c4.28-2.823,6.387-8.236,5.929-15.252C78.022,54.833,67.348,38.644,55.122,32.42,48.833,29.208,43.005,29,38.711,31.828s-6.387,8.236-5.929,15.252h0c.894,13.664,11.568,29.85,23.794,36.078A21.147,21.147,0,0,0,66.076,85.723ZM45.636,33.488a17.646,17.646,0,0,1,7.837,2.165c11.212,5.711,21,20.549,21.817,33.08.367,5.653-1.159,9.908-4.3,11.979s-7.688,1.795-12.763-.788c-11.208-5.711-21-20.553-21.817-33.08h0c-.367-5.653,1.159-9.908,4.3-11.982A8.8,8.8,0,0,1,45.636,33.488Z" transform="translate(-32.72 -29.85)" fill="#1d4487"/>
                </g>
                <g id="Group_55499" data-name="Group 55499" transform="translate(99.643 27.69)">
                  <path id="Path_130333" data-name="Path 130333" d="M13.665,38.207c-5.621-10.366-9.712-18.5-9.712-18.5s9.239-7,13.966-9.512h0c4.483-2.928,10.94-2.863,18.311.89C51,18.613,63.381,37.03,64.461,53.532c.465,7.121-1.791,11.594-4.723,15.754,0,0-8.131,11.728-17.392,12.891-3.43.429-9.512-10.914-17.156-23.649A62.912,62.912,0,0,1,13.665,38.207Z" transform="translate(-1.653 -6.295)" fill="#1d4487"/>
                  <path id="Path_130334" data-name="Path 130334" d="M18.245,12.042h0c4.487-2.928,10.943-2.863,18.315.89C48.034,18.778,58.047,31.207,62.454,44.2c-.047.029-.105.051-.156.084h0c-4.727,2.514-13.962,9.508-13.962,9.508s-3.688,4.164,1.3,13.436c-.171.218-.894,1.8-1.046,2.016,0,0,3.194,2.293-6.071,3.455-3.426.429-9.355.4-17-12.331A62.979,62.979,0,0,1,13.991,40.05C8.37,29.684,4.283,21.55,4.283,21.55S13.519,14.556,18.245,12.042Z" transform="translate(-0.784 -1.442)" fill="#e1ebfe"/>
                  <path id="Path_130335" data-name="Path 130335" d="M43.945,85.334a3.342,3.342,0,0,0,.425-.029c9.955-1.246,18.308-13.149,18.656-13.654,2.921-4.145,5.559-9.072,5.047-16.909C66.954,37.6,54.394,18.715,38.859,10.8,31.124,6.857,23.97,6.573,18.727,10,14.066,12.474,5.041,19.3,4.66,19.587L3.453,20.5l.679,1.352c.04.08,4.127,8.2,9.657,18.406A65,65,0,0,0,25.6,61.024c.945,1.624,2.027,3.448,3.074,5.217C36.218,78.987,40.149,85.334,43.945,85.334ZM27.175,11.275a22.526,22.526,0,0,1,10.035,2.761c14.246,7.259,26.214,25.243,27.238,40.939.414,6.344-1.457,10.42-4.4,14.595-.087.12-7.793,11.089-16.131,12.131C41.9,81.45,36.3,71.993,31.8,64.392c-1.046-1.773-2.133-3.608-3.252-5.475A62.266,62.266,0,0,1,17.187,38.963l-.127-.294c-4.215-7.782-7.6-14.358-8.992-17.094a133.139,133.139,0,0,1,12.5-8.444A11.891,11.891,0,0,1,27.175,11.275Z" transform="translate(-3.453 -7.622)" fill="#153365"/>
                </g>
                <g id="Group_55500" data-name="Group 55500" transform="translate(94.128 36.815)">
                  <path id="Path_130336" data-name="Path 130336" d="M7.59,29.86c1.075,16.506,13.922,35.98,28.688,43.5S62.139,73.6,61.06,57.1,47.141,21.122,32.376,13.6,6.515,13.358,7.59,29.86Z" transform="translate(-5.701 -8.81)" fill="#153365"/>
                  <path id="Path_130337" data-name="Path 130337" d="M48.509,79.48a15.1,15.1,0,0,0,8.433-2.409c5.239-3.452,7.815-10.118,7.248-18.762-1.112-17.047-14.42-37.233-29.672-45C26.761,9.355,19.6,9.086,14.342,12.541S6.531,22.653,7.094,31.3c1.112,17.043,14.424,37.233,29.672,45A26.218,26.218,0,0,0,48.509,79.48ZM22.793,13.769a22.647,22.647,0,0,1,10.075,2.772c14.235,7.252,26.66,26.094,27.7,42,.476,7.292-1.519,12.792-5.621,15.5s-9.98,2.362-16.524-.97c-14.235-7.252-26.66-26.094-27.7-42-.476-7.288,1.519-12.792,5.621-15.492A11.533,11.533,0,0,1,22.793,13.769Z" transform="translate(-7.018 -10.133)" fill="#153365"/>
                </g>
                <g id="Group_55501" data-name="Group 55501" transform="translate(107.239 52.878)">
                  <path id="Path_130338" data-name="Path 130338" d="M32.714,51.772a8.57,8.57,0,0,0,4.8-1.381c2.954-1.944,4.411-5.635,4.1-10.384-.6-9.145-7.47-19.568-15.645-23.732-4.262-2.169-8.244-2.3-11.2-.338s-4.414,5.631-4.1,10.384c.6,9.141,7.466,19.561,15.645,23.728A14.242,14.242,0,0,0,32.714,51.772ZM19.58,18.19a10.683,10.683,0,0,1,4.738,1.322c7.027,3.579,13.159,12.876,13.672,20.727.222,3.393-.658,5.922-2.478,7.117s-4.5,1.01-7.55-.541C20.935,43.23,14.8,33.937,14.293,26.085h0c-.222-3.39.654-5.918,2.474-7.117A5.026,5.026,0,0,1,19.58,18.19Z" transform="translate(-10.626 -14.554)" fill="#1d4487"/>
                </g>
              </g>
              <g id="Group_55506" data-name="Group 55506" transform="translate(130.475 93.68)">
                <g id="Group_55504" data-name="Group 55504" transform="translate(6.083)">
                  <g id="Group_55503" data-name="Group 55503">
                    <path id="Path_130339" data-name="Path 130339" d="M6.3,77.083a3.029,3.029,0,0,0,4.4-.712L20.133,62.9c8.858-12.654,4.4-27.122-.356-35.122a3,3,0,0,0-4.6-.73l-.022.018a3.485,3.485,0,0,0-.712,4.349c2.921,4.952,8.226,16.724.661,27.525L5.676,72.414A3.47,3.47,0,0,0,6.3,77.083Z" transform="translate(-3.24 -24.469)" fill="#1d4487"/>
                    <path id="Path_130340" data-name="Path 130340" d="M9.466,80.866a5.161,5.161,0,0,0,.708-.051,4.908,4.908,0,0,0,3.332-2.089l9.432-13.472c8.68-12.4,5.548-27.289-.28-37.091a4.818,4.818,0,0,0-7.346-1.174A5.326,5.326,0,0,0,14.2,33.652c2.565,4.342,7.768,15.521.738,25.56L5.506,72.687A5.317,5.317,0,0,0,6.5,79.827,4.772,4.772,0,0,0,9.466,80.866Zm9.047-51.45a1.061,1.061,0,0,1,.185.015,1.2,1.2,0,0,1,.836.589c5.25,8.829,8.117,22.17.429,33.149L10.531,76.644a1.311,1.311,0,0,1-.887.574,1.112,1.112,0,0,1-.894-.243,1.653,1.653,0,0,1-.265-2.2L17.913,61.3c8.244-11.775,2.34-24.546-.585-29.494a1.664,1.664,0,0,1,.342-2.053A1.275,1.275,0,0,1,18.513,29.416Z" transform="translate(-4.559 -25.784)" fill="#153365"/>
                  </g>
                </g>
                <g id="Group_55505" data-name="Group 55505" transform="translate(0 31.852)">
                  <path id="Path_130341" data-name="Path 130341" d="M6.224,47.741C6.66,54.2,11.939,59.022,18.018,58.5s10.656-6.187,10.22-12.651S22.527,34.567,16.445,35.094,5.792,41.281,6.224,47.741Z" transform="translate(-4.379 -33.228)" fill="#153365"/>
                  <path id="Path_130342" data-name="Path 130342" d="M6.714,43.834a7.278,7.278,0,0,0,7.7,7.019A7.612,7.612,0,0,0,21.084,42.6a7.278,7.278,0,0,0-7.7-7.019A7.612,7.612,0,0,0,6.714,43.834Z" transform="translate(0.969 -31.911)" fill="#1d4487"/>
                  <path id="Path_130343" data-name="Path 130343" d="M18.434,61.679c.349,0,.7-.015,1.057-.047,7.048-.607,12.375-7.15,11.877-14.584a13.554,13.554,0,0,0-4.658-9.475,12.139,12.139,0,0,0-9.1-2.968c-7.048.61-12.375,7.15-11.877,14.584h0a13.544,13.544,0,0,0,4.661,9.475A12.3,12.3,0,0,0,18.434,61.679Zm.225-23.485a8.688,8.688,0,0,1,5.682,2.136,9.935,9.935,0,0,1,3.4,6.961c.371,5.472-3.473,10.282-8.563,10.722a8.627,8.627,0,0,1-6.423-2.1,9.963,9.963,0,0,1-3.4-6.961h0c-.367-5.472,3.473-10.282,8.563-10.725C18.165,38.2,18.412,38.194,18.659,38.194Z" transform="translate(-5.696 -34.551)" fill="#153365"/>
                </g>
              </g>
            </g>
            <path id="Path_130344" data-name="Path 130344" d="M7.314,41.045a8.158,8.158,0,0,1,.236-2.431A7.008,7.008,0,0,1,11.8,36.638a7.278,7.278,0,0,1,7.7,7.019,8.159,8.159,0,0,1-.236,2.431,7.008,7.008,0,0,1-4.247,1.976A7.278,7.278,0,0,1,7.314,41.045Z" transform="translate(130.841 96.409)" fill="#e1ebfe"/>
          </g>
        </g>
        <g id="Group_55509" data-name="Group 55509" transform="translate(15.016 101.776)">
          <ellipse id="Ellipse_11151" data-name="Ellipse 11151" cx="2.487" cy="1.436" rx="2.487" ry="1.436" transform="translate(120.019 69.005)" fill="rgba(125,125,125,0.62)"/>
          <ellipse id="Ellipse_11152" data-name="Ellipse 11152" cx="2.487" cy="1.436" rx="2.487" ry="1.436" transform="translate(110.823 63.696)" fill="rgba(125,125,125,0.62)"/>
          <ellipse id="Ellipse_11153" data-name="Ellipse 11153" cx="2.487" cy="1.436" rx="2.487" ry="1.436" transform="translate(138.412 69.005)" fill="rgba(125,125,125,0.62)"/>
          <path id="Path_130345" data-name="Path 130345" d="M8.343,45.964a1.072,1.072,0,0,0,0,2.031,3.872,3.872,0,0,0,3.517,0,1.071,1.071,0,0,0,0-2.031A3.894,3.894,0,0,0,8.343,45.964Z" transform="translate(121.601 18.151)" fill="rgba(125,125,125,0.62)"/>
          <path id="Path_130346" data-name="Path 130346" d="M10.874,44.5a1.072,1.072,0,0,0,0,2.031,3.894,3.894,0,0,0,3.517,0,1.072,1.072,0,0,0,0-2.031A3.894,3.894,0,0,0,10.874,44.5Z" transform="translate(109.874 14.304)" fill="rgba(125,125,125,0.62)"/>
          <path id="Path_130347" data-name="Path 130347" d="M13.408,43.044a1.071,1.071,0,0,0,0,2.031,3.894,3.894,0,0,0,3.517,0,1.072,1.072,0,0,0,0-2.031A3.872,3.872,0,0,0,13.408,43.044Z" transform="translate(98.144 10.455)" fill="rgba(125,125,125,0.62)"/>
          <ellipse id="Ellipse_11154" data-name="Ellipse 11154" cx="2.487" cy="1.436" rx="2.487" ry="1.436" transform="translate(147.608 63.696)" fill="rgba(125,125,125,0.62)"/>
          <ellipse id="Ellipse_11155" data-name="Ellipse 11155" cx="2.487" cy="1.436" rx="2.487" ry="1.436" transform="translate(138.412 58.386)" fill="rgba(125,125,125,0.62)"/>
          <ellipse id="Ellipse_11156" data-name="Ellipse 11156" cx="2.487" cy="1.436" rx="2.487" ry="1.436" transform="translate(129.215 53.077)" fill="rgba(125,125,125,0.62)"/>
          <path id="Path_130348" data-name="Path 130348" d="M3.28,43.044a1.072,1.072,0,0,0,0,2.031,3.9,3.9,0,0,0,3.521,0,1.072,1.072,0,0,0,0-2.031A3.879,3.879,0,0,0,3.28,43.044Z" transform="translate(145.055 10.455)" fill="rgba(125,125,125,0.62)"/>
          <ellipse id="Ellipse_11157" data-name="Ellipse 11157" cx="2.487" cy="1.436" rx="2.487" ry="1.436" transform="translate(110.823 31.839)" fill="rgba(125,125,125,0.62)"/>
          <path id="Path_130349" data-name="Path 130349" d="M8.321,34.258a1.072,1.072,0,0,0,0,2.031,3.894,3.894,0,0,0,3.517,0,1.072,1.072,0,0,0,0-2.031A3.894,3.894,0,0,0,8.321,34.258Z" transform="translate(121.702 -12.673)" fill="rgba(125,125,125,0.62)"/>
          <ellipse id="Ellipse_11158" data-name="Ellipse 11158" cx="2.487" cy="1.436" rx="2.487" ry="1.436" transform="translate(147.687 21.164)" fill="rgba(125,125,125,0.62)"/>
          <path id="Path_130350" data-name="Path 130350" d="M.727,32.8a1.072,1.072,0,0,0,0,2.031,3.9,3.9,0,0,0,3.521,0,1.072,1.072,0,0,0,0-2.031A3.879,3.879,0,0,0,.727,32.8Z" transform="translate(156.883 -16.522)" fill="rgba(125,125,125,0.62)"/>
          <path id="Path_130351" data-name="Path 130351" d="M3.259,31.335a1.072,1.072,0,0,0,0,2.031,3.872,3.872,0,0,0,3.517,0,1.071,1.071,0,0,0,0-2.031A3.894,3.894,0,0,0,3.259,31.335Z" transform="translate(145.156 -20.37)" fill="rgba(125,125,125,0.62)"/>
          <ellipse id="Ellipse_11159" data-name="Ellipse 11159" cx="2.487" cy="1.436" rx="2.487" ry="1.436" transform="translate(156.883 5.236)" fill="rgba(125,125,125,0.62)"/>
          <ellipse id="Ellipse_11160" data-name="Ellipse 11160" cx="2.487" cy="1.436" rx="2.487" ry="1.436" transform="translate(27.618 89.449)" fill="rgba(125,125,125,0.62)"/>
          <ellipse id="Ellipse_11161" data-name="Ellipse 11161" cx="2.487" cy="1.436" rx="2.487" ry="1.436" transform="translate(18.421 84.139)" fill="rgba(125,125,125,0.62)"/>
          <path id="Path_130352" data-name="Path 130352" d="M31.247,53.055a1.071,1.071,0,0,0,0,2.031,3.894,3.894,0,0,0,3.517,0,1.072,1.072,0,0,0,0-2.031A3.872,3.872,0,0,0,31.247,53.055Z" transform="translate(15.493 36.816)" fill="rgba(125,125,125,0.62)"/>
          <path id="Path_130353" data-name="Path 130353" d="M33.775,51.591a1.072,1.072,0,0,0,0,2.031,3.879,3.879,0,0,0,3.521,0,1.072,1.072,0,0,0,0-2.031A3.9,3.9,0,0,0,33.775,51.591Z" transform="translate(3.765 32.968)" fill="rgba(125,125,125,0.62)"/>
          <path id="Path_130354" data-name="Path 130354" d="M36.307,50.13a1.072,1.072,0,0,0,0,2.031,3.894,3.894,0,0,0,3.517,0,1.071,1.071,0,0,0,0-2.031A3.894,3.894,0,0,0,36.307,50.13Z" transform="translate(-7.962 29.121)" fill="rgba(125,125,125,0.62)"/>
          <path id="Path_130355" data-name="Path 130355" d="M28.716,51.591a1.071,1.071,0,0,0,0,2.031,3.872,3.872,0,0,0,3.517,0,1.072,1.072,0,0,0,0-2.031A3.894,3.894,0,0,0,28.716,51.591Z" transform="translate(27.219 32.968)" fill="rgba(125,125,125,0.62)"/>
          <path id="Path_130356" data-name="Path 130356" d="M31.247,50.13a1.071,1.071,0,0,0,0,2.031,3.894,3.894,0,0,0,3.517,0,1.072,1.072,0,0,0,0-2.031A3.894,3.894,0,0,0,31.247,50.13Z" transform="translate(15.493 29.121)" fill="rgba(125,125,125,0.62)"/>
          <ellipse id="Ellipse_11162" data-name="Ellipse 11162" cx="2.487" cy="1.436" rx="2.487" ry="1.436" transform="translate(36.814 73.521)" fill="rgba(125,125,125,0.62)"/>
          <ellipse id="Ellipse_11163" data-name="Ellipse 11163" cx="2.487" cy="1.436" rx="2.487" ry="1.436" transform="translate(64.482 78.774)" fill="rgba(125,125,125,0.62)"/>
          <path id="Path_130357" data-name="Path 130357" d="M28.694,48.653a1.071,1.071,0,0,0,0,2.031,3.894,3.894,0,0,0,3.517,0,1.072,1.072,0,0,0,0-2.031A3.894,3.894,0,0,0,28.694,48.653Z" transform="translate(27.321 25.232)" fill="rgba(125,125,125,0.62)"/>
          <path id="Path_130358" data-name="Path 130358" d="M31.225,47.192a1.071,1.071,0,0,0,0,2.031,3.894,3.894,0,0,0,3.517,0,1.072,1.072,0,0,0,0-2.031A3.894,3.894,0,0,0,31.225,47.192Z" transform="translate(15.595 21.385)" fill="rgba(125,125,125,0.62)"/>
          <path id="Path_130359" data-name="Path 130359" d="M23.629,48.653a1.072,1.072,0,0,0,0,2.031,3.872,3.872,0,0,0,3.517,0,1.072,1.072,0,0,0,0-2.031A3.894,3.894,0,0,0,23.629,48.653Z" transform="translate(50.777 25.232)" fill="rgba(125,125,125,0.62)"/>
          <path id="Path_130360" data-name="Path 130360" d="M26.16,47.192a1.072,1.072,0,0,0,0,2.031,3.894,3.894,0,0,0,3.517,0,1.072,1.072,0,0,0,0-2.031A3.894,3.894,0,0,0,26.16,47.192Z" transform="translate(39.051 21.385)" fill="rgba(125,125,125,0.62)"/>
          <ellipse id="Ellipse_11164" data-name="Ellipse 11164" cx="2.487" cy="1.436" rx="2.487" ry="1.436" transform="translate(55.285 62.846)" fill="rgba(125,125,125,0.62)"/>
          <ellipse id="Ellipse_11165" data-name="Ellipse 11165" cx="2.487" cy="1.436" rx="2.487" ry="1.436" transform="translate(73.678 62.846)" fill="rgba(125,125,125,0.62)"/>
          <path id="Path_130361" data-name="Path 130361" d="M26.16,44.269a1.072,1.072,0,0,0,0,2.031,3.894,3.894,0,0,0,3.517,0,1.072,1.072,0,0,0,0-2.031A3.894,3.894,0,0,0,26.16,44.269Z" transform="translate(39.051 13.688)" fill="rgba(125,125,125,0.62)"/>
          <path id="Path_130362" data-name="Path 130362" d="M19.464,35.759a3.872,3.872,0,0,0-3.517,0,1.069,1.069,0,0,0-.007,2.027,3.883,3.883,0,0,0,3.517.007A1.072,1.072,0,0,0,19.464,35.759Z" transform="translate(86.392 -8.732)" fill="rgba(125,125,125,0.62)"/>
          <path id="Path_130363" data-name="Path 130363" d="M18.478,34.292a1.071,1.071,0,0,0,0,2.031,3.872,3.872,0,0,0,3.517,0,1.072,1.072,0,0,0,0-2.031A3.894,3.894,0,0,0,18.478,34.292Z" transform="translate(74.654 -12.584)" fill="rgba(125,125,125,0.62)"/>
          <path id="Path_130364" data-name="Path 130364" d="M16.933,34.3a3.894,3.894,0,0,0-3.517,0,1.072,1.072,0,0,0-.007,2.031,3.883,3.883,0,0,0,3.517,0A1.072,1.072,0,0,0,16.933,34.3Z" transform="translate(98.118 -12.58)" fill="rgba(125,125,125,0.62)"/>
          <ellipse id="Ellipse_11166" data-name="Ellipse 11166" cx="2.487" cy="1.436" rx="2.487" ry="1.436" transform="translate(101.598 15.979)" fill="rgba(125,125,125,0.62)"/>
          <ellipse id="Ellipse_11167" data-name="Ellipse 11167" cx="2.487" cy="1.436" rx="2.487" ry="1.436" transform="translate(92.402 10.67)" fill="rgba(125,125,125,0.62)"/>
          <path id="Path_130365" data-name="Path 130365" d="M14.378,32.818a3.894,3.894,0,0,0-3.517,0,1.072,1.072,0,0,0-.007,2.031,3.89,3.89,0,0,0,3.521,0A1.072,1.072,0,0,0,14.378,32.818Z" transform="translate(109.948 -16.469)" fill="rgba(125,125,125,0.62)"/>
          <path id="Path_130366" data-name="Path 130366" d="M13.394,31.354a1.071,1.071,0,0,0,0,2.031,3.872,3.872,0,0,0,3.517,0,1.072,1.072,0,0,0,0-2.031A3.894,3.894,0,0,0,13.394,31.354Z" transform="translate(98.209 -20.32)" fill="rgba(125,125,125,0.62)"/>
          <ellipse id="Ellipse_11168" data-name="Ellipse 11168" cx="2.487" cy="1.436" rx="2.487" ry="1.436" transform="translate(101.678 5.305)" fill="rgba(125,125,125,0.62)"/>
          <path id="Path_130367" data-name="Path 130367" d="M11.845,31.358a3.883,3.883,0,0,0-3.517,0,1.072,1.072,0,0,0,0,2.031,3.883,3.883,0,0,0,3.517,0A1.072,1.072,0,0,0,11.845,31.358Z" transform="translate(121.677 -20.317)" fill="rgba(125,125,125,0.62)"/>
          <path id="Path_130368" data-name="Path 130368" d="M10.86,29.893a1.072,1.072,0,0,0,0,2.031,3.894,3.894,0,0,0,3.517,0,1.072,1.072,0,0,0,0-2.031A3.894,3.894,0,0,0,10.86,29.893Z" transform="translate(109.939 -24.167)" fill="rgba(125,125,125,0.62)"/>
          <path id="Path_130369" data-name="Path 130369" d="M6.786,28.434a3.894,3.894,0,0,0-3.517,0,1.072,1.072,0,0,0-.007,2.031,3.883,3.883,0,0,0,3.517,0A1.072,1.072,0,0,0,6.786,28.434Z" transform="translate(145.131 -28.013)" fill="rgba(125,125,125,0.62)"/>
          <path id="Path_130370" data-name="Path 130370" d="M44.893,50.153a3.883,3.883,0,0,0-3.517,0,1.072,1.072,0,0,0,0,2.031,3.894,3.894,0,0,0,3.517,0A1.072,1.072,0,0,0,44.893,50.153Z" transform="translate(-31.441 29.174)" fill="rgba(125,125,125,0.62)"/>
          <ellipse id="Ellipse_11169" data-name="Ellipse 11169" cx="2.487" cy="1.436" rx="2.487" ry="1.436" transform="translate(0 73.589)" fill="rgba(125,125,125,0.62)"/>
          <path id="Path_130371" data-name="Path 130371" d="M42.365,48.69a3.894,3.894,0,0,0-3.517,0,1.072,1.072,0,0,0-.007,2.031,3.883,3.883,0,0,0,3.517,0A1.072,1.072,0,0,0,42.365,48.69Z" transform="translate(-19.714 25.325)" fill="rgba(125,125,125,0.62)"/>
          <path id="Path_130372" data-name="Path 130372" d="M41.377,47.226a1.072,1.072,0,0,0,0,2.031,3.894,3.894,0,0,0,3.517,0,1.071,1.071,0,0,0,0-2.031A3.894,3.894,0,0,0,41.377,47.226Z" transform="translate(-31.452 21.474)" fill="rgba(125,125,125,0.62)"/>
          <path id="Path_130373" data-name="Path 130373" d="M43.908,45.767a1.072,1.072,0,0,0,0,2.031,3.894,3.894,0,0,0,3.517,0,1.072,1.072,0,0,0,0-2.031A3.872,3.872,0,0,0,43.908,45.767Z" transform="translate(-43.179 17.625)" fill="rgba(125,125,125,0.62)"/>
          <path id="Path_130374" data-name="Path 130374" d="M39.834,47.23a3.883,3.883,0,0,0-3.517,0,1.072,1.072,0,0,0-.007,2.031,3.883,3.883,0,0,0,3.517,0A1.072,1.072,0,0,0,39.834,47.23Z" transform="translate(-7.987 21.477)" fill="rgba(125,125,125,0.62)"/>
          <path id="Path_130375" data-name="Path 130375" d="M38.846,45.767a1.072,1.072,0,0,0,0,2.031,3.894,3.894,0,0,0,3.517,0,1.071,1.071,0,0,0,0-2.031A3.872,3.872,0,0,0,38.846,45.767Z" transform="translate(-19.725 17.625)" fill="rgba(125,125,125,0.62)"/>
          <ellipse id="Ellipse_11170" data-name="Ellipse 11170" cx="2.487" cy="1.436" rx="2.487" ry="1.436" transform="translate(9.196 57.661)" fill="rgba(125,125,125,0.62)"/>
        </g>
      </g>
    </g>
  </g>
</svg>
