<svg xmlns="http://www.w3.org/2000/svg" width="52" height="52" viewBox="0 0 52 52">
  <g id="cup-1" transform="translate(-1077 -866)">
    <path id="Path_136463" data-name="Path 136463" d="M26,0A26,26,0,1,1,0,26,26,26,0,0,1,26,0Z" transform="translate(1077 866)" fill="#eb7d00" opacity="0.09"/>
    <g id="cup" transform="translate(1085 874)">
      <g id="vuesax_outline_cup" data-name="vuesax/outline/cup">
        <g id="cup-1-2" data-name="cup-1">
          <path id="Vector" d="M1.125,5.4A1.133,1.133,0,0,1,0,4.275V1.125A1.133,1.133,0,0,1,1.125,0,1.133,1.133,0,0,1,2.25,1.125v3.15A1.133,1.133,0,0,1,1.125,5.4Z" transform="translate(17.1 23.625)" fill="gold"/>
          <path id="Vector-2" data-name="Vector" d="M17.25,6.75H0V4.125A4.123,4.123,0,0,1,4.125,0h9A4.123,4.123,0,0,1,17.25,4.125ZM2.25,4.5H15V4.125A1.876,1.876,0,0,0,13.125,2.25h-9A1.876,1.876,0,0,0,2.25,4.125V4.5Z" transform="translate(9.6 27.375)" fill="gold"/>
          <path id="Vector-3" data-name="Vector" d="M19.125,2.25h-18A1.133,1.133,0,0,1,0,1.125,1.133,1.133,0,0,1,1.125,0h18A1.133,1.133,0,0,1,20.25,1.125,1.133,1.133,0,0,1,19.125,2.25Z" transform="translate(8.1 31.875)" fill="gold"/>
          <path id="Vector-4" data-name="Vector" d="M1.132,13.32a1.143,1.143,0,0,1-.855-.39A1.109,1.109,0,0,1,.1,11.745a9.226,9.226,0,0,0,.765-3.72v-4.5A4.9,4.9,0,0,0,.592,1.95c-.015-.045-.03-.105-.045-.165a3.375,3.375,0,0,1-.06-.66A1.133,1.133,0,0,1,1.612,0h.9A4.957,4.957,0,0,1,7.387,5.025a8.845,8.845,0,0,1-2.58,6.2c-.03.03-.12.1-.135.12a8.758,8.758,0,0,1-3.24,1.935A1.039,1.039,0,0,1,1.132,13.32ZM3.007,2.3a6.812,6.812,0,0,1,.1,1.23v4.5a11.969,11.969,0,0,1-.135,1.8l.255-.21a6.558,6.558,0,0,0,1.905-4.59A2.742,2.742,0,0,0,3.007,2.3Z" transform="translate(26.513 5.34)" fill="gold"/>
          <path id="Vector-5" data-name="Vector" d="M6.27,13.2a.93.93,0,0,1-.345-.06A8.345,8.345,0,0,1,2.58,11.07,9.1,9.1,0,0,1,0,4.875,4.828,4.828,0,0,1,4.875,0H5.85a1.148,1.148,0,0,1,.945.51,1.122,1.122,0,0,1,.09,1.065,4.434,4.434,0,0,0-.36,1.8v4.5a9.286,9.286,0,0,0,.78,3.75,1.134,1.134,0,0,1-.2,1.2A1.15,1.15,0,0,1,6.27,13.2ZM4.35,2.3a2.6,2.6,0,0,0-2.1,2.58,6.872,6.872,0,0,0,1.965,4.65,1.3,1.3,0,0,0,.21.2,10.933,10.933,0,0,1-.15-1.845v-4.5A8.711,8.711,0,0,1,4.35,2.3Z" transform="translate(2.1 5.4)" fill="gold"/>
          <path id="Vector-6" data-name="Vector" d="M11.625,23.25A11.645,11.645,0,0,1,0,11.625v-4.5A7.131,7.131,0,0,1,7.125,0h9A7.131,7.131,0,0,1,23.25,7.125v4.5A11.645,11.645,0,0,1,11.625,23.25Zm-4.5-21A4.884,4.884,0,0,0,2.25,7.125v4.5a9.375,9.375,0,0,0,18.75,0v-4.5A4.884,4.884,0,0,0,16.125,2.25Z" transform="translate(6.375 1.875)" fill="gold"/>
          <path id="Vector-7" data-name="Vector" d="M0,0H36V36H0Z" fill="none" opacity="0"/>
        </g>
      </g>
    </g>
  </g>
</svg>
