<svg xmlns="http://www.w3.org/2000/svg" width="115.505" height="158.162" viewBox="0 0 115.505 158.162">
  <g id="cust-art" transform="translate(-1655.383 -6601.27)">
    <path id="Path_107171" data-name="Path 107171" d="M283.8,81.72,253.4,64.909l-4.8-2.629-1.819,5.15-23.322,66.36a2.31,2.31,0,1,0,4.31,1.666v-.138L253.4,75.469l25.982,14.29A4.586,4.586,0,1,0,283.8,81.72" transform="matrix(0.966, -0.259, 0.259, 0.966, 1459.018, 6684.96)" fill="#1d4487"/>
    <path id="Path_107172" data-name="Path 107172" d="M266.046,74.936,252.567,57.6,254.4,34.68v-.413a2.293,2.293,0,0,0-4.509-.779l-6.526,24.453-.6,2.216,1.406,1.819L258.7,80.636a4.651,4.651,0,0,0,7.351-5.7" transform="matrix(0.966, -0.259, 0.259, 0.966, 1464.772, 6666.709)" fill="#1d4487"/>
    <path id="Path_107173" data-name="Path 107173" d="M259.751,30.468H237.773l-20.464-19.41-.26-.245a2.308,2.308,0,0,0-3.408,3.057l18.707,24.056,1.391,1.788H259.72a4.638,4.638,0,0,0,0-9.277" transform="matrix(0.966, -0.259, 0.259, 0.966, 1446.762, 6659.788)" fill="#1d4487"/>
  </g>
</svg>
