<svg id="cust-arrow-circle-left" xmlns="http://www.w3.org/2000/svg" width="48" height="48" viewBox="0 0 48 48">
  <path id="Vector" d="M21.5,43A21.5,21.5,0,1,0,0,21.5,21.518,21.518,0,0,0,21.5,43Zm0-40A18.5,18.5,0,1,1,3,21.5,18.522,18.522,0,0,1,21.5,3Z" transform="translate(2.5 2.5)" fill="#804d98"/>
  <path id="Vector-2" data-name="Vector" d="M8.555,17.115a1.483,1.483,0,0,0,1.06-.44,1.509,1.509,0,0,0,0-2.12l-6-6,6-6A1.5,1.5,0,0,0,7.5.435L.435,7.5a1.509,1.509,0,0,0,0,2.12l7.06,7.06A1.483,1.483,0,0,0,8.555,17.115Z" transform="translate(17.965 15.445)" fill="#804d98"/>
  <path id="Vector-3" data-name="Vector" d="M48,0H0V48H48Z" fill="none" opacity="0"/>
</svg>
