<svg xmlns="http://www.w3.org/2000/svg" width="676.906" height="1537.077" viewBox="0 0 676.906 1537.077">
  <g id="dash-lines-bg" transform="translate(-49 -1531.5)">
    <line id="Line_77" data-name="Line 77" y2="605" transform="translate(110.5 1531.5)" fill="none" stroke="#fff" stroke-width="7" stroke-dasharray="20"/>
    <path id="Path_102455" data-name="Path 102455" d="M0,0V605" transform="translate(226.5 1531.5)" fill="none" stroke="#fff" stroke-width="7" stroke-dasharray="20"/>
    <line id="Line_78" data-name="Line 78" y2="605" transform="translate(52.5 1531.5)" fill="none" stroke="#fff" stroke-width="7" stroke-dasharray="20"/>
    <line id="Line_79" data-name="Line 79" y2="605" transform="translate(168.5 1531.5)" fill="none" stroke="#fff" stroke-width="7" stroke-dasharray="20"/>
    <path id="Path_102295" data-name="Path 102295" d="M2050.5,3284.5s2.833,311.14,280.167,414.021,208,517.479,208,517.479" transform="translate(-1824 -1148)" fill="none" stroke="#f2eff3" stroke-width="7" stroke-dasharray="20"/>
    <path id="Path_102296" data-name="Path 102296" d="M2050.5,3284.5s2.833,311.14,280.167,414.021,208,517.479,208,517.479" transform="translate(-1882 -1148)" fill="none" stroke="#f2eff3" stroke-width="7" stroke-dasharray="20"/>
    <path id="Path_102297" data-name="Path 102297" d="M2050.5,3284.5s2.833,311.14,280.167,414.021,208,517.479,208,517.479" transform="translate(-1940 -1148)" fill="none" stroke="#f2eff3" stroke-width="7" stroke-dasharray="20"/>
    <path id="Path_102298" data-name="Path 102298" d="M2050.5,3284.5s2.833,311.14,280.167,414.021,208,517.479,208,517.479" transform="translate(-1998 -1148)" fill="none" stroke="#f2eff3" stroke-width="7" stroke-dasharray="20"/>
  </g>
</svg>
