<svg xmlns="http://www.w3.org/2000/svg" width="36" height="36" viewBox="0 0 36 36">
  <g id="def-icon" transform="translate(8254 20103)">
    <rect id="Rectangle_14478" data-name="Rectangle 14478" width="36" height="36" transform="translate(-8254 -20103)" fill="none"/>
    <g id="Group_58676" data-name="Group 58676" transform="translate(9.139 20)">
      <path id="Path_140697" data-name="Path 140697" d="M200.39,131.808a.623.623,0,0,0-.889,0l-2.652,2.654-8.632-7.874-.012-.01a.347.347,0,0,0-.478.5l8.707,8.7.444.444.444-.444,3.077-3.08a.623.623,0,0,0,0-.889" transform="translate(-8440.524 -20223.225)" fill="#fff"/>
      <path id="Path_140698" data-name="Path 140698" d="M187.234,5.1,186.753.533a.626.626,0,1,0-1.246.133l.415,3.958-4.006.546h-.042a.314.314,0,0,0,.042.623h5.4Z" transform="translate(-8435.751 -20122.973)" fill="#fff"/>
      <path id="Path_140699" data-name="Path 140699" d="M194.378,56.529l-2.255-18.648-.039-.32-.282-.154-3.686-2.033a.632.632,0,0,0-.615,1.1l3.414,1.883,2.841,18.245v.015a.315.315,0,1,0,.623-.087" transform="translate(-8440.158 -20150.957)" fill="#fff"/>
      <path id="Path_140700" data-name="Path 140700" d="M231.527,64.921l-4.13-2.284-.652-.357-.247.7L223.329,72a.314.314,0,0,0,.586.226V72.2l3.482-8.132,3.53,1.942a.623.623,0,1,0,.6-1.092" transform="translate(-8468.788 -20172.34)" fill="#fff"/>
      <path id="Path_140701" data-name="Path 140701" d="M245.933,37.6,244.1,35.246l.249-3.115v-.056a.311.311,0,0,0-.613-.106l-.887,3.323-.081.3.191.247,1.973,2.535a.632.632,0,1,0,1-.775" transform="translate(-8484.209 -20148.135)" fill="#fff"/>
      <path id="Path_140702" data-name="Path 140702" d="M219.554,13h-2.986l-2.781-2.637-.035-.033a.314.314,0,0,0-.463.415l2.542,3.269.189.243h3.53a.63.63,0,0,0,0-1.26" transform="translate(-8460.807 -20131.121)" fill="#fff"/>
      <path id="Path_140703" data-name="Path 140703" d="M204.113,110.042a.316.316,0,0,0-.444-.015h0L191.5,121.341l-2.65-2.65a.628.628,0,1,0-.889.889l3.077,3.08.444.444.446-.444,12.179-12.179a.32.32,0,0,0,0-.438" transform="translate(-8440.634 -20210.105)" fill="#fff"/>
    </g>
  </g>
</svg>
