<svg xmlns="http://www.w3.org/2000/svg" xmlns:xlink="http://www.w3.org/1999/xlink" width="272" height="216" viewBox="0 0 272 216">
  <defs>
    <clipPath id="clip-path">
      <rect width="272" height="216" fill="none"/>
    </clipPath>
  </defs>
  <g id="dotted-bg" opacity="0.29">
    <g id="Repeat_Grid_1" data-name="Repeat Grid 1" clip-path="url(#clip-path)">
      <g transform="translate(18737 -1658)">
        <circle id="Ellipse_68" data-name="Ellipse 68" cx="3" cy="3" r="3" transform="translate(-18737 1658)" fill="rgba(128,77,152,0.37)"/>
      </g>
      <g transform="translate(18753 -1658)">
        <circle id="Ellipse_68-2" data-name="Ellipse 68" cx="3" cy="3" r="3" transform="translate(-18737 1658)" fill="rgba(128,77,152,0.37)"/>
      </g>
      <g transform="translate(18769 -1658)">
        <circle id="Ellipse_68-3" data-name="Ellipse 68" cx="3" cy="3" r="3" transform="translate(-18737 1658)" fill="rgba(128,77,152,0.37)"/>
      </g>
      <g transform="translate(18785 -1658)">
        <circle id="Ellipse_68-4" data-name="Ellipse 68" cx="3" cy="3" r="3" transform="translate(-18737 1658)" fill="rgba(128,77,152,0.37)"/>
      </g>
      <g transform="translate(18801 -1658)">
        <circle id="Ellipse_68-5" data-name="Ellipse 68" cx="3" cy="3" r="3" transform="translate(-18737 1658)" fill="rgba(128,77,152,0.37)"/>
      </g>
      <g transform="translate(18817 -1658)">
        <circle id="Ellipse_68-6" data-name="Ellipse 68" cx="3" cy="3" r="3" transform="translate(-18737 1658)" fill="rgba(128,77,152,0.37)"/>
      </g>
      <g transform="translate(18833 -1658)">
        <circle id="Ellipse_68-7" data-name="Ellipse 68" cx="3" cy="3" r="3" transform="translate(-18737 1658)" fill="rgba(128,77,152,0.37)"/>
      </g>
      <g transform="translate(18849 -1658)">
        <circle id="Ellipse_68-8" data-name="Ellipse 68" cx="3" cy="3" r="3" transform="translate(-18737 1658)" fill="rgba(128,77,152,0.37)"/>
      </g>
      <g transform="translate(18865 -1658)">
        <circle id="Ellipse_68-9" data-name="Ellipse 68" cx="3" cy="3" r="3" transform="translate(-18737 1658)" fill="rgba(128,77,152,0.37)"/>
      </g>
      <g transform="translate(18881 -1658)">
        <circle id="Ellipse_68-10" data-name="Ellipse 68" cx="3" cy="3" r="3" transform="translate(-18737 1658)" fill="rgba(128,77,152,0.37)"/>
      </g>
      <g transform="translate(18897 -1658)">
        <circle id="Ellipse_68-11" data-name="Ellipse 68" cx="3" cy="3" r="3" transform="translate(-18737 1658)" fill="rgba(128,77,152,0.37)"/>
      </g>
      <g transform="translate(18913 -1658)">
        <circle id="Ellipse_68-12" data-name="Ellipse 68" cx="3" cy="3" r="3" transform="translate(-18737 1658)" fill="rgba(128,77,152,0.37)"/>
      </g>
      <g transform="translate(18929 -1658)">
        <circle id="Ellipse_68-13" data-name="Ellipse 68" cx="3" cy="3" r="3" transform="translate(-18737 1658)" fill="rgba(128,77,152,0.37)"/>
      </g>
      <g transform="translate(18945 -1658)">
        <circle id="Ellipse_68-14" data-name="Ellipse 68" cx="3" cy="3" r="3" transform="translate(-18737 1658)" fill="rgba(128,77,152,0.37)"/>
      </g>
      <g transform="translate(18961 -1658)">
        <circle id="Ellipse_68-15" data-name="Ellipse 68" cx="3" cy="3" r="3" transform="translate(-18737 1658)" fill="rgba(128,77,152,0.37)"/>
      </g>
      <g transform="translate(18977 -1658)">
        <circle id="Ellipse_68-16" data-name="Ellipse 68" cx="3" cy="3" r="3" transform="translate(-18737 1658)" fill="rgba(128,77,152,0.37)"/>
      </g>
      <g transform="translate(18993 -1658)">
        <circle id="Ellipse_68-17" data-name="Ellipse 68" cx="3" cy="3" r="3" transform="translate(-18737 1658)" fill="rgba(128,77,152,0.37)"/>
      </g>
      <g transform="translate(18737 -1642)">
        <circle id="Ellipse_68-18" data-name="Ellipse 68" cx="3" cy="3" r="3" transform="translate(-18737 1658)" fill="rgba(128,77,152,0.37)"/>
      </g>
      <g transform="translate(18753 -1642)">
        <circle id="Ellipse_68-19" data-name="Ellipse 68" cx="3" cy="3" r="3" transform="translate(-18737 1658)" fill="rgba(128,77,152,0.37)"/>
      </g>
      <g transform="translate(18769 -1642)">
        <circle id="Ellipse_68-20" data-name="Ellipse 68" cx="3" cy="3" r="3" transform="translate(-18737 1658)" fill="rgba(128,77,152,0.37)"/>
      </g>
      <g transform="translate(18785 -1642)">
        <circle id="Ellipse_68-21" data-name="Ellipse 68" cx="3" cy="3" r="3" transform="translate(-18737 1658)" fill="rgba(128,77,152,0.37)"/>
      </g>
      <g transform="translate(18801 -1642)">
        <circle id="Ellipse_68-22" data-name="Ellipse 68" cx="3" cy="3" r="3" transform="translate(-18737 1658)" fill="rgba(128,77,152,0.37)"/>
      </g>
      <g transform="translate(18817 -1642)">
        <circle id="Ellipse_68-23" data-name="Ellipse 68" cx="3" cy="3" r="3" transform="translate(-18737 1658)" fill="rgba(128,77,152,0.37)"/>
      </g>
      <g transform="translate(18833 -1642)">
        <circle id="Ellipse_68-24" data-name="Ellipse 68" cx="3" cy="3" r="3" transform="translate(-18737 1658)" fill="rgba(128,77,152,0.37)"/>
      </g>
      <g transform="translate(18849 -1642)">
        <circle id="Ellipse_68-25" data-name="Ellipse 68" cx="3" cy="3" r="3" transform="translate(-18737 1658)" fill="rgba(128,77,152,0.37)"/>
      </g>
      <g transform="translate(18865 -1642)">
        <circle id="Ellipse_68-26" data-name="Ellipse 68" cx="3" cy="3" r="3" transform="translate(-18737 1658)" fill="rgba(128,77,152,0.37)"/>
      </g>
      <g transform="translate(18881 -1642)">
        <circle id="Ellipse_68-27" data-name="Ellipse 68" cx="3" cy="3" r="3" transform="translate(-18737 1658)" fill="rgba(128,77,152,0.37)"/>
      </g>
      <g transform="translate(18897 -1642)">
        <circle id="Ellipse_68-28" data-name="Ellipse 68" cx="3" cy="3" r="3" transform="translate(-18737 1658)" fill="rgba(128,77,152,0.37)"/>
      </g>
      <g transform="translate(18913 -1642)">
        <circle id="Ellipse_68-29" data-name="Ellipse 68" cx="3" cy="3" r="3" transform="translate(-18737 1658)" fill="rgba(128,77,152,0.37)"/>
      </g>
      <g transform="translate(18929 -1642)">
        <circle id="Ellipse_68-30" data-name="Ellipse 68" cx="3" cy="3" r="3" transform="translate(-18737 1658)" fill="rgba(128,77,152,0.37)"/>
      </g>
      <g transform="translate(18945 -1642)">
        <circle id="Ellipse_68-31" data-name="Ellipse 68" cx="3" cy="3" r="3" transform="translate(-18737 1658)" fill="rgba(128,77,152,0.37)"/>
      </g>
      <g transform="translate(18961 -1642)">
        <circle id="Ellipse_68-32" data-name="Ellipse 68" cx="3" cy="3" r="3" transform="translate(-18737 1658)" fill="rgba(128,77,152,0.37)"/>
      </g>
      <g transform="translate(18977 -1642)">
        <circle id="Ellipse_68-33" data-name="Ellipse 68" cx="3" cy="3" r="3" transform="translate(-18737 1658)" fill="rgba(128,77,152,0.37)"/>
      </g>
      <g transform="translate(18993 -1642)">
        <circle id="Ellipse_68-34" data-name="Ellipse 68" cx="3" cy="3" r="3" transform="translate(-18737 1658)" fill="rgba(128,77,152,0.37)"/>
      </g>
      <g transform="translate(18737 -1626)">
        <circle id="Ellipse_68-35" data-name="Ellipse 68" cx="3" cy="3" r="3" transform="translate(-18737 1658)" fill="rgba(128,77,152,0.37)"/>
      </g>
      <g transform="translate(18753 -1626)">
        <circle id="Ellipse_68-36" data-name="Ellipse 68" cx="3" cy="3" r="3" transform="translate(-18737 1658)" fill="rgba(128,77,152,0.37)"/>
      </g>
      <g transform="translate(18769 -1626)">
        <circle id="Ellipse_68-37" data-name="Ellipse 68" cx="3" cy="3" r="3" transform="translate(-18737 1658)" fill="rgba(128,77,152,0.37)"/>
      </g>
      <g transform="translate(18785 -1626)">
        <circle id="Ellipse_68-38" data-name="Ellipse 68" cx="3" cy="3" r="3" transform="translate(-18737 1658)" fill="rgba(128,77,152,0.37)"/>
      </g>
      <g transform="translate(18801 -1626)">
        <circle id="Ellipse_68-39" data-name="Ellipse 68" cx="3" cy="3" r="3" transform="translate(-18737 1658)" fill="rgba(128,77,152,0.37)"/>
      </g>
      <g transform="translate(18817 -1626)">
        <circle id="Ellipse_68-40" data-name="Ellipse 68" cx="3" cy="3" r="3" transform="translate(-18737 1658)" fill="rgba(128,77,152,0.37)"/>
      </g>
      <g transform="translate(18833 -1626)">
        <circle id="Ellipse_68-41" data-name="Ellipse 68" cx="3" cy="3" r="3" transform="translate(-18737 1658)" fill="rgba(128,77,152,0.37)"/>
      </g>
      <g transform="translate(18849 -1626)">
        <circle id="Ellipse_68-42" data-name="Ellipse 68" cx="3" cy="3" r="3" transform="translate(-18737 1658)" fill="rgba(128,77,152,0.37)"/>
      </g>
      <g transform="translate(18865 -1626)">
        <circle id="Ellipse_68-43" data-name="Ellipse 68" cx="3" cy="3" r="3" transform="translate(-18737 1658)" fill="rgba(128,77,152,0.37)"/>
      </g>
      <g transform="translate(18881 -1626)">
        <circle id="Ellipse_68-44" data-name="Ellipse 68" cx="3" cy="3" r="3" transform="translate(-18737 1658)" fill="rgba(128,77,152,0.37)"/>
      </g>
      <g transform="translate(18897 -1626)">
        <circle id="Ellipse_68-45" data-name="Ellipse 68" cx="3" cy="3" r="3" transform="translate(-18737 1658)" fill="rgba(128,77,152,0.37)"/>
      </g>
      <g transform="translate(18913 -1626)">
        <circle id="Ellipse_68-46" data-name="Ellipse 68" cx="3" cy="3" r="3" transform="translate(-18737 1658)" fill="rgba(128,77,152,0.37)"/>
      </g>
      <g transform="translate(18929 -1626)">
        <circle id="Ellipse_68-47" data-name="Ellipse 68" cx="3" cy="3" r="3" transform="translate(-18737 1658)" fill="rgba(128,77,152,0.37)"/>
      </g>
      <g transform="translate(18945 -1626)">
        <circle id="Ellipse_68-48" data-name="Ellipse 68" cx="3" cy="3" r="3" transform="translate(-18737 1658)" fill="rgba(128,77,152,0.37)"/>
      </g>
      <g transform="translate(18961 -1626)">
        <circle id="Ellipse_68-49" data-name="Ellipse 68" cx="3" cy="3" r="3" transform="translate(-18737 1658)" fill="rgba(128,77,152,0.37)"/>
      </g>
      <g transform="translate(18977 -1626)">
        <circle id="Ellipse_68-50" data-name="Ellipse 68" cx="3" cy="3" r="3" transform="translate(-18737 1658)" fill="rgba(128,77,152,0.37)"/>
      </g>
      <g transform="translate(18993 -1626)">
        <circle id="Ellipse_68-51" data-name="Ellipse 68" cx="3" cy="3" r="3" transform="translate(-18737 1658)" fill="rgba(128,77,152,0.37)"/>
      </g>
      <g transform="translate(18737 -1610)">
        <circle id="Ellipse_68-52" data-name="Ellipse 68" cx="3" cy="3" r="3" transform="translate(-18737 1658)" fill="rgba(128,77,152,0.37)"/>
      </g>
      <g transform="translate(18753 -1610)">
        <circle id="Ellipse_68-53" data-name="Ellipse 68" cx="3" cy="3" r="3" transform="translate(-18737 1658)" fill="rgba(128,77,152,0.37)"/>
      </g>
      <g transform="translate(18769 -1610)">
        <circle id="Ellipse_68-54" data-name="Ellipse 68" cx="3" cy="3" r="3" transform="translate(-18737 1658)" fill="rgba(128,77,152,0.37)"/>
      </g>
      <g transform="translate(18785 -1610)">
        <circle id="Ellipse_68-55" data-name="Ellipse 68" cx="3" cy="3" r="3" transform="translate(-18737 1658)" fill="rgba(128,77,152,0.37)"/>
      </g>
      <g transform="translate(18801 -1610)">
        <circle id="Ellipse_68-56" data-name="Ellipse 68" cx="3" cy="3" r="3" transform="translate(-18737 1658)" fill="rgba(128,77,152,0.37)"/>
      </g>
      <g transform="translate(18817 -1610)">
        <circle id="Ellipse_68-57" data-name="Ellipse 68" cx="3" cy="3" r="3" transform="translate(-18737 1658)" fill="rgba(128,77,152,0.37)"/>
      </g>
      <g transform="translate(18833 -1610)">
        <circle id="Ellipse_68-58" data-name="Ellipse 68" cx="3" cy="3" r="3" transform="translate(-18737 1658)" fill="rgba(128,77,152,0.37)"/>
      </g>
      <g transform="translate(18849 -1610)">
        <circle id="Ellipse_68-59" data-name="Ellipse 68" cx="3" cy="3" r="3" transform="translate(-18737 1658)" fill="rgba(128,77,152,0.37)"/>
      </g>
      <g transform="translate(18865 -1610)">
        <circle id="Ellipse_68-60" data-name="Ellipse 68" cx="3" cy="3" r="3" transform="translate(-18737 1658)" fill="rgba(128,77,152,0.37)"/>
      </g>
      <g transform="translate(18881 -1610)">
        <circle id="Ellipse_68-61" data-name="Ellipse 68" cx="3" cy="3" r="3" transform="translate(-18737 1658)" fill="rgba(128,77,152,0.37)"/>
      </g>
      <g transform="translate(18897 -1610)">
        <circle id="Ellipse_68-62" data-name="Ellipse 68" cx="3" cy="3" r="3" transform="translate(-18737 1658)" fill="rgba(128,77,152,0.37)"/>
      </g>
      <g transform="translate(18913 -1610)">
        <circle id="Ellipse_68-63" data-name="Ellipse 68" cx="3" cy="3" r="3" transform="translate(-18737 1658)" fill="rgba(128,77,152,0.37)"/>
      </g>
      <g transform="translate(18929 -1610)">
        <circle id="Ellipse_68-64" data-name="Ellipse 68" cx="3" cy="3" r="3" transform="translate(-18737 1658)" fill="rgba(128,77,152,0.37)"/>
      </g>
      <g transform="translate(18945 -1610)">
        <circle id="Ellipse_68-65" data-name="Ellipse 68" cx="3" cy="3" r="3" transform="translate(-18737 1658)" fill="rgba(128,77,152,0.37)"/>
      </g>
      <g transform="translate(18961 -1610)">
        <circle id="Ellipse_68-66" data-name="Ellipse 68" cx="3" cy="3" r="3" transform="translate(-18737 1658)" fill="rgba(128,77,152,0.37)"/>
      </g>
      <g transform="translate(18977 -1610)">
        <circle id="Ellipse_68-67" data-name="Ellipse 68" cx="3" cy="3" r="3" transform="translate(-18737 1658)" fill="rgba(128,77,152,0.37)"/>
      </g>
      <g transform="translate(18993 -1610)">
        <circle id="Ellipse_68-68" data-name="Ellipse 68" cx="3" cy="3" r="3" transform="translate(-18737 1658)" fill="rgba(128,77,152,0.37)"/>
      </g>
      <g transform="translate(18737 -1594)">
        <circle id="Ellipse_68-69" data-name="Ellipse 68" cx="3" cy="3" r="3" transform="translate(-18737 1658)" fill="rgba(128,77,152,0.37)"/>
      </g>
      <g transform="translate(18753 -1594)">
        <circle id="Ellipse_68-70" data-name="Ellipse 68" cx="3" cy="3" r="3" transform="translate(-18737 1658)" fill="rgba(128,77,152,0.37)"/>
      </g>
      <g transform="translate(18769 -1594)">
        <circle id="Ellipse_68-71" data-name="Ellipse 68" cx="3" cy="3" r="3" transform="translate(-18737 1658)" fill="rgba(128,77,152,0.37)"/>
      </g>
      <g transform="translate(18785 -1594)">
        <circle id="Ellipse_68-72" data-name="Ellipse 68" cx="3" cy="3" r="3" transform="translate(-18737 1658)" fill="rgba(128,77,152,0.37)"/>
      </g>
      <g transform="translate(18801 -1594)">
        <circle id="Ellipse_68-73" data-name="Ellipse 68" cx="3" cy="3" r="3" transform="translate(-18737 1658)" fill="rgba(128,77,152,0.37)"/>
      </g>
      <g transform="translate(18817 -1594)">
        <circle id="Ellipse_68-74" data-name="Ellipse 68" cx="3" cy="3" r="3" transform="translate(-18737 1658)" fill="rgba(128,77,152,0.37)"/>
      </g>
      <g transform="translate(18833 -1594)">
        <circle id="Ellipse_68-75" data-name="Ellipse 68" cx="3" cy="3" r="3" transform="translate(-18737 1658)" fill="rgba(128,77,152,0.37)"/>
      </g>
      <g transform="translate(18849 -1594)">
        <circle id="Ellipse_68-76" data-name="Ellipse 68" cx="3" cy="3" r="3" transform="translate(-18737 1658)" fill="rgba(128,77,152,0.37)"/>
      </g>
      <g transform="translate(18865 -1594)">
        <circle id="Ellipse_68-77" data-name="Ellipse 68" cx="3" cy="3" r="3" transform="translate(-18737 1658)" fill="rgba(128,77,152,0.37)"/>
      </g>
      <g transform="translate(18881 -1594)">
        <circle id="Ellipse_68-78" data-name="Ellipse 68" cx="3" cy="3" r="3" transform="translate(-18737 1658)" fill="rgba(128,77,152,0.37)"/>
      </g>
      <g transform="translate(18897 -1594)">
        <circle id="Ellipse_68-79" data-name="Ellipse 68" cx="3" cy="3" r="3" transform="translate(-18737 1658)" fill="rgba(128,77,152,0.37)"/>
      </g>
      <g transform="translate(18913 -1594)">
        <circle id="Ellipse_68-80" data-name="Ellipse 68" cx="3" cy="3" r="3" transform="translate(-18737 1658)" fill="rgba(128,77,152,0.37)"/>
      </g>
      <g transform="translate(18929 -1594)">
        <circle id="Ellipse_68-81" data-name="Ellipse 68" cx="3" cy="3" r="3" transform="translate(-18737 1658)" fill="rgba(128,77,152,0.37)"/>
      </g>
      <g transform="translate(18945 -1594)">
        <circle id="Ellipse_68-82" data-name="Ellipse 68" cx="3" cy="3" r="3" transform="translate(-18737 1658)" fill="rgba(128,77,152,0.37)"/>
      </g>
      <g transform="translate(18961 -1594)">
        <circle id="Ellipse_68-83" data-name="Ellipse 68" cx="3" cy="3" r="3" transform="translate(-18737 1658)" fill="rgba(128,77,152,0.37)"/>
      </g>
      <g transform="translate(18977 -1594)">
        <circle id="Ellipse_68-84" data-name="Ellipse 68" cx="3" cy="3" r="3" transform="translate(-18737 1658)" fill="rgba(128,77,152,0.37)"/>
      </g>
      <g transform="translate(18993 -1594)">
        <circle id="Ellipse_68-85" data-name="Ellipse 68" cx="3" cy="3" r="3" transform="translate(-18737 1658)" fill="rgba(128,77,152,0.37)"/>
      </g>
      <g transform="translate(18737 -1578)">
        <circle id="Ellipse_68-86" data-name="Ellipse 68" cx="3" cy="3" r="3" transform="translate(-18737 1658)" fill="rgba(128,77,152,0.37)"/>
      </g>
      <g transform="translate(18753 -1578)">
        <circle id="Ellipse_68-87" data-name="Ellipse 68" cx="3" cy="3" r="3" transform="translate(-18737 1658)" fill="rgba(128,77,152,0.37)"/>
      </g>
      <g transform="translate(18769 -1578)">
        <circle id="Ellipse_68-88" data-name="Ellipse 68" cx="3" cy="3" r="3" transform="translate(-18737 1658)" fill="rgba(128,77,152,0.37)"/>
      </g>
      <g transform="translate(18785 -1578)">
        <circle id="Ellipse_68-89" data-name="Ellipse 68" cx="3" cy="3" r="3" transform="translate(-18737 1658)" fill="rgba(128,77,152,0.37)"/>
      </g>
      <g transform="translate(18801 -1578)">
        <circle id="Ellipse_68-90" data-name="Ellipse 68" cx="3" cy="3" r="3" transform="translate(-18737 1658)" fill="rgba(128,77,152,0.37)"/>
      </g>
      <g transform="translate(18817 -1578)">
        <circle id="Ellipse_68-91" data-name="Ellipse 68" cx="3" cy="3" r="3" transform="translate(-18737 1658)" fill="rgba(128,77,152,0.37)"/>
      </g>
      <g transform="translate(18833 -1578)">
        <circle id="Ellipse_68-92" data-name="Ellipse 68" cx="3" cy="3" r="3" transform="translate(-18737 1658)" fill="rgba(128,77,152,0.37)"/>
      </g>
      <g transform="translate(18849 -1578)">
        <circle id="Ellipse_68-93" data-name="Ellipse 68" cx="3" cy="3" r="3" transform="translate(-18737 1658)" fill="rgba(128,77,152,0.37)"/>
      </g>
      <g transform="translate(18865 -1578)">
        <circle id="Ellipse_68-94" data-name="Ellipse 68" cx="3" cy="3" r="3" transform="translate(-18737 1658)" fill="rgba(128,77,152,0.37)"/>
      </g>
      <g transform="translate(18881 -1578)">
        <circle id="Ellipse_68-95" data-name="Ellipse 68" cx="3" cy="3" r="3" transform="translate(-18737 1658)" fill="rgba(128,77,152,0.37)"/>
      </g>
      <g transform="translate(18897 -1578)">
        <circle id="Ellipse_68-96" data-name="Ellipse 68" cx="3" cy="3" r="3" transform="translate(-18737 1658)" fill="rgba(128,77,152,0.37)"/>
      </g>
      <g transform="translate(18913 -1578)">
        <circle id="Ellipse_68-97" data-name="Ellipse 68" cx="3" cy="3" r="3" transform="translate(-18737 1658)" fill="rgba(128,77,152,0.37)"/>
      </g>
      <g transform="translate(18929 -1578)">
        <circle id="Ellipse_68-98" data-name="Ellipse 68" cx="3" cy="3" r="3" transform="translate(-18737 1658)" fill="rgba(128,77,152,0.37)"/>
      </g>
      <g transform="translate(18945 -1578)">
        <circle id="Ellipse_68-99" data-name="Ellipse 68" cx="3" cy="3" r="3" transform="translate(-18737 1658)" fill="rgba(128,77,152,0.37)"/>
      </g>
      <g transform="translate(18961 -1578)">
        <circle id="Ellipse_68-100" data-name="Ellipse 68" cx="3" cy="3" r="3" transform="translate(-18737 1658)" fill="rgba(128,77,152,0.37)"/>
      </g>
      <g transform="translate(18977 -1578)">
        <circle id="Ellipse_68-101" data-name="Ellipse 68" cx="3" cy="3" r="3" transform="translate(-18737 1658)" fill="rgba(128,77,152,0.37)"/>
      </g>
      <g transform="translate(18993 -1578)">
        <circle id="Ellipse_68-102" data-name="Ellipse 68" cx="3" cy="3" r="3" transform="translate(-18737 1658)" fill="rgba(128,77,152,0.37)"/>
      </g>
      <g transform="translate(18737 -1562)">
        <circle id="Ellipse_68-103" data-name="Ellipse 68" cx="3" cy="3" r="3" transform="translate(-18737 1658)" fill="rgba(128,77,152,0.37)"/>
      </g>
      <g transform="translate(18753 -1562)">
        <circle id="Ellipse_68-104" data-name="Ellipse 68" cx="3" cy="3" r="3" transform="translate(-18737 1658)" fill="rgba(128,77,152,0.37)"/>
      </g>
      <g transform="translate(18769 -1562)">
        <circle id="Ellipse_68-105" data-name="Ellipse 68" cx="3" cy="3" r="3" transform="translate(-18737 1658)" fill="rgba(128,77,152,0.37)"/>
      </g>
      <g transform="translate(18785 -1562)">
        <circle id="Ellipse_68-106" data-name="Ellipse 68" cx="3" cy="3" r="3" transform="translate(-18737 1658)" fill="rgba(128,77,152,0.37)"/>
      </g>
      <g transform="translate(18801 -1562)">
        <circle id="Ellipse_68-107" data-name="Ellipse 68" cx="3" cy="3" r="3" transform="translate(-18737 1658)" fill="rgba(128,77,152,0.37)"/>
      </g>
      <g transform="translate(18817 -1562)">
        <circle id="Ellipse_68-108" data-name="Ellipse 68" cx="3" cy="3" r="3" transform="translate(-18737 1658)" fill="rgba(128,77,152,0.37)"/>
      </g>
      <g transform="translate(18833 -1562)">
        <circle id="Ellipse_68-109" data-name="Ellipse 68" cx="3" cy="3" r="3" transform="translate(-18737 1658)" fill="rgba(128,77,152,0.37)"/>
      </g>
      <g transform="translate(18849 -1562)">
        <circle id="Ellipse_68-110" data-name="Ellipse 68" cx="3" cy="3" r="3" transform="translate(-18737 1658)" fill="rgba(128,77,152,0.37)"/>
      </g>
      <g transform="translate(18865 -1562)">
        <circle id="Ellipse_68-111" data-name="Ellipse 68" cx="3" cy="3" r="3" transform="translate(-18737 1658)" fill="rgba(128,77,152,0.37)"/>
      </g>
      <g transform="translate(18881 -1562)">
        <circle id="Ellipse_68-112" data-name="Ellipse 68" cx="3" cy="3" r="3" transform="translate(-18737 1658)" fill="rgba(128,77,152,0.37)"/>
      </g>
      <g transform="translate(18897 -1562)">
        <circle id="Ellipse_68-113" data-name="Ellipse 68" cx="3" cy="3" r="3" transform="translate(-18737 1658)" fill="rgba(128,77,152,0.37)"/>
      </g>
      <g transform="translate(18913 -1562)">
        <circle id="Ellipse_68-114" data-name="Ellipse 68" cx="3" cy="3" r="3" transform="translate(-18737 1658)" fill="rgba(128,77,152,0.37)"/>
      </g>
      <g transform="translate(18929 -1562)">
        <circle id="Ellipse_68-115" data-name="Ellipse 68" cx="3" cy="3" r="3" transform="translate(-18737 1658)" fill="rgba(128,77,152,0.37)"/>
      </g>
      <g transform="translate(18945 -1562)">
        <circle id="Ellipse_68-116" data-name="Ellipse 68" cx="3" cy="3" r="3" transform="translate(-18737 1658)" fill="rgba(128,77,152,0.37)"/>
      </g>
      <g transform="translate(18961 -1562)">
        <circle id="Ellipse_68-117" data-name="Ellipse 68" cx="3" cy="3" r="3" transform="translate(-18737 1658)" fill="rgba(128,77,152,0.37)"/>
      </g>
      <g transform="translate(18977 -1562)">
        <circle id="Ellipse_68-118" data-name="Ellipse 68" cx="3" cy="3" r="3" transform="translate(-18737 1658)" fill="rgba(128,77,152,0.37)"/>
      </g>
      <g transform="translate(18993 -1562)">
        <circle id="Ellipse_68-119" data-name="Ellipse 68" cx="3" cy="3" r="3" transform="translate(-18737 1658)" fill="rgba(128,77,152,0.37)"/>
      </g>
      <g transform="translate(18737 -1546)">
        <circle id="Ellipse_68-120" data-name="Ellipse 68" cx="3" cy="3" r="3" transform="translate(-18737 1658)" fill="rgba(128,77,152,0.37)"/>
      </g>
      <g transform="translate(18753 -1546)">
        <circle id="Ellipse_68-121" data-name="Ellipse 68" cx="3" cy="3" r="3" transform="translate(-18737 1658)" fill="rgba(128,77,152,0.37)"/>
      </g>
      <g transform="translate(18769 -1546)">
        <circle id="Ellipse_68-122" data-name="Ellipse 68" cx="3" cy="3" r="3" transform="translate(-18737 1658)" fill="rgba(128,77,152,0.37)"/>
      </g>
      <g transform="translate(18785 -1546)">
        <circle id="Ellipse_68-123" data-name="Ellipse 68" cx="3" cy="3" r="3" transform="translate(-18737 1658)" fill="rgba(128,77,152,0.37)"/>
      </g>
      <g transform="translate(18801 -1546)">
        <circle id="Ellipse_68-124" data-name="Ellipse 68" cx="3" cy="3" r="3" transform="translate(-18737 1658)" fill="rgba(128,77,152,0.37)"/>
      </g>
      <g transform="translate(18817 -1546)">
        <circle id="Ellipse_68-125" data-name="Ellipse 68" cx="3" cy="3" r="3" transform="translate(-18737 1658)" fill="rgba(128,77,152,0.37)"/>
      </g>
      <g transform="translate(18833 -1546)">
        <circle id="Ellipse_68-126" data-name="Ellipse 68" cx="3" cy="3" r="3" transform="translate(-18737 1658)" fill="rgba(128,77,152,0.37)"/>
      </g>
      <g transform="translate(18849 -1546)">
        <circle id="Ellipse_68-127" data-name="Ellipse 68" cx="3" cy="3" r="3" transform="translate(-18737 1658)" fill="rgba(128,77,152,0.37)"/>
      </g>
      <g transform="translate(18865 -1546)">
        <circle id="Ellipse_68-128" data-name="Ellipse 68" cx="3" cy="3" r="3" transform="translate(-18737 1658)" fill="rgba(128,77,152,0.37)"/>
      </g>
      <g transform="translate(18881 -1546)">
        <circle id="Ellipse_68-129" data-name="Ellipse 68" cx="3" cy="3" r="3" transform="translate(-18737 1658)" fill="rgba(128,77,152,0.37)"/>
      </g>
      <g transform="translate(18897 -1546)">
        <circle id="Ellipse_68-130" data-name="Ellipse 68" cx="3" cy="3" r="3" transform="translate(-18737 1658)" fill="rgba(128,77,152,0.37)"/>
      </g>
      <g transform="translate(18913 -1546)">
        <circle id="Ellipse_68-131" data-name="Ellipse 68" cx="3" cy="3" r="3" transform="translate(-18737 1658)" fill="rgba(128,77,152,0.37)"/>
      </g>
      <g transform="translate(18929 -1546)">
        <circle id="Ellipse_68-132" data-name="Ellipse 68" cx="3" cy="3" r="3" transform="translate(-18737 1658)" fill="rgba(128,77,152,0.37)"/>
      </g>
      <g transform="translate(18945 -1546)">
        <circle id="Ellipse_68-133" data-name="Ellipse 68" cx="3" cy="3" r="3" transform="translate(-18737 1658)" fill="rgba(128,77,152,0.37)"/>
      </g>
      <g transform="translate(18961 -1546)">
        <circle id="Ellipse_68-134" data-name="Ellipse 68" cx="3" cy="3" r="3" transform="translate(-18737 1658)" fill="rgba(128,77,152,0.37)"/>
      </g>
      <g transform="translate(18977 -1546)">
        <circle id="Ellipse_68-135" data-name="Ellipse 68" cx="3" cy="3" r="3" transform="translate(-18737 1658)" fill="rgba(128,77,152,0.37)"/>
      </g>
      <g transform="translate(18993 -1546)">
        <circle id="Ellipse_68-136" data-name="Ellipse 68" cx="3" cy="3" r="3" transform="translate(-18737 1658)" fill="rgba(128,77,152,0.37)"/>
      </g>
      <g transform="translate(18737 -1530)">
        <circle id="Ellipse_68-137" data-name="Ellipse 68" cx="3" cy="3" r="3" transform="translate(-18737 1658)" fill="rgba(128,77,152,0.37)"/>
      </g>
      <g transform="translate(18753 -1530)">
        <circle id="Ellipse_68-138" data-name="Ellipse 68" cx="3" cy="3" r="3" transform="translate(-18737 1658)" fill="rgba(128,77,152,0.37)"/>
      </g>
      <g transform="translate(18769 -1530)">
        <circle id="Ellipse_68-139" data-name="Ellipse 68" cx="3" cy="3" r="3" transform="translate(-18737 1658)" fill="rgba(128,77,152,0.37)"/>
      </g>
      <g transform="translate(18785 -1530)">
        <circle id="Ellipse_68-140" data-name="Ellipse 68" cx="3" cy="3" r="3" transform="translate(-18737 1658)" fill="rgba(128,77,152,0.37)"/>
      </g>
      <g transform="translate(18801 -1530)">
        <circle id="Ellipse_68-141" data-name="Ellipse 68" cx="3" cy="3" r="3" transform="translate(-18737 1658)" fill="rgba(128,77,152,0.37)"/>
      </g>
      <g transform="translate(18817 -1530)">
        <circle id="Ellipse_68-142" data-name="Ellipse 68" cx="3" cy="3" r="3" transform="translate(-18737 1658)" fill="rgba(128,77,152,0.37)"/>
      </g>
      <g transform="translate(18833 -1530)">
        <circle id="Ellipse_68-143" data-name="Ellipse 68" cx="3" cy="3" r="3" transform="translate(-18737 1658)" fill="rgba(128,77,152,0.37)"/>
      </g>
      <g transform="translate(18849 -1530)">
        <circle id="Ellipse_68-144" data-name="Ellipse 68" cx="3" cy="3" r="3" transform="translate(-18737 1658)" fill="rgba(128,77,152,0.37)"/>
      </g>
      <g transform="translate(18865 -1530)">
        <circle id="Ellipse_68-145" data-name="Ellipse 68" cx="3" cy="3" r="3" transform="translate(-18737 1658)" fill="rgba(128,77,152,0.37)"/>
      </g>
      <g transform="translate(18881 -1530)">
        <circle id="Ellipse_68-146" data-name="Ellipse 68" cx="3" cy="3" r="3" transform="translate(-18737 1658)" fill="rgba(128,77,152,0.37)"/>
      </g>
      <g transform="translate(18897 -1530)">
        <circle id="Ellipse_68-147" data-name="Ellipse 68" cx="3" cy="3" r="3" transform="translate(-18737 1658)" fill="rgba(128,77,152,0.37)"/>
      </g>
      <g transform="translate(18913 -1530)">
        <circle id="Ellipse_68-148" data-name="Ellipse 68" cx="3" cy="3" r="3" transform="translate(-18737 1658)" fill="rgba(128,77,152,0.37)"/>
      </g>
      <g transform="translate(18929 -1530)">
        <circle id="Ellipse_68-149" data-name="Ellipse 68" cx="3" cy="3" r="3" transform="translate(-18737 1658)" fill="rgba(128,77,152,0.37)"/>
      </g>
      <g transform="translate(18945 -1530)">
        <circle id="Ellipse_68-150" data-name="Ellipse 68" cx="3" cy="3" r="3" transform="translate(-18737 1658)" fill="rgba(128,77,152,0.37)"/>
      </g>
      <g transform="translate(18961 -1530)">
        <circle id="Ellipse_68-151" data-name="Ellipse 68" cx="3" cy="3" r="3" transform="translate(-18737 1658)" fill="rgba(128,77,152,0.37)"/>
      </g>
      <g transform="translate(18977 -1530)">
        <circle id="Ellipse_68-152" data-name="Ellipse 68" cx="3" cy="3" r="3" transform="translate(-18737 1658)" fill="rgba(128,77,152,0.37)"/>
      </g>
      <g transform="translate(18993 -1530)">
        <circle id="Ellipse_68-153" data-name="Ellipse 68" cx="3" cy="3" r="3" transform="translate(-18737 1658)" fill="rgba(128,77,152,0.37)"/>
      </g>
      <g transform="translate(18737 -1514)">
        <circle id="Ellipse_68-154" data-name="Ellipse 68" cx="3" cy="3" r="3" transform="translate(-18737 1658)" fill="rgba(128,77,152,0.37)"/>
      </g>
      <g transform="translate(18753 -1514)">
        <circle id="Ellipse_68-155" data-name="Ellipse 68" cx="3" cy="3" r="3" transform="translate(-18737 1658)" fill="rgba(128,77,152,0.37)"/>
      </g>
      <g transform="translate(18769 -1514)">
        <circle id="Ellipse_68-156" data-name="Ellipse 68" cx="3" cy="3" r="3" transform="translate(-18737 1658)" fill="rgba(128,77,152,0.37)"/>
      </g>
      <g transform="translate(18785 -1514)">
        <circle id="Ellipse_68-157" data-name="Ellipse 68" cx="3" cy="3" r="3" transform="translate(-18737 1658)" fill="rgba(128,77,152,0.37)"/>
      </g>
      <g transform="translate(18801 -1514)">
        <circle id="Ellipse_68-158" data-name="Ellipse 68" cx="3" cy="3" r="3" transform="translate(-18737 1658)" fill="rgba(128,77,152,0.37)"/>
      </g>
      <g transform="translate(18817 -1514)">
        <circle id="Ellipse_68-159" data-name="Ellipse 68" cx="3" cy="3" r="3" transform="translate(-18737 1658)" fill="rgba(128,77,152,0.37)"/>
      </g>
      <g transform="translate(18833 -1514)">
        <circle id="Ellipse_68-160" data-name="Ellipse 68" cx="3" cy="3" r="3" transform="translate(-18737 1658)" fill="rgba(128,77,152,0.37)"/>
      </g>
      <g transform="translate(18849 -1514)">
        <circle id="Ellipse_68-161" data-name="Ellipse 68" cx="3" cy="3" r="3" transform="translate(-18737 1658)" fill="rgba(128,77,152,0.37)"/>
      </g>
      <g transform="translate(18865 -1514)">
        <circle id="Ellipse_68-162" data-name="Ellipse 68" cx="3" cy="3" r="3" transform="translate(-18737 1658)" fill="rgba(128,77,152,0.37)"/>
      </g>
      <g transform="translate(18881 -1514)">
        <circle id="Ellipse_68-163" data-name="Ellipse 68" cx="3" cy="3" r="3" transform="translate(-18737 1658)" fill="rgba(128,77,152,0.37)"/>
      </g>
      <g transform="translate(18897 -1514)">
        <circle id="Ellipse_68-164" data-name="Ellipse 68" cx="3" cy="3" r="3" transform="translate(-18737 1658)" fill="rgba(128,77,152,0.37)"/>
      </g>
      <g transform="translate(18913 -1514)">
        <circle id="Ellipse_68-165" data-name="Ellipse 68" cx="3" cy="3" r="3" transform="translate(-18737 1658)" fill="rgba(128,77,152,0.37)"/>
      </g>
      <g transform="translate(18929 -1514)">
        <circle id="Ellipse_68-166" data-name="Ellipse 68" cx="3" cy="3" r="3" transform="translate(-18737 1658)" fill="rgba(128,77,152,0.37)"/>
      </g>
      <g transform="translate(18945 -1514)">
        <circle id="Ellipse_68-167" data-name="Ellipse 68" cx="3" cy="3" r="3" transform="translate(-18737 1658)" fill="rgba(128,77,152,0.37)"/>
      </g>
      <g transform="translate(18961 -1514)">
        <circle id="Ellipse_68-168" data-name="Ellipse 68" cx="3" cy="3" r="3" transform="translate(-18737 1658)" fill="rgba(128,77,152,0.37)"/>
      </g>
      <g transform="translate(18977 -1514)">
        <circle id="Ellipse_68-169" data-name="Ellipse 68" cx="3" cy="3" r="3" transform="translate(-18737 1658)" fill="rgba(128,77,152,0.37)"/>
      </g>
      <g transform="translate(18993 -1514)">
        <circle id="Ellipse_68-170" data-name="Ellipse 68" cx="3" cy="3" r="3" transform="translate(-18737 1658)" fill="rgba(128,77,152,0.37)"/>
      </g>
      <g transform="translate(18737 -1498)">
        <circle id="Ellipse_68-171" data-name="Ellipse 68" cx="3" cy="3" r="3" transform="translate(-18737 1658)" fill="rgba(128,77,152,0.37)"/>
      </g>
      <g transform="translate(18753 -1498)">
        <circle id="Ellipse_68-172" data-name="Ellipse 68" cx="3" cy="3" r="3" transform="translate(-18737 1658)" fill="rgba(128,77,152,0.37)"/>
      </g>
      <g transform="translate(18769 -1498)">
        <circle id="Ellipse_68-173" data-name="Ellipse 68" cx="3" cy="3" r="3" transform="translate(-18737 1658)" fill="rgba(128,77,152,0.37)"/>
      </g>
      <g transform="translate(18785 -1498)">
        <circle id="Ellipse_68-174" data-name="Ellipse 68" cx="3" cy="3" r="3" transform="translate(-18737 1658)" fill="rgba(128,77,152,0.37)"/>
      </g>
      <g transform="translate(18801 -1498)">
        <circle id="Ellipse_68-175" data-name="Ellipse 68" cx="3" cy="3" r="3" transform="translate(-18737 1658)" fill="rgba(128,77,152,0.37)"/>
      </g>
      <g transform="translate(18817 -1498)">
        <circle id="Ellipse_68-176" data-name="Ellipse 68" cx="3" cy="3" r="3" transform="translate(-18737 1658)" fill="rgba(128,77,152,0.37)"/>
      </g>
      <g transform="translate(18833 -1498)">
        <circle id="Ellipse_68-177" data-name="Ellipse 68" cx="3" cy="3" r="3" transform="translate(-18737 1658)" fill="rgba(128,77,152,0.37)"/>
      </g>
      <g transform="translate(18849 -1498)">
        <circle id="Ellipse_68-178" data-name="Ellipse 68" cx="3" cy="3" r="3" transform="translate(-18737 1658)" fill="rgba(128,77,152,0.37)"/>
      </g>
      <g transform="translate(18865 -1498)">
        <circle id="Ellipse_68-179" data-name="Ellipse 68" cx="3" cy="3" r="3" transform="translate(-18737 1658)" fill="rgba(128,77,152,0.37)"/>
      </g>
      <g transform="translate(18881 -1498)">
        <circle id="Ellipse_68-180" data-name="Ellipse 68" cx="3" cy="3" r="3" transform="translate(-18737 1658)" fill="rgba(128,77,152,0.37)"/>
      </g>
      <g transform="translate(18897 -1498)">
        <circle id="Ellipse_68-181" data-name="Ellipse 68" cx="3" cy="3" r="3" transform="translate(-18737 1658)" fill="rgba(128,77,152,0.37)"/>
      </g>
      <g transform="translate(18913 -1498)">
        <circle id="Ellipse_68-182" data-name="Ellipse 68" cx="3" cy="3" r="3" transform="translate(-18737 1658)" fill="rgba(128,77,152,0.37)"/>
      </g>
      <g transform="translate(18929 -1498)">
        <circle id="Ellipse_68-183" data-name="Ellipse 68" cx="3" cy="3" r="3" transform="translate(-18737 1658)" fill="rgba(128,77,152,0.37)"/>
      </g>
      <g transform="translate(18945 -1498)">
        <circle id="Ellipse_68-184" data-name="Ellipse 68" cx="3" cy="3" r="3" transform="translate(-18737 1658)" fill="rgba(128,77,152,0.37)"/>
      </g>
      <g transform="translate(18961 -1498)">
        <circle id="Ellipse_68-185" data-name="Ellipse 68" cx="3" cy="3" r="3" transform="translate(-18737 1658)" fill="rgba(128,77,152,0.37)"/>
      </g>
      <g transform="translate(18977 -1498)">
        <circle id="Ellipse_68-186" data-name="Ellipse 68" cx="3" cy="3" r="3" transform="translate(-18737 1658)" fill="rgba(128,77,152,0.37)"/>
      </g>
      <g transform="translate(18993 -1498)">
        <circle id="Ellipse_68-187" data-name="Ellipse 68" cx="3" cy="3" r="3" transform="translate(-18737 1658)" fill="rgba(128,77,152,0.37)"/>
      </g>
      <g transform="translate(18737 -1482)">
        <circle id="Ellipse_68-188" data-name="Ellipse 68" cx="3" cy="3" r="3" transform="translate(-18737 1658)" fill="rgba(128,77,152,0.37)"/>
      </g>
      <g transform="translate(18753 -1482)">
        <circle id="Ellipse_68-189" data-name="Ellipse 68" cx="3" cy="3" r="3" transform="translate(-18737 1658)" fill="rgba(128,77,152,0.37)"/>
      </g>
      <g transform="translate(18769 -1482)">
        <circle id="Ellipse_68-190" data-name="Ellipse 68" cx="3" cy="3" r="3" transform="translate(-18737 1658)" fill="rgba(128,77,152,0.37)"/>
      </g>
      <g transform="translate(18785 -1482)">
        <circle id="Ellipse_68-191" data-name="Ellipse 68" cx="3" cy="3" r="3" transform="translate(-18737 1658)" fill="rgba(128,77,152,0.37)"/>
      </g>
      <g transform="translate(18801 -1482)">
        <circle id="Ellipse_68-192" data-name="Ellipse 68" cx="3" cy="3" r="3" transform="translate(-18737 1658)" fill="rgba(128,77,152,0.37)"/>
      </g>
      <g transform="translate(18817 -1482)">
        <circle id="Ellipse_68-193" data-name="Ellipse 68" cx="3" cy="3" r="3" transform="translate(-18737 1658)" fill="rgba(128,77,152,0.37)"/>
      </g>
      <g transform="translate(18833 -1482)">
        <circle id="Ellipse_68-194" data-name="Ellipse 68" cx="3" cy="3" r="3" transform="translate(-18737 1658)" fill="rgba(128,77,152,0.37)"/>
      </g>
      <g transform="translate(18849 -1482)">
        <circle id="Ellipse_68-195" data-name="Ellipse 68" cx="3" cy="3" r="3" transform="translate(-18737 1658)" fill="rgba(128,77,152,0.37)"/>
      </g>
      <g transform="translate(18865 -1482)">
        <circle id="Ellipse_68-196" data-name="Ellipse 68" cx="3" cy="3" r="3" transform="translate(-18737 1658)" fill="rgba(128,77,152,0.37)"/>
      </g>
      <g transform="translate(18881 -1482)">
        <circle id="Ellipse_68-197" data-name="Ellipse 68" cx="3" cy="3" r="3" transform="translate(-18737 1658)" fill="rgba(128,77,152,0.37)"/>
      </g>
      <g transform="translate(18897 -1482)">
        <circle id="Ellipse_68-198" data-name="Ellipse 68" cx="3" cy="3" r="3" transform="translate(-18737 1658)" fill="rgba(128,77,152,0.37)"/>
      </g>
      <g transform="translate(18913 -1482)">
        <circle id="Ellipse_68-199" data-name="Ellipse 68" cx="3" cy="3" r="3" transform="translate(-18737 1658)" fill="rgba(128,77,152,0.37)"/>
      </g>
      <g transform="translate(18929 -1482)">
        <circle id="Ellipse_68-200" data-name="Ellipse 68" cx="3" cy="3" r="3" transform="translate(-18737 1658)" fill="rgba(128,77,152,0.37)"/>
      </g>
      <g transform="translate(18945 -1482)">
        <circle id="Ellipse_68-201" data-name="Ellipse 68" cx="3" cy="3" r="3" transform="translate(-18737 1658)" fill="rgba(128,77,152,0.37)"/>
      </g>
      <g transform="translate(18961 -1482)">
        <circle id="Ellipse_68-202" data-name="Ellipse 68" cx="3" cy="3" r="3" transform="translate(-18737 1658)" fill="rgba(128,77,152,0.37)"/>
      </g>
      <g transform="translate(18977 -1482)">
        <circle id="Ellipse_68-203" data-name="Ellipse 68" cx="3" cy="3" r="3" transform="translate(-18737 1658)" fill="rgba(128,77,152,0.37)"/>
      </g>
      <g transform="translate(18993 -1482)">
        <circle id="Ellipse_68-204" data-name="Ellipse 68" cx="3" cy="3" r="3" transform="translate(-18737 1658)" fill="rgba(128,77,152,0.37)"/>
      </g>
      <g transform="translate(18737 -1466)">
        <circle id="Ellipse_68-205" data-name="Ellipse 68" cx="3" cy="3" r="3" transform="translate(-18737 1658)" fill="rgba(128,77,152,0.37)"/>
      </g>
      <g transform="translate(18753 -1466)">
        <circle id="Ellipse_68-206" data-name="Ellipse 68" cx="3" cy="3" r="3" transform="translate(-18737 1658)" fill="rgba(128,77,152,0.37)"/>
      </g>
      <g transform="translate(18769 -1466)">
        <circle id="Ellipse_68-207" data-name="Ellipse 68" cx="3" cy="3" r="3" transform="translate(-18737 1658)" fill="rgba(128,77,152,0.37)"/>
      </g>
      <g transform="translate(18785 -1466)">
        <circle id="Ellipse_68-208" data-name="Ellipse 68" cx="3" cy="3" r="3" transform="translate(-18737 1658)" fill="rgba(128,77,152,0.37)"/>
      </g>
      <g transform="translate(18801 -1466)">
        <circle id="Ellipse_68-209" data-name="Ellipse 68" cx="3" cy="3" r="3" transform="translate(-18737 1658)" fill="rgba(128,77,152,0.37)"/>
      </g>
      <g transform="translate(18817 -1466)">
        <circle id="Ellipse_68-210" data-name="Ellipse 68" cx="3" cy="3" r="3" transform="translate(-18737 1658)" fill="rgba(128,77,152,0.37)"/>
      </g>
      <g transform="translate(18833 -1466)">
        <circle id="Ellipse_68-211" data-name="Ellipse 68" cx="3" cy="3" r="3" transform="translate(-18737 1658)" fill="rgba(128,77,152,0.37)"/>
      </g>
      <g transform="translate(18849 -1466)">
        <circle id="Ellipse_68-212" data-name="Ellipse 68" cx="3" cy="3" r="3" transform="translate(-18737 1658)" fill="rgba(128,77,152,0.37)"/>
      </g>
      <g transform="translate(18865 -1466)">
        <circle id="Ellipse_68-213" data-name="Ellipse 68" cx="3" cy="3" r="3" transform="translate(-18737 1658)" fill="rgba(128,77,152,0.37)"/>
      </g>
      <g transform="translate(18881 -1466)">
        <circle id="Ellipse_68-214" data-name="Ellipse 68" cx="3" cy="3" r="3" transform="translate(-18737 1658)" fill="rgba(128,77,152,0.37)"/>
      </g>
      <g transform="translate(18897 -1466)">
        <circle id="Ellipse_68-215" data-name="Ellipse 68" cx="3" cy="3" r="3" transform="translate(-18737 1658)" fill="rgba(128,77,152,0.37)"/>
      </g>
      <g transform="translate(18913 -1466)">
        <circle id="Ellipse_68-216" data-name="Ellipse 68" cx="3" cy="3" r="3" transform="translate(-18737 1658)" fill="rgba(128,77,152,0.37)"/>
      </g>
      <g transform="translate(18929 -1466)">
        <circle id="Ellipse_68-217" data-name="Ellipse 68" cx="3" cy="3" r="3" transform="translate(-18737 1658)" fill="rgba(128,77,152,0.37)"/>
      </g>
      <g transform="translate(18945 -1466)">
        <circle id="Ellipse_68-218" data-name="Ellipse 68" cx="3" cy="3" r="3" transform="translate(-18737 1658)" fill="rgba(128,77,152,0.37)"/>
      </g>
      <g transform="translate(18961 -1466)">
        <circle id="Ellipse_68-219" data-name="Ellipse 68" cx="3" cy="3" r="3" transform="translate(-18737 1658)" fill="rgba(128,77,152,0.37)"/>
      </g>
      <g transform="translate(18977 -1466)">
        <circle id="Ellipse_68-220" data-name="Ellipse 68" cx="3" cy="3" r="3" transform="translate(-18737 1658)" fill="rgba(128,77,152,0.37)"/>
      </g>
      <g transform="translate(18993 -1466)">
        <circle id="Ellipse_68-221" data-name="Ellipse 68" cx="3" cy="3" r="3" transform="translate(-18737 1658)" fill="rgba(128,77,152,0.37)"/>
      </g>
      <g transform="translate(18737 -1450)">
        <circle id="Ellipse_68-222" data-name="Ellipse 68" cx="3" cy="3" r="3" transform="translate(-18737 1658)" fill="rgba(128,77,152,0.37)"/>
      </g>
      <g transform="translate(18753 -1450)">
        <circle id="Ellipse_68-223" data-name="Ellipse 68" cx="3" cy="3" r="3" transform="translate(-18737 1658)" fill="rgba(128,77,152,0.37)"/>
      </g>
      <g transform="translate(18769 -1450)">
        <circle id="Ellipse_68-224" data-name="Ellipse 68" cx="3" cy="3" r="3" transform="translate(-18737 1658)" fill="rgba(128,77,152,0.37)"/>
      </g>
      <g transform="translate(18785 -1450)">
        <circle id="Ellipse_68-225" data-name="Ellipse 68" cx="3" cy="3" r="3" transform="translate(-18737 1658)" fill="rgba(128,77,152,0.37)"/>
      </g>
      <g transform="translate(18801 -1450)">
        <circle id="Ellipse_68-226" data-name="Ellipse 68" cx="3" cy="3" r="3" transform="translate(-18737 1658)" fill="rgba(128,77,152,0.37)"/>
      </g>
      <g transform="translate(18817 -1450)">
        <circle id="Ellipse_68-227" data-name="Ellipse 68" cx="3" cy="3" r="3" transform="translate(-18737 1658)" fill="rgba(128,77,152,0.37)"/>
      </g>
      <g transform="translate(18833 -1450)">
        <circle id="Ellipse_68-228" data-name="Ellipse 68" cx="3" cy="3" r="3" transform="translate(-18737 1658)" fill="rgba(128,77,152,0.37)"/>
      </g>
      <g transform="translate(18849 -1450)">
        <circle id="Ellipse_68-229" data-name="Ellipse 68" cx="3" cy="3" r="3" transform="translate(-18737 1658)" fill="rgba(128,77,152,0.37)"/>
      </g>
      <g transform="translate(18865 -1450)">
        <circle id="Ellipse_68-230" data-name="Ellipse 68" cx="3" cy="3" r="3" transform="translate(-18737 1658)" fill="rgba(128,77,152,0.37)"/>
      </g>
      <g transform="translate(18881 -1450)">
        <circle id="Ellipse_68-231" data-name="Ellipse 68" cx="3" cy="3" r="3" transform="translate(-18737 1658)" fill="rgba(128,77,152,0.37)"/>
      </g>
      <g transform="translate(18897 -1450)">
        <circle id="Ellipse_68-232" data-name="Ellipse 68" cx="3" cy="3" r="3" transform="translate(-18737 1658)" fill="rgba(128,77,152,0.37)"/>
      </g>
      <g transform="translate(18913 -1450)">
        <circle id="Ellipse_68-233" data-name="Ellipse 68" cx="3" cy="3" r="3" transform="translate(-18737 1658)" fill="rgba(128,77,152,0.37)"/>
      </g>
      <g transform="translate(18929 -1450)">
        <circle id="Ellipse_68-234" data-name="Ellipse 68" cx="3" cy="3" r="3" transform="translate(-18737 1658)" fill="rgba(128,77,152,0.37)"/>
      </g>
      <g transform="translate(18945 -1450)">
        <circle id="Ellipse_68-235" data-name="Ellipse 68" cx="3" cy="3" r="3" transform="translate(-18737 1658)" fill="rgba(128,77,152,0.37)"/>
      </g>
      <g transform="translate(18961 -1450)">
        <circle id="Ellipse_68-236" data-name="Ellipse 68" cx="3" cy="3" r="3" transform="translate(-18737 1658)" fill="rgba(128,77,152,0.37)"/>
      </g>
      <g transform="translate(18977 -1450)">
        <circle id="Ellipse_68-237" data-name="Ellipse 68" cx="3" cy="3" r="3" transform="translate(-18737 1658)" fill="rgba(128,77,152,0.37)"/>
      </g>
      <g transform="translate(18993 -1450)">
        <circle id="Ellipse_68-238" data-name="Ellipse 68" cx="3" cy="3" r="3" transform="translate(-18737 1658)" fill="rgba(128,77,152,0.37)"/>
      </g>
    </g>
  </g>
</svg>
