<svg xmlns="http://www.w3.org/2000/svg" width="22.172" height="23.203" viewBox="0 0 22.172 23.203">
  <g id="download-white" transform="translate(-1548)">
    <path id="XMLID_1335_" d="M25.172,15.9v7.012A1.277,1.277,0,0,1,23.883,24.2H4.289A1.277,1.277,0,0,1,3,22.914V15.9a1.289,1.289,0,1,1,2.578,0v5.723H22.594V15.9a1.289,1.289,0,1,1,2.578,0ZM13.158,17.5a1.226,1.226,0,0,0,.928.387,1.266,1.266,0,0,0,.928-.387l5.13-5.259a1.294,1.294,0,0,0-1.856-1.8l-2.913,3.016V2.289a1.289,1.289,0,1,0-2.578,0V13.452L9.858,10.462A1.294,1.294,0,0,0,8,12.266Z" transform="translate(1545 -1)" fill="#fff"/>
  </g>
</svg>
