<svg xmlns="http://www.w3.org/2000/svg" width="35.057" height="37.785" viewBox="0 0 35.057 37.785">
  <g id="dyafa" transform="translate(-1364 -1770)">
    <path id="Path_122388" data-name="Path 122388" d="M-8904.319,1791.15s-.6-15.558,14.017-15.558,13.884,15.558,13.884,15.558" transform="translate(10271.988 -0.636)" fill="none" stroke="#fff" stroke-width="2"/>
    <g id="Rectangle_13916" data-name="Rectangle 13916" transform="translate(1364 1789.122)" fill="none" stroke="#fff" stroke-width="2">
      <rect width="35.057" height="5.312" rx="2" stroke="none"/>
      <rect x="1" y="1" width="33.057" height="3.312" rx="1" fill="none"/>
    </g>
    <path id="Path_122389" data-name="Path 122389" d="M-8896.133,1779.164a8.214,8.214,0,0,0-4.291,4.87" transform="translate(10273.534 0.571)" fill="none" stroke="#fff" stroke-linecap="round" stroke-width="2"/>
    <path id="Path_122390" data-name="Path 122390" d="M-8879.638,1786.929h-5.861" transform="translate(10274.466 -1.007)" fill="none" stroke="#fff" stroke-linecap="round" stroke-width="2"/>
    <g id="Ellipse_11143" data-name="Ellipse 11143" transform="translate(1378.873 1770)" fill="none" stroke="#fff" stroke-width="2">
      <circle cx="2.961" cy="2.961" r="2.961" stroke="none"/>
      <circle cx="2.961" cy="2.961" r="1.961" fill="none"/>
    </g>
    <path id="Path_122391" data-name="Path 122391" d="M-8896.951,1792.4c-.863.692-1.334,4.151-1.334,4.151a4.915,4.915,0,0,0-1.687,1.6,3.2,3.2,0,0,0-.314,2.075l-3.789.954,2.21,4.156,6.265-2.137a23.509,23.509,0,0,0,3.315-2.018,14.969,14.969,0,0,0,1.99-1.887l7.295-4.79s.5-1.777-.486-2.1a3.259,3.259,0,0,0-2.24.409l-8.829,3.486a7.5,7.5,0,0,0,.274-3.095A1.751,1.751,0,0,0-8896.951,1792.4Z" transform="translate(10272.348 1.448)" fill="none" stroke="#fff" stroke-linecap="round" stroke-linejoin="round" stroke-width="2"/>
  </g>
</svg>
