<svg xmlns="http://www.w3.org/2000/svg" width="28" height="32.002" viewBox="0 0 28 32.002">
  <g id="elect" transform="translate(-2 0.002)">
    <path id="Path_122398" data-name="Path 122398" d="M22,16H20V8.07a1,1,0,0,1,.445-.832l2.11-1.406a1,1,0,1,0-1.11-1.664L19.336,5.574A2.993,2.993,0,0,0,18,8.07V13H13.657c-2.894,0-4.025,2.177-5.193,3.122A3.02,3.02,0,0,1,6.343,17H3a1,1,0,0,0,0,2H6.343a4.966,4.966,0,0,0,3.535-1.464C11.125,16.478,11.812,15,13.657,15H18v1a1,1,0,0,0,0,2h4a.75.75,0,0,1,0,1.5h-.583a1,1,0,0,0,0,2,.75.75,0,0,1,0,1.5h-.584a1,1,0,0,0,0,2,.75.75,0,0,1,0,1.5H20.25a1,1,0,0,0,0,2,.75.75,0,0,1,0,1.5H13.77a2.976,2.976,0,0,1-1.114-.215C9.477,28.6,8.773,28,7.23,28H3a1,1,0,0,0,0,2H7.23c.96,0,1.269.338,4.684,1.643A4.981,4.981,0,0,0,13.77,32h6.48a2.753,2.753,0,0,0,2.363-4.155,2.746,2.746,0,0,0,.584-3.5,2.749,2.749,0,0,0,.583-3.5A2.753,2.753,0,0,0,22,16Z" fill="#fff"/>
    <path id="Path_122399" data-name="Path 122399" d="M29,4H26a1,1,0,0,0,0,2h3a1,1,0,0,0,0-2Z" fill="#fff"/>
    <path id="Path_122400" data-name="Path 122400" d="M25.316,2.949l3-1a1,1,0,1,0-.632-1.9l-3,1a1,1,0,1,0,.632,1.9Z" fill="#fff"/>
    <path id="Path_122401" data-name="Path 122401" d="M28.316,8.051l-3-1a1,1,0,1,0-.632,1.9l3,1a1,1,0,0,0,.632-1.9Z" fill="#fff"/>
  </g>
</svg>
