<svg xmlns="http://www.w3.org/2000/svg" width="36.28" height="36" viewBox="0 0 36.28 36">
  <g id="eng" transform="translate(-329 -1976)">
    <rect id="Rectangle_13915" data-name="Rectangle 13915" width="36" height="36" transform="translate(329 1976)" fill="none"/>
    <path id="Path_122382" data-name="Path 122382" d="M10119.265,172.212A2.343,2.343,0,0,1,10117,169.8v-1.25a2.383,2.383,0,0,1,1.807-2.36,21.03,21.03,0,0,1,3.124-9.849,18.1,18.1,0,0,1,3.395-4.031,14.357,14.357,0,0,1,4.115-2.563,2.272,2.272,0,0,1,2.168-1.751h7.059a2.277,2.277,0,0,1,2.174,1.751,14.4,14.4,0,0,1,4.115,2.563,18.064,18.064,0,0,1,3.392,4.031,21.008,21.008,0,0,1,3.124,9.849,2.383,2.383,0,0,1,1.807,2.36v1.25a2.341,2.341,0,0,1-2.263,2.408Zm-.089-3.658v1.25c0,.076.048.135.089.135h31.75c.038,0,.086-.059.086-.135v-1.25c0-.076-.048-.138-.086-.138h-31.75C10119.224,168.417,10119.176,168.478,10119.176,168.554Zm1.812-2.408h28.3c-.382-5.955-3.8-11.607-8.357-13.885v8.071a1.09,1.09,0,1,1-2.179,0v-9.926c0-.076-.046-.135-.087-.135h-2.438v12.506a1.089,1.089,0,1,1-2.176,0V150.271h-2.441c-.041,0-.087.059-.087.135v9.926a1.089,1.089,0,1,1-2.176,0v-8.071C10124.786,154.539,10121.372,160.191,10120.987,166.146Z" transform="translate(-9787.998 1831.999)" fill="#fff"/>
  </g>
</svg>
