<svg xmlns="http://www.w3.org/2000/svg" xmlns:xlink="http://www.w3.org/1999/xlink" width="224" height="224" viewBox="0 0 224 224">
  <defs>
    <radialGradient id="radial-gradient" cx="0.5" cy="0.5" r="1.167" gradientTransform="translate(0 -0.174) scale(1 1.348)" gradientUnits="objectBoundingBox">
      <stop offset="0" stop-color="#7566a0"/>
      <stop offset="1" stop-color="#493b6e"/>
    </radialGradient>
  </defs>
  <g id="eye-outline" transform="translate(112 112)">
    <g id="eye-outline-2" data-name="eye-outline" transform="translate(-112 -112)">
      <g id="eye">
        <rect id="Rectangle_13890" data-name="Rectangle 13890" width="224" height="224" fill="#2eb67d" opacity="0"/>
        <path id="Path_121669" data-name="Path 121669" d="M187.486,65.7c-5.973-10.36-38.827-62.347-94.64-60.667C41.233,6.342,11.366,51.7,3.246,65.7a9.333,9.333,0,0,0,0,9.333C9.126,85.209,40.58,135.7,95.553,135.7h2.333c51.613-1.307,81.573-46.667,89.6-60.667A9.333,9.333,0,0,0,187.486,65.7ZM97.42,117.036c-40.227.933-66.453-33.507-74.667-46.667C32.086,55.342,56.446,24.636,93.78,23.7c40.04-1.027,66.36,33.507,74.667,46.667C158.833,85.4,134.753,116.1,97.42,117.036Z" transform="translate(16.634 41.631)" fill="url(#radial-gradient)"/>
        <path id="Path_121670" data-name="Path 121670" d="M41.167,8.5A32.667,32.667,0,1,0,73.833,41.167,32.667,32.667,0,0,0,41.167,8.5Zm0,46.667a14,14,0,1,1,14-14A14,14,0,0,1,41.167,55.167Z" transform="translate(70.833 70.833)" fill="url(#radial-gradient)"/>
      </g>
    </g>
  </g>
</svg>
