<svg xmlns="http://www.w3.org/2000/svg" width="30" height="30" viewBox="0 0 30 30">
  <g id="facebook-outline" transform="translate(12 12)">
    <g id="facebook-outline-2" data-name="facebook-outline" transform="translate(-12 -12)">
      <g id="facebook">
        <rect id="Rectangle_13779" data-name="Rectangle 13779" width="30" height="30" transform="translate(30 30) rotate(180)" fill="#1d4487" opacity="0"/>
        <rect id="Rectangle_13780" data-name="Rectangle 13780" width="30" height="30" transform="translate(30 30) rotate(180)" fill="#1d4487" opacity="0"/>
        <path id="Path_107142" data-name="Path 107142" d="M15,27H10a1.25,1.25,0,0,1-1.25-1.25V18H6.25A1.25,1.25,0,0,1,5,16.751v-4.5A1.25,1.25,0,0,1,6.25,11h2.5V8.876A7.212,7.212,0,0,1,16.25,2H20a1.25,1.25,0,0,1,1.25,1.25v4.5A1.25,1.25,0,0,1,20,9H16.25v2H20a1.235,1.235,0,0,1,1.2,1.588l-1.25,4.5A1.25,1.25,0,0,1,18.7,18H16.25v7.75A1.25,1.25,0,0,1,15,27Zm-3.75-2.5h2.5v-7.75A1.25,1.25,0,0,1,15,15.5h2.8l.55-2H15a1.25,1.25,0,0,1-1.25-1.25V8.876A2.5,2.5,0,0,1,16.25,6.5h2.5v-2h-2.5a4.725,4.725,0,0,0-5,4.375v3.375A1.25,1.25,0,0,1,10,13.5H7.5v2H10a1.25,1.25,0,0,1,1.25,1.25Z" transform="translate(1.25 0.499)" fill="#1d4487"/>
      </g>
    </g>
  </g>
</svg>
