<svg id="global" xmlns="http://www.w3.org/2000/svg" width="60" height="60" viewBox="0 0 60 60">
  <path id="Vector" d="M26.875,53.75A26.875,26.875,0,1,1,53.75,26.875,26.9,26.9,0,0,1,26.875,53.75Zm0-50A23.125,23.125,0,1,0,50,26.875,23.153,23.153,0,0,0,26.875,3.75Z" transform="translate(3.125 3.125)" fill="#153365"/>
  <path id="Vector-2" data-name="Vector" d="M5.494,48.75h-2.5a1.889,1.889,0,0,1-1.875-1.875A1.862,1.862,0,0,1,2.944,45a73.725,73.725,0,0,1,0-41.25A1.862,1.862,0,0,1,1.119,1.875,1.889,1.889,0,0,1,2.994,0h2.5A1.918,1.918,0,0,1,7.019.775a1.877,1.877,0,0,1,.25,1.7,69.87,69.87,0,0,0,0,43.825,1.877,1.877,0,0,1-.25,1.7A1.969,1.969,0,0,1,5.494,48.75Z" transform="translate(17.006 5.625)" fill="#153365"/>
  <path id="Vector-3" data-name="Vector" d="M1.881,48.771a1.681,1.681,0,0,1-.6-.1A1.863,1.863,0,0,1,.106,46.3a69.87,69.87,0,0,0,0-43.825,1.874,1.874,0,0,1,3.55-1.2,73.294,73.294,0,0,1,0,46.175A1.859,1.859,0,0,1,1.881,48.771Z" transform="translate(35.619 5.604)" fill="#153365"/>
  <path id="Vector-4" data-name="Vector" d="M24.375,7.377A72.939,72.939,0,0,1,3.75,4.427,1.875,1.875,0,0,1,0,4.377v-2.5A1.918,1.918,0,0,1,.775.352,1.877,1.877,0,0,1,2.475.1,69.87,69.87,0,0,0,46.3.1a1.877,1.877,0,0,1,1.7.25,1.85,1.85,0,0,1,.775,1.525v2.5A1.889,1.889,0,0,1,46.9,6.252a1.862,1.862,0,0,1-1.875-1.825A73.24,73.24,0,0,1,24.375,7.377Z" transform="translate(5.625 35.623)" fill="#153365"/>
  <path id="Vector-5" data-name="Vector" d="M46.884,7.381a1.681,1.681,0,0,1-.6-.1,69.87,69.87,0,0,0-43.825,0A1.873,1.873,0,0,1,.084,6.106a1.907,1.907,0,0,1,1.2-2.375,73.294,73.294,0,0,1,46.175,0,1.863,1.863,0,0,1,1.175,2.375A1.823,1.823,0,0,1,46.884,7.381Z" transform="translate(5.616 16.994)" fill="#153365"/>
  <path id="Vector-6" data-name="Vector" d="M0,0H60V60H0Z" fill="none" opacity="0"/>
</svg>
