<svg id="graph" xmlns="http://www.w3.org/2000/svg" xmlns:xlink="http://www.w3.org/1999/xlink" width="65.272" height="71.821" viewBox="0 0 65.272 71.821">
  <defs>
    <filter id="Vector" x="22.277" y="0" width="42.994" height="46.082" filterUnits="userSpaceOnUse">
      <feOffset dy="3" input="SourceAlpha"/>
      <feGaussianBlur stdDeviation="3" result="blur"/>
      <feFlood flood-opacity="0.161"/>
      <feComposite operator="in" in2="blur"/>
      <feComposite in="SourceGraphic"/>
    </filter>
    <filter id="Vector-2" x="0" y="3.638" width="62.076" height="68.183" filterUnits="userSpaceOnUse">
      <feOffset dy="3" input="SourceAlpha"/>
      <feGaussianBlur stdDeviation="3" result="blur-2"/>
      <feFlood flood-opacity="0.161"/>
      <feComposite operator="in" in2="blur-2"/>
      <feComposite in="SourceGraphic"/>
    </filter>
  </defs>
  <g id="vuesax_outline_graph" data-name="vuesax/outline/graph">
    <g id="graph-2" data-name="graph">
      <g transform="matrix(1, 0, 0, 1, 0, 0)" filter="url(#Vector)">
        <path id="Vector-3" data-name="Vector" d="M25.141,34.072l-7.621-.009a9.582,9.582,0,0,1-3.729-.677,6.643,6.643,0,0,1-2.661-2.01,9.01,9.01,0,0,1-1.6-3.334A18.157,18.157,0,0,1,9,23.388V16.1c0-.647.017-1.365.08-2.109a14.963,14.963,0,0,1,.355-2.27A9.254,9.254,0,0,1,10.24,9.55a6.272,6.272,0,0,1,1.431-1.818,5.729,5.729,0,0,1,1.689-1,7.006,7.006,0,0,1,2.073-.423,11.623,11.623,0,0,1,2.507.148,21.7,21.7,0,0,1,2.992.718A16.036,16.036,0,0,1,25,9.112a18.59,18.59,0,0,1,3.528,3.025,20.236,20.236,0,0,1,4.588,8.437,29.064,29.064,0,0,1,.7,3.353,16.2,16.2,0,0,1,.172,2.831,9.534,9.534,0,0,1-.357,2.349,6.765,6.765,0,0,1-.887,1.908A6.047,6.047,0,0,1,31.1,32.656a7.353,7.353,0,0,1-1.975.922,11.01,11.01,0,0,1-2.066.4A18.167,18.167,0,0,1,25.141,34.072ZM15.877,10.115a5.442,5.442,0,0,0-.662.047,3.868,3.868,0,0,0-.58.123,2.773,2.773,0,0,0-.494.2,2.1,2.1,0,0,0-.4.273,2.487,2.487,0,0,0-.58.749,4.994,4.994,0,0,0-.411,1.128,10.442,10.442,0,0,0-.245,1.517q-.081.857-.081,1.916v7.328a14.267,14.267,0,0,0,.354,3.477,4.948,4.948,0,0,0,1.017,2.093A3.476,3.476,0,0,0,15.4,29.989a7.127,7.127,0,0,0,2.14.27l7.621-.009a14.679,14.679,0,0,0,1.725-.094,7.76,7.76,0,0,0,1.372-.279,4.063,4.063,0,0,0,1.027-.467,2.475,2.475,0,0,0,.689-.658,3.069,3.069,0,0,0,.445-1.11,6.738,6.738,0,0,0,.118-1.546,14.306,14.306,0,0,0-.2-1.974q-.182-1.093-.521-2.394A16.11,16.11,0,0,0,28.349,18.1a16.7,16.7,0,0,0-2.248-3.15,15.307,15.307,0,0,0-2.841-2.461,12.607,12.607,0,0,0-3.246-1.564q-.636-.212-1.211-.367T17.711,10.3q-.516-.1-.974-.147A7.456,7.456,0,0,0,15.877,10.115Z" transform="translate(22.28)" fill="#7566a0"/>
      </g>
      <g transform="matrix(1, 0, 0, 1, 0, 0)" filter="url(#Vector-2)">
        <path id="Vector-4" data-name="Vector" d="M30.871,55.8q-.449-.008-.9-.035t-.906-.076q-.454-.048-.91-.118t-.911-.163a20.091,20.091,0,0,1-6.482-2.543,23.02,23.02,0,0,1-5.4-4.569,25.433,25.433,0,0,1-3.949-6.136,26.323,26.323,0,0,1-2.125-7.262A28.462,28.462,0,0,1,9.549,25.3a26.775,26.775,0,0,1,3.261-8.494A23.715,23.715,0,0,1,18.6,10.226a20.921,20.921,0,0,1,7.859-3.813,1.531,1.531,0,0,1,.673-.008,1.582,1.582,0,0,1,.6.269,1.789,1.789,0,0,1,.463.5,2.031,2.031,0,0,1,.269.682,2.18,2.18,0,0,1,0,.759,2.088,2.088,0,0,1-.246.676,1.879,1.879,0,0,1-.449.526,1.648,1.648,0,0,1-.609.31,17.72,17.72,0,0,0-6.662,3.221,20.088,20.088,0,0,0-4.918,5.577A22.665,22.665,0,0,0,12.8,26.14a24.129,24.129,0,0,0-.213,8.165,22.337,22.337,0,0,0,1.8,6.155,21.532,21.532,0,0,0,3.348,5.2,19.448,19.448,0,0,0,4.576,3.864,16.971,16.971,0,0,0,5.488,2.143,17.172,17.172,0,0,0,7.379-.156,17.856,17.856,0,0,0,6.546-3.13,20.015,20.015,0,0,0,5.044-5.639,22.589,22.589,0,0,0,2.861-7.654,2.018,2.018,0,0,1,.266-.709,1.829,1.829,0,0,1,.474-.518,1.651,1.651,0,0,1,.614-.282,1.552,1.552,0,0,1,.684,0,1.641,1.641,0,0,1,.641.3,1.86,1.86,0,0,1,.47.529,2.068,2.068,0,0,1,.257.683,2.11,2.11,0,0,1,0,.759,26.905,26.905,0,0,1-2.92,8.22,24.129,24.129,0,0,1-5.06,6.345,21.659,21.659,0,0,1-6.611,4.043A20.149,20.149,0,0,1,30.871,55.8Z" transform="translate(0 3.64)" fill="#7566a0" opacity="0.37"/>
      </g>
      <path id="Vector-5" data-name="Vector" d="M0,1.056,54.368,0V62.075L0,61.019Z" transform="translate(6.261 1.11)" fill="none" opacity="0"/>
    </g>
  </g>
</svg>
