<svg xmlns="http://www.w3.org/2000/svg" width="55.337" height="44.265" viewBox="0 0 55.337 44.265">
  <path id="hands-helping" d="M42.173,16.621H29.031v4.842a6.225,6.225,0,1,1-12.451,0V10.949l-5.611,3.372A5.522,5.522,0,0,0,8.28,19.059v4.09L1.363,27.143A2.76,2.76,0,0,0,.351,30.922L7.268,42.905a2.768,2.768,0,0,0,3.778,1.012l8.94-5.162H31.8a5.539,5.539,0,0,0,5.534-5.534h1.383a2.764,2.764,0,0,0,2.767-2.767V24.921h.692a2.07,2.07,0,0,0,2.075-2.075V18.7A2.07,2.07,0,0,0,42.173,16.621Zm12.771-3.234L48.027,1.4A2.768,2.768,0,0,0,44.248.392l-8.94,5.162H26.471a5.575,5.575,0,0,0-2.931.839L20.644,8.2a2.748,2.748,0,0,0-1.3,2.343v10.92a3.459,3.459,0,1,0,6.917,0V13.854H42.173A4.845,4.845,0,0,1,47.015,18.7V21.16l6.917-3.995A2.77,2.77,0,0,0,54.944,13.387Z" transform="translate(0.023 -0.022)" fill="#fff"/>
</svg>
