<svg id="Layer_1" data-name="Layer 1" xmlns="http://www.w3.org/2000/svg" width="177.153" height="115.085" viewBox="0 0 177.153 115.085">
  <path id="Path_9" data-name="Path 9" d="M228.409,143.475a1.992,1.992,0,0,0-2.842,0l-8.478,8.485-27.6-25.175-.04-.033a1.109,1.109,0,0,0-1.527,1.6l27.837,27.811,1.421,1.421,1.421-1.421,9.839-9.846a1.992,1.992,0,0,0,0-2.842" transform="translate(-63.065 -42.498)" fill="#7666a1"/>
  <path id="Path_10" data-name="Path 10" d="M199.589,16.369l-1.54-14.606a2,2,0,1,0-3.983.425l1.328,12.654-12.807,1.746h-.133a1,1,0,0,0,.133,1.992h17.261Z" transform="translate(-61.04 0.027)" fill="#7666a1"/>
  <path id="Path_11" data-name="Path 11" d="M210.2,103.182l-7.21-59.618-.126-1.022-.9-.491-11.784-6.5a2.021,2.021,0,1,0-1.965,3.532L199.129,45.1l9.082,58.33v.046a1.006,1.006,0,0,0,1.992-.279" transform="translate(-62.91 -11.845)" fill="#43a6c5"/>
  <path id="Path_12" data-name="Path 12" d="M249.586,70.725l-13.2-7.3L234.3,62.28l-.79,2.237L223.376,93.344a1,1,0,1,0,1.872.724v-.06l11.133-26,11.286,6.207a1.992,1.992,0,0,0,1.919-3.492" transform="translate(-75.055 -20.914)" fill="#923c80"/>
  <path id="Path_13" data-name="Path 13" d="M252.881,50.5l-5.856-7.529.8-9.958v-.179a1,1,0,0,0-1.959-.339l-2.835,10.622-.259.963.611.79,6.307,8.106a2.021,2.021,0,0,0,3.193-2.476" transform="translate(-81.596 -10.647)" fill="#ad3a74"/>
  <path id="Path_14" data-name="Path 14" d="M233.44,19.034h-9.547L215,10.6l-.113-.106a1,1,0,0,0-1.481,1.328l8.126,10.45.6.777h11.286a2.015,2.015,0,0,0,0-4.03" transform="translate(-71.668 -3.428)" fill="#804d98"/>
  <path id="Path_15" data-name="Path 15" d="M240.013,110.26a1.009,1.009,0,0,0-1.421-.046h0l-38.918,36.169-8.471-8.471a2.009,2.009,0,1,0-2.842,2.841L198.2,150.6l1.421,1.421,1.427-1.421,38.938-38.938a1.022,1.022,0,0,0,0-1.4" transform="translate(-63.111 -36.934)" fill="#43a6c5"/>
  <path id="Path_16" data-name="Path 16" d="M11.631,140.445c-1.328,2.078-3.91,3.12-7.144,3.12a12.368,12.368,0,0,1-1.905-.126,7.394,7.394,0,0,1-1.394-.339h0A1.673,1.673,0,0,1,0,141.507v-1.421a1.706,1.706,0,0,1,1.992-1.693,9.753,9.753,0,0,0,1.866.166,5.8,5.8,0,0,0,1.8-.259A2.324,2.324,0,0,0,6.8,137.272a6.28,6.28,0,0,0,.724-2.144,20.707,20.707,0,0,0,.259-3.658V111.26a2.941,2.941,0,1,1,5.875,0v10.277a4.846,4.846,0,0,0,.438,2.191A3.724,3.724,0,0,0,15.27,125.1a4.415,4.415,0,0,0,1.759.7,12.168,12.168,0,0,0,2.138.179h1.806a2.436,2.436,0,0,1,.75.106c.219.066.332.272.332.617v4.023c0,.378-.359.571-1.082.571H19.114a5.538,5.538,0,0,1-1.52-.232,7.654,7.654,0,0,1-1.547-.664,5.47,5.47,0,0,1-1.328-1,4.228,4.228,0,0,1-.876-1.368H13.63v3.459q0,5.822-2.032,8.949" transform="translate(0 -36.341)" fill="#1d4487"/>
  <path id="Path_17" data-name="Path 17" d="M17.75,90.945v.146a2.775,2.775,0,0,1-5.55,0v-.146a2.775,2.775,0,0,1,5.55,0" transform="translate(-4.1 -29.616)" fill="#1d4487"/>
  <path id="Path_18" data-name="Path 18" d="M30,139.727V135.7c0-.345.113-.551.332-.617a2.436,2.436,0,0,1,.75-.106H39.9c.757,0,1.135.192,1.135.571v4.023q0,.518-.339.617a2.541,2.541,0,0,1-.8.106H31.072c-.724,0-1.082-.193-1.082-.571" transform="translate(-10.08 -45.349)" fill="#1d4487"/>
  <path id="Path_19" data-name="Path 19" d="M43.28,139.727V135.7c0-.345.113-.551.332-.617a2.436,2.436,0,0,1,.75-.106h8.823c.757,0,1.135.192,1.135.571v4.023q0,.518-.339.617a2.541,2.541,0,0,1-.8.106H44.362c-.724,0-1.082-.193-1.082-.571" transform="translate(-14.547 -45.349)" fill="#1d4487"/>
  <path id="Path_20" data-name="Path 20" d="M56.57,139.733V135.71c0-.345.113-.551.332-.617a2.408,2.408,0,0,1,.75-.093h8.823c.757,0,1.135.193,1.135.571v4.023q0,.518-.339.617a2.576,2.576,0,0,1-.8.106H57.652c-.724,0-1.082-.193-1.082-.571" transform="translate(-19.013 -45.355)" fill="#1d4487"/>
  <path id="Path_21" data-name="Path 21" d="M76.74,95.6a3.6,3.6,0,0,1-.5-2.2l.073-2.729h1.919v2.3a3.319,3.319,0,0,0,.219,1.328,1.082,1.082,0,0,0,.664.664,1.6,1.6,0,0,0,1.188-.113,1.461,1.461,0,0,0,.737-.916l.046-.159a2.054,2.054,0,0,0,.046-.352V90.843h1.872l-.06,2.284a2.231,2.231,0,0,0,.432,1.175,1.434,1.434,0,0,0,.75.6,1.328,1.328,0,0,0,1.129-.1,1.467,1.467,0,0,0,.617-.863l.046-.159a2.174,2.174,0,0,0,.046-.378V90.73h1.905c0,.75-.04,1.819-.04,2.231v.983a1.8,1.8,0,0,1-.04.524,2.658,2.658,0,0,1-.06.319,2.49,2.49,0,0,1-1.441,1.673,3.472,3.472,0,0,1-2.4.106,2.6,2.6,0,0,1-1.129-.664,2.875,2.875,0,0,1-.71-1.328,2.656,2.656,0,0,1-1.474,1.806,3.479,3.479,0,0,1-2.456.113,2.6,2.6,0,0,1-1.388-.9" transform="translate(-25.62 -30.456)" fill="#1d4487"/>
  <path id="Path_22" data-name="Path 22" d="M84.448,130.9a8.174,8.174,0,0,1-1.879-1.135,8.632,8.632,0,0,1-1.52-1.554,6.551,6.551,0,0,1-.956-1.673,8.4,8.4,0,0,1-3.685,3.638,10.437,10.437,0,0,1-4.647,1.162H68.972c-.717,0-1.082-.193-1.082-.571v-4.023q0-.518.339-.617a2.371,2.371,0,0,1,.744-.106h2.841a4.1,4.1,0,0,0,1.135-.179,3.207,3.207,0,0,0,1.162-.664,3.731,3.731,0,0,0,.9-1.241,4.647,4.647,0,0,0,.359-1.992V111.271a2.941,2.941,0,1,1,5.882,0v8.923a5.543,5.543,0,0,0,.518,2.423,5.829,5.829,0,0,0,1.328,1.832,6.174,6.174,0,0,0,1.726,1.162,4.475,4.475,0,0,0,1.806.412h1.706a2.371,2.371,0,0,1,.744.106q.339.1.339.617v4.023c0,.378-.365.571-1.082.571H86.612a5.458,5.458,0,0,1-2.164-.438" transform="translate(-22.818 -36.392)" fill="#1d4487"/>
  <path id="Path_23" data-name="Path 23" d="M118.935,125.64a4.781,4.781,0,0,0,1.627-1.879,9.175,9.175,0,0,0,.823-2.735,22.257,22.257,0,0,0,.232-3.253,24.2,24.2,0,0,0-.206-3.246,9.075,9.075,0,0,0-.8-2.762,4.747,4.747,0,0,0-1.653-1.912,5.656,5.656,0,0,0-5.417,0,4.541,4.541,0,0,0-1.627,1.912,9.461,9.461,0,0,0-.777,2.762,25.76,25.76,0,0,0,0,6.5,8.632,8.632,0,0,0,.8,2.735,5.079,5.079,0,0,0,6.991,1.879m-6.168,5.444A8.837,8.837,0,0,1,110.112,130a8.577,8.577,0,0,1-2.065-1.806,14.266,14.266,0,0,1-1.673-2.576,6.6,6.6,0,0,1-2.556,3.22,6.911,6.911,0,0,1-3.791,1.062H98.919c-.724,0-1.089-.193-1.089-.571v-4.023q0-.518.339-.617a2.41,2.41,0,0,1,.75-.106h1.016a4.116,4.116,0,0,0,1.859-.438,4.581,4.581,0,0,0,1.547-1.288,6.825,6.825,0,0,0,1.082-2.118,9.482,9.482,0,0,0,.412-2.968q0-6.393,2.914-10.058t8.491-3.665q5.563,0,8.511,3.665t2.941,10.058a7.644,7.644,0,0,0,1.474,5.085,4.388,4.388,0,0,0,3.426,1.726h1.653a2.436,2.436,0,0,1,.75.106c.219.066.332.272.332.617v4.023c0,.378-.359.571-1.082.571h-1.7a6.938,6.938,0,0,1-3.8-1.062,6.586,6.586,0,0,1-2.549-3.22,9.847,9.847,0,0,1-9.958,5.829,14.905,14.905,0,0,1-3.485-.365" transform="translate(-32.881 -34.953)" fill="#1d4487"/>
  <path id="Path_24" data-name="Path 24" d="M156.11,90.945v.146a2.775,2.775,0,1,1-5.55,0v-.146a2.775,2.775,0,0,1,5.55,0" transform="translate(-50.604 -29.616)" fill="#1d4487"/>
  <path id="Path_25" data-name="Path 25" d="M160.947,108.33a2.941,2.941,0,0,1,2.941,2.941v20.076H152.6c-.724,0-1.082-.193-1.082-.571v-4.023c0-.345.113-.551.332-.617a2.438,2.438,0,0,1,.75-.106h5.417V111.271a2.941,2.941,0,0,1,2.941-2.941" transform="translate(-50.926 -36.392)" fill="#1d4487"/>
  <path id="Path_26" data-name="Path 26" d="M167.337,91.011v.146a2.782,2.782,0,0,1-5.557,0v-.146a2.782,2.782,0,0,1,5.557,0" transform="translate(-54.375 -29.682)" fill="#1d4487"/>
  <path id="Path_27" data-name="Path 27" d="M68.253,152.461v.153a2.861,2.861,0,0,1-5.723,0v-.153a2.861,2.861,0,0,1,5.723,0" transform="translate(-21.016 -50.263)" fill="#1d4487"/>
  <path id="Path_28" data-name="Path 28" d="M79.5,152.531v.153a2.861,2.861,0,1,1-5.716,0v-.153a2.861,2.861,0,0,1,5.716,0" transform="translate(-24.799 -50.333)" fill="#1d4487"/>
  <path id="Path_29" data-name="Path 29" d="M119.672,155.163a3.9,3.9,0,0,0-2.377,2.271,5.935,5.935,0,0,0,0,4.063,4.051,4.051,0,0,0,.969,1.441,3.864,3.864,0,0,0,1.407.85,5.159,5.159,0,0,0,1.7.279,5.89,5.89,0,0,0,1.812-.272,6.639,6.639,0,0,0,1.554-.724l.91,2.085a7.4,7.4,0,0,1-1.992.817,9.353,9.353,0,0,1-2.39.305,7.39,7.39,0,0,1-2.822-.518,6.1,6.1,0,0,1-2.158-1.427,6.38,6.38,0,0,1-1.328-2.158,7.894,7.894,0,0,1,0-5.411,6.407,6.407,0,0,1,1.328-2.164,6.1,6.1,0,0,1,2.158-1.427,7.523,7.523,0,0,1,2.822-.511,9.069,9.069,0,0,1,2.39.312,7.622,7.622,0,0,1,1.992.823l-.91,2.065a7.172,7.172,0,0,0-1.554-.7,5.89,5.89,0,0,0-1.812-.272,5.159,5.159,0,0,0-1.7.279" transform="translate(-38.477 -51.291)" fill="#1d4487"/>
  <path id="Path_30" data-name="Path 30" d="M144,157.593a4.243,4.243,0,0,0-.916-1.441,3.984,3.984,0,0,0-1.381-.929,4.508,4.508,0,0,0-1.739-.325,4.456,4.456,0,0,0-1.719.325,4.024,4.024,0,0,0-1.381.929,4.242,4.242,0,0,0-.916,1.441,5.524,5.524,0,0,0,0,3.771,4.208,4.208,0,0,0,.916,1.447,3.984,3.984,0,0,0,1.381.923,4.456,4.456,0,0,0,1.72.325,4.51,4.51,0,0,0,1.739-.325,3.943,3.943,0,0,0,1.381-.923,4.209,4.209,0,0,0,.916-1.447,5.418,5.418,0,0,0,0-3.771m2.33,4.6a6.639,6.639,0,0,1-1.414,2.164,6.558,6.558,0,0,1-2.164,1.434,7.621,7.621,0,0,1-5.524,0,6.526,6.526,0,0,1-2.158-1.434,6.64,6.64,0,0,1-1.414-2.164,7.383,7.383,0,0,1,0-5.364,6.439,6.439,0,0,1,1.414-2.164,6.864,6.864,0,0,1,2.158-1.441,7.535,7.535,0,0,1,5.524,0,6.9,6.9,0,0,1,2.164,1.441,6.439,6.439,0,0,1,1.414,2.164,7.475,7.475,0,0,1,0,5.364" transform="translate(-44.752 -51.305)" fill="#1d4487"/>
  <path id="Path_31" data-name="Path 31" d="M165.842,152.62V154.8h-6.075v3.632h5.51v2.2h-5.51v3.479h6.108v2.178H157.43V152.62Z" transform="translate(-52.913 -51.278)" fill="#1d4487"/>
</svg>
