<svg id="link" xmlns="http://www.w3.org/2000/svg" width="24" height="24" viewBox="0 0 24 24">
  <g id="vuesax_outline_link" data-name="vuesax/outline/link">
    <g id="link-2" data-name="link">
      <path id="Vector" d="M2.26,12.5H.75a.75.75,0,0,1,0-1.5H2.26a4.75,4.75,0,0,0,0-9.5H.76A.75.75,0,0,1,.76,0h1.5a6.25,6.25,0,0,1,0,12.5Z" transform="translate(14.24 5.75)" fill="#fff"/>
      <path id="Vector-2" data-name="Vector" d="M7.75,12.5H6.25A6.25,6.25,0,0,1,6.25,0h1.5A.755.755,0,0,1,8.5.75a.755.755,0,0,1-.75.75H6.25a4.75,4.75,0,0,0,0,9.5h1.5a.75.75,0,0,1,0,1.5Z" transform="translate(1.25 5.75)" fill="#fff"/>
      <path id="Vector-3" data-name="Vector" d="M8.75,1.5h-8A.755.755,0,0,1,0,.75.755.755,0,0,1,.75,0h8A.755.755,0,0,1,9.5.75.755.755,0,0,1,8.75,1.5Z" transform="translate(7.25 11.25)" fill="#fff"/>
      <path id="Vector-4" data-name="Vector" d="M0,0H24V24H0Z" fill="none" opacity="0"/>
    </g>
  </g>
</svg>
