<svg id="logo-2" xmlns="http://www.w3.org/2000/svg" width="172" height="111.109" viewBox="0 0 172 111.109">
  <g id="Layer_1" data-name="Layer 1">
    <path id="Path_9" data-name="Path 9" d="M227.223,142.889a1.941,1.941,0,0,0-2.759,0l-8.231,8.191-26.8-24.305-.039-.032a1.081,1.081,0,0,0-1.464.086,1.066,1.066,0,0,0-.018,1.458l27.027,26.85,1.379,1.372,1.379-1.372,9.553-9.505a1.915,1.915,0,0,0,0-2.743" transform="translate(-66.689 -45.4)" fill="#7666a1"/>
    <path id="Path_10" data-name="Path 10" d="M199.066,15.8l-1.5-14.1a1.945,1.945,0,0,0-3.867.41l1.289,12.217-12.434,1.686h-.129a.967.967,0,0,0,.129,1.923h16.759Z" transform="translate(-64.547 0.027)" fill="#7666a1"/>
    <path id="Path_11" data-name="Path 11" d="M209.533,100.837l-7-57.559-.122-.987-.877-.474-11.441-6.275a1.968,1.968,0,0,0-2.669.756,1.945,1.945,0,0,0,.761,2.654l10.6,5.814L207.6,101.08v.045a.976.976,0,0,0,1.934-.269" transform="translate(-66.525 -12.655)" fill="#43a6c5"/>
    <path id="Path_12" data-name="Path 12" d="M248.822,70.433,236,63.382l-2.024-1.1-.767,2.16-9.836,27.831a.974.974,0,0,0,1.818.7v-.058L236,67.812,246.959,73.8a1.94,1.94,0,0,0,2.627-.76,1.918,1.918,0,0,0-.764-2.612" transform="translate(-79.367 -22.343)" fill="#923c80"/>
    <path id="Path_13" data-name="Path 13" d="M252.587,49.85,246.9,42.582l.774-9.614v-.173a.967.967,0,0,0-1.9-.327l-2.752,10.255-.251.929.593.763,6.124,7.826a1.969,1.969,0,0,0,2.752.346,1.943,1.943,0,0,0,.348-2.737" transform="translate(-86.284 -11.375)" fill="#ad3a74"/>
    <path id="Path_14" data-name="Path 14" d="M232.852,18.731h-9.269l-8.631-8.14-.11-.1a.977.977,0,0,0-1.286.012.964.964,0,0,0-.152,1.27l7.89,10.089.587.75h10.958a1.945,1.945,0,1,0,0-3.891" transform="translate(-75.786 -3.664)" fill="#804d98"/>
    <path id="Path_15" data-name="Path 15" d="M238.494,110.249a.984.984,0,0,0-1.379-.045h0l-37.786,34.92-8.225-8.179a1.959,1.959,0,0,0-2.759,0,1.932,1.932,0,0,0,0,2.743l9.553,9.505,1.379,1.372,1.386-1.372,37.8-37.593a.983.983,0,0,0,0-1.352" transform="translate(-66.737 -39.456)" fill="#43a6c5"/>
    <path id="Path_16" data-name="Path 16" d="M11.293,139.331c-1.289,2.006-3.8,3.013-6.936,3.013a12.073,12.073,0,0,1-1.85-.122,7.214,7.214,0,0,1-1.354-.327h0A1.616,1.616,0,0,1,0,140.356v-1.372a1.643,1.643,0,0,1,.584-1.266,1.663,1.663,0,0,1,1.35-.369,9.522,9.522,0,0,0,1.811.16,5.656,5.656,0,0,0,1.747-.25,2.252,2.252,0,0,0,1.115-.993,6.04,6.04,0,0,0,.7-2.07,19.882,19.882,0,0,0,.251-3.532V111.154a2.835,2.835,0,0,1,1.386-2.571,2.869,2.869,0,0,1,2.933,0,2.835,2.835,0,0,1,1.386,2.571v9.922a4.656,4.656,0,0,0,.425,2.115,3.6,3.6,0,0,0,1.134,1.32,4.3,4.3,0,0,0,1.708.673,11.877,11.877,0,0,0,2.076.173h1.753a2.378,2.378,0,0,1,.728.1c.213.064.322.263.322.6v3.884c0,.365-.348.551-1.051.551h-1.8a5.405,5.405,0,0,1-1.476-.224,7.454,7.454,0,0,1-1.5-.641,5.31,5.31,0,0,1-1.289-.968,4.08,4.08,0,0,1-.851-1.32h-.206v3.339q0,5.621-1.972,8.64" transform="translate(0 -38.823)" fill="#1d4487"/>
    <path id="Path_17" data-name="Path 17" d="M17.589,90.849v.141a2.694,2.694,0,0,1-5.389,0v-.141a2.694,2.694,0,0,1,5.389,0" transform="translate(-4.336 -31.639)" fill="#1d4487"/>
    <path id="Path_18" data-name="Path 18" d="M30,139.563v-3.884c0-.333.11-.532.322-.6a2.376,2.376,0,0,1,.728-.1h8.56c.735,0,1.1.186,1.1.551v3.884q0,.5-.329.6a2.48,2.48,0,0,1-.774.1H31.041c-.7,0-1.051-.186-1.051-.551" transform="translate(-10.659 -48.445)" fill="#1d4487"/>
    <path id="Path_19" data-name="Path 19" d="M43.28,139.563v-3.884c0-.333.11-.532.322-.6a2.376,2.376,0,0,1,.728-.1H52.9c.735,0,1.1.186,1.1.551v3.884q0,.5-.329.6a2.48,2.48,0,0,1-.773.1H44.331c-.7,0-1.051-.186-1.051-.551" transform="translate(-15.382 -48.445)" fill="#1d4487"/>
    <path id="Path_20" data-name="Path 20" d="M56.57,139.569v-3.884c0-.333.11-.532.322-.6a2.35,2.35,0,0,1,.728-.09h8.567c.735,0,1.1.186,1.1.551v3.884q0,.5-.329.6a2.515,2.515,0,0,1-.773.1H57.621c-.7,0-1.051-.186-1.051-.551" transform="translate(-20.106 -48.452)" fill="#1d4487"/>
    <path id="Path_21" data-name="Path 21" d="M76.725,95.426a3.458,3.458,0,0,1-.483-2.122l.071-2.634h1.863v2.218a3.189,3.189,0,0,0,.213,1.282,1.048,1.048,0,0,0,.645.641,1.561,1.561,0,0,0,1.154-.109,1.412,1.412,0,0,0,.715-.885l.045-.154a1.974,1.974,0,0,0,.045-.34V90.837h1.818l-.058,2.2a2.147,2.147,0,0,0,.419,1.134,1.391,1.391,0,0,0,.728.583,1.3,1.3,0,0,0,1.1-.1,1.417,1.417,0,0,0,.6-.833l.045-.154a2.086,2.086,0,0,0,.045-.365V90.728h1.85c0,.724-.039,1.756-.039,2.154v.949a1.727,1.727,0,0,1-.039.506,2.551,2.551,0,0,1-.058.308A2.408,2.408,0,0,1,86,96.259a3.389,3.389,0,0,1-2.327.1,2.524,2.524,0,0,1-1.1-.641,2.771,2.771,0,0,1-.69-1.282,2.567,2.567,0,0,1-1.431,1.743,3.4,3.4,0,0,1-2.385.109,2.522,2.522,0,0,1-1.347-.865" transform="translate(-27.092 -32.536)" fill="#1d4487"/>
    <path id="Path_22" data-name="Path 22" d="M83.966,130.123a7.943,7.943,0,0,1-1.824-1.1,8.357,8.357,0,0,1-1.476-1.5,6.316,6.316,0,0,1-.928-1.615,8.132,8.132,0,0,1-3.577,3.513,10.18,10.18,0,0,1-4.512,1.122H68.941c-.7,0-1.051-.186-1.051-.551V126.11q0-.5.329-.6a2.314,2.314,0,0,1,.722-.1H71.7a4,4,0,0,0,1.1-.173,3.118,3.118,0,0,0,1.128-.641,3.6,3.6,0,0,0,.877-1.2,4.464,4.464,0,0,0,.348-1.923V111.169a2.856,2.856,0,0,1,5.711,0v8.615a5.326,5.326,0,0,0,.5,2.339,5.629,5.629,0,0,0,1.289,1.769,6,6,0,0,0,1.676,1.122,4.365,4.365,0,0,0,1.753.4h1.657a2.314,2.314,0,0,1,.722.1q.329.1.329.6v3.884c0,.365-.355.551-1.051.551H86.067a5.325,5.325,0,0,1-2.1-.423" transform="translate(-24.129 -38.877)" fill="#1d4487"/>
    <path id="Path_23" data-name="Path 23" d="M118.321,124.894a4.623,4.623,0,0,0,1.579-1.814,8.821,8.821,0,0,0,.8-2.641,21.371,21.371,0,0,0,.226-3.141,23.235,23.235,0,0,0-.2-3.134,8.724,8.724,0,0,0-.774-2.666,4.59,4.59,0,0,0-1.6-1.846,5.519,5.519,0,0,0-5.26,0,4.391,4.391,0,0,0-1.579,1.846,9.1,9.1,0,0,0-.754,2.666,24.733,24.733,0,0,0,0,6.275,8.3,8.3,0,0,0,.78,2.641,4.946,4.946,0,0,0,6.787,1.814m-5.988,5.256a8.608,8.608,0,0,1-2.578-1.045,8.313,8.313,0,0,1-2-1.743,13.765,13.765,0,0,1-1.624-2.487,6.377,6.377,0,0,1-2.482,3.109,6.738,6.738,0,0,1-3.681,1.026H98.887c-.7,0-1.057-.186-1.057-.551v-3.884q0-.5.329-.6a2.351,2.351,0,0,1,.728-.1h.986a4.014,4.014,0,0,0,1.8-.423,4.442,4.442,0,0,0,1.5-1.243,6.575,6.575,0,0,0,1.051-2.045,9.108,9.108,0,0,0,.4-2.865q0-6.172,2.83-9.711t8.244-3.538q5.4,0,8.264,3.538t2.856,9.711a7.351,7.351,0,0,0,1.431,4.91,4.269,4.269,0,0,0,3.326,1.667h1.6a2.377,2.377,0,0,1,.728.1c.213.064.322.263.322.6v3.884c0,.365-.348.551-1.051.551h-1.65a6.764,6.764,0,0,1-3.687-1.026,6.365,6.365,0,0,1-2.475-3.109A9.568,9.568,0,0,1,115.7,130.5a14.552,14.552,0,0,1-3.384-.353" transform="translate(-34.77 -37.34)" fill="#1d4487"/>
    <path id="Path_24" data-name="Path 24" d="M155.949,90.849v.141a2.694,2.694,0,0,1-5.389,0v-.141a2.694,2.694,0,0,1,5.389,0" transform="translate(-53.511 -31.639)" fill="#1d4487"/>
    <path id="Path_25" data-name="Path 25" d="M160.673,108.33a2.848,2.848,0,0,1,2.856,2.839v19.383H152.571c-.7,0-1.051-.186-1.051-.551v-3.884c0-.333.11-.532.322-.6a2.379,2.379,0,0,1,.728-.1h5.26V111.169a2.848,2.848,0,0,1,2.856-2.839" transform="translate(-53.852 -38.877)" fill="#1d4487"/>
    <path id="Path_26" data-name="Path 26" d="M167.175,90.919v.141a2.7,2.7,0,0,1-5.4,0v-.141a2.7,2.7,0,0,1,5.4,0" transform="translate(-57.499 -31.709)" fill="#1d4487"/>
    <path id="Path_27" data-name="Path 27" d="M68.086,152.363v.147a2.778,2.778,0,0,1-5.556,0v-.147a2.778,2.778,0,0,1,5.556,0" transform="translate(-22.224 -53.694)" fill="#1d4487"/>
    <path id="Path_28" data-name="Path 28" d="M79.338,152.437v.147a2.759,2.759,0,0,1-1.347,2.5,2.791,2.791,0,0,1-2.855,0,2.758,2.758,0,0,1-1.347-2.5v-.147a2.779,2.779,0,0,1,5.55,0" transform="translate(-26.224 -53.769)" fill="#1d4487"/>
    <path id="Path_29" data-name="Path 29" d="M119.521,155.076a3.781,3.781,0,0,0-2.308,2.192,5.7,5.7,0,0,0,0,3.923,3.91,3.91,0,0,0,.941,1.391,3.756,3.756,0,0,0,1.367.82,5.035,5.035,0,0,0,1.65.269,5.748,5.748,0,0,0,1.76-.263,6.464,6.464,0,0,0,1.508-.7l.883,2.013a7.2,7.2,0,0,1-1.934.788,9.128,9.128,0,0,1-2.32.295,7.21,7.21,0,0,1-2.74-.5,5.926,5.926,0,0,1-2.095-1.378,6.155,6.155,0,0,1-1.289-2.083,7.581,7.581,0,0,1,0-5.224,6.181,6.181,0,0,1,1.289-2.09,5.927,5.927,0,0,1,2.095-1.378,7.34,7.34,0,0,1,2.74-.494,8.852,8.852,0,0,1,2.32.3,7.423,7.423,0,0,1,1.934.795l-.883,1.993a6.982,6.982,0,0,0-1.508-.679,5.75,5.75,0,0,0-1.76-.263,5.034,5.034,0,0,0-1.65.269" transform="translate(-40.688 -54.793)" fill="#1d4487"/>
    <path id="Path_30" data-name="Path 30" d="M143.683,157.424a4.094,4.094,0,0,0-.889-1.391,3.869,3.869,0,0,0-1.341-.9,4.4,4.4,0,0,0-1.689-.314,4.348,4.348,0,0,0-1.669.314,3.907,3.907,0,0,0-1.341.9,4.094,4.094,0,0,0-.89,1.391,5.3,5.3,0,0,0,0,3.641,4.06,4.06,0,0,0,.89,1.4,3.869,3.869,0,0,0,1.341.891,4.348,4.348,0,0,0,1.669.314,4.4,4.4,0,0,0,1.689-.314,3.831,3.831,0,0,0,1.341-.891,4.06,4.06,0,0,0,.889-1.4,5.2,5.2,0,0,0,0-3.641m2.262,4.442a6.207,6.207,0,0,1-3.474,3.474,7.438,7.438,0,0,1-5.363,0,6.339,6.339,0,0,1-2.095-1.384,6.407,6.407,0,0,1-1.373-2.09,7.09,7.09,0,0,1,0-5.179,6.213,6.213,0,0,1,1.373-2.09,6.667,6.667,0,0,1,2.095-1.391,7.355,7.355,0,0,1,5.363,0,6.7,6.7,0,0,1,2.1,1.391,6.214,6.214,0,0,1,1.373,2.09,7.179,7.179,0,0,1,0,5.179" transform="translate(-47.323 -54.807)" fill="#1d4487"/>
    <path id="Path_31" data-name="Path 31" d="M165.6,152.62v2.1h-5.9v3.506h5.35v2.128H159.7v3.359h5.93v2.1h-8.2v-13.2Z" transform="translate(-55.953 -54.779)" fill="#1d4487"/>
  </g>
</svg>
