<svg id="Layer_2" data-name="Layer 2" xmlns="http://www.w3.org/2000/svg" width="92.36" height="60" viewBox="0 0 92.36 60">
  <g id="Layer_1" data-name="Layer 1">
    <path id="Path_9" data-name="Path 9" d="M208.893,135.349a1.038,1.038,0,0,0-1.481,0l-4.42,4.423L188.6,126.647l-.021-.017a.578.578,0,0,0-.8.834l14.513,14.5.741.741.741-.741,5.13-5.133a1.038,1.038,0,0,0,0-1.481" transform="translate(-122.691 -82.704)" fill="#7666a1"/>
    <path id="Path_10" data-name="Path 10" d="M190.984,8.521l-.8-7.615a1.044,1.044,0,1,0-2.077.222l.692,6.6-6.677.91h-.069a.523.523,0,0,0,.069,1.038h9Z" transform="translate(-118.751 0.027)" fill="#7666a1"/>
    <path id="Path_11" data-name="Path 11" d="M199.181,70.688l-3.759-31.082-.066-.533-.471-.256-6.144-3.389a1.054,1.054,0,1,0-1.025,1.841l5.69,3.139,4.735,30.411v.024a.524.524,0,1,0,1.038-.145" transform="translate(-122.389 -23.069)" fill="#43a6c5"/>
    <path id="Path_12" data-name="Path 12" d="M237.008,66.683l-6.884-3.807-1.087-.6-.412,1.166-5.282,15.029a.523.523,0,1,0,.976.377v-.031l5.8-13.554,5.884,3.236a1.039,1.039,0,1,0,1-1.821" transform="translate(-146.015 -40.714)" fill="#923c80"/>
    <path id="Path_13" data-name="Path 13" d="M248.042,41.515l-3.053-3.925L245.4,32.4V32.3a.519.519,0,0,0-1.021-.177L242.9,37.666l-.135.5.318.412,3.288,4.226a1.053,1.053,0,0,0,1.665-1.291" transform="translate(-158.741 -20.738)" fill="#ad3a74"/>
    <path id="Path_14" data-name="Path 14" d="M223.768,14.831h-4.977l-4.635-4.4-.059-.055a.523.523,0,0,0-.772.692l4.237,5.448.315.4h5.884a1.05,1.05,0,0,0,0-2.1" transform="translate(-139.428 -6.695)" fill="#804d98"/>
    <path id="Path_15" data-name="Path 15" d="M215.009,110.108a.526.526,0,0,0-.741-.024h0l-20.29,18.857-4.417-4.417a1.048,1.048,0,0,0-1.481,1.481l5.13,5.133.741.741.744-.741,20.3-20.3a.533.533,0,0,0,0-.73" transform="translate(-122.78 -71.88)" fill="#43a6c5"/>
    <path id="Path_16" data-name="Path 16" d="M6.064,125a4.194,4.194,0,0,1-3.724,1.627,6.448,6.448,0,0,1-.993-.066,3.855,3.855,0,0,1-.727-.177h0a.872.872,0,0,1-.62-.831v-.741a.89.89,0,0,1,1.038-.883,5.085,5.085,0,0,0,.973.087,3.022,3.022,0,0,0,.938-.135,1.211,1.211,0,0,0,.6-.536,3.274,3.274,0,0,0,.377-1.118,10.8,10.8,0,0,0,.135-1.907V109.786a1.533,1.533,0,1,1,3.063,0v5.358a2.527,2.527,0,0,0,.228,1.142,1.942,1.942,0,0,0,.609.713,2.3,2.3,0,0,0,.917.363,6.343,6.343,0,0,0,1.115.093h.941a1.27,1.27,0,0,1,.391.055c.114.035.173.142.173.322v2.1c0,.2-.187.3-.564.3H9.965a2.888,2.888,0,0,1-.793-.121,3.991,3.991,0,0,1-.806-.346,2.852,2.852,0,0,1-.692-.523,2.2,2.2,0,0,1-.457-.713H7.106v1.8a8.569,8.569,0,0,1-1.059,4.666" transform="translate(0 -70.726)" fill="#1d4487"/>
    <path id="Path_17" data-name="Path 17" d="M15.094,89.617v.076a1.447,1.447,0,0,1-2.894,0v-.076a1.447,1.447,0,0,1,2.894,0" transform="translate(-7.977 -57.643)" fill="#1d4487"/>
    <path id="Path_18" data-name="Path 18" d="M29.993,137.455v-2.1c0-.18.059-.287.173-.322a1.27,1.27,0,0,1,.391-.055h4.6c.395,0,.592.1.592.3v2.1q0,.27-.177.322a1.325,1.325,0,0,1-.415.055h-4.6c-.377,0-.564-.1-.564-.3" transform="translate(-19.61 -88.25)" fill="#1d4487"/>
    <path id="Path_19" data-name="Path 19" d="M43.28,137.455v-2.1c0-.18.059-.287.173-.322a1.27,1.27,0,0,1,.391-.055h4.6c.395,0,.592.1.592.3v2.1q0,.27-.177.322a1.325,1.325,0,0,1-.415.055h-4.6c-.377,0-.564-.1-.564-.3" transform="translate(-28.3 -88.25)" fill="#1d4487"/>
    <path id="Path_20" data-name="Path 20" d="M56.57,137.466v-2.1c0-.18.059-.287.173-.322a1.256,1.256,0,0,1,.391-.048h4.6c.395,0,.592.1.592.3v2.1q0,.27-.177.322a1.343,1.343,0,0,1-.415.055h-4.6c-.377,0-.564-.1-.564-.3" transform="translate(-36.99 -88.262)" fill="#1d4487"/>
    <path id="Path_21" data-name="Path 21" d="M76.493,93.238a1.876,1.876,0,0,1-.26-1.146l.038-1.423h1v1.2a1.731,1.731,0,0,0,.114.692.564.564,0,0,0,.346.346.834.834,0,0,0,.62-.059.761.761,0,0,0,.384-.478l.024-.083a1.071,1.071,0,0,0,.024-.183V90.76h.976l-.031,1.191a1.163,1.163,0,0,0,.225.613.748.748,0,0,0,.391.315.692.692,0,0,0,.588-.052.765.765,0,0,0,.322-.45l.024-.083a1.133,1.133,0,0,0,.024-.2V90.7H82.3c0,.391-.021.948-.021,1.163v.512a.938.938,0,0,1-.021.273,1.386,1.386,0,0,1-.031.166,1.3,1.3,0,0,1-.751.872,1.81,1.81,0,0,1-1.25.055,1.354,1.354,0,0,1-.588-.346,1.5,1.5,0,0,1-.37-.692,1.384,1.384,0,0,1-.768.941,1.814,1.814,0,0,1-1.281.059,1.353,1.353,0,0,1-.723-.467" transform="translate(-49.842 -59.277)" fill="#1d4487"/>
    <path id="Path_22" data-name="Path 22" d="M76.522,120.1a4.261,4.261,0,0,1-.98-.592,4.5,4.5,0,0,1-.793-.81,3.415,3.415,0,0,1-.5-.872,4.379,4.379,0,0,1-1.921,1.9,5.441,5.441,0,0,1-2.423.606H68.454c-.374,0-.564-.1-.564-.3v-2.1q0-.27.177-.322a1.236,1.236,0,0,1,.388-.055h1.481a2.136,2.136,0,0,0,.592-.093,1.672,1.672,0,0,0,.606-.346,1.945,1.945,0,0,0,.471-.647,2.423,2.423,0,0,0,.187-1.038v-5.566a1.533,1.533,0,1,1,3.067,0v4.652a2.89,2.89,0,0,0,.27,1.263,3.039,3.039,0,0,0,.692.955,3.219,3.219,0,0,0,.9.606,2.333,2.333,0,0,0,.941.215h.89a1.236,1.236,0,0,1,.388.055q.177.052.177.322v2.1c0,.2-.19.3-.564.3h-.9a2.846,2.846,0,0,1-1.128-.228" transform="translate(-44.391 -70.825)" fill="#1d4487"/>
    <path id="Path_23" data-name="Path 23" d="M108.833,115.306a2.492,2.492,0,0,0,.848-.98,4.783,4.783,0,0,0,.429-1.426,11.6,11.6,0,0,0,.121-1.7,12.616,12.616,0,0,0-.107-1.693,4.732,4.732,0,0,0-.415-1.44,2.475,2.475,0,0,0-.862-1,2.949,2.949,0,0,0-2.824,0,2.367,2.367,0,0,0-.848,1,4.933,4.933,0,0,0-.4,1.44,13.43,13.43,0,0,0,0,3.389,4.5,4.5,0,0,0,.419,1.426,2.648,2.648,0,0,0,3.645.98m-3.215,2.838a4.607,4.607,0,0,1-1.385-.564,4.472,4.472,0,0,1-1.076-.941,7.438,7.438,0,0,1-.872-1.343,3.441,3.441,0,0,1-1.333,1.679,3.6,3.6,0,0,1-1.976.554H98.4c-.377,0-.568-.1-.568-.3v-2.1q0-.27.177-.322a1.256,1.256,0,0,1,.391-.055h.53a2.146,2.146,0,0,0,.969-.228,2.388,2.388,0,0,0,.806-.671,3.558,3.558,0,0,0,.564-1.1,4.943,4.943,0,0,0,.215-1.547A8.208,8.208,0,0,1,103,105.961a6.1,6.1,0,0,1,8.864,0A8.129,8.129,0,0,1,113.4,111.2a3.986,3.986,0,0,0,.768,2.651,2.288,2.288,0,0,0,1.786.9h.862a1.27,1.27,0,0,1,.391.055c.114.035.173.142.173.322v2.1c0,.2-.187.3-.564.3h-.886a3.617,3.617,0,0,1-1.98-.554,3.434,3.434,0,0,1-1.329-1.679,5.134,5.134,0,0,1-5.192,3.039,7.771,7.771,0,0,1-1.817-.19" transform="translate(-63.968 -68.026)" fill="#1d4487"/>
    <path id="Path_24" data-name="Path 24" d="M153.454,89.617v.076a1.447,1.447,0,1,1-2.894,0v-.076a1.447,1.447,0,0,1,2.894,0" transform="translate(-98.447 -57.643)" fill="#1d4487"/>
    <path id="Path_25" data-name="Path 25" d="M156.435,108.33a1.533,1.533,0,0,1,1.533,1.533V120.33h-5.884c-.377,0-.564-.1-.564-.3v-2.1c0-.18.059-.287.173-.322a1.271,1.271,0,0,1,.391-.055h2.824v-7.694a1.533,1.533,0,0,1,1.533-1.533" transform="translate(-99.075 -70.825)" fill="#1d4487"/>
    <path id="Path_26" data-name="Path 26" d="M164.677,89.744v.076a1.45,1.45,0,0,1-2.9,0v-.076a1.45,1.45,0,0,1,2.9,0" transform="translate(-105.784 -57.77)" fill="#1d4487"/>
    <path id="Path_27" data-name="Path 27" d="M65.514,151.092v.08a1.492,1.492,0,1,1-2.984,0v-.08a1.492,1.492,0,1,1,2.984,0" transform="translate(-40.887 -97.81)" fill="#1d4487"/>
    <path id="Path_28" data-name="Path 28" d="M76.767,151.227v.08a1.492,1.492,0,1,1-2.98,0v-.08a1.492,1.492,0,0,1,2.98,0" transform="translate(-48.246 -97.946)" fill="#1d4487"/>
    <path id="Path_29" data-name="Path 29" d="M117.187,153.964a2.056,2.056,0,0,0-.734.44,2.077,2.077,0,0,0-.505.744,3.094,3.094,0,0,0,0,2.118,2.112,2.112,0,0,0,.505.751,2.015,2.015,0,0,0,.734.443,2.69,2.69,0,0,0,.886.145,3.071,3.071,0,0,0,.945-.142,3.462,3.462,0,0,0,.81-.377l.474,1.087a3.856,3.856,0,0,1-1.038.426,4.877,4.877,0,0,1-1.246.159,3.852,3.852,0,0,1-1.471-.27,3.181,3.181,0,0,1-1.125-.744,3.327,3.327,0,0,1-.692-1.125,4.116,4.116,0,0,1,0-2.821,3.34,3.34,0,0,1,.692-1.128,3.181,3.181,0,0,1,1.125-.744,3.922,3.922,0,0,1,1.471-.267,4.728,4.728,0,0,1,1.246.163,3.973,3.973,0,0,1,1.038.429l-.474,1.076a3.739,3.739,0,0,0-.81-.367,3.071,3.071,0,0,0-.945-.142,2.69,2.69,0,0,0-.886.145" transform="translate(-74.855 -99.81)" fill="#1d4487"/>
    <path id="Path_30" data-name="Path 30" d="M138.806,155.251a2.212,2.212,0,0,0-.478-.751,2.077,2.077,0,0,0-.72-.485,2.35,2.35,0,0,0-.907-.17,2.323,2.323,0,0,0-.9.17,2.1,2.1,0,0,0-.72.485,2.212,2.212,0,0,0-.478.751,2.88,2.88,0,0,0,0,1.966,2.194,2.194,0,0,0,.478.755,2.077,2.077,0,0,0,.72.481,2.323,2.323,0,0,0,.9.17,2.35,2.35,0,0,0,.907-.17,2.056,2.056,0,0,0,.72-.481,2.194,2.194,0,0,0,.478-.755,2.824,2.824,0,0,0,0-1.966m1.215,2.4a3.461,3.461,0,0,1-.737,1.128,3.42,3.42,0,0,1-1.128.748,3.973,3.973,0,0,1-2.88,0,3.4,3.4,0,0,1-1.125-.748,3.462,3.462,0,0,1-.737-1.128,3.849,3.849,0,0,1,0-2.8,3.357,3.357,0,0,1,.737-1.128,3.578,3.578,0,0,1,1.125-.751,3.929,3.929,0,0,1,2.88,0,3.6,3.6,0,0,1,1.128.751,3.357,3.357,0,0,1,.737,1.128,3.9,3.9,0,0,1,0,2.8" transform="translate(-87.063 -99.837)" fill="#1d4487"/>
    <path id="Path_31" data-name="Path 31" d="M161.815,152.62v1.135h-3.167v1.893h2.873V156.8h-2.873v1.814h3.184v1.135h-4.4V152.62Z" transform="translate(-102.939 -99.785)" fill="#1d4487"/>
  </g>
</svg>
