<svg xmlns="http://www.w3.org/2000/svg" width="57" height="57" viewBox="0 0 57 57">
  <g id="main-slider-card-icon2" transform="translate(8223.167 -1160.833)">
    <rect id="Rectangle_13506" data-name="Rectangle 13506" width="57" height="57" rx="28.5" transform="translate(-8223.167 1160.833)" fill="rgba(248,182,76,0.1)"/>
    <g id="award" transform="translate(-8216.167 1167.833)">
      <g id="vuesax_outline_award" data-name="vuesax/outline/award">
        <g id="award-2" data-name="award">
          <path id="Vector" d="M14.858,32.379a6.024,6.024,0,0,1-2.923-.717L3.657,26.884C.227,24.574,0,24.154,0,20.532v-8.68c0-3.623.227-4.043,3.587-6.3L11.952.722a6.241,6.241,0,0,1,5.827,0L26.057,5.5c3.43,2.31,3.658,2.73,3.658,6.353v8.68c0,3.622-.227,4.042-3.587,6.3l-8.365,4.83A5.77,5.77,0,0,1,14.858,32.379Zm0-29.75A3.316,3.316,0,0,0,13.247,3L4.97,7.774C2.625,9.367,2.625,9.367,2.625,11.852v8.68c0,2.485,0,2.485,2.432,4.13l8.207,4.725a3.672,3.672,0,0,0,3.2,0l8.278-4.778c2.345-1.592,2.345-1.592,2.345-4.077v-8.68c0-2.485,0-2.485-2.432-4.13L16.45,3A3.2,3.2,0,0,0,14.858,2.629Z" transform="translate(6.142 7.433)" fill="#f8b64c"/>
          <path id="Vector-2" data-name="Vector" d="M20.563,12.477a1.322,1.322,0,0,1-1.312-1.312v-4.6c0-2.765-1.173-3.937-3.937-3.937H6.563C3.8,2.625,2.625,3.8,2.625,6.563v4.48a1.313,1.313,0,1,1-2.625,0V6.563C0,2.327,2.327,0,6.563,0h8.75c4.235,0,6.563,2.327,6.563,6.563v4.6A1.322,1.322,0,0,1,20.563,12.477Z" transform="translate(10.063 2.188)" fill="#f8b64c"/>
          <path id="Vector-3" data-name="Vector" d="M9.9,13.58a3,3,0,0,1-1.138-.227l-1.715-.665-1.715.682a2.656,2.656,0,0,1-2.573-.228,2.685,2.685,0,0,1-1.015-2.38l.1-1.837L.682,7.507A2.666,2.666,0,0,1,.122,4.97a2.641,2.641,0,0,1,1.942-1.7l1.785-.455,1-1.557a2.575,2.575,0,0,1,4.428,0l1,1.557,1.785.455A2.641,2.641,0,0,1,14,4.97a2.688,2.688,0,0,1-.577,2.52L12.249,8.907l.1,1.838a2.7,2.7,0,0,1-1.015,2.38A2.455,2.455,0,0,1,9.9,13.58ZM2.712,5.827,3.884,7.245a2.793,2.793,0,0,1,.6,1.838l-.1,1.837,1.715-.682a2.8,2.8,0,0,1,1.925,0l1.715.682-.1-1.837a2.824,2.824,0,0,1,.6-1.838l1.172-1.418L9.607,5.372a2.887,2.887,0,0,1-1.558-1.12l-.98-1.54-1,1.54A2.83,2.83,0,0,1,4.514,5.39Z" transform="translate(13.948 17.272)" fill="#f8b64c"/>
          <path id="Vector-4" data-name="Vector" d="M0,0H42V42H0Z" fill="none" opacity="0"/>
        </g>
      </g>
    </g>
  </g>
</svg>
