<svg xmlns="http://www.w3.org/2000/svg" width="57" height="57" viewBox="0 0 57 57">
  <g id="main-slider-card-icon4" transform="translate(8223.168 -1063.833)">
    <rect id="Rectangle_13506" data-name="Rectangle 13506" width="57" height="57" rx="28.5" transform="translate(-8223.168 1063.833)" fill="#804d98" opacity="0.1"/>
    <g id="vuesax_linear_note-2" data-name="vuesax/linear/note-2" transform="translate(-8170.167 1085.833)">
      <g id="note-2" transform="translate(-45 -14)">
        <path id="Vector" d="M25.71,13.892,24,21.207c-1.47,6.317-4.375,8.872-9.835,8.347a18.4,18.4,0,0,1-2.835-.472l-2.94-.7C1.088,26.65-1.17,23.045.545,15.73L2.26,8.4a18.33,18.33,0,0,1,1.295-3.85C5.6.312,9.085-.825,14.93.557l2.922.683C25.185,2.955,27.425,6.577,25.71,13.892Z" transform="translate(12.195 4.378)" fill="none" stroke="#804d98" stroke-linecap="round" stroke-linejoin="round" stroke-width="2.5"/>
        <path id="Vector-2" data-name="Vector" d="M22.88,25.007a16.4,16.4,0,0,1-4.113,1.89L16,27.807c-6.948,2.24-10.605.367-12.863-6.58L.9,14.315C-1.34,7.368.515,3.692,7.462,1.452l2.765-.91A17.891,17.891,0,0,1,12.275,0a18.33,18.33,0,0,0-1.3,3.85L9.265,11.182C7.55,18.5,9.807,22.1,17.1,23.835l2.94.7A18.4,18.4,0,0,0,22.88,25.007Z" transform="translate(3.475 8.925)" fill="none" stroke="#804d98" stroke-linecap="round" stroke-linejoin="round" stroke-width="2.5"/>
        <path id="Vector-3" data-name="Vector" d="M0,0,8.487,2.153" transform="translate(22.12 14.927)" fill="none" stroke="#804d98" stroke-linecap="round" stroke-linejoin="round" stroke-width="2.5"/>
        <path id="Vector-4" data-name="Vector" d="M0,0,5.075,1.3" transform="translate(20.405 21.7)" fill="none" stroke="#804d98" stroke-linecap="round" stroke-linejoin="round" stroke-width="2.5"/>
        <path id="Vector-5" data-name="Vector" d="M0,0H42V42H0Z" transform="translate(42 42) rotate(180)" fill="none" opacity="0"/>
      </g>
    </g>
  </g>
</svg>
