<svg xmlns="http://www.w3.org/2000/svg" xmlns:xlink="http://www.w3.org/1999/xlink" width="1919.02" height="891.913" viewBox="0 0 1919.02 891.913">
  <defs>
    <linearGradient id="linear-gradient" x1="0.457" y1="0.929" x2="0.466" y2="0.418" gradientUnits="objectBoundingBox">
      <stop offset="0" stop-color="#804d98" stop-opacity="0.051"/>
      <stop offset="1" stop-color="#40274c" stop-opacity="0"/>
    </linearGradient>
  </defs>
  <path id="main--sec-bg" d="M1919.021,930.82c-41.915,36.635-108.515,85.86-201.035,118.65-184.71,65.46-305.235,3.85-531.87-8.545-73.08-3.995-121.82.445-191.04,8.19-158.359,17.71-248.439,61.31-401.074,68.1-71.2,3.17-151.765,6.755-250.5-21-53.855-15.14-76.99-29.445-127.5-37.5-87.065-13.88-163,5.565-214.845,25.065l-.93.35c-.45-36.62.18,36.445,0,0-.62-125.15.155-249.4.93-373.655,1-160.37,2-320.74,0-483.04,15.65,58.925,59.475,188.845,181.6,274.345,57.27,40.1,114.79,58.55,167.225,69.675C636,632.165,757.146,471.575,1009.6,490.17c292.4,21.54,359.055,253.86,624.775,225.29,128.055-13.765,225.485-79.855,283.355-127.74C1918.161,714.71,1918.591,821.345,1919.021,930.82Z" transform="translate(0 -227.44)" fill="url(#linear-gradient)"/>
</svg>
