<svg xmlns="http://www.w3.org/2000/svg" width="36" height="36" viewBox="0 0 36 36">
  <g id="meck" transform="translate(1.986 1.951)">
    <g id="Group_55054" data-name="Group 55054" transform="translate(0.013)">
      <g id="Group_55050" data-name="Group 55050" transform="translate(0.001 0.049)">
        <g id="Group_55049" data-name="Group 55049" transform="translate(0 0)">
          <path id="Path_122383" data-name="Path 122383" d="M29.952,23.538c-2.8-2.8-2.617-2.623-2.7-2.681l-7.414-5.474,2.876-2.876A6.418,6.418,0,0,0,30.664,3.7a.917.917,0,0,0-1.475-.253L26.818,5.815a.917.917,0,0,1-1.3-1.3l2.371-2.371A.917.917,0,0,0,27.64.673a6.418,6.418,0,0,0-8.81,7.946l-3.317,3.317c-.675-.525.216.372-6.145-6.372l.667-.667a.917.917,0,0,0-.177-1.434L4.95.517A3.264,3.264,0,0,0,.472,5L3.417,9.9a.917.917,0,0,0,1.434.177l.629-.629c6.327,6.709,5.495,5.8,5.995,6.441.012.015.025.029.038.043L8.571,18.877a6.418,6.418,0,0,0-7.946,8.81A.917.917,0,0,0,2.1,27.94l2.371-2.371a.916.916,0,0,1,1.3,1.3L3.4,29.236a.917.917,0,0,0,.253,1.475,6.418,6.418,0,0,0,8.81-7.946l2.512-2.512,5.848,7.107c.044.054-.1-.1,2.513,2.519A4.919,4.919,0,0,0,26.8,31.326a4.385,4.385,0,0,0,2.573-.812A4.586,4.586,0,0,0,29.952,23.538ZM6.166,7.508a.917.917,0,0,0-1.315-.019l-.466.466-2.341-3.9A1.431,1.431,0,0,1,4.007,2.089l3.9,2.341L7.443,4.9a.916.916,0,0,0-.019,1.277c7.308,7.749,6.159,6.583,6.782,7.068l-1.391,1.391C12.335,14.014,13.451,15.233,6.166,7.508ZM10.731,21.9a.916.916,0,0,0-.179,1.043,4.587,4.587,0,0,1-4.785,6.513l1.3-1.3a2.749,2.749,0,0,0-3.888-3.888l-1.3,1.3a4.584,4.584,0,0,1,6.513-4.785.916.916,0,0,0,1.043-.179L20.559,9.482a.917.917,0,0,0,.179-1.043,4.584,4.584,0,0,1,4.785-6.513l-1.3,1.3a2.75,2.75,0,1,0,3.888,3.888l1.3-1.3A4.584,4.584,0,0,1,22.9,10.6a.916.916,0,0,0-1.043.179Zm5.539-2.946,2.262-2.262,2.305,1.7L18.083,21.15C16.21,18.874,16.327,19.012,16.27,18.955ZM28.3,29.027a2.882,2.882,0,0,1-3.669-.443l-2.422-2.422-2.954-3.59L22.328,19.5l3.784,2.794,2.544,2.544A2.75,2.75,0,0,1,28.3,29.027Z" transform="translate(-0.001 -0.049)" fill="#fff"/>
        </g>
      </g>
      <g id="Group_55052" data-name="Group 55052" transform="translate(22.113 22.038)">
        <g id="Group_55051" data-name="Group 55051">
          <path id="Path_122384" data-name="Path 122384" d="M367.023,363.762l-3.666-3.666a.916.916,0,0,0-1.3,1.3l3.666,3.666a.916.916,0,0,0,1.3-1.3Z" transform="translate(-361.792 -359.827)" fill="#fff"/>
        </g>
      </g>
    </g>
    <path id="Vector" d="M0,0H36V36H0Z" transform="translate(-1.986 -1.951)" fill="none" opacity="0"/>
  </g>
</svg>
