<svg id="monitor" xmlns="http://www.w3.org/2000/svg" width="36" height="36" viewBox="0 0 36 36">
  <g id="monitor-2" data-name="monitor">
    <path id="Vector" d="M24.465,25.08H7.785C1.815,25.08,0,23.265,0,17.3V7.785C0,1.815,1.815,0,7.785,0H24.45c5.97,0,7.785,1.815,7.785,7.785v9.5C32.25,23.265,30.435,25.08,24.465,25.08ZM7.785,2.25c-4.71,0-5.535.825-5.535,5.535v9.5c0,4.71.825,5.535,5.535,5.535H24.45c4.71,0,5.535-.825,5.535-5.535v-9.5c0-4.71-.825-5.535-5.535-5.535Z" transform="translate(1.875 1.875)" fill="#fff"/>
    <path id="Vector-2" data-name="Vector" d="M1.125,9.42A1.133,1.133,0,0,1,0,8.3V1.125A1.133,1.133,0,0,1,1.125,0,1.133,1.133,0,0,1,2.25,1.125V8.3A1.133,1.133,0,0,1,1.125,9.42Z" transform="translate(16.875 24.705)" fill="#fff"/>
    <path id="Vector-3" data-name="Vector" d="M31.125,2.25h-30A1.133,1.133,0,0,1,0,1.125,1.133,1.133,0,0,1,1.125,0h30A1.133,1.133,0,0,1,32.25,1.125,1.133,1.133,0,0,1,31.125,2.25Z" transform="translate(1.875 18.375)" fill="#fff"/>
    <path id="Vector-4" data-name="Vector" d="M14.625,2.25H1.125A1.133,1.133,0,0,1,0,1.125,1.133,1.133,0,0,1,1.125,0h13.5A1.133,1.133,0,0,1,15.75,1.125,1.133,1.133,0,0,1,14.625,2.25Z" transform="translate(10.125 31.875)" fill="#fff"/>
    <path id="Vector-5" data-name="Vector" d="M0,0H36V36H0Z" fill="none" opacity="0"/>
  </g>
</svg>
