<svg id="monitor-recorder" xmlns="http://www.w3.org/2000/svg" width="36" height="36" viewBox="0 0 36 36">
  <g id="monitor-recorder-2" data-name="monitor-recorder">
    <path id="Vector" d="M24.465,26.283H7.785c-5.97,0-7.785-1.9-7.785-8.159V8.159C0,1.9,1.815,0,7.785,0h2.34A1.161,1.161,0,0,1,11.25,1.179a1.161,1.161,0,0,1-1.125,1.179H7.785c-4.71,0-5.535.865-5.535,5.8v9.951c0,4.936.825,5.8,5.535,5.8H24.45c4.71,0,5.535-.865,5.535-5.8v-1.4a1.126,1.126,0,1,1,2.25,0v1.4C32.25,24.381,30.435,26.283,24.465,26.283Z" transform="translate(1.875 1.875)" fill="#fff"/>
    <path id="Vector-2" data-name="Vector" d="M1.125,7.694A1.045,1.045,0,0,1,0,6.775V.919A1.045,1.045,0,0,1,1.125,0,1.045,1.045,0,0,1,2.25.919V6.775A1.045,1.045,0,0,1,1.125,7.694Z" transform="translate(16.875 26.431)" fill="#fff"/>
    <path id="Vector-3" data-name="Vector" d="M30,2.25H1.084A1.113,1.113,0,0,1,0,1.125,1.113,1.113,0,0,1,1.084,0H30a1.113,1.113,0,0,1,1.084,1.125A1.113,1.113,0,0,1,30,2.25Z" transform="translate(2.457 19.875)" fill="#fff"/>
    <path id="Vector-4" data-name="Vector" d="M14.625,2.25H1.125A1.133,1.133,0,0,1,0,1.125,1.133,1.133,0,0,1,1.125,0h13.5A1.133,1.133,0,0,1,15.75,1.125,1.133,1.133,0,0,1,14.625,2.25Z" transform="translate(10.125 31.875)" fill="#fff"/>
    <path id="Vector-5" data-name="Vector" d="M0,0H36V36H0Z" fill="none" opacity="0"/>
    <g id="Group_48749" data-name="Group 48749" transform="translate(15.945 0)">
      <path id="Vector-6" data-name="Vector" d="M3.51,7.02A3.51,3.51,0,1,1,7.02,3.51,3.515,3.515,0,0,1,3.51,7.02Zm0-4.77A1.26,1.26,0,1,0,4.77,3.51,1.268,1.268,0,0,0,3.51,2.25Z" transform="translate(5.58 5.101)" fill="#fff"/>
      <path id="Vector-7" data-name="Vector" d="M11.625,17.236A2.441,2.441,0,0,1,9.51,16.021l-.1-.165a.894.894,0,0,0-.33-.375.878.878,0,0,0-.33.375l-.09.15a2.446,2.446,0,0,1-3.36.885l-1.35-.78a2.559,2.559,0,0,1-1.23-1.605,2.642,2.642,0,0,1,.255-1.995c.165-.285.165-.45.15-.48a.871.871,0,0,0-.48-.09A2.641,2.641,0,0,1,0,9.316V7.921A2.628,2.628,0,0,1,2.625,5.3a.925.925,0,0,0,.495-.1.988.988,0,0,0-.165-.465A2.584,2.584,0,0,1,2.7,2.731a2.639,2.639,0,0,1,1.23-1.6L5.3.331a2.437,2.437,0,0,1,3.33.885l.09.165a.894.894,0,0,0,.33.375.878.878,0,0,0,.33-.375l.09-.15a2.449,2.449,0,0,1,3.36-.885l1.395.765a2.559,2.559,0,0,1,1.23,1.6,2.642,2.642,0,0,1-.255,2c-.165.285-.165.45-.15.48a.871.871,0,0,0,.48.09,2.641,2.641,0,0,1,2.64,2.625V9.3a2.628,2.628,0,0,1-2.625,2.625.925.925,0,0,0-.495.105.988.988,0,0,0,.165.465,2.584,2.584,0,0,1,.255,1.995,2.639,2.639,0,0,1-1.23,1.6l-1.365.8A2.559,2.559,0,0,1,11.625,17.236ZM9.09,13.231a2.68,2.68,0,0,1,2.28,1.5l.09.165a.188.188,0,0,0,.255.06l1.38-.795a.365.365,0,0,0,.18-.24.4.4,0,0,0-.03-.285,2.657,2.657,0,0,1-.15-2.715,2.682,2.682,0,0,1,2.43-1.23.4.4,0,0,0,.39-.375V7.921a.381.381,0,0,0-.375-.375,2.665,2.665,0,0,1-2.43-1.23A2.692,2.692,0,0,1,13.26,3.6a.289.289,0,0,0,.03-.285.4.4,0,0,0-.18-.24l-1.365-.8a.214.214,0,0,0-.285.075l-.075.135a2.68,2.68,0,0,1-2.28,1.5,2.68,2.68,0,0,1-2.28-1.5l-.09-.15a.2.2,0,0,0-.255-.075L5.1,3.061a.365.365,0,0,0-.18.24.4.4,0,0,0,.03.285A2.657,2.657,0,0,1,5.1,6.3a2.682,2.682,0,0,1-2.43,1.23.4.4,0,0,0-.39.375V9.3a.381.381,0,0,0,.375.375,2.665,2.665,0,0,1,2.43,1.23,2.692,2.692,0,0,1-.15,2.715.4.4,0,0,0,.15.525l1.365.795a.214.214,0,0,0,.285-.075l.075-.15A2.675,2.675,0,0,1,9.09,13.231Z" fill="#fff"/>
    </g>
  </g>
</svg>
