<svg id="note-2" xmlns="http://www.w3.org/2000/svg" width="36" height="36" viewBox="0 0 36 36">
  <path id="Vector" d="M22.037,11.908l-1.47,6.27c-1.26,5.415-3.75,7.6-8.43,7.155a15.77,15.77,0,0,1-2.43-.4l-2.52-.6C.932,22.843-1,19.753.467,13.483L1.937,7.2a15.712,15.712,0,0,1,1.11-3.3C4.8.268,7.787-.707,12.8.478l2.505.585C21.587,2.533,23.507,5.638,22.037,11.908Z" transform="translate(10.453 3.752)" fill="none" stroke="#fff" stroke-linecap="round" stroke-linejoin="round" stroke-width="2"/>
  <path id="Vector-2" data-name="Vector" d="M19.611,21.435a14.058,14.058,0,0,1-3.525,1.62l-2.37.78c-5.955,1.92-9.09.315-11.025-5.64L.771,12.27C-1.149,6.315.441,3.165,6.4,1.245l2.37-.78A15.335,15.335,0,0,1,10.521,0a15.712,15.712,0,0,0-1.11,3.3L7.941,9.585c-1.47,6.27.465,9.36,6.72,10.845l2.52.6A15.77,15.77,0,0,0,19.611,21.435Z" transform="translate(2.979 7.65)" fill="none" stroke="#fff" stroke-linecap="round" stroke-linejoin="round" stroke-width="2"/>
  <path id="Vector-3" data-name="Vector" d="M0,0,7.275,1.845" transform="translate(18.96 12.795)" fill="none" stroke="#fff" stroke-linecap="round" stroke-linejoin="round" stroke-width="2"/>
  <path id="Vector-4" data-name="Vector" d="M0,0,4.35,1.11" transform="translate(17.49 18.6)" fill="none" stroke="#fff" stroke-linecap="round" stroke-linejoin="round" stroke-width="2"/>
  <path id="Vector-5" data-name="Vector" d="M0,0H36V36H0Z" transform="translate(36 36) rotate(180)" fill="none" opacity="0"/>
</svg>
