<svg xmlns="http://www.w3.org/2000/svg" width="272.3" height="285.28" viewBox="0 0 272.3 285.28">
  <g id="paper_plane" data-name="paper plane" transform="translate(-262.7 -1835)">
    <g id="paper-plane" transform="translate(423 1947)">
      <g id="paper-plane-2" data-name="paper-plane" transform="translate(-112 -112)">
        <g id="paper-plane-3" data-name="paper-plane">
          <rect id="Rectangle_13885" data-name="Rectangle 13885" width="224" height="224" fill="#1d4487" opacity="0"/>
          <path id="Path_121665" data-name="Path 121665" d="M187.565,12.428a12.227,12.227,0,0,0-.56-2.52v-.84a9.333,9.333,0,0,0-1.867-2.8,9.333,9.333,0,0,0-2.707-1.773h-.84a8.027,8.027,0,0,0-2.893-1.4h-.467a9.333,9.333,0,0,0-2.8,0l-168,56a9.333,9.333,0,0,0,0,17.733l79.613,26.507,26.507,79.613a9.333,9.333,0,0,0,17.733,0l56-168A9.333,9.333,0,0,0,187.565,12.428ZM143.7,33.8,91.711,85.788,39.725,68.428ZM122.231,150.934l-17.36-51.987,51.987-51.987Z" transform="translate(8.435 24.906)" fill="#1d4487"/>
        </g>
      </g>
    </g>
    <g id="Artwork_57" data-name="Artwork 57" transform="translate(323.989 2063.641) rotate(-45)">
      <g id="Group_48665" data-name="Group 48665" transform="translate(-58.844 -26.752)">
        <path id="Path_107216" data-name="Path 107216" d="M8.987,14.907c-2.27-1.289-4.2-2.336-6.069-3.467C1.984,10.876.784,10.33.361,9.456a4.081,4.081,0,0,1-.02-3.311c.329-.59,2.04-.937,2.841-.632A58.836,58.836,0,0,1,9.05,8.524c.727.375,1.5.656,2.712,1.179,1.185-2.166,2.357-4.282,3.509-6.411C16.791.487,18.254-.495,19.874.23c1.637.734,1.745,2.387.322,5.422-.979,2.091-1.987,4.168-3.115,6.529,2.091,1.086,3.912,2,5.7,2.975a19.009,19.009,0,0,1,3.142,1.952,2.743,2.743,0,0,1,.6,4.024c-.964,1.339-2.31,1.384-3.684.687-2.692-1.367-5.361-2.783-8.343-4.336-.845,1.436-1.528,2.753-2.355,3.969-1.23,1.814-2.772,2.352-4.169,1.471-1.787-1.128-1.606-2.691-.788-4.338C7.734,17.484,8.27,16.374,8.987,14.907Z" transform="translate(0 0)" fill="rgba(29,68,135,0.32)" stroke="#fff" stroke-width="1"/>
        <path id="Path_107217" data-name="Path 107217" d="M52.85,42.952c.779-.6,1.206-.931,1.627-1.265,1.5-1.187,3.01-1.054,3.754.639a29.451,29.451,0,0,1,1.7,6.158c.081.415-.781,1.465-1.188,1.454-2.756-.063-4.466,1.671-6.338,3.255a2.177,2.177,0,0,1-3.308-.245,4.659,4.659,0,0,1-.4-2.978,7.416,7.416,0,0,1,1.173-2.235c-1.018-.868-1.975-1.626-2.864-2.455-1.224-1.145-1.862-2.577-.728-4.018s2.631-1.241,4.034-.214C51.081,41.614,51.844,42.2,52.85,42.952Z" transform="translate(23.03 20.284)" fill="rgba(29,68,135,0.32)" stroke="#fff" stroke-width="1"/>
        <path id="Path_107218" data-name="Path 107218" d="M44.852,55.834c-2.211.059-4.264.244-6.3.128a2.713,2.713,0,0,1-2.862-2.886c.06-1.9,1.4-2.271,3.1-2.494A70.758,70.758,0,0,0,47.6,48.816c1.661-.436,3.106-.472,3.933,1.106.854,1.63-.036,3.019-1.477,3.777A54.488,54.488,0,0,1,44.852,55.834Z" transform="translate(17.991 24.479)" fill="rgba(29,68,135,0.32)" stroke="#fff" stroke-width="1"/>
        <path id="Path_107219" data-name="Path 107219" d="M35.713,49.721c.236,2.089-.937,3.479-2.753,3.255a20.2,20.2,0,0,1-10.449-4.568,3.378,3.378,0,0,1-.588-3.235,3.386,3.386,0,0,1,3.1-1.045,82.478,82.478,0,0,1,9.1,3.882C34.888,48.377,35.369,49.334,35.713,49.721Z" transform="translate(10.954 22.207)" fill="rgba(29,68,135,0.32)" stroke="#fff" stroke-width="1"/>
        <path id="Path_107220" data-name="Path 107220" d="M109.411,13.373c.233,1.85-.543,3.306-2.068,3.1a75.55,75.55,0,0,1-10.379-2.286c-.57-.159-1.176-1.608-1.071-2.363S96.9,9.892,97.569,9.807a17.68,17.68,0,0,1,11.037,2.4C109.023,12.437,109.214,13.072,109.411,13.373Z" transform="translate(48.338 4.878)" fill="rgba(29,68,135,0.32)" stroke="#fff" stroke-width="1"/>
        <path id="Path_107221" data-name="Path 107221" d="M13.946,26.61Q14.6,30,15.265,33.387c.3,1.57.369,3.117-1.533,3.691-1.808.546-2.826-.609-3.526-2.052a14.528,14.528,0,0,1-1.194-8.8,2.477,2.477,0,0,1,2.862-2.325c1.06.232,1.918,1.4,2.865,2.145Z" transform="translate(4.437 12.024)" fill="rgba(29,68,135,0.32)" stroke="#fff" stroke-width="1"/>
        <path id="Path_107222" data-name="Path 107222" d="M85.663,28.5a8.089,8.089,0,0,1-.614,2.5c-1.6,2.395-3.258,4.762-5.067,7a2.3,2.3,0,0,1-3.354.259,2.345,2.345,0,0,1-.656-3.314,75.441,75.441,0,0,1,5.18-7.436c.52-.641,1.97-.806,2.939-.7C84.667,26.872,85.137,27.895,85.663,28.5Z" transform="translate(38.089 13.499)" fill="rgba(29,68,135,0.32)" stroke="#fff" stroke-width="1"/>
        <path id="Path_107224" data-name="Path 107224" d="M23.267,43.869c.436,2.106-1.53,4.028-3.157,2.921a45.578,45.578,0,0,1-7.244-6.508,2.14,2.14,0,0,1,.66-3.249A2.945,2.945,0,0,1,16.11,36.8c2.34,1.889,4.493,4.016,6.68,6.092A2.9,2.9,0,0,1,23.267,43.869Z" transform="translate(6.235 18.443)" fill="rgba(29,68,135,0.32)" stroke="#fff" stroke-width="1"/>
        <path id="Path_107225" data-name="Path 107225" d="M57.442,36.8A9.745,9.745,0,0,1,57.982,40a3.428,3.428,0,0,1-1.655,2.413c-.782.266-2.58-.254-2.775-.826a85.031,85.031,0,0,1-2.6-9.789c-.1-.46.925-1.64,1.444-1.649.973-.018,2.408.289,2.849.975a38.764,38.764,0,0,1,2.528,5.534Z" transform="translate(25.682 15.201)" fill="rgba(29,68,135,0.32)" stroke="#fff" stroke-width="1"/>
        <path id="Path_107226" data-name="Path 107226" d="M38.243,37.064c-.678-3.181-.105-4.669,1.461-5.031,1.892-.438,2.674.811,3.383,2.271.836,1.725,1.785,3.4,2.727,5.069.853,1.513.934,2.951-.651,3.944a2.692,2.692,0,0,1-3.924-1.035C39.972,40.345,38.923,38.266,38.243,37.064Z" transform="translate(19.138 16.104)" fill="rgba(29,68,135,0.32)" stroke="#fff" stroke-width="1"/>
        <path id="Path_107227" data-name="Path 107227" d="M78.075,38.288a5.334,5.334,0,0,1-.705,1.975,35.054,35.054,0,0,1-4.857,4.925,3.63,3.63,0,0,1-3.261.092,2.234,2.234,0,0,1-.417-3.556,36.79,36.79,0,0,1,5.1-5.254C75.632,35.116,77.756,36.068,78.075,38.288Z" transform="translate(34.357 18.07)" fill="rgba(29,68,135,0.32)" stroke="#fff" stroke-width="1"/>
        <path id="Path_107228" data-name="Path 107228" d="M60.734,43.074a52.149,52.149,0,0,1,6.782-.22,3.151,3.151,0,0,1,2.25,1.844,3.574,3.574,0,0,1-1.015,2.781c-1.312,1.351-7.127,1.512-8.569.212a3.555,3.555,0,0,1-1.059-2.781C59.277,44.077,60.4,43.423,60.734,43.074Z" transform="translate(29.793 21.572)" fill="rgba(29,68,135,0.32)" stroke="#fff" stroke-width="1"/>
        <path id="Path_107229" data-name="Path 107229" d="M44.15,23.473c.487.266,1.826.582,2.34,1.409a3.361,3.361,0,0,1-.372,2.923,16.83,16.83,0,0,1-3.581,3.885,3.385,3.385,0,0,1-2.941.5,3.442,3.442,0,0,1-1.313-2.656C38.261,27.366,41.253,24.153,44.15,23.473Z" transform="translate(19.301 11.833)" fill="rgba(29,68,135,0.32)" stroke="#fff" stroke-width="1"/>
        <path id="Path_107231" data-name="Path 107231" d="M89.11,18.939c-2.67.635-4.1-.632-3.915-2.512.214-2.17,4.594-5.771,6.865-5.644,1.864.1,3.163,2,2.02,3.432A42.319,42.319,0,0,1,89.11,18.939Z" transform="translate(42.942 5.434)" fill="rgba(29,68,135,0.32)" stroke="#fff" stroke-width="1"/>
        <path id="Path_107232" data-name="Path 107232" d="M84.549,18.222A2.289,2.289,0,0,1,87.4,20.757a18.208,18.208,0,0,1-1.516,5.073,2.48,2.48,0,0,1-4.147.289C80.088,24.018,81.968,18.732,84.549,18.222Z" transform="translate(40.895 9.16)" fill="rgba(29,68,135,0.32)" stroke="#fff" stroke-width="1"/>
        <path id="Path_107233" data-name="Path 107233" d="M54.041,27.473A2.437,2.437,0,0,1,51.9,30.415c-1.725.2-4.827-1.912-5.152-3.5a2.462,2.462,0,0,1,2.235-2.883C50.939,23.784,53.693,25.656,54.041,27.473Z" transform="translate(23.542 12.103)" fill="rgba(29,68,135,0.32)" stroke="#fff" stroke-width="1"/>
      </g>
    </g>
  </g>
</svg>
