<svg xmlns="http://www.w3.org/2000/svg" xmlns:xlink="http://www.w3.org/1999/xlink" width="67.28" height="32" viewBox="0 0 67.28 32">
  <defs>
    <clipPath id="clip-path">
      <rect id="Rectangle_13909" data-name="Rectangle 13909" width="24" height="24" transform="translate(0 0)" fill="#ee3e2c"/>
    </clipPath>
  </defs>
  <g id="pdf" transform="translate(2 1)">
    <rect id="bg" width="67.28" height="32" rx="4" transform="translate(-2 -1)" fill="#ee3e2c" opacity="0.15"/>
    <g id="icon" transform="translate(-2577 3)">
      <path id="title" d="M-27.217-2.21a.113.113,0,0,1-.127-.128v-8.415a.113.113,0,0,1,.127-.127h3.251a3.273,3.273,0,0,1,1.154.2,2.69,2.69,0,0,1,.905.548,2.446,2.446,0,0,1,.587.848,2.786,2.786,0,0,1,.21,1.1,2.82,2.82,0,0,1-.21,1.109,2.446,2.446,0,0,1-.587.848,2.69,2.69,0,0,1-.905.548,3.273,3.273,0,0,1-1.154.2h-1.8a.068.068,0,0,0-.076.076v3.073a.113.113,0,0,1-.128.128Zm3.162-4.641A1.474,1.474,0,0,0-23-7.214a1.282,1.282,0,0,0,.382-.975A1.287,1.287,0,0,0-23-9.159a1.459,1.459,0,0,0-1.058-.37h-1.708a.068.068,0,0,0-.076.076v2.524a.068.068,0,0,0,.076.076Zm4.335-3.9a.113.113,0,0,1,.127-.127h3.1A2.714,2.714,0,0,1-13.6-8.955q.051.166.089.351t.07.453q.032.268.045.657t.013.95q0,.561-.013.95t-.045.657q-.032.268-.07.453t-.089.351A2.714,2.714,0,0,1-16.494-2.21h-3.1a.113.113,0,0,1-.127-.128Zm1.5,7.115a.068.068,0,0,0,.076.076h1.288a2.316,2.316,0,0,0,1.167-.255,1.436,1.436,0,0,0,.631-.841,1.093,1.093,0,0,0,.064-.223q.026-.134.045-.344t.032-.529q.013-.319.013-.79t-.013-.791q-.013-.319-.032-.536a3.334,3.334,0,0,0-.045-.344,1.105,1.105,0,0,0-.064-.217,1.436,1.436,0,0,0-.631-.841,2.316,2.316,0,0,0-1.167-.255h-1.288a.068.068,0,0,0-.076.076Zm6.464-7.115a.113.113,0,0,1,.128-.127h5.432a.113.113,0,0,1,.127.127v1.1a.113.113,0,0,1-.127.128H-10.17a.068.068,0,0,0-.076.076v2.206a.068.068,0,0,0,.076.076h3.353a.113.113,0,0,1,.128.128v1.1a.113.113,0,0,1-.128.127H-10.17a.068.068,0,0,0-.076.077v3.4a.113.113,0,0,1-.127.128h-1.25a.113.113,0,0,1-.128-.128Z" transform="translate(2640.344 18.88)" fill="#ee3e2c"/>
      <g id="file_format" data-name="file format" transform="translate(2583)">
        <g id="Group_54998" data-name="Group 54998" transform="translate(0 0)" clip-path="url(#clip-path)">
          <path id="Path_122272" data-name="Path 122272" d="M12.18,1.335C11.925.4,11.3-.063,10.779.006A2.024,2.024,0,0,0,9.2,1.075c-.755,1.726.823,6.809,1.065,7.659C8.73,13.446,3.474,22.763.9,23.393c-.054-.617.269-2.4,3.666-4.617a5.04,5.04,0,0,0,.472-.575c-2.87,1.425-6.59,3.713-4.353,5.425a2.1,2.1,0,0,0,.526.26c1.712.644,4.11-1.466,6.523-6.248a43.176,43.176,0,0,1,7.83-2.028c3.315,2.288,5.539,2.754,7.049,2.165a2.324,2.324,0,0,0,1.267-1.4c-1.227,1.534-4.1.466-6.388-1a17.258,17.258,0,0,1,5.243-.068c1.2.384,1.159.987,1.146,1.069a1.647,1.647,0,0,0-.027-1.288c-1.011-1.672-5.647-.7-7.332-.521a13.542,13.542,0,0,1-5.229-6.631c.687-2.7,1.429-4.658.889-6.6M11.035,6.993C10.59,5.39,9.97,1.828,10.967.678c1.954,1.137.741,3.836.067,6.316m3.653,7.947a32.833,32.833,0,0,0-6.792,2.151,54.33,54.33,0,0,0,2.817-7.672,17.7,17.7,0,0,0,3.976,5.521" transform="translate(0 0)" fill="#ee3e2c"/>
        </g>
      </g>
    </g>
  </g>
</svg>
