<svg id="pen-tool-2" xmlns="http://www.w3.org/2000/svg" width="36" height="36" viewBox="0 0 36 36">
  <g id="pen-tool-2-2" data-name="pen-tool-2">
    <path id="Vector" d="M7.046,7.215H3.266A3.366,3.366,0,0,1,.641,6a2.828,2.828,0,0,1-.57-2.415L.686.87A1.123,1.123,0,0,1,1.781,0h6.75a1.123,1.123,0,0,1,1.1.87l.615,2.715a2.865,2.865,0,0,1-.54,2.46A3.42,3.42,0,0,1,7.046,7.215ZM2.681,2.22l-.42,1.845a.6.6,0,0,0,.135.51,1.1,1.1,0,0,0,.87.375h3.78a1.131,1.131,0,0,0,.9-.345.635.635,0,0,0,.105-.555l-.42-1.845H2.681Z" transform="translate(12.858 27.66)" fill="#fff"/>
    <path id="Vector-2" data-name="Vector" d="M11.648,14.925a1.1,1.1,0,0,1-.84-.375,1.134,1.134,0,0,1,.09-1.59l2.6-2.31c1.035-.915.99-1.14.225-2.1L9.143,2.745a1.152,1.152,0,0,0-.87-.5,1.152,1.152,0,0,0-.87.5L2.828,8.55c-.81,1.035-.8,1.26.195,2.07l2.625,2.34a1.126,1.126,0,1,1-1.5,1.68L1.553,12.33c-1.89-1.545-2.055-3.195-.5-5.175l4.575-5.8A3.385,3.385,0,0,1,8.273,0a3.385,3.385,0,0,1,2.64,1.35l4.575,5.8c1.545,1.95,1.395,3.51-.5,5.175l-2.6,2.31A1.147,1.147,0,0,1,11.648,14.925Z" transform="translate(9.742 14.955)" fill="#fff"/>
    <path id="Vector-3" data-name="Vector" d="M1.125,6.045A1.133,1.133,0,0,1,0,4.92v-3.8A1.133,1.133,0,0,1,1.125,0,1.133,1.133,0,0,1,2.25,1.125v3.8A1.123,1.123,0,0,1,1.125,6.045Z" transform="translate(16.89 15.555)" fill="#fff"/>
    <path id="Vector-4" data-name="Vector" d="M4.125,6.75h-1.5A2.638,2.638,0,0,1,0,4.125v-1.5A2.638,2.638,0,0,1,2.625,0h1.5A2.638,2.638,0,0,1,6.75,2.625v1.5A2.628,2.628,0,0,1,4.125,6.75Zm-1.5-4.5a.371.371,0,0,0-.375.375v1.5a.371.371,0,0,0,.375.375h1.5A.371.371,0,0,0,4.5,4.125v-1.5a.371.371,0,0,0-.375-.375Z" transform="translate(14.655 1.875)" fill="#fff"/>
    <path id="Vector-5" data-name="Vector" d="M4.125,6.75h-1.5A2.638,2.638,0,0,1,0,4.125v-1.5A2.638,2.638,0,0,1,2.625,0h1.5A2.638,2.638,0,0,1,6.75,2.625v1.5A2.638,2.638,0,0,1,4.125,6.75Zm-1.5-4.5a.371.371,0,0,0-.375.375v1.5a.371.371,0,0,0,.375.375h1.5A.371.371,0,0,0,4.5,4.125v-1.5a.371.371,0,0,0-.375-.375Z" transform="translate(2.28 15.63)" fill="#fff"/>
    <path id="Vector-6" data-name="Vector" d="M4.125,6.75h-1.5A2.638,2.638,0,0,1,0,4.125v-1.5A2.638,2.638,0,0,1,2.625,0h1.5A2.638,2.638,0,0,1,6.75,2.625v1.5A2.628,2.628,0,0,1,4.125,6.75Zm-1.5-4.5a.371.371,0,0,0-.375.375v1.5a.371.371,0,0,0,.375.375h1.5A.371.371,0,0,0,4.5,4.125v-1.5a.371.371,0,0,0-.375-.375Z" transform="translate(26.97 15.63)" fill="#fff"/>
    <path id="Vector-7" data-name="Vector" d="M1.125,13.671A1.133,1.133,0,0,1,0,12.546,12.633,12.633,0,0,1,11.16.006,1.138,1.138,0,0,1,12.405,1a1.127,1.127,0,0,1-.99,1.245,10.379,10.379,0,0,0-9.165,10.3A1.133,1.133,0,0,1,1.125,13.671Z" transform="translate(4.5 4.21)" fill="#fff"/>
    <path id="Vector-8" data-name="Vector" d="M11.213,13.646a1.133,1.133,0,0,1-1.125-1.125A10.37,10.37,0,0,0,.983,2.231,1.116,1.116,0,0,1,.008.986,1.111,1.111,0,0,1,1.268.011,12.623,12.623,0,0,1,12.353,12.536,1.143,1.143,0,0,1,11.213,13.646Z" transform="translate(19.162 4.234)" fill="#fff"/>
    <path id="Vector-9" data-name="Vector" d="M0,0H36V36H0Z" fill="none" opacity="0"/>
  </g>
</svg>
