<svg xmlns="http://www.w3.org/2000/svg" width="67.013" height="32" viewBox="0 0 67.013 32">
  <g id="ppt" transform="translate(2 1)">
    <rect id="bg" width="67.013" height="32" rx="4" transform="translate(-2 -1)" fill="#d35230" opacity="0.2"/>
    <g id="icon" transform="translate(-2577 3)">
      <path id="title" d="M-26.609-2.215a.113.113,0,0,1-.127-.127v-8.41a.113.113,0,0,1,.127-.127h3.249a3.271,3.271,0,0,1,1.153.2,2.688,2.688,0,0,1,.9.548,2.444,2.444,0,0,1,.586.847,2.785,2.785,0,0,1,.21,1.1,2.819,2.819,0,0,1-.21,1.109,2.444,2.444,0,0,1-.586.847,2.688,2.688,0,0,1-.9.548,3.271,3.271,0,0,1-1.153.2h-1.8a.068.068,0,0,0-.076.076v3.071a.113.113,0,0,1-.127.127Zm3.16-4.638a1.474,1.474,0,0,0,1.058-.363,1.281,1.281,0,0,0,.382-.975,1.286,1.286,0,0,0-.382-.968,1.458,1.458,0,0,0-1.058-.37h-1.708a.068.068,0,0,0-.076.076V-6.93a.068.068,0,0,0,.076.076Zm4.46,4.638a.113.113,0,0,1-.127-.127v-8.41a.113.113,0,0,1,.127-.127h3.249a3.271,3.271,0,0,1,1.153.2,2.688,2.688,0,0,1,.9.548,2.444,2.444,0,0,1,.586.847,2.785,2.785,0,0,1,.21,1.1,2.819,2.819,0,0,1-.21,1.109,2.444,2.444,0,0,1-.586.847,2.688,2.688,0,0,1-.9.548,3.271,3.271,0,0,1-1.153.2h-1.8a.068.068,0,0,0-.076.076v3.071a.113.113,0,0,1-.127.127Zm3.16-4.638a1.474,1.474,0,0,0,1.058-.363,1.281,1.281,0,0,0,.382-.975,1.286,1.286,0,0,0-.382-.968,1.458,1.458,0,0,0-1.058-.37h-1.708a.068.068,0,0,0-.076.076V-6.93a.068.068,0,0,0,.076.076Zm6.257,4.638A.113.113,0,0,1-9.7-2.342V-9.453a.068.068,0,0,0-.076-.076h-2.268a.113.113,0,0,1-.127-.127v-1.1a.113.113,0,0,1,.127-.127H-5.85a.113.113,0,0,1,.127.127v1.1a.113.113,0,0,1-.127.127H-8.119a.068.068,0,0,0-.076.076v7.111a.113.113,0,0,1-.127.127Z" transform="translate(2639.736 18.88)" fill="#c43e1c"/>
      <g id="file_format" data-name="file format" transform="translate(2583)">
        <path id="Path_122261" data-name="Path 122261" d="M14.5,2A10.531,10.531,0,0,0,4,12.5l13.3,2.8Z" transform="translate(-1 -0.5)" fill="#ed6c47"/>
        <path id="Path_122262" data-name="Path 122262" d="M18,2A10.531,10.531,0,0,1,28.5,12.5l-5.25,3.568L18,12.5Z" transform="translate(-4.5 -0.5)" fill="#ff8f6b"/>
        <path id="Path_122263" data-name="Path 122263" d="M14.5,26.5A10.531,10.531,0,0,0,25,16H4A10.531,10.531,0,0,0,14.5,26.5Z" transform="translate(-1 -4)" fill="#d35230"/>
        <path id="Path_122264" data-name="Path 122264" d="M13.5,7H6.48a10.435,10.435,0,0,0,.7,14.25H13.5a1,1,0,0,0,1-1V8a1,1,0,0,0-1-1Z" transform="translate(-1 -1.75)" opacity="0.1"/>
        <path id="Path_122265" data-name="Path 122265" d="M12.749,8H5.9A10.429,10.429,0,0,0,8.039,22.25H12.75a1,1,0,0,0,1-1V9A1,1,0,0,0,12.749,8Z" transform="translate(-1 -2)" opacity="0.2"/>
        <path id="Path_122266" data-name="Path 122266" d="M12.75,8H5.905A10.418,10.418,0,0,0,6.48,20.75H12.75a1,1,0,0,0,1-1V9A1,1,0,0,0,12.75,8Z" transform="translate(-1 -2)" opacity="0.2"/>
        <path id="Path_122267" data-name="Path 122267" d="M12,8H5.905A10.418,10.418,0,0,0,6.48,20.75H12a1,1,0,0,0,1-1V9a1,1,0,0,0-1-1Z" transform="translate(-1 -2)" opacity="0.2"/>
        <path id="Path_122268" data-name="Path 122268" d="M1,8H11a1,1,0,0,1,1,1V19a1,1,0,0,1-1,1H1a1,1,0,0,1-1-1V9A1,1,0,0,1,1,8Z" transform="translate(0 -2)" fill="#c43e1c"/>
        <path id="Path_122269" data-name="Path 122269" d="M7,11a3.126,3.126,0,0,1,2.066.6,2.159,2.159,0,0,1,.717,1.748,2.045,2.045,0,0,1-.355,1.191,2.373,2.373,0,0,1-1.008.889,3.428,3.428,0,0,1-1.515.318H5.471V18.5H4V11ZM5.47,14.51H6.735a1.645,1.645,0,0,0,1.119-.333.83.83,0,0,0,.378-.769q0-1.244-1.45-1.244H5.47Z" transform="translate(-1 -2.748)" fill="#f9f7f7"/>
        <path id="Path_122270" data-name="Path 122270" d="M0,0H24V24H0Z" fill="none"/>
      </g>
    </g>
  </g>
</svg>
