<svg xmlns="http://www.w3.org/2000/svg" width="207.233" height="168.964" viewBox="0 0 207.233 168.964">
  <g id="PROG-LOGO-3" transform="translate(7621 -15172)">
    <g id="Group_55018" data-name="Group 55018" transform="translate(-7496.949 15232.051)">
      <path id="Path_122282" data-name="Path 122282" d="M639.91,382.806a19.259,19.259,0,0,1,6.87.186,8.419,8.419,0,0,1,5.344,3.457,15.3,15.3,0,0,1,1.895,6.241c.258,1.326.147,2.682.31,4.02a37.291,37.291,0,0,1-.113,4.052,22.438,22.438,0,0,1-.84,5.392,8.458,8.458,0,0,1-2.739,4.57,10.149,10.149,0,0,1-5.6,2.094,16.847,16.847,0,0,1-8.891-1.277,6.484,6.484,0,0,1-3.187-3.235c-1.657-3.459-1.711-7.384-1.666-11.144a22.319,22.319,0,0,1,1.632-9.781,7.9,7.9,0,0,1,2.5-2.988,11.129,11.129,0,0,1,4.491-1.587m-.181,3.529a5.927,5.927,0,0,0-2.284,1.431,9.1,9.1,0,0,0-1.892,4.4,41.308,41.308,0,0,0-.337,8.328c.287,2.449.464,5.116,2.069,7.121.951,1.29,2.617,1.677,4.115,1.89a9.1,9.1,0,0,0,6.39-1.428c2.126-2.015,2.273-5.152,2.544-7.882.1-3.536.161-7.185-1.012-10.571a5.6,5.6,0,0,0-3.511-3.2A12.4,12.4,0,0,0,639.729,386.335Z" transform="translate(-631.279 -382.579)" fill="#93d502"/>
      <path id="Path_122283" data-name="Path 122283" d="M777.008,383.4a17.294,17.294,0,0,1,4.323-.706,44.645,44.645,0,0,1,7.495.373,15.945,15.945,0,0,1,2.836.5,16.566,16.566,0,0,1-.2,2.678c-3.074-.052-6.148-.1-9.22-.084a9.3,9.3,0,0,0-3.076.29c-1.256.272-1.723,1.711-1.8,2.843-.009,1.433-.231,3.013.613,4.274a4.687,4.687,0,0,0,2.63,1.575c2.227.55,4.452,1.107,6.673,1.689a6.868,6.868,0,0,1,4.362,3,10.146,10.146,0,0,1,1.161,5.528,8.489,8.489,0,0,1-1.542,5.408c-1.646,1.641-4.1,1.942-6.311,2.107a38.385,38.385,0,0,1-5.659-.12,24.053,24.053,0,0,1-5.152-.67c-.383-.792.052-1.822.052-2.7,1.711-.154,3.411.19,5.122.134,2.406-.039,4.862.263,7.228-.315a2.788,2.788,0,0,0,2.021-1.56,9.859,9.859,0,0,0,.365-4.059,3.588,3.588,0,0,0-2.723-3.278c-2.225-.566-4.455-1.116-6.678-1.684a7.42,7.42,0,0,1-4.792-2.99,9.042,9.042,0,0,1-1.193-4.538,15.054,15.054,0,0,1,.4-4.446A4.711,4.711,0,0,1,777.008,383.4Z" transform="translate(-741.332 -382.626)" fill="#93d502"/>
      <path id="Path_122284" data-name="Path 122284" d="M919.967,385.287c1.225-.018,2.447,0,3.672-.011.152,3.144.02,6.3.066,9.444-.027,6.492.05,12.988-.039,19.48l-.346.251a16.2,16.2,0,0,1-3.3-.032,28.785,28.785,0,0,1-.14-4.308c-.023-3.21.043-6.422-.036-9.629-4.416-.038-8.833,0-13.249-.025a26.58,26.58,0,0,0-.084,3.316c.007,3.558-.011,7.117,0,10.673a18.326,18.326,0,0,1-3.712-.048,21.088,21.088,0,0,1-.12-3.382q0-12.227,0-24.454a2.067,2.067,0,0,1,.278-1.261c1.172-.059,2.35-.009,3.524,0q.068,5.911,0,11.823a10.33,10.33,0,0,0,1.693.158c2.338-.016,4.679-.007,7.017-.009a31.737,31.737,0,0,0,4.686-.163q0-5.273,0-10.546A10.03,10.03,0,0,1,919.967,385.287Z" transform="translate(-841.239 -384.664)" fill="#93d502"/>
    </g>
    <g id="Group_55017" data-name="Group 55017" transform="translate(-7615.221 15274.76)">
      <path id="Path_122286" data-name="Path 122286" d="M732.17,571.64c.889-.124,1.775-.312,2.671-.38a5.422,5.422,0,0,1,.643,1.732c1.136,3.936,2.316,7.859,3.447,11.8.3,1.068.69,2.116.9,3.212a13.712,13.712,0,0,1-2.863-.093C735.307,582.5,733.743,577.068,732.17,571.64Z" transform="translate(-591.061 -571.26)" fill="#004c2a"/>
      <path id="Path_122287" data-name="Path 122287" d="M747.157,571.83c.958-.041,1.915-.036,2.875-.023q.024,9.677,0,19.354c1.578.016,3.156.013,4.733.013a3.012,3.012,0,0,0,2.476-1,6.7,6.7,0,0,0,.722-3.391c.018-1.974,0-3.945.011-5.919.935-.011,1.872-.029,2.809.009-.036,1.668-.007,3.334-.016,5a13.131,13.131,0,0,0,.378,4.217c.622,1.666,3.108,1.637,4.224.512,1.073-1.222,1.055-2.961,1.075-4.493,0-2.173-.016-4.348.011-6.521.935.014,1.872,0,2.811.014.038,2.619.011,5.24.016,7.861-.027,1.116.054,2.49,1.116,3.14a9.3,9.3,0,0,0,4.29.552,35.352,35.352,0,0,0-.333-10.657,14.551,14.551,0,0,1-.351-2.067c.912-.134,1.825-.283,2.737-.432.392,1.7.679,3.432.9,5.168a63.782,63.782,0,0,1-.014,8c2.513-.007,5.025.011,7.538-.007q.014-9.67,0-19.34,1.436-.044,2.882-.016.024,10.808,0,21.62c-4.609.023-9.215.007-13.824.009a12.234,12.234,0,0,1-5.084-.681,3.89,3.89,0,0,1-1.621-1.65,4.369,4.369,0,0,1-3.468,2.395,5.469,5.469,0,0,1-3.7-.559,4.633,4.633,0,0,1-1.485-1.718,4.111,4.111,0,0,1-3.878,2.193c-5.756-.007-11.51.011-17.267.025,0-.758-.007-1.514.02-2.27,3.137,0,6.272,0,9.41,0C747.173,584.723,747.16,578.276,747.157,571.83Z" transform="translate(-595.353 -571.676)" fill="#004c2a"/>
      <path id="Path_122288" data-name="Path 122288" d="M986.146,571.791c.942-.009,1.886-.018,2.829.014.009,7.2-.018,14.4.014,21.606-.953.036-1.906.029-2.857.014C986.141,586.212,986.114,579,986.146,571.791Z" transform="translate(-787.535 -571.664)" fill="#004c2a"/>
      <path id="Path_122289" data-name="Path 122289" d="M578.736,577.771a1.636,1.636,0,0,1,2.284,2.048,1.626,1.626,0,1,1-2.284-2.048Z" transform="translate(-471.737 -576.125)" fill="#004c2a"/>
      <path id="Path_122290" data-name="Path 122290" d="M598.439,577.692a1.574,1.574,0,0,1,2.073,1.736,1.6,1.6,0,1,1-2.073-1.736Z" transform="translate(-486.732 -576.153)" fill="#004c2a"/>
      <path id="Path_122291" data-name="Path 122291" d="M565.589,603.082a10.355,10.355,0,0,1,5.885-.8,26.245,26.245,0,0,1,4.208.883c.143,3.841-.063,7.692.109,11.533,2.768.011,5.546-.106,8.31.072a5.424,5.424,0,0,1-2.155-4.692,7.538,7.538,0,0,1,2.418-6.114,8.226,8.226,0,0,1,6.508-1.7,5.546,5.546,0,0,1,4.242,2.49c1.019,1.571,1.019,3.509,1.03,5.313-.014,2.293.023,4.586-.027,6.879-8.821.027-17.642-.032-26.466,0-2.318,0-4.937-.555-6.424-2.494a8.008,8.008,0,0,1-1.256-5.534,6.926,6.926,0,0,1,3.62-5.838m-.125,3.5a6.746,6.746,0,0,0-.4,5.075,3.883,3.883,0,0,0,2.791,2.7,18.631,18.631,0,0,0,5.118.306c0-3.183.009-6.365-.007-9.546a9.8,9.8,0,0,0-3.554-.65,4.216,4.216,0,0,0-3.952,2.114m22.326-1.9a4.637,4.637,0,0,0-2.936,4.7c-.113,1.7.405,3.658,2,4.541,1.99,1.05,4.326.722,6.492.738-.014-1.838.007-3.674-.009-5.51a5.447,5.447,0,0,0-1.206-3.681A4.431,4.431,0,0,0,587.79,604.685Z" transform="translate(-459.362 -595.189)" fill="#004c2a"/>
      <path id="Path_122292" data-name="Path 122292" d="M195.553,734.137c.955-.009,1.91-.011,2.868.009q.01,10.8,0,21.592-7.219-.007-14.439,0a15.14,15.14,0,0,1-5.768-.708,5.5,5.5,0,0,1-2.424-2.071,3.849,3.849,0,0,1-1.766,2.187c-1.462.767-3.164.6-4.756.632q-26.379-.078-52.757-.039c-2.021-.061-4.226-.4-5.783-1.8-1.72-1.555-2.087-4.061-1.9-6.263a7.029,7.029,0,0,1,3.106-5.487,9.78,9.78,0,0,1,6.816-1.039,18.708,18.708,0,0,1,3.832.867c.02,3.8,0,7.6.011,11.4q3.925.027,7.848,0c.016-4.034.007-8.068,0-12.1.935-.041,1.87-.02,2.807-.023.091,4.045.011,8.09.043,12.135,2.626,0,5.254,0,7.88,0,0-4.043,0-8.088,0-12.13q1.392-.014,2.784,0c.032,4.038.009,8.076.011,12.115,2.75.061,5.5-.054,8.251.075a4.819,4.819,0,0,1,1.505-7.062,6.762,6.762,0,0,1,5.874-.154,5.031,5.031,0,0,1,2.422,3.2,16.2,16.2,0,0,1,.355,3.952c1.254.007,2.51,0,3.764,0a17.421,17.421,0,0,0-1.066-6.761,6.616,6.616,0,0,0-4.348-3.841c-3.348-.987-6.89-.312-10.182.568a5.382,5.382,0,0,1-.258-2.191,23.726,23.726,0,0,1,6.979-1.1c2.995-.025,6.261.555,8.436,2.786,2.755,2.746,3.187,6.911,3.189,10.6,1.422-.138,3.121.274,4.292-.756,1.308-1.324,1.125-3.346,1.277-5.052a6.964,6.964,0,0,1,3.982-5.96,9.016,9.016,0,0,1,5.747-.5,5.194,5.194,0,0,1,3.649,2.834,8.352,8.352,0,0,1,.77,3.635c-.007,1.9.011,3.81-.014,5.713,2.3.052,4.6.007,6.908.027.1-6.429-.007-12.859.052-19.288M112.532,745.05a6.658,6.658,0,0,0-.715,5.052,3.94,3.94,0,0,0,2.551,2.931c1.77.6,3.674.333,5.507.376-.023-3.162.025-6.324-.027-9.487a9.608,9.608,0,0,0-4.681-.582,3.936,3.936,0,0,0-2.635,1.709m67.217-1.363c-1.811.86-2.54,3.01-2.456,4.9.029,1.639.656,3.486,2.243,4.226,1.965.915,4.2.527,6.3.6.011-1.915.027-3.83-.014-5.745-.075-1.44-.453-3.1-1.784-3.893a4.931,4.931,0,0,0-4.285-.091m-24.863,4.554a2.92,2.92,0,0,0,.251,4.763c1.465.767,3.178.437,4.765.5a8.6,8.6,0,0,0-.754-4.534A3.2,3.2,0,0,0,154.886,748.242Z" transform="translate(-108.782 -697.263)" fill="#004c2a"/>
      <path id="Path_122293" data-name="Path 122293" d="M530.755,734.159c.971-.029,1.942-.018,2.916-.02q-.017,10.8,0,21.606c-.969-.009-1.935,0-2.9,0C530.726,748.547,530.746,741.353,530.755,734.159Z" transform="translate(-435.228 -697.27)" fill="#004c2a"/>
      <path id="Path_122294" data-name="Path 122294" d="M655.712,734.14c.957,0,1.915,0,2.875.011.038,7.2.05,14.4,0,21.6-18.786-.02-37.569.007-56.352-.013-2-.1-4.19-.453-5.673-1.917a6.831,6.831,0,0,1-1.845-4.767,7.834,7.834,0,0,1,2.044-5.935,7.409,7.409,0,0,1,5.03-2.126,19.706,19.706,0,0,1,6.784,1.028c.027,3.8,0,7.6.014,11.4q7.4.013,14.806,0a18.679,18.679,0,0,0-.077-5.919,4.714,4.714,0,0,0-2.759-3.441,13.837,13.837,0,0,0-7.205-.281c-.032-.767-.032-1.537,0-2.3,2.818-.326,5.774-.555,8.5.4a6.436,6.436,0,0,1,3.9,3.776c.939,2.479.7,5.184.523,7.771,2.08-.016,4.161.014,6.243-.014,0-4.041-.02-8.083.009-12.124.939,0,1.876,0,2.818,0a48.466,48.466,0,0,1-.251,6.433,10.552,10.552,0,0,1,3.889-5.4,7.839,7.839,0,0,1,7.234-.819,5.234,5.234,0,0,1,2.714,2.9,10.636,10.636,0,0,1,.552,4.656,8.23,8.23,0,0,1-1.831,4.344c2.685.023,5.374.009,8.061.007q0-9.643,0-19.284M599.9,743.772c-2,1.1-2.513,3.629-2.177,5.718a3.983,3.983,0,0,0,2.576,3.529c1.757.632,3.667.358,5.494.394-.014-3.16.016-6.318-.011-9.478a7.683,7.683,0,0,0-5.881-.163m38.424,1.978a14.522,14.522,0,0,0-2.972,7.678c2.318-.041,4.643.086,6.958-.07a4.514,4.514,0,0,0,3.812-2.551,7.928,7.928,0,0,0,.043-5.351,3.173,3.173,0,0,0-2.51-2.123A5.727,5.727,0,0,0,638.323,745.75Z" transform="translate(-484.709 -697.271)" fill="#004c2a"/>
      <path id="Path_122295" data-name="Path 122295" d="M902.882,734.15c.948-.025,1.9-.02,2.85,0-.007,7.2.007,14.4-.007,21.6-.944-.014-1.888-.011-2.832,0-.179-5.7-.052-11.409-.088-17.113C902.83,737.136,902.735,735.637,902.882,734.15Z" transform="translate(-723.063 -697.265)" fill="#004c2a"/>
      <path id="Path_122296" data-name="Path 122296" d="M125.662,740.144a1.692,1.692,0,0,1,2.2.69c.858,1.254-.894,3.029-2.159,2.191A1.653,1.653,0,0,1,125.662,740.144Z" transform="translate(-121.205 -701.808)" fill="#004c2a"/>
      <path id="Path_122297" data-name="Path 122297" d="M145.207,740.133a1.742,1.742,0,0,1,1.877.4,1.622,1.622,0,0,1-.367,2.449,1.613,1.613,0,1,1-1.51-2.845Z" transform="translate(-136.234 -701.833)" fill="#004c2a"/>
      <path id="Path_122298" data-name="Path 122298" d="M251.564,739.94a1.727,1.727,0,0,1,2.522,1.65,1.693,1.693,0,1,1-2.522-1.65Z" transform="translate(-218.583 -701.602)" fill="#004c2a"/>
      <path id="Path_122299" data-name="Path 122299" d="M611.8,740.162a1.82,1.82,0,0,1,1.938.274,1.839,1.839,0,0,1,.3,1.922,1.6,1.6,0,0,1-2.039.736A1.659,1.659,0,0,1,611.8,740.162Z" transform="translate(-497.327 -701.812)" fill="#004c2a"/>
      <path id="Path_122300" data-name="Path 122300" d="M631.414,740.12a1.607,1.607,0,0,1,2.164.788c.67,1.229-.9,2.861-2.137,2.128A1.627,1.627,0,0,1,631.414,740.12Z" transform="translate(-512.422 -701.793)" fill="#004c2a"/>
      <path id="Path_122301" data-name="Path 122301" d="M943.629,764.47a17.688,17.688,0,0,1,7.667.946c.014,4.756,0,9.511.011,14.27a6.752,6.752,0,0,1-2.1,5.061,9.6,9.6,0,0,1-5.971,2.094,30.875,30.875,0,0,1-5.609-.432c.079-.81.154-1.621.24-2.429a19.735,19.735,0,0,0,6.494.482,4.853,4.853,0,0,0,3.486-1.985,6.033,6.033,0,0,0,.675-3.346c-2.146-.059-4.335.174-6.429-.421a5.713,5.713,0,0,1-4.1-3.506,8.909,8.909,0,0,1,.8-7.882,6.9,6.9,0,0,1,4.835-2.852M942,767.589c-1.532,1.22-1.818,3.375-1.594,5.2a4.076,4.076,0,0,0,1.9,3.266c1.879,1.087,4.133.666,6.2.749,0-3.119.032-6.239-.011-9.355a3.306,3.306,0,0,0-1.541-.609C945.3,766.557,943.357,766.4,942,767.589Z" transform="translate(-749.86 -720.652)" fill="#004c2a"/>
      <path id="Path_122302" data-name="Path 122302" d="M194.754,841.819a1.682,1.682,0,0,1,2.44,1.677,1.642,1.642,0,1,1-2.44-1.677Z" transform="translate(-174.674 -780.41)" fill="#004c2a"/>
      <path id="Path_122303" data-name="Path 122303" d="M214.272,841.794a1.628,1.628,0,1,1-.491,2.571A1.623,1.623,0,0,1,214.272,841.794Z" transform="translate(-189.685 -780.415)" fill="#004c2a"/>
    </g>
    <g id="Group_55020" data-name="Group 55020" transform="translate(-7621 15172)">
      <path id="Path_122310" data-name="Path 122310" d="M40.083,9.763q-9.149.034-18.3.012C14.561,9.769,7.337,9.763.112,9.8l-.068-.22C-.015,6.392-.019,3.194.058,0A3.876,3.876,0,0,1,.332,1.561,3.876,3.876,0,0,0,.058,0Q12.247.013,24.437.006,37.263,0,50.088.014q0,12.719,0,25.436c-3.318.928-6.632,1.868-9.962,2.752C40.1,22.056,40.178,15.906,40.083,9.763ZM.284,7.026c0-.9-.033-1.795-.033-2.691C.252,5.232.284,6.13.284,7.026ZM.262,3.554q0-.1,0-.195Q.259,3.457.262,3.554Z" transform="translate(50.68 0)" fill="#076f43"/>
      <path id="Path_122309" data-name="Path 122309" d="M27.739,54.032a83.517,83.517,0,0,1-15.53-7.556,62.377,62.377,0,0,1-12.024-9.5.443.443,0,0,1-.176-.45A32.03,32.03,0,0,1,4.739,34.9,82.048,82.048,0,0,0,14.4,31.2a25.941,25.941,0,0,0,5.329-3.063c.756-.625,1.679-1.5,1.238-2.58.195-.156.392-.313.589-.466-.2.154-.394.31-.589.466a15.718,15.718,0,0,1-2.623-3.307,28.1,28.1,0,0,1-3.352-9.168c-.066-.634-.772-.856-1.159-1.274A9.44,9.44,0,0,1,10.747,5.6,2.478,2.478,0,0,1,12.5,3.364c-.19-1.123-.48-2.227-.577-3.364,5.263.437,10.542.573,15.82.681C31.732.822,35.721.6,39.709.5,42.19.444,44.664.251,47.136.034c-.093,1.136-.242,2.266-.34,3.4a1.693,1.693,0,0,1,2,1.487,9.544,9.544,0,0,1-2.085,5.387,15.691,15.691,0,0,1-2.488,2.322c-.851,3.762-2.044,7.576-4.4,10.689-.72.416-1.474.765-2.223,1.123q-.044.648-.088,1.3.044-.652.088-1.3c.749-.358,1.5-.706,2.223-1.123-.435.872-1.3,1.492-1.589,2.424.093,1.487,1.505,2.4,2.612,3.18a63.516,63.516,0,0,0,13.923,5.985A27.32,27.32,0,0,1,59.9,36.749a6.088,6.088,0,0,1-1.173,1.419,55.334,55.334,0,0,1-9.48,7.5A86.846,86.846,0,0,1,35.01,52.932a36.028,36.028,0,0,1-4.557,1.512,2.354,2.354,0,0,1-.615.079A7.5,7.5,0,0,1,27.739,54.032Zm9.741-28.3-.034-.013Zm-16-.038.054-.031-.054.031Zm.069-.039a5.492,5.492,0,0,1,2.741-.56A5.492,5.492,0,0,0,21.55,25.654Zm7.663-.53h0Zm.009,0q2.223,0,4.445-.01Q31.446,25.126,29.222,25.124Zm-2.853,0h0Zm-1.262-.014c.271.007.541.013.807.013-.267,0-.536-.007-.807-.013l-.074,0Zm9.659,0h0Zm.108,0h0Zm-10.568-.012h0Z" transform="translate(20.647 48.214)" fill="#076f43"/>
      <g id="Group_55019" data-name="Group 55019" transform="translate(0.016 0)">
        <path id="Path_122280" data-name="Path 122280" d="M83.327,117.387c1.4-.145,2.816-.052,4.224-.072,15.5-.018,31,.029,46.494-.025-.077,3.194-.072,6.392-.014,9.584l.011.2c-13.566.016-27.134-.027-40.7.02-.072,13.62.014,27.24-.043,40.858-1.639.22-3.176.867-4.785,1.211a39.115,39.115,0,0,1-5.184,1.256Q83.307,143.9,83.327,117.387Z" transform="translate(-83.323 -117.29)" fill="#93d502"/>
        <path id="Path_122281" data-name="Path 122281" d="M236.038,213.272c1.184.007,2.372-.057,3.556.025.319-.011.473.344.439.62.063,2.651-.072,5.308.075,7.957a5.855,5.855,0,0,0,1.277-2.277,29.9,29.9,0,0,1,1.68-3.3,13.893,13.893,0,0,1,6.508,3.291c2.9,2.343,4.328,5.978,5.231,9.5a8.488,8.488,0,0,0,.688,2.463,8.041,8.041,0,0,1,1.677.6,2.336,2.336,0,0,1,.67,1.637,10.374,10.374,0,0,1-.158,3.051c-1.944.3-3.918.254-5.872.487-2.827.337-5.684.1-8.513.38q-4.187.027-8.375,0c-2.71-.249-5.437-.072-8.149-.258-1.834-.233-3.69-.088-5.521-.346-.976-.131-2.116.086-2.963-.484a20.017,20.017,0,0,1,.025-3.59c.269-.976,1.342-1.247,2.209-1.433.645-2.906,1.116-5.915,2.485-8.593a13.709,13.709,0,0,1,7.644-6.141,8.047,8.047,0,0,1,2.223-.6,11.813,11.813,0,0,1,1.322,2.687c.487,1.037.967,2.076,1.5,3.09C236.146,219.134,235.605,216.167,236.038,213.272Z" transform="translate(-187.684 -191.532)" fill="#93d502"/>
      </g>
      <path id="Path_122304" data-name="Path 122304" d="M484.37,252.928c3.327-.853,6.614-1.865,9.951-2.7.036,9.869.011,19.741.011,29.61.154.643-.627.652-1.046.806-2.979.747-5.906,1.7-8.9,2.374C484.359,272.99,484.39,262.958,484.37,252.928Z" transform="translate(-393.573 -220.138)" fill="#65431d"/>
      <path id="Path_122305" data-name="Path 122305" d="M83.25,363.763c3.323-.944,6.641-1.908,9.989-2.753.02,5.657.007,11.316.007,16.975a20.416,20.416,0,0,0,3.282,12.226c-3.672,1.078-7.375,2.053-11.064,3.076a28.659,28.659,0,0,1-2.214-10.315Q83.267,373.366,83.25,363.763Z" transform="translate(-83.25 -305.842)" fill="#806846"/>
      <path id="Path_122306" data-name="Path 122306" d="M346.136,406.374c3.314-.867,6.6-1.849,9.919-2.694.066,3.871.014,7.744.029,11.617a29.216,29.216,0,0,1-4.183,14.928,43.011,43.011,0,0,1-8.031,9.842,79.744,79.744,0,0,1-18.742,12.712A103.722,103.722,0,0,1,310.2,458.9a24.131,24.131,0,0,1-4.38,1.023,12.342,12.342,0,0,1-.149-1.6c.009-3.531-.007-7.062.027-10.591a65.794,65.794,0,0,0,14.021-5.082,71.29,71.29,0,0,0,12.176-7.286,37.622,37.622,0,0,0,12.026-13.81,24.56,24.56,0,0,0,2.182-8.511C346.168,410.815,346.116,408.594,346.136,406.374Z" transform="translate(-255.323 -338.853)" fill="#bd7634"/>
      <path id="Path_122308" data-name="Path 122308" d="M112.653,507a5.425,5.425,0,0,1,1.729-.306c.487.5.822,1.12,1.283,1.641a55.045,55.045,0,0,0,8.81,7.511,46.756,46.756,0,0,0,5.31,3.336,22.351,22.351,0,0,0,2.958,1.791c2.408,1.016,4.586,2.526,7.067,3.375,2,.905,4.111,1.519,6.134,2.368a15.4,15.4,0,0,0,2.488.693c-.034,3.529-.018,7.06-.027,10.591a12.33,12.33,0,0,0,.149,1.6l.018.122a24.694,24.694,0,0,1-4.122-.824c-.976-.206-1.836-.745-2.8-.994-1.754-.473-3.373-1.322-5.093-1.888a114.19,114.19,0,0,1-10.673-5.143,78.894,78.894,0,0,1-9.188-5.725,64.822,64.822,0,0,1-6.1-4.962,46.11,46.11,0,0,1-7.515-8.765c-.274-.437-.747-.824-.681-1.388a5.254,5.254,0,0,1,1.566-.613C106.881,508.687,109.728,507.709,112.653,507Z" transform="translate(-98.06 -418.542)" fill="#ffcb05"/>
    </g>
  </g>
</svg>
