<svg xmlns="http://www.w3.org/2000/svg" xmlns:xlink="http://www.w3.org/1999/xlink" width="230.741" height="191.107" viewBox="0 0 230.741 191.107">
  <defs>
    <linearGradient id="linear-gradient" x1="0.5" x2="0.5" y2="1" gradientUnits="objectBoundingBox">
      <stop offset="0" stop-color="#0f694e"/>
      <stop offset="0.523" stop-color="#01a87a"/>
      <stop offset="1" stop-color="#146c4e"/>
    </linearGradient>
  </defs>
  <g id="PROG-LOGO-6" transform="translate(7.638 -59.683)">
    <g id="Group_55022" data-name="Group 55022" transform="translate(34.067 59.683)">
      <path id="Path_122356" data-name="Path 122356" d="M5911.352-2216.533c-1.594-1.25-.26-3.027.328-4.445a56.163,56.163,0,0,0,2.73-6.993,64.015,64.015,0,0,0,.823-15.922c-12.155-3.852-25.264-1.427-36.849,3.163-7.274,2.548-13.978,6.384-20.9,9.7,7.382-8.129,15.61-16.044,25.676-20.673,13-7.52,28.628-9,43.306-7.3,11.98,1.311,23.792,3.965,35.842,4.552a48.411,48.411,0,0,0,30.785-8.061,71.667,71.667,0,0,0,11.569-10.036,52.243,52.243,0,0,1-13.726,23.016,39.063,39.063,0,0,1-15.946,8.616c-6.634,1.831-13.573,1.763-20.383,2.029-2.707,4.622-4.957,9.525-7.648,14.162-4.37,9.386-8.915,20.3-4.851,30.594C5931.057-2200.335,5920.068-2207.207,5911.352-2216.533Zm27.9-3.966-.17-.036Zm-.417-.094c-.481-.121-.953-.277-1.423-.441C5937.884-2220.87,5938.356-2220.714,5938.837-2220.593Zm-19.266-.713h0Zm.072,0c2.171,0,4.335-.145,6.5-.3C5923.979-2221.451,5921.814-2221.309,5919.644-2221.306Zm13.829-.7h0Zm-18.674-1.6,1.716-.709Zm0,0c-.151-1.457-.3-2.905-.388-4.362C5914.494-2226.514,5914.646-2225.066,5914.8-2223.609Zm75.213-26.721.424.368-.424-.368Zm0,0a15.932,15.932,0,0,0,5.713-10.043h0A15.931,15.931,0,0,1,5990.012-2250.33Zm-24.3-2.895q-.978.03-1.953.03Q5964.739-2253.195,5965.716-2253.224Zm1.17,0h0Zm.407,0c1.319-.014,2.631-.1,3.939-.235C5969.925-2253.324,5968.612-2253.242,5967.293-2253.228Zm-1.437,0,.188-.007.245,0-.245,0Zm-67.719-3.095-.122.021.122-.021a81.488,81.488,0,0,1,14.106-1.551A81.464,81.464,0,0,0,5898.137-2256.323Zm15.458-1.533q.644.048,1.287.088-.643-.04-1.287-.088l-.226-.006Zm-1.267-.018h0Zm43.315-2.254c1.724-5.034.832-10.425.916-15.625-1.281.419-2.547.869-3.82,1.312.334,3.248.808,6.993-1.442,9.7-4.652,6.451-15.77,5.979-19.987-.71-1.708-2.646-1.387-5.909-1.167-8.9-4.2-2.212-8.93-3.143-13.139-5.338,7.214-3.05,14.5-5.941,21.894-8.533,1.22-.351,2.486-.946,3.79-.664,4.255.945,8.106,3.065,12.164,4.59,3.782,1.412,7.541,2.89,11.316,4.332a25.354,25.354,0,0,1-8.122,3.363c.062,5.422-.793,10.943.633,16.258-.237.666-.6.883-1.032.883A7.658,7.658,0,0,1,5955.643-2260.129Z" transform="translate(-5857.483 2288.959)" fill="url(#linear-gradient)"/>
      <g id="_a39164ff" data-name="#a39164ff" transform="translate(3.285 9.65)">
        <path id="Path_122314" data-name="Path 122314" d="M114.343,73.827c6.52-2.547,13.818-1.426,20.384.389,12.018,3.6,23.091,9.776,33.531,16.624a73.606,73.606,0,0,0-21.421-.564c-2.547.366-4.835-.991-7.153-1.807-5.216-1.937-10.722-3.691-16.365-3.264a6.374,6.374,0,0,0-5.895,4.636c-.869,4.217.869,8.358,2.448,12.186-1.136.366-2.272.747-3.4,1.121C111.963,97,107.2,89.894,108.021,81.91A9.457,9.457,0,0,1,114.343,73.827Z" transform="translate(-107.927 -72.338)" fill="#a39163"/>
        <path id="Path_122315" data-name="Path 122315" d="M129.76,127.844c1.571-.023,3.47-.381,4.431,1.22,17.326,22.4,40.287,40.2,65.7,52.572,8.083,3.79,16.937,7.366,26.042,6.23a7.508,7.508,0,0,0,6.856-7.283c.519-5.376-2.349-10.2-5.216-14.489-3.05-4.392-5.574-9.159-9.113-13.2-3.927,1.373-7.778,2.959-11.782,4.08.244-7.824.808-15.64.862-23.472,9.852,4.133,19.713,8.289,29.481,12.636-3.447,1.2-6.894,2.4-10.295,3.714,2.181,3.21,5.056,5.872,7.222,9.105a86.875,86.875,0,0,1,10.264,18.668c1.769,3.927,1.731,8.4,1.182,12.583a11.128,11.128,0,0,1-10.2,6.924c-3.744.069-7.572.29-11.218-.747-19.225-4.888-36.535-15.191-52.488-26.713-9.159-6.512-17.433-14.153-25.5-21.947-5.056-5.376-9.975-10.882-14.87-16.4C130.225,130.376,130.118,129.026,129.76,127.844Z" transform="translate(-113.111 -85.505)" fill="#a39163"/>
      </g>
    </g>
    <g id="Group_55021" data-name="Group 55021" transform="translate(-7.638 193.27)">
      <path id="Path_122357" data-name="Path 122357" d="M-286.143-5.741h-3.249c-.252,2.928-2.265,4.392-6.085,4.392-2.311,0-3.958-.641-4.987-1.9a9.884,9.884,0,0,1-1.6-5.216l2.173-.709c0,2.15.32,3.66.984,4.507a4.169,4.169,0,0,0,3.455,1.281,5.58,5.58,0,0,0,2.837-.549,2.652,2.652,0,0,0,1.075-2.379V-19.788l2.173-.663V-7.663h3.226Zm3.683,0h-4.232V-7.663h4.232Zm3.683,0h-4.232V-7.663h4.232Zm3.683,0h-4.232V-7.663h4.232Zm3.683,0h-4.232V-7.663h4.232Zm3.683,0h-4.232V-7.663h4.232Zm3.683,0h-4.232V-7.663h4.232Zm8.9,0h-1.373a4.223,4.223,0,0,1-3.18-1.212,4.314,4.314,0,0,1-3.249,1.212h-1.647V-7.617h1.51A2.04,2.04,0,0,0-260.8-9.95v-5.468l2.151-.641v6.177a2,2,0,0,0,2.265,2.265h1.235Zm-1.83,3.2a1.211,1.211,0,0,1-1.19,1.19,1.192,1.192,0,0,1-1.167-1.19A1.172,1.172,0,0,1-258.164-3.7,1.192,1.192,0,0,1-256.975-2.538Zm-3.066,0a1.211,1.211,0,0,1-1.19,1.19,1.176,1.176,0,0,1-1.167-1.19A1.157,1.157,0,0,1-261.23-3.7,1.192,1.192,0,0,1-260.04-2.538Zm16.4-3.2h-12.125V-7.663h3.02c-.48-.206-.709-1.007-.709-2.448a4.029,4.029,0,0,1,.641-2.356,2.774,2.774,0,0,1,2.448-1.19,2.683,2.683,0,0,1,2.425,1.19,4.029,4.029,0,0,1,.641,2.356,3.883,3.883,0,0,1-.618,2.448h2.059V-9.516a9.054,9.054,0,0,0-.595-3.889c-.526-1.029-1.6-1.533-3.226-1.533h-4.964l2.494-1.922h2.745c2.356,0,3.981.778,4.873,2.356a10.843,10.843,0,0,1,.892,4.987Zm-5.376-4.37c0-1.327-.458-1.99-1.35-1.99s-1.35.663-1.35,1.99c0,1.67.458,2.494,1.35,2.494S-249.013-8.44-249.013-10.11Zm12.788,4.37h-2.425a2.759,2.759,0,0,1-3.02-2.951V-19.81l2.173-.686V-8.761a.978.978,0,0,0,1.121,1.1h2.15Zm-2.539-15.625h-3.775l.48-.778h.641V-22.6c0-1.052.48-1.579,1.464-1.579a1.452,1.452,0,0,1,1.052.48l-.5.641a.726.726,0,0,0-.618-.343c-.366,0-.549.275-.549.8v.458h1.807Zm9.471,2.082a1.211,1.211,0,0,1-1.19,1.19,1.207,1.207,0,0,1-1.167-1.19,1.187,1.187,0,0,1,1.167-1.167A1.192,1.192,0,0,1-229.293-19.284Zm-3.066,0a1.211,1.211,0,0,1-1.19,1.19,1.176,1.176,0,0,1-1.167-1.19,1.157,1.157,0,0,1,1.167-1.167A1.192,1.192,0,0,1-232.359-19.284Zm5.01,13.543h-1.373a4.223,4.223,0,0,1-3.18-1.212,4.314,4.314,0,0,1-3.249,1.212H-236.8V-7.617h1.51A2.04,2.04,0,0,0-233-9.95v-5.468l2.15-.641v6.177a2,2,0,0,0,2.265,2.265h1.235Zm5.216-4.049A3.932,3.932,0,0,1-223.3-6.885a4.327,4.327,0,0,1-3.134,1.144H-227.9V-7.663h1.35c1.487,0,2.242-.778,2.242-2.333V-19.81l2.173-.641Zm17.249,4.049a3.539,3.539,0,0,1-1.556,3.34,6.933,6.933,0,0,1-4.072,1.052,5.923,5.923,0,0,1-4.575-1.693,5.692,5.692,0,0,1-1.373-4.026,10.9,10.9,0,0,1,.915-4.255l2.494-1.51A13.342,13.342,0,0,0-214.4-7.48c0,2.631,1.35,4.187,3.889,4.164a6.5,6.5,0,0,0,2.356-.3,2.275,2.275,0,0,0,1.51-2.128,3.031,3.031,0,0,1-2.814-1.739l1.007-2.059c.572,1.441,1.167,1.922,2.631,1.922h.938Zm-2.928,7.389A1.211,1.211,0,0,1-209,2.838a1.2,1.2,0,0,1-1.19-1.19A1.192,1.192,0,0,1-209,.482,1.207,1.207,0,0,1-207.811,1.648Zm-3.088,0a1.2,1.2,0,0,1-1.19,1.19,1.211,1.211,0,0,1-1.19-1.19,1.207,1.207,0,0,1,1.19-1.167A1.192,1.192,0,0,1-210.9,1.648Zm15.191-7.389h-1.373a4.223,4.223,0,0,1-3.18-1.212,4.314,4.314,0,0,1-3.249,1.212h-1.647V-7.617h1.51A2.04,2.04,0,0,0-201.36-9.95v-5.468l2.15-.641v6.177a2,2,0,0,0,2.265,2.265h1.235Zm-3.271,3.226a1.192,1.192,0,0,1-1.167,1.19,1.211,1.211,0,0,1-1.19-1.19,1.207,1.207,0,0,1,1.19-1.167A1.187,1.187,0,0,1-198.981-2.515ZM-190.2-9.79a3.9,3.9,0,0,1-1.167,2.905A4.327,4.327,0,0,1-194.5-5.741h-1.762V-7.617h1.647a2.033,2.033,0,0,0,2.265-2.333v-5.468l2.15-.641Zm-.48,7.252a1.192,1.192,0,0,1-1.167,1.19,1.216,1.216,0,0,1-1.212-1.19A1.2,1.2,0,0,1-191.843-3.7,1.172,1.172,0,0,1-190.676-2.538Zm-3.088,0a1.207,1.207,0,0,1-1.167,1.19,1.211,1.211,0,0,1-1.19-1.19,1.192,1.192,0,0,1,1.19-1.167A1.187,1.187,0,0,1-193.764-2.538ZM-181.3-6.427a4.95,4.95,0,0,1-1.4,3.683,5,5,0,0,1-3.752,1.4,4.521,4.521,0,0,1-2.448-.618l-1.029-2.15a7,7,0,0,0,3.477.869,2.815,2.815,0,0,0,2.974-3.111v-9.059l2.173-.641Zm14.161.686h-12.194l1.3-1.876h5.628v-4.347c0-1.487-.8-2.242-2.379-2.242a3.443,3.443,0,0,0-3.088,1.99v-2.471a4.758,4.758,0,0,1,3.088-1.35A4.9,4.9,0,0,1-171.5-14.96a3.494,3.494,0,0,1,1.258,2.837v4.461h3.111Zm6.932-13.543a1.211,1.211,0,0,1-1.19,1.19,1.207,1.207,0,0,1-1.167-1.19,1.187,1.187,0,0,1,1.167-1.167A1.192,1.192,0,0,1-160.2-19.284Zm-3.066,0a1.211,1.211,0,0,1-1.19,1.19,1.176,1.176,0,0,1-1.167-1.19,1.157,1.157,0,0,1,1.167-1.167A1.192,1.192,0,0,1-163.269-19.284Zm5.01,13.543h-1.373a4.223,4.223,0,0,1-3.18-1.212,4.313,4.313,0,0,1-3.249,1.212h-1.647V-7.617h1.51A2.04,2.04,0,0,0-163.91-9.95v-5.468l2.15-.641v6.177a2,2,0,0,0,2.265,2.265h1.235Zm5.216-4.049a3.932,3.932,0,0,1-1.167,2.905,4.327,4.327,0,0,1-3.134,1.144h-1.464V-7.663h1.35c1.487,0,2.242-.778,2.242-2.333V-19.81l2.173-.641Zm4.141,4.049h-2.173V-19.81l2.173-.686Zm21.23,0h-.938c-3.066,0-4.941-1.624-5.628-4.85h-3.111a3.519,3.519,0,0,0-3.66,3.752,3.478,3.478,0,0,0,3.66,3.592A5.363,5.363,0,0,0-133.8-4.528v2.311a7.082,7.082,0,0,1-3.546.869,6.007,6.007,0,0,1-4.164-1.533,5.063,5.063,0,0,1-1.716-3.958,5.36,5.36,0,0,1,1.647-4.1,6,6,0,0,1,4.232-1.556h2.517a3.364,3.364,0,0,0-3.134-2.379,5.164,5.164,0,0,0-3.477,1.647l-1.3-1.212a6.909,6.909,0,0,1,4.781-2.288,4.622,4.622,0,0,1,4.278,2.4c.572,1.464,1.121,2.928,1.693,4.37a3.834,3.834,0,0,0,3.706,2.288h.618Zm-8.373-1.3a1.211,1.211,0,0,1-1.19,1.19,1.192,1.192,0,0,1-1.167-1.19,1.187,1.187,0,0,1,1.167-1.167A1.207,1.207,0,0,1-136.045-7.045Zm19.812-3.592a5.554,5.554,0,0,1-.938,3.34,4.044,4.044,0,0,1-3.477,1.556,4.294,4.294,0,0,1-3.18-1.212,4.344,4.344,0,0,1-3.363,1.212h-1.029V-7.617h.892A2,2,0,0,0-125.087-9.9v-.732a5.7,5.7,0,0,1,.938-3.386,4.046,4.046,0,0,1,3.5-1.533,4.029,4.029,0,0,1,3.477,1.533A5.7,5.7,0,0,1-116.233-10.637Zm-2.173,0c0-2.036-.755-3.066-2.242-3.066-1.51,0-2.265,1.029-2.265,3.066s.755,3.043,2.265,3.043C-119.162-7.594-118.407-8.6-118.407-10.637Zm9.586,4.9h-2.425a2.759,2.759,0,0,1-3.02-2.951V-19.81l2.173-.686V-8.761a.978.978,0,0,0,1.121,1.1h2.15Zm4.118-13.543a1.211,1.211,0,0,1-1.19,1.19,1.207,1.207,0,0,1-1.167-1.19,1.212,1.212,0,0,1,1.167-1.212A1.216,1.216,0,0,1-104.7-19.284Zm1.373,9.494A3.9,3.9,0,0,1-104.5-6.885a4.327,4.327,0,0,1-3.134,1.144h-1.762V-7.617h1.647a2.033,2.033,0,0,0,2.265-2.333v-5.468l2.15-.641Zm12.125,4.049h-3.249a4.757,4.757,0,0,1-5.125,4.392,4.521,4.521,0,0,1-2.448-.618l-1.029-2.15a7,7,0,0,0,3.477.869A2.815,2.815,0,0,0-96.6-6.359v-9.059l2.173-.641v8.4h3.226Zm8.9,0h-1.373a4.223,4.223,0,0,1-3.18-1.212,4.314,4.314,0,0,1-3.249,1.212h-1.647V-7.617h1.51A2.04,2.04,0,0,0-87.957-9.95v-5.468l2.15-.641v6.177a2,2,0,0,0,2.265,2.265h1.235Zm-3.271,3.226a1.192,1.192,0,0,1-1.167,1.19,1.211,1.211,0,0,1-1.19-1.19,1.207,1.207,0,0,1,1.19-1.167A1.187,1.187,0,0,1-85.578-2.515ZM-77.09-9.79a3.932,3.932,0,0,1-1.167,2.905,4.327,4.327,0,0,1-3.134,1.144h-1.464V-7.663h1.35c1.487,0,2.242-.778,2.242-2.333V-19.81l2.173-.641Zm4.141,4.049h-2.173V-19.81l2.173-.686Zm-222.825,16.96a1.211,1.211,0,0,1-1.19,1.19,1.192,1.192,0,0,1-1.167-1.19,1.172,1.172,0,0,1,1.167-1.167A1.192,1.192,0,0,1-295.774,11.219Zm-3.066,0a1.216,1.216,0,0,1-1.212,1.19,1.211,1.211,0,0,1-1.19-1.19,1.192,1.192,0,0,1,1.19-1.167A1.2,1.2,0,0,1-298.84,11.219Zm7.778,13.543h-1.487c-1.784,0-2.928-.526-3.409-1.6-.526,1.075-1.647,1.6-3.363,1.6-2.905,0-4.37-1.739-4.37-5.239,0-3.386,1.464-5.079,4.37-5.079h4.644v6.108c0,1.556.755,2.333,2.242,2.333h1.373Zm-5.788-8.556h-2.333a1.994,1.994,0,0,0-1.876.892,4.87,4.87,0,0,0-.458,2.425,5.033,5.033,0,0,0,.458,2.448,1.964,1.964,0,0,0,1.876.915,1.964,1.964,0,0,0,1.876-.915,5.033,5.033,0,0,0,.458-2.448Zm14.687,8.556h-1.373a4.223,4.223,0,0,1-3.18-1.212,4.314,4.314,0,0,1-3.249,1.212h-1.647V22.886h1.51a2.04,2.04,0,0,0,2.288-2.333V15.085l2.15-.641v6.177a2,2,0,0,0,2.265,2.265h1.235Zm-1.83,3.2a1.211,1.211,0,0,1-1.19,1.19,1.192,1.192,0,0,1-1.167-1.19,1.172,1.172,0,0,1,1.167-1.167A1.192,1.192,0,0,1-283.993,27.965Zm-3.066,0a1.211,1.211,0,0,1-1.19,1.19,1.176,1.176,0,0,1-1.167-1.19,1.157,1.157,0,0,1,1.167-1.167A1.192,1.192,0,0,1-287.058,27.965Zm19.674-3.2h-15.328V22.886h10.272v-.824a10.726,10.726,0,0,0-.48-3.775,2.936,2.936,0,0,0-3.02-1.922,4.7,4.7,0,0,0-3.477,1.762l-1.556-1.441a7.1,7.1,0,0,1,5.033-2.242c2.311,0,3.912.846,4.8,2.517a11.233,11.233,0,0,1,.915,5.1v.778h2.837Zm19.812,0h-20.315V22.841h2.7V17.053l2.173-.618v4.713a10.423,10.423,0,0,1,1.464-3.2,7.013,7.013,0,0,1,5.971-3.386,5.358,5.358,0,0,1,5.033,2.631,10.365,10.365,0,0,1,1.029,5.651h1.945Zm-4.141-1.922a8.945,8.945,0,0,0,.069-1.121,6.644,6.644,0,0,0-.846-3.523,3.4,3.4,0,0,0-3.043-1.647,5.826,5.826,0,0,0-4.438,2.333,6.708,6.708,0,0,0-1.945,3.958Zm9.425-2.128a3.932,3.932,0,0,1-1.167,2.905,4.327,4.327,0,0,1-3.134,1.144h-1.464V22.841h1.35c1.487,0,2.242-.778,2.242-2.333V10.693l2.173-.641Zm4.141,4.049h-2.173V10.693l2.173-.686Zm16.678-10.043a1.2,1.2,0,0,1-1.19,1.19,1.192,1.192,0,0,1-1.167-1.19,1.207,1.207,0,0,1,1.167-1.19A1.211,1.211,0,0,1-221.469,14.719Zm-3.066,0a1.2,1.2,0,0,1-1.19,1.19,1.177,1.177,0,0,1-1.167-1.19,1.192,1.192,0,0,1,1.167-1.19A1.211,1.211,0,0,1-224.534,14.719Zm8.6,6.108c0,2.4-1.624,3.935-4.3,3.935h-8.121a3.809,3.809,0,0,1-4.118-3.935V18.517l2.15-2.2V20.6a2,2,0,0,0,2.265,2.242h7.71A2,2,0,0,0-218.06,20.6V15.016l2.128-.572Zm7.412,3.935h-2.425a2.759,2.759,0,0,1-3.02-2.951V10.693l2.173-.686V21.742a.978.978,0,0,0,1.121,1.1h2.15Zm3.66,0h-4.232V22.841h4.232Zm11.439-4.9a5.554,5.554,0,0,1-.938,3.34,4.044,4.044,0,0,1-3.477,1.556,4.294,4.294,0,0,1-3.18-1.212,4.343,4.343,0,0,1-3.363,1.212h-1.029V22.886h.892a2,2,0,0,0,2.242-2.288v-.732a5.7,5.7,0,0,1,.938-3.386,4.046,4.046,0,0,1,3.5-1.533,4.029,4.029,0,0,1,3.477,1.533A5.7,5.7,0,0,1-193.421,19.866Zm-2.173,0c0-2.036-.755-3.066-2.242-3.066-1.51,0-2.265,1.029-2.265,3.066s.755,3.043,2.265,3.043C-196.35,22.909-195.595,21.9-195.595,19.866Zm15.511,4.9h-2.7a5.4,5.4,0,0,1-1.487,3.066,4.413,4.413,0,0,1-3.317,1.327,5.044,5.044,0,0,1-2.677-.595l-.961-2.1a8.026,8.026,0,0,0,3.592.8,2.782,2.782,0,0,0,2.677-2.494h-1.784a4.7,4.7,0,0,1-3.546-1.373,4.6,4.6,0,0,1-1.167-3.294,6.187,6.187,0,0,1,1.007-3.66,4.1,4.1,0,0,1,3.546-1.693c2.905,0,4.37,1.784,4.37,5.353,0,.709-.023,1.647-.046,2.791h2.494Zm-4.621-4.667a6.3,6.3,0,0,0-.3-2.311,1.875,1.875,0,0,0-1.9-1.144c-1.579,0-2.379,1.144-2.379,3.454,0,1.853.846,2.791,2.539,2.791h2.013Zm13.841,4.667h-1.51a4.222,4.222,0,0,1-3.18-1.235,4.156,4.156,0,0,1-3.226,1.235h-1.853V22.841h1.716a2.033,2.033,0,0,0,2.265-2.333V10.693l2.173-.686V20.621a1.972,1.972,0,0,0,2.242,2.219h1.373Zm5.491-4.049a3.9,3.9,0,0,1-1.167,2.905,4.327,4.327,0,0,1-3.134,1.144h-1.762V22.886h1.647a2.033,2.033,0,0,0,2.265-2.333V15.085l2.15-.641Zm-1.373,7.252a1.211,1.211,0,0,1-1.19,1.19,1.207,1.207,0,0,1-1.167-1.19,1.187,1.187,0,0,1,1.167-1.167A1.192,1.192,0,0,1-166.746,27.965Zm15.534-3.2h-12.194l1.3-1.876h5.628V18.54c0-1.487-.8-2.242-2.379-2.242a3.443,3.443,0,0,0-3.088,1.99V15.817a4.758,4.758,0,0,1,3.088-1.35,4.9,4.9,0,0,1,3.271,1.075,3.494,3.494,0,0,1,1.258,2.837v4.461h3.111Zm5.193-4.049a3.931,3.931,0,0,1-1.167,2.905,4.327,4.327,0,0,1-3.134,1.144h-1.464V22.841h1.35c1.487,0,2.242-.778,2.242-2.333V10.693l2.173-.641Zm4.141,4.049h-2.173V10.693l2.173-.686Zm17.249,0a3.539,3.539,0,0,1-1.556,3.34,6.933,6.933,0,0,1-4.072,1.052,5.923,5.923,0,0,1-4.575-1.693,5.692,5.692,0,0,1-1.373-4.026,10.9,10.9,0,0,1,.915-4.255l2.494-1.51a13.342,13.342,0,0,0-1.35,5.353c0,2.631,1.35,4.187,3.889,4.164a6.5,6.5,0,0,0,2.356-.3,2.275,2.275,0,0,0,1.51-2.128,3.031,3.031,0,0,1-2.814-1.739l1.007-2.059c.572,1.441,1.167,1.922,2.631,1.922h.938Zm-2.928,7.389a1.211,1.211,0,0,1-1.19,1.19,1.2,1.2,0,0,1-1.19-1.19,1.192,1.192,0,0,1,1.19-1.167A1.207,1.207,0,0,1-127.558,32.152Zm-3.088,0a1.2,1.2,0,0,1-1.19,1.19,1.211,1.211,0,0,1-1.19-1.19,1.207,1.207,0,0,1,1.19-1.167A1.192,1.192,0,0,1-130.646,32.152Zm9.975-7.389H-124.9V22.841h4.232Zm3.683,0h-4.232V22.841h4.232Zm14.779,0h-15.328V22.886h10.272v-.824a10.726,10.726,0,0,0-.48-3.775,2.936,2.936,0,0,0-3.02-1.922,4.7,4.7,0,0,0-3.477,1.762l-1.556-1.441a7.1,7.1,0,0,1,5.033-2.242c2.311,0,3.912.846,4.8,2.517a11.232,11.232,0,0,1,.915,5.1v.778h2.837Zm-7.389,3.2a1.211,1.211,0,0,1-1.19,1.19,1.211,1.211,0,0,1-1.19-1.19,1.192,1.192,0,0,1,1.19-1.167A1.192,1.192,0,0,1-109.6,27.965Zm12.9-7.252a3.9,3.9,0,0,1-1.167,2.905A4.327,4.327,0,0,1-101,24.762h-1.762V22.886h1.647a2.033,2.033,0,0,0,2.265-2.333V15.085l2.15-.641Zm-.48,7.252a1.192,1.192,0,0,1-1.167,1.19,1.216,1.216,0,0,1-1.213-1.19A1.2,1.2,0,0,1-98.343,26.8,1.172,1.172,0,0,1-97.176,27.965Zm-3.088,0a1.207,1.207,0,0,1-1.167,1.19,1.211,1.211,0,0,1-1.19-1.19,1.192,1.192,0,0,1,1.19-1.167A1.187,1.187,0,0,1-100.265,27.965Zm15.694-3.2H-87.82a4.757,4.757,0,0,1-5.125,4.392,4.521,4.521,0,0,1-2.448-.618l-1.029-2.15a7,7,0,0,0,3.477.869,2.815,2.815,0,0,0,2.974-3.111V15.085l2.173-.641v8.4h3.226Zm7.115-13.543a1.192,1.192,0,0,1-1.167,1.19,1.216,1.216,0,0,1-1.213-1.19,1.2,1.2,0,0,1,1.213-1.167A1.172,1.172,0,0,1-77.456,11.219Zm4.507,13.543H-85.12V22.886h9.952v-.824a10.726,10.726,0,0,0-.48-3.775,2.925,2.925,0,0,0-3-1.922,4.743,4.743,0,0,0-3.5,1.762L-83.7,16.687a7.115,7.115,0,0,1,5.056-2.242c2.311,0,3.912.846,4.8,2.517a11.59,11.59,0,0,1,.892,5.1Z" transform="translate(303.69 24.18)" fill="#403e39"/>
    </g>
  </g>
</svg>
