<svg xmlns="http://www.w3.org/2000/svg" width="387.378" height="188.602" viewBox="0 0 387.378 188.602">
  <g id="PROG-LOGO-2" transform="translate(-321.911 -111.15)">
    <g id="SCISP_Horizntal_RTL" transform="translate(321.911 111.15)">
      <g id="Group" transform="translate(123.208 0)">
        <path id="Path" d="M48.58,35.21S79.593,47.811,75.7,59.88C68.971,62.54,61.053,56.325,56.8,46.9,52.709,37.892,48.58,35.21,48.58,35.21Z" transform="translate(54.548 39.672)" fill="#71a542"/>
        <path id="Path-2" data-name="Path" d="M51.26,31.74S81.8,38.168,79.889,50.173c-.277,1.788-10.174.447-13.9-2.767C58.582,41,62.328,38.7,51.26,31.74Z" transform="translate(57.572 35.756)" fill="#cec62a"/>
        <path id="Path-3" data-name="Path" d="M52.79,28.381s9.366-1.852,16.241.553c5.385,1.873,10.813,4.023,12.388,12.111,0,0-6.215,2.895-12.984-1.98S59.261,28.7,52.79,28.381Z" transform="translate(59.299 31.197)" fill="#1d4776"/>
        <path id="Path-4" data-name="Path" d="M53.12,25.216a22.679,22.679,0,0,1,10.685-2.278c6.258.234,14.921,2.235,15.836,8.876,0,0-4.789,4.534-14.879-1.554C64.763,30.26,59.357,26.067,53.12,25.216Z" transform="translate(59.671 25.805)" fill="#0f80c1"/>
        <path id="Path-5" data-name="Path" d="M52.47,22.436s5.236-5.6,18.561-4.066A10.9,10.9,0,0,1,78.417,24.2s-3.938,5.215-14.793-.021A14.654,14.654,0,0,0,52.47,22.436Z" transform="translate(58.938 20.369)" fill="#0099c3"/>
        <path id="Path-6" data-name="Path" d="M50.89,19.748s3.321-4.768,11.622-5.832c0,0,8.365-1.4,11.217,4.066,0,0-2.916,3.789-12.516,1.873C51.89,18.024,50.89,19.748,50.89,19.748Z" transform="translate(57.155 15.458)" fill="#71a542"/>
        <path id="Path-7" data-name="Path" d="M48.58,18.072a13.269,13.269,0,0,1,12.346-9.11s4.066-.192,6.024,2.384a7.544,7.544,0,0,1-8.3,4.449S50.794,14.666,48.58,18.072Z" transform="translate(54.548 10.046)" fill="#cec62a"/>
        <path id="Path-8" data-name="Path" d="M45.188,17.03c-.4.085,1.447-9.578,8.919-11.664,0,0,2.831-.894,4.278.341C58.3,7.558,58.172,14.157,45.188,17.03Z" transform="translate(50.661 5.639)" fill="#1d4776"/>
        <path id="Path-9" data-name="Path" d="M48.141,2.27s4.96,10.047-6.13,14.24c0,0-1.447-4.832,0-8.621A9.6,9.6,0,0,1,48.141,2.27Z" transform="translate(46.409 2.498)" fill="#0f80c1"/>
        <path id="Path-10" data-name="Path" d="M38.555,15.674s4.066-2.682,3.363-10.558L41.706.54C41.684.561,32.723,5.159,38.555,15.674Z" transform="translate(41.009 0.546)" fill="#0099c3"/>
        <path id="Path-11" data-name="Path" d="M37.693,41.42s19.114,32.141,7.6,39.868c0,0-7.982-.766-7.982-17.837C37.31,56.618,38.843,47.827,37.693,41.42Z" transform="translate(41.829 46.68)" fill="#1d4776"/>
        <path id="Path-12" data-name="Path" d="M41.89,39.94S61.834,57.181,56.471,77.615c0,0-7.62,1.682-9.642-9.451S44.423,50.71,41.89,39.94Z" transform="translate(46.998 45.01)" fill="#0f80c1"/>
        <path id="Path-13" data-name="Path" d="M45.46,37.86s7.471,4.215,11.9,8.855c0,0,12.729,12.558,10.387,22.179,0,0-9,4.661-15.836-13.687S48.483,46.034,45.46,37.86Z" transform="translate(51.027 42.663)" fill="#0099c3"/>
        <g id="Path-14" data-name="Path" transform="translate(47.828 29.118)">
          <path id="Path_122276" data-name="Path 122276" d="M10.741,10.416a1.447,1.447,0,0,1,.106,1.49c0-.213.106-.426-.106-.532-.106,0-.106.106-.106.213a.553.553,0,0,0-.213-.426,5.272,5.272,0,0,0-.213,1.809c-.213-.106,0-.532-.213-.426-.319.106-.106.639,0,.958a5.257,5.257,0,0,1-.213-4.555A9.269,9.269,0,0,1,11.7,6.627c.106-.106.319-.426,0-.426-.319-.106-.532.213-.639.532l-.213-.213c-.106.319-.319.639-.426.958,0-.106,0-.426-.106-.426-.319.106-.319.639-.426.958,0-.106,0-.426-.106-.319-.319.213-.319.745-.426,1.171,0-.106.106-.426-.106-.426-.319.106-.213.532-.213.851a.372.372,0,0,0-.106-.213c-.319.319-.213.745-.213,1.064-.213-.106-.106-.426-.213-.426-.319.319-.213.745-.319,1.171-.106-.213.106-.532-.106-.745a3.382,3.382,0,0,0-.319.958c-.106-.319.106-.639-.106-.851-.213.319,0,.745-.106,1.064a4.787,4.787,0,0,1,.106-2.746A7.938,7.938,0,0,1,8.4,7.287,5.578,5.578,0,0,1,9.571,6.223c.639-.532,1.49-.639,2.022-1.277-.213-.213-.532.106-.745-.106l-.213.213c0-.106,0-.213-.106-.213a.553.553,0,0,0-.426.213c0-.106,0-.213-.106-.213-.213,0-.319.213-.426.319a.372.372,0,0,0-.106-.213c-.106.106-.426.106-.426.426l-.213-.213a.553.553,0,0,0-.213.426c0-.106,0-.213-.106-.213a.553.553,0,0,0-.213.426l-.106-.106a1.513,1.513,0,0,0-.213.639.372.372,0,0,0-.106-.213c-.213.213-.106.532-.213.745a2.256,2.256,0,0,1,1.49-2.746,4.488,4.488,0,0,1,3.7-.106.372.372,0,0,0,.106-.213c-.106-.319-.426-.958-.851-.532a.391.391,0,0,1,.106-.319c-.213-.319-.532.106-.745,0l.106-.106c-.213-.319-.426.106-.639,0l.106-.106c0-.106-.106-.106-.213-.106-.106.106-.426.106-.426.426,0-.106.106-.426-.106-.426-.319.106-.426.532-.639.745a.872.872,0,0,1,.426-1.064,3.281,3.281,0,0,1,2.959-.426,2.493,2.493,0,0,1,1.277,1.277,5.269,5.269,0,0,0,.426-1.384.391.391,0,0,0,.106.319c.213-.426.106-.958.319-1.384.213.426.106.958.319,1.384a.391.391,0,0,0,.106-.319,5.269,5.269,0,0,0,.426,1.384,2.483,2.483,0,0,1,1.7-1.384c1.171-.213,3.065.106,2.959,1.6-.213-.213-.319-.639-.639-.745-.213,0-.106.319-.106.426,0-.319-.319-.319-.426-.426s-.213,0-.213.106.106.106.106.213c-.213-.106-.426-.319-.639-.106.106,0,.106.106.106.213a1.513,1.513,0,0,0-.639-.213c-.213.106.106.319,0,.426-.106-.213-.319-.106-.426-.106-.213.213-.639.851-.532.851a5.507,5.507,0,0,1,3.917.106,2.714,2.714,0,0,1,1.277.958,3.416,3.416,0,0,1,.213,1.809c-.213-.213,0-.532-.213-.745a.372.372,0,0,0-.106.213c0-.426-.319-.639-.532-.958-.106,0-.106.106-.106.213a.553.553,0,0,0-.213-.426l-.213.213c0-.319-.319-.319-.426-.426a.372.372,0,0,0-.106.213l-.319-.319c-.213,0-.319.213-.532,0-.106-.106-.213,0-.213.213l-.213-.213c-.213.213-.532-.106-.745.106.958.851,2.32,1.171,3.172,2.32a4.668,4.668,0,0,1,.851,4.023c-.106-.319.106-.745-.106-1.064-.213.213,0,.532-.106.851a3.382,3.382,0,0,0-.319-.958c-.213.213-.106.532-.106.745-.106-.426,0-.851-.319-1.171-.106,0,0,.319-.213.426,0-.319.106-.745-.213-1.064a.372.372,0,0,0-.106.213c0-.319.106-.745-.213-.851-.213,0-.106.319-.106.426-.106-.426-.106-.958-.426-1.171-.106-.106-.106.213-.106.319-.106-.319-.106-.851-.426-.958-.106,0-.106.319-.106.426-.106-.319-.319-.639-.426-.958l-.213.213a.96.96,0,0,0-.639-.639c-.106,0-.106.213-.106.319.639.851,1.49,1.49,2.022,2.32A5.38,5.38,0,0,1,20.32,13.5c.106-.319.319-.851,0-.958-.213-.106,0,.319-.213.426a5.272,5.272,0,0,0-.213-1.809.553.553,0,0,0-.213.426c0-.106,0-.213-.106-.213-.213.106-.106.319-.106.532a2.4,2.4,0,0,1,.213-1.7,1.513,1.513,0,0,0-.213-.639.553.553,0,0,0-.213.426,6.229,6.229,0,0,0-.213-1.384c-.213.106-.106.319-.106.426-.213-.319.106-.745-.213-.958-.106,0,0,.319-.213.426,0-.319.106-.745-.213-.958-.106,0-.106.319-.106.426,0-.319-.106-.851-.426-.958-.106,0,0,.319-.106.426h-.213c0-.106,0-.213-.106-.213s-.213,0-.213.106c.106.319.532.319.639.639,0,.319.319.426.319.745a.4.4,0,0,0-.639-.106c.532.213,1.064.532.958,1.171a.707.707,0,0,0-.426-.532c-.106,0-.319,0-.319.106.426.426.851.851.745,1.49a.585.585,0,0,0-.319-.532.372.372,0,0,0-.213.106,2.725,2.725,0,0,1,.426,2.022c0-.213.106-.532-.106-.426-.213,0-.106.319-.106.532l-.106-.106c-.213.319.106.532,0,.851s-.106.532-.213.851c-.106-.319.106-.745-.106-1.064a3.382,3.382,0,0,0-.213,1.49c0-.106,0-.213-.106-.213-.213.106,0,.426-.213.532a15.288,15.288,0,0,0-.213-2.214c.106,0,.213,0,.213-.106,0-.213.106-.639-.106-.639-.213-.106,0,.426-.213.532,0-.426,0-.851-.319-.958-.213-.106.106.319-.213.426-.426.106-.213-.319-.426-.532a71.905,71.905,0,0,0,0,10.707c0,.532.319,1.064.213,1.6a.935.935,0,0,0-.106.745,1.717,1.717,0,0,0,.319.958c.106.426-.319.851-.213,1.277a10.582,10.582,0,0,0,1.171,2.214H13c.426-.851,1.171-1.6,1.064-2.533,0-.319-.213-.639-.106-.958.532-.851.106-1.6.213-2.533a1.513,1.513,0,0,0,.213-.639,91.629,91.629,0,0,0,0-10.813c-.213.106-.106.319-.106.426-.106.213-.426.106-.532-.106.106,0,.106-.106.106-.213-.213-.319-.213.106-.319.106a1.131,1.131,0,0,0-.106.851c-.213-.106,0-.639-.213-.532-.213,0-.106.426-.106.639,0,.106.106.106.213.106a15.885,15.885,0,0,0-.213,2.214c-.213-.106,0-.426-.213-.532-.106,0-.106.106-.106.213a3.382,3.382,0,0,0-.213-1.49c-.213.319,0,.745-.106,1.064-.106-.319-.106-.532-.213-.851s.213-.532,0-.851l-.106.106c0-.213.106-.532-.106-.532-.213-.106-.106.213-.106.426a2.107,2.107,0,0,1,.426-1.916c.106-.106,0-.213-.106-.213-.319,0-.319.319-.426.532-.106-.639.319-1.064.745-1.49,0-.106-.213-.106-.319-.106a.707.707,0,0,0-.426.532c-.106-.639.426-.958.958-1.171a.4.4,0,0,0-.639.106A2.7,2.7,0,0,1,13,7.67a.553.553,0,0,0-.426-.213c.213-.106,0-.319.213-.426,0-.106-.106-.106-.213-.106A1.31,1.31,0,0,0,12.04,7.99c0-.106,0-.426-.106-.426-.319.213-.213.639-.213.958-.213-.106,0-.426-.213-.426-.319.213,0,.639-.213.958,0-.106.106-.319-.106-.426a6.229,6.229,0,0,0-.213,1.384.553.553,0,0,0-.213-.426c-.021.3-.234.511-.021.83Z" transform="translate(7.074 -0.71)" fill="#969595"/>
          <path id="Path_122277" data-name="Path 122277" d="M13.648,13.433a30.2,30.2,0,0,1,9.429,5.087,26.715,26.715,0,0,1,22.35-5.832C37.913,12.9,30.08,14.9,24.567,20.2l4.449,4.129c.426-.639.426-1.49.958-2.129a2.416,2.416,0,0,1,2.129-.851,1.657,1.657,0,0,1,1.277,1.916c-.319,1.277-1.7,1.6-2.852.851-.213-.106-.532.639-.319.958a3.9,3.9,0,0,0,2.129,1.49,1.671,1.671,0,0,1,2.746,0,1.446,1.446,0,0,1-.532,2.129c-2.022.851-4.129-.532-5.726-1.809-.958,1.49-3.491,3.065-4.981,1.171a1.478,1.478,0,0,1-.213-1.171,1.657,1.657,0,0,1,1.916-1.277,1.411,1.411,0,0,1,1.064.639c.213.319-.106.851.319.745.319,0,.851-.532.745-.639-1.064-2.022-3.065-3.065-4.662-4.555-1.6,1.49-3.384,2.533-4.662,4.449-.213.319.426.745.745.745.426,0,.213-.958.745-1.171a2.088,2.088,0,0,1,1.6-.106,1.79,1.79,0,0,1,.958,1.809,2.025,2.025,0,0,1-2.32,1.384,4.253,4.253,0,0,1-2.852-2.022c-1.49,1.171-3.172,2.32-5.194,2.107a1.538,1.538,0,0,1-1.064-.745,1.61,1.61,0,1,1,2.746-1.682,3.9,3.9,0,0,0,2.129-1.49c.213-.319-.106-1.064-.426-.958a2.652,2.652,0,0,1-1.809.319,1.79,1.79,0,0,1-.958-1.809,1.634,1.634,0,0,1,2.022-1.277,3.755,3.755,0,0,1,1.384.851c.532.639.532,1.49.958,2.129L21.46,20.2C15.947,14.9,8.114,12.9.6,12.688a27.788,27.788,0,0,1,13.048.745Z" transform="translate(-0.6 12.28)" fill="#969595"/>
        </g>
        <path id="Path-15" data-name="Path" d="M32.2,35.21S1.184,47.811,5.079,59.88c6.726,2.661,14.644-3.555,18.9-12.984C28.068,37.892,32.2,35.21,32.2,35.21Z" transform="translate(5.074 39.672)" fill="#1d4776"/>
        <path id="Path-16" data-name="Path" d="M30.185,31.74S-.36,38.168,1.556,50.173c.277,1.788,10.174.447,13.9-2.767C22.863,41,19.116,38.7,30.185,31.74Z" transform="translate(1.382 35.756)" fill="#71a542"/>
        <path id="Path-17" data-name="Path" d="M28.759,28.381s-9.366-1.852-16.241.553C7.133,30.807,1.705,32.957.13,41.046c0,0,6.215,2.895,12.984-1.98C19.9,34.192,22.309,28.7,28.759,28.381Z" transform="translate(-0.13 31.197)" fill="#0f80c1"/>
        <path id="Path-18" data-name="Path" d="M27.507,22.436s-5.236-5.6-18.561-4.066A10.9,10.9,0,0,0,1.56,24.2s3.938,5.215,14.793-.021A14.654,14.654,0,0,1,27.507,22.436Z" transform="translate(1.484 20.369)" fill="#cec62a"/>
        <path id="Path-19" data-name="Path" d="M27.439,19.748s-3.321-4.768-11.622-5.832c0,0-8.365-1.4-11.217,4.066,0,0,2.916,3.789,12.516,1.873C26.439,18.024,27.439,19.748,27.439,19.748Z" transform="translate(4.915 15.458)" fill="#71a542"/>
        <path id="Path-20" data-name="Path" d="M27.379,18.072a13.269,13.269,0,0,0-12.346-9.11S10.968,8.77,9.01,11.346a7.544,7.544,0,0,0,8.3,4.449S25.166,14.666,27.379,18.072Z" transform="translate(9.891 10.046)" fill="#0099c3"/>
        <path id="Path-21" data-name="Path" d="M28.057,17.03c.4.085-1.447-9.578-8.919-11.664,0,0-2.831-.894-4.278.341C14.945,7.558,15.073,14.157,28.057,17.03Z" transform="translate(16.493 5.639)" fill="#0f80c1"/>
        <path id="Path-22" data-name="Path" d="M22.256,2.27s-4.96,10.047,6.13,14.24c0,0,1.447-4.832,0-8.621A9.7,9.7,0,0,0,22.256,2.27Z" transform="translate(23.593 2.498)" fill="#1d4776"/>
        <path id="Path-23" data-name="Path" d="M30.536,15.674s-4.066-2.682-3.363-10.558L27.386.54C27.407.561,36.369,5.159,30.536,15.674Z" transform="translate(30.297 0.546)" fill="#cec62a"/>
        <path id="Path-24" data-name="Path" d="M34.715,41.42S15.6,73.561,27.116,81.288c0,0,7.982-.766,7.982-17.837C35.1,56.618,33.566,47.827,34.715,41.42Z" transform="translate(26.161 46.68)" fill="#71a542"/>
        <path id="Path-25" data-name="Path" d="M32.728,37.86s-7.471,4.215-11.9,8.855c0,0-12.729,12.558-10.387,22.179,0,0,9,4.661,15.836-13.687C33.111,36.838,29.706,46.034,32.728,37.86Z" transform="translate(11.184 42.663)" fill="#0f80c1"/>
        <path id="Path-26" data-name="Path" d="M34.63.03s6.449,13.452,0,15.432C28.18,13.461,34.63.03,34.63.03Z" transform="translate(35.57 -0.03)" fill="#71a542"/>
        <path id="Path-27" data-name="Path" d="M27.392,25.216a22.679,22.679,0,0,0-10.685-2.278C10.448,23.172,1.785,25.173.87,31.814c0,0,4.789,4.534,14.879-1.554C15.749,30.26,21.155,26.067,27.392,25.216Z" transform="translate(0.705 25.805)" fill="#1d4776"/>
        <path id="Path-28" data-name="Path" d="M36.442,42.29c-1.171,2.852-13.367,33.716,0,41.89C49.831,76.006,37.613,45.142,36.442,42.29Z" transform="translate(33.842 47.662)" fill="#cec62a"/>
        <path id="Path-29" data-name="Path" d="M32.666,39.94S12.722,57.181,18.086,77.615c0,0,7.62,1.682,9.642-9.451S30.133,50.71,32.666,39.94Z" transform="translate(19.1 45.01)" fill="#0099c3"/>
      </g>
      <g id="Group-2" data-name="Group" transform="translate(0 148.972)">
        <g id="Group_55014" data-name="Group 55014" transform="translate(1.043 0)">
          <rect id="Rectangle" width="1.257" height="1.332" transform="translate(4.424 2.036)" fill="#292323"/>
          <rect id="Rectangle-2" data-name="Rectangle" width="1.257" height="1.332" transform="translate(2.451 2.036)" fill="#292323"/>
          <rect id="Rectangle-3" data-name="Rectangle" width="1.257" height="1.332" transform="translate(22.184 14.002)" fill="#292323"/>
          <rect id="Rectangle-4" data-name="Rectangle" width="1.257" height="1.332" transform="translate(24.158 14.002)" fill="#292323"/>
          <path id="Shape" d="M29.185,11.771h-4.3V4.959H23.667v6.812H7.679V4.984c-.415-.038-1.018-.075-1.823-.113s-1.408-.05-1.8-.05a4.569,4.569,0,0,0-2.112.415A2.331,2.331,0,0,0,.829,6.53,6.693,6.693,0,0,0,.49,8.88a6.3,6.3,0,0,0,.352,2.35A2.364,2.364,0,0,0,2,12.488a5.094,5.094,0,0,0,2.212.39H30.379V1.54H29.16V11.771Zm-22.725,0H4.424a3.758,3.758,0,0,1-1.609-.289,1.706,1.706,0,0,1-.842-.93A4.541,4.541,0,0,1,1.709,8.83a3.413,3.413,0,0,1,.578-2.237,2.565,2.565,0,0,1,2.024-.679c.5,0,1.219.025,2.149.1v5.757Z" transform="translate(-0.49 -0.132)" fill="#292323"/>
          <path id="Shape-2" data-name="Shape" d="M29.3,4.03a3.9,3.9,0,0,0-2.074.478A2.484,2.484,0,0,0,26.2,5.915,8.363,8.363,0,0,0,25.91,8.3a6.15,6.15,0,0,0,.566,2.828,2.319,2.319,0,0,0,2.288,1.094h2.325a6.112,6.112,0,0,1-.2,1.823,1.432,1.432,0,0,1-.54.817,1.707,1.707,0,0,1-.892.2,15.969,15.969,0,0,1-2.3-.226V15.92a18.242,18.242,0,0,0,2.388.239A2.258,2.258,0,0,0,31.7,14.965a8.337,8.337,0,0,0,.628-3.708V4.332c-.39-.075-.88-.138-1.471-.2A12.933,12.933,0,0,0,29.3,4.03Zm1.785,7.1h-1.86a1.7,1.7,0,0,1-1.672-.792,4.452,4.452,0,0,1-.415-2.061,6.16,6.16,0,0,1,.214-1.76,1.847,1.847,0,0,1,.754-1.043,2.66,2.66,0,0,1,1.5-.352,11.514,11.514,0,0,1,1.483.113v5.895Z" transform="translate(6.041 0.507)" fill="#292323"/>
          <path id="Path-30" data-name="Path" d="M42.026,11.771H38.595V9.911a5.838,5.838,0,0,0-1.156-4.035A3.768,3.768,0,0,0,34.56,4.632a7.856,7.856,0,0,0-.918.063A3.268,3.268,0,0,0,33,4.821l.075.9h1.282a2.866,2.866,0,0,1,2.124.943,4.7,4.7,0,0,1,.9,3.281v1.835H32.26v1.094H43.245V1.54H42.026Z" transform="translate(7.672 -0.132)" fill="#292323"/>
          <rect id="Rectangle-5" data-name="Rectangle" width="1.257" height="11.337" transform="translate(53.758 1.395)" fill="#292323"/>
          <g id="Group_55013" data-name="Group 55013" transform="translate(60.382)">
            <rect id="Rectangle-6" data-name="Rectangle" width="1.42" height="1.546" transform="translate(2.464 1.936)" fill="#1d4776"/>
            <rect id="Rectangle-7" data-name="Rectangle" width="1.42" height="1.546" transform="translate(4.437 1.936)" fill="#1d4776"/>
            <rect id="Rectangle-8" data-name="Rectangle" width="1.42" height="1.546" transform="translate(18.753 13.889)" fill="#1d4776"/>
            <rect id="Rectangle-9" data-name="Rectangle" width="1.42" height="1.546" transform="translate(16.78 13.889)" fill="#1d4776"/>
            <rect id="Rectangle-10" data-name="Rectangle" width="1.42" height="1.546" transform="translate(26.558 13.889)" fill="#1d4776"/>
            <rect id="Rectangle-11" data-name="Rectangle" width="1.42" height="1.546" transform="translate(34.816 13.889)" fill="#1d4776"/>
            <rect id="Rectangle-12" data-name="Rectangle" width="1.42" height="1.546" transform="translate(36.79 13.889)" fill="#1d4776"/>
            <rect id="Rectangle-13" data-name="Rectangle" width="1.42" height="1.546" transform="translate(40.761 1.936)" fill="#1d4776"/>
            <path id="Shape-3" data-name="Shape" d="M42.259,11.023H37.772V4.211H36.339v6.812H30.784V6.863c0-1.86-.9-2.8-2.7-2.8a19.823,19.823,0,0,0-3.595.49l-.088.013.063,1.106.553-.063c1.42-.163,2.338-.251,2.8-.251a1.581,1.581,0,0,1,1.156.377,1.5,1.5,0,0,1,.377,1.119v4.173H19.736V4.211H18.3v6.812H7.946V4.236l-.1-.013c-.39-.038-.968-.075-1.835-.113-.754-.038-1.383-.05-1.8-.05a4.555,4.555,0,0,0-2.162.427A2.454,2.454,0,0,0,.882,5.845,6.942,6.942,0,0,0,.53,8.233a6.53,6.53,0,0,0,.365,2.388,2.435,2.435,0,0,0,1.219,1.307,5.323,5.323,0,0,0,2.262.4H43.692V4.211H42.259ZM6.513,5.468v5.556H4.577a3.681,3.681,0,0,1-1.559-.277,1.626,1.626,0,0,1-.792-.867A4.614,4.614,0,0,1,1.975,8.2a3.4,3.4,0,0,1,.553-2.174A2.455,2.455,0,0,1,4.464,5.38C4.967,5.38,5.646,5.4,6.513,5.468Z" transform="translate(-0.53 0.515)" fill="#1d4776"/>
            <rect id="Rectangle-14" data-name="Rectangle" width="1.42" height="1.546" transform="translate(42.735 1.936)" fill="#1d4776"/>
            <rect id="Rectangle-15" data-name="Rectangle" width="1.433" height="11.551" transform="translate(45.638 1.282)" fill="#1d4776"/>
            <rect id="Rectangle-16" data-name="Rectangle" width="1.42" height="1.546" transform="translate(58.848 1.936)" fill="#1d4776"/>
            <rect id="Rectangle-17" data-name="Rectangle" width="1.42" height="1.546" transform="translate(56.875 1.936)" fill="#1d4776"/>
            <path id="Path-31" data-name="Path" d="M63.727,4.268,63.7,4.18l-1.207.063.013.113c.075.654.138,1.244.2,1.823a14.744,14.744,0,0,1,.088,1.5v3.318H61.251a1.659,1.659,0,0,1-.679-.151,2.246,2.246,0,0,1-.515-.314,5.812,5.812,0,0,0,.2-1.634V4.984H58.825V8.919a3.211,3.211,0,0,1-.314,1.521,1,1,0,0,1-.955.566H56.1V4.984H54.664V11h-4.7V4.193H48.531V11H42.812V4.218H41.379v8.459a3.254,3.254,0,0,1-.365,1.684,1.17,1.17,0,0,1-1.081.578c-.126,0-.427-.025-.98-.063l-.113-.013v1.282l.8.075c.151.013.3.013.478.013,1.8,0,2.715-1.307,2.715-3.871V12.3H57.97a2.017,2.017,0,0,0,1.508-.616,2.748,2.748,0,0,0,1.747.616h3.042V7.8a11.69,11.69,0,0,0-.151-1.609C63.991,5.512,63.865,4.871,63.727,4.268Z" transform="translate(9.312 0.546)" fill="#1d4776"/>
            <path id="Path-32" data-name="Path" d="M66.532,11.7H63.716V3.577H62.284V11.7H60.26V13h7.68V1.44H66.532Z" transform="translate(14.815 -0.158)" fill="#1d4776"/>
            <rect id="Rectangle-18" data-name="Rectangle" width="1.433" height="11.551" transform="translate(85.231 1.282)" fill="#1d4776"/>
            <rect id="Rectangle-19" data-name="Rectangle" width="1.42" height="1.546" transform="translate(95.814 3.394)" fill="#1d4776"/>
            <path id="Path-33" data-name="Path" d="M82.626,11H78.063a7.231,7.231,0,0,1-1.772-.163,1.456,1.456,0,0,1-.855-.5,1.7,1.7,0,0,1-.251-.993,8.629,8.629,0,0,1,.088-1.106c.063-.465.088-.767.1-.88l.176-1.383-1.156-.063L74.38,6A19.655,19.655,0,0,0,73.89,9.6a2.6,2.6,0,0,0,.427,1.584,2.313,2.313,0,0,0,1.345.842,9.486,9.486,0,0,0,2.426.251h5.983V4.16H82.638V11Z" transform="translate(18.317 0.541)" fill="#1d4776"/>
            <rect id="Rectangle-20" data-name="Rectangle" width="1.42" height="1.546" transform="translate(97.787 3.394)" fill="#1d4776"/>
            <path id="Path-34" data-name="Path" d="M97.278,5.97H93.633l.515-1.018c.189-.377.4-.754.654-1.169.239-.377.591-.93,1.094-1.672l.063-.1L94.915,1.42l-.063.075c-.39.478-.779.993-1.169,1.533a9.773,9.773,0,0,0-.867,1.4L91.962,6.1l.88,1.181h4.336a1.136,1.136,0,0,1,1.081.654,3.48,3.48,0,0,1,.339,1.6v2.187H85.363V1.458H83.93V13.009h16.1V9.54a4.6,4.6,0,0,0-.654-2.552A2.322,2.322,0,0,0,97.278,5.97Z" transform="translate(20.896 -0.163)" fill="#1d4776"/>
            <rect id="Rectangle-21" data-name="Rectangle" width="1.433" height="11.551" transform="translate(123.089 1.282)" fill="#1d4776"/>
            <rect id="Rectangle-22" data-name="Rectangle" width="1.42" height="1.546" transform="translate(140.685 1.936)" fill="#1d4776"/>
            <rect id="Rectangle-23" data-name="Rectangle" width="1.408" height="1.496" transform="translate(141.678)" fill="#1d4776"/>
            <rect id="Rectangle-24" data-name="Rectangle" width="1.42" height="1.546" transform="translate(142.659 1.936)" fill="#1d4776"/>
            <path id="Path-35" data-name="Path" d="M130.482,1.44V11.7h-3.733V1.44h-1.433V11.7H122.1V8.5a11.69,11.69,0,0,0-.151-1.609c-.1-.666-.214-1.32-.352-1.923l-.025-.088-1.207.063.013.113c.075.654.138,1.244.2,1.823a14.744,14.744,0,0,1,.088,1.5V11.7h-1.546a1.659,1.659,0,0,1-.679-.151,1.879,1.879,0,0,1-.515-.314,5.813,5.813,0,0,0,.2-1.634V5.688h-1.433V9.622a3.211,3.211,0,0,1-.314,1.521,1,1,0,0,1-.955.566h-1.458V5.688h-1.433v6.021h-7.491V4.922h-1.433v8.459a3.254,3.254,0,0,1-.364,1.684,1.17,1.17,0,0,1-1.081.578c-.126,0-.427-.025-.98-.063l-.113-.013V16.85l.8.075c.151.013.3.013.478.013,1.8,0,2.715-1.307,2.715-3.871V13h10.759a2.017,2.017,0,0,0,1.508-.616,2.748,2.748,0,0,0,1.747.616H131.94V1.453h-1.458Z" transform="translate(25.299 -0.158)" fill="#1d4776"/>
          </g>
          <path id="Path-36" data-name="Path" d="M188.455,9.866a6.076,6.076,0,0,0-1.785-.641,11.949,11.949,0,0,1-1.76-.49,1.61,1.61,0,0,1-.779-.578,1.929,1.929,0,0,1-.226-1.031c0-1.194.792-1.785,2.363-1.785.553,0,1.6.088,3.117.264l.113-1.031a22.871,22.871,0,0,0-3.306-.314c-2.35,0-3.519.98-3.519,2.941A3.228,3.228,0,0,0,183,8.76a2.272,2.272,0,0,0,1.056.93,8.552,8.552,0,0,0,2.011.616,6.5,6.5,0,0,1,1.471.478,1.688,1.688,0,0,1,.742.666,2.018,2.018,0,0,1,.226,1.006,2.725,2.725,0,0,1-.6,1.823,2.141,2.141,0,0,1-1.735.716l-4.173-.013a3.231,3.231,0,0,1-1.433-.314,2.607,2.607,0,0,1-1.043-.9,2.306,2.306,0,0,1-.39-1.332,25.281,25.281,0,0,1,.352-3.029l-1.156-.189a25.839,25.839,0,0,0-.415,3.494,2.949,2.949,0,0,0,.553,1.747,3.637,3.637,0,0,0,1.5,1.194,4.975,4.975,0,0,0,2.1.427h4.148a3.306,3.306,0,0,0,2.589-1.006,3.881,3.881,0,0,0,.9-2.7,3.378,3.378,0,0,0-.3-1.521A2.2,2.2,0,0,0,188.455,9.866Z" transform="translate(45.09 0.567)" fill="#292323"/>
          <rect id="Rectangle-25" data-name="Rectangle" width="1.257" height="1.332" transform="translate(227.311 17.785)" fill="#292323"/>
          <rect id="Rectangle-26" data-name="Rectangle" width="1.257" height="1.332" transform="translate(229.285 17.785)" fill="#292323"/>
          <path id="Path-37" data-name="Path" d="M191.493,4a8.066,8.066,0,0,0-.93.063,3.5,3.5,0,0,0-.641.126l.075.9h1.282a2.846,2.846,0,0,1,2.124.943,4.7,4.7,0,0,1,.9,3.281v1.835H189.18v1.094h6.347V9.279a5.838,5.838,0,0,0-1.156-4.035A3.787,3.787,0,0,0,191.493,4Z" transform="translate(47.985 0.5)" fill="#292323"/>
          <path id="Shape-4" data-name="Shape" d="M263.644,11.769h-7.3V8.463a11.534,11.534,0,0,0-.151-1.6c-.1-.679-.214-1.307-.352-1.91l-.993.05c.075.616.138,1.219.2,1.823a14.77,14.77,0,0,1,.088,1.508v3.431h-1.659a1.705,1.705,0,0,1-.729-.163,3.325,3.325,0,0,1-.6-.365,5.546,5.546,0,0,0,.226-1.672V5.761h-1.219V9.582a3.424,3.424,0,0,1-.327,1.571,1.1,1.1,0,0,1-1.043.628h-1.559V5.761H247v6.021H237.35a5.136,5.136,0,0,1-1.923-.377,7.307,7.307,0,0,0,1.433-1.42,6.93,6.93,0,0,0,.918-1.584,4.448,4.448,0,0,0,.352-1.4l.05-1.119a8.681,8.681,0,0,0-3.934-1.056,8.379,8.379,0,0,0-3.9,1.056L230.4,7a5.066,5.066,0,0,0,.754,2.225,7.521,7.521,0,0,0,1.948,2.2,5.485,5.485,0,0,1-1.923.365H202.358V4.981c-.39-.075-.88-.138-1.483-.2a15.045,15.045,0,0,0-1.521-.1,3.9,3.9,0,0,0-2.074.478,2.484,2.484,0,0,0-1.031,1.408,8.362,8.362,0,0,0-.289,2.388,6.15,6.15,0,0,0,.566,2.828,2.319,2.319,0,0,0,2.288,1.094h2.325a6.111,6.111,0,0,1-.2,1.823,1.432,1.432,0,0,1-.54.817,1.707,1.707,0,0,1-.892.2,15.969,15.969,0,0,1-2.3-.226V16.57a18.241,18.241,0,0,0,2.388.239,2.217,2.217,0,0,0,2.011-.968,5.955,5.955,0,0,0,.729-2.954h28.846a6.194,6.194,0,0,0,1.571-.2,7.531,7.531,0,0,0,1.471-.528,6.21,6.21,0,0,0,1.5.54,7.2,7.2,0,0,0,1.609.189h12.8a1.884,1.884,0,0,0,1.5-.666,2.666,2.666,0,0,0,1.747.666h11.45V1.55h-1.219V11.769Zm-62.493,0h-1.86a1.7,1.7,0,0,1-1.672-.792,4.452,4.452,0,0,1-.415-2.061,6.161,6.161,0,0,1,.214-1.76,1.847,1.847,0,0,1,.754-1.043,2.688,2.688,0,0,1,1.5-.352,11.354,11.354,0,0,1,1.483.113v5.895Zm33.094-.955a6.392,6.392,0,0,1-1.948-1.9,4.354,4.354,0,0,1-.729-2.426,6.487,6.487,0,0,1,5.354,0,4.358,4.358,0,0,1-.742,2.413A6.527,6.527,0,0,1,234.245,10.813Z" transform="translate(49.727 -0.13)" fill="#292323"/>
          <rect id="Rectangle-27" data-name="Rectangle" width="1.257" height="11.337" transform="translate(317.431 1.395)" fill="#292323"/>
          <rect id="Rectangle-28" data-name="Rectangle" width="1.257" height="1.332" transform="translate(326.72 2.036)" fill="#292323"/>
          <path id="Path-38" data-name="Path" d="M282.354,6.045h-3.821l.6-1.169c.2-.39.427-.779.666-1.181s.6-.955,1.093-1.684l-.867-.49c-.39.478-.779.98-1.156,1.521a12.048,12.048,0,0,0-.867,1.383l-.817,1.609.8,1.094h4.273a1.26,1.26,0,0,1,1.181.716,3.536,3.536,0,0,1,.352,1.647v2.288H262.193V4.989h-1.219v8.358a3.272,3.272,0,0,1-.39,1.747,1.309,1.309,0,0,1-1.181.628c-.138,0-.465-.025-.993-.063v1.068l.327.038a2.972,2.972,0,0,0,.377.025c.138.013.3.013.465.013,1.735,0,2.6-1.257,2.6-3.758V12.87h22.825V9.5a4.478,4.478,0,0,0-.641-2.5A2.263,2.263,0,0,0,282.354,6.045Z" transform="translate(65.771 -0.137)" fill="#292323"/>
          <path id="Shape-5" data-name="Shape" d="M308.009,11.771h-7.1a1.6,1.6,0,0,1-1.269-.6V8.905a4.423,4.423,0,0,0-.918-3.155,3.814,3.814,0,0,0-2.841-.943,8.589,8.589,0,0,0-1.533.138,5.885,5.885,0,0,0-1.106.289,16.865,16.865,0,0,0-.289,1.684,16.5,16.5,0,0,0-.126,2.1,16.755,16.755,0,0,0,.226,2.765h-8.459V5h-1.219v8.358a3.273,3.273,0,0,1-.39,1.747,1.3,1.3,0,0,1-1.181.628c-.138,0-.465-.025-.993-.063v1.068l.327.038a2.927,2.927,0,0,0,.364.025c.138.013.3.013.465.013,1.735,0,2.6-1.257,2.6-3.758v-.176H299.6v-.616a2.417,2.417,0,0,0,.628.452,1.425,1.425,0,0,0,.641.163h8.308V1.54h-1.219V11.771Zm-9.578,0h-4.16c-.05-.3-.1-.716-.151-1.219s-.076-1.018-.076-1.546a16.8,16.8,0,0,1,.251-2.954,5.608,5.608,0,0,1,1.37-.163,2.825,2.825,0,0,1,2.074.691,3.239,3.239,0,0,1,.679,2.313v2.878Z" transform="translate(71.526 -0.132)" fill="#292323"/>
          <rect id="Rectangle-29" data-name="Rectangle" width="1.257" height="11.337" transform="translate(383.595 1.395)" fill="#292323"/>
        </g>
        <g id="Group_55016" data-name="Group 55016" transform="translate(0 24.761)">
          <path id="Path-39" data-name="Path" d="M4.519,10.755c1.735,0,2.9-.7,2.9-2.086,0-1.257-1.018-1.848-2.589-2.275l-.867-.239C1.955,5.577.987,4.5.987,3c0-1.848,1.684-2.79,3.7-2.79A7.433,7.433,0,0,1,8.453,1.2L7.937,2.234a6.239,6.239,0,0,0-3.281-.918c-1.282,0-2.426.5-2.426,1.647,0,1.081.742,1.659,2.174,2.086l.93.264c1.709.478,3.331,1.4,3.331,3.331,0,2.086-1.621,3.23-4.135,3.23A7.846,7.846,0,0,1,.66,10.881l.528-1.043A6.723,6.723,0,0,0,4.519,10.755Z" transform="translate(-0.66 -0.097)" fill="#292323"/>
          <path id="Shape-6" data-name="Shape" d="M8.65,8.685c0-1.772,1.508-2.526,3.746-2.526a13.1,13.1,0,0,1,1.659.138V6.121c0-1.345-.754-1.848-2.137-1.848a6.089,6.089,0,0,0-2.552.7L9.542,3.72a6.435,6.435,0,0,1,2.514-.54c1.986,0,3.13.842,3.13,2.9V10.52a8.349,8.349,0,0,1-3.042.591C10.322,11.1,8.65,10.5,8.65,8.685Zm5.4-1.32A8.242,8.242,0,0,0,12.4,7.2c-1.244,0-2.539.239-2.539,1.433,0,1.056,1.106,1.357,2.275,1.357a5.563,5.563,0,0,0,1.923-.339V7.365Z" transform="translate(1.393 0.666)" fill="#292323"/>
          <path id="Path-40" data-name="Path" d="M20.926,3.32h1.131v7.215a9.735,9.735,0,0,1-3.092.528c-1.923,0-3.205-.616-3.205-3.142V3.32h1.131V7.443c0,2,.515,2.514,2.074,2.514a7.043,7.043,0,0,0,1.961-.289V3.32Z" transform="translate(3.219 0.702)" fill="#292323"/>
          <path id="Shape-7" data-name="Shape" d="M28.21.34h1.131V11.451a9.868,9.868,0,0,1-2.652.377c-2.916,0-4.4-1.735-4.4-3.934s1.508-4,4.349-4a9.741,9.741,0,0,1,1.584.163V.34ZM26.664,10.722a7.33,7.33,0,0,0,1.546-.214V5.2a6.287,6.287,0,0,0-1.546-.214c-2.074,0-3.167,1.094-3.167,2.891S24.6,10.722,26.664,10.722Z" transform="translate(4.897 -0.063)" fill="#292323"/>
          <path id="Shape-8" data-name="Shape" d="M31.474,1.484a.793.793,0,0,1-1.584,0,.793.793,0,0,1,1.584,0Zm-1.37,2.5h1.131v7.592H30.1Z" transform="translate(6.849 0.037)" fill="#292323"/>
          <path id="Path-41" data-name="Path" d="M37.527,6.027a4.427,4.427,0,0,0,4.55,4.726,6.02,6.02,0,0,0,3.167-.867l.478,1.018a7.132,7.132,0,0,1-3.67.955A5.545,5.545,0,0,1,36.27,6.039,5.545,5.545,0,0,1,42.052.22a7.217,7.217,0,0,1,3.67.93l-.478,1.018a6.05,6.05,0,0,0-3.167-.855A4.409,4.409,0,0,0,37.527,6.027Z" transform="translate(8.488 -0.094)" fill="#292323"/>
          <path id="Shape-9" data-name="Shape" d="M51.354,9.3l.515,1.018a6.227,6.227,0,0,1-3.167.779A3.872,3.872,0,0,1,44.73,7.122,3.858,3.858,0,0,1,48.639,3.15c2.212,0,3.8,1.546,3.771,4.273H45.9a2.66,2.66,0,0,0,2.8,2.552A4.661,4.661,0,0,0,51.354,9.3ZM45.962,6.443h5.216a2.349,2.349,0,0,0-2.539-2.162A2.51,2.51,0,0,0,45.962,6.443Z" transform="translate(10.662 0.658)" fill="#292323"/>
          <path id="Path-42" data-name="Path" d="M52.34,3.525a18.816,18.816,0,0,1,3.218-.365c1.923,0,3.293.616,3.293,3.142V10.94H57.72V6.78c0-2-.792-2.514-2.237-2.514a10.562,10.562,0,0,0-2.011.226v6.46H52.34Z" transform="translate(12.617 0.661)" fill="#292323"/>
          <path id="Path-43" data-name="Path" d="M58.71,3.9h1.6V1.07h1.131V3.9h3.13V4.966h-3.13V8.511c0,1.433.452,1.91,1.722,1.91h1.483v1.056h-1.5c-1.785,0-2.841-.6-2.841-2.464V4.954h-1.6V3.9Z" transform="translate(14.253 0.124)" fill="#292323"/>
          <path id="Shape-10" data-name="Shape" d="M70.824,9.3l.515,1.018a6.227,6.227,0,0,1-3.167.779A3.872,3.872,0,0,1,64.2,7.122,3.858,3.858,0,0,1,68.109,3.15c2.212,0,3.8,1.546,3.771,4.273H65.369a2.66,2.66,0,0,0,2.8,2.552A4.69,4.69,0,0,0,70.824,9.3ZM65.432,6.443h5.216a2.349,2.349,0,0,0-2.539-2.162A2.494,2.494,0,0,0,65.432,6.443Z" transform="translate(15.664 0.658)" fill="#292323"/>
          <path id="Path-44" data-name="Path" d="M75.744,4.361H74.625a6.258,6.258,0,0,0-1.684.239v6.31H71.81V3.632a12.487,12.487,0,0,1,2.6-.352h1.345V4.361Z" transform="translate(17.619 0.692)" fill="#292323"/>
          <path id="Path-45" data-name="Path" d="M80.17,11.675V.35h6.674V1.456H81.339v3.8h4.952V6.371H81.339v5.3Z" transform="translate(19.767 -0.061)" fill="#292323"/>
          <path id="Shape-11" data-name="Shape" d="M86.03,7.144a3.947,3.947,0,1,1,7.893,0,3.947,3.947,0,1,1-7.893,0Zm6.674,0a2.743,2.743,0,1,0-5.48,0,2.742,2.742,0,1,0,5.48,0Z" transform="translate(21.272 0.661)" fill="#292323"/>
          <path id="Path-46" data-name="Path" d="M97.764,4.361H96.645a6.257,6.257,0,0,0-1.684.239v6.31H93.83V3.632a12.486,12.486,0,0,1,2.6-.352h1.345V4.361Z" transform="translate(23.276 0.692)" fill="#292323"/>
          <path id="Path-47" data-name="Path" d="M102.19,11.675V.35h1.169V11.675Z" transform="translate(25.424 -0.061)" fill="#292323"/>
          <path id="Path-48" data-name="Path" d="M105.54,3.525a18.816,18.816,0,0,1,3.218-.365c1.923,0,3.293.616,3.293,3.142V10.94H110.92V6.78c0-2-.792-2.514-2.237-2.514a10.562,10.562,0,0,0-2.011.226v6.46H105.54Z" transform="translate(26.284 0.661)" fill="#292323"/>
          <path id="Path-49" data-name="Path" d="M111.91,3.9h1.6V1.07h1.131V3.9h3.13V4.966h-3.13V8.511c0,1.433.452,1.91,1.722,1.91h1.483v1.056h-1.5c-1.785,0-2.841-.6-2.841-2.464V4.954h-1.6V3.9Z" transform="translate(27.921 0.124)" fill="#292323"/>
          <path id="Shape-12" data-name="Shape" d="M124.014,9.3l.515,1.018a6.227,6.227,0,0,1-3.167.779,3.872,3.872,0,0,1-3.972-3.972A3.858,3.858,0,0,1,121.3,3.15c2.212,0,3.8,1.546,3.771,4.273h-6.511a2.66,2.66,0,0,0,2.8,2.552A4.661,4.661,0,0,0,124.014,9.3Zm-5.392-2.853h5.216A2.349,2.349,0,0,0,121.3,4.281,2.5,2.5,0,0,0,118.622,6.443Z" transform="translate(29.329 0.658)" fill="#292323"/>
          <path id="Path-50" data-name="Path" d="M128.934,4.361h-1.119a6.258,6.258,0,0,0-1.684.239v6.31H125V3.632a12.486,12.486,0,0,1,2.6-.352h1.345V4.361Z" transform="translate(31.284 0.692)" fill="#292323"/>
          <path id="Path-51" data-name="Path" d="M129.55,3.525a18.815,18.815,0,0,1,3.218-.365c1.923,0,3.293.616,3.293,3.142V10.94H134.93V6.78c0-2-.792-2.514-2.237-2.514a10.563,10.563,0,0,0-2.011.226v6.46H129.55Z" transform="translate(32.453 0.661)" fill="#292323"/>
          <path id="Shape-13" data-name="Shape" d="M136.43,8.685c0-1.772,1.508-2.526,3.746-2.526a13.1,13.1,0,0,1,1.659.138V6.121c0-1.345-.754-1.848-2.137-1.848a6.089,6.089,0,0,0-2.552.7l.176-1.257a6.435,6.435,0,0,1,2.514-.54c1.986,0,3.13.842,3.13,2.9V10.52a8.349,8.349,0,0,1-3.042.591C138.114,11.1,136.43,10.5,136.43,8.685Zm5.4-1.32a8.243,8.243,0,0,0-1.659-.163c-1.244,0-2.539.239-2.539,1.433,0,1.056,1.106,1.357,2.275,1.357a5.563,5.563,0,0,0,1.923-.339Z" transform="translate(34.22 0.666)" fill="#292323"/>
          <path id="Path-52" data-name="Path" d="M142.83,3.9h1.6V1.07h1.131V3.9h3.13V4.966h-3.13V8.511c0,1.433.452,1.91,1.722,1.91h1.483v1.056h-1.5c-1.785,0-2.841-.6-2.841-2.464V4.954h-1.6V3.9Z" transform="translate(35.864 0.124)" fill="#292323"/>
          <path id="Shape-14" data-name="Shape" d="M150.594,1.484a.793.793,0,0,1-1.584,0,.793.793,0,0,1,1.584,0Zm-1.37,2.5h1.131v7.592h-1.131Z" transform="translate(37.452 0.037)" fill="#292323"/>
          <path id="Shape-15" data-name="Shape" d="M151.59,7.144a3.947,3.947,0,1,1,7.893,0,3.947,3.947,0,1,1-7.893,0Zm6.674,0a2.743,2.743,0,1,0-5.48,0,2.742,2.742,0,1,0,5.48,0Z" transform="translate(38.115 0.661)" fill="#292323"/>
          <path id="Path-53" data-name="Path" d="M159.39,3.525a18.816,18.816,0,0,1,3.218-.365c1.923,0,3.293.616,3.293,3.142V10.94H164.77V6.78c0-2-.792-2.514-2.237-2.514a10.563,10.563,0,0,0-2.011.226v6.46H159.39V3.525Z" transform="translate(40.119 0.661)" fill="#292323"/>
          <path id="Shape-16" data-name="Shape" d="M166.27,8.685c0-1.772,1.508-2.526,3.746-2.526a13.1,13.1,0,0,1,1.659.138V6.121c0-1.345-.754-1.848-2.137-1.848a6.088,6.088,0,0,0-2.551.7l.176-1.257a6.435,6.435,0,0,1,2.514-.54c1.986,0,3.13.842,3.13,2.9V10.52a8.349,8.349,0,0,1-3.042.591C167.942,11.1,166.27,10.5,166.27,8.685Zm5.4-1.32a8.243,8.243,0,0,0-1.659-.163c-1.244,0-2.539.239-2.539,1.433,0,1.056,1.106,1.357,2.275,1.357a5.564,5.564,0,0,0,1.923-.339Z" transform="translate(41.886 0.666)" fill="#292323"/>
          <path id="Path-54" data-name="Path" d="M173.59,11.675V.35h1.131V11.675Z" transform="translate(43.767 -0.061)" fill="#292323"/>
          <g id="Group_55015" data-name="Group 55015" transform="translate(225.137 0)">
            <path id="Path-55" data-name="Path" d="M5.644,5.223l-.93-.264c-1.5-.44-2.1-1.006-2.1-1.973,0-1.131,1.194-1.546,2.325-1.546a6.06,6.06,0,0,1,3.218.9l.1.063.616-1.232-.088-.05A7.563,7.563,0,0,0,4.953.12c-1.885,0-3.8.892-3.8,2.9,0,1.584,1.031,2.69,3.054,3.255l.867.239c1.785.49,2.5,1.119,2.5,2.174,0,1.257-1.018,1.973-2.8,1.973a6.453,6.453,0,0,1-3.268-.918l-.1-.063L.78,10.929l.088.05A8.033,8.033,0,0,0,4.79,11.985c2.652,0,4.248-1.244,4.248-3.331C9.05,7.008,7.907,5.851,5.644,5.223Z" transform="translate(-0.78 -0.12)" fill="#1d4776"/>
            <path id="Path-56" data-name="Path" d="M11.231,8.534V5.09h3.13V3.808h-3.13V.98H9.886V3.808H8.29V5.09h1.6V9.049c0,1.772.9,2.564,2.941,2.564h1.609V10.331H12.853C11.621,10.344,11.231,9.9,11.231,8.534Z" transform="translate(1.149 0.101)" fill="#1d4776"/>
            <path id="Path-57" data-name="Path" d="M14.728,3.552l-.088.025v7.479h1.345V4.708a6.9,6.9,0,0,1,1.584-.2H18.8V3.2H17.355A12.3,12.3,0,0,0,14.728,3.552Z" transform="translate(2.781 0.671)" fill="#1d4776"/>
            <path id="Shape-17" data-name="Shape" d="M22.3,3.08a6.58,6.58,0,0,0-2.552.553l-.063.025-.226,1.533.189-.1A6.127,6.127,0,0,1,22.164,4.4c1.408,0,2.024.54,2.024,1.735V6.2a12.4,12.4,0,0,0-1.559-.126c-2.489,0-3.859.93-3.859,2.64,0,1.609,1.307,2.526,3.595,2.526a8.508,8.508,0,0,0,3.092-.591l.063-.025V6.109C25.545,4.06,24.476,3.08,22.3,3.08Zm1.885,4.4V9.6a5.771,5.771,0,0,1-1.823.3c-.993,0-2.174-.214-2.174-1.244,0-.892.792-1.332,2.438-1.332A8.4,8.4,0,0,1,24.187,7.479Z" transform="translate(3.842 0.64)" fill="#1d4776"/>
            <path id="Path-58" data-name="Path" d="M28.121,8.534V5.09h3.13V3.808h-3.13V.98H26.776V3.808h-1.6V5.09h1.6V9.049c0,1.772.9,2.564,2.941,2.564h1.609V10.331H29.743C28.511,10.344,28.121,9.9,28.121,8.534Z" transform="translate(5.488 0.101)" fill="#1d4776"/>
            <path id="Shape-18" data-name="Shape" d="M34.682,3.08A3.96,3.96,0,0,0,30.66,7.152a3.979,3.979,0,0,0,4.072,4.072,6.382,6.382,0,0,0,3.23-.792l.088-.05-.616-1.219-.1.063a4.882,4.882,0,0,1-2.589.679,2.548,2.548,0,0,1-2.69-2.338h6.5V7.454a4.546,4.546,0,0,0-1.169-3.331A3.737,3.737,0,0,0,34.682,3.08ZM32.131,6.348A2.422,2.422,0,0,1,34.67,4.4,2.247,2.247,0,0,1,37.1,6.348Z" transform="translate(6.896 0.64)" fill="#1d4776"/>
            <path id="Shape-19" data-name="Shape" d="M42.352,3.08c-2.74,0-4.512,1.571-4.512,4.01,0,2.464,1.747,4.06,4.449,4.06a9.288,9.288,0,0,0,1.471-.138v.138c0,1.5-1.244,1.81-2.275,1.81a6.783,6.783,0,0,1-2.652-.691l-.176-.088L38.82,13.7l.05.025a7.249,7.249,0,0,0,2.614.5c2.539,0,3.62-.968,3.62-3.243v-7.5l-.075-.025A9.981,9.981,0,0,0,42.352,3.08ZM43.76,9.641a6.011,6.011,0,0,1-1.445.189c-1.973,0-3.067-.968-3.067-2.74,0-1.735,1.094-2.69,3.067-2.69a7.22,7.22,0,0,1,1.445.189Z" transform="translate(8.741 0.64)" fill="#1d4776"/>
            <circle id="Oval" cx="1.257" cy="1.257" r="1.257" transform="translate(55.781 0.264)" fill="#1d4776"/>
            <rect id="Rectangle-30" data-name="Rectangle" width="1.345" height="7.805" transform="translate(56.36 3.909)" fill="#1d4776"/>
            <path id="Path-59" data-name="Path" d="M52.075,4.4a3.9,3.9,0,0,1,2.074.54l.1.063.591-1.232-.088-.05a5.523,5.523,0,0,0-2.69-.641,3.973,3.973,0,0,0-4.022,4.1,3.957,3.957,0,0,0,4.022,4.06,5.523,5.523,0,0,0,2.69-.641l.088-.05-.591-1.232-.1.063a3.866,3.866,0,0,1-2.074.54,2.572,2.572,0,0,1-2.627-2.74A2.59,2.59,0,0,1,52.075,4.4Z" transform="translate(11.361 0.64)" fill="#1d4776"/>
            <path id="Shape-20" data-name="Shape" d="M62.5.26H58.57V11.811h1.4V7.186h2.552c3.029,0,4.1-1.91,4.1-3.544S65.533.26,62.5.26Zm2.652,3.381c0,1.471-.98,2.212-2.929,2.212H59.965V1.567h2.262C64.163,1.58,65.156,2.271,65.156,3.641Z" transform="translate(14.067 -0.084)" fill="#1d4776"/>
            <path id="Shape-21" data-name="Shape" d="M68.762,3.08a6.58,6.58,0,0,0-2.551.553l-.063.025-.226,1.533.189-.1a6.124,6.124,0,0,1,2.5-.691c1.408,0,2.024.54,2.024,1.735V6.2a12.4,12.4,0,0,0-1.559-.126c-2.489,0-3.846.93-3.846,2.64,0,1.609,1.307,2.526,3.595,2.526a8.508,8.508,0,0,0,3.092-.591l.063-.025V6.109C72,4.06,70.949,3.08,68.762,3.08Zm1.9,4.4V9.6a5.771,5.771,0,0,1-1.823.3c-.993,0-2.174-.214-2.174-1.244,0-.892.792-1.332,2.438-1.332A8.515,8.515,0,0,1,70.66,7.479Z" transform="translate(15.778 0.64)" fill="#1d4776"/>
            <path id="Path-60" data-name="Path" d="M72.648,3.552l-.088.025v7.479H73.9V4.708a6.9,6.9,0,0,1,1.584-.2H76.72V3.2H75.275A12.3,12.3,0,0,0,72.648,3.552Z" transform="translate(17.661 0.671)" fill="#1d4776"/>
            <path id="Path-61" data-name="Path" d="M79.131,8.534V5.09h3.13V3.808h-3.13V.98H77.786V3.808h-1.6V5.09h1.6V9.049c0,1.772.9,2.564,2.941,2.564h1.609V10.331H80.753C79.521,10.344,79.131,9.9,79.131,8.534Z" transform="translate(18.593 0.101)" fill="#1d4776"/>
            <path id="Path-62" data-name="Path" d="M85.858,3.08a19.588,19.588,0,0,0-3.23.365l-.088.013v7.617h1.345V4.6a9.669,9.669,0,0,1,1.9-.2c1.307,0,2.124.4,2.124,2.4v4.273h1.345V6.323C89.264,3.445,87.442,3.08,85.858,3.08Z" transform="translate(20.225 0.64)" fill="#1d4776"/>
            <path id="Shape-22" data-name="Shape" d="M93.212,3.08A3.96,3.96,0,0,0,89.19,7.152a3.979,3.979,0,0,0,4.072,4.072,6.382,6.382,0,0,0,3.23-.792l.088-.05-.616-1.219-.1.063a4.882,4.882,0,0,1-2.589.679,2.548,2.548,0,0,1-2.69-2.338h6.5V7.454a4.546,4.546,0,0,0-1.169-3.331A3.716,3.716,0,0,0,93.212,3.08ZM90.661,6.348A2.422,2.422,0,0,1,93.2,4.4a2.247,2.247,0,0,1,2.426,1.948Z" transform="translate(21.933 0.64)" fill="#1d4776"/>
            <path id="Path-63" data-name="Path" d="M96.878,3.552l-.088.025v7.479h1.345V4.708a6.9,6.9,0,0,1,1.584-.2h1.232V3.2H99.5A12.416,12.416,0,0,0,96.878,3.552Z" transform="translate(23.885 0.671)" fill="#1d4776"/>
            <path id="Path-64" data-name="Path" d="M104.511,6.446l-.553-.113c-1.244-.264-1.609-.515-1.609-1.081,0-.742,1.006-.855,1.6-.855a5.176,5.176,0,0,1,2.526.591l.1.063.528-1.232-.088-.05a6.289,6.289,0,0,0-3.042-.679c-1.785,0-3.029.892-3.029,2.174,0,1.257.817,1.961,2.715,2.35l.616.126c1.345.277,1.621.666,1.621,1.181,0,.666-.654.993-1.948.993a5.477,5.477,0,0,1-2.539-.716l-.1-.063-.566,1.307.088.05a6.623,6.623,0,0,0,3.1.742c2.061,0,3.394-.892,3.394-2.288S106.509,6.848,104.511,6.446Z" transform="translate(24.9 0.643)" fill="#1d4776"/>
            <path id="Path-65" data-name="Path" d="M110.828,3.8a15.221,15.221,0,0,0-1.973.176V.26H107.51V11.811h1.345V5.338a9.693,9.693,0,0,1,1.91-.2c1.307,0,2.124.4,2.124,2.4v4.273h1.345V7.06C114.234,4.169,112.412,3.8,110.828,3.8Z" transform="translate(26.64 -0.084)" fill="#1d4776"/>
            <rect id="Rectangle-31" data-name="Rectangle" width="1.345" height="7.805" transform="translate(143.312 3.909)" fill="#1d4776"/>
            <circle id="Oval-2" data-name="Oval" cx="1.257" cy="1.257" r="1.257" transform="translate(142.734 0.264)" fill="#1d4776"/>
            <path id="Shape-23" data-name="Shape" d="M120.638,3.08a10.385,10.385,0,0,0-2.7.377l-.075.025V14.153H119.2V11.086a9.207,9.207,0,0,0,1.483.151c2.665,0,4.449-1.647,4.449-4.1C125.15,4.664,123.378,3.08,120.638,3.08ZM119.2,9.729V4.588a6.672,6.672,0,0,1,1.458-.189c1.973,0,3.067.968,3.067,2.727,0,1.8-1.093,2.778-3.067,2.778A6.3,6.3,0,0,1,119.2,9.729Z" transform="translate(29.298 0.64)" fill="#1d4776"/>
            <path id="Path-66" data-name="Path" d="M128.391,6.446l-.553-.113c-1.244-.264-1.609-.515-1.609-1.081,0-.742,1.006-.855,1.6-.855a5.176,5.176,0,0,1,2.526.591l.1.063.528-1.232-.088-.05a6.289,6.289,0,0,0-3.042-.679c-1.785,0-3.029.892-3.029,2.174,0,1.257.817,1.961,2.715,2.35l.616.126c1.345.277,1.621.666,1.621,1.181,0,.666-.654.993-1.948.993a5.477,5.477,0,0,1-2.539-.716l-.1-.063-.566,1.307.088.05a6.623,6.623,0,0,0,3.1.742c2.061,0,3.394-.892,3.394-2.288S130.389,6.848,128.391,6.446Z" transform="translate(31.035 0.643)" fill="#1d4776"/>
          </g>
        </g>
      </g>
    </g>
  </g>
</svg>
