<svg xmlns="http://www.w3.org/2000/svg" width="4740.103" height="4805.496" viewBox="0 0 4740.103 4805.496">
  <g id="prog-shapes" transform="translate(516.777 -4941.528) rotate(77)">
    <path id="Path_107190" data-name="Path 107190" d="M518.226,961.921,218.11,576.061l40.833-510.4V56.478A51.04,51.04,0,0,0,158.564,39.125L13.275,583.547,0,632.886l31.307,40.491,323.249,415.462a103.557,103.557,0,0,0,163.67-126.918" transform="translate(7956.375 -1873.265) rotate(-30)" fill="#ad3a74"/>
    <path id="Path_107191" data-name="Path 107191" d="M1035.656,450.067h-489.3L90.74,17.932l-5.782-5.444A51.38,51.38,0,0,0,9.079,80.541L425.564,616.117l30.963,39.811h578.451a103.27,103.27,0,0,0,0-206.54" transform="translate(6644.829 -2003.637) rotate(-30)" fill="#804d98"/>
    <path id="Path_107192" data-name="Path 107192" d="M921.388,840.36,842.443,91.778a102.658,102.658,0,1,0-204.158,21.777L706.339,762.1,49.968,851.589H43.163a51.38,51.38,0,0,0,6.805,102.079H934.657Z" transform="translate(5462.326 -1692.805) rotate(-30)" fill="#7666a1"/>
    <path id="Path_107193" data-name="Path 107193" d="M1180.193,3479.358,810.665,423.784l-6.464-52.4L757.922,346.2,153.954,13.085A103.576,103.576,0,1,0,53.239,194.106l559.392,308.62,465.483,2989.561v2.383a51.537,51.537,0,1,0,102.079-14.291" transform="translate(6303.065 -670.846) rotate(-30)" fill="#43a6c5"/>
    <path id="Path_107194" data-name="Path 107194" d="M1346.833,432.816,670.048,58.526,563.206,0,522.712,114.669,3.473,1592.1a51.436,51.436,0,1,0,95.954,37.088l0-3.062L670.048,293.648,1248.5,611.795a102.107,102.107,0,1,0,98.336-178.979" transform="translate(7902.583 -490.347) rotate(-30)" fill="#923c80"/>
  </g>
</svg>
