<svg xmlns="http://www.w3.org/2000/svg" width="193.565" height="47.725" viewBox="0 0 193.565 47.725">
  <g id="reCAPTCHA" transform="translate(0.353 0.362)">
    <g id="Group_24836" data-name="Group 24836" transform="translate(0)">
      <rect id="Rectangle_11682" data-name="Rectangle 11682" width="192.86" height="47" rx="4.03" fill="#f9f9f9"/>
      <rect id="Rectangle_11683" data-name="Rectangle 11683" width="192.222" height="46.382" rx="3.358" transform="translate(0.319 0.309)" fill="none" stroke="#d3d3d3" stroke-width="1.343"/>
    </g>
    <path id="Path_52804" data-name="Path 52804" d="M325.23,75.921a1.786,1.786,0,0,0-.284-.021.761.761,0,0,0-.77.468v2.319H323.6V75.42h.561l.009.377a.9.9,0,0,1,.8-.438.605.605,0,0,1,.256.042Z" transform="translate(-173.208 -43.889)" fill="#555"/>
    <path id="Path_52805" data-name="Path 52805" d="M329.258,78.747a1.5,1.5,0,0,1-1.115-.435,1.6,1.6,0,0,1-.43-1.169v-.1a1.911,1.911,0,0,1,.19-.867,1.465,1.465,0,0,1,.536-.6,1.378,1.378,0,0,1,.748-.217,1.28,1.28,0,0,1,1.022.42,1.778,1.778,0,0,1,.365,1.2v.233h-2.284a1.152,1.152,0,0,0,.29.782.937.937,0,0,0,.711.3,1.028,1.028,0,0,0,.517-.121,1.284,1.284,0,0,0,.371-.32l.352.266A1.429,1.429,0,0,1,329.258,78.747Zm-.072-2.929a.777.777,0,0,0-.586.248,1.169,1.169,0,0,0-.293.688H330v-.042a1.039,1.039,0,0,0-.237-.658A.733.733,0,0,0,329.187,75.818Z" transform="translate(-175.367 -43.889)" fill="#555"/>
    <path id="Path_52806" data-name="Path 52806" d="M338.5,75.968a1.6,1.6,0,0,1-.533,1.078,1.776,1.776,0,0,1-1.187.377,1.625,1.625,0,0,1-1.29-.559,2.206,2.206,0,0,1-.483-1.495v-.423a2.452,2.452,0,0,1,.224-1.078,1.653,1.653,0,0,1,.642-.713,1.818,1.818,0,0,1,.96-.251,1.666,1.666,0,0,1,1.159.393,1.609,1.609,0,0,1,.508,1.081h-.6a1.232,1.232,0,0,0-.34-.761,1.038,1.038,0,0,0-.726-.236,1.088,1.088,0,0,0-.9.411,1.847,1.847,0,0,0-.324,1.169v.426a1.892,1.892,0,0,0,.308,1.138,1.007,1.007,0,0,0,.863.423,1.177,1.177,0,0,0,.763-.217,1.2,1.2,0,0,0,.355-.764Z" transform="translate(-179.195 -42.565)" fill="#555"/>
    <path id="Path_52807" data-name="Path 52807" d="M346.1,76.287h-1.9l-.427,1.147h-.617l1.732-4.4h.523l1.735,4.4h-.614Zm-1.72-.477h1.542l-.772-2.056Z" transform="translate(-183.475 -42.636)" fill="#555"/>
    <path id="Path_52808" data-name="Path 52808" d="M353.443,75.713v1.721h-.6v-4.4h1.673a1.709,1.709,0,0,1,1.165.368,1.23,1.23,0,0,1,.424.975,1.216,1.216,0,0,1-.415.987,1.792,1.792,0,0,1-1.18.344Zm0-.474h1.075a1.105,1.105,0,0,0,.735-.217.793.793,0,0,0,.256-.634.814.814,0,0,0-.256-.628,1.028,1.028,0,0,0-.7-.245h-1.109Z" transform="translate(-188.56 -42.636)" fill="#555"/>
    <path id="Path_52809" data-name="Path 52809" d="M364.04,73.515h-1.458v3.92h-.6v-3.92h-1.455v-.477h3.508Z" transform="translate(-192.596 -42.636)" fill="#555"/>
    <path id="Path_52810" data-name="Path 52810" d="M372.314,75.968a1.6,1.6,0,0,1-.533,1.078,1.775,1.775,0,0,1-1.187.377,1.625,1.625,0,0,1-1.29-.559,2.206,2.206,0,0,1-.483-1.495v-.423a2.452,2.452,0,0,1,.225-1.078,1.65,1.65,0,0,1,.642-.713,1.817,1.817,0,0,1,.96-.251,1.666,1.666,0,0,1,1.159.393,1.61,1.61,0,0,1,.508,1.081h-.6a1.238,1.238,0,0,0-.34-.761,1.039,1.039,0,0,0-.726-.236,1.088,1.088,0,0,0-.9.411,1.85,1.85,0,0,0-.324,1.169v.426a1.892,1.892,0,0,0,.309,1.138,1.006,1.006,0,0,0,.863.423,1.176,1.176,0,0,0,.763-.217,1.2,1.2,0,0,0,.355-.764Z" transform="translate(-196.947 -42.565)" fill="#555"/>
    <path id="Path_52811" data-name="Path 52811" d="M381.384,77.434h-.6V75.4H378.5v2.032h-.6v-4.4h.6v1.89h2.287v-1.89h.6Z" transform="translate(-201.713 -42.636)" fill="#555"/>
    <path id="Path_52812" data-name="Path 52812" d="M389.611,76.287h-1.9l-.427,1.147h-.617l1.732-4.4h.523l1.735,4.4h-.614Zm-1.72-.477h1.542l-.773-2.056Z" transform="translate(-206.316 -42.636)" fill="#555"/>
    <path id="Path_52813" data-name="Path 52813" d="M321.818,91.548v1.377h-.478V89.408h1.338a1.367,1.367,0,0,1,.932.295,1.087,1.087,0,0,1,.008,1.57,1.434,1.434,0,0,1-.944.275Zm0-.379h.86a.883.883,0,0,0,.588-.174.633.633,0,0,0,.2-.507.65.65,0,0,0-.2-.5.821.821,0,0,0-.561-.2h-.887Z" transform="translate(-172.021 -51.469)" fill="#555"/>
    <path id="Path_52814" data-name="Path 52814" d="M329.27,91.714a1.425,1.425,0,0,0-.227-.017.609.609,0,0,0-.616.374v1.855h-.461V91.313h.449l.007.3a.724.724,0,0,1,.643-.35.484.484,0,0,1,.2.034Z" transform="translate(-175.499 -52.471)" fill="#555"/>
    <path id="Path_52815" data-name="Path 52815" d="M332.111,92.868h-.461V90.254h.461Zm-.5-3.307a.285.285,0,0,1,.476-.184.259.259,0,0,1,.07.184.251.251,0,0,1-.07.181.325.325,0,0,1-.409,0A.257.257,0,0,1,331.613,89.561Z" transform="translate(-177.414 -51.412)" fill="#555"/>
    <path id="Path_52816" data-name="Path 52816" d="M334.815,93.377l.668-2.007h.471l-.967,2.614h-.351l-.977-2.614h.471Z" transform="translate(-178.488 -52.527)" fill="#555"/>
    <path id="Path_52817" data-name="Path 52817" d="M340.921,93.927a.914.914,0,0,1-.065-.275,1.045,1.045,0,0,1-.768.324.979.979,0,0,1-.656-.217.7.7,0,0,1-.254-.556.729.729,0,0,1,.319-.633,1.545,1.545,0,0,1,.9-.227h.449v-.205a.491.491,0,0,0-.144-.372.59.59,0,0,0-.427-.14.688.688,0,0,0-.414.121.353.353,0,0,0-.167.292h-.464a.6.6,0,0,1,.142-.377.982.982,0,0,1,.389-.29,1.35,1.35,0,0,1,.541-.106,1.083,1.083,0,0,1,.73.227.8.8,0,0,1,.275.621v1.2a1.43,1.43,0,0,0,.095.573v.039Zm-.765-.341a.83.83,0,0,0,.411-.109.669.669,0,0,0,.282-.283v-.536h-.362q-.847,0-.847.481a.4.4,0,0,0,.144.329A.568.568,0,0,0,340.156,93.586Z" transform="translate(-181.386 -52.471)" fill="#555"/>
    <path id="Path_52818" data-name="Path 52818" d="M346.135,93.611a.678.678,0,0,0,.431-.145.506.506,0,0,0,.2-.362h.436a.792.792,0,0,1-.16.428,1.039,1.039,0,0,1-.393.324,1.155,1.155,0,0,1-.519.121,1.134,1.134,0,0,1-.877-.355,1.4,1.4,0,0,1-.324-.976v-.075a1.532,1.532,0,0,1,.145-.679,1.078,1.078,0,0,1,.414-.461,1.213,1.213,0,0,1,.64-.164,1.1,1.1,0,0,1,.752.263.926.926,0,0,1,.322.684h-.436a.6.6,0,0,0-.2-.415.62.62,0,0,0-.438-.164.656.656,0,0,0-.546.246,1.126,1.126,0,0,0-.192.708v.085a1.1,1.1,0,0,0,.192.7A.656.656,0,0,0,346.135,93.611Z" transform="translate(-184.407 -52.471)" fill="#555"/>
    <path id="Path_52819" data-name="Path 52819" d="M351.368,93.329,352,91.37h.494l-1.084,3.017a.851.851,0,0,1-.8.652l-.087-.007L350.346,95v-.362l.124.01a.622.622,0,0,0,.364-.092.657.657,0,0,0,.217-.336l.1-.266-.962-2.585h.5Z" transform="translate(-187.167 -52.527)" fill="#555"/>
    <path id="Path_52820" data-name="Path 52820" d="M369.185,89.789h-1.167v3.136h-.476V89.789h-1.164v-.382h2.806Z" transform="translate(-195.665 -51.469)" fill="#555"/>
    <path id="Path_52821" data-name="Path 52821" d="M373.732,93.975a1.2,1.2,0,0,1-.892-.348,1.276,1.276,0,0,1-.344-.935V92.61a1.527,1.527,0,0,1,.152-.693,1.168,1.168,0,0,1,.428-.478,1.1,1.1,0,0,1,.6-.174,1.025,1.025,0,0,1,.817.336,1.423,1.423,0,0,1,.292.961v.186h-1.827a.921.921,0,0,0,.232.626.749.749,0,0,0,.568.237.823.823,0,0,0,.414-.1,1.034,1.034,0,0,0,.3-.256l.282.213A1.144,1.144,0,0,1,373.732,93.975Zm-.057-2.343a.622.622,0,0,0-.468.2.936.936,0,0,0-.234.551h1.35v-.034a.832.832,0,0,0-.189-.527A.586.586,0,0,0,373.675,91.632Z" transform="translate(-198.877 -52.471)" fill="#555"/>
    <path id="Path_52822" data-name="Path 52822" d="M379.743,91.714a1.423,1.423,0,0,0-.227-.017.609.609,0,0,0-.616.374v1.855h-.461V91.313h.449l.007.3a.724.724,0,0,1,.643-.35.484.484,0,0,1,.2.034Z" transform="translate(-201.997 -52.471)" fill="#555"/>
    <path id="Path_52823" data-name="Path 52823" d="M382.512,91.313l.013.29a1.01,1.01,0,0,1,.8-.338.775.775,0,0,1,.77.42,1.015,1.015,0,0,1,.349-.3,1.066,1.066,0,0,1,.511-.116.809.809,0,0,1,.9.911v1.751H385.4V92.2a.584.584,0,0,0-.132-.418.591.591,0,0,0-.444-.14.619.619,0,0,0-.426.15.592.592,0,0,0-.2.4v1.734h-.464V92.214a.506.506,0,0,0-.576-.57.618.618,0,0,0-.62.374v1.908h-.461V91.313Z" transform="translate(-203.906 -52.471)" fill="#555"/>
    <path id="Path_52824" data-name="Path 52824" d="M392.951,93.234a.322.322,0,0,0-.142-.28,1.348,1.348,0,0,0-.491-.174,2.406,2.406,0,0,1-.556-.174.8.8,0,0,1-.3-.242.572.572,0,0,1-.1-.333.671.671,0,0,1,.279-.544,1.123,1.123,0,0,1,.718-.222,1.146,1.146,0,0,1,.743.229.719.719,0,0,1,.286.587h-.464a.4.4,0,0,0-.162-.316.61.61,0,0,0-.4-.133.646.646,0,0,0-.394.106.332.332,0,0,0-.142.278.269.269,0,0,0,.132.244,1.662,1.662,0,0,0,.476.157,2.534,2.534,0,0,1,.561.179.793.793,0,0,1,.316.251.591.591,0,0,1,.1.355.665.665,0,0,1-.289.563,1.245,1.245,0,0,1-.75.21,1.4,1.4,0,0,1-.573-.111.941.941,0,0,1-.391-.309.742.742,0,0,1-.14-.432h.461a.464.464,0,0,0,.184.358.748.748,0,0,0,.459.13.762.762,0,0,0,.418-.1A.316.316,0,0,0,392.951,93.234Z" transform="translate(-208.732 -52.471)" fill="#555"/>
    <path id="Path_52825" data-name="Path 52825" d="M360.629,94.073h-1.308V93.6h1.308Z" transform="translate(-191.96 -53.731)"/>
    <g id="Group_24837" data-name="Group 24837" transform="translate(162.253 8.206)">
      <path id="Path_52826" data-name="Path 52826" d="M360.773,28.131q-.13-.157-.267-.308a9.2,9.2,0,0,0-5.682-2.922,9.332,9.332,0,0,0-6.256,1.446l2.626,3.76a4.53,4.53,0,0,1,3.038-.7,4.465,4.465,0,0,1,2.758,1.419,4.3,4.3,0,0,1,.429.558l-2.325,2.253h7.726V26.147Z" transform="translate(-348.567 -24.83)" fill="#1c3aa9"/>
    </g>
    <g id="Group_24838" data-name="Group 24838" transform="translate(158.251 8.206)">
      <path id="Path_52827" data-name="Path 52827" d="M349.229,24.831H341.5l2.024,1.962a8.8,8.8,0,0,0-3.091,4.649,8.579,8.579,0,0,0,.689,6.2l4.181-2.05a4.165,4.165,0,0,1-.334-3.01,4.289,4.289,0,0,1,1.8-2.473l.106-.068,2.351,2.279Z" transform="translate(-340.144 -24.831)" fill="#4285f4"/>
    </g>
    <g id="Group_24839" data-name="Group 24839" transform="translate(158.251 17.094)">
      <path id="Path_52828" data-name="Path 52828" d="M340.144,44.134h7.726L345.536,46.4a4.392,4.392,0,0,0,2.072,1.654,4.552,4.552,0,0,0,3.122.059,4.39,4.39,0,0,0,2.384-1.956l3.379,3.267a9.094,9.094,0,0,1-4.194,2.967,9.377,9.377,0,0,1-6.431-.122,9.1,9.1,0,0,1-3.681-2.624l-2.043,1.98Z" transform="translate(-340.144 -44.134)" fill="#ababab"/>
    </g>
    <path id="Path_52829" data-name="Path 52829" d="M80.706,56.207h-.837V50.052h.837Z" transform="translate(-45.254 -30.233)"/>
    <path id="Path_52830" data-name="Path 52830" d="M84.21,51.389l-.458-.3a2,2,0,0,0,.419-1.158v-.609h.8v.55a1.9,1.9,0,0,1-.218.846A1.939,1.939,0,0,1,84.21,51.389Z" transform="translate(-47.293 -29.837)"/>
    <path id="Path_52831" data-name="Path 52831" d="M88.932,53.387l.022.507a1.768,1.768,0,0,1,1.4-.592,1.357,1.357,0,0,1,1.348.736,1.776,1.776,0,0,1,.611-.533,1.87,1.87,0,0,1,.894-.2A1.416,1.416,0,0,1,94.786,54.9v3.065h-.807V54.943a1.021,1.021,0,0,0-.231-.731,1.032,1.032,0,0,0-.776-.245,1.085,1.085,0,0,0-.746.262,1.034,1.034,0,0,0-.345.7v3.035h-.811v-3a.886.886,0,0,0-1.008-1,1.082,1.082,0,0,0-1.086.655v3.34h-.807V53.387Z" transform="translate(-49.612 -31.987)"/>
    <path id="Path_52832" data-name="Path 52832" d="M110.1,53.387l.026.575a1.74,1.74,0,0,1,1.413-.659q1.5,0,1.509,1.636v3.023h-.807V54.934A1.024,1.024,0,0,0,112,54.2a.945.945,0,0,0-.711-.237,1.19,1.19,0,0,0-.689.2,1.388,1.388,0,0,0-.462.533v3.259h-.807V53.387Z" transform="translate(-60.722 -31.987)"/>
    <path id="Path_52833" data-name="Path 52833" d="M119.259,55.632a2.647,2.647,0,0,1,.27-1.209,2.012,2.012,0,0,1,.759-.829A2.127,2.127,0,0,1,121.4,53.3a2.013,2.013,0,0,1,1.557.647,2.437,2.437,0,0,1,.6,1.721v.055a2.652,2.652,0,0,1-.266,1.2,1.949,1.949,0,0,1-.755.824,2.128,2.128,0,0,1-1.125.3,2.023,2.023,0,0,1-1.557-.647,2.435,2.435,0,0,1-.593-1.712Zm.811.093a1.92,1.92,0,0,0,.362,1.222,1.262,1.262,0,0,0,1.954,0,2.1,2.1,0,0,0,.362-1.311,1.9,1.9,0,0,0-.371-1.218,1.245,1.245,0,0,0-1.941-.008A2.077,2.077,0,0,0,120.07,55.725Z" transform="translate(-65.933 -31.987)"/>
    <path id="Path_52834" data-name="Path 52834" d="M130.9,51.08v1.108h.881v.6H130.9v2.837a.629.629,0,0,0,.117.414.51.51,0,0,0,.4.135,2.015,2.015,0,0,0,.384-.051v.634a2.409,2.409,0,0,1-.619.085,1.021,1.021,0,0,1-.816-.317,1.335,1.335,0,0,1-.275-.9V52.792h-.859v-.6h.859V51.08Z" transform="translate(-71.168 -30.788)"/>
    <path id="Path_52835" data-name="Path 52835" d="M144.013,57.961a1.6,1.6,0,0,1-.114-.482,1.827,1.827,0,0,1-1.343.567,1.713,1.713,0,0,1-1.147-.38,1.231,1.231,0,0,1-.445-.972,1.276,1.276,0,0,1,.559-1.108,2.7,2.7,0,0,1,1.579-.4h.785v-.359a.857.857,0,0,0-.253-.651,1.031,1.031,0,0,0-.746-.245,1.2,1.2,0,0,0-.724.211.618.618,0,0,0-.292.512h-.811a1.057,1.057,0,0,1,.249-.66,1.716,1.716,0,0,1,.68-.507,2.367,2.367,0,0,1,.947-.186,1.9,1.9,0,0,1,1.278.4,1.4,1.4,0,0,1,.48,1.086v2.105a2.5,2.5,0,0,0,.166,1v.068Zm-1.339-.6a1.454,1.454,0,0,0,.72-.19,1.167,1.167,0,0,0,.493-.495v-.939h-.632q-1.483,0-1.483.841a.7.7,0,0,0,.253.575A.992.992,0,0,0,142.674,57.365Z" transform="translate(-77.328 -31.987)"/>
    <path id="Path_52836" data-name="Path 52836" d="M158.423,54.089a2.485,2.485,0,0,0-.4-.03,1.066,1.066,0,0,0-1.077.655v3.247h-.807V53.387h.785l.013.528a1.265,1.265,0,0,1,1.125-.613.846.846,0,0,1,.358.059Z" transform="translate(-85.296 -31.987)"/>
    <path id="Path_52837" data-name="Path 52837" d="M161.881,55.632a2.647,2.647,0,0,1,.27-1.209,2.012,2.012,0,0,1,.759-.829,2.127,2.127,0,0,1,1.112-.292,2.013,2.013,0,0,1,1.557.647,2.435,2.435,0,0,1,.6,1.721v.055a2.653,2.653,0,0,1-.266,1.2,1.95,1.95,0,0,1-.755.824,2.128,2.128,0,0,1-1.125.3,2.023,2.023,0,0,1-1.557-.647,2.435,2.435,0,0,1-.593-1.712Zm.811.093a1.923,1.923,0,0,0,.362,1.222,1.262,1.262,0,0,0,1.954,0,2.1,2.1,0,0,0,.362-1.311A1.9,1.9,0,0,0,165,54.414a1.245,1.245,0,0,0-1.941-.008A2.077,2.077,0,0,0,162.692,55.725Z" transform="translate(-88.309 -31.987)"/>
    <path id="Path_52838" data-name="Path 52838" d="M177.05,53.575a2.669,2.669,0,0,1-.5,1.687,1.608,1.608,0,0,1-1.335.634,1.665,1.665,0,0,1-1.382-.613l-.039.528h-.742V49.317h.807V51.74a1.657,1.657,0,0,1,1.348-.588,1.611,1.611,0,0,1,1.348.63,2.729,2.729,0,0,1,.493,1.725Zm-.807-.089a2.063,2.063,0,0,0-.318-1.234,1.066,1.066,0,0,0-.916-.435,1.186,1.186,0,0,0-1.147.719v1.978a1.22,1.22,0,0,0,1.156.719,1.06,1.06,0,0,0,.9-.435A2.2,2.2,0,0,0,176.243,53.486Z" transform="translate(-94.175 -29.837)"/>
    <path id="Path_52839" data-name="Path 52839" d="M183.164,55.632a2.647,2.647,0,0,1,.271-1.209,2.011,2.011,0,0,1,.759-.829,2.128,2.128,0,0,1,1.112-.292,2.012,2.012,0,0,1,1.557.647,2.435,2.435,0,0,1,.6,1.721v.055a2.646,2.646,0,0,1-.266,1.2,1.945,1.945,0,0,1-.754.824,2.129,2.129,0,0,1-1.125.3,2.022,2.022,0,0,1-1.557-.647,2.435,2.435,0,0,1-.593-1.712Zm.811.093a1.923,1.923,0,0,0,.362,1.222,1.263,1.263,0,0,0,1.954,0,2.1,2.1,0,0,0,.362-1.311,1.893,1.893,0,0,0-.371-1.218,1.245,1.245,0,0,0-1.941-.008A2.077,2.077,0,0,0,183.975,55.725Z" transform="translate(-99.482 -31.987)"/>
    <path id="Path_52840" data-name="Path 52840" d="M194.8,51.08v1.108h.881v.6H194.8v2.837a.629.629,0,0,0,.118.414.51.51,0,0,0,.4.135,2.015,2.015,0,0,0,.384-.051v.634a2.411,2.411,0,0,1-.619.085,1.021,1.021,0,0,1-.816-.317,1.332,1.332,0,0,1-.275-.9V52.792h-.859v-.6H194V51.08Z" transform="translate(-104.717 -30.788)"/>
    <path id="Path_52841" data-name="Path 52841" d="M41,39.137H25.785a.047.047,0,0,0-.047.046V53.934a.047.047,0,0,0,.047.046H41a.047.047,0,0,0,.047-.046V39.183A.047.047,0,0,0,41,39.137ZM41,37.9H25.785a1.3,1.3,0,0,0-1.323,1.283V53.934a1.3,1.3,0,0,0,1.323,1.283H41a1.3,1.3,0,0,0,1.323-1.283V39.183A1.3,1.3,0,0,0,41,37.9Z" transform="translate(-16.167 -23.677)" fill="#c1c1c1" fill-rule="evenodd"/>
    <rect id="Rectangle_11684" data-name="Rectangle 11684" width="15.313" height="14.842" transform="translate(9.571 15.461)" fill="#fff"/>
  </g>
</svg>
