<svg xmlns="http://www.w3.org/2000/svg" xmlns:xlink="http://www.w3.org/1999/xlink" width="817.489" height="577" viewBox="0 0 817.489 577">
  <defs>
    <linearGradient id="linear-gradient" x1="0.076" y1="-0.211" x2="0.572" y2="-0.308" gradientUnits="objectBoundingBox">
      <stop offset="0" stop-color="#907a9b" stop-opacity="0.078"/>
      <stop offset="1" stop-color="#40274c" stop-opacity="0"/>
    </linearGradient>
  </defs>
  <g id="recruitment2" transform="translate(-976.5 -2327)">
    <path id="Rectangle_14321" data-name="Rectangle 14321" d="M268,0H802a0,0,0,0,1,0,0V536a0,0,0,0,1,0,0H268A268,268,0,0,1,0,268v0A268,268,0,0,1,268,0Z" transform="translate(977 2368)" fill="url(#linear-gradient)"/>
    <g id="Artwork_3" data-name="Artwork 3" transform="translate(977 2327)">
      <g id="Group_56773" data-name="Group 56773">
        <g id="_19" data-name="19">
          <g id="Group_56753" data-name="Group 56753" transform="translate(0 158.567)">
            <path id="Path_132521" data-name="Path 132521" d="M31.211,56.055c1.426.823,1.426,2.151,0,2.974a5.723,5.723,0,0,1-5.147,0c-1.419-.823-1.419-2.151,0-2.974A5.676,5.676,0,0,1,31.211,56.055Z" transform="translate(163.679 155.467)" fill="rgba(25,41,70,0.41)" stroke="rgba(0,0,0,0)" stroke-width="1"/>
            <ellipse id="Ellipse_11410" data-name="Ellipse 11410" cx="3.64" cy="2.102" rx="3.64" ry="2.102" transform="translate(202.137 203.134)" fill="rgba(25,41,70,0.41)" stroke="rgba(0,0,0,0)" stroke-width="1"/>
            <ellipse id="Ellipse_11411" data-name="Ellipse 11411" cx="3.64" cy="2.101" rx="3.64" ry="2.101" transform="translate(175.217 203.134)" fill="rgba(25,41,70,0.41)" stroke="rgba(0,0,0,0)" stroke-width="1"/>
            <path id="Path_132522" data-name="Path 132522" d="M31.211,53.99c1.426.823,1.426,2.151,0,2.974a5.676,5.676,0,0,1-5.147,0c-1.419-.823-1.419-2.151,0-2.974A5.723,5.723,0,0,1,31.211,53.99Z" transform="translate(163.679 141.985)" fill="rgba(25,41,70,0.41)" stroke="rgba(0,0,0,0)" stroke-width="1"/>
            <path id="Path_132523" data-name="Path 132523" d="M27.644,53.99c1.426.823,1.426,2.151,0,2.974a5.676,5.676,0,0,1-5.147,0c-1.419-.823-1.419-2.151,0-2.974A5.723,5.723,0,0,1,27.644,53.99Z" transform="translate(140.325 141.985)" fill="rgba(25,41,70,0.41)" stroke="rgba(0,0,0,0)" stroke-width="1"/>
            <ellipse id="Ellipse_11412" data-name="Ellipse 11412" cx="3.64" cy="2.102" rx="3.64" ry="2.102" transform="translate(175.217 187.591)" fill="rgba(25,41,70,0.41)" stroke="rgba(0,0,0,0)" stroke-width="1"/>
            <ellipse id="Ellipse_11413" data-name="Ellipse 11413" cx="3.641" cy="2.102" rx="3.641" ry="2.102" transform="translate(148.296 187.591)" fill="rgba(25,41,70,0.41)" stroke="rgba(0,0,0,0)" stroke-width="1"/>
            <ellipse id="Ellipse_11414" data-name="Ellipse 11414" cx="3.64" cy="2.102" rx="3.64" ry="2.102" transform="translate(161.757 179.821)" fill="rgba(25,41,70,0.41)" stroke="rgba(0,0,0,0)" stroke-width="1"/>
            <path id="Path_132524" data-name="Path 132524" d="M24.077,51.936c1.426.823,1.426,2.151,0,2.974a5.676,5.676,0,0,1-5.147,0c-1.419-.823-1.419-2.151,0-2.974A5.676,5.676,0,0,1,24.077,51.936Z" transform="translate(116.971 128.499)" fill="rgba(25,41,70,0.41)" stroke="rgba(0,0,0,0)" stroke-width="1"/>
            <path id="Path_132525" data-name="Path 132525" d="M25.866,50.9c1.419.823,1.419,2.151,0,2.974a5.676,5.676,0,0,1-5.147,0c-1.426-.823-1.426-2.151,0-2.974A5.723,5.723,0,0,1,25.866,50.9Z" transform="translate(128.647 121.761)" fill="rgba(25,41,70,0.41)" stroke="rgba(0,0,0,0)" stroke-width="1"/>
            <ellipse id="Ellipse_11415" data-name="Ellipse 11415" cx="3.641" cy="2.102" rx="3.641" ry="2.102" transform="translate(121.259 171.967)" fill="rgba(25,41,70,0.41)" stroke="rgba(0,0,0,0)" stroke-width="1"/>
            <path id="Path_132526" data-name="Path 132526" d="M24.067,49.866c1.419.815,1.419,2.151,0,2.974a5.723,5.723,0,0,1-5.147,0c-1.426-.823-1.426-2.158,0-2.974A5.676,5.676,0,0,1,24.067,49.866Z" transform="translate(116.868 114.947)" fill="rgba(25,41,70,0.41)" stroke="rgba(0,0,0,0)" stroke-width="1"/>
            <ellipse id="Ellipse_11416" data-name="Ellipse 11416" cx="3.641" cy="2.102" rx="3.641" ry="2.102" transform="translate(107.798 164.196)" fill="rgba(25,41,70,0.41)" stroke="rgba(0,0,0,0)" stroke-width="1"/>
            <path id="Path_132527" data-name="Path 132527" d="M22.278,48.836c1.426.823,1.426,2.151,0,2.974a5.676,5.676,0,0,1-5.147,0c-1.419-.823-1.419-2.151,0-2.974A5.676,5.676,0,0,1,22.278,48.836Z" transform="translate(105.193 108.203)" fill="rgba(25,41,70,0.41)" stroke="rgba(0,0,0,0)" stroke-width="1"/>
            <path id="Path_132528" data-name="Path 132528" d="M18.711,48.836c1.426.823,1.426,2.151,0,2.974a5.676,5.676,0,0,1-5.147,0c-1.419-.823-1.419-2.151,0-2.974A5.676,5.676,0,0,1,18.711,48.836Z" transform="translate(81.839 108.203)" fill="rgba(25,41,70,0.41)" stroke="rgba(0,0,0,0)" stroke-width="1"/>
            <path id="Path_132529" data-name="Path 132529" d="M20.5,47.8c1.419.823,1.419,2.151,0,2.974a5.676,5.676,0,0,1-5.147,0c-1.426-.823-1.426-2.151,0-2.974A5.723,5.723,0,0,1,20.5,47.8Z" transform="translate(93.515 101.464)" fill="rgba(25,41,70,0.41)" stroke="rgba(0,0,0,0)" stroke-width="1"/>
            <path id="Path_132530" data-name="Path 132530" d="M16.933,47.8c1.419.823,1.419,2.151,0,2.974a5.676,5.676,0,0,1-5.147,0c-1.426-.823-1.426-2.151,0-2.974A5.723,5.723,0,0,1,16.933,47.8Z" transform="translate(70.161 101.464)" fill="rgba(25,41,70,0.41)" stroke="rgba(0,0,0,0)" stroke-width="1"/>
            <ellipse id="Ellipse_11417" data-name="Ellipse 11417" cx="3.64" cy="2.102" rx="3.64" ry="2.102" transform="translate(94.339 140.882)" fill="rgba(25,41,70,0.41)" stroke="rgba(0,0,0,0)" stroke-width="1"/>
            <path id="Path_132531" data-name="Path 132531" d="M15.144,46.777c1.426.815,1.426,2.151,0,2.966a5.676,5.676,0,0,1-5.147,0c-1.419-.815-1.419-2.151,0-2.966A5.676,5.676,0,0,1,15.144,46.777Z" transform="translate(58.486 94.722)" fill="rgba(25,41,70,0.41)" stroke="rgba(0,0,0,0)" stroke-width="1"/>
            <path id="Path_132532" data-name="Path 132532" d="M16.933,45.747c1.419.823,1.419,2.151,0,2.974a5.723,5.723,0,0,1-5.147,0c-1.426-.823-1.426-2.151,0-2.974A5.676,5.676,0,0,1,16.933,45.747Z" transform="translate(70.161 87.979)" fill="rgba(25,41,70,0.41)" stroke="rgba(0,0,0,0)" stroke-width="1"/>
            <path id="Path_132533" data-name="Path 132533" d="M13.366,45.747c1.419.823,1.419,2.151,0,2.974a5.723,5.723,0,0,1-5.147,0c-1.426-.823-1.426-2.151,0-2.974A5.676,5.676,0,0,1,13.366,45.747Z" transform="translate(46.807 87.979)" fill="rgba(25,41,70,0.41)" stroke="rgba(0,0,0,0)" stroke-width="1"/>
            <path id="Path_132534" data-name="Path 132534" d="M15.144,44.712c1.426.823,1.426,2.151,0,2.974a5.676,5.676,0,0,1-5.147,0c-1.419-.823-1.419-2.151,0-2.974A5.723,5.723,0,0,1,15.144,44.712Z" transform="translate(58.486 81.24)" fill="rgba(25,41,70,0.41)" stroke="rgba(0,0,0,0)" stroke-width="1"/>
            <path id="Path_132535" data-name="Path 132535" d="M11.577,44.712c1.426.823,1.426,2.151,0,2.974a5.676,5.676,0,0,1-5.147,0c-1.419-.823-1.419-2.151,0-2.974A5.723,5.723,0,0,1,11.577,44.712Z" transform="translate(35.132 81.24)" fill="rgba(25,41,70,0.41)" stroke="rgba(0,0,0,0)" stroke-width="1"/>
            <path id="Path_132536" data-name="Path 132536" d="M13.366,43.688c1.419.815,1.419,2.151,0,2.966a5.676,5.676,0,0,1-5.147,0c-1.426-.815-1.426-2.151,0-2.966A5.676,5.676,0,0,1,13.366,43.688Z" transform="translate(46.807 74.498)" fill="rgba(25,41,70,0.41)" stroke="rgba(0,0,0,0)" stroke-width="1"/>
            <ellipse id="Ellipse_11418" data-name="Ellipse 11418" cx="3.641" cy="2.102" rx="3.641" ry="2.102" transform="translate(27.036 117.568)" fill="rgba(25,41,70,0.41)" stroke="rgba(0,0,0,0)" stroke-width="1"/>
            <path id="Path_132537" data-name="Path 132537" d="M11.577,42.658c1.426.823,1.426,2.151,0,2.974a5.723,5.723,0,0,1-5.147,0c-1.419-.823-1.419-2.151,0-2.974A5.676,5.676,0,0,1,11.577,42.658Z" transform="translate(35.132 67.755)" fill="rgba(25,41,70,0.41)" stroke="rgba(0,0,0,0)" stroke-width="1"/>
            <path id="Path_132538" data-name="Path 132538" d="M8,42.647c1.419.823,1.419,2.151,0,2.974a5.676,5.676,0,0,1-5.147,0c-1.426-.823-1.426-2.151,0-2.974A5.676,5.676,0,0,1,8,42.647Z" transform="translate(11.675 67.683)" fill="rgba(25,41,70,0.41)" stroke="rgba(0,0,0,0)" stroke-width="1"/>
            <path id="Path_132539" data-name="Path 132539" d="M9.778,41.612c1.426.823,1.426,2.151,0,2.974a5.676,5.676,0,0,1-5.147,0c-1.419-.823-1.419-2.151,0-2.974A5.723,5.723,0,0,1,9.778,41.612Z" transform="translate(23.354 60.944)" fill="rgba(25,41,70,0.41)" stroke="rgba(0,0,0,0)" stroke-width="1"/>
            <path id="Path_132540" data-name="Path 132540" d="M6.211,41.612c1.426.823,1.426,2.151,0,2.974a5.676,5.676,0,0,1-5.147,0c-1.419-.823-1.419-2.151,0-2.974A5.723,5.723,0,0,1,6.211,41.612Z" transform="translate(0 60.944)" fill="rgba(25,41,70,0.41)" stroke="rgba(0,0,0,0)" stroke-width="1"/>
            <path id="Path_132541" data-name="Path 132541" d="M8,40.588c1.419.815,1.419,2.151,0,2.966a5.676,5.676,0,0,1-5.147,0c-1.426-.815-1.426-2.151,0-2.966A5.676,5.676,0,0,1,8,40.588Z" transform="translate(11.675 54.202)" fill="rgba(25,41,70,0.41)" stroke="rgba(0,0,0,0)" stroke-width="1"/>
            <path id="Path_132542" data-name="Path 132542" d="M6.211,39.558c1.426.823,1.426,2.151,0,2.974a5.676,5.676,0,0,1-5.147,0c-1.419-.823-1.419-2.151,0-2.974A5.676,5.676,0,0,1,6.211,39.558Z" transform="translate(0 47.459)" fill="rgba(25,41,70,0.41)" stroke="rgba(0,0,0,0)" stroke-width="1"/>
            <path id="Path_132543" data-name="Path 132543" d="M40.206,58.979c1.419.823,1.419,2.151,0,2.974a5.692,5.692,0,0,1-5.155,0c-1.419-.823-1.419-2.151,0-2.974A5.692,5.692,0,0,1,40.206,58.979Z" transform="translate(222.518 174.611)" fill="rgba(25,41,70,0.41)" stroke="rgba(0,0,0,0)" stroke-width="1"/>
            <ellipse id="Ellipse_11419" data-name="Ellipse 11419" cx="3.64" cy="2.101" rx="3.64" ry="2.101" transform="translate(269.966 225.205)" fill="rgba(25,41,70,0.41)" stroke="rgba(0,0,0,0)" stroke-width="1"/>
            <path id="Path_132544" data-name="Path 132544" d="M43.773,56.92c1.419.815,1.419,2.151,0,2.974a5.739,5.739,0,0,1-5.155,0c-1.419-.823-1.419-2.158,0-2.974A5.692,5.692,0,0,1,43.773,56.92Z" transform="translate(245.872 161.13)" fill="rgba(25,41,70,0.41)" stroke="rgba(0,0,0,0)" stroke-width="1"/>
            <path id="Path_132545" data-name="Path 132545" d="M45.549,55.89c1.419.823,1.419,2.151,0,2.974a5.676,5.676,0,0,1-5.147,0c-1.419-.823-1.419-2.151,0-2.974A5.676,5.676,0,0,1,45.549,55.89Z" transform="translate(257.552 154.387)" fill="rgba(25,41,70,0.41)" stroke="rgba(0,0,0,0)" stroke-width="1"/>
            <path id="Path_132546" data-name="Path 132546" d="M47.34,54.855c1.419.823,1.419,2.151,0,2.974a5.692,5.692,0,0,1-5.155,0c-1.419-.823-1.419-2.151,0-2.974A5.739,5.739,0,0,1,47.34,54.855Z" transform="translate(269.226 147.648)" fill="rgba(25,41,70,0.41)" stroke="rgba(0,0,0,0)" stroke-width="1"/>
            <path id="Path_132547" data-name="Path 132547" d="M49.116,53.831c1.419.815,1.419,2.151,0,2.966a5.676,5.676,0,0,1-5.147,0c-1.419-.815-1.419-2.151,0-2.966A5.676,5.676,0,0,1,49.116,53.831Z" transform="translate(280.906 140.906)" fill="rgba(25,41,70,0.41)" stroke="rgba(0,0,0,0)" stroke-width="1"/>
            <ellipse id="Ellipse_11420" data-name="Ellipse 11420" cx="3.64" cy="2.102" rx="3.64" ry="2.102" transform="translate(337.268 186.347)" fill="rgba(25,41,70,0.41)" stroke="rgba(0,0,0,0)" stroke-width="1"/>
            <path id="Path_132548" data-name="Path 132548" d="M52.683,51.771c1.419.823,1.419,2.151,0,2.974a5.676,5.676,0,0,1-5.147,0c-1.419-.823-1.419-2.151,0-2.974A5.676,5.676,0,0,1,52.683,51.771Z" transform="translate(304.259 127.419)" fill="rgba(25,41,70,0.41)" stroke="rgba(0,0,0,0)" stroke-width="1"/>
            <path id="Path_132549" data-name="Path 132549" d="M54.474,50.742c1.419.815,1.419,2.151,0,2.966a5.692,5.692,0,0,1-5.155,0c-1.419-.815-1.419-2.151,0-2.966A5.692,5.692,0,0,1,54.474,50.742Z" transform="translate(315.933 120.682)" fill="rgba(25,41,70,0.41)" stroke="rgba(0,0,0,0)" stroke-width="1"/>
            <path id="Path_132550" data-name="Path 132550" d="M56.25,49.712c1.419.815,1.419,2.151,0,2.974a5.723,5.723,0,0,1-5.147,0c-1.419-.823-1.419-2.158,0-2.974A5.676,5.676,0,0,1,56.25,49.712Z" transform="translate(327.613 113.938)" fill="rgba(25,41,70,0.41)" stroke="rgba(0,0,0,0)" stroke-width="1"/>
            <path id="Path_132551" data-name="Path 132551" d="M36.639,58.979c1.419.823,1.419,2.151,0,2.974a5.692,5.692,0,0,1-5.155,0c-1.419-.823-1.419-2.151,0-2.974A5.692,5.692,0,0,1,36.639,58.979Z" transform="translate(199.164 174.611)" fill="rgba(25,41,70,0.41)" stroke="rgba(0,0,0,0)" stroke-width="1"/>
            <path id="Path_132552" data-name="Path 132552" d="M38.415,57.944c1.419.823,1.419,2.151,0,2.974a5.676,5.676,0,0,1-5.147,0c-1.419-.823-1.419-2.151,0-2.974A5.723,5.723,0,0,1,38.415,57.944Z" transform="translate(210.845 167.872)" fill="rgba(25,41,70,0.41)" stroke="rgba(0,0,0,0)" stroke-width="1"/>
            <ellipse id="Ellipse_11421" data-name="Ellipse 11421" cx="3.641" cy="2.102" rx="3.641" ry="2.102" transform="translate(256.506 217.433)" fill="rgba(25,41,70,0.41)" stroke="rgba(0,0,0,0)" stroke-width="1"/>
            <ellipse id="Ellipse_11422" data-name="Ellipse 11422" cx="3.641" cy="2.102" rx="3.641" ry="2.102" transform="translate(269.966 209.661)" fill="rgba(25,41,70,0.41)" stroke="rgba(0,0,0,0)" stroke-width="1"/>
            <path id="Path_132553" data-name="Path 132553" d="M43.773,54.855c1.419.823,1.419,2.151,0,2.974a5.692,5.692,0,0,1-5.155,0c-1.419-.823-1.419-2.151,0-2.974A5.739,5.739,0,0,1,43.773,54.855Z" transform="translate(245.872 147.648)" fill="rgba(25,41,70,0.41)" stroke="rgba(0,0,0,0)" stroke-width="1"/>
            <path id="Path_132554" data-name="Path 132554" d="M45.549,53.831c1.419.815,1.419,2.151,0,2.966a5.676,5.676,0,0,1-5.147,0c-1.419-.815-1.419-2.151,0-2.966A5.676,5.676,0,0,1,45.549,53.831Z" transform="translate(257.552 140.906)" fill="rgba(25,41,70,0.41)" stroke="rgba(0,0,0,0)" stroke-width="1"/>
            <path id="Path_132555" data-name="Path 132555" d="M47.34,52.8c1.419.823,1.419,2.151,0,2.974a5.738,5.738,0,0,1-5.155,0c-1.419-.823-1.419-2.151,0-2.974A5.692,5.692,0,0,1,47.34,52.8Z" transform="translate(269.226 134.163)" fill="rgba(25,41,70,0.41)" stroke="rgba(0,0,0,0)" stroke-width="1"/>
            <path id="Path_132556" data-name="Path 132556" d="M49.116,51.771c1.419.823,1.419,2.151,0,2.974a5.676,5.676,0,0,1-5.147,0c-1.419-.823-1.419-2.151,0-2.974A5.676,5.676,0,0,1,49.116,51.771Z" transform="translate(280.906 127.419)" fill="rgba(25,41,70,0.41)" stroke="rgba(0,0,0,0)" stroke-width="1"/>
            <path id="Path_132557" data-name="Path 132557" d="M50.907,50.742c1.419.815,1.419,2.151,0,2.966a5.692,5.692,0,0,1-5.155,0c-1.419-.815-1.419-2.151,0-2.966A5.692,5.692,0,0,1,50.907,50.742Z" transform="translate(292.579 120.682)" fill="rgba(25,41,70,0.41)" stroke="rgba(0,0,0,0)" stroke-width="1"/>
            <path id="Path_132558" data-name="Path 132558" d="M52.683,49.712c1.419.815,1.419,2.151,0,2.974a5.723,5.723,0,0,1-5.147,0c-1.419-.823-1.419-2.151,0-2.974A5.676,5.676,0,0,1,52.683,49.712Z" transform="translate(304.259 113.938)" fill="rgba(25,41,70,0.41)" stroke="rgba(0,0,0,0)" stroke-width="1"/>
            <path id="Path_132559" data-name="Path 132559" d="M54.472,48.682c1.419.823,1.419,2.151,0,2.974a5.676,5.676,0,0,1-5.147,0c-1.426-.823-1.426-2.151,0-2.974A5.676,5.676,0,0,1,54.472,48.682Z" transform="translate(315.935 107.195)" fill="rgba(25,41,70,0.41)" stroke="rgba(0,0,0,0)" stroke-width="1"/>
            <path id="Path_132560" data-name="Path 132560" d="M34.848,57.944c1.419.823,1.419,2.151,0,2.974a5.676,5.676,0,0,1-5.147,0c-1.419-.823-1.419-2.151,0-2.974A5.723,5.723,0,0,1,34.848,57.944Z" transform="translate(187.491 167.872)" fill="rgba(25,41,70,0.41)" stroke="rgba(0,0,0,0)" stroke-width="1"/>
            <path id="Path_132561" data-name="Path 132561" d="M36.639,56.92c1.419.815,1.419,2.151,0,2.974a5.739,5.739,0,0,1-5.155,0c-1.419-.823-1.419-2.158,0-2.974A5.692,5.692,0,0,1,36.639,56.92Z" transform="translate(199.164 161.13)" fill="rgba(25,41,70,0.41)" stroke="rgba(0,0,0,0)" stroke-width="1"/>
            <ellipse id="Ellipse_11423" data-name="Ellipse 11423" cx="3.641" cy="2.102" rx="3.641" ry="2.102" transform="translate(202.665 217.433)" fill="rgba(25,41,70,0.41)" stroke="rgba(0,0,0,0)" stroke-width="1"/>
            <path id="Path_132562" data-name="Path 132562" d="M34.848,55.89c1.426.823,1.426,2.151,0,2.974a5.676,5.676,0,0,1-5.147,0c-1.419-.823-1.419-2.151,0-2.974A5.676,5.676,0,0,1,34.848,55.89Z" transform="translate(187.491 154.387)" fill="rgba(25,41,70,0.41)" stroke="rgba(0,0,0,0)" stroke-width="1"/>
            <path id="Path_132563" data-name="Path 132563" d="M52.889,48.7a5.676,5.676,0,0,1,5.147-.008c1.426.815,1.426,2.151.008,2.974a5.676,5.676,0,0,1-5.147,0C51.47,50.851,51.47,49.523,52.889,48.7Z" transform="translate(339.314 107.29)" fill="rgba(25,41,70,0.41)" stroke="rgba(0,0,0,0)" stroke-width="1"/>
            <path id="Path_132564" data-name="Path 132564" d="M59.828,47.666c1.419.815,1.419,2.151,0,2.966a5.676,5.676,0,0,1-5.147,0c-1.426-.815-1.426-2.151,0-2.966A5.676,5.676,0,0,1,59.828,47.666Z" transform="translate(351.001 100.543)" fill="rgba(25,41,70,0.41)" stroke="rgba(0,0,0,0)" stroke-width="1"/>
            <path id="Path_132565" data-name="Path 132565" d="M61.606,46.636c1.426.823,1.426,2.151,0,2.974a5.676,5.676,0,0,1-5.147,0c-1.419-.823-1.419-2.151,0-2.974A5.676,5.676,0,0,1,61.606,46.636Z" transform="translate(362.68 93.799)" fill="rgba(25,41,70,0.41)" stroke="rgba(0,0,0,0)" stroke-width="1"/>
            <path id="Path_132566" data-name="Path 132566" d="M63.4,45.6c1.419.823,1.419,2.151,0,2.974a5.692,5.692,0,0,1-5.155,0c-1.419-.823-1.419-2.151,0-2.974A5.739,5.739,0,0,1,63.4,45.6Z" transform="translate(374.353 87.061)" fill="rgba(25,41,70,0.41)" stroke="rgba(0,0,0,0)" stroke-width="1"/>
            <path id="Path_132567" data-name="Path 132567" d="M65.173,44.577c1.426.815,1.426,2.151,0,2.966a5.676,5.676,0,0,1-5.147,0c-1.419-.815-1.419-2.151,0-2.966A5.676,5.676,0,0,1,65.173,44.577Z" transform="translate(386.033 80.319)" fill="rgba(25,41,70,0.41)" stroke="rgba(0,0,0,0)" stroke-width="1"/>
            <path id="Path_132568" data-name="Path 132568" d="M66.964,43.547c1.419.823,1.419,2.151,0,2.974a5.739,5.739,0,0,1-5.155,0c-1.419-.823-1.419-2.151,0-2.974A5.692,5.692,0,0,1,66.964,43.547Z" transform="translate(397.707 73.575)" fill="rgba(25,41,70,0.41)" stroke="rgba(0,0,0,0)" stroke-width="1"/>
            <path id="Path_132569" data-name="Path 132569" d="M68.74,42.517c1.419.823,1.419,2.151,0,2.974a5.676,5.676,0,0,1-5.147,0c-1.419-.823-1.419-2.151,0-2.974A5.676,5.676,0,0,1,68.74,42.517Z" transform="translate(409.387 66.832)" fill="rgba(25,41,70,0.41)" stroke="rgba(0,0,0,0)" stroke-width="1"/>
            <path id="Path_132570" data-name="Path 132570" d="M70.529,41.482c1.419.823,1.419,2.151,0,2.974a5.676,5.676,0,0,1-5.147,0c-1.426-.823-1.426-2.151,0-2.974A5.723,5.723,0,0,1,70.529,41.482Z" transform="translate(421.062 60.093)" fill="rgba(25,41,70,0.41)" stroke="rgba(0,0,0,0)" stroke-width="1"/>
            <path id="Path_132571" data-name="Path 132571" d="M72.307,40.458c1.426.815,1.426,2.151,0,2.974a5.723,5.723,0,0,1-5.147,0c-1.419-.823-1.419-2.158,0-2.974A5.676,5.676,0,0,1,72.307,40.458Z" transform="translate(432.741 53.351)" fill="rgba(25,41,70,0.41)" stroke="rgba(0,0,0,0)" stroke-width="1"/>
            <path id="Path_132572" data-name="Path 132572" d="M74.1,39.428c1.419.823,1.419,2.151,0,2.974a5.676,5.676,0,0,1-5.147,0c-1.426-.823-1.426-2.151,0-2.974A5.676,5.676,0,0,1,74.1,39.428Z" transform="translate(444.416 46.607)" fill="rgba(25,41,70,0.41)" stroke="rgba(0,0,0,0)" stroke-width="1"/>
            <path id="Path_132573" data-name="Path 132573" d="M75.874,38.393c1.426.823,1.426,2.151,0,2.974a5.676,5.676,0,0,1-5.147,0c-1.419-.823-1.419-2.151,0-2.974A5.723,5.723,0,0,1,75.874,38.393Z" transform="translate(456.094 39.869)" fill="rgba(25,41,70,0.41)" stroke="rgba(0,0,0,0)" stroke-width="1"/>
            <path id="Path_132574" data-name="Path 132574" d="M77.663,37.369c1.419.815,1.419,2.151,0,2.966a5.676,5.676,0,0,1-5.147,0c-1.426-.815-1.426-2.151,0-2.966A5.676,5.676,0,0,1,77.663,37.369Z" transform="translate(467.77 33.127)" fill="rgba(25,41,70,0.41)" stroke="rgba(0,0,0,0)" stroke-width="1"/>
            <path id="Path_132575" data-name="Path 132575" d="M79.441,36.339c1.426.823,1.426,2.151,0,2.974a5.723,5.723,0,0,1-5.147,0c-1.419-.823-1.419-2.151,0-2.974A5.676,5.676,0,0,1,79.441,36.339Z" transform="translate(479.448 26.383)" fill="rgba(25,41,70,0.41)" stroke="rgba(0,0,0,0)" stroke-width="1"/>
            <path id="Path_132576" data-name="Path 132576" d="M81.23,35.309c1.419.823,1.419,2.151,0,2.974a5.676,5.676,0,0,1-5.147,0c-1.426-.823-1.426-2.151,0-2.974A5.676,5.676,0,0,1,81.23,35.309Z" transform="translate(491.123 19.64)" fill="rgba(25,41,70,0.41)" stroke="rgba(0,0,0,0)" stroke-width="1"/>
            <path id="Path_132577" data-name="Path 132577" d="M83.008,34.274c1.426.823,1.426,2.151,0,2.974a5.676,5.676,0,0,1-5.147,0c-1.419-.823-1.419-2.151,0-2.974A5.723,5.723,0,0,1,83.008,34.274Z" transform="translate(502.802 12.901)" fill="rgba(25,41,70,0.41)" stroke="rgba(0,0,0,0)" stroke-width="1"/>
            <path id="Path_132578" data-name="Path 132578" d="M84.8,33.25c1.419.815,1.419,2.151,0,2.974a5.723,5.723,0,0,1-5.147,0c-1.426-.823-1.426-2.158,0-2.974A5.676,5.676,0,0,1,84.8,33.25Z" transform="translate(514.477 6.159)" fill="rgba(25,41,70,0.41)" stroke="rgba(0,0,0,0)" stroke-width="1"/>
            <path id="Path_132579" data-name="Path 132579" d="M86.575,32.22c1.426.823,1.426,2.151,0,2.974a5.676,5.676,0,0,1-5.147,0c-1.419-.823-1.419-2.151,0-2.974A5.676,5.676,0,0,1,86.575,32.22Z" transform="translate(526.156 -0.584)" fill="rgba(25,41,70,0.41)" stroke="rgba(0,0,0,0)" stroke-width="1"/>
            <path id="Path_132580" data-name="Path 132580" d="M51.1,47.668a5.7,5.7,0,0,1,5.147-.008c1.426.823,1.434,2.151.015,2.974a5.7,5.7,0,0,1-5.147.008C49.691,49.819,49.683,48.491,51.1,47.668Z" transform="translate(327.637 100.549)" fill="rgba(25,41,70,0.41)" stroke="rgba(0,0,0,0)" stroke-width="1"/>
            <path id="Path_132581" data-name="Path 132581" d="M58.039,46.636c1.426.823,1.426,2.151,0,2.974a5.676,5.676,0,0,1-5.147,0c-1.419-.823-1.419-2.151,0-2.974A5.676,5.676,0,0,1,58.039,46.636Z" transform="translate(339.326 93.799)" fill="rgba(25,41,70,0.41)" stroke="rgba(0,0,0,0)" stroke-width="1"/>
            <path id="Path_132582" data-name="Path 132582" d="M59.828,45.6c1.419.823,1.419,2.151,0,2.974a5.676,5.676,0,0,1-5.147,0c-1.426-.823-1.426-2.151,0-2.974A5.723,5.723,0,0,1,59.828,45.6Z" transform="translate(351.001 87.061)" fill="rgba(25,41,70,0.41)" stroke="rgba(0,0,0,0)" stroke-width="1"/>
            <path id="Path_132583" data-name="Path 132583" d="M61.606,44.577c1.426.815,1.426,2.151,0,2.966a5.676,5.676,0,0,1-5.147,0c-1.419-.815-1.419-2.151,0-2.966A5.676,5.676,0,0,1,61.606,44.577Z" transform="translate(362.68 80.319)" fill="rgba(25,41,70,0.41)" stroke="rgba(0,0,0,0)" stroke-width="1"/>
            <path id="Path_132584" data-name="Path 132584" d="M63.4,43.547c1.419.823,1.419,2.151,0,2.974a5.739,5.739,0,0,1-5.155,0c-1.419-.823-1.419-2.151,0-2.974A5.692,5.692,0,0,1,63.4,43.547Z" transform="translate(374.353 73.575)" fill="rgba(25,41,70,0.41)" stroke="rgba(0,0,0,0)" stroke-width="1"/>
            <ellipse id="Ellipse_11424" data-name="Ellipse 11424" cx="3.64" cy="2.102" rx="3.64" ry="2.102" transform="translate(444.993 108.734)" fill="rgba(25,41,70,0.41)" stroke="rgba(0,0,0,0)" stroke-width="1"/>
            <path id="Path_132585" data-name="Path 132585" d="M66.962,41.482c1.419.823,1.419,2.151,0,2.974a5.676,5.676,0,0,1-5.147,0c-1.426-.823-1.426-2.151,0-2.974A5.723,5.723,0,0,1,66.962,41.482Z" transform="translate(397.709 60.093)" fill="rgba(25,41,70,0.41)" stroke="rgba(0,0,0,0)" stroke-width="1"/>
            <path id="Path_132586" data-name="Path 132586" d="M68.74,40.458c1.426.815,1.426,2.151,0,2.974a5.723,5.723,0,0,1-5.147,0c-1.419-.823-1.419-2.158,0-2.974A5.676,5.676,0,0,1,68.74,40.458Z" transform="translate(409.387 53.351)" fill="rgba(25,41,70,0.41)" stroke="rgba(0,0,0,0)" stroke-width="1"/>
            <path id="Path_132587" data-name="Path 132587" d="M70.529,39.428c1.419.823,1.419,2.151,0,2.974a5.676,5.676,0,0,1-5.147,0c-1.426-.823-1.426-2.151,0-2.974A5.676,5.676,0,0,1,70.529,39.428Z" transform="translate(421.062 46.607)" fill="rgba(25,41,70,0.41)" stroke="rgba(0,0,0,0)" stroke-width="1"/>
            <ellipse id="Ellipse_11425" data-name="Ellipse 11425" cx="3.641" cy="2.102" rx="3.641" ry="2.102" transform="translate(498.835 77.649)" fill="rgba(25,41,70,0.41)" stroke="rgba(0,0,0,0)" stroke-width="1"/>
            <path id="Path_132588" data-name="Path 132588" d="M74.1,37.369c1.419.815,1.419,2.151,0,2.966a5.676,5.676,0,0,1-5.147,0c-1.426-.815-1.426-2.151,0-2.966A5.676,5.676,0,0,1,74.1,37.369Z" transform="translate(444.416 33.127)" fill="rgba(25,41,70,0.41)" stroke="rgba(0,0,0,0)" stroke-width="1"/>
            <path id="Path_132589" data-name="Path 132589" d="M75.874,36.339c1.426.823,1.426,2.151,0,2.974a5.723,5.723,0,0,1-5.147,0c-1.419-.823-1.419-2.151,0-2.974A5.676,5.676,0,0,1,75.874,36.339Z" transform="translate(456.094 26.383)" fill="rgba(25,41,70,0.41)" stroke="rgba(0,0,0,0)" stroke-width="1"/>
            <path id="Path_132590" data-name="Path 132590" d="M77.663,35.309c1.419.823,1.419,2.151,0,2.974a5.676,5.676,0,0,1-5.147,0c-1.426-.823-1.426-2.151,0-2.974A5.676,5.676,0,0,1,77.663,35.309Z" transform="translate(467.77 19.64)" fill="rgba(25,41,70,0.41)" stroke="rgba(0,0,0,0)" stroke-width="1"/>
            <path id="Path_132591" data-name="Path 132591" d="M79.441,34.273c1.426.823,1.426,2.151,0,2.974a5.676,5.676,0,0,1-5.147,0c-1.419-.823-1.419-2.151,0-2.966A5.7,5.7,0,0,1,79.441,34.273Z" transform="translate(479.448 12.902)" fill="rgba(25,41,70,0.41)" stroke="rgba(0,0,0,0)" stroke-width="1"/>
            <path id="Path_132592" data-name="Path 132592" d="M81.23,33.25c1.419.815,1.419,2.151,0,2.974a5.723,5.723,0,0,1-5.147,0c-1.426-.823-1.426-2.158,0-2.974A5.676,5.676,0,0,1,81.23,33.25Z" transform="translate(491.123 6.159)" fill="rgba(25,41,70,0.41)" stroke="rgba(0,0,0,0)" stroke-width="1"/>
            <path id="Path_132593" data-name="Path 132593" d="M83.008,32.22c1.426.823,1.426,2.151,0,2.974a5.676,5.676,0,0,1-5.147,0c-1.419-.823-1.419-2.151,0-2.974A5.676,5.676,0,0,1,83.008,32.22Z" transform="translate(502.802 -0.584)" fill="rgba(25,41,70,0.41)" stroke="rgba(0,0,0,0)" stroke-width="1"/>
            <path id="Path_132594" data-name="Path 132594" d="M84.8,31.185c1.419.823,1.419,2.151,0,2.974a5.676,5.676,0,0,1-5.147,0c-1.426-.823-1.426-2.151,0-2.974A5.723,5.723,0,0,1,84.8,31.185Z" transform="translate(514.477 -7.323)" fill="rgba(25,41,70,0.41)" stroke="rgba(0,0,0,0)" stroke-width="1"/>
            <path id="Path_132595" data-name="Path 132595" d="M81.437,30.175a5.676,5.676,0,0,1,5.147-.008c1.426.815,1.434,2.151.015,2.974a5.692,5.692,0,0,1-5.155,0C80.026,32.325,80.018,31,81.437,30.175Z" transform="translate(526.237 -14.003)" fill="rgba(25,41,70,0.41)" stroke="rgba(0,0,0,0)" stroke-width="1"/>
            <path id="Path_132596" data-name="Path 132596" d="M86.6,28.11c1.419.823,1.419,2.151,0,2.974a5.676,5.676,0,0,1-5.147,0c-1.426-.823-1.426-2.151,0-2.974A5.676,5.676,0,0,1,86.6,28.11Z" transform="translate(526.249 -27.493)" fill="rgba(25,41,70,0.41)" stroke="rgba(0,0,0,0)" stroke-width="1"/>
          </g>
          <g id="_21" data-name="21" transform="translate(10.895)">
            <g id="Group_56760" data-name="Group 56760">
              <g id="Group_56759" data-name="Group 56759">
                <path id="Path_132597" data-name="Path 132597" d="M6.783,198.357c5.079-8.264,15.132-8.943,29.879-2.068L342.442,13.527A30.85,30.85,0,0,1,373,12.448L571.627,133.867c-.928-8.8-.008-13.4,2.883-14.777,3.374-1.608,7.517,2.249,10.324,5.3,6.868,7.457,9.713,14.747,8.46,21.653-1.924,10.543-12.687,16.075-13.034,16.249L250.8,359.4a30.747,30.747,0,0,1-21.2,4.128,30.2,30.2,0,0,1-8.891-3.034L13.3,233.851a18.949,18.949,0,0,1-4.974-4.106C2.888,224.078-3.2,214.659,6.783,198.357Z" transform="translate(-1.444 9.423)" fill="#1d4487"/>
                <path id="Path_135291" data-name="Path 135291" d="M6.783,198.357c5.079-8.264,15.132-8.943,29.879-2.068L342.442,13.527A30.85,30.85,0,0,1,373,12.448L571.627,133.867c-.928-8.8-.008-13.4,2.883-14.777,3.374-1.608,7.517,2.249,10.324,5.3,6.868,7.457,9.713,14.747,8.46,21.653-1.924,10.543-12.687,16.075-13.034,16.249L250.8,359.4a30.747,30.747,0,0,1-21.2,4.128,30.2,30.2,0,0,1-8.891-3.034L13.3,233.851a18.949,18.949,0,0,1-4.974-4.106C2.888,224.078-3.2,214.659,6.783,198.357Z" transform="translate(-1.444 9.423)" fill="rgba(0,0,0,0.29)"/>
                <g id="Group_56755" data-name="Group 56755" transform="translate(4.031)">
                  <path id="Path_132598" data-name="Path 132598" d="M7.977,208.739,338.685,11.079a29.123,29.123,0,0,1,28.732-1.087L574.625,136.649c8.408,4.43,8.415,17.026.015,22.1L245.176,355.863a28.657,28.657,0,0,1-28.257,1.094L9.735,230.452C-.438,224.06.445,213.947,7.977,208.739Z" transform="translate(-0.442 -4.952)" fill="#1d4487"/>
                  <g id="Group_56754" data-name="Group 56754" transform="translate(3.869 9.063)">
                    <path id="Path_132599" data-name="Path 132599" d="M363.6,10.959,570.8,137.616c5.072,2.672,7.026,8.3,5.992,13.472a12.4,12.4,0,0,1-1.947,1.57L245.378,349.774a28.672,28.672,0,0,1-28.264,1.1L9.929,224.37c-5.97-3.758-8.045-8.785-7.291-13.358a14.2,14.2,0,0,1,1.517-1.306L334.865,12.046A29.122,29.122,0,0,1,363.6,10.959Z" transform="translate(-2.49 -7.684)" fill="#1d4487"/>
                    <path id="Path_135293" data-name="Path 135293" d="M363.6,10.959,570.8,137.616c5.072,2.672,7.026,8.3,5.992,13.472a12.4,12.4,0,0,1-1.947,1.57L245.378,349.774a28.672,28.672,0,0,1-28.264,1.1L9.929,224.37c-5.97-3.758-8.045-8.785-7.291-13.358a14.2,14.2,0,0,1,1.517-1.306L334.865,12.046A29.122,29.122,0,0,1,363.6,10.959Z" transform="translate(-2.49 -7.684)" fill="rgba(255,255,255,0.85)"/>
                    <path id="Path_132600" data-name="Path 132600" d="M7.389,191.61l208.9,125.32a5,5,0,0,0,4.891-.2L518.739,139.754a1.818,1.818,0,0,0,0-3.132L310.151,10.192a4.493,4.493,0,0,0-4.453.158L7.382,188.735A1.669,1.669,0,0,0,7.389,191.61Z" transform="translate(24.186 5.363)" fill="#1d4487"/>
                    <path id="Path_132601" data-name="Path 132601" d="M218.887,320.5a6.7,6.7,0,0,0,4.6-.875L521.045,142.634a3.533,3.533,0,0,0,1.713-3.132,3.351,3.351,0,0,0-1.781-2.921L312.472,10.2a6.188,6.188,0,0,0-6.189.166L7.975,188.747a3.393,3.393,0,0,0-1.63,3.011,3.184,3.184,0,0,0,1.683,2.755L216.88,319.819A7.172,7.172,0,0,0,218.887,320.5Zm91.124-307.66a2.851,2.851,0,0,1,.808.279L519.325,139.495,221.77,316.74a3.352,3.352,0,0,1-3.26.151L9.726,191.63,308.012,13.238A2.937,2.937,0,0,1,310.012,12.838Z" transform="translate(22.732 3.916)" fill="#153060"/>
                  </g>
                  <path id="Path_132602" data-name="Path 132602" d="M226.425,363.025a30.783,30.783,0,0,0,21.2-4.121L577.089,161.787a14.9,14.9,0,0,0,7.132-13.23,13.67,13.67,0,0,0-7.238-11.932L369.874,10.022A30.847,30.847,0,0,0,339.308,11.1L8.509,208.821c-4.249,2.936-6.626,7.253-6.528,11.841.113,4.951,3.079,9.5,8.347,12.815L217.535,360A30.249,30.249,0,0,0,226.425,363.025ZM360.244,10.392a26.445,26.445,0,0,1,7.894,2.694l207.1,126.6a10.272,10.272,0,0,1,5.464,8.966,11.406,11.406,0,0,1-5.434,10.113L245.806,355.885a26.858,26.858,0,0,1-26.528,1.049L12.184,230.482c-4.211-2.649-6.589-6.166-6.672-9.894a10.573,10.573,0,0,1,4.958-8.83L341.127,14.12A27.787,27.787,0,0,1,360.244,10.392Z" transform="translate(-1.978 -6.483)" fill="#153060"/>
                </g>
                <g id="Group_56757" data-name="Group 56757" transform="translate(434.804 62.645)">
                  <g id="Group_56756" data-name="Group 56756">
                    <path id="Path_132603" data-name="Path 132603" d="M93.725,38.273,59.7,17.73c-.981-.589-.83-1.645.34-2.347h0a4.175,4.175,0,0,1,3.894-.211L97.959,35.715c.981.589.83,1.645-.34,2.347h0A4.175,4.175,0,0,1,93.725,38.273Z" transform="translate(-59.055 -14.784)" fill="#16110d"/>
                  </g>
                </g>
                <g id="Group_56758" data-name="Group 56758" transform="translate(105.596 262.234)">
                  <path id="Path_132604" data-name="Path 132604" d="M30,56.586,17.1,48.88c-2.551-1.577-2.128-4.325.943-6.143h0c3.072-1.819,7.63-2.023,10.189-.445L41.125,50c2.558,1.577,2.136,4.325-.936,6.143h0C37.118,57.96,32.559,58.156,30,56.586Z" transform="translate(-15.435 -41.229)" fill="#153060"/>
                </g>
              </g>
            </g>
            <g id="Group_56761" data-name="Group 56761" transform="translate(195.476 139.948)">
              <path id="Path_132605" data-name="Path 132605" d="M218.695,64.263c-12.174,7.321-39.109,17.97-93.547,16.287S42.921,66.55,33.608,54.4s-6.211-21.653.257-24.845C45.51,23.8,80.031,29.071,84.785,33.5s2.6,10.234,3.381,15.4,4.468,8.868,17.147,10.174,57.713,2.883,65.532-3.736-2.521-11.8,4.513-18.755,47.781-9.872,53.54-5.381S235.91,53.893,218.695,64.263Z" transform="translate(-24.689 -11.918)" fill="#1d4487"/>
              <path id="Path_135292" data-name="Path 135292" d="M218.695,64.263c-12.174,7.321-39.109,17.97-93.547,16.287S42.921,66.55,33.608,54.4s-6.211-21.653.257-24.845C45.51,23.8,80.031,29.071,84.785,33.5s2.6,10.234,3.381,15.4,4.468,8.868,17.147,10.174,57.713,2.883,65.532-3.736-2.521-11.8,4.513-18.755,47.781-9.872,53.54-5.381S235.91,53.893,218.695,64.263Z" transform="translate(-24.689 -11.918)" fill="rgba(255,255,255,0.85)"/>
              <path id="Path_132606" data-name="Path 132606" d="M134.784,83.952c48.105.543,74.068-8.724,87.517-16.823h0c9.155-5.509,14.724-14.03,15.3-23.381.362-6.038-1.487-11.411-4.83-14.023-6.777-5.3-48.928-2.415-57.026,5.585-4.513,4.46-3.472,8.717-2.717,11.826.7,2.883,1.094,4.468-1.645,6.785-6.317,5.351-47.238,4.792-63.547,3.125-13.811-1.419-14.453-5.66-14.8-7.932a26.416,26.416,0,0,1-.143-4.294c.06-3.9.151-8.747-4.053-12.657-5.864-5.449-41.691-10.408-53.894-4.385a13.419,13.419,0,0,0-7.185,9.177c-.966,4.143-.709,10.913,5.992,19.66C39.494,64.1,60.1,81.726,127.313,83.794,129.856,83.877,132.354,83.93,134.784,83.952Zm83.864-51.683c5.374.06,9.517.566,10.86,1.623,1.562,1.215,3.094,4.717,2.808,9.54-.226,3.585-1.9,12.641-12.747,19.162h0c-13.517,8.143-40.551,17.517-92.09,15.917C60.7,76.45,42.075,58.767,37.954,53.394c-4.249-5.54-6.038-10.951-5.042-15.238a8.243,8.243,0,0,1,4.37-5.638c11.072-5.449,44.543.355,47.947,3.525,2.355,2.189,2.438,4.725,2.37,8.679a30.011,30.011,0,0,0,.2,5.177c1.117,7.411,6.943,11.117,19.487,12.408,7.3.755,57.849,3.842,67.517-4.347,5.23-4.43,4.151-8.853,3.366-12.075-.679-2.777-1.094-4.453,1.291-6.808C183.75,34.843,205.116,32.118,218.648,32.269Z" transform="translate(-27.344 -25.026)" fill="#153060"/>
            </g>
          </g>
        </g>
        <g id="_11" data-name="11" transform="translate(615.748 227.133)">
          <g id="Group_56762" data-name="Group 56762" transform="translate(0.503 43.838)">
            <path id="Path_132607" data-name="Path 132607" d="M103.152,50.3a1.15,1.15,0,0,1,0,2.177,4.189,4.189,0,0,1-3.768,0,1.148,1.148,0,0,1,0-2.177A4.155,4.155,0,0,1,103.152,50.3Z" transform="translate(-49.336 -15.717)" fill="rgba(25,41,70,0.41)" stroke="rgba(0,0,0,0)" stroke-width="1"/>
            <path id="Path_132608" data-name="Path 132608" d="M104.932,49.271a1.148,1.148,0,0,1,0,2.177,4.155,4.155,0,0,1-3.768,0,1.15,1.15,0,0,1,0-2.177A4.155,4.155,0,0,1,104.932,49.271Z" transform="translate(-41.265 -20.377)" fill="rgba(25,41,70,0.41)" stroke="rgba(0,0,0,0)" stroke-width="1"/>
            <path id="Path_132609" data-name="Path 132609" d="M106.719,48.237a1.15,1.15,0,0,1,0,2.177,4.155,4.155,0,0,1-3.768,0,1.148,1.148,0,0,1,0-2.177A4.189,4.189,0,0,1,106.719,48.237Z" transform="translate(-33.197 -25.034)" fill="rgba(25,41,70,0.41)" stroke="rgba(0,0,0,0)" stroke-width="1"/>
            <path id="Path_132610" data-name="Path 132610" d="M108.5,47.212a1.144,1.144,0,0,1,0,2.171,4.155,4.155,0,0,1-3.768,0,1.146,1.146,0,0,1,0-2.171A4.155,4.155,0,0,1,108.5,47.212Z" transform="translate(-25.126 -29.693)" fill="rgba(25,41,70,0.41)" stroke="rgba(0,0,0,0)" stroke-width="1"/>
            <path id="Path_132611" data-name="Path 132611" d="M110.286,46.182a1.15,1.15,0,0,1,0,2.177,4.155,4.155,0,0,1-3.768,0,1.148,1.148,0,0,1,0-2.177A4.155,4.155,0,0,1,110.286,46.182Z" transform="translate(-17.057 -34.354)" fill="rgba(25,41,70,0.41)" stroke="rgba(0,0,0,0)" stroke-width="1"/>
            <path id="Path_132612" data-name="Path 132612" d="M99.585,50.3a1.15,1.15,0,0,1,0,2.177,4.189,4.189,0,0,1-3.768,0,1.148,1.148,0,0,1,0-2.177A4.155,4.155,0,0,1,99.585,50.3Z" transform="translate(-65.476 -15.717)" fill="rgba(25,41,70,0.41)" stroke="rgba(0,0,0,0)" stroke-width="1"/>
            <path id="Path_132613" data-name="Path 132613" d="M101.365,49.271a1.148,1.148,0,0,1,0,2.177,4.155,4.155,0,0,1-3.768,0,1.15,1.15,0,0,1,0-2.177A4.155,4.155,0,0,1,101.365,49.271Z" transform="translate(-57.405 -20.377)" fill="rgba(25,41,70,0.41)" stroke="rgba(0,0,0,0)" stroke-width="1"/>
            <path id="Path_132614" data-name="Path 132614" d="M103.152,48.237a1.15,1.15,0,0,1,0,2.177,4.155,4.155,0,0,1-3.768,0,1.148,1.148,0,0,1,0-2.177A4.19,4.19,0,0,1,103.152,48.237Z" transform="translate(-49.336 -25.034)" fill="rgba(25,41,70,0.41)" stroke="rgba(0,0,0,0)" stroke-width="1"/>
            <path id="Path_132615" data-name="Path 132615" d="M104.932,47.212a1.144,1.144,0,0,1,0,2.171,4.155,4.155,0,0,1-3.768,0,1.146,1.146,0,0,1,0-2.171A4.155,4.155,0,0,1,104.932,47.212Z" transform="translate(-41.265 -29.693)" fill="rgba(25,41,70,0.41)" stroke="rgba(0,0,0,0)" stroke-width="1"/>
            <path id="Path_132616" data-name="Path 132616" d="M106.719,46.182a1.15,1.15,0,0,1,0,2.177,4.155,4.155,0,0,1-3.768,0,1.148,1.148,0,0,1,0-2.177A4.155,4.155,0,0,1,106.719,46.182Z" transform="translate(-33.197 -34.354)" fill="rgba(25,41,70,0.41)" stroke="rgba(0,0,0,0)" stroke-width="1"/>
            <path id="Path_132617" data-name="Path 132617" d="M108.5,45.148a1.148,1.148,0,0,1,0,2.177,4.155,4.155,0,0,1-3.768,0,1.15,1.15,0,0,1,0-2.177A4.189,4.189,0,0,1,108.5,45.148Z" transform="translate(-25.126 -39.011)" fill="rgba(25,41,70,0.41)" stroke="rgba(0,0,0,0)" stroke-width="1"/>
            <ellipse id="Ellipse_11426" data-name="Ellipse 11426" cx="2.665" cy="1.538" rx="2.665" ry="1.538" transform="translate(88.679)" fill="rgba(25,41,70,0.41)" stroke="rgba(0,0,0,0)" stroke-width="1"/>
            <path id="Path_132618" data-name="Path 132618" d="M97.8,49.271a1.148,1.148,0,0,1,0,2.177,4.155,4.155,0,0,1-3.768,0,1.15,1.15,0,0,1,0-2.177A4.155,4.155,0,0,1,97.8,49.271Z" transform="translate(-73.544 -20.377)" fill="rgba(25,41,70,0.41)" stroke="rgba(0,0,0,0)" stroke-width="1"/>
            <path id="Path_132619" data-name="Path 132619" d="M99.585,48.237a1.15,1.15,0,0,1,0,2.177,4.155,4.155,0,0,1-3.768,0,1.148,1.148,0,0,1,0-2.177A4.189,4.189,0,0,1,99.585,48.237Z" transform="translate(-65.476 -25.034)" fill="rgba(25,41,70,0.41)" stroke="rgba(0,0,0,0)" stroke-width="1"/>
            <path id="Path_132620" data-name="Path 132620" d="M96.018,48.237a1.15,1.15,0,0,1,0,2.177,4.155,4.155,0,0,1-3.768,0,1.148,1.148,0,0,1,0-2.177A4.189,4.189,0,0,1,96.018,48.237Z" transform="translate(-81.615 -25.034)" fill="rgba(25,41,70,0.41)" stroke="rgba(0,0,0,0)" stroke-width="1"/>
            <path id="Path_132621" data-name="Path 132621" d="M97.8,47.212a1.148,1.148,0,0,1,0,2.177,4.189,4.189,0,0,1-3.768,0,1.15,1.15,0,0,1,0-2.177A4.155,4.155,0,0,1,97.8,47.212Z" transform="translate(-73.544 -29.693)" fill="rgba(25,41,70,0.41)" stroke="rgba(0,0,0,0)" stroke-width="1"/>
            <path id="Path_132622" data-name="Path 132622" d="M94.231,47.212a1.148,1.148,0,0,1,0,2.177,4.189,4.189,0,0,1-3.768,0,1.15,1.15,0,0,1,0-2.177A4.155,4.155,0,0,1,94.231,47.212Z" transform="translate(-89.684 -29.693)" fill="rgba(25,41,70,0.41)" stroke="rgba(0,0,0,0)" stroke-width="1"/>
            <ellipse id="Ellipse_11427" data-name="Ellipse 11427" cx="2.664" cy="1.538" rx="2.664" ry="1.538" transform="translate(9.853 11.378)" fill="rgba(25,41,70,0.41)" stroke="rgba(0,0,0,0)" stroke-width="1"/>
            <path id="Path_132623" data-name="Path 132623" d="M94.231,45.148a1.148,1.148,0,0,1,0,2.177,4.155,4.155,0,0,1-3.768,0,1.15,1.15,0,0,1,0-2.177A4.189,4.189,0,0,1,94.231,45.148Z" transform="translate(-89.684 -39.011)" fill="rgba(25,41,70,0.41)" stroke="rgba(0,0,0,0)" stroke-width="1"/>
          </g>
          <g id="_2" data-name="2">
            <path id="Path_132624" data-name="Path 132624" d="M178.12,61.13,132.586,86.941,89.858,61.826l45.534-25.817ZM133.249,74.936l24.06-13.646L134.729,48.02l-24.06,13.64Z" transform="translate(-88.394 -34.501)" fill="#804d98"/>
            <path id="Path_132625" data-name="Path 132625" d="M178.1,62.053,132.558,87.87,89.83,62.749l45.54-25.817ZM133.221,75.859l24.066-13.64L134.707,48.943l-24.065,13.64Z" transform="translate(-88.521 -30.324)" fill="rgba(255,255,255,0.51)"/>
            <path id="Path_132626" data-name="Path 132626" d="M89.979,40.682l-.148,12.57L132.558,78.37l.148-12.57Z" transform="translate(-88.516 -13.357)" fill="#804d98"/>
            <path id="Path_132627" data-name="Path 132627" d="M143.249,40.556,143.1,53.125,97.565,78.942l.148-12.57Z" transform="translate(-53.522 -13.929)" fill="#804d98"/>
            <path id="Path_135299" data-name="Path 135299" d="M143.249,40.556,143.1,53.125,97.565,78.942l.148-12.57Z" transform="translate(-53.522 -13.929)" fill="rgba(0,0,0,0.29)"/>
            <path id="Path_132628" data-name="Path 132628" d="M98.1,38.183l-.148,12.57,11.767,6.917,10.96-6.214Z" transform="translate(-51.764 -24.665)" fill="#804d98"/>
            <g id="Group_56764" data-name="Group 56764">
              <path id="Path_132629" data-name="Path 132629" d="M93.625,51.825l24.063-13.642-.148,12.57-13.1,7.428Z" transform="translate(-71.351 -24.665)" fill="#5b376c"/>
              <g id="Group_56763" data-name="Group 56763">
                <path id="Path_132630" data-name="Path 132630" d="M145.028,52.711,121.145,38.672h0l-1.3-.762-1.309.74h0L93.151,53.037l25.187,14.806ZM131.459,57.4,121,51.241l.11-9.552L139.8,52.672ZM98.383,53.081l20.115-11.4-.116,9.541L106.593,57.9Zm10.812,6.353L119.669,53.5l9.165,5.387-10.48,5.939Z" transform="translate(-73.494 -25.899)" fill="#5b376c"/>
                <path id="Path_132631" data-name="Path 132631" d="M134.934,101.513,180.474,75.7l.144-12.574h0l.017-1.508-1.3-.768h0L136.6,35.736,91.068,61.553h0l-1.309.74L89.742,63.8h0L89.593,76.37l42.728,25.121h0l1.3.768,1.309-.746Zm43.054-36.894-.111,9.547-42.9,24.325.111-9.547,16.823-9.536ZM93.67,63.083l42.91-24.331,40.126,23.59L150.5,77.2l-16.7,9.469L98.388,65.857Zm-1.442,11.8.11-9.552L112.023,76.9l20.441,12.022-.11,9.558Z" transform="translate(-89.593 -35.736)" fill="#804d98"/>
                <path id="Path_135300" data-name="Path 135300" d="M134.934,101.513,180.474,75.7l.144-12.574h0l.017-1.508-1.3-.768h0L136.6,35.736,91.068,61.553h0l-1.309.74L89.742,63.8h0L89.593,76.37l42.728,25.121h0l1.3.768,1.309-.746Zm43.054-36.894-.111,9.547-42.9,24.325.111-9.547,16.823-9.536ZM93.67,63.083l42.91-24.331,40.126,23.59L150.5,77.2l-16.7,9.469L98.388,65.857Zm-1.442,11.8.11-9.552L112.023,76.9l20.441,12.022-.11,9.558Z" transform="translate(-89.593 -35.736)" fill="rgba(0,0,0,0.29)"/>
              </g>
            </g>
          </g>
        </g>
        <g id="_7" data-name="7" transform="translate(336.841 320.659)">
          <g id="Group_56765" data-name="Group 56765" transform="translate(0.306 110.71)">
            <path id="Path_132632" data-name="Path 132632" d="M115.487,33a1.148,1.148,0,0,1,0,2.177,4.155,4.155,0,0,1-3.768,0,1.15,1.15,0,0,1,0-2.177A4.155,4.155,0,0,1,115.487,33Z" transform="translate(-41.881 36.555)" fill="rgba(25,41,70,0.41)" stroke="rgba(0,0,0,0)" stroke-width="1"/>
            <path id="Path_132633" data-name="Path 132633" d="M117.274,31.965a1.15,1.15,0,0,1,0,2.177,4.155,4.155,0,0,1-3.768,0,1.148,1.148,0,0,1,0-2.177A4.189,4.189,0,0,1,117.274,31.965Z" transform="translate(-33.813 31.898)" fill="rgba(25,41,70,0.41)" stroke="rgba(0,0,0,0)" stroke-width="1"/>
            <path id="Path_132634" data-name="Path 132634" d="M119.054,30.94a1.148,1.148,0,0,1,0,2.177,4.189,4.189,0,0,1-3.768,0,1.15,1.15,0,0,1,0-2.177A4.155,4.155,0,0,1,119.054,30.94Z" transform="translate(-25.742 27.239)" fill="rgba(25,41,70,0.41)" stroke="rgba(0,0,0,0)" stroke-width="1"/>
            <path id="Path_132635" data-name="Path 132635" d="M113.707,31.965a1.15,1.15,0,0,1,0,2.177,4.155,4.155,0,0,1-3.768,0,1.148,1.148,0,0,1,0-2.177A4.189,4.189,0,0,1,113.707,31.965Z" transform="translate(-49.952 31.898)" fill="rgba(25,41,70,0.41)" stroke="rgba(0,0,0,0)" stroke-width="1"/>
            <path id="Path_132636" data-name="Path 132636" d="M115.487,30.94a1.148,1.148,0,0,1,0,2.177,4.189,4.189,0,0,1-3.768,0,1.15,1.15,0,0,1,0-2.177A4.155,4.155,0,0,1,115.487,30.94Z" transform="translate(-41.881 27.239)" fill="rgba(25,41,70,0.41)" stroke="rgba(0,0,0,0)" stroke-width="1"/>
            <path id="Path_132637" data-name="Path 132637" d="M117.274,29.91a1.15,1.15,0,0,1,0,2.177,4.155,4.155,0,0,1-3.768,0,1.148,1.148,0,0,1,0-2.177A4.155,4.155,0,0,1,117.274,29.91Z" transform="translate(-33.813 22.579)" fill="rgba(25,41,70,0.41)" stroke="rgba(0,0,0,0)" stroke-width="1"/>
            <path id="Path_132638" data-name="Path 132638" d="M111.92,30.94a1.148,1.148,0,0,1,0,2.177,4.189,4.189,0,0,1-3.768,0,1.15,1.15,0,0,1,0-2.177A4.155,4.155,0,0,1,111.92,30.94Z" transform="translate(-58.021 27.239)" fill="rgba(25,41,70,0.41)" stroke="rgba(0,0,0,0)" stroke-width="1"/>
            <path id="Path_132639" data-name="Path 132639" d="M113.707,29.91a1.15,1.15,0,0,1,0,2.177,4.155,4.155,0,0,1-3.768,0,1.148,1.148,0,0,1,0-2.177A4.155,4.155,0,0,1,113.707,29.91Z" transform="translate(-49.952 22.579)" fill="rgba(25,41,70,0.41)" stroke="rgba(0,0,0,0)" stroke-width="1"/>
            <path id="Path_132640" data-name="Path 132640" d="M115.487,28.876a1.148,1.148,0,0,1,0,2.177,4.155,4.155,0,0,1-3.768,0,1.15,1.15,0,0,1,0-2.177A4.189,4.189,0,0,1,115.487,28.876Z" transform="translate(-41.881 17.922)" fill="rgba(25,41,70,0.41)" stroke="rgba(0,0,0,0)" stroke-width="1"/>
            <path id="Path_132641" data-name="Path 132641" d="M110.14,29.91a1.15,1.15,0,0,1,0,2.177,4.155,4.155,0,0,1-3.768,0,1.148,1.148,0,0,1,0-2.177A4.155,4.155,0,0,1,110.14,29.91Z" transform="translate(-66.092 22.579)" fill="rgba(25,41,70,0.41)" stroke="rgba(0,0,0,0)" stroke-width="1"/>
            <path id="Path_132642" data-name="Path 132642" d="M111.92,28.876a1.148,1.148,0,0,1,0,2.177,4.155,4.155,0,0,1-3.768,0,1.15,1.15,0,0,1,0-2.177A4.189,4.189,0,0,1,111.92,28.876Z" transform="translate(-58.021 17.922)" fill="rgba(25,41,70,0.41)" stroke="rgba(0,0,0,0)" stroke-width="1"/>
            <path id="Path_132643" data-name="Path 132643" d="M113.707,27.851a1.15,1.15,0,0,1,0,2.177,4.189,4.189,0,0,1-3.768,0,1.148,1.148,0,0,1,0-2.177A4.155,4.155,0,0,1,113.707,27.851Z" transform="translate(-49.952 13.262)" fill="rgba(25,41,70,0.41)" stroke="rgba(0,0,0,0)" stroke-width="1"/>
            <path id="Path_132644" data-name="Path 132644" d="M108.353,28.876a1.148,1.148,0,0,1,0,2.177,4.155,4.155,0,0,1-3.768,0,1.15,1.15,0,0,1,0-2.177A4.189,4.189,0,0,1,108.353,28.876Z" transform="translate(-74.161 17.922)" fill="rgba(25,41,70,0.41)" stroke="rgba(0,0,0,0)" stroke-width="1"/>
            <path id="Path_132645" data-name="Path 132645" d="M110.14,27.851a1.15,1.15,0,0,1,0,2.177,4.189,4.189,0,0,1-3.768,0,1.148,1.148,0,0,1,0-2.177A4.155,4.155,0,0,1,110.14,27.851Z" transform="translate(-66.092 13.262)" fill="rgba(25,41,70,0.41)" stroke="rgba(0,0,0,0)" stroke-width="1"/>
            <ellipse id="Ellipse_11428" data-name="Ellipse 11428" cx="2.665" cy="1.538" rx="2.665" ry="1.538" transform="translate(49.352 34.973)" fill="rgba(25,41,70,0.41)" stroke="rgba(0,0,0,0)" stroke-width="1"/>
            <path id="Path_132646" data-name="Path 132646" d="M106.554,27.84a1.148,1.148,0,0,1,0,2.177,4.189,4.189,0,0,1-3.768,0,1.15,1.15,0,0,1,0-2.177A4.155,4.155,0,0,1,106.554,27.84Z" transform="translate(-82.3 13.213)" fill="rgba(25,41,70,0.41)" stroke="rgba(0,0,0,0)" stroke-width="1"/>
            <path id="Path_132647" data-name="Path 132647" d="M108.341,26.81a1.15,1.15,0,0,1,0,2.177,4.155,4.155,0,0,1-3.768,0,1.148,1.148,0,0,1,0-2.177A4.155,4.155,0,0,1,108.341,26.81Z" transform="translate(-74.232 8.552)" fill="rgba(25,41,70,0.41)" stroke="rgba(0,0,0,0)" stroke-width="1"/>
            <path id="Path_132648" data-name="Path 132648" d="M110.121,25.781a1.144,1.144,0,0,1,0,2.171,4.155,4.155,0,0,1-3.768,0,1.146,1.146,0,0,1,0-2.171A4.155,4.155,0,0,1,110.121,25.781Z" transform="translate(-66.161 3.896)" fill="rgba(25,41,70,0.41)" stroke="rgba(0,0,0,0)" stroke-width="1"/>
            <path id="Path_132649" data-name="Path 132649" d="M104.774,26.81a1.15,1.15,0,0,1,0,2.177,4.155,4.155,0,0,1-3.768,0,1.148,1.148,0,0,1,0-2.177A4.155,4.155,0,0,1,104.774,26.81Z" transform="translate(-90.371 8.552)" fill="rgba(25,41,70,0.41)" stroke="rgba(0,0,0,0)" stroke-width="1"/>
            <path id="Path_132650" data-name="Path 132650" d="M106.554,25.781a1.144,1.144,0,0,1,0,2.171,4.155,4.155,0,0,1-3.768,0,1.146,1.146,0,0,1,0-2.171A4.155,4.155,0,0,1,106.554,25.781Z" transform="translate(-82.3 3.896)" fill="rgba(25,41,70,0.41)" stroke="rgba(0,0,0,0)" stroke-width="1"/>
            <path id="Path_132651" data-name="Path 132651" d="M108.341,24.751a1.15,1.15,0,0,1,0,2.177,4.189,4.189,0,0,1-3.768,0,1.148,1.148,0,0,1,0-2.177A4.155,4.155,0,0,1,108.341,24.751Z" transform="translate(-74.232 -0.764)" fill="rgba(25,41,70,0.41)" stroke="rgba(0,0,0,0)" stroke-width="1"/>
            <path id="Path_132652" data-name="Path 132652" d="M102.992,25.781a1.146,1.146,0,0,1,0,2.171,4.166,4.166,0,0,1-3.773,0,1.146,1.146,0,0,1,0-2.171A4.166,4.166,0,0,1,102.992,25.781Z" transform="translate(-98.44 3.896)" fill="rgba(25,41,70,0.41)" stroke="rgba(0,0,0,0)" stroke-width="1"/>
            <path id="Path_132653" data-name="Path 132653" d="M104.774,24.751a1.15,1.15,0,0,1,0,2.177,4.189,4.189,0,0,1-3.768,0,1.148,1.148,0,0,1,0-2.177A4.155,4.155,0,0,1,104.774,24.751Z" transform="translate(-90.371 -0.764)" fill="rgba(25,41,70,0.41)" stroke="rgba(0,0,0,0)" stroke-width="1"/>
            <path id="Path_132654" data-name="Path 132654" d="M106.554,23.721a1.148,1.148,0,0,1,0,2.177,4.155,4.155,0,0,1-3.768,0,1.15,1.15,0,0,1,0-2.177A4.155,4.155,0,0,1,106.554,23.721Z" transform="translate(-82.3 -5.425)" fill="rgba(25,41,70,0.41)" stroke="rgba(0,0,0,0)" stroke-width="1"/>
            <path id="Path_132655" data-name="Path 132655" d="M102.992,23.721a1.15,1.15,0,0,1,0,2.177,4.166,4.166,0,0,1-3.773,0,1.15,1.15,0,0,1,0-2.177A4.167,4.167,0,0,1,102.992,23.721Z" transform="translate(-98.44 -5.425)" fill="rgba(25,41,70,0.41)" stroke="rgba(0,0,0,0)" stroke-width="1"/>
            <path id="Path_132656" data-name="Path 132656" d="M104.771,22.687a1.15,1.15,0,0,1,0,2.177,4.155,4.155,0,0,1-3.768,0,1.15,1.15,0,0,1,0-2.177A4.189,4.189,0,0,1,104.771,22.687Z" transform="translate(-90.368 -10.082)" fill="rgba(25,41,70,0.41)" stroke="rgba(0,0,0,0)" stroke-width="1"/>
            <path id="Path_132657" data-name="Path 132657" d="M102.992,21.662a1.15,1.15,0,0,1,0,2.177,4.2,4.2,0,0,1-3.773,0,1.15,1.15,0,0,1,0-2.177A4.166,4.166,0,0,1,102.992,21.662Z" transform="translate(-98.44 -14.741)" fill="rgba(25,41,70,0.41)" stroke="rgba(0,0,0,0)" stroke-width="1"/>
            <ellipse id="Ellipse_11429" data-name="Ellipse 11429" cx="2.665" cy="1.538" rx="2.665" ry="1.538" transform="translate(138.503 85.321)" fill="rgba(25,41,70,0.41)" stroke="rgba(0,0,0,0)" stroke-width="1"/>
            <path id="Path_132658" data-name="Path 132658" d="M129.845,34.9a1.146,1.146,0,0,1,0,2.171,4.167,4.167,0,0,1-3.773,0,1.146,1.146,0,0,1,0-2.171A4.166,4.166,0,0,1,129.845,34.9Z" transform="translate(23.061 45.179)" fill="rgba(25,41,70,0.41)" stroke="rgba(0,0,0,0)" stroke-width="1"/>
            <ellipse id="Ellipse_11430" data-name="Ellipse 11430" cx="2.665" cy="1.539" rx="2.665" ry="1.539" transform="translate(158.209 73.943)" fill="rgba(25,41,70,0.41)" stroke="rgba(0,0,0,0)" stroke-width="1"/>
            <ellipse id="Ellipse_11431" data-name="Ellipse 11431" cx="2.665" cy="1.538" rx="2.665" ry="1.538" transform="translate(118.71 85.261)" fill="rgba(25,41,70,0.41)" stroke="rgba(0,0,0,0)" stroke-width="1"/>
            <path id="Path_132659" data-name="Path 132659" d="M126.258,34.894a1.148,1.148,0,0,1,0,2.177,4.189,4.189,0,0,1-3.768,0,1.15,1.15,0,0,1,0-2.177A4.155,4.155,0,0,1,126.258,34.894Z" transform="translate(6.854 45.13)" fill="rgba(25,41,70,0.41)" stroke="rgba(0,0,0,0)" stroke-width="1"/>
            <path id="Path_132660" data-name="Path 132660" d="M128.045,33.864a1.15,1.15,0,0,1,0,2.177,4.155,4.155,0,0,1-3.768,0,1.148,1.148,0,0,1,0-2.177A4.155,4.155,0,0,1,128.045,33.864Z" transform="translate(14.922 40.469)" fill="rgba(25,41,70,0.41)" stroke="rgba(0,0,0,0)" stroke-width="1"/>
            <path id="Path_132661" data-name="Path 132661" d="M129.825,32.83a1.148,1.148,0,0,1,0,2.177,4.155,4.155,0,0,1-3.768,0,1.15,1.15,0,0,1,0-2.177A4.189,4.189,0,0,1,129.825,32.83Z" transform="translate(22.993 35.812)" fill="rgba(25,41,70,0.41)" stroke="rgba(0,0,0,0)" stroke-width="1"/>
            <path id="Path_132662" data-name="Path 132662" d="M120.911,35.924a1.146,1.146,0,0,1,0,2.171,4.155,4.155,0,0,1-3.768,0,1.144,1.144,0,0,1,0-2.171A4.155,4.155,0,0,1,120.911,35.924Z" transform="translate(-17.357 49.79)" fill="rgba(25,41,70,0.41)" stroke="rgba(0,0,0,0)" stroke-width="1"/>
            <ellipse id="Ellipse_11432" data-name="Ellipse 11432" cx="2.665" cy="1.539" rx="2.665" ry="1.539" transform="translate(108.857 79.572)" fill="rgba(25,41,70,0.41)" stroke="rgba(0,0,0,0)" stroke-width="1"/>
            <path id="Path_132663" data-name="Path 132663" d="M124.478,33.864a1.15,1.15,0,0,1,0,2.177,4.155,4.155,0,0,1-3.768,0,1.148,1.148,0,0,1,0-2.177A4.155,4.155,0,0,1,124.478,33.864Z" transform="translate(-1.217 40.469)" fill="rgba(25,41,70,0.41)" stroke="rgba(0,0,0,0)" stroke-width="1"/>
            <path id="Path_132664" data-name="Path 132664" d="M126.258,32.83a1.148,1.148,0,0,1,0,2.177,4.155,4.155,0,0,1-3.768,0,1.15,1.15,0,0,1,0-2.177A4.189,4.189,0,0,1,126.258,32.83Z" transform="translate(6.854 35.812)" fill="rgba(25,41,70,0.41)" stroke="rgba(0,0,0,0)" stroke-width="1"/>
            <path id="Path_132665" data-name="Path 132665" d="M128.045,31.8a1.15,1.15,0,0,1,0,2.177,4.189,4.189,0,0,1-3.768,0,1.148,1.148,0,0,1,0-2.177A4.155,4.155,0,0,1,128.045,31.8Z" transform="translate(14.922 31.153)" fill="rgba(25,41,70,0.41)" stroke="rgba(0,0,0,0)" stroke-width="1"/>
            <ellipse id="Ellipse_11433" data-name="Ellipse 11433" cx="2.665" cy="1.538" rx="2.665" ry="1.538" transform="translate(89.15 79.572)" fill="rgba(25,41,70,0.41)" stroke="rgba(0,0,0,0)" stroke-width="1"/>
            <path id="Path_132666" data-name="Path 132666" d="M120.911,33.864a1.15,1.15,0,0,1,0,2.177,4.155,4.155,0,0,1-3.768,0,1.148,1.148,0,0,1,0-2.177A4.155,4.155,0,0,1,120.911,33.864Z" transform="translate(-17.357 40.469)" fill="rgba(25,41,70,0.41)" stroke="rgba(0,0,0,0)" stroke-width="1"/>
            <path id="Path_132667" data-name="Path 132667" d="M122.691,32.83a1.148,1.148,0,0,1,0,2.177,4.155,4.155,0,0,1-3.768,0,1.15,1.15,0,0,1,0-2.177A4.189,4.189,0,0,1,122.691,32.83Z" transform="translate(-9.286 35.812)" fill="rgba(25,41,70,0.41)" stroke="rgba(0,0,0,0)" stroke-width="1"/>
            <path id="Path_132668" data-name="Path 132668" d="M121.852,30.775a4.155,4.155,0,0,1,3.768,0,1.148,1.148,0,0,1,0,2.177,4.155,4.155,0,0,1-3.768,0Z" transform="translate(7.492 26.493)" fill="rgba(25,41,70,0.41)" stroke="rgba(0,0,0,0)" stroke-width="1"/>
            <path id="Path_132669" data-name="Path 132669" d="M117.344,33.864a1.15,1.15,0,0,1,0,2.177,4.155,4.155,0,0,1-3.768,0,1.148,1.148,0,0,1,0-2.177A4.155,4.155,0,0,1,117.344,33.864Z" transform="translate(-33.496 40.469)" fill="rgba(25,41,70,0.41)" stroke="rgba(0,0,0,0)" stroke-width="1"/>
            <path id="Path_132670" data-name="Path 132670" d="M119.124,32.83a1.148,1.148,0,0,1,0,2.177,4.155,4.155,0,0,1-3.768,0,1.15,1.15,0,0,1,0-2.177A4.189,4.189,0,0,1,119.124,32.83Z" transform="translate(-25.425 35.812)" fill="rgba(25,41,70,0.41)" stroke="rgba(0,0,0,0)" stroke-width="1"/>
            <path id="Path_132671" data-name="Path 132671" d="M120.911,31.8a1.15,1.15,0,0,1,0,2.177,4.189,4.189,0,0,1-3.768,0,1.148,1.148,0,0,1,0-2.177A4.155,4.155,0,0,1,120.911,31.8Z" transform="translate(-17.357 31.153)" fill="rgba(25,41,70,0.41)" stroke="rgba(0,0,0,0)" stroke-width="1"/>
            <path id="Path_132672" data-name="Path 132672" d="M129.642,32.86a4.172,4.172,0,0,1,3.768-.006,1.149,1.149,0,0,1,.006,2.177,4.172,4.172,0,0,1-3.768.006A1.149,1.149,0,0,1,129.642,32.86Z" transform="translate(39.219 35.926)" fill="rgba(25,41,70,0.41)" stroke="rgba(0,0,0,0)" stroke-width="1"/>
            <path id="Path_132673" data-name="Path 132673" d="M135.2,31.829a1.15,1.15,0,0,1,0,2.177,4.189,4.189,0,0,1-3.768,0,1.148,1.148,0,0,1,0-2.177A4.155,4.155,0,0,1,135.2,31.829Z" transform="translate(47.297 31.262)" fill="rgba(25,41,70,0.41)" stroke="rgba(0,0,0,0)" stroke-width="1"/>
            <path id="Path_132674" data-name="Path 132674" d="M136.98,30.8a1.148,1.148,0,0,1,0,2.177,4.155,4.155,0,0,1-3.768,0,1.15,1.15,0,0,1,0-2.177A4.155,4.155,0,0,1,136.98,30.8Z" transform="translate(55.367 26.601)" fill="rgba(25,41,70,0.41)" stroke="rgba(0,0,0,0)" stroke-width="1"/>
            <path id="Path_132675" data-name="Path 132675" d="M138.767,29.77a1.146,1.146,0,0,1,0,2.171,4.155,4.155,0,0,1-3.768,0,1.144,1.144,0,0,1,0-2.171A4.155,4.155,0,0,1,138.767,29.77Z" transform="translate(63.436 21.945)" fill="rgba(25,41,70,0.41)" stroke="rgba(0,0,0,0)" stroke-width="1"/>
            <path id="Path_132676" data-name="Path 132676" d="M140.547,28.74a1.148,1.148,0,0,1,0,2.177,4.189,4.189,0,0,1-3.768,0,1.15,1.15,0,0,1,0-2.177A4.155,4.155,0,0,1,140.547,28.74Z" transform="translate(71.507 17.285)" fill="rgba(25,41,70,0.41)" stroke="rgba(0,0,0,0)" stroke-width="1"/>
            <path id="Path_132677" data-name="Path 132677" d="M142.334,27.71a1.15,1.15,0,0,1,0,2.177,4.155,4.155,0,0,1-3.768,0,1.148,1.148,0,0,1,0-2.177A4.155,4.155,0,0,1,142.334,27.71Z" transform="translate(79.576 12.624)" fill="rgba(25,41,70,0.41)" stroke="rgba(0,0,0,0)" stroke-width="1"/>
            <path id="Path_132678" data-name="Path 132678" d="M144.114,26.676a1.148,1.148,0,0,1,0,2.177,4.155,4.155,0,0,1-3.768,0,1.15,1.15,0,0,1,0-2.177A4.189,4.189,0,0,1,144.114,26.676Z" transform="translate(87.647 7.967)" fill="rgba(25,41,70,0.41)" stroke="rgba(0,0,0,0)" stroke-width="1"/>
            <path id="Path_132679" data-name="Path 132679" d="M145.9,25.651a1.146,1.146,0,0,1,0,2.171,4.155,4.155,0,0,1-3.768,0,1.144,1.144,0,0,1,0-2.171A4.155,4.155,0,0,1,145.9,25.651Z" transform="translate(95.715 3.308)" fill="rgba(25,41,70,0.41)" stroke="rgba(0,0,0,0)" stroke-width="1"/>
            <path id="Path_132680" data-name="Path 132680" d="M147.681,24.621a1.148,1.148,0,0,1,0,2.177,4.155,4.155,0,0,1-3.768,0,1.15,1.15,0,0,1,0-2.177A4.155,4.155,0,0,1,147.681,24.621Z" transform="translate(103.786 -1.352)" fill="rgba(25,41,70,0.41)" stroke="rgba(0,0,0,0)" stroke-width="1"/>
            <path id="Path_132681" data-name="Path 132681" d="M127.843,31.819a4.155,4.155,0,0,1,3.768,0,1.145,1.145,0,0,1,.005,2.171,4.155,4.155,0,0,1-3.768.006A1.149,1.149,0,0,1,127.843,31.819Z" transform="translate(31.08 31.216)" fill="rgba(25,41,70,0.41)" stroke="rgba(0,0,0,0)" stroke-width="1"/>
            <path id="Path_132682" data-name="Path 132682" d="M133.4,30.784a1.15,1.15,0,0,1,0,2.177,4.155,4.155,0,0,1-3.768,0,1.148,1.148,0,0,1,0-2.177A4.189,4.189,0,0,1,133.4,30.784Z" transform="translate(39.157 26.555)" fill="rgba(25,41,70,0.41)" stroke="rgba(0,0,0,0)" stroke-width="1"/>
            <ellipse id="Ellipse_11434" data-name="Ellipse 11434" cx="2.665" cy="1.538" rx="2.665" ry="1.538" transform="translate(177.861 51.202)" fill="rgba(25,41,70,0.41)" stroke="rgba(0,0,0,0)" stroke-width="1"/>
            <path id="Path_132683" data-name="Path 132683" d="M136.968,28.729a1.15,1.15,0,0,1,0,2.177,4.155,4.155,0,0,1-3.768,0,1.148,1.148,0,0,1,0-2.177A4.155,4.155,0,0,1,136.968,28.729Z" transform="translate(55.296 17.235)" fill="rgba(25,41,70,0.41)" stroke="rgba(0,0,0,0)" stroke-width="1"/>
            <ellipse id="Ellipse_11435" data-name="Ellipse 11435" cx="2.665" cy="1.538" rx="2.665" ry="1.538" transform="translate(197.567 39.825)" fill="rgba(25,41,70,0.41)" stroke="rgba(0,0,0,0)" stroke-width="1"/>
            <path id="Path_132684" data-name="Path 132684" d="M140.535,26.67a1.146,1.146,0,0,1,0,2.171,4.155,4.155,0,0,1-3.768,0,1.144,1.144,0,0,1,0-2.171A4.155,4.155,0,0,1,140.535,26.67Z" transform="translate(71.436 7.919)" fill="rgba(25,41,70,0.41)" stroke="rgba(0,0,0,0)" stroke-width="1"/>
            <path id="Path_132685" data-name="Path 132685" d="M142.315,25.64a1.148,1.148,0,0,1,0,2.177,4.189,4.189,0,0,1-3.768,0,1.15,1.15,0,0,1,0-2.177A4.155,4.155,0,0,1,142.315,25.64Z" transform="translate(79.507 3.258)" fill="rgba(25,41,70,0.41)" stroke="rgba(0,0,0,0)" stroke-width="1"/>
            <path id="Path_132686" data-name="Path 132686" d="M144.1,24.61a1.15,1.15,0,0,1,0,2.177,4.155,4.155,0,0,1-3.768,0,1.148,1.148,0,0,1,0-2.177A4.155,4.155,0,0,1,144.1,24.61Z" transform="translate(87.575 -1.402)" fill="rgba(25,41,70,0.41)" stroke="rgba(0,0,0,0)" stroke-width="1"/>
            <path id="Path_132687" data-name="Path 132687" d="M145.882,23.576a1.148,1.148,0,0,1,0,2.177,4.155,4.155,0,0,1-3.768,0,1.15,1.15,0,0,1,0-2.177A4.189,4.189,0,0,1,145.882,23.576Z" transform="translate(95.646 -6.059)" fill="rgba(25,41,70,0.41)" stroke="rgba(0,0,0,0)" stroke-width="1"/>
            <path id="Path_132688" data-name="Path 132688" d="M147.669,22.551a1.146,1.146,0,0,1,0,2.171,4.155,4.155,0,0,1-3.768,0,1.144,1.144,0,0,1,0-2.171A4.155,4.155,0,0,1,147.669,22.551Z" transform="translate(103.715 -10.718)" fill="rgba(25,41,70,0.41)" stroke="rgba(0,0,0,0)" stroke-width="1"/>
            <path id="Path_132689" data-name="Path 132689" d="M126.057,30.792a4.155,4.155,0,0,1,3.768-.006,1.149,1.149,0,0,1,.011,2.177,4.155,4.155,0,0,1-3.768,0A1.145,1.145,0,0,1,126.057,30.792Z" transform="translate(23.01 26.558)" fill="rgba(25,41,70,0.41)" stroke="rgba(0,0,0,0)" stroke-width="1"/>
            <path id="Path_132690" data-name="Path 132690" d="M131.614,29.759a1.144,1.144,0,0,1,0,2.171,4.155,4.155,0,0,1-3.768,0,1.146,1.146,0,0,1,0-2.171A4.155,4.155,0,0,1,131.614,29.759Z" transform="translate(31.088 21.895)" fill="rgba(25,41,70,0.41)" stroke="rgba(0,0,0,0)" stroke-width="1"/>
            <path id="Path_132691" data-name="Path 132691" d="M133.4,28.729a1.15,1.15,0,0,1,0,2.177,4.155,4.155,0,0,1-3.768,0,1.148,1.148,0,0,1,0-2.177A4.155,4.155,0,0,1,133.4,28.729Z" transform="translate(39.157 17.235)" fill="rgba(25,41,70,0.41)" stroke="rgba(0,0,0,0)" stroke-width="1"/>
            <ellipse id="Ellipse_11436" data-name="Ellipse 11436" cx="2.665" cy="1.538" rx="2.665" ry="1.538" transform="translate(177.861 39.825)" fill="rgba(25,41,70,0.41)" stroke="rgba(0,0,0,0)" stroke-width="1"/>
            <path id="Path_132692" data-name="Path 132692" d="M136.968,26.67a1.146,1.146,0,0,1,0,2.171,4.155,4.155,0,0,1-3.768,0,1.144,1.144,0,0,1,0-2.171A4.155,4.155,0,0,1,136.968,26.67Z" transform="translate(55.296 7.919)" fill="rgba(25,41,70,0.41)" stroke="rgba(0,0,0,0)" stroke-width="1"/>
            <ellipse id="Ellipse_11437" data-name="Ellipse 11437" cx="2.665" cy="1.539" rx="2.665" ry="1.539" transform="translate(197.567 28.446)" fill="rgba(25,41,70,0.41)" stroke="rgba(0,0,0,0)" stroke-width="1"/>
            <ellipse id="Ellipse_11438" data-name="Ellipse 11438" cx="2.665" cy="1.538" rx="2.665" ry="1.538" transform="translate(207.421 22.758)" fill="rgba(25,41,70,0.41)" stroke="rgba(0,0,0,0)" stroke-width="1"/>
            <path id="Path_132693" data-name="Path 132693" d="M142.315,23.576a1.148,1.148,0,0,1,0,2.177,4.155,4.155,0,0,1-3.768,0,1.15,1.15,0,0,1,0-2.177A4.189,4.189,0,0,1,142.315,23.576Z" transform="translate(79.507 -6.059)" fill="rgba(25,41,70,0.41)" stroke="rgba(0,0,0,0)" stroke-width="1"/>
            <ellipse id="Ellipse_11439" data-name="Ellipse 11439" cx="2.665" cy="1.538" rx="2.665" ry="1.538" transform="translate(227.128 11.38)" fill="rgba(25,41,70,0.41)" stroke="rgba(0,0,0,0)" stroke-width="1"/>
            <path id="Path_132694" data-name="Path 132694" d="M145.882,21.521a1.148,1.148,0,0,1,0,2.177,4.155,4.155,0,0,1-3.768,0,1.15,1.15,0,0,1,0-2.177A4.155,4.155,0,0,1,145.882,21.521Z" transform="translate(95.646 -15.379)" fill="rgba(25,41,70,0.41)" stroke="rgba(0,0,0,0)" stroke-width="1"/>
            <path id="Path_132695" data-name="Path 132695" d="M147.669,20.491a1.15,1.15,0,0,1,0,2.177,4.155,4.155,0,0,1-3.768,0,1.148,1.148,0,0,1,0-2.177A4.155,4.155,0,0,1,147.669,20.491Z" transform="translate(103.715 -20.039)" fill="rgba(25,41,70,0.41)" stroke="rgba(0,0,0,0)" stroke-width="1"/>
            <path id="Path_132696" data-name="Path 132696" d="M124.276,29.76a4.172,4.172,0,0,1,3.768-.006,1.149,1.149,0,0,1,.005,2.177,4.172,4.172,0,0,1-3.768.006A1.149,1.149,0,0,1,124.276,29.76Z" transform="translate(14.94 21.899)" fill="rgba(25,41,70,0.41)" stroke="rgba(0,0,0,0)" stroke-width="1"/>
            <path id="Path_132697" data-name="Path 132697" d="M129.834,28.729a1.15,1.15,0,0,1,0,2.177,4.155,4.155,0,0,1-3.768,0,1.148,1.148,0,0,1,0-2.177A4.155,4.155,0,0,1,129.834,28.729Z" transform="translate(23.017 17.235)" fill="rgba(25,41,70,0.41)" stroke="rgba(0,0,0,0)" stroke-width="1"/>
            <path id="Path_132698" data-name="Path 132698" d="M131.614,27.7a1.148,1.148,0,0,1,0,2.177,4.155,4.155,0,0,1-3.768,0,1.15,1.15,0,0,1,0-2.177A4.155,4.155,0,0,1,131.614,27.7Z" transform="translate(31.088 12.575)" fill="rgba(25,41,70,0.41)" stroke="rgba(0,0,0,0)" stroke-width="1"/>
            <path id="Path_132699" data-name="Path 132699" d="M133.4,26.67a1.146,1.146,0,0,1,0,2.171,4.155,4.155,0,0,1-3.768,0,1.144,1.144,0,0,1,0-2.171A4.155,4.155,0,0,1,133.4,26.67Z" transform="translate(39.157 7.919)" fill="rgba(25,41,70,0.41)" stroke="rgba(0,0,0,0)" stroke-width="1"/>
            <ellipse id="Ellipse_11440" data-name="Ellipse 11440" cx="2.665" cy="1.539" rx="2.665" ry="1.539" transform="translate(177.861 28.447)" fill="rgba(25,41,70,0.41)" stroke="rgba(0,0,0,0)" stroke-width="1"/>
            <path id="Path_132700" data-name="Path 132700" d="M136.968,24.24a1.15,1.15,0,0,1,0,2.177,4.155,4.155,0,0,1-3.768,0,1.148,1.148,0,0,1,0-2.177Z" transform="translate(55.296 -1.032)" fill="rgba(25,41,70,0.41)" stroke="rgba(0,0,0,0)" stroke-width="1"/>
            <path id="Path_132701" data-name="Path 132701" d="M138.11,23.21a1.148,1.148,0,0,1,0,2.177,4.155,4.155,0,0,1-3.768,0Z" transform="translate(64.005 -5.693)" fill="rgba(25,41,70,0.41)" stroke="rgba(0,0,0,0)" stroke-width="1"/>
          </g>
          <g id="Group_56770" data-name="Group 56770">
            <g id="Group_56766" data-name="Group 56766" transform="translate(0 70.208)">
              <path id="Path_132702" data-name="Path 132702" d="M98.757,42.759h0L99.276,13H344.694l-.326,29c.072.746,0,0-.1.757h0c-.564,4.3-3.945,8.718-10.027,12.232l-91.566,52.915c-12.226,7.066-30.717,7.828-41.3,1.713L105.817,54.4C100.5,51.328,98.193,47.1,98.757,42.759Z" transform="translate(-97.076 -11.396)" fill="#42a7c6"/>
              <path id="Path_132703" data-name="Path 132703" d="M98.757,42.761h0L99.276,13H344.694l-.326,29c.072.74,0,0-.1.751v.006h0c-.564,4.3-3.945,8.712-10.027,12.232l-91.566,52.915c-12.226,7.061-30.717,7.828-41.3,1.713L105.817,54.4C100.5,51.33,98.193,47.1,98.757,42.761Z" transform="translate(-97.076 -11.387)" fill="#42a7c6"/>
              <path id="Path_132704" data-name="Path 132704" d="M220.614,116.633c-7.022,0-13.729-1.42-18.734-4.315L106.325,57.1c-5.624-3.249-8.48-8.033-7.856-13.138l.271-28.905,248.881-2.348-.342,30.623a1.75,1.75,0,0,1-.127,1.044c-.729,5.016-4.558,9.707-10.8,13.314l-91.566,52.915C237.89,114.594,229.028,116.633,220.614,116.633ZM102.16,15.918l-.5,28.364c-.5,3.851,1.729,7.414,6.271,10.044l95.555,55.219c10.127,5.851,27.933,5.083,39.7-1.713l91.566-52.915c5.436-3.144,8.718-7.066,9.237-11.049a3.522,3.522,0,0,1,.094-.47l-.005-.1.3-27.375Z" transform="translate(-98.385 -12.708)" fill="#35869f"/>
            </g>
            <g id="Group_56767" data-name="Group 56767" transform="translate(0.355)">
              <path id="Path_132705" data-name="Path 132705" d="M105.886,82.912l95.555,55.219c10.585,6.116,29.082,5.348,41.3-1.713L334.309,83.5c12.226-7.066,13.552-17.751,2.967-23.872L241.721,4.412C231.136-1.7,212.645-.936,200.419,6.13L108.853,59.04C96.627,66.106,95.3,76.791,105.886,82.912Z" transform="translate(-97.135 1.284)" fill="#42a7c6"/>
              <path id="Path_132706" data-name="Path 132706" d="M105.711,84.911l95.555,55.219c10.591,6.121,29.082,5.353,41.308-1.713L334.134,85.5c12.226-7.061,13.558-17.751,2.967-23.867L241.546,6.416C230.961.3,212.47,1.068,200.244,8.129L108.678,61.044C96.452,68.11,95.126,78.8,105.711,84.911Z" transform="translate(-97.927 10.351)" fill="#42a7c6"/>
              <path id="Path_135298" data-name="Path 135298" d="M105.711,84.911l95.555,55.219c10.591,6.121,29.082,5.353,41.308-1.713L334.134,85.5c12.226-7.061,13.558-17.751,2.967-23.867L241.546,6.416C230.961.3,212.47,1.068,200.244,8.129L108.678,61.044C96.452,68.11,95.126,78.8,105.711,84.911Z" transform="translate(-97.927 10.351)" fill="rgba(255,255,255,0.86)"/>
              <path id="Path_132707" data-name="Path 132707" d="M220.688,145.111c-7.016,0-13.729-1.414-18.734-4.309L106.4,85.583c-5.127-2.961-7.95-7.138-7.95-11.757,0-5.453,3.978-10.878,10.917-14.889L200.932,6.022c12.652-7.3,31.9-8.072,42.9-1.713l95.555,55.219c5.127,2.961,7.95,7.138,7.95,11.757,0,5.453-3.978,10.878-10.917,14.889l-91.566,52.915C237.964,143.073,229.108,145.111,220.688,145.111ZM225.1,3.155A46.326,46.326,0,0,0,202.534,8.8L110.968,61.716c-5.917,3.42-9.309,7.834-9.309,12.11,0,3.425,2.254,6.619,6.342,8.978l95.555,55.219c10.127,5.856,27.938,5.088,39.7-1.713L334.822,83.4c5.917-3.42,9.315-7.834,9.315-12.11,0-3.425-2.254-6.613-6.348-8.978L242.234,7.088C237.665,4.447,231.533,3.155,225.1,3.155Z" transform="translate(-98.449 0)" fill="#42a7c6"/>
              <path id="Path_135296" data-name="Path 135296" d="M220.688,145.111c-7.016,0-13.729-1.414-18.734-4.309L106.4,85.583c-5.127-2.961-7.95-7.138-7.95-11.757,0-5.453,3.978-10.878,10.917-14.889L200.932,6.022c12.652-7.3,31.9-8.072,42.9-1.713l95.555,55.219c5.127,2.961,7.95,7.138,7.95,11.757,0,5.453-3.978,10.878-10.917,14.889l-91.566,52.915C237.964,143.073,229.108,145.111,220.688,145.111ZM225.1,3.155A46.326,46.326,0,0,0,202.534,8.8L110.968,61.716c-5.917,3.42-9.309,7.834-9.309,12.11,0,3.425,2.254,6.619,6.342,8.978l95.555,55.219c10.127,5.856,27.938,5.088,39.7-1.713L334.822,83.4c5.917-3.42,9.315-7.834,9.315-12.11,0-3.425-2.254-6.613-6.348-8.978L242.234,7.088C237.665,4.447,231.533,3.155,225.1,3.155Z" transform="translate(-98.449 0)" fill="rgba(0,0,0,0.2)"/>
            </g>
            <g id="Group_56768" data-name="Group 56768" transform="translate(123.616 27.784)">
              <path id="Path_132708" data-name="Path 132708" d="M125.208,38.34,121.269,10.5c2.575-1.74,1.525-1.028,4.1-2.768L175.836,36.9c.591.337,2.1,6.956,2.558,7.331l-50.645-3.552A2.722,2.722,0,0,1,125.208,38.34Z" transform="translate(-118.457 7.183)" fill="#42a7c6"/>
              <path id="Path_132709" data-name="Path 132709" d="M195.343,49.11l-68.92-4.05L120.76,5.029l2.784,1.5a3.493,3.493,0,0,1,.453.221l65.76,38a13.6,13.6,0,0,1,1.768,1.232Zm-66.119-7.094,54.987,3.226L124.832,10.929Z" transform="translate(-120.76 -5.029)" fill="#35869f"/>
            </g>
            <g id="Group_56769" data-name="Group 56769" transform="translate(53.337 28.579)">
              <path id="Path_132710" data-name="Path 132710" d="M173.146,49.527a2.728,2.728,0,0,0,2.541,2.342L239,55.588l1.453,6.132-44.65,25.8c-4.707,2.724-12.635,2.558-17.707-.37l-65.771-38.01c-5.066-2.928-5.353-7.508-.641-10.232L164.693,8.275a13.072,13.072,0,0,1,2.47-1.05Z" transform="translate(-106.728 4.112)" fill="#42a7c6"/>
              <path id="Path_132711" data-name="Path 132711" d="M188.849,91.137A20.9,20.9,0,0,1,178.606,88.6l-65.771-38.01c-3.05-1.762-4.8-4.254-4.8-6.845,0-2.425,1.475-4.613,4.155-6.166L165.2,6.952a14.2,14.2,0,0,1,2.779-1.188l1.818-.591,6.375,45.1L255.5,54.939l-3.469,2.619a9.749,9.749,0,0,1-1.1.779L197.92,88.971A18.452,18.452,0,0,1,188.849,91.137ZM167.175,9.526c-.133.066-.254.133-.37.2L113.8,40.36c-1.646.95-2.552,2.155-2.552,3.387,0,1.414,1.166,2.895,3.193,4.072l65.771,38c4.541,2.624,11.917,2.8,16.11.376L245.836,57.58l-72.467-4.254Z" transform="translate(-108.039 -5.173)" fill="#35869f"/>
            </g>
            <path id="Path_132712" data-name="Path 132712" d="M120.975,84.682v29l12.4-2.219,18.164-8.548,86.815-51.287,5.435-6.678V13l-3.565,9.241-18.7,10.953L133.642,82.609Z" transform="translate(3.827 58.814)" fill="#42a7c6"/>
            <path id="Path_135294" data-name="Path 135294" d="M120.975,84.682v29l12.4-2.219,18.164-8.548,86.815-51.287,5.435-6.678V13l-3.565,9.241-18.7,10.953L133.642,82.609Z" transform="translate(3.827 58.814)" fill="rgba(0,0,0,0.2)"/>
            <path id="Path_132713" data-name="Path 132713" d="M125.332,27.678V56.823l-7.613-2.3V25.434Z" transform="translate(-10.903 115.081)" fill="#42a7c6"/>
            <path id="Path_135295" data-name="Path 135295" d="M125.332,27.678V56.823l-7.613-2.3V25.434Z" transform="translate(-10.903 115.081)" fill="rgba(0,0,0,0.2)"/>
            <path id="Path_132714" data-name="Path 132714" d="M105.6,23.6v27.59l-4.178-3.13-3-18.881,1.4-15.888L105.6,23.6Z" transform="translate(-98.223 60.127)" fill="#42a7c6"/>
            <path id="Path_135297" data-name="Path 135297" d="M105.6,23.6v27.59l-4.178-3.13-3-18.881,1.4-15.888L105.6,23.6Z" transform="translate(-98.223 60.127)" fill="rgba(0,0,0,0.2)"/>
          </g>
        </g>
        <g id="_4" data-name="4" transform="translate(663.003 344.841)">
          <g id="Group_56771" data-name="Group 56771" transform="translate(1.108 26.176)">
            <path id="Path_132715" data-name="Path 132715" d="M134.461,55.194a1.15,1.15,0,0,1,0,2.177,4.189,4.189,0,0,1-3.768,0,1.15,1.15,0,0,1,0-2.177A4.155,4.155,0,0,1,134.461,55.194Z" transform="translate(-51.867 24.378)" fill="rgba(25,41,70,0.41)" stroke="rgba(0,0,0,0)" stroke-width="1"/>
            <path id="Path_132716" data-name="Path 132716" d="M136.249,54.164a1.15,1.15,0,0,1,0,2.177,4.166,4.166,0,0,1-3.773,0,1.15,1.15,0,0,1,0-2.177A4.167,4.167,0,0,1,136.249,54.164Z" transform="translate(-43.799 19.718)" fill="rgba(25,41,70,0.41)" stroke="rgba(0,0,0,0)" stroke-width="1"/>
            <ellipse id="Ellipse_11441" data-name="Ellipse 11441" cx="2.665" cy="1.539" rx="2.665" ry="1.539" transform="translate(68.191 73.432)" fill="rgba(25,41,70,0.41)" stroke="rgba(0,0,0,0)" stroke-width="1"/>
            <path id="Path_132717" data-name="Path 132717" d="M134.461,53.13a1.15,1.15,0,0,1,0,2.177,4.155,4.155,0,0,1-3.768,0,1.15,1.15,0,0,1,0-2.177A4.189,4.189,0,0,1,134.461,53.13Z" transform="translate(-51.867 15.061)" fill="rgba(25,41,70,0.41)" stroke="rgba(0,0,0,0)" stroke-width="1"/>
            <path id="Path_132718" data-name="Path 132718" d="M127.33,55.194a1.15,1.15,0,0,1,0,2.177,4.189,4.189,0,0,1-3.768,0,1.148,1.148,0,0,1,0-2.177A4.155,4.155,0,0,1,127.33,55.194Z" transform="translate(-84.149 24.378)" fill="rgba(25,41,70,0.41)" stroke="rgba(0,0,0,0)" stroke-width="1"/>
            <ellipse id="Ellipse_11442" data-name="Ellipse 11442" cx="2.665" cy="1.539" rx="2.665" ry="1.539" transform="translate(48.485 73.432)" fill="rgba(25,41,70,0.41)" stroke="rgba(0,0,0,0)" stroke-width="1"/>
            <path id="Path_132719" data-name="Path 132719" d="M130.894,53.13a1.15,1.15,0,0,1,0,2.177,4.155,4.155,0,0,1-3.768,0,1.15,1.15,0,0,1,0-2.177A4.189,4.189,0,0,1,130.894,53.13Z" transform="translate(-68.006 15.061)" fill="rgba(25,41,70,0.41)" stroke="rgba(0,0,0,0)" stroke-width="1"/>
            <path id="Path_132720" data-name="Path 132720" d="M132.682,52.1a1.15,1.15,0,0,1,0,2.177,4.2,4.2,0,0,1-3.773,0,1.15,1.15,0,0,1,0-2.177A4.166,4.166,0,0,1,132.682,52.1Z" transform="translate(-59.939 10.401)" fill="rgba(25,41,70,0.41)" stroke="rgba(0,0,0,0)" stroke-width="1"/>
            <path id="Path_132721" data-name="Path 132721" d="M134.461,51.075a1.15,1.15,0,0,1,0,2.177,4.155,4.155,0,0,1-3.768,0,1.15,1.15,0,0,1,0-2.177A4.155,4.155,0,0,1,134.461,51.075Z" transform="translate(-51.867 5.741)" fill="rgba(25,41,70,0.41)" stroke="rgba(0,0,0,0)" stroke-width="1"/>
            <path id="Path_132722" data-name="Path 132722" d="M136.249,50.041a1.15,1.15,0,0,1,0,2.177,4.166,4.166,0,0,1-3.773,0,1.15,1.15,0,0,1,0-2.177A4.2,4.2,0,0,1,136.249,50.041Z" transform="translate(-43.799 1.084)" fill="rgba(25,41,70,0.41)" stroke="rgba(0,0,0,0)" stroke-width="1"/>
            <path id="Path_132723" data-name="Path 132723" d="M138.028,49.016a1.146,1.146,0,0,1,0,2.171,4.155,4.155,0,0,1-3.768,0,1.146,1.146,0,0,1,0-2.171A4.155,4.155,0,0,1,138.028,49.016Z" transform="translate(-35.727 -3.575)" fill="rgba(25,41,70,0.41)" stroke="rgba(0,0,0,0)" stroke-width="1"/>
            <path id="Path_132724" data-name="Path 132724" d="M139.816,47.986a1.15,1.15,0,0,1,0,2.177,4.166,4.166,0,0,1-3.773,0,1.15,1.15,0,0,1,0-2.177A4.166,4.166,0,0,1,139.816,47.986Z" transform="translate(-27.66 -8.236)" fill="rgba(25,41,70,0.41)" stroke="rgba(0,0,0,0)" stroke-width="1"/>
            <path id="Path_132725" data-name="Path 132725" d="M141.595,46.956a1.15,1.15,0,0,1,0,2.177,4.155,4.155,0,0,1-3.768,0,1.15,1.15,0,0,1,0-2.177A4.155,4.155,0,0,1,141.595,46.956Z" transform="translate(-19.588 -12.896)" fill="rgba(25,41,70,0.41)" stroke="rgba(0,0,0,0)" stroke-width="1"/>
            <path id="Path_132726" data-name="Path 132726" d="M123.763,55.194a1.15,1.15,0,0,1,0,2.177,4.189,4.189,0,0,1-3.768,0,1.148,1.148,0,0,1,0-2.177A4.155,4.155,0,0,1,123.763,55.194Z" transform="translate(-100.289 24.378)" fill="rgba(25,41,70,0.41)" stroke="rgba(0,0,0,0)" stroke-width="1"/>
            <path id="Path_132727" data-name="Path 132727" d="M125.543,54.164a1.148,1.148,0,0,1,0,2.177,4.155,4.155,0,0,1-3.768,0,1.15,1.15,0,0,1,0-2.177A4.155,4.155,0,0,1,125.543,54.164Z" transform="translate(-92.218 19.718)" fill="rgba(25,41,70,0.41)" stroke="rgba(0,0,0,0)" stroke-width="1"/>
            <path id="Path_132728" data-name="Path 132728" d="M127.327,53.13a1.15,1.15,0,0,1,0,2.177,4.155,4.155,0,0,1-3.768,0,1.15,1.15,0,0,1,0-2.177A4.189,4.189,0,0,1,127.327,53.13Z" transform="translate(-84.146 15.061)" fill="rgba(25,41,70,0.41)" stroke="rgba(0,0,0,0)" stroke-width="1"/>
            <path id="Path_132729" data-name="Path 132729" d="M128.477,51.735a1.15,1.15,0,0,1,0,2.177,4.2,4.2,0,0,1-3.773,0Z" transform="translate(-75.44 10.771)" fill="rgba(25,41,70,0.41)" stroke="rgba(0,0,0,0)" stroke-width="1"/>
            <path id="Path_132730" data-name="Path 132730" d="M128.271,50.041a4.2,4.2,0,0,1,3.773,0,1.15,1.15,0,0,1,0,2.177,4.166,4.166,0,0,1-3.773,0Z" transform="translate(-59.301 1.084)" fill="rgba(25,41,70,0.41)" stroke="rgba(0,0,0,0)" stroke-width="1"/>
            <path id="Path_132731" data-name="Path 132731" d="M134.461,49.016a1.146,1.146,0,0,1,0,2.171,4.155,4.155,0,0,1-3.768,0,1.146,1.146,0,0,1,0-2.171A4.155,4.155,0,0,1,134.461,49.016Z" transform="translate(-51.867 -3.575)" fill="rgba(25,41,70,0.41)" stroke="rgba(0,0,0,0)" stroke-width="1"/>
            <path id="Path_132732" data-name="Path 132732" d="M136.249,47.986a1.15,1.15,0,0,1,0,2.177,4.166,4.166,0,0,1-3.773,0,1.15,1.15,0,0,1,0-2.177A4.166,4.166,0,0,1,136.249,47.986Z" transform="translate(-43.799 -8.236)" fill="rgba(25,41,70,0.41)" stroke="rgba(0,0,0,0)" stroke-width="1"/>
            <path id="Path_132733" data-name="Path 132733" d="M138.028,46.956a1.15,1.15,0,0,1,0,2.177,4.155,4.155,0,0,1-3.768,0,1.15,1.15,0,0,1,0-2.177A4.155,4.155,0,0,1,138.028,46.956Z" transform="translate(-35.727 -12.896)" fill="rgba(25,41,70,0.41)" stroke="rgba(0,0,0,0)" stroke-width="1"/>
            <path id="Path_132734" data-name="Path 132734" d="M139.816,45.927a1.146,1.146,0,0,1,0,2.171,4.167,4.167,0,0,1-3.773,0,1.146,1.146,0,0,1,0-2.171A4.167,4.167,0,0,1,139.816,45.927Z" transform="translate(-27.66 -17.552)" fill="rgba(25,41,70,0.41)" stroke="rgba(0,0,0,0)" stroke-width="1"/>
            <ellipse id="Ellipse_11443" data-name="Ellipse 11443" cx="2.665" cy="1.539" rx="2.665" ry="1.539" transform="translate(9.072 73.432)" fill="rgba(25,41,70,0.41)" stroke="rgba(0,0,0,0)" stroke-width="1"/>
            <path id="Path_132735" data-name="Path 132735" d="M123.763,53.13a1.15,1.15,0,0,1,0,2.177,4.155,4.155,0,0,1-3.768,0,1.148,1.148,0,0,1,0-2.177A4.189,4.189,0,0,1,123.763,53.13Z" transform="translate(-100.289 15.061)" fill="rgba(25,41,70,0.41)" stroke="rgba(0,0,0,0)" stroke-width="1"/>
            <path id="Path_132736" data-name="Path 132736" d="M128.271,47.986a4.166,4.166,0,0,1,3.773,0,1.15,1.15,0,0,1,0,2.177,4.166,4.166,0,0,1-3.773,0Z" transform="translate(-59.301 -8.236)" fill="rgba(25,41,70,0.41)" stroke="rgba(0,0,0,0)" stroke-width="1"/>
            <path id="Path_132737" data-name="Path 132737" d="M134.461,46.956a1.15,1.15,0,0,1,0,2.177,4.155,4.155,0,0,1-3.768,0,1.15,1.15,0,0,1,0-2.177A4.155,4.155,0,0,1,134.461,46.956Z" transform="translate(-51.867 -12.896)" fill="rgba(25,41,70,0.41)" stroke="rgba(0,0,0,0)" stroke-width="1"/>
            <path id="Path_132738" data-name="Path 132738" d="M132.476,45.927a4.167,4.167,0,0,1,3.773,0,1.146,1.146,0,0,1,0,2.171,4.167,4.167,0,0,1-3.773,0,1.146,1.146,0,0,1,0-2.171Z" transform="translate(-43.799 -17.552)" fill="rgba(25,41,70,0.41)" stroke="rgba(0,0,0,0)" stroke-width="1"/>
            <path id="Path_132739" data-name="Path 132739" d="M137.39,44.527a1.15,1.15,0,0,1,0,2.177,4.189,4.189,0,0,1-3.768,0Z" transform="translate(-35.089 -21.843)" fill="rgba(25,41,70,0.41)" stroke="rgba(0,0,0,0)" stroke-width="1"/>
            <path id="Path_132740" data-name="Path 132740" d="M115.787,53.13a4.189,4.189,0,0,1,3.768,0,1.15,1.15,0,0,1,0,2.177,4.155,4.155,0,0,1-3.768,0Z" transform="translate(-115.787 15.061)" fill="rgba(25,41,70,0.41)" stroke="rgba(0,0,0,0)" stroke-width="1"/>
            <path id="Path_132741" data-name="Path 132741" d="M139.613,45.941a4.172,4.172,0,0,1,3.768-.006,1.15,1.15,0,0,1,.005,2.177,4.172,4.172,0,0,1-3.768.006A1.149,1.149,0,0,1,139.613,45.941Z" transform="translate(-11.502 -17.489)" fill="rgba(25,41,70,0.41)" stroke="rgba(0,0,0,0)" stroke-width="1"/>
            <path id="Path_132742" data-name="Path 132742" d="M145.172,44.91a1.15,1.15,0,0,1,0,2.177,4.167,4.167,0,0,1-3.773,0,1.15,1.15,0,0,1,0-2.177A4.166,4.166,0,0,1,145.172,44.91Z" transform="translate(-3.426 -22.154)" fill="rgba(25,41,70,0.41)" stroke="rgba(0,0,0,0)" stroke-width="1"/>
            <ellipse id="Ellipse_11444" data-name="Ellipse 11444" cx="2.665" cy="1.539" rx="2.665" ry="1.539" transform="translate(147.048 16.617)" fill="rgba(25,41,70,0.41)" stroke="rgba(0,0,0,0)" stroke-width="1"/>
            <path id="Path_132743" data-name="Path 132743" d="M137.828,44.909a4.172,4.172,0,0,1,3.768,0,1.149,1.149,0,0,1,.011,2.177,4.167,4.167,0,0,1-3.773,0A1.15,1.15,0,0,1,137.828,44.909Z" transform="translate(-19.572 -22.148)" fill="rgba(25,41,70,0.41)" stroke="rgba(0,0,0,0)" stroke-width="1"/>
            <ellipse id="Ellipse_11445" data-name="Ellipse 11445" cx="2.665" cy="1.538" rx="2.665" ry="1.538" transform="translate(127.342 16.618)" fill="rgba(25,41,70,0.41)" stroke="rgba(0,0,0,0)" stroke-width="1"/>
            <path id="Path_132744" data-name="Path 132744" d="M145.172,42.851a1.15,1.15,0,0,1,0,2.177,4.2,4.2,0,0,1-3.773,0,1.15,1.15,0,0,1,0-2.177A4.167,4.167,0,0,1,145.172,42.851Z" transform="translate(-3.426 -31.47)" fill="rgba(25,41,70,0.41)" stroke="rgba(0,0,0,0)" stroke-width="1"/>
            <path id="Path_132745" data-name="Path 132745" d="M146.951,41.821a1.15,1.15,0,0,1,0,2.177,4.155,4.155,0,0,1-3.768,0,1.15,1.15,0,0,1,0-2.177A4.155,4.155,0,0,1,146.951,41.821Z" transform="translate(4.646 -36.13)" fill="rgba(25,41,70,0.41)" stroke="rgba(0,0,0,0)" stroke-width="1"/>
            <path id="Path_132746" data-name="Path 132746" d="M138.978,41.821a4.155,4.155,0,0,1,3.768,0,1.15,1.15,0,0,1,0,2.177,4.155,4.155,0,0,1-3.768,0Z" transform="translate(-10.855 -36.13)" fill="rgba(25,41,70,0.41)" stroke="rgba(0,0,0,0)" stroke-width="1"/>
            <path id="Path_132747" data-name="Path 132747" d="M144.534,40.421a1.15,1.15,0,0,1,0,2.177,4.166,4.166,0,0,1-3.773,0Z" transform="translate(-2.788 -40.421)" fill="rgba(25,41,70,0.41)" stroke="rgba(0,0,0,0)" stroke-width="1"/>
          </g>
          <g id="Group_56772" data-name="Group 56772">
            <path id="Path_132748" data-name="Path 132748" d="M116,117.2l70.542-9.564L166.776,99.23,259.312,49,236.933,35.922,147.5,88.233,132.773,76.22l-16.555,40.607-.111.185h0L116,117.2Z" transform="translate(-113.736 -34.599)" fill="#153365"/>
            <path id="Path_132749" data-name="Path 132749" d="M116.735,115.762l69.394-6.921-19.762-8.405L258.9,50.205,236.524,37.129l-89.429,52.31-14.73-12.014-16.556,40.608-.11.185h0l-.112.188Z" transform="translate(-115.586 -29.141)" fill="#fff"/>
            <path id="Path_132750" data-name="Path 132750" d="M261.4,49.428,237.877,35.683,148.554,87.93,133.239,75.439l-17.452,41.849.133,16.4,72.7-9.679V107.962l-2.525-1.072,75.3-41.849ZM134.19,79.168,148.338,90.7l89.539-52.374,20.055,11.718-92.837,50.391,18.115,7.707-64.4,8.729Z" transform="translate(-114.679 -35.683)" fill="#153365"/>
            <path id="Path_135301" data-name="Path 135301" d="M261.4,49.428,237.877,35.683,148.554,87.93,133.239,75.439l-17.452,41.849.133,16.4,72.7-9.679V107.962l-2.525-1.072,75.3-41.849ZM134.19,79.168,148.338,90.7l89.539-52.374,20.055,11.718-92.837,50.391,18.115,7.707-64.4,8.729Z" transform="translate(-114.679 -35.683)" fill="rgba(0,0,0,0.32)"/>
          </g>
        </g>
      </g>
    </g>
  </g>
</svg>
