<svg xmlns="http://www.w3.org/2000/svg" xmlns:xlink="http://www.w3.org/1999/xlink" width="665" height="592.261" viewBox="0 0 665 592.261">
  <defs>
    <linearGradient id="linear-gradient" x1="0.924" y1="-0.211" x2="0.428" y2="-0.308" gradientUnits="objectBoundingBox">
      <stop offset="0" stop-color="#907a9b" stop-opacity="0.078"/>
      <stop offset="1" stop-color="#40274c" stop-opacity="0"/>
    </linearGradient>
  </defs>
  <g id="recruitment1" transform="translate(-141 -1550.739)">
    <path id="Rectangle_14320" data-name="Rectangle 14320" d="M0,0H397A268,268,0,0,1,665,268v0A268,268,0,0,1,397,536H0a0,0,0,0,1,0,0V0A0,0,0,0,1,0,0Z" transform="translate(141 1607)" fill="url(#linear-gradient)"/>
    <g id="Group_57359" data-name="Group 57359">
      <g id="Artwork_2" data-name="Artwork 2" transform="translate(141 1693)">
        <g id="Group_56432" data-name="Group 56432" transform="translate(0 0)">
          <g id="Group_56383" data-name="Group 56383" transform="translate(8.747)">
            <g id="Group_56363" data-name="Group 56363" transform="translate(0 119.883)">
              <g id="Group_56341" data-name="Group 56341" transform="translate(0.014 5.773)">
                <g id="Group_56338" data-name="Group 56338" transform="translate(1.373 1.35)">
                  <path id="Path_132271" data-name="Path 132271" d="M395.379,117.641c0-.092.007-.19,0-.289v-5.844h-3.8c-.268-.176-.521-.359-.81-.528L234.416,20.707c-6.851-3.957-18.822-3.457-26.73,1.113L7.974,137.914a17.713,17.713,0,0,0-3.556,2.655H1.439v13.583c.063,2.45,1.577,4.788,4.619,6.542l156.358,90.273c6.851,3.95,18.815,3.457,26.73-1.113L388.852,133.759c4.183-2.415,6.373-5.478,6.513-8.422l.014-3.669Z" transform="translate(-1.439 -18.037)" fill="#42a7c6"/>
                </g>
                <g id="Group_56339" data-name="Group 56339" transform="translate(172.222 60.754)">
                  <path id="Path_132272" data-name="Path 132272" d="M248.779,74.313l.014-3.669V66.617c0-.092.007-.19,0-.289V60.484H245c-.268-.176-.521-.359-.81-.528l-58-33.483c-4.415.1-7.626.352-8.964.8C168.97,30,36.046,107.282,33.363,119.013S25.7,189.485,25.7,189.485V202.54a31.377,31.377,0,0,0,16.858-3.711L242.265,82.735C246.448,80.32,248.638,77.257,248.779,74.313Z" transform="translate(-25.702 -26.473)" fill="#3a8ead"/>
                </g>
                <g id="Group_56340" data-name="Group 56340">
                  <path id="Path_132273" data-name="Path 132273" d="M175.2,256.145a25.039,25.039,0,0,1-12.295-2.831L6.546,163.041c-3.338-1.929-5.225-4.661-5.3-7.7v-15H5.053a19.67,19.67,0,0,1,3.415-2.465l199.706-116.1c8.274-4.781,20.878-5.274,28.1-1.106l156.358,90.273c.19.106.366.225.549.338h4.753l-.014,15.217c-.176,3.64-2.732,7.027-7.2,9.612L191.007,252.209A32.451,32.451,0,0,1,175.2,256.145ZM4,143.1v12.21c.049,2.035,1.408,3.894,3.929,5.345l156.358,90.273c6.457,3.739,17.829,3.232,25.35-1.105L389.34,133.72c3.577-2.063,5.7-4.718,5.83-7.3l.014-7.76v-4.626h-2.838l-.345-.225c-.373-.253-.542-.366-.725-.472L234.9,23.062c-6.464-3.732-17.829-3.239-25.35,1.106L9.842,140.269a16.358,16.358,0,0,0-3.281,2.436l-.4.394Z" transform="translate(-1.244 -17.845)" fill="#42a7c6"/>
                  <path id="Path_132452" data-name="Path 132452" d="M175.2,256.145a25.039,25.039,0,0,1-12.295-2.831L6.546,163.041c-3.338-1.929-5.225-4.661-5.3-7.7v-15H5.053a19.67,19.67,0,0,1,3.415-2.465l199.706-116.1c8.274-4.781,20.878-5.274,28.1-1.106l156.358,90.273c.19.106.366.225.549.338h4.753l-.014,15.217c-.176,3.64-2.732,7.027-7.2,9.612L191.007,252.209A32.451,32.451,0,0,1,175.2,256.145ZM4,143.1v12.21c.049,2.035,1.408,3.894,3.929,5.345l156.358,90.273c6.457,3.739,17.829,3.232,25.35-1.105L389.34,133.72c3.577-2.063,5.7-4.718,5.83-7.3l.014-7.76v-4.626h-2.838l-.345-.225c-.373-.253-.542-.366-.725-.472L234.9,23.062c-6.464-3.732-17.829-3.239-25.35,1.106L9.842,140.269a16.358,16.358,0,0,0-3.281,2.436l-.4.394Z" transform="translate(-1.244 -17.845)" fill="rgba(25,41,70,0.2)"/>
                </g>
              </g>
              <g id="Group_56344" data-name="Group 56344">
                <g id="Group_56342" data-name="Group 56342" transform="translate(1.381 1.345)">
                  <path id="Path_132274" data-name="Path 132274" d="M162.422,242.8,6.064,152.525C-.788,148.568.072,141.66,7.979,137.09L207.692,21c7.908-4.57,19.878-5.063,26.73-1.113L390.78,110.156c6.852,3.957,5.992,10.865-1.922,15.435l-199.706,116.1C181.237,246.255,169.273,246.755,162.422,242.8Z" transform="translate(-1.438 -17.216)" fill="#42a7c6"/>
                </g>
                <g id="Group_56343" data-name="Group 56343">
                  <path id="Path_132275" data-name="Path 132275" d="M175.211,247.973a25.058,25.058,0,0,1-12.295-2.831L6.558,154.87c-3.429-1.979-5.316-4.781-5.316-7.894,0-3.655,2.641-7.267,7.239-9.922l199.706-116.1c8.281-4.767,20.885-5.267,28.1-1.106L392.647,110.12c3.429,1.979,5.316,4.781,5.316,7.894,0,3.655-2.634,7.267-7.232,9.929L191.019,244.037A32.451,32.451,0,0,1,175.211,247.973ZM224,19.728a29.669,29.669,0,0,0-14.435,3.612L9.854,139.442C6.136,141.589,4,144.335,4,146.976c0,2.084,1.394,4.042,3.929,5.507L164.3,242.755c6.457,3.739,17.829,3.232,25.35-1.106l199.706-116.1c3.725-2.148,5.859-4.894,5.859-7.534,0-2.084-1.4-4.042-3.936-5.506L234.916,22.235A22.224,22.224,0,0,0,224,19.728Z" transform="translate(-1.242 -17.025)" fill="#3a8ead"/>
                </g>
              </g>
              <g id="Group_56346" data-name="Group 56346" transform="translate(25.835 20.236)">
                <g id="Group_56345" data-name="Group 56345">
                  <path id="Path_132276" data-name="Path 132276" d="M156.354,217.809l-.669-.38L4.911,130.374,194.892,19.9l.669.38,150.774,87.055Z" transform="translate(-4.911 -19.899)" fill="#42a7c6"/>
                  <path id="Path_132453" data-name="Path 132453" d="M156.354,217.809l-.669-.38L4.911,130.374,194.892,19.9l.669.38,150.774,87.055Z" transform="translate(-4.911 -19.899)" fill="rgba(25,41,70,0.2)"/>
                </g>
              </g>
              <g id="Group_56349" data-name="Group 56349" transform="translate(21.885 6.54)">
                <g id="Group_56347" data-name="Group 56347" transform="translate(2.758 1.591)">
                  <path id="Path_132277" data-name="Path 132277" d="M158.189,219.424,4.742,130.832,198.48,18.18l153.448,88.593Z" transform="translate(-4.742 -18.18)" fill="#42a7c6"/>
                  <path id="Path_132515" data-name="Path 132515" d="M158.189,219.424,4.742,130.832,198.48,18.18l153.448,88.593Z" transform="translate(-4.742 -18.18)" fill="rgba(255,255,255,0.87)"/>
                </g>
                <g id="Group_56348" data-name="Group 56348">
                  <path id="Path_132278" data-name="Path 132278" d="M160.56,222.378l-.69-.394L4.35,132.2,200.845,17.954l.69.394,155.513,89.787ZM9.864,132.2,160.56,219.2,351.541,108.135,200.845,21.13Z" transform="translate(-4.35 -17.954)" fill="#3a8ead"/>
                </g>
              </g>
              <g id="Group_56356" data-name="Group 56356" transform="translate(278.259 6.836)">
                <g id="Group_56352" data-name="Group 56352" transform="translate(0.016 5.283)">
                  <g id="Group_56350" data-name="Group 56350" transform="translate(1.377 1.376)">
                    <path id="Path_132279" data-name="Path 132279" d="M108.7,50.588l-.07.606L93,42.174a8.655,8.655,0,0,1-.831.592c-4.408,2.542-6.978,6.6-11.386,4.063S71.8,43.434,76.21,40.892c.317-.183.676-.324,1.021-.486L78.66,28.633l-6.077-2.105-.937,10.654L54.374,19.873c-3.028-1.753-8.217-.908-9.2,1.507l-2.2,5.352-2.007-.2V39.364a.848.848,0,0,0,0,.134v.035h.007a2.82,2.82,0,0,0,1.577,2.07l47.5,27.42a8.373,8.373,0,0,0,5.07.852l17.386-2.225c2.8-.359,4.4-1.81,4.274-3.26V51.757Z" transform="translate(-40.957 -18.942)" fill="#3a8ead"/>
                  </g>
                  <g id="Group_56351" data-name="Group 56351">
                    <path id="Path_132280" data-name="Path 132280" d="M95.108,72.513a9.294,9.294,0,0,1-4.577-1.12L43.042,43.981a5.222,5.222,0,0,1-1.591-1.38l-.683.338-.007-16.752,2.507.254,1.81-4.408a5.261,5.261,0,0,1,3.352-2.767,10.065,10.065,0,0,1,7.816.591l.289.225L71.716,35.3l.824-9.344L81.4,29.1V43.664l-2.422-.824a9.528,9.528,0,0,0-.9.423,5.33,5.33,0,0,0-.937.641,19.043,19.043,0,0,0,2.5,1.352c.944.458,1.979.965,3.014,1.556,2.345,1.359,3.817.387,6.661-1.76a34.474,34.474,0,0,1,3.345-2.3,4.947,4.947,0,0,0,.486-.338l.732-.556.993.3,13.97,8.07,9.64,1.4a.985.985,0,0,1,.845.972V65.57c.19,2.232-2.056,4.183-5.478,4.626L96.467,72.422A9.789,9.789,0,0,1,95.108,72.513ZM43.514,40.538v.049c.035.324.366.7.9,1.007l47.5,27.42a7.125,7.125,0,0,0,4.2.676L113.5,67.465c2.084-.268,3.126-1.2,3.077-1.781V54.135l-5.485-.8-.148,1.282L94.277,44.988l-.232.148a30.082,30.082,0,0,0-3.063,2.112c-2.8,2.1-5.676,4.274-9.7,1.951-.972-.563-1.951-1.035-2.838-1.465-2.324-1.127-4.162-2.021-4.218-3.732-.049-1.472,1.3-2.443,2.479-3.126.106-.056,1.838,1.077,1.95,1.021V31.208L74.99,29.468,73.934,41.432,54.724,22.159a7.523,7.523,0,0,0-5.408-.289,2.77,2.77,0,0,0-1.7,1.211l-2.591,6.3-1.514-.155Z" transform="translate(-40.761 -18.746)" fill="#3a8ead"/>
                  </g>
                </g>
                <g id="Group_56355" data-name="Group 56355">
                  <g id="Group_56353" data-name="Group 56353" transform="translate(1.376 1.373)">
                    <path id="Path_132281" data-name="Path 132281" d="M115.193,54.223l-22.174-12.8a9.638,9.638,0,0,1-.831.591,17.661,17.661,0,0,1-15.963,0c-4.408-2.549-4.408-6.675,0-9.217.317-.183.676-.324,1.021-.479l-22.857-13.2c-3.028-1.753-8.217-.9-9.2,1.507L41.1,30.542c-.437,1.07.113,2.19,1.458,2.964l47.5,27.427a8.477,8.477,0,0,0,5.07.852l17.386-2.232C116.728,59.011,118.256,55.99,115.193,54.223Z" transform="translate(-40.954 -18.191)" fill="#3a8ead"/>
                  </g>
                  <g id="Group_56354" data-name="Group 56354">
                    <path id="Path_132282" data-name="Path 132282" d="M95.122,64.414A9.368,9.368,0,0,1,90.545,63.3L43.056,35.881c-1.951-1.127-2.753-2.965-2.042-4.69l4.077-9.915a5.282,5.282,0,0,1,3.352-2.767,10.126,10.126,0,0,1,7.816.591l25.16,14.527L79,34.741c-.507.225-.711.317-.9.422-1.7.979-2.627,2.19-2.627,3.415S76.4,41.022,78.088,42c3.957,2.274,10.64,2.274,14.59,0a5,5,0,0,0,.486-.345L93.9,41.1l.993.31,22.174,12.8c1.711.986,2.549,2.507,2.232,4.056-.394,1.986-2.479,3.45-5.429,3.831L96.481,64.329A11.005,11.005,0,0,1,95.122,64.414ZM51.7,20.749a7.3,7.3,0,0,0-2.366.373,2.765,2.765,0,0,0-1.7,1.2l-4.077,9.915c-.225.563.613,1.106.873,1.26l47.5,27.413a7.125,7.125,0,0,0,4.2.683l17.386-2.232c2.063-.268,2.986-1.148,3.084-1.641s-.669-.993-.915-1.134L94.291,44.24l-.232.141a18.96,18.96,0,0,1-17.343.007c-2.577-1.493-4-3.549-4-5.809a6.426,6.426,0,0,1,2.929-5.105L54.886,21.488A6.628,6.628,0,0,0,51.7,20.749Z" transform="translate(-40.759 -17.996)" fill="#3a8ead"/>
                  </g>
                </g>
              </g>
              <g id="Group_56359" data-name="Group 56359" transform="translate(230.203 3.309)">
                <g id="Group_56357" data-name="Group 56357" transform="translate(1.373 1.376)">
                  <path id="Path_132283" data-name="Path 132283" d="M159.074,101.355,36.122,30.369c-2.95-1.711-2.584-4.69.831-6.654l7.6-4.394c3.408-1.972,8.57-2.183,11.527-.479L179.03,89.828c2.957,1.7,2.584,4.683-.824,6.654l-7.6,4.394C167.186,102.84,162.032,103.059,159.074,101.355Z" transform="translate(-34.129 -17.691)" fill="#e7f4f8"/>
                </g>
                <g id="Group_56358" data-name="Group 56358">
                  <path id="Path_132284" data-name="Path 132284" d="M165.273,105.063a11.566,11.566,0,0,1-5.711-1.338L36.617,32.74a4.753,4.753,0,0,1-2.683-4.084c-.007-1.859,1.275-3.669,3.507-4.957l7.6-4.387c3.852-2.218,9.52-2.436,12.9-.479L180.9,89.811a4.763,4.763,0,0,1,2.683,4.091c0,1.859-1.275,3.669-3.507,4.957l-7.6,4.394A14.8,14.8,0,0,1,165.273,105.063Zm-4.331-3.725c2.528,1.458,7.175,1.239,10.147-.479l7.6-4.387c1.338-.768,2.134-1.732,2.134-2.577,0-.775-.711-1.352-1.3-1.7L56.573,21.22c-2.528-1.465-7.175-1.239-10.147.479l-7.6,4.387c-1.338.775-2.134,1.732-2.134,2.57,0,.782.711,1.352,1.3,1.7Z" transform="translate(-33.934 -17.495)" fill="#3a8ead"/>
                </g>
              </g>
              <g id="Group_56362" data-name="Group 56362" transform="translate(254.158 28.771)">
                <g id="Group_56360" data-name="Group 56360" transform="translate(1.379 1.382)">
                  <path id="Path_132285" data-name="Path 132285" d="M100.005,63.139l-61.48-35.5c-1.472-.852-1.289-2.338.415-3.324l3.8-2.2a6.4,6.4,0,0,1,5.76-.239l61.48,35.5c1.472.852,1.289,2.338-.415,3.324l-3.8,2.2A6.4,6.4,0,0,1,100.005,63.139Z" transform="translate(-37.532 -21.307)" fill="#42a7c6"/>
                </g>
                <g id="Group_56361" data-name="Group 56361">
                  <path id="Path_132286" data-name="Path 132286" d="M103.7,66.282a6.532,6.532,0,0,1-3.2-.761l-61.473-35.5a3.075,3.075,0,0,1-1.69-2.641,3.7,3.7,0,0,1,2.1-3.077l3.8-2.19a7.7,7.7,0,0,1,7.14-.239l61.48,35.489a3.081,3.081,0,0,1,1.683,2.641,3.706,3.706,0,0,1-2.1,3.077l-3.8,2.19A8.007,8.007,0,0,1,103.7,66.282ZM47.2,23.864a5.325,5.325,0,0,0-2.584.641l-3.8,2.2c-.577.324-.718.627-.725.683a.938.938,0,0,0,.31.253l61.473,35.489a5.023,5.023,0,0,0,4.387-.232l3.8-2.2c.577-.331.718-.634.725-.69a.849.849,0,0,0-.31-.253L49,24.265A3.661,3.661,0,0,0,47.2,23.864Z" transform="translate(-37.336 -21.111)" fill="#3a8ead"/>
                </g>
              </g>
            </g>
            <g id="Group_56382" data-name="Group 56382" transform="translate(135.478)">
              <g id="Group_56366" data-name="Group 56366" transform="translate(20.021 201.246)">
                <g id="Group_56364" data-name="Group 56364" transform="translate(29.701 18.696)">
                  <ellipse id="Ellipse_11310" data-name="Ellipse 11310" cx="13.168" cy="7.603" rx="13.168" ry="7.603" fill="#3a8ead"/>
                </g>
                <g id="Group_56365" data-name="Group 56365">
                  <path id="Path_132287" data-name="Path 132287" d="M95.783,35.77c-16.583-9.584-42.573-9.591-59.17,0-8.57,4.943-13.287,11.731-13.287,19.1s4.718,14.175,13.287,19.118c8.288,4.8,18.935,7.189,29.582,7.189s21.294-2.394,29.589-7.189c8.563-4.943,13.287-11.738,13.28-19.118S104.345,40.713,95.783,35.77ZM92.262,67.9C77.89,76.2,54.505,76.2,40.133,67.9c-6.3-3.64-9.767-8.267-9.767-13.027s3.464-9.379,9.767-13.013c7.182-4.147,16.625-6.225,26.061-6.225s18.878,2.077,26.068,6.225c6.3,3.633,9.76,8.26,9.76,13.013S98.557,64.26,92.262,67.9Z" transform="translate(-23.325 -28.58)" fill="#3a8ead"/>
                </g>
              </g>
              <g id="Group_56369" data-name="Group 56369" transform="translate(20.021 194.188)">
                <g id="Group_56367" data-name="Group 56367" transform="translate(29.7 18.7)">
                  <path id="Path_132288" data-name="Path 132288" d="M50.021,32.457c-5.14-2.964-13.478-2.964-18.618,0s-5.147,7.788,0,10.752,13.478,2.972,18.618,0S55.169,35.428,50.021,32.457Z" transform="translate(-27.543 -30.233)" fill="#42a7c6"/>
                </g>
                <g id="Group_56368" data-name="Group 56368">
                  <path id="Path_132289" data-name="Path 132289" d="M95.776,34.763c-16.583-9.577-42.566-9.584-59.163,0-8.57,4.95-13.287,11.731-13.287,19.111s4.718,14.175,13.287,19.118c8.288,4.8,18.935,7.189,29.582,7.189s21.294-2.394,29.582-7.189c8.57-4.943,13.294-11.738,13.287-19.118S104.345,39.713,95.776,34.763ZM92.255,66.9C77.89,75.2,54.505,75.2,40.133,66.9c-6.3-3.64-9.774-8.267-9.767-13.027s3.464-9.379,9.767-13.013c7.182-4.147,16.618-6.225,26.061-6.225s18.878,2.077,26.061,6.225c6.3,3.633,9.767,8.26,9.767,13.013S98.557,63.26,92.255,66.9Z" transform="translate(-23.325 -27.578)" fill="#42a7c6"/>
                </g>
              </g>
              <g id="Group_56381" data-name="Group 56381">
                <g id="Group_56378" data-name="Group 56378">
                  <g id="Group_56373" data-name="Group 56373">
                    <g id="Group_56370" data-name="Group 56370" transform="translate(2.112 2.083)">
                      <path id="Path_132290" data-name="Path 132290" d="M76.025,4.043c-27.793,12.8-52.7,51.572-55.065,87.407-.944,14.337,1.894,25.934,7.513,33.835l40.017,75.894,19.2,9.372c1.725-3.915,29.722-137.219,31.011-141.226h0c3-9.372,23.484-15.259,23.638-24.385C142.892,11.563,103.114-8.442,76.025,4.043ZM72.5,89.569C61.569,95.027,53.182,88.33,53.865,74.712c.683-13.442,9.957-28.377,20.625-33.476,10.576-5.049,18.738,1.38,18.322,14.456C92.39,68.945,83.341,84.154,72.5,89.569Z" transform="translate(-20.782 -0.296)" fill="#42a7c6"/>
                    </g>
                    <g id="Group_56371" data-name="Group 56371" transform="translate(5.585 8.787)">
                      <path id="Path_132291" data-name="Path 132291" d="M76.5,5.121C48.717,17.923,23.8,56.7,21.445,92.528a67.761,67.761,0,0,0,1.162,18.421c31.7,19.069,55.452,17.956,80.21,34.842,7.711-35.82,15.689-73.289,16.365-75.387,3-9.372,18.35-16.393,18.505-25.519C138.25,11.508,103.6-7.364,76.5,5.121ZM72.989,90.648C62.047,96.112,53.66,89.409,54.35,75.79c.676-13.435,9.95-28.37,20.625-33.469,10.569-5.049,18.731,1.373,18.315,14.456C92.867,70.023,83.819,85.24,72.989,90.648Z" transform="translate(-21.275 -1.248)" fill="#e7f4f8"/>
                    </g>
                    <g id="Group_56372" data-name="Group 56372">
                      <path id="Path_132292" data-name="Path 132292" d="M90.54,215.2l-21.78-10.633-.324-.613-40.017-75.9c-5.971-8.358-8.7-20.526-7.753-34.947C23.04,57.127,48.284,17.117,76.95,3.914h0C91.364-2.74,110.235-.79,125.023,8.85c13.745,8.964,21.491,22.786,21.23,37.912-.1,5.894-6.422,10.224-12.534,14.4-4.915,3.366-10,6.844-11.2,10.591-.5,1.591-5.725,25.927-11.252,51.685-10.964,51.079-18.8,87.421-19.836,89.752ZM71.852,201.374l16.3,7.957c2.584-10.379,11.95-54.03,18.977-86.78,6.7-31.215,10.837-50.432,11.365-52.079,1.641-5.133,7.337-9.034,12.837-12.795,5.232-3.577,10.64-7.274,10.7-10.978.225-13.654-6.809-26.159-19.322-34.306-13.6-8.872-30.856-10.689-44-4.647h0C51.312,20.37,27.159,58.782,24.885,93.377c-.887,13.442,1.577,24.674,7.126,32.469Zm-4.8-106A12.243,12.243,0,0,1,60.247,93.4c-4.64-3.028-7.07-9.224-6.682-17.005.725-14.28,10.309-29.779,21.829-35.271,5.422-2.584,10.619-2.577,14.625.049,4.5,2.943,6.95,8.908,6.711,16.379-.444,13.985-10.076,30-21.463,35.694H75.26A18.518,18.518,0,0,1,67.057,95.37ZM83.175,43.424a13.917,13.917,0,0,0-5.957,1.507C67.141,49.734,58.424,63.951,57.79,76.6c-.317,6.239,1.422,11.069,4.767,13.259,2.8,1.831,6.64,1.683,10.823-.4,10.147-5.07,18.731-19.449,19.132-32.053.19-5.957-1.563-10.591-4.8-12.71A8.181,8.181,0,0,0,83.175,43.424Z" transform="translate(-20.482 0)" fill="#3a8ead"/>
                    </g>
                  </g>
                  <g id="Group_56377" data-name="Group 56377" transform="translate(19.189 8.915)">
                    <g id="Group_56376" data-name="Group 56376">
                      <g id="Group_56374" data-name="Group 56374" transform="translate(2.116 2.106)">
                        <path id="Path_132293" data-name="Path 132293" d="M126.312,43c.556-33.377-20.47-49.742-47.566-37.257-27.793,12.8-52.7,51.572-55.058,87.4-.951,14.344,1.887,25.934,7.506,33.842l40.024,75.894L116.883,82.929a118.057,118.057,0,0,0,4.535-11.907h0A97.9,97.9,0,0,0,126.312,43Z" transform="translate(-23.507 -1.565)" fill="#3a8ead"/>
                      </g>
                      <g id="Group_56375" data-name="Group 56375">
                        <path id="Path_132294" data-name="Path 132294" d="M74.077,207.547l-2.57-1.232L31.144,129.773c-5.964-8.351-8.7-20.526-7.753-34.954C25.764,58.843,51.008,18.84,79.675,5.63,92.511-.278,104.707-.186,114.03,5.9c10.76,7.013,16.512,20.85,16.2,38.947h0a99.76,99.76,0,0,1-4.985,28.631,123.907,123.907,0,0,1-4.612,12.111ZM97.884,5.5A39.6,39.6,0,0,0,81.442,9.468C54.036,22.086,29.884,60.505,27.609,95.093c-.887,13.449,1.577,24.681,7.126,32.476l37.982,72.007,44.01-115.587a122.073,122.073,0,0,0,4.5-11.8,95.621,95.621,0,0,0,4.788-27.413c.275-16.358-4.936-29.237-14.287-35.335A24.971,24.971,0,0,0,97.884,5.5Z" transform="translate(-23.207 -1.266)" fill="#3a8ead"/>
                      </g>
                    </g>
                  </g>
                </g>
                <g id="Group_56380" data-name="Group 56380" transform="translate(48.229 55.272)">
                  <g id="Group_56379" data-name="Group 56379">
                    <path id="Path_132295" data-name="Path 132295" d="M49.709,79.381,29.345,65.523c-2.859-1.943-2.648-7.647.465-12.745h0c3.105-5.091,7.943-7.647,10.8-5.7L50.878,54.06l18.956-38.5C72.5,10.24,77.319,6.9,80.593,8.092h0c3.274,1.2,3.76,6.478,1.084,11.795L53.286,77.2C52.371,79.015,50.681,80.043,49.709,79.381Z" transform="translate(-27.331 -7.85)" fill="#42a7c6"/>
                  </g>
                </g>
              </g>
            </g>
          </g>
          <g id="Group_56431" data-name="Group 56431" transform="translate(0 246.789)">
            <g id="Group_56384" data-name="Group 56384" transform="translate(196.212 144.015)">
              <ellipse id="Ellipse_11311" data-name="Ellipse 11311" cx="4.82" cy="2.783" rx="4.82" ry="2.783" fill="rgba(25,41,70,0.41)"/>
            </g>
            <g id="Group_56385" data-name="Group 56385" transform="translate(214.035 133.725)">
              <path id="Path_132296" data-name="Path 132296" d="M38.622,54.852c1.887,1.084,1.887,2.852,0,3.936a7.547,7.547,0,0,1-6.816,0c-1.88-1.084-1.88-2.852,0-3.936A7.547,7.547,0,0,1,38.622,54.852Z" transform="translate(-30.396 -54.039)" fill="rgba(25,41,70,0.41)"/>
            </g>
            <g id="Group_56386" data-name="Group 56386" transform="translate(231.857 123.432)">
              <path id="Path_132297" data-name="Path 132297" d="M41.16,53.4c1.88,1.084,1.88,2.845-.007,3.936a7.548,7.548,0,0,1-6.816,0c-1.88-1.091-1.88-2.852,0-3.936A7.519,7.519,0,0,1,41.16,53.4Z" transform="translate(-32.927 -52.577)" fill="rgba(25,41,70,0.41)"/>
            </g>
            <g id="Group_56387" data-name="Group 56387" transform="translate(249.681 113.143)">
              <path id="Path_132298" data-name="Path 132298" d="M43.69,51.929c1.88,1.091,1.88,2.852,0,3.936a7.5,7.5,0,0,1-6.816,0c-1.887-1.084-1.887-2.845,0-3.936A7.547,7.547,0,0,1,43.69,51.929Z" transform="translate(-35.458 -51.116)" fill="rgba(25,41,70,0.41)"/>
            </g>
            <g id="Group_56388" data-name="Group 56388" transform="translate(267.504 102.855)">
              <path id="Path_132299" data-name="Path 132299" d="M46.221,50.468c1.88,1.084,1.88,2.852,0,3.936a7.547,7.547,0,0,1-6.816,0c-1.887-1.084-1.887-2.852,0-3.936A7.547,7.547,0,0,1,46.221,50.468Z" transform="translate(-37.989 -49.654)" fill="rgba(25,41,70,0.41)"/>
            </g>
            <g id="Group_56389" data-name="Group 56389" transform="translate(285.329 92.563)">
              <ellipse id="Ellipse_11312" data-name="Ellipse 11312" cx="4.82" cy="2.783" rx="4.82" ry="2.783" fill="rgba(25,41,70,0.41)"/>
            </g>
            <g id="Group_56390" data-name="Group 56390" transform="translate(303.152 82.273)">
              <ellipse id="Ellipse_11313" data-name="Ellipse 11313" cx="4.82" cy="2.783" rx="4.82" ry="2.783" fill="rgba(25,41,70,0.41)"/>
            </g>
            <g id="Group_56391" data-name="Group 56391" transform="translate(320.975 71.98)">
              <path id="Path_132300" data-name="Path 132300" d="M53.809,46.088c1.887,1.084,1.887,2.845,0,3.936a7.547,7.547,0,0,1-6.816,0c-1.88-1.091-1.88-2.852,0-3.936A7.5,7.5,0,0,1,53.809,46.088Z" transform="translate(-45.583 -45.27)" fill="rgba(25,41,70,0.41)"/>
            </g>
            <g id="Group_56392" data-name="Group 56392" transform="translate(338.799 61.692)">
              <ellipse id="Ellipse_11314" data-name="Ellipse 11314" cx="4.82" cy="2.783" rx="4.82" ry="2.783" fill="rgba(25,41,70,0.41)"/>
            </g>
            <g id="Group_56393" data-name="Group 56393" transform="translate(356.622 51.403)">
              <path id="Path_132301" data-name="Path 132301" d="M58.877,43.161c1.88,1.084,1.88,2.852,0,3.936a7.547,7.547,0,0,1-6.816,0c-1.887-1.084-1.887-2.852,0-3.936A7.547,7.547,0,0,1,58.877,43.161Z" transform="translate(-50.645 -42.348)" fill="rgba(25,41,70,0.41)"/>
            </g>
            <g id="Group_56394" data-name="Group 56394" transform="translate(374.444 41.11)">
              <path id="Path_132302" data-name="Path 132302" d="M61.408,41.7c1.88,1.084,1.88,2.845,0,3.936a7.548,7.548,0,0,1-6.816,0c-1.887-1.091-1.887-2.852,0-3.936A7.5,7.5,0,0,1,61.408,41.7Z" transform="translate(-53.176 -40.886)" fill="rgba(25,41,70,0.41)"/>
            </g>
            <g id="Group_56395" data-name="Group 56395" transform="translate(392.271 30.82)">
              <path id="Path_132303" data-name="Path 132303" d="M63.934,40.238c1.88,1.091,1.88,2.852,0,3.936a7.5,7.5,0,0,1-6.816,0c-1.88-1.084-1.88-2.845,0-3.936A7.547,7.547,0,0,1,63.934,40.238Z" transform="translate(-55.708 -39.425)" fill="rgba(25,41,70,0.41)"/>
            </g>
            <g id="Group_56396" data-name="Group 56396" transform="translate(160.563 144.013)">
              <path id="Path_132304" data-name="Path 132304" d="M31.034,56.313c1.88,1.091,1.88,2.852,0,3.936a7.5,7.5,0,0,1-6.816,0c-1.887-1.084-1.887-2.845,0-3.936A7.547,7.547,0,0,1,31.034,56.313Z" transform="translate(-22.802 -55.5)" fill="rgba(25,41,70,0.41)"/>
            </g>
            <g id="Group_56397" data-name="Group 56397" transform="translate(178.389 133.724)">
              <ellipse id="Ellipse_11315" data-name="Ellipse 11315" cx="4.82" cy="2.783" rx="4.82" ry="2.783" fill="rgba(25,41,70,0.41)"/>
            </g>
            <g id="Group_56398" data-name="Group 56398" transform="translate(196.212 123.434)">
              <ellipse id="Ellipse_11316" data-name="Ellipse 11316" cx="4.82" cy="2.783" rx="4.82" ry="2.783" fill="rgba(25,41,70,0.41)"/>
            </g>
            <g id="Group_56399" data-name="Group 56399" transform="translate(214.035 113.143)">
              <path id="Path_132305" data-name="Path 132305" d="M38.622,51.929c1.887,1.091,1.887,2.852,0,3.936a7.5,7.5,0,0,1-6.816,0c-1.88-1.084-1.88-2.845,0-3.936A7.547,7.547,0,0,1,38.622,51.929Z" transform="translate(-30.396 -51.116)" fill="rgba(25,41,70,0.41)"/>
            </g>
            <g id="Group_56400" data-name="Group 56400" transform="translate(231.859 102.853)">
              <ellipse id="Ellipse_11317" data-name="Ellipse 11317" cx="4.82" cy="2.783" rx="4.82" ry="2.783" fill="rgba(25,41,70,0.41)"/>
            </g>
            <g id="Group_56401" data-name="Group 56401" transform="translate(249.681 92.562)">
              <path id="Path_132306" data-name="Path 132306" d="M43.69,49.011c1.88,1.084,1.88,2.845,0,3.936a7.547,7.547,0,0,1-6.816,0c-1.887-1.091-1.887-2.852,0-3.936A7.5,7.5,0,0,1,43.69,49.011Z" transform="translate(-35.458 -48.193)" fill="rgba(25,41,70,0.41)"/>
            </g>
            <g id="Group_56402" data-name="Group 56402" transform="translate(267.504 82.273)">
              <path id="Path_132307" data-name="Path 132307" d="M46.221,47.545c1.88,1.091,1.88,2.852,0,3.936a7.547,7.547,0,0,1-6.816,0c-1.887-1.084-1.887-2.845,0-3.936A7.547,7.547,0,0,1,46.221,47.545Z" transform="translate(-37.989 -46.732)" fill="rgba(25,41,70,0.41)"/>
            </g>
            <g id="Group_56403" data-name="Group 56403" transform="translate(285.331 71.98)">
              <path id="Path_132308" data-name="Path 132308" d="M48.747,46.088c1.88,1.084,1.88,2.845,0,3.936a7.548,7.548,0,0,1-6.816,0c-1.88-1.091-1.88-2.852,0-3.936A7.5,7.5,0,0,1,48.747,46.088Z" transform="translate(-40.521 -45.27)" fill="rgba(25,41,70,0.41)"/>
            </g>
            <g id="Group_56404" data-name="Group 56404" transform="translate(303.153 61.69)">
              <path id="Path_132309" data-name="Path 132309" d="M51.278,44.622c1.887,1.091,1.887,2.852,0,3.936a7.5,7.5,0,0,1-6.816,0c-1.88-1.084-1.88-2.845,0-3.936A7.548,7.548,0,0,1,51.278,44.622Z" transform="translate(-43.052 -43.809)" fill="rgba(25,41,70,0.41)"/>
            </g>
            <g id="Group_56405" data-name="Group 56405" transform="translate(320.975 51.403)">
              <path id="Path_132310" data-name="Path 132310" d="M53.809,43.161c1.887,1.084,1.887,2.852,0,3.936a7.547,7.547,0,0,1-6.816,0c-1.88-1.084-1.88-2.852,0-3.936A7.547,7.547,0,0,1,53.809,43.161Z" transform="translate(-45.583 -42.348)" fill="rgba(25,41,70,0.41)"/>
            </g>
            <g id="Group_56406" data-name="Group 56406" transform="translate(338.799 41.111)">
              <ellipse id="Ellipse_11318" data-name="Ellipse 11318" cx="4.82" cy="2.783" rx="4.82" ry="2.783" fill="rgba(25,41,70,0.41)"/>
            </g>
            <g id="Group_56407" data-name="Group 56407" transform="translate(356.622 30.82)">
              <path id="Path_132311" data-name="Path 132311" d="M58.877,40.238c1.88,1.091,1.88,2.852,0,3.936a7.5,7.5,0,0,1-6.816,0c-1.887-1.084-1.887-2.845,0-3.936A7.547,7.547,0,0,1,58.877,40.238Z" transform="translate(-50.645 -39.425)" fill="rgba(25,41,70,0.41)"/>
            </g>
            <g id="Group_56408" data-name="Group 56408" transform="translate(374.445 20.53)">
              <ellipse id="Ellipse_11319" data-name="Ellipse 11319" cx="4.82" cy="2.783" rx="4.82" ry="2.783" fill="rgba(25,41,70,0.41)"/>
            </g>
            <g id="Group_56409" data-name="Group 56409" transform="translate(142.741 133.725)">
              <path id="Path_132312" data-name="Path 132312" d="M28.5,54.852c1.88,1.084,1.88,2.852,0,3.936a7.548,7.548,0,0,1-6.816,0c-1.887-1.084-1.887-2.852,0-3.936A7.548,7.548,0,0,1,28.5,54.852Z" transform="translate(-20.271 -54.039)" fill="rgba(25,41,70,0.41)"/>
            </g>
            <g id="Group_56410" data-name="Group 56410" transform="translate(160.563 123.432)">
              <path id="Path_132313" data-name="Path 132313" d="M31.034,53.4c1.88,1.084,1.88,2.845,0,3.936a7.548,7.548,0,0,1-6.816,0c-1.887-1.091-1.887-2.852,0-3.936A7.5,7.5,0,0,1,31.034,53.4Z" transform="translate(-22.802 -52.577)" fill="rgba(25,41,70,0.41)"/>
            </g>
            <g id="Group_56411" data-name="Group 56411" transform="translate(124.917 123.432)">
              <path id="Path_132314" data-name="Path 132314" d="M25.973,53.4c1.88,1.084,1.88,2.845,0,3.936a7.562,7.562,0,0,1-6.823,0c-1.88-1.091-1.88-2.852,0-3.936A7.519,7.519,0,0,1,25.973,53.4Z" transform="translate(-17.74 -52.577)" fill="rgba(25,41,70,0.41)"/>
            </g>
            <g id="Group_56412" data-name="Group 56412" transform="translate(142.741 113.143)">
              <path id="Path_132315" data-name="Path 132315" d="M28.5,51.929c1.88,1.091,1.88,2.852,0,3.936a7.5,7.5,0,0,1-6.816,0c-1.887-1.084-1.887-2.845,0-3.936A7.547,7.547,0,0,1,28.5,51.929Z" transform="translate(-20.271 -51.116)" fill="rgba(25,41,70,0.41)"/>
            </g>
            <g id="Group_56413" data-name="Group 56413" transform="translate(107.095 113.143)">
              <path id="Path_132316" data-name="Path 132316" d="M23.435,51.929c1.887,1.091,1.887,2.852,0,3.936a7.5,7.5,0,0,1-6.816,0c-1.88-1.084-1.88-2.845,0-3.936A7.547,7.547,0,0,1,23.435,51.929Z" transform="translate(-15.209 -51.116)" fill="rgba(25,41,70,0.41)"/>
            </g>
            <g id="Group_56414" data-name="Group 56414" transform="translate(124.917 102.855)">
              <path id="Path_132317" data-name="Path 132317" d="M25.973,50.468c1.88,1.084,1.88,2.852,0,3.936a7.562,7.562,0,0,1-6.823,0c-1.88-1.084-1.88-2.852,0-3.936A7.562,7.562,0,0,1,25.973,50.468Z" transform="translate(-17.74 -49.654)" fill="rgba(25,41,70,0.41)"/>
            </g>
            <g id="Group_56415" data-name="Group 56415" transform="translate(89.118 102.744)">
              <path id="Path_132318" data-name="Path 132318" d="M20.882,50.457c1.887,1.084,1.887,2.845,0,3.936a7.548,7.548,0,0,1-6.816,0c-1.88-1.091-1.88-2.852,0-3.936A7.5,7.5,0,0,1,20.882,50.457Z" transform="translate(-12.656 -49.639)" fill="rgba(25,41,70,0.41)"/>
            </g>
            <g id="Group_56416" data-name="Group 56416" transform="translate(106.94 92.455)">
              <path id="Path_132319" data-name="Path 132319" d="M23.413,48.991c1.887,1.091,1.887,2.852,0,3.936a7.5,7.5,0,0,1-6.816,0c-1.88-1.084-1.88-2.845,0-3.936A7.548,7.548,0,0,1,23.413,48.991Z" transform="translate(-15.187 -48.178)" fill="rgba(25,41,70,0.41)"/>
            </g>
            <g id="Group_56417" data-name="Group 56417" transform="translate(71.295 92.455)">
              <ellipse id="Ellipse_11320" data-name="Ellipse 11320" cx="4.82" cy="2.783" rx="4.82" ry="2.783" fill="rgba(25,41,70,0.41)"/>
            </g>
            <g id="Group_56418" data-name="Group 56418" transform="translate(89.118 82.167)">
              <path id="Path_132320" data-name="Path 132320" d="M20.882,47.53c1.887,1.084,1.887,2.845,0,3.936a7.548,7.548,0,0,1-6.816,0c-1.88-1.091-1.88-2.852,0-3.936A7.547,7.547,0,0,1,20.882,47.53Z" transform="translate(-12.656 -46.717)" fill="rgba(25,41,70,0.41)"/>
            </g>
            <g id="Group_56419" data-name="Group 56419" transform="translate(53.474 82.167)">
              <path id="Path_132321" data-name="Path 132321" d="M15.82,47.53c1.88,1.084,1.88,2.845,0,3.936a7.548,7.548,0,0,1-6.816,0c-1.88-1.091-1.88-2.852,0-3.936A7.547,7.547,0,0,1,15.82,47.53Z" transform="translate(-7.594 -46.717)" fill="rgba(25,41,70,0.41)"/>
            </g>
            <g id="Group_56420" data-name="Group 56420" transform="translate(71.296 71.874)">
              <path id="Path_132322" data-name="Path 132322" d="M18.351,46.073c1.88,1.084,1.88,2.845,0,3.929a7.5,7.5,0,0,1-6.816,0c-1.88-1.084-1.88-2.845,0-3.929A7.5,7.5,0,0,1,18.351,46.073Z" transform="translate(-10.125 -45.255)" fill="rgba(25,41,70,0.41)"/>
            </g>
            <g id="Group_56421" data-name="Group 56421" transform="translate(35.646 71.874)">
              <path id="Path_132323" data-name="Path 132323" d="M13.294,46.073c1.88,1.084,1.88,2.845,0,3.929a7.5,7.5,0,0,1-6.816,0c-1.887-1.084-1.887-2.845,0-3.929A7.5,7.5,0,0,1,13.294,46.073Z" transform="translate(-5.062 -45.255)" fill="rgba(25,41,70,0.41)"/>
            </g>
            <g id="Group_56422" data-name="Group 56422" transform="translate(53.472 61.584)">
              <ellipse id="Ellipse_11321" data-name="Ellipse 11321" cx="4.82" cy="2.783" rx="4.82" ry="2.783" fill="rgba(25,41,70,0.41)"/>
            </g>
            <g id="Group_56423" data-name="Group 56423" transform="translate(17.824 61.585)">
              <path id="Path_132324" data-name="Path 132324" d="M10.763,44.607c1.88,1.091,1.88,2.852,0,3.936a7.547,7.547,0,0,1-6.816,0c-1.887-1.084-1.887-2.845,0-3.936A7.547,7.547,0,0,1,10.763,44.607Z" transform="translate(-2.531 -43.793)" fill="rgba(25,41,70,0.41)"/>
            </g>
            <g id="Group_56424" data-name="Group 56424" transform="translate(35.646 51.292)">
              <path id="Path_132325" data-name="Path 132325" d="M13.294,43.15c1.88,1.084,1.88,2.845,0,3.936a7.548,7.548,0,0,1-6.816,0C4.59,46,4.59,44.235,6.477,43.15A7.5,7.5,0,0,1,13.294,43.15Z" transform="translate(-5.062 -42.332)" fill="rgba(25,41,70,0.41)"/>
            </g>
            <g id="Group_56425" data-name="Group 56425" transform="translate(0.002 51.294)">
              <ellipse id="Ellipse_11322" data-name="Ellipse 11322" cx="4.82" cy="2.783" rx="4.82" ry="2.783" transform="translate(0)" fill="rgba(25,41,70,0.41)"/>
            </g>
            <g id="Group_56426" data-name="Group 56426" transform="translate(17.824 41.002)">
              <path id="Path_132326" data-name="Path 132326" d="M10.763,41.684c1.88,1.091,1.88,2.852,0,3.936a7.5,7.5,0,0,1-6.816,0c-1.887-1.084-1.887-2.845,0-3.936A7.548,7.548,0,0,1,10.763,41.684Z" transform="translate(-2.531 -40.871)" fill="rgba(25,41,70,0.41)"/>
            </g>
            <g id="Group_56427" data-name="Group 56427" transform="translate(0 30.714)">
              <path id="Path_132327" data-name="Path 132327" d="M8.233,40.223c1.88,1.084,1.88,2.852,0,3.936a7.562,7.562,0,0,1-6.823,0c-1.88-1.084-1.88-2.852,0-3.936A7.562,7.562,0,0,1,8.233,40.223Z" transform="translate(0 -39.41)" fill="rgba(25,41,70,0.41)"/>
            </g>
            <g id="Group_56428" data-name="Group 56428" transform="translate(392.395 10.337)">
              <path id="Path_132328" data-name="Path 132328" d="M57.131,37.335a7.526,7.526,0,0,1,6.816-.007c1.887,1.084,1.894,2.845.014,3.936a7.547,7.547,0,0,1-6.816.007C55.258,40.187,55.251,38.419,57.131,37.335Z" transform="translate(-55.725 -36.516)" fill="rgba(25,41,70,0.41)"/>
            </g>
            <g id="Group_56429" data-name="Group 56429" transform="translate(410.22 20.483)">
              <path id="Path_132329" data-name="Path 132329" d="M66.483,38.77c1.887,1.091,1.887,2.852,0,3.936a7.5,7.5,0,0,1-6.816,0c-1.88-1.084-1.88-2.845,0-3.936A7.547,7.547,0,0,1,66.483,38.77Z" transform="translate(-58.257 -37.957)" fill="rgba(25,41,70,0.41)"/>
            </g>
            <g id="Group_56430" data-name="Group 56430" transform="translate(410.347)">
              <path id="Path_132330" data-name="Path 132330" d="M59.678,35.867A7.54,7.54,0,0,1,66.5,35.86c1.88,1.084,1.887,2.845.007,3.936a7.547,7.547,0,0,1-6.816.007C57.8,38.719,57.8,36.959,59.678,35.867Z" transform="translate(-58.275 -35.048)" fill="rgba(25,41,70,0.41)"/>
            </g>
          </g>
        </g>
      </g>
      <g id="Artwork_1" data-name="Artwork 1" transform="translate(532.805 1550.739)">
        <g id="Group_56337" data-name="Group 56337" transform="translate(0 0)">
          <g id="Group_56315" data-name="Group 56315" transform="translate(0 181.163)">
            <g id="Group_56235" data-name="Group 56235" transform="translate(123.791 90.958)">
              <path id="Path_132210" data-name="Path 132210" d="M33.055,61.769a1.31,1.31,0,0,1,0,2.483,4.762,4.762,0,0,1-4.3,0,1.311,1.311,0,0,1,0-2.483A4.734,4.734,0,0,1,33.055,61.769Z" transform="translate(-27.865 -61.253)" fill="rgba(25,41,70,0.41)" stroke="rgba(0,0,0,0)" stroke-width="1"/>
            </g>
            <g id="Group_56236" data-name="Group 56236" transform="translate(135.036 84.467)">
              <path id="Path_132211" data-name="Path 132211" d="M35.586,60.3a1.31,1.31,0,0,1,0,2.483,4.734,4.734,0,0,1-4.3,0,1.311,1.311,0,0,1,0-2.483A4.762,4.762,0,0,1,35.586,60.3Z" transform="translate(-30.396 -59.792)" fill="rgba(25,41,70,0.41)" stroke="rgba(0,0,0,0)" stroke-width="1"/>
            </g>
            <g id="Group_56237" data-name="Group 56237" transform="translate(146.28 77.976)">
              <path id="Path_132212" data-name="Path 132212" d="M38.121,58.844a1.311,1.311,0,0,1,0,2.483,4.771,4.771,0,0,1-4.3,0,1.311,1.311,0,0,1,0-2.483A4.771,4.771,0,0,1,38.121,58.844Z" transform="translate(-32.927 -58.331)" fill="rgba(25,41,70,0.41)" stroke="rgba(0,0,0,0)" stroke-width="1"/>
            </g>
            <g id="Group_56238" data-name="Group 56238" transform="translate(112.546 84.468)">
              <ellipse id="Ellipse_11277" data-name="Ellipse 11277" cx="3.041" cy="1.756" rx="3.041" ry="1.756" fill="rgba(25,41,70,0.41)" stroke="rgba(0,0,0,0)" stroke-width="1"/>
            </g>
            <g id="Group_56239" data-name="Group 56239" transform="translate(123.791 77.976)">
              <path id="Path_132213" data-name="Path 132213" d="M33.055,58.844a1.31,1.31,0,0,1,0,2.483,4.762,4.762,0,0,1-4.3,0,1.311,1.311,0,0,1,0-2.483A4.762,4.762,0,0,1,33.055,58.844Z" transform="translate(-27.865 -58.331)" fill="rgba(25,41,70,0.41)" stroke="rgba(0,0,0,0)" stroke-width="1"/>
            </g>
            <g id="Group_56240" data-name="Group 56240" transform="translate(135.035 71.483)">
              <ellipse id="Ellipse_11278" data-name="Ellipse 11278" cx="3.041" cy="1.756" rx="3.041" ry="1.756" fill="rgba(25,41,70,0.41)" stroke="rgba(0,0,0,0)" stroke-width="1"/>
            </g>
            <g id="Group_56241" data-name="Group 56241" transform="translate(101.301 77.975)">
              <ellipse id="Ellipse_11279" data-name="Ellipse 11279" cx="3.041" cy="1.756" rx="3.041" ry="1.756" fill="rgba(25,41,70,0.41)" stroke="rgba(0,0,0,0)" stroke-width="1"/>
            </g>
            <g id="Group_56242" data-name="Group 56242" transform="translate(112.547 71.482)">
              <path id="Path_132214" data-name="Path 132214" d="M30.524,57.385a1.311,1.311,0,0,1,0,2.483,4.762,4.762,0,0,1-4.3,0,1.311,1.311,0,0,1,0-2.483A4.734,4.734,0,0,1,30.524,57.385Z" transform="translate(-25.334 -56.869)" fill="rgba(25,41,70,0.41)" stroke="rgba(0,0,0,0)" stroke-width="1"/>
            </g>
            <g id="Group_56243" data-name="Group 56243" transform="translate(123.791 64.991)">
              <path id="Path_132215" data-name="Path 132215" d="M33.055,55.921a1.31,1.31,0,0,1,0,2.483,4.734,4.734,0,0,1-4.3,0,1.311,1.311,0,0,1,0-2.483A4.762,4.762,0,0,1,33.055,55.921Z" transform="translate(-27.865 -55.408)" fill="rgba(25,41,70,0.41)" stroke="rgba(0,0,0,0)" stroke-width="1"/>
            </g>
            <g id="Group_56244" data-name="Group 56244" transform="translate(67.566 84.467)">
              <path id="Path_132216" data-name="Path 132216" d="M20.4,60.3a1.31,1.31,0,0,1,0,2.483,4.734,4.734,0,0,1-4.3,0,1.311,1.311,0,0,1,0-2.483A4.762,4.762,0,0,1,20.4,60.3Z" transform="translate(-15.209 -59.792)" fill="rgba(25,41,70,0.41)" stroke="rgba(0,0,0,0)" stroke-width="1"/>
            </g>
            <g id="Group_56245" data-name="Group 56245" transform="translate(78.811 77.975)">
              <ellipse id="Ellipse_11280" data-name="Ellipse 11280" cx="3.041" cy="1.756" rx="3.041" ry="1.756" fill="rgba(25,41,70,0.41)" stroke="rgba(0,0,0,0)" stroke-width="1"/>
            </g>
            <g id="Group_56246" data-name="Group 56246" transform="translate(90.056 71.483)">
              <ellipse id="Ellipse_11281" data-name="Ellipse 11281" cx="3.041" cy="1.756" rx="3.041" ry="1.756" fill="rgba(25,41,70,0.41)" stroke="rgba(0,0,0,0)" stroke-width="1"/>
            </g>
            <g id="Group_56247" data-name="Group 56247" transform="translate(101.301 64.991)">
              <ellipse id="Ellipse_11282" data-name="Ellipse 11282" cx="3.041" cy="1.756" rx="3.041" ry="1.756" fill="rgba(25,41,70,0.41)" stroke="rgba(0,0,0,0)" stroke-width="1"/>
            </g>
            <g id="Group_56248" data-name="Group 56248" transform="translate(112.546 58.499)">
              <ellipse id="Ellipse_11283" data-name="Ellipse 11283" cx="3.041" cy="1.756" rx="3.041" ry="1.756" fill="rgba(25,41,70,0.41)" stroke="rgba(0,0,0,0)" stroke-width="1"/>
            </g>
            <g id="Group_56249" data-name="Group 56249" transform="translate(45.076 84.468)">
              <ellipse id="Ellipse_11284" data-name="Ellipse 11284" cx="3.041" cy="1.756" rx="3.041" ry="1.756" fill="rgba(25,41,70,0.41)" stroke="rgba(0,0,0,0)" stroke-width="1"/>
            </g>
            <g id="Group_56250" data-name="Group 56250" transform="translate(56.322 77.975)">
              <ellipse id="Ellipse_11285" data-name="Ellipse 11285" cx="3.041" cy="1.756" rx="3.041" ry="1.756" fill="rgba(25,41,70,0.41)" stroke="rgba(0,0,0,0)" stroke-width="1"/>
            </g>
            <g id="Group_56251" data-name="Group 56251" transform="translate(67.566 71.482)">
              <path id="Path_132217" data-name="Path 132217" d="M20.4,57.385a1.31,1.31,0,0,1,0,2.483,4.762,4.762,0,0,1-4.3,0,1.311,1.311,0,0,1,0-2.483A4.734,4.734,0,0,1,20.4,57.385Z" transform="translate(-15.209 -56.869)" fill="rgba(25,41,70,0.41)" stroke="rgba(0,0,0,0)" stroke-width="1"/>
            </g>
            <g id="Group_56252" data-name="Group 56252" transform="translate(78.811 64.991)">
              <path id="Path_132218" data-name="Path 132218" d="M22.934,55.921a1.311,1.311,0,0,1,0,2.483,4.744,4.744,0,0,1-4.3,0,1.311,1.311,0,0,1,0-2.483A4.762,4.762,0,0,1,22.934,55.921Z" transform="translate(-17.74 -55.408)" fill="rgba(25,41,70,0.41)" stroke="rgba(0,0,0,0)" stroke-width="1"/>
            </g>
            <g id="Group_56253" data-name="Group 56253" transform="translate(90.056 58.5)">
              <path id="Path_132219" data-name="Path 132219" d="M25.464,54.46a1.311,1.311,0,0,1,0,2.483,4.762,4.762,0,0,1-4.3,0,1.31,1.31,0,0,1,0-2.483A4.762,4.762,0,0,1,25.464,54.46Z" transform="translate(-20.271 -53.947)" fill="rgba(25,41,70,0.41)" stroke="rgba(0,0,0,0)" stroke-width="1"/>
            </g>
            <g id="Group_56254" data-name="Group 56254" transform="translate(101.303 52.006)">
              <path id="Path_132220" data-name="Path 132220" d="M27.993,53a1.311,1.311,0,0,1,0,2.483,4.762,4.762,0,0,1-4.3,0,1.311,1.311,0,0,1,0-2.483A4.734,4.734,0,0,1,27.993,53Z" transform="translate(-22.803 -52.485)" fill="rgba(25,41,70,0.41)" stroke="rgba(0,0,0,0)" stroke-width="1"/>
            </g>
            <g id="Group_56255" data-name="Group 56255" transform="translate(33.734 77.907)">
              <ellipse id="Ellipse_11286" data-name="Ellipse 11286" cx="3.041" cy="1.756" rx="3.041" ry="1.756" fill="rgba(25,41,70,0.41)" stroke="rgba(0,0,0,0)" stroke-width="1"/>
            </g>
            <g id="Group_56256" data-name="Group 56256" transform="translate(44.979 71.415)">
              <ellipse id="Ellipse_11287" data-name="Ellipse 11287" cx="3.041" cy="1.756" rx="3.041" ry="1.756" fill="rgba(25,41,70,0.41)" stroke="rgba(0,0,0,0)" stroke-width="1"/>
            </g>
            <g id="Group_56257" data-name="Group 56257" transform="translate(56.224 64.923)">
              <ellipse id="Ellipse_11288" data-name="Ellipse 11288" cx="3.041" cy="1.756" rx="3.041" ry="1.756" fill="rgba(25,41,70,0.41)" stroke="rgba(0,0,0,0)" stroke-width="1"/>
            </g>
            <g id="Group_56258" data-name="Group 56258" transform="translate(67.468 58.43)">
              <path id="Path_132221" data-name="Path 132221" d="M20.377,54.447a1.31,1.31,0,0,1,0,2.483,4.762,4.762,0,0,1-4.3,0,1.311,1.311,0,0,1,0-2.483A4.734,4.734,0,0,1,20.377,54.447Z" transform="translate(-15.187 -53.931)" fill="rgba(25,41,70,0.41)" stroke="rgba(0,0,0,0)" stroke-width="1"/>
            </g>
            <g id="Group_56259" data-name="Group 56259" transform="translate(78.714 51.938)">
              <path id="Path_132222" data-name="Path 132222" d="M22.911,52.983a1.311,1.311,0,0,1,0,2.483,4.734,4.734,0,0,1-4.3,0,1.31,1.31,0,0,1,0-2.483A4.762,4.762,0,0,1,22.911,52.983Z" transform="translate(-17.718 -52.47)" fill="rgba(25,41,70,0.41)" stroke="rgba(0,0,0,0)" stroke-width="1"/>
            </g>
            <g id="Group_56260" data-name="Group 56260" transform="translate(89.958 45.448)">
              <path id="Path_132223" data-name="Path 132223" d="M25.442,51.522a1.311,1.311,0,0,1,0,2.483,4.762,4.762,0,0,1-4.3,0,1.31,1.31,0,0,1,0-2.483A4.762,4.762,0,0,1,25.442,51.522Z" transform="translate(-20.249 -51.008)" fill="rgba(25,41,70,0.41)" stroke="rgba(0,0,0,0)" stroke-width="1"/>
            </g>
            <g id="Group_56261" data-name="Group 56261" transform="translate(33.734 64.923)">
              <ellipse id="Ellipse_11289" data-name="Ellipse 11289" cx="3.041" cy="1.756" rx="3.041" ry="1.756" fill="rgba(25,41,70,0.41)" stroke="rgba(0,0,0,0)" stroke-width="1"/>
            </g>
            <g id="Group_56262" data-name="Group 56262" transform="translate(44.98 58.43)">
              <path id="Path_132224" data-name="Path 132224" d="M15.315,54.447a1.31,1.31,0,0,1,0,2.483,4.762,4.762,0,0,1-4.3,0,1.311,1.311,0,0,1,0-2.483A4.734,4.734,0,0,1,15.315,54.447Z" transform="translate(-10.125 -53.931)" fill="rgba(25,41,70,0.41)" stroke="rgba(0,0,0,0)" stroke-width="1"/>
            </g>
            <g id="Group_56263" data-name="Group 56263" transform="translate(33.735 51.938)">
              <ellipse id="Ellipse_11290" data-name="Ellipse 11290" cx="3.041" cy="1.756" rx="3.041" ry="1.756" fill="rgba(25,41,70,0.41)" stroke="rgba(0,0,0,0)" stroke-width="1"/>
            </g>
            <g id="Group_56264" data-name="Group 56264" transform="translate(44.98 45.448)">
              <path id="Path_132225" data-name="Path 132225" d="M15.315,51.522a1.31,1.31,0,0,1,0,2.483,4.762,4.762,0,0,1-4.3,0,1.311,1.311,0,0,1,0-2.483A4.762,4.762,0,0,1,15.315,51.522Z" transform="translate(-10.125 -51.008)" fill="rgba(25,41,70,0.41)" stroke="rgba(0,0,0,0)" stroke-width="1"/>
            </g>
            <g id="Group_56265" data-name="Group 56265" transform="translate(33.735 38.954)">
              <ellipse id="Ellipse_11291" data-name="Ellipse 11291" cx="3.041" cy="1.756" rx="3.041" ry="1.756" fill="rgba(25,41,70,0.41)" stroke="rgba(0,0,0,0)" stroke-width="1"/>
            </g>
            <g id="Group_56266" data-name="Group 56266" transform="translate(44.98 32.462)">
              <ellipse id="Ellipse_11292" data-name="Ellipse 11292" cx="3.041" cy="1.756" rx="3.041" ry="1.756" fill="rgba(25,41,70,0.41)" stroke="rgba(0,0,0,0)" stroke-width="1"/>
            </g>
            <g id="Group_56267" data-name="Group 56267" transform="translate(22.49 32.462)">
              <ellipse id="Ellipse_11293" data-name="Ellipse 11293" cx="3.041" cy="1.756" rx="3.041" ry="1.756" fill="rgba(25,41,70,0.41)" stroke="rgba(0,0,0,0)" stroke-width="1"/>
            </g>
            <g id="Group_56268" data-name="Group 56268" transform="translate(33.736 25.968)">
              <path id="Path_132226" data-name="Path 132226" d="M12.784,47.14a1.311,1.311,0,0,1,0,2.483,4.762,4.762,0,0,1-4.3,0,1.311,1.311,0,0,1,0-2.483A4.734,4.734,0,0,1,12.784,47.14Z" transform="translate(-7.594 -46.624)" fill="rgba(25,41,70,0.41)" stroke="rgba(0,0,0,0)" stroke-width="1"/>
            </g>
            <g id="Group_56269" data-name="Group 56269" transform="translate(44.98 19.477)">
              <ellipse id="Ellipse_11294" data-name="Ellipse 11294" cx="3.041" cy="1.756" rx="3.041" ry="1.756" fill="rgba(25,41,70,0.41)" stroke="rgba(0,0,0,0)" stroke-width="1"/>
            </g>
            <g id="Group_56270" data-name="Group 56270" transform="translate(11.245 25.97)">
              <ellipse id="Ellipse_11295" data-name="Ellipse 11295" cx="3.041" cy="1.756" rx="3.041" ry="1.756" fill="rgba(25,41,70,0.41)" stroke="rgba(0,0,0,0)" stroke-width="1"/>
            </g>
            <g id="Group_56271" data-name="Group 56271" transform="translate(22.49 19.477)">
              <ellipse id="Ellipse_11296" data-name="Ellipse 11296" cx="3.041" cy="1.756" rx="3.041" ry="1.756" fill="rgba(25,41,70,0.41)" stroke="rgba(0,0,0,0)" stroke-width="1"/>
            </g>
            <g id="Group_56272" data-name="Group 56272" transform="translate(33.735 12.985)">
              <ellipse id="Ellipse_11297" data-name="Ellipse 11297" cx="3.041" cy="1.756" rx="3.041" ry="1.756" fill="rgba(25,41,70,0.41)" stroke="rgba(0,0,0,0)" stroke-width="1"/>
            </g>
            <g id="Group_56273" data-name="Group 56273" transform="translate(0 19.476)">
              <path id="Path_132227" data-name="Path 132227" d="M5.193,45.676a1.311,1.311,0,0,1,0,2.483,4.734,4.734,0,0,1-4.3,0,1.31,1.31,0,0,1,0-2.483A4.762,4.762,0,0,1,5.193,45.676Z" transform="translate(0 -45.163)" fill="rgba(25,41,70,0.41)" stroke="rgba(0,0,0,0)" stroke-width="1"/>
            </g>
            <g id="Group_56274" data-name="Group 56274" transform="translate(11.244 12.986)">
              <path id="Path_132228" data-name="Path 132228" d="M7.724,44.215a1.311,1.311,0,0,1,0,2.483,4.762,4.762,0,0,1-4.3,0,1.31,1.31,0,0,1,0-2.483A4.762,4.762,0,0,1,7.724,44.215Z" transform="translate(-2.531 -43.701)" fill="rgba(25,41,70,0.41)" stroke="rgba(0,0,0,0)" stroke-width="1"/>
            </g>
            <g id="Group_56275" data-name="Group 56275" transform="translate(22.49 6.493)">
              <ellipse id="Ellipse_11298" data-name="Ellipse 11298" cx="3.041" cy="1.756" rx="3.041" ry="1.756" fill="rgba(25,41,70,0.41)" stroke="rgba(0,0,0,0)" stroke-width="1"/>
            </g>
            <g id="Group_56276" data-name="Group 56276" transform="translate(0 6.492)">
              <path id="Path_132229" data-name="Path 132229" d="M5.193,42.756a1.311,1.311,0,0,1,0,2.483,4.762,4.762,0,0,1-4.3,0,1.31,1.31,0,0,1,0-2.483A4.734,4.734,0,0,1,5.193,42.756Z" transform="translate(0 -42.24)" fill="rgba(25,41,70,0.41)" stroke="rgba(0,0,0,0)" stroke-width="1"/>
            </g>
            <g id="Group_56277" data-name="Group 56277" transform="translate(11.244)">
              <path id="Path_132230" data-name="Path 132230" d="M7.724,41.292a1.311,1.311,0,0,1,0,2.483,4.734,4.734,0,0,1-4.3,0,1.31,1.31,0,0,1,0-2.483A4.762,4.762,0,0,1,7.724,41.292Z" transform="translate(-2.531 -40.778)" fill="rgba(25,41,70,0.41)" stroke="rgba(0,0,0,0)" stroke-width="1"/>
            </g>
            <g id="Group_56278" data-name="Group 56278" transform="translate(214.287 128.942)">
              <ellipse id="Ellipse_11299" data-name="Ellipse 11299" cx="3.041" cy="1.756" rx="3.041" ry="1.756" fill="rgba(25,41,70,0.41)" stroke="rgba(0,0,0,0)" stroke-width="1"/>
            </g>
            <g id="Group_56279" data-name="Group 56279" transform="translate(225.532 122.451)">
              <path id="Path_132231" data-name="Path 132231" d="M55.959,68.855a1.311,1.311,0,0,1,0,2.483,4.762,4.762,0,0,1-4.3,0,1.31,1.31,0,0,1,0-2.483A4.762,4.762,0,0,1,55.959,68.855Z" transform="translate(-50.766 -68.342)" fill="rgba(25,41,70,0.41)" stroke="rgba(0,0,0,0)" stroke-width="1"/>
            </g>
            <g id="Group_56280" data-name="Group 56280" transform="translate(191.797 128.942)">
              <ellipse id="Ellipse_11300" data-name="Ellipse 11300" cx="3.041" cy="1.756" rx="3.041" ry="1.756" fill="rgba(25,41,70,0.41)" stroke="rgba(0,0,0,0)" stroke-width="1"/>
            </g>
            <g id="Group_56281" data-name="Group 56281" transform="translate(203.043 122.45)">
              <ellipse id="Ellipse_11301" data-name="Ellipse 11301" cx="3.041" cy="1.756" rx="3.041" ry="1.756" fill="rgba(25,41,70,0.41)" stroke="rgba(0,0,0,0)" stroke-width="1"/>
            </g>
            <g id="Group_56282" data-name="Group 56282" transform="translate(214.288 115.958)">
              <ellipse id="Ellipse_11302" data-name="Ellipse 11302" cx="3.041" cy="1.756" rx="3.041" ry="1.756" fill="rgba(25,41,70,0.41)" stroke="rgba(0,0,0,0)" stroke-width="1"/>
            </g>
            <g id="Group_56283" data-name="Group 56283" transform="translate(180.554 122.451)">
              <path id="Path_132232" data-name="Path 132232" d="M45.832,68.855a1.311,1.311,0,0,1,0,2.483,4.762,4.762,0,0,1-4.3,0,1.311,1.311,0,0,1,0-2.483A4.762,4.762,0,0,1,45.832,68.855Z" transform="translate(-40.642 -68.342)" fill="rgba(25,41,70,0.41)" stroke="rgba(0,0,0,0)" stroke-width="1"/>
            </g>
            <g id="Group_56284" data-name="Group 56284" transform="translate(191.798 115.957)">
              <path id="Path_132233" data-name="Path 132233" d="M48.363,67.4a1.31,1.31,0,0,1,0,2.483,4.762,4.762,0,0,1-4.3,0,1.311,1.311,0,0,1,0-2.483A4.734,4.734,0,0,1,48.363,67.4Z" transform="translate(-43.173 -66.88)" fill="rgba(25,41,70,0.41)" stroke="rgba(0,0,0,0)" stroke-width="1"/>
            </g>
            <g id="Group_56285" data-name="Group 56285" transform="translate(203.043 109.465)">
              <path id="Path_132234" data-name="Path 132234" d="M50.894,65.932a1.31,1.31,0,0,1,0,2.483,4.734,4.734,0,0,1-4.3,0,1.311,1.311,0,0,1,0-2.483A4.762,4.762,0,0,1,50.894,65.932Z" transform="translate(-45.704 -65.419)" fill="rgba(25,41,70,0.41)" stroke="rgba(0,0,0,0)" stroke-width="1"/>
            </g>
            <g id="Group_56286" data-name="Group 56286" transform="translate(169.21 115.89)">
              <ellipse id="Ellipse_11303" data-name="Ellipse 11303" cx="3.041" cy="1.756" rx="3.041" ry="1.756" fill="rgba(25,41,70,0.41)" stroke="rgba(0,0,0,0)" stroke-width="1"/>
            </g>
            <g id="Group_56287" data-name="Group 56287" transform="translate(180.457 109.399)">
              <path id="Path_132235" data-name="Path 132235" d="M45.81,65.917a1.311,1.311,0,0,1,0,2.483,4.762,4.762,0,0,1-4.3,0,1.311,1.311,0,0,1,0-2.483A4.762,4.762,0,0,1,45.81,65.917Z" transform="translate(-40.62 -65.403)" fill="rgba(25,41,70,0.41)" stroke="rgba(0,0,0,0)" stroke-width="1"/>
            </g>
            <g id="Group_56288" data-name="Group 56288" transform="translate(191.701 102.905)">
              <path id="Path_132236" data-name="Path 132236" d="M48.341,64.458a1.31,1.31,0,0,1,0,2.483,4.761,4.761,0,0,1-4.3,0,1.311,1.311,0,0,1,0-2.483A4.734,4.734,0,0,1,48.341,64.458Z" transform="translate(-43.151 -63.942)" fill="rgba(25,41,70,0.41)" stroke="rgba(0,0,0,0)" stroke-width="1"/>
            </g>
            <g id="Group_56289" data-name="Group 56289" transform="translate(157.966 109.398)">
              <ellipse id="Ellipse_11304" data-name="Ellipse 11304" cx="3.041" cy="1.756" rx="3.041" ry="1.756" fill="rgba(25,41,70,0.41)" stroke="rgba(0,0,0,0)" stroke-width="1"/>
            </g>
            <g id="Group_56290" data-name="Group 56290" transform="translate(169.212 102.905)">
              <path id="Path_132237" data-name="Path 132237" d="M43.279,64.458a1.311,1.311,0,0,1,0,2.483,4.761,4.761,0,0,1-4.3,0,1.311,1.311,0,0,1,0-2.483A4.734,4.734,0,0,1,43.279,64.458Z" transform="translate(-38.089 -63.942)" fill="rgba(25,41,70,0.41)" stroke="rgba(0,0,0,0)" stroke-width="1"/>
            </g>
            <g id="Group_56291" data-name="Group 56291" transform="translate(180.456 96.413)">
              <ellipse id="Ellipse_11305" data-name="Ellipse 11305" cx="3.041" cy="1.756" rx="3.041" ry="1.756" fill="rgba(25,41,70,0.41)" stroke="rgba(0,0,0,0)" stroke-width="1"/>
            </g>
            <g id="Group_56292" data-name="Group 56292" transform="translate(146.721 102.905)">
              <path id="Path_132238" data-name="Path 132238" d="M38.219,64.458a1.311,1.311,0,0,1,0,2.483,4.761,4.761,0,0,1-4.3,0,1.31,1.31,0,0,1,0-2.483A4.734,4.734,0,0,1,38.219,64.458Z" transform="translate(-33.026 -63.942)" fill="rgba(25,41,70,0.41)" stroke="rgba(0,0,0,0)" stroke-width="1"/>
            </g>
            <g id="Group_56293" data-name="Group 56293" transform="translate(157.965 96.413)">
              <path id="Path_132239" data-name="Path 132239" d="M40.75,62.994a1.311,1.311,0,0,1,0,2.483,4.734,4.734,0,0,1-4.3,0,1.31,1.31,0,0,1,0-2.483A4.762,4.762,0,0,1,40.75,62.994Z" transform="translate(-35.557 -62.481)" fill="rgba(25,41,70,0.41)" stroke="rgba(0,0,0,0)" stroke-width="1"/>
            </g>
            <g id="Group_56294" data-name="Group 56294" transform="translate(169.212 89.922)">
              <path id="Path_132240" data-name="Path 132240" d="M43.279,61.533a1.311,1.311,0,0,1,0,2.483,4.762,4.762,0,0,1-4.3,0,1.311,1.311,0,0,1,0-2.483A4.762,4.762,0,0,1,43.279,61.533Z" transform="translate(-38.089 -61.019)" fill="rgba(25,41,70,0.41)" stroke="rgba(0,0,0,0)" stroke-width="1"/>
            </g>
            <g id="Group_56295" data-name="Group 56295" transform="translate(135.475 96.413)">
              <path id="Path_132241" data-name="Path 132241" d="M35.685,62.994a1.31,1.31,0,0,1,0,2.483,4.734,4.734,0,0,1-4.3,0,1.311,1.311,0,0,1,0-2.483A4.762,4.762,0,0,1,35.685,62.994Z" transform="translate(-30.495 -62.481)" fill="rgba(25,41,70,0.41)" stroke="rgba(0,0,0,0)" stroke-width="1"/>
            </g>
            <g id="Group_56296" data-name="Group 56296" transform="translate(146.721 89.922)">
              <path id="Path_132242" data-name="Path 132242" d="M38.219,61.533a1.311,1.311,0,0,1,0,2.483,4.762,4.762,0,0,1-4.3,0,1.31,1.31,0,0,1,0-2.483A4.762,4.762,0,0,1,38.219,61.533Z" transform="translate(-33.026 -61.019)" fill="rgba(25,41,70,0.41)" stroke="rgba(0,0,0,0)" stroke-width="1"/>
            </g>
            <g id="Group_56297" data-name="Group 56297" transform="translate(157.966 83.429)">
              <ellipse id="Ellipse_11306" data-name="Ellipse 11306" cx="3.041" cy="1.756" rx="3.041" ry="1.756" fill="rgba(25,41,70,0.41)" stroke="rgba(0,0,0,0)" stroke-width="1"/>
            </g>
            <g id="Group_56298" data-name="Group 56298" transform="translate(135.116 58.957)">
              <path id="Path_132243" data-name="Path 132243" d="M35.608,56.647a4.748,4.748,0,0,1-4.3,0,1.311,1.311,0,0,1,0-2.483C32.485,53.484,36.794,55.958,35.608,56.647Z" transform="translate(-30.414 -54.049)" fill="rgba(25,41,70,0.41)" stroke="rgba(0,0,0,0)" stroke-width="1"/>
            </g>
            <g id="Group_56299" data-name="Group 56299" transform="translate(123.871 52.465)">
              <path id="Path_132244" data-name="Path 132244" d="M33.077,55.187a4.762,4.762,0,0,1-4.3,0,1.311,1.311,0,0,1-.009-2.483C29.954,52.019,34.263,54.5,33.077,55.187Z" transform="translate(-27.883 -52.588)" fill="rgba(25,41,70,0.41)" stroke="rgba(0,0,0,0)" stroke-width="1"/>
            </g>
            <g id="Group_56300" data-name="Group 56300" transform="translate(112.626 45.971)">
              <path id="Path_132245" data-name="Path 132245" d="M30.548,53.724a4.748,4.748,0,0,1-4.3,0,1.311,1.311,0,0,1-.009-2.483C27.424,50.56,31.734,53.039,30.548,53.724Z" transform="translate(-25.351 -51.126)" fill="rgba(25,41,70,0.41)" stroke="rgba(0,0,0,0)" stroke-width="1"/>
            </g>
            <g id="Group_56301" data-name="Group 56301" transform="translate(101.284 39.413)">
              <path id="Path_132246" data-name="Path 132246" d="M27.995,52.249a4.762,4.762,0,0,1-4.3,0,1.311,1.311,0,0,1-.009-2.483C24.871,49.081,29.181,51.56,27.995,52.249Z" transform="translate(-22.798 -49.65)" fill="rgba(25,41,70,0.41)" stroke="rgba(0,0,0,0)" stroke-width="1"/>
            </g>
            <g id="Group_56302" data-name="Group 56302" transform="translate(236.858 116.019)">
              <path id="Path_132247" data-name="Path 132247" d="M54.2,67.411a4.748,4.748,0,0,1,4.3,0,1.311,1.311,0,0,1,.009,2.483,4.762,4.762,0,0,1-4.3,0A1.311,1.311,0,0,1,54.2,67.411Z" transform="translate(-53.315 -66.894)" fill="rgba(25,41,70,0.41)" stroke="rgba(0,0,0,0)" stroke-width="1"/>
            </g>
            <g id="Group_56303" data-name="Group 56303" transform="translate(248.113 109.521)">
              <ellipse id="Ellipse_11307" data-name="Ellipse 11307" cx="3.041" cy="1.756" rx="3.041" ry="1.756" fill="rgba(25,41,70,0.41)" stroke="rgba(0,0,0,0)" stroke-width="1"/>
            </g>
            <g id="Group_56304" data-name="Group 56304" transform="translate(225.614 109.528)">
              <path id="Path_132248" data-name="Path 132248" d="M51.671,65.95a4.748,4.748,0,0,1,4.3,0,1.311,1.311,0,0,1,.009,2.483,4.762,4.762,0,0,1-4.3,0A1.311,1.311,0,0,1,51.671,65.95Z" transform="translate(-50.784 -65.433)" fill="rgba(25,41,70,0.41)" stroke="rgba(0,0,0,0)" stroke-width="1"/>
            </g>
            <g id="Group_56305" data-name="Group 56305" transform="translate(236.868 103.028)">
              <path id="Path_132249" data-name="Path 132249" d="M58.508,64.483a1.31,1.31,0,0,1,0,2.483,4.734,4.734,0,0,1-4.3,0,1.311,1.311,0,0,1,0-2.483A4.762,4.762,0,0,1,58.508,64.483Z" transform="translate(-53.318 -63.969)" fill="rgba(25,41,70,0.41)" stroke="rgba(0,0,0,0)" stroke-width="1"/>
            </g>
            <g id="Group_56306" data-name="Group 56306" transform="translate(248.113 96.537)">
              <path id="Path_132250" data-name="Path 132250" d="M61.039,63.022a1.31,1.31,0,0,1,0,2.483,4.762,4.762,0,0,1-4.3,0,1.311,1.311,0,0,1,0-2.483A4.762,4.762,0,0,1,61.039,63.022Z" transform="translate(-55.849 -62.509)" fill="rgba(25,41,70,0.41)" stroke="rgba(0,0,0,0)" stroke-width="1"/>
            </g>
            <g id="Group_56307" data-name="Group 56307" transform="translate(214.369 103.035)">
              <path id="Path_132251" data-name="Path 132251" d="M49.141,64.486a4.762,4.762,0,0,1,4.3,0,1.311,1.311,0,0,1,.009,2.483,4.757,4.757,0,0,1-4.3,0A1.311,1.311,0,0,1,49.141,64.486Z" transform="translate(-48.253 -63.971)" fill="rgba(25,41,70,0.41)" stroke="rgba(0,0,0,0)" stroke-width="1"/>
            </g>
            <g id="Group_56308" data-name="Group 56308" transform="translate(225.623 96.536)">
              <ellipse id="Ellipse_11308" data-name="Ellipse 11308" cx="3.041" cy="1.756" rx="3.041" ry="1.756" fill="rgba(25,41,70,0.41)" stroke="rgba(0,0,0,0)" stroke-width="1"/>
            </g>
            <g id="Group_56309" data-name="Group 56309" transform="translate(236.868 90.044)">
              <ellipse id="Ellipse_11309" data-name="Ellipse 11309" cx="3.041" cy="1.756" rx="3.041" ry="1.756" fill="rgba(25,41,70,0.41)" stroke="rgba(0,0,0,0)" stroke-width="1"/>
            </g>
            <g id="Group_56310" data-name="Group 56310" transform="translate(203.027 96.873)">
              <path id="Path_132252" data-name="Path 132252" d="M50.893,65.178a4.734,4.734,0,0,1-4.3,0,1.308,1.308,0,0,1,0-2.479C47.769,62.015,52.079,64.494,50.893,65.178Z" transform="translate(-45.7 -62.584)" fill="rgba(25,41,70,0.41)" stroke="rgba(0,0,0,0)" stroke-width="1"/>
            </g>
            <g id="Group_56311" data-name="Group 56311" transform="translate(214.967 90.371)">
              <path id="Path_132253" data-name="Path 132253" d="M52.893,61.238a1.311,1.311,0,0,1,0,2.483,4.734,4.734,0,0,1-4.3,0C47.407,63.038,51.707,60.554,52.893,61.238Z" transform="translate(-48.388 -61.12)" fill="rgba(25,41,70,0.41)" stroke="rgba(0,0,0,0)" stroke-width="1"/>
            </g>
            <g id="Group_56312" data-name="Group 56312" transform="translate(191.781 90.379)">
              <path id="Path_132254" data-name="Path 132254" d="M48.363,63.72a4.748,4.748,0,0,1-4.3,0,1.311,1.311,0,0,1-.009-2.483C45.24,60.557,49.549,63.031,48.363,63.72Z" transform="translate(-43.169 -61.122)" fill="rgba(25,41,70,0.41)" stroke="rgba(0,0,0,0)" stroke-width="1"/>
            </g>
            <g id="Group_56313" data-name="Group 56313" transform="translate(180.535 83.887)">
              <path id="Path_132255" data-name="Path 132255" d="M45.834,62.26a4.762,4.762,0,0,1-4.3,0,1.311,1.311,0,0,1-.009-2.483C42.71,59.092,47.02,61.571,45.834,62.26Z" transform="translate(-40.637 -59.661)" fill="rgba(25,41,70,0.41)" stroke="rgba(0,0,0,0)" stroke-width="1"/>
            </g>
            <g id="Group_56314" data-name="Group 56314" transform="translate(169.291 77.394)">
              <path id="Path_132256" data-name="Path 132256" d="M43.3,60.8a4.748,4.748,0,0,1-4.3,0,1.311,1.311,0,0,1-.009-2.483C40.179,57.633,44.489,60.112,43.3,60.8Z" transform="translate(-38.106 -58.199)" fill="rgba(25,41,70,0.41)" stroke="rgba(0,0,0,0)" stroke-width="1"/>
            </g>
          </g>
          <g id="Group_56336" data-name="Group 56336" transform="translate(0.911)">
            <g id="Group_56320" data-name="Group 56320" transform="translate(5.958)">
              <g id="Group_56316" data-name="Group 56316" transform="translate(1.153 1.155)">
                <path id="Path_132257" data-name="Path 132257" d="M227.472,105.368,49.338,2.522C45.011.026,41.084-.325,38.107,1.079h0a7.6,7.6,0,0,0-1.2.7L2.322,21.963a1.041,1.041,0,0,0,.107,1.853l17.2,7.517L32.567,49.147v76.541c0,10.751,7.508,23.8,16.771,29.152l32.924,19.005a14.555,14.555,0,0,1,6.557,11.364v22.733c0,5.14,5.34,10.818,8.5,9.032l24.6-13.941c3.523-1.995,8.263-1.515,13.208,1.337l17.5,10.107,48.322,66.537,39.2-22.755.3-.249c2.541-1.941,3.79-5.242,3.79-10.111V134.52C244.248,123.769,236.735,110.717,227.472,105.368Z" transform="translate(-1.806 -0.26)" fill="#2554a4"/>
                <path id="Path_132516" data-name="Path 132516" d="M227.472,105.368,49.338,2.522C45.011.026,41.084-.325,38.107,1.079h0a7.6,7.6,0,0,0-1.2.7L2.322,21.963a1.041,1.041,0,0,0,.107,1.853l17.2,7.517L32.567,49.147v76.541c0,10.751,7.508,23.8,16.771,29.152l32.924,19.005a14.555,14.555,0,0,1,6.557,11.364v22.733c0,5.14,5.34,10.818,8.5,9.032l24.6-13.941c3.523-1.995,8.263-1.515,13.208,1.337l17.5,10.107,48.322,66.537,39.2-22.755.3-.249c2.541-1.941,3.79-5.242,3.79-10.111V134.52C244.248,123.769,236.735,110.717,227.472,105.368Z" transform="translate(-1.806 -0.26)" fill="#2554a4"/>
              </g>
              <g id="Group_56317" data-name="Group 56317" transform="translate(13.269 14.452)">
                <path id="Path_132258" data-name="Path 132258" d="M218.163,108.361,40.029,5.515C35.7,3.019,31.77,2.668,28.8,4.072h0a8.134,8.134,0,0,0-1.2.7L4.533,18.234l5.784,2.528L23.254,38.577v76.541c0,10.755,7.512,23.808,16.775,29.157l32.92,19.005a14.56,14.56,0,0,1,6.562,11.364v22.728c0,5.145,5.34,10.822,8.494,9.032l24.607-13.941c3.519-1.995,8.263-1.515,13.208,1.342l17.5,10.107,48.318,66.532,39.206-22.75.3-.249c2.541-1.946,3.785-5.247,3.785-10.111v-99.82C234.934,126.762,227.426,113.71,218.163,108.361Z" transform="translate(-4.533 -3.253)" fill="#2554a4"/>
                <path id="Path_132517" data-name="Path 132517" d="M218.163,108.361,40.029,5.515C35.7,3.019,31.77,2.668,28.8,4.072h0a8.134,8.134,0,0,0-1.2.7L4.533,18.234l5.784,2.528L23.254,38.577v76.541c0,10.755,7.512,23.808,16.775,29.157l32.92,19.005a14.56,14.56,0,0,1,6.562,11.364v22.728c0,5.145,5.34,10.822,8.494,9.032l24.607-13.941c3.519-1.995,8.263-1.515,13.208,1.342l17.5,10.107,48.318,66.532,39.206-22.75.3-.249c2.541-1.946,3.785-5.247,3.785-10.111v-99.82C234.934,126.762,227.426,113.71,218.163,108.361Z" transform="translate(-4.533 -3.253)" fill="rgba(255,255,255,0.38)"/>
              </g>
              <g id="Group_56318" data-name="Group 56318" transform="translate(83.489 133.288)">
                <path id="Path_132259" data-name="Path 132259" d="M141.475,52.53c-7.139,2.839-56.8,11.884-121.136,20.769a14.725,14.725,0,0,1,4.678,9.92v22.728c0,5.145,5.34,10.822,8.5,9.032l24.6-13.941c3.523-1.995,8.263-1.515,13.208,1.342l17.5,10.107,48.322,66.532,39.2-22.75.3-.249c2.541-1.946,3.789-5.247,3.789-10.111V32.53c0-.831-.062-1.675-.147-2.528Z" transform="translate(-20.339 -30.002)" fill="#153365"/>
              </g>
              <g id="Group_56319" data-name="Group 56319">
                <path id="Path_132260" data-name="Path 132260" d="M201.524,283.429l-48.788-67.176-17.291-9.982c-4.6-2.661-8.881-3.132-12.062-1.342l-24.6,13.945a4.543,4.543,0,0,1-4.643-.347,12.255,12.255,0,0,1-5.58-9.689V186.11a13.459,13.459,0,0,0-5.98-10.369L49.654,156.735c-9.565-5.522-17.348-19.05-17.348-30.152V50.415L19.773,33.16,2.861,25.768a2.194,2.194,0,0,1-.227-3.905L37.215,1.676A9.115,9.115,0,0,1,38.508.925c3.452-1.626,7.814-1.1,12.3,1.493L228.944,105.264c9.565,5.522,17.348,19.05,17.348,30.156V248.794c0,5.242-1.386,8.85-4.238,11.031l-.271.222Zm-73.871-81.881a18.187,18.187,0,0,1,8.947,2.719l17.864,10.427,47.7,65.692,38.451-22.373c2.275-1.737,3.363-4.745,3.363-9.218V135.42c0-10.373-7.264-23-16.193-28.153L49.654,4.417c-3.8-2.2-7.41-2.7-10.16-1.4a7.289,7.289,0,0,0-1.035.6L3.8,23.862l17.477,7.432.182.253L34.616,49.665v76.919c0,10.365,7.264,22.995,16.193,28.153l32.924,19.005a15.808,15.808,0,0,1,7.135,12.368v22.728a9.89,9.89,0,0,0,4.434,7.7,2.471,2.471,0,0,0,2.341.329l24.6-13.945A10.86,10.86,0,0,1,127.653,201.548Z" transform="translate(-1.546 0)" fill="#153365"/>
              </g>
            </g>
            <g id="Group_56323" data-name="Group 56323" transform="translate(0 21.449)">
              <g id="Group_56321" data-name="Group 56321" transform="translate(1.151 1.163)">
                <path id="Path_132261" data-name="Path 132261" d="M17.239,7.37,195.373,110.216c9.263,5.349,16.771,18.4,16.771,29.152V252.747c0,10.755-7.508,15.136-16.771,9.787L103.03,209.219c-4.945-2.852-9.689-3.332-13.208-1.337l-24.6,13.941c-3.159,1.786-8.5-3.892-8.5-9.032V190.1a14.529,14.529,0,0,0-6.562-11.4l-32.92-19.01C7.976,154.34.464,141.287.464,130.536V17.157C.464,6.4,7.976,2.021,17.239,7.37Z" transform="translate(-0.464 -5.09)" fill="#2554a4"/>
              </g>
              <g id="Group_56322" data-name="Group 56322">
                <path id="Path_132262" data-name="Path 132262" d="M203.729,266.879a16.294,16.294,0,0,1-8.041-2.443l-92.343-53.311c-4.6-2.661-8.885-3.136-12.062-1.337l-24.6,13.941a4.551,4.551,0,0,1-4.647-.347,12.262,12.262,0,0,1-5.575-9.689V191a13.493,13.493,0,0,0-5.98-10.4l-32.924-19.01C7.988,156.067.205,142.54.205,131.433V18.058c0-5.651,1.959-9.9,5.522-11.951,3.536-2.044,8.143-1.63,12.981,1.168L196.842,110.118c9.565,5.522,17.348,19.05,17.348,30.156V253.649c0,5.651-1.959,9.9-5.522,11.951A9.762,9.762,0,0,1,203.729,266.879ZM95.552,206.4a18.187,18.187,0,0,1,8.947,2.719l92.343,53.311c4.092,2.363,7.881,2.781,10.671,1.168,2.817-1.626,4.367-5.158,4.367-9.951V140.274c0-10.373-7.264-23-16.193-28.153L17.553,9.271C13.466,6.912,9.677,6.494,6.882,8.107c-2.817,1.626-4.367,5.158-4.367,9.951V131.433c0,10.369,7.264,23,16.193,28.157L51.632,178.6A15.608,15.608,0,0,1,58.767,191v22.693a9.9,9.9,0,0,0,4.429,7.7,2.467,2.467,0,0,0,2.346.329l24.6-13.945A10.86,10.86,0,0,1,95.552,206.4Z" transform="translate(-0.205 -4.828)" fill="#153365"/>
              </g>
            </g>
            <g id="Group_56335" data-name="Group 56335" transform="translate(39.423 78.41)">
              <g id="Group_56328" data-name="Group 56328" transform="translate(2.652)">
                <g id="Group_56324" data-name="Group 56324" transform="translate(1.21 1.15)">
                  <path id="Path_132263" data-name="Path 132263" d="M131.056,87.016c0-4.754-2.888-10.276-6.455-12.333L27.584,18.671c-1.706-.986-3.248-.977-4.4-.2v0l-.04.027c-.044.031-.1.049-.142.084L10.018,26.353a.137.137,0,0,0-.04.2L21.129,41.4v47.86c0,4.758,2.892,10.28,6.455,12.337l68.522,39.561,18,23.95a1.526,1.526,0,0,0,2.008.391l13.279-8.014a6.279,6.279,0,0,0,1.662-4.758Z" transform="translate(-9.948 -17.908)" fill="#2554a4"/>
                </g>
                <g id="Group_56325" data-name="Group 56325" transform="translate(4.034 6.618)">
                  <path id="Path_132264" data-name="Path 132264" d="M19.176,42.627v44.75C19.9,91.486,22.4,95.658,25.4,97.39l68.522,39.561,18,23.946a1.526,1.526,0,0,0,2.008.391l13.279-8.01a6.286,6.286,0,0,0,1.662-4.758v-62.6c-.729-4.109-3.225-8.281-6.22-10.014L25.635,19.9c-1.71-.982-3.252-.973-4.4-.2l0,0-.04.022c-.044.036-.1.053-.142.089L10.584,26.074,18.94,37.189v5.122Z" transform="translate(-10.584 -19.139)" fill="#7895c7"/>
                </g>
                <g id="Group_56326" data-name="Group 56326" transform="translate(12.506 65.802)">
                  <path id="Path_132265" data-name="Path 132265" d="M109.1,43.856a1.526,1.526,0,0,1-2.008-.391l-94.6-11v6.313c0,4.754,2.892,10.276,6.455,12.333L87.468,90.668l18,23.95a1.52,1.52,0,0,0,2,.391l13.283-8.014a6.275,6.275,0,0,0,1.662-4.754V36.53c0-.222-.036-.453-.049-.675Z" transform="translate(-12.491 -32.461)" fill="#153365"/>
                </g>
                <g id="Group_56327" data-name="Group 56327">
                  <path id="Path_132266" data-name="Path 132266" d="M116.262,167.758a2.659,2.659,0,0,1-2.141-1.071L96.262,142.924,27.948,103.487c-3.949-2.279-7.037-8.139-7.037-13.341V42.673L9.676,27.723l.187-1.128.511-.351,12.972-7.766a5.21,5.21,0,0,1,5.758.08L126.116,74.57c3.945,2.279,7.033,8.139,7.033,13.341v65.7a7.456,7.456,0,0,1-2.039,5.615l-13.461,8.143A2.671,2.671,0,0,1,116.262,167.758ZM12.515,27.657,23.221,41.9V90.146c0,4.3,2.692,9.5,5.882,11.337l68.864,39.863,18,23.954a.364.364,0,0,0,.484.093l13.283-8.01a5.5,5.5,0,0,0,1.1-3.772v-65.7c0-4.3-2.692-9.5-5.878-11.337L27.948,20.562a3.009,3.009,0,0,0-3.185-.24Z" transform="translate(-9.676 -17.649)" fill="#153365"/>
                </g>
              </g>
              <g id="Group_56331" data-name="Group 56331" transform="translate(0 8.269)">
                <g id="Group_56329" data-name="Group 56329" transform="translate(1.155 1.155)">
                  <path id="Path_132267" data-name="Path 132267" d="M112.811,159.482,15.794,103.47c-3.563-2.057-6.455-7.583-6.455-12.337V25.427c0-4.754,2.892-6.939,6.455-4.882l97.017,56.012c3.563,2.061,6.455,7.583,6.455,12.337V154.6C119.266,159.353,116.374,161.539,112.811,159.482Z" transform="translate(-9.339 -19.771)" fill="#2554a4"/>
                </g>
                <g id="Group_56330" data-name="Group 56330">
                  <path id="Path_132268" data-name="Path 132268" d="M116.274,162.305a6.342,6.342,0,0,1-3.145-.928L16.112,105.365c-3.945-2.275-7.033-8.134-7.033-13.337V26.322c0-2.923,1.026-5.193,2.812-6.22a5.235,5.235,0,0,1,5.376.342l97.017,56.008c3.945,2.275,7.033,8.134,7.033,13.337v65.706c0,2.923-1.022,5.189-2.808,6.22A4.414,4.414,0,0,1,116.274,162.305ZM14.13,21.818a2.167,2.167,0,0,0-1.088.284c-1.031.6-1.653,2.172-1.653,4.22V92.028c0,4.3,2.692,9.5,5.878,11.333l97.017,56.012a3.118,3.118,0,0,0,3.07.342c1.035-.6,1.653-2.172,1.653-4.22V89.789c0-4.309-2.692-9.5-5.878-11.333L16.112,22.444A4.125,4.125,0,0,0,14.13,21.818Z" transform="translate(-9.079 -19.511)" fill="#153365"/>
                </g>
              </g>
              <g id="Group_56334" data-name="Group 56334" transform="translate(0.977 8.666)">
                <g id="Group_56332" data-name="Group 56332" transform="translate(1.399 1.149)">
                  <path id="Path_132269" data-name="Path 132269" d="M59.2,84.348c2.532,3.27,5.744,5.056,8.223,4.58l47.922-9.223a11.105,11.105,0,0,0-3.963-3.727L15.332,20.521c-2.31-1.333-5.336-.347-5.718.284Z" transform="translate(-9.614 -19.859)" fill="#2554a4"/>
                </g>
                <g id="Group_56333" data-name="Group 56333">
                  <path id="Path_132270" data-name="Path 132270" d="M67.679,91.049c-2.71,0-5.8-1.875-8.308-5.1L9.3,21.781l.409-.68c.742-1.226,4.5-2.292,7.286-.693l96.049,55.457a12.193,12.193,0,0,1,4.411,4.207l.7,1.368L68.723,90.952A5.434,5.434,0,0,1,67.679,91.049ZM12.453,22.07l48.74,62.463c2.235,2.874,5.127,4.523,7.09,4.149l46.105-8.867a11.966,11.966,0,0,0-2.5-1.946L15.838,22.412A4.7,4.7,0,0,0,12.453,22.07Z" transform="translate(-9.299 -19.6)" fill="#153365"/>
                </g>
              </g>
            </g>
          </g>
        </g>
      </g>
    </g>
  </g>
</svg>
