<svg xmlns="http://www.w3.org/2000/svg" xmlns:xlink="http://www.w3.org/1999/xlink" width="49" height="66" viewBox="0 0 49 66">
  <defs>
    <filter id="Path_48997" x="0" y="0" width="49" height="66" filterUnits="userSpaceOnUse">
      <feOffset dy="3" input="SourceAlpha"/>
      <feGaussianBlur stdDeviation="3" result="blur"/>
      <feFlood flood-opacity="0.161"/>
      <feComposite operator="in" in2="blur"/>
      <feComposite in="SourceGraphic"/>
    </filter>
  </defs>
  <g id="scroll-down" transform="translate(9 6)" style="isolation: isolate">
    <g transform="matrix(1, 0, 0, 1, -9, -6)" filter="url(#Path_48997)">
      <path id="Path_48997-2" data-name="Path 48997" d="M19.61,47.512A15.563,15.563,0,0,0,31,32.567V15.5a15.5,15.5,0,0,0-31,0V32.563a15.56,15.56,0,0,0,12.711,15.25,19.039,19.039,0,0,0,6.9-.3Zm4.25-6.586a11.84,11.84,0,0,1-20.2-8.359V15.5a11.84,11.84,0,0,1,23.68,0V32.563a11.8,11.8,0,0,1-3.48,8.363Z" transform="translate(9 6)" fill="#1d4487"/>
    </g>
  </g>
</svg>
