<svg xmlns="http://www.w3.org/2000/svg" xmlns:xlink="http://www.w3.org/1999/xlink" width="1638" height="584" viewBox="0 0 1638 584">
  <defs>
    <clipPath id="clip-path">
      <rect id="Rectangle_13767" data-name="Rectangle 13767" width="1638" height="584" transform="translate(141 5430)" fill="#42a7c6"/>
    </clipPath>
    <linearGradient id="linear-gradient" x2="1" y2="1" gradientUnits="objectBoundingBox">
      <stop offset="0" stop-color="#1d4487"/>
      <stop offset="1" stop-color="#f2eff3"/>
    </linearGradient>
  </defs>
  <g id="service-ellipse-bg1-en" transform="translate(-141 -5430)" clip-path="url(#clip-path)">
    <ellipse id="service-ellipse-bg1" cx="400.734" cy="401" rx="400.734" ry="401" transform="translate(-259.734 5029)" fill="#f2eff3"/>
    <ellipse id="service-ellipse-bg2" cx="400.734" cy="401" rx="400.734" ry="401" transform="translate(-181.591 5136)" fill="#f2eff3" opacity="0.42"/>
    <path id="Path_111602" data-name="Path 111602" d="M2516.192,7215.16c.089-.353.177-.711.262-1.064l-3.888-.935c-.081.338-.166.681-.251,1.02Zm-1.274-21.331,4-.006a78.342,78.342,0,0,0-2.707-20.285l-3.861,1.042a74.335,74.335,0,0,1,2.574,19.25Zm-9.9-37.3,3.51-1.917a112.1,112.1,0,0,0-11.409-16.832l-3.1,2.522a108.172,108.172,0,0,1,11,16.228Zm-24.477-30.626,2.744-2.91c-4.617-4.354-9.784-8.76-15.357-13.094l-2.455,3.158c5.474,4.253,10.544,8.573,15.073,12.843Zm-31.177-24.458,2.23-3.32c-5.268-3.539-10.98-7.158-16.98-10.754l-2.056,3.431c5.945,3.557,11.594,7.137,16.813,10.637Zm-34.1-20.541,1.923-3.507c-5.546-3.042-11.51-6.2-17.729-9.378l-1.822,3.561c6.186,3.169,12.115,6.3,17.635,9.319Zm-35.5-18.217,1.746-3.6c-5.654-2.745-11.569-5.559-18.084-8.6l-1.694,3.624c6.5,3.039,12.4,5.839,18.039,8.579Zm-36.174-16.949,1.66-3.639c-6.175-2.818-12.405-5.638-18.219-8.265l-1.647,3.646c5.813,2.63,12.042,5.44,18.211,8.26Zm-36.43-16.5,1.652-3.643c-7.079-3.211-12.854-5.853-18.175-8.312l-1.678,3.631c5.333,2.466,11.122,5.106,18.211,8.326Zm-36.328-16.838,1.727-3.608c-6.482-3.1-12.341-5.981-17.91-8.8l-1.8,3.569c5.6,2.829,11.477,5.718,17.986,8.838Zm-35.752-18.16,1.92-3.509c-6.175-3.378-11.976-6.723-17.244-9.94l-2.085,3.414c5.331,3.254,11.18,6.625,17.419,10.035Zm-34.227-21.1,2.323-3.255a177.939,177.939,0,0,1-15.471-12.3l-2.674,2.975a181.735,181.735,0,0,0,15.825,12.589Zm-29.749-27.415,3.176-2.432a67.708,67.708,0,0,1-7.517-12.152c-.719-1.522-1.4-3.1-2.032-4.7l-3.719,1.47c.662,1.675,1.38,3.336,2.135,4.936a71.728,71.728,0,0,0,7.963,12.882Zm-15.444-37.483,3.945-.655a126.276,126.276,0,0,1-1.612-19.6l-4,.031a130.209,130.209,0,0,0,1.668,20.231Zm3.375-39.986c.674-6.249,1.687-12.841,3.012-19.593l-3.924-.771c-1.348,6.865-2.379,13.573-3.065,19.936Zm7.517-38.937c1.644-6.155,3.549-12.57,5.664-19.069l-3.8-1.238c-2.137,6.566-4.062,13.051-5.724,19.274Zm12.253-37.859c2.258-6.024,4.73-12.255,7.347-18.521l-3.69-1.542c-2.636,6.311-5.126,12.588-7.4,18.659Zm15.33-36.789c2.689-5.9,5.558-11.968,8.528-18.031l-3.592-1.76c-2.987,6.1-5.872,12.2-8.575,18.132Zm17.531-35.833c3.021-5.8,6.194-11.713,9.429-17.588l-3.5-1.93c-3.25,5.9-6.437,11.846-9.473,17.669Zm19.247-34.964c3.318-5.73,6.743-11.5,10.179-17.161l-3.418-2.077c-3.45,5.681-6.89,11.479-10.223,17.232Zm20.727-34.107c6.656-10.432,10.9-16.572,10.945-16.633l-3.287-2.278c-.042.062-4.327,6.256-11.029,16.759Z" transform="translate(-1052.108 -1202)" fill="url(#linear-gradient)"/>
  </g>
</svg>
