<svg xmlns="http://www.w3.org/2000/svg" xmlns:xlink="http://www.w3.org/1999/xlink" width="1638" height="584" viewBox="0 0 1638 584">
  <defs>
    <clipPath id="clip-path">
      <rect id="Rectangle_13767" data-name="Rectangle 13767" width="1638" height="584" transform="translate(141 5430)" fill="#42a7c6"/>
    </clipPath>
    <linearGradient id="linear-gradient" x1="1" x2="0" y2="1" gradientUnits="objectBoundingBox">
      <stop offset="0" stop-color="#1d4487"/>
      <stop offset="1" stop-color="#f2eff3"/>
    </linearGradient>
  </defs>
  <g id="Mask_Group_26" data-name="Mask Group 26" transform="translate(-141 -5430)" clip-path="url(#clip-path)">
    <circle id="service-ellipse-bg1" cx="401" cy="401" r="401" transform="translate(1378 5029)" fill="#f2eff3"/>
    <circle id="service-ellipse-bg2" cx="401" cy="401" r="401" transform="translate(1300 5136)" fill="#f2eff3" opacity="0.42"/>
    <path id="Path_111602" data-name="Path 111602" d="M2156.728,7215.156c-.089-.353-.177-.711-.262-1.064l3.889-.935c.081.338.166.681.251,1.02Zm1.275-21.331-4-.006a78.335,78.335,0,0,1,2.707-20.285l3.862,1.042A74.331,74.331,0,0,0,2158,7193.825Zm9.9-37.3-3.51-1.917a112.06,112.06,0,0,1,11.411-16.832l3.1,2.522A108.087,108.087,0,0,0,2167.9,7156.53Zm24.48-30.626-2.744-2.91c4.617-4.354,9.785-8.76,15.359-13.094l2.455,3.158C2201.978,7117.313,2196.907,7121.635,2192.382,7125.9Zm31.182-24.458-2.23-3.32c5.269-3.539,10.982-7.158,16.982-10.754l2.057,3.431C2234.431,7094.363,2228.776,7097.944,2223.564,7101.445Zm34.1-20.541-1.923-3.507c5.547-3.042,11.512-6.2,17.731-9.378l1.822,3.561C2269.106,7074.745,2263.175,7077.881,2257.661,7080.9Zm35.5-18.217-1.746-3.6c5.655-2.745,11.571-5.559,18.087-8.6l1.694,3.624C2304.7,7057.146,2298.8,7059.952,2293.16,7062.688Zm36.179-16.949-1.661-3.639c6.176-2.818,12.407-5.638,18.222-8.265l1.647,3.646C2341.737,7040.106,2335.509,7042.923,2329.34,7045.739Zm36.435-16.5-1.652-3.643c7.08-3.211,12.856-5.853,18.177-8.312l1.678,3.631C2378.648,7023.379,2372.864,7026.024,2365.775,7029.239Zm36.333-16.838-1.727-3.608c6.483-3.1,12.342-5.981,17.912-8.8l1.8,3.569C2414.5,7006.394,2408.617,7009.284,2402.107,7012.4Zm35.757-18.16-1.92-3.509c6.176-3.378,11.978-6.723,17.246-9.94l2.085,3.414C2449.954,6987.456,2444.1,6990.832,2437.864,6994.241Zm34.232-21.1-2.324-3.255a177.884,177.884,0,0,0,15.474-12.3l2.674,2.975A181.934,181.934,0,0,1,2472.1,6973.145Zm29.753-27.415-3.176-2.432a67.7,67.7,0,0,0,7.518-12.152c.719-1.522,1.4-3.1,2.032-4.7l3.72,1.47c-.662,1.675-1.38,3.336-2.136,4.936A71.68,71.68,0,0,1,2501.849,6945.73Zm15.446-37.483-3.946-.655a126.231,126.231,0,0,0,1.612-19.6l4,.031A130.21,130.21,0,0,1,2517.3,6908.247Zm-3.375-39.986c-.674-6.249-1.687-12.841-3.013-19.593l3.925-.771c1.348,6.865,2.379,13.573,3.065,19.936Zm-7.518-38.937c-1.644-6.155-3.55-12.57-5.665-19.069l3.8-1.238c2.137,6.566,4.063,13.051,5.725,19.274Zm-12.255-37.859c-2.258-6.024-4.731-12.255-7.348-18.521l3.691-1.542c2.636,6.311,5.127,12.588,7.4,18.659Zm-15.332-36.789c-2.689-5.9-5.559-11.968-8.529-18.031l3.592-1.76c2.987,6.1,5.873,12.2,8.577,18.132Zm-17.534-35.833c-3.022-5.8-6.195-11.713-9.431-17.588l3.5-1.93c3.251,5.9,6.438,11.846,9.474,17.669Zm-19.25-34.964c-3.319-5.73-6.744-11.5-10.181-17.161l3.419-2.077c3.451,5.681,6.891,11.479,10.224,17.232Zm-20.73-34.107c-6.657-10.432-10.9-16.572-10.947-16.633l3.288-2.278c.042.062,4.328,6.256,11.03,16.759Z" transform="translate(-1701 -1202)" fill="url(#linear-gradient)"/>
  </g>
</svg>
