<svg xmlns="http://www.w3.org/2000/svg" width="648.271" height="313.618" viewBox="0 0 648.271 313.618">
  <g id="shapes-2" transform="translate(-134.326 -345.241)">
    <path id="Path_59596" data-name="Path 59596" d="M338.045,208.577l-55.176-70.939L290.376,43.8V42.114a9.384,9.384,0,0,0-18.454-3.19L245.21,139.014l-2.44,9.071,5.756,7.444,59.429,76.382a19.039,19.039,0,0,0,30.09-23.334" transform="translate(366.741 567.747) rotate(-30)" fill="#ad3a74"/>
    <path id="Path_59597" data-name="Path 59597" d="M403.636,93H313.68L229.916,13.55l-1.063-1A9.446,9.446,0,0,0,214.9,25.06l76.57,98.464,5.692,7.319H403.512a18.986,18.986,0,0,0,0-37.972" transform="translate(161.935 547.61) rotate(-30)" fill="#804d98"/>
    <path id="Path_59593" data-name="Path 59593" d="M351.007,154.471,336.493,16.846a18.873,18.873,0,1,0-37.534,4L311.47,140.083,190.8,156.535h-1.251A9.446,9.446,0,0,0,190.8,175.3H353.446Z" transform="translate(-22.94 597.848) rotate(-30)" fill="#7666a1"/>
  </g>
</svg>
