<svg xmlns="http://www.w3.org/2000/svg" width="669.725" height="672.013" viewBox="0 0 669.725 672.013">
  <g id="shapes-1" transform="translate(-288.894 -586.369)">
    <path id="Path_59594" data-name="Path 59594" d="M404.151,674.968l-67.937-561.76-1.189-9.634-8.508-4.629L215.48,37.7a19.042,19.042,0,1,0-18.516,33.28L299.806,127.72l85.578,549.624v.438a9.475,9.475,0,1,0,18.767-2.628" transform="translate(109.147 757.924) rotate(-30)" fill="#43a6c5"/>
    <path id="Path_59595" data-name="Path 59595" d="M470.92,141.852,346.495,73.04,326.852,62.28l-7.445,21.082L223.947,354.983a9.456,9.456,0,1,0,17.641,6.819v-.563L346.495,116.267l106.346,58.491a18.772,18.772,0,1,0,18.079-32.9" transform="translate(358.432 785.806) rotate(-30)" fill="#923c80"/>
  </g>
</svg>
