<svg id="shield-tick" xmlns="http://www.w3.org/2000/svg" width="36" height="36" viewBox="0 0 36 36">
  <g id="shield-tick-2" data-name="shield-tick">
    <path id="Vector" d="M14.025,32.261a7.635,7.635,0,0,1-4.53-1.425l-6.45-4.815A8.4,8.4,0,0,1,0,19.961V8.8a6.313,6.313,0,0,1,3.87-5.58l7.485-2.8a8.675,8.675,0,0,1,5.31,0l7.485,2.8A6.313,6.313,0,0,1,28.02,8.8V19.946a8.378,8.378,0,0,1-3.045,6.06l-6.45,4.815A7.4,7.4,0,0,1,14.025,32.261ZM12.15,2.531l-7.485,2.8a4.11,4.11,0,0,0-2.4,3.48V19.961a6.2,6.2,0,0,0,2.13,4.26l6.45,4.815a5.734,5.734,0,0,0,6.375,0l6.45-4.815a6.172,6.172,0,0,0,2.13-4.26V8.8a4.149,4.149,0,0,0-2.4-3.48l-7.485-2.8A6.566,6.566,0,0,0,12.15,2.531Z" transform="translate(3.975 1.879)" fill="#fff"/>
    <path id="Vector-2" data-name="Vector" d="M3.536,8.7a1.113,1.113,0,0,1-.795-.33L.326,5.951a1.124,1.124,0,0,1,1.59-1.59l1.62,1.62L9.191.326a1.124,1.124,0,0,1,1.59,1.59l-6.45,6.45A1.113,1.113,0,0,1,3.536,8.7Z" transform="translate(12.454 12.649)" fill="#fff"/>
    <path id="Vector-3" data-name="Vector" d="M0,0H36V36H0Z" fill="none" opacity="0"/>
  </g>
</svg>
