<svg id="shield-tick2" xmlns="http://www.w3.org/2000/svg" width="60" height="60" viewBox="0 0 60 60">
  <path id="Vector" d="M23.375,53.769a12.725,12.725,0,0,1-7.55-2.375L5.075,43.369A14.008,14.008,0,0,1,0,33.269v-18.6a10.522,10.522,0,0,1,6.45-9.3L18.925.694a14.459,14.459,0,0,1,8.85,0L40.25,5.369a10.522,10.522,0,0,1,6.45,9.3V33.244a13.963,13.963,0,0,1-5.075,10.1l-10.75,8.025A12.325,12.325,0,0,1,23.375,53.769ZM20.25,4.219,7.775,8.894a6.849,6.849,0,0,0-4,5.8V33.269a10.336,10.336,0,0,0,3.55,7.1l10.75,8.025a9.557,9.557,0,0,0,10.625,0l10.75-8.025a10.286,10.286,0,0,0,3.55-7.1v-18.6a6.914,6.914,0,0,0-4-5.8L26.525,4.194A10.943,10.943,0,0,0,20.25,4.219Z" transform="translate(6.625 3.131)" fill="#153365"/>
  <path id="Vector-2" data-name="Vector" d="M5.894,14.494a1.854,1.854,0,0,1-1.325-.55L.544,9.919a1.874,1.874,0,0,1,2.65-2.65l2.7,2.7L15.319.544a1.874,1.874,0,0,1,2.65,2.65L7.219,13.944A1.854,1.854,0,0,1,5.894,14.494Z" transform="translate(20.756 21.081)" fill="#153365"/>
  <path id="Vector-3" data-name="Vector" d="M0,0H60V60H0Z" fill="none" opacity="0"/>
</svg>
