<svg xmlns="http://www.w3.org/2000/svg" xmlns:xlink="http://www.w3.org/1999/xlink" width="806.508" height="806.508" viewBox="0 0 806.508 806.508">
  <defs>
    <linearGradient id="linear-gradient" x1="0.769" y1="0.2" x2="0.453" y2="0.73" gradientUnits="objectBoundingBox">
      <stop offset="0" stop-color="#907a9b" stop-opacity="0.078"/>
      <stop offset="1" stop-color="#40274c" stop-opacity="0"/>
    </linearGradient>
  </defs>
  <g id="sign-in" transform="translate(-586.001 -241.729)">
    <path id="blub" d="M333.881,121.337C515.619-68.052,716.1,132.791,630.563,295.39s50.025,361.279-315.051,315.051S129.886,533.158,109.229,456.065,152.144,310.727,333.881,121.337Z" transform="translate(1014.75 1138.452) rotate(-135)" fill="url(#linear-gradient)"/>
    <g id="Artwork_2" data-name="Artwork 2" transform="translate(759.467 492.704)">
      <g id="Group_56432" data-name="Group 56432" transform="translate(-29.822 -28.145)">
        <g id="Group_56383" data-name="Group 56383" transform="translate(6.297)">
          <g id="Group_56363" data-name="Group 56363" transform="translate(0 86.305)">
            <g id="Group_56341" data-name="Group 56341" transform="translate(0.01 4.156)">
              <g id="Group_56338" data-name="Group 56338" transform="translate(0.989 0.972)">
                <path id="Path_132271" data-name="Path 132271" d="M285.043,89.743c0-.066.005-.137,0-.208V85.328h-2.732c-.193-.127-.375-.259-.583-.38L169.163,19.959c-4.932-2.849-13.55-2.489-19.243.8L6.143,104.338a12.752,12.752,0,0,0-2.56,1.911H1.439v9.779c.046,1.764,1.136,3.447,3.325,4.709l112.565,64.989c4.932,2.844,13.545,2.489,19.243-.8l143.771-83.578c3.011-1.739,4.588-3.944,4.689-6.063l.01-2.641Z" transform="translate(-1.439 -18.037)" fill="#42a7c6"/>
              </g>
              <g id="Group_56339" data-name="Group 56339" transform="translate(123.986 43.738)">
                <path id="Path_132272" data-name="Path 132272" d="M186.3,60.914l.01-2.641v-2.9c0-.066.005-.137,0-.208V50.958h-2.732c-.193-.127-.375-.259-.583-.38l-41.756-24.1a29.636,29.636,0,0,0-6.453.573c-5.941,1.967-101.635,57.6-103.567,66.048S25.7,143.828,25.7,143.828v9.4a22.589,22.589,0,0,0,12.136-2.672L181.609,66.977C184.621,65.238,186.2,63.033,186.3,60.914Z" transform="translate(-25.702 -26.473)" fill="#3a8ead"/>
              </g>
              <g id="Group_56340" data-name="Group 56340">
                <path id="Path_132273" data-name="Path 132273" d="M126.477,189.4a18.026,18.026,0,0,1-8.851-2.038L5.061,122.374c-2.4-1.389-3.761-3.356-3.817-5.541v-10.8H3.987a14.161,14.161,0,0,1,2.459-1.774L150.217,20.678c5.956-3.442,15.031-3.8,20.232-.8L283.013,84.871c.137.076.264.162.4.243h3.422l-.01,10.955c-.127,2.621-1.967,5.059-5.186,6.92L137.858,186.567A23.362,23.362,0,0,1,126.477,189.4ZM3.226,108.018v8.79c.035,1.465,1.014,2.8,2.829,3.848l112.565,64.989c4.649,2.692,12.836,2.327,18.25-.8L280.64,101.266c2.575-1.485,4.106-3.4,4.2-5.252l.01-5.586V87.1h-2.043l-.248-.162c-.269-.182-.39-.264-.522-.34L169.46,21.6c-4.654-2.687-12.836-2.332-18.25.8L7.434,105.98a11.777,11.777,0,0,0-2.362,1.754l-.289.284Z" transform="translate(-1.244 -17.845)" fill="#42a7c6"/>
                <path id="Path_132452" data-name="Path 132452" d="M126.477,189.4a18.026,18.026,0,0,1-8.851-2.038L5.061,122.374c-2.4-1.389-3.761-3.356-3.817-5.541v-10.8H3.987a14.161,14.161,0,0,1,2.459-1.774L150.217,20.678c5.956-3.442,15.031-3.8,20.232-.8L283.013,84.871c.137.076.264.162.4.243h3.422l-.01,10.955c-.127,2.621-1.967,5.059-5.186,6.92L137.858,186.567A23.362,23.362,0,0,1,126.477,189.4ZM3.226,108.018v8.79c.035,1.465,1.014,2.8,2.829,3.848l112.565,64.989c4.649,2.692,12.836,2.327,18.25-.8L280.64,101.266c2.575-1.485,4.106-3.4,4.2-5.252l.01-5.586V87.1h-2.043l-.248-.162c-.269-.182-.39-.264-.522-.34L169.46,21.6c-4.654-2.687-12.836-2.332-18.25.8L7.434,105.98a11.777,11.777,0,0,0-2.362,1.754l-.289.284Z" transform="translate(-1.244 -17.845)" fill="rgba(25,41,70,0.2)"/>
              </g>
            </g>
            <g id="Group_56344" data-name="Group 56344">
              <g id="Group_56342" data-name="Group 56342" transform="translate(0.994 0.969)">
                <path id="Path_132274" data-name="Path 132274" d="M117.333,179.616,4.768,114.627c-4.932-2.849-4.314-7.822,1.379-11.112L149.924,19.937c5.693-3.29,14.311-3.645,19.243-.8L281.731,84.125c4.932,2.849,4.314,7.822-1.384,11.112L136.576,178.82C130.878,182.105,122.265,182.465,117.333,179.616Z" transform="translate(-1.438 -17.216)" fill="#42a7c6"/>
              </g>
              <g id="Group_56343" data-name="Group 56343">
                <path id="Path_132275" data-name="Path 132275" d="M126.485,183.288a18.04,18.04,0,0,1-8.851-2.038L5.069,116.262c-2.469-1.424-3.827-3.442-3.827-5.683,0-2.631,1.9-5.232,5.211-7.143L150.225,19.853c5.962-3.432,15.036-3.792,20.232-.8L283.021,84.046c2.469,1.424,3.827,3.442,3.827,5.683,0,2.631-1.9,5.232-5.206,7.148L137.866,180.455A23.362,23.362,0,0,1,126.485,183.288ZM161.61,18.971a21.359,21.359,0,0,0-10.392,2.6L7.442,105.155c-2.677,1.546-4.213,3.523-4.213,5.424,0,1.5,1,2.91,2.829,3.964l112.57,64.989c4.649,2.692,12.836,2.327,18.25-.8L280.649,95.153c2.682-1.546,4.218-3.523,4.218-5.424,0-1.5-1.009-2.91-2.834-3.964L169.468,20.776A16,16,0,0,0,161.61,18.971Z" transform="translate(-1.242 -17.025)" fill="#3a8ead"/>
              </g>
            </g>
            <g id="Group_56346" data-name="Group 56346" transform="translate(18.599 14.568)">
              <g id="Group_56345" data-name="Group 56345">
                <path id="Path_132276" data-name="Path 132276" d="M113.937,162.378l-.482-.274L4.911,99.432,141.682,19.9l.482.274L250.708,82.845Z" transform="translate(-4.911 -19.899)" fill="#42a7c6"/>
                <path id="Path_132453" data-name="Path 132453" d="M113.937,162.378l-.482-.274L4.911,99.432,141.682,19.9l.482.274L250.708,82.845Z" transform="translate(-4.911 -19.899)" fill="rgba(25,41,70,0.2)"/>
              </g>
            </g>
            <g id="Group_56349" data-name="Group 56349" transform="translate(15.755 4.709)">
              <g id="Group_56347" data-name="Group 56347" transform="translate(1.986 1.146)">
                <path id="Path_132277" data-name="Path 132277" d="M115.211,163.059,4.742,99.28l139.476-81.1L254.687,81.959Z" transform="translate(-4.742 -18.18)" fill="#42a7c6"/>
                <path id="Path_132515" data-name="Path 132515" d="M115.211,163.059,4.742,99.28l139.476-81.1L254.687,81.959Z" transform="translate(-4.742 -18.18)" fill="rgba(255,255,255,0.87)"/>
              </g>
              <g id="Group_56348" data-name="Group 56348">
                <path id="Path_132278" data-name="Path 132278" d="M116.808,165.122l-.5-.284L4.35,100.2,145.81,17.954l.5.284L258.263,82.877ZM8.319,100.2l108.489,62.637L254.3,82.877,145.81,20.24Z" transform="translate(-4.35 -17.954)" fill="#3a8ead"/>
              </g>
            </g>
            <g id="Group_56356" data-name="Group 56356" transform="translate(200.323 4.922)">
              <g id="Group_56352" data-name="Group 56352" transform="translate(0.012 3.803)">
                <g id="Group_56350" data-name="Group 56350" transform="translate(0.991 0.991)">
                  <path id="Path_132279" data-name="Path 132279" d="M89.726,41.725l-.051.436L78.426,35.667a6.231,6.231,0,0,1-.6.426c-3.173,1.83-5.024,4.755-8.2,2.925s-6.468-2.443-3.3-4.273c.228-.132.487-.233.735-.35L68.1,25.919,63.725,24.4l-.674,7.67L50.616,19.612c-2.18-1.262-5.916-.654-6.626,1.085L42.4,24.55,40.959,24.4v9.241a.61.61,0,0,0,0,.1v.025h.005a2.03,2.03,0,0,0,1.136,1.49L76.292,55a6.028,6.028,0,0,0,3.65.613l12.516-1.6c2.013-.259,3.168-1.3,3.077-2.347V42.566Z" transform="translate(-40.957 -18.942)" fill="#3a8ead"/>
                </g>
                <g id="Group_56351" data-name="Group 56351">
                  <path id="Path_132280" data-name="Path 132280" d="M79.886,57.454a6.691,6.691,0,0,1-3.3-.806L42.4,36.913a3.76,3.76,0,0,1-1.146-.994l-.492.243L40.761,24.1l1.8.183,1.3-3.173a3.788,3.788,0,0,1,2.413-1.992,7.246,7.246,0,0,1,5.627.426l.208.162,10.93,10.955.593-6.727L70.021,26.2V36.685l-1.744-.593a6.859,6.859,0,0,0-.649.3,3.838,3.838,0,0,0-.674.461,13.709,13.709,0,0,0,1.8.973c.679.33,1.424.695,2.17,1.12,1.688.978,2.748.279,4.8-1.267a24.818,24.818,0,0,1,2.408-1.658,3.562,3.562,0,0,0,.35-.243l.527-.4.715.218L89.776,41.41l6.94,1.009a.709.709,0,0,1,.608.7v9.338c.137,1.607-1.48,3.011-3.944,3.331l-12.516,1.6A7.048,7.048,0,0,1,79.886,57.454ZM42.743,34.434v.035c.025.233.264.5.649.725l34.193,19.74a5.129,5.129,0,0,0,3.026.487l12.516-1.6c1.5-.193,2.251-.867,2.215-1.283V44.223l-3.949-.573-.106.923-12-6.935-.167.106a21.657,21.657,0,0,0-2.205,1.521c-2.013,1.511-4.086,3.077-6.986,1.4-.7-.406-1.4-.745-2.043-1.054-1.673-.811-3-1.455-3.037-2.687-.035-1.059.933-1.759,1.784-2.251.076-.041,1.323.776,1.4.735v-7.7L65.4,26.465l-.76,8.613L50.813,21.2A5.416,5.416,0,0,0,46.92,21a1.994,1.994,0,0,0-1.222.872L43.833,26.4l-1.09-.112Z" transform="translate(-40.761 -18.746)" fill="#3a8ead"/>
                </g>
              </g>
              <g id="Group_56355" data-name="Group 56355">
                <g id="Group_56353" data-name="Group 56353" transform="translate(0.991 0.988)">
                  <path id="Path_132281" data-name="Path 132281" d="M94.4,44.131,78.436,34.915a6.938,6.938,0,0,1-.6.426,12.714,12.714,0,0,1-11.492,0c-3.173-1.835-3.173-4.806,0-6.636.228-.132.487-.233.735-.345l-16.455-9.5C48.446,17.6,44.71,18.211,44,19.945l-2.94,7.138c-.314.771.081,1.577,1.049,2.134L76.3,48.962a6.1,6.1,0,0,0,3.65.613l12.516-1.607C95.5,47.578,96.6,45.4,94.4,44.131Z" transform="translate(-40.954 -18.191)" fill="#3a8ead"/>
                </g>
                <g id="Group_56354" data-name="Group 56354">
                  <path id="Path_132282" data-name="Path 132282" d="M79.9,51.413a6.744,6.744,0,0,1-3.3-.8L42.413,30.872a2.7,2.7,0,0,1-1.47-3.376l2.935-7.138a3.8,3.8,0,0,1,2.413-1.992,7.29,7.29,0,0,1,5.627.426L70.031,29.25l-1.744.8c-.365.162-.512.228-.649.3a3.125,3.125,0,0,0-1.891,2.459,3.128,3.128,0,0,0,1.886,2.464,11.844,11.844,0,0,0,10.5,0,3.6,3.6,0,0,0,.35-.248l.527-.4.715.223,15.963,9.216a2.775,2.775,0,0,1,1.607,2.92c-.284,1.43-1.784,2.484-3.908,2.758L80.874,51.352A7.922,7.922,0,0,1,79.9,51.413ZM48.633,19.978a5.258,5.258,0,0,0-1.7.269,1.99,1.99,0,0,0-1.222.867l-2.935,7.138c-.162.406.441.8.629.907L77.594,48.893a5.129,5.129,0,0,0,3.026.492l12.516-1.607c1.485-.193,2.149-.826,2.22-1.181s-.482-.715-.659-.816L79.3,36.889l-.167.1A13.65,13.65,0,0,1,66.644,37c-1.855-1.075-2.879-2.555-2.879-4.182a4.626,4.626,0,0,1,2.109-3.675L50.929,20.51A4.772,4.772,0,0,0,48.633,19.978Z" transform="translate(-40.759 -17.996)" fill="#3a8ead"/>
                </g>
              </g>
            </g>
            <g id="Group_56359" data-name="Group 56359" transform="translate(165.727 2.382)">
              <g id="Group_56357" data-name="Group 56357" transform="translate(0.989 0.991)">
                <path id="Path_132283" data-name="Path 132283" d="M124.079,77.922l-88.516-51.1c-2.124-1.232-1.86-3.376.6-4.791l5.475-3.163c2.454-1.419,6.169-1.572,8.3-.345l88.511,51.1c2.129,1.227,1.86,3.371-.593,4.791l-5.475,3.163C129.919,78.991,126.208,79.148,124.079,77.922Z" transform="translate(-34.129 -17.691)" fill="#e7f4f8"/>
              </g>
              <g id="Group_56358" data-name="Group 56358">
                <path id="Path_132284" data-name="Path 132284" d="M128.487,80.537a8.326,8.326,0,0,1-4.111-.963L35.865,28.47a3.422,3.422,0,0,1-1.931-2.94,4.355,4.355,0,0,1,2.525-3.569L41.933,18.8c2.773-1.6,6.854-1.754,9.287-.345l88.516,51.1a3.429,3.429,0,0,1,1.931,2.945,4.366,4.366,0,0,1-2.525,3.569l-5.475,3.163A10.652,10.652,0,0,1,128.487,80.537Zm-3.118-2.682c1.82,1.049,5.166.892,7.3-.345l5.475-3.158c.963-.553,1.536-1.247,1.536-1.855,0-.558-.512-.973-.938-1.222l-88.516-51.1c-1.82-1.054-5.166-.892-7.3.345l-5.475,3.158c-.963.558-1.536,1.247-1.536,1.85,0,.563.512.973.938,1.222Z" transform="translate(-33.934 -17.495)" fill="#3a8ead"/>
              </g>
            </g>
            <g id="Group_56362" data-name="Group 56362" transform="translate(182.973 20.713)">
              <g id="Group_56360" data-name="Group 56360" transform="translate(0.993 0.995)">
                <path id="Path_132285" data-name="Path 132285" d="M82.508,51.423,38.247,25.868c-1.059-.613-.928-1.683.3-2.393l2.737-1.582a4.607,4.607,0,0,1,4.147-.172l44.26,25.555c1.059.613.928,1.683-.3,2.393L86.654,51.25A4.607,4.607,0,0,1,82.508,51.423Z" transform="translate(-37.532 -21.307)" fill="#42a7c6"/>
              </g>
              <g id="Group_56361" data-name="Group 56361">
                <path id="Path_132286" data-name="Path 132286" d="M85.115,53.631a4.7,4.7,0,0,1-2.307-.548L38.553,27.529a2.214,2.214,0,0,1-1.217-1.9,2.662,2.662,0,0,1,1.511-2.215l2.737-1.577a5.54,5.54,0,0,1,5.14-.172l44.26,25.549a2.218,2.218,0,0,1,1.212,1.9,2.668,2.668,0,0,1-1.511,2.215l-2.737,1.577A5.764,5.764,0,0,1,85.115,53.631ZM44.438,23.093a3.834,3.834,0,0,0-1.86.461L39.84,25.136c-.416.233-.517.451-.522.492a.675.675,0,0,0,.223.182L83.8,51.36a3.616,3.616,0,0,0,3.158-.167l2.737-1.582c.416-.238.517-.456.522-.5a.611.611,0,0,0-.223-.182L45.731,23.382A2.635,2.635,0,0,0,44.438,23.093Z" transform="translate(-37.336 -21.111)" fill="#3a8ead"/>
              </g>
            </g>
          </g>
          <g id="Group_56382" data-name="Group 56382" transform="translate(97.533)">
            <g id="Group_56366" data-name="Group 56366" transform="translate(14.414 144.88)">
              <g id="Group_56364" data-name="Group 56364" transform="translate(21.383 13.46)">
                <ellipse id="Ellipse_11310" data-name="Ellipse 11310" cx="9.48" cy="5.474" rx="9.48" ry="5.474" fill="#3a8ead"/>
              </g>
              <g id="Group_56365" data-name="Group 56365">
                <path id="Path_132287" data-name="Path 132287" d="M75.488,33.756c-11.938-6.9-30.649-6.9-42.6,0-6.169,3.559-9.566,8.446-9.566,13.753s3.4,10.2,9.566,13.763c5.967,3.452,13.631,5.176,21.3,5.176s15.33-1.724,21.3-5.176c6.164-3.559,9.566-8.451,9.561-13.763S81.653,37.315,75.488,33.756ZM72.954,56.888c-10.347,5.972-27.182,5.972-37.528,0-4.537-2.621-7.031-5.951-7.031-9.378s2.494-6.752,7.031-9.368C40.6,35.155,47.394,33.66,54.187,33.66s13.591,1.5,18.767,4.481c4.532,2.616,7.026,5.946,7.026,9.368S77.486,54.267,72.954,56.888Z" transform="translate(-23.325 -28.58)" fill="#3a8ead"/>
              </g>
            </g>
            <g id="Group_56369" data-name="Group 56369" transform="translate(14.413 139.799)">
              <g id="Group_56367" data-name="Group 56367" transform="translate(21.381 13.462)">
                <path id="Path_132288" data-name="Path 132288" d="M43.725,31.834a14.83,14.83,0,0,0-13.4,0c-3.706,2.139-3.706,5.607,0,7.741a14.8,14.8,0,0,0,13.4,0C47.431,37.441,47.431,33.973,43.725,31.834Z" transform="translate(-27.543 -30.233)" fill="#42a7c6"/>
              </g>
              <g id="Group_56368" data-name="Group 56368">
                <path id="Path_132289" data-name="Path 132289" d="M75.483,32.75c-11.938-6.894-30.644-6.9-42.593,0-6.169,3.564-9.566,8.446-9.566,13.758s3.4,10.2,9.566,13.763c5.967,3.452,13.631,5.176,21.3,5.176s15.33-1.724,21.3-5.176c6.169-3.559,9.571-8.451,9.566-13.763S81.653,36.314,75.483,32.75ZM72.949,55.887c-10.341,5.972-27.177,5.972-37.523,0-4.537-2.621-7.036-5.951-7.031-9.378s2.494-6.752,7.031-9.368c5.171-2.986,11.964-4.481,18.762-4.481s13.591,1.5,18.762,4.481c4.537,2.616,7.031,5.946,7.031,9.368S77.486,53.266,72.949,55.887Z" transform="translate(-23.325 -27.578)" fill="#42a7c6"/>
              </g>
            </g>
            <g id="Group_56381" data-name="Group 56381">
              <g id="Group_56378" data-name="Group 56378">
                <g id="Group_56373" data-name="Group 56373">
                  <g id="Group_56370" data-name="Group 56370" transform="translate(1.52 1.499)">
                    <path id="Path_132290" data-name="Path 132290" d="M60.552,2.993C40.544,12.209,22.614,40.121,20.91,65.919c-.679,10.321,1.364,18.67,5.409,24.358l28.809,54.637,13.819,6.747c1.242-2.819,21.4-98.786,22.325-101.671h0c2.16-6.747,16.906-10.985,17.018-17.555C108.691,8.407,80.054-5.995,60.552,2.993ZM58.018,64.565c-7.873,3.929-13.91-.892-13.419-10.7.492-9.677,7.168-20.429,14.848-24.1,7.614-3.635,13.49.994,13.19,10.407C72.334,49.717,65.819,60.667,58.018,64.565Z" transform="translate(-20.782 -0.296)" fill="#42a7c6"/>
                  </g>
                  <g id="Group_56371" data-name="Group 56371" transform="translate(4.021 6.326)">
                    <path id="Path_132291" data-name="Path 132291" d="M61.034,4.036C41.031,13.252,23.1,41.169,21.4,66.962a48.782,48.782,0,0,0,.836,13.261C45.056,93.951,62.155,93.15,79.979,105.306,85.529,79.519,91.273,52.545,91.76,51.034c2.16-6.747,13.211-11.8,13.322-18.371C105.487,8.634,80.541-4.952,61.034,4.036ZM58.5,65.608c-7.878,3.934-13.915-.892-13.419-10.7.487-9.672,7.163-20.424,14.848-24.095,7.609-3.635,13.484.989,13.185,10.407C72.816,50.76,66.3,61.715,58.5,65.608Z" transform="translate(-21.275 -1.248)" fill="#e7f4f8"/>
                  </g>
                  <g id="Group_56372" data-name="Group 56372">
                    <path id="Path_132292" data-name="Path 132292" d="M70.918,154.923l-15.679-7.655-.233-.441L26.2,92.185c-4.3-6.017-6.266-14.777-5.581-25.159,1.708-25.9,19.882-54.7,40.519-64.208h0C71.511-1.973,85.1-.568,95.742,6.372c9.9,6.453,15.472,16.4,15.284,27.293-.071,4.243-4.623,7.361-9.023,10.367-3.538,2.423-7.2,4.927-8.065,7.624-.36,1.146-4.121,18.665-8.1,37.209C77.944,125.638,72.3,151.8,71.557,153.479Zm-13.454-9.951L69.2,150.7c1.86-7.472,8.6-38.9,13.662-62.474,4.826-22.472,7.8-36.307,8.182-37.493,1.181-3.7,5.282-6.5,9.241-9.211,3.767-2.575,7.66-5.237,7.705-7.9.162-9.829-4.9-18.833-13.91-24.7-9.789-6.387-22.214-7.7-31.673-3.346h0c-19.73,9.089-37.118,36.743-38.755,61.648-.639,9.677,1.136,17.763,5.13,23.375ZM54.012,68.658a8.814,8.814,0,0,1-4.9-1.419C45.769,65.059,44.02,60.6,44.3,55,44.821,44.716,51.72,33.558,60.014,29.6c3.9-1.86,7.645-1.855,10.529.035,3.239,2.119,5,6.413,4.831,11.791-.319,10.068-7.254,21.6-15.451,25.7h-.005A13.332,13.332,0,0,1,54.012,68.658Zm11.6-37.4a10.019,10.019,0,0,0-4.289,1.085C54.073,35.8,47.8,46.039,47.34,55.149c-.228,4.491,1.024,7.969,3.432,9.546,2.018,1.318,4.78,1.212,7.792-.289,7.3-3.65,13.484-14,13.773-23.076.137-4.289-1.125-7.624-3.457-9.15A5.89,5.89,0,0,0,65.615,31.262Z" transform="translate(-20.482 0)" fill="#3a8ead"/>
                  </g>
                </g>
                <g id="Group_56377" data-name="Group 56377" transform="translate(13.814 6.418)">
                  <g id="Group_56376" data-name="Group 56376">
                    <g id="Group_56374" data-name="Group 56374" transform="translate(1.524 1.516)">
                      <path id="Path_132293" data-name="Path 132293" d="M97.518,31.4c.4-24.029-14.737-35.81-34.243-26.822C43.266,13.791,25.336,41.7,23.638,67.5c-.684,10.326,1.359,18.67,5.4,24.363L57.856,146.5,90.73,60.14a84.991,84.991,0,0,0,3.265-8.572h0A70.479,70.479,0,0,0,97.518,31.4Z" transform="translate(-23.507 -1.565)" fill="#3a8ead"/>
                    </g>
                    <g id="Group_56375" data-name="Group 56375">
                      <path id="Path_132294" data-name="Path 132294" d="M59.829,149.771l-1.85-.887L28.921,93.78C24.627,87.768,22.655,79,23.34,68.616c1.708-25.9,19.882-54.7,40.519-64.208C73.1.155,81.88.221,88.592,4.6c7.746,5.049,11.888,15.01,11.665,28.038h0a71.819,71.819,0,0,1-3.589,20.612,89.2,89.2,0,0,1-3.32,8.719ZM76.968,4.312A28.5,28.5,0,0,0,65.131,7.171C45.4,16.255,28.014,43.913,26.376,68.814c-.639,9.682,1.136,17.768,5.13,23.38L58.85,144.033,90.534,60.82a87.883,87.883,0,0,0,3.239-8.5A68.839,68.839,0,0,0,97.22,32.588c.2-11.776-3.554-21.048-10.286-25.438A17.977,17.977,0,0,0,76.968,4.312Z" transform="translate(-23.207 -1.266)" fill="#3a8ead"/>
                    </g>
                  </g>
                </g>
              </g>
              <g id="Group_56380" data-name="Group 56380" transform="translate(34.721 39.791)">
                <g id="Group_56379" data-name="Group 56379">
                  <path id="Path_132295" data-name="Path 132295" d="M43.441,59.346,28.781,49.37c-2.058-1.4-1.906-5.505.335-9.176h0c2.236-3.665,5.718-5.505,7.776-4.106l7.391,5.029L57.93,13.4c1.921-3.827,5.389-6.235,7.746-5.373h0c2.357.862,2.707,4.664.781,8.491L46.017,57.775C45.358,59.083,44.141,59.823,43.441,59.346Z" transform="translate(-27.331 -7.85)" fill="#42a7c6"/>
                </g>
              </g>
            </g>
          </g>
        </g>
        <g id="Group_56431" data-name="Group 56431" transform="translate(0 177.667)">
          <g id="Group_56384" data-name="Group 56384" transform="translate(141.256 103.678)">
            <ellipse id="Ellipse_11311" data-name="Ellipse 11311" cx="3.47" cy="2.004" rx="3.47" ry="2.004" fill="rgba(25,41,70,0.41)"/>
          </g>
          <g id="Group_56385" data-name="Group 56385" transform="translate(154.088 96.271)">
            <path id="Path_132296" data-name="Path 132296" d="M36.318,54.624c1.359.781,1.359,2.053,0,2.834a5.434,5.434,0,0,1-4.907,0c-1.354-.781-1.354-2.053,0-2.834A5.434,5.434,0,0,1,36.318,54.624Z" transform="translate(-30.396 -54.039)" fill="rgba(25,41,70,0.41)"/>
          </g>
          <g id="Group_56386" data-name="Group 56386" transform="translate(166.918 88.861)">
            <path id="Path_132297" data-name="Path 132297" d="M38.854,53.166c1.354.781,1.354,2.048-.005,2.834a5.434,5.434,0,0,1-4.907,0c-1.354-.786-1.354-2.053,0-2.834A5.413,5.413,0,0,1,38.854,53.166Z" transform="translate(-32.927 -52.577)" fill="rgba(25,41,70,0.41)"/>
          </g>
          <g id="Group_56387" data-name="Group 56387" transform="translate(179.75 81.453)">
            <path id="Path_132298" data-name="Path 132298" d="M41.384,51.7c1.354.786,1.354,2.053,0,2.834a5.4,5.4,0,0,1-4.907,0c-1.359-.781-1.359-2.048,0-2.834A5.434,5.434,0,0,1,41.384,51.7Z" transform="translate(-35.458 -51.116)" fill="rgba(25,41,70,0.41)"/>
          </g>
          <g id="Group_56388" data-name="Group 56388" transform="translate(192.58 74.047)">
            <path id="Path_132299" data-name="Path 132299" d="M43.915,50.24c1.354.781,1.354,2.053,0,2.834a5.433,5.433,0,0,1-4.907,0c-1.359-.781-1.359-2.053,0-2.834A5.434,5.434,0,0,1,43.915,50.24Z" transform="translate(-37.989 -49.654)" fill="rgba(25,41,70,0.41)"/>
          </g>
          <g id="Group_56389" data-name="Group 56389" transform="translate(205.413 66.637)">
            <ellipse id="Ellipse_11312" data-name="Ellipse 11312" cx="3.47" cy="2.004" rx="3.47" ry="2.004" fill="rgba(25,41,70,0.41)"/>
          </g>
          <g id="Group_56390" data-name="Group 56390" transform="translate(218.244 59.23)">
            <ellipse id="Ellipse_11313" data-name="Ellipse 11313" cx="3.47" cy="2.003" rx="3.47" ry="2.003" fill="rgba(25,41,70,0.41)"/>
          </g>
          <g id="Group_56391" data-name="Group 56391" transform="translate(231.076 51.819)">
            <path id="Path_132300" data-name="Path 132300" d="M51.505,45.859c1.359.781,1.359,2.048,0,2.834a5.434,5.434,0,0,1-4.907,0c-1.354-.786-1.354-2.053,0-2.834A5.4,5.4,0,0,1,51.505,45.859Z" transform="translate(-45.583 -45.27)" fill="rgba(25,41,70,0.41)"/>
          </g>
          <g id="Group_56392" data-name="Group 56392" transform="translate(243.907 44.413)">
            <ellipse id="Ellipse_11314" data-name="Ellipse 11314" cx="3.47" cy="2.003" rx="3.47" ry="2.003" fill="rgba(25,41,70,0.41)"/>
          </g>
          <g id="Group_56393" data-name="Group 56393" transform="translate(256.738 37.006)">
            <path id="Path_132301" data-name="Path 132301" d="M56.571,42.933c1.354.781,1.354,2.053,0,2.834a5.434,5.434,0,0,1-4.907,0c-1.359-.781-1.359-2.053,0-2.834A5.433,5.433,0,0,1,56.571,42.933Z" transform="translate(-50.645 -42.347)" fill="rgba(25,41,70,0.41)"/>
          </g>
          <g id="Group_56394" data-name="Group 56394" transform="translate(269.568 29.595)">
            <path id="Path_132302" data-name="Path 132302" d="M59.1,41.475c1.353.781,1.353,2.048,0,2.834a5.434,5.434,0,0,1-4.907,0c-1.359-.786-1.359-2.053,0-2.834A5.4,5.4,0,0,1,59.1,41.475Z" transform="translate(-53.176 -40.886)" fill="rgba(25,41,70,0.41)"/>
          </g>
          <g id="Group_56395" data-name="Group 56395" transform="translate(282.403 22.188)">
            <path id="Path_132303" data-name="Path 132303" d="M61.63,40.01c1.354.786,1.354,2.053,0,2.834a5.4,5.4,0,0,1-4.907,0c-1.354-.781-1.354-2.048,0-2.834A5.434,5.434,0,0,1,61.63,40.01Z" transform="translate(-55.708 -39.425)" fill="rgba(25,41,70,0.41)"/>
          </g>
          <g id="Group_56396" data-name="Group 56396" transform="translate(115.592 103.677)">
            <path id="Path_132304" data-name="Path 132304" d="M28.728,56.085c1.354.786,1.354,2.053,0,2.834a5.4,5.4,0,0,1-4.907,0c-1.359-.781-1.359-2.048,0-2.834A5.433,5.433,0,0,1,28.728,56.085Z" transform="translate(-22.802 -55.499)" fill="rgba(25,41,70,0.41)"/>
          </g>
          <g id="Group_56397" data-name="Group 56397" transform="translate(128.425 96.27)">
            <ellipse id="Ellipse_11315" data-name="Ellipse 11315" cx="3.47" cy="2.004" rx="3.47" ry="2.004" fill="rgba(25,41,70,0.41)"/>
          </g>
          <g id="Group_56398" data-name="Group 56398" transform="translate(141.256 88.862)">
            <ellipse id="Ellipse_11316" data-name="Ellipse 11316" cx="3.47" cy="2.003" rx="3.47" ry="2.003" fill="rgba(25,41,70,0.41)"/>
          </g>
          <g id="Group_56399" data-name="Group 56399" transform="translate(154.088 81.453)">
            <path id="Path_132305" data-name="Path 132305" d="M36.318,51.7c1.359.786,1.359,2.053,0,2.834a5.4,5.4,0,0,1-4.907,0c-1.354-.781-1.354-2.048,0-2.834A5.434,5.434,0,0,1,36.318,51.7Z" transform="translate(-30.396 -51.116)" fill="rgba(25,41,70,0.41)"/>
          </g>
          <g id="Group_56400" data-name="Group 56400" transform="translate(166.919 74.046)">
            <ellipse id="Ellipse_11317" data-name="Ellipse 11317" cx="3.47" cy="2.003" rx="3.47" ry="2.003" fill="rgba(25,41,70,0.41)"/>
          </g>
          <g id="Group_56401" data-name="Group 56401" transform="translate(179.75 66.637)">
            <path id="Path_132306" data-name="Path 132306" d="M41.384,48.782c1.354.781,1.354,2.048,0,2.834a5.433,5.433,0,0,1-4.907,0c-1.359-.786-1.359-2.053,0-2.834A5.4,5.4,0,0,1,41.384,48.782Z" transform="translate(-35.458 -48.193)" fill="rgba(25,41,70,0.41)"/>
          </g>
          <g id="Group_56402" data-name="Group 56402" transform="translate(192.58 59.229)">
            <path id="Path_132307" data-name="Path 132307" d="M43.915,47.317c1.354.786,1.354,2.053,0,2.834a5.433,5.433,0,0,1-4.907,0c-1.359-.781-1.359-2.048,0-2.834A5.434,5.434,0,0,1,43.915,47.317Z" transform="translate(-37.989 -46.732)" fill="rgba(25,41,70,0.41)"/>
          </g>
          <g id="Group_56403" data-name="Group 56403" transform="translate(205.415 51.819)">
            <path id="Path_132308" data-name="Path 132308" d="M46.443,45.859c1.354.781,1.354,2.048,0,2.834a5.434,5.434,0,0,1-4.907,0c-1.354-.786-1.354-2.053,0-2.834A5.4,5.4,0,0,1,46.443,45.859Z" transform="translate(-40.521 -45.27)" fill="rgba(25,41,70,0.41)"/>
          </g>
          <g id="Group_56404" data-name="Group 56404" transform="translate(218.245 44.412)">
            <path id="Path_132309" data-name="Path 132309" d="M48.974,44.394c1.359.786,1.359,2.053,0,2.834a5.4,5.4,0,0,1-4.907,0c-1.354-.781-1.354-2.048,0-2.834A5.434,5.434,0,0,1,48.974,44.394Z" transform="translate(-43.052 -43.809)" fill="rgba(25,41,70,0.41)"/>
          </g>
          <g id="Group_56405" data-name="Group 56405" transform="translate(231.076 37.006)">
            <path id="Path_132310" data-name="Path 132310" d="M51.505,42.933c1.359.781,1.359,2.053,0,2.834a5.434,5.434,0,0,1-4.907,0c-1.354-.781-1.354-2.053,0-2.834A5.433,5.433,0,0,1,51.505,42.933Z" transform="translate(-45.583 -42.347)" fill="rgba(25,41,70,0.41)"/>
          </g>
          <g id="Group_56406" data-name="Group 56406" transform="translate(243.907 29.597)">
            <ellipse id="Ellipse_11318" data-name="Ellipse 11318" cx="3.47" cy="2.004" rx="3.47" ry="2.004" fill="rgba(25,41,70,0.41)"/>
          </g>
          <g id="Group_56407" data-name="Group 56407" transform="translate(256.738 22.188)">
            <path id="Path_132311" data-name="Path 132311" d="M56.571,40.01c1.354.786,1.354,2.053,0,2.834a5.4,5.4,0,0,1-4.907,0c-1.359-.781-1.359-2.048,0-2.834A5.434,5.434,0,0,1,56.571,40.01Z" transform="translate(-50.645 -39.425)" fill="rgba(25,41,70,0.41)"/>
          </g>
          <g id="Group_56408" data-name="Group 56408" transform="translate(269.57 14.78)">
            <ellipse id="Ellipse_11319" data-name="Ellipse 11319" cx="3.47" cy="2.004" rx="3.47" ry="2.004" fill="rgba(25,41,70,0.41)"/>
          </g>
          <g id="Group_56409" data-name="Group 56409" transform="translate(102.762 96.271)">
            <path id="Path_132312" data-name="Path 132312" d="M26.2,54.624c1.354.781,1.354,2.053,0,2.834a5.434,5.434,0,0,1-4.907,0c-1.359-.781-1.359-2.053,0-2.834A5.434,5.434,0,0,1,26.2,54.624Z" transform="translate(-20.271 -54.039)" fill="rgba(25,41,70,0.41)"/>
          </g>
          <g id="Group_56410" data-name="Group 56410" transform="translate(115.592 88.861)">
            <path id="Path_132313" data-name="Path 132313" d="M28.728,53.166c1.354.781,1.354,2.048,0,2.834a5.434,5.434,0,0,1-4.907,0c-1.359-.786-1.359-2.053,0-2.834A5.4,5.4,0,0,1,28.728,53.166Z" transform="translate(-22.802 -52.577)" fill="rgba(25,41,70,0.41)"/>
          </g>
          <g id="Group_56411" data-name="Group 56411" transform="translate(89.93 88.861)">
            <path id="Path_132314" data-name="Path 132314" d="M23.667,53.166c1.354.781,1.354,2.048,0,2.834a5.444,5.444,0,0,1-4.912,0c-1.354-.786-1.354-2.053,0-2.834A5.413,5.413,0,0,1,23.667,53.166Z" transform="translate(-17.74 -52.577)" fill="rgba(25,41,70,0.41)"/>
          </g>
          <g id="Group_56412" data-name="Group 56412" transform="translate(102.762 81.453)">
            <path id="Path_132315" data-name="Path 132315" d="M26.2,51.7c1.354.786,1.354,2.053,0,2.834a5.4,5.4,0,0,1-4.907,0c-1.359-.781-1.359-2.048,0-2.834A5.434,5.434,0,0,1,26.2,51.7Z" transform="translate(-20.271 -51.116)" fill="rgba(25,41,70,0.41)"/>
          </g>
          <g id="Group_56413" data-name="Group 56413" transform="translate(77.1 81.453)">
            <path id="Path_132316" data-name="Path 132316" d="M21.131,51.7c1.359.786,1.359,2.053,0,2.834a5.4,5.4,0,0,1-4.907,0c-1.354-.781-1.354-2.048,0-2.834A5.434,5.434,0,0,1,21.131,51.7Z" transform="translate(-15.209 -51.116)" fill="rgba(25,41,70,0.41)"/>
          </g>
          <g id="Group_56414" data-name="Group 56414" transform="translate(89.93 74.047)">
            <path id="Path_132317" data-name="Path 132317" d="M23.667,50.24c1.354.781,1.354,2.053,0,2.834a5.444,5.444,0,0,1-4.912,0c-1.354-.781-1.354-2.053,0-2.834A5.444,5.444,0,0,1,23.667,50.24Z" transform="translate(-17.74 -49.654)" fill="rgba(25,41,70,0.41)"/>
          </g>
          <g id="Group_56415" data-name="Group 56415" transform="translate(64.158 73.967)">
            <path id="Path_132318" data-name="Path 132318" d="M18.578,50.228c1.359.781,1.359,2.048,0,2.834a5.434,5.434,0,0,1-4.907,0c-1.354-.786-1.354-2.053,0-2.834A5.4,5.4,0,0,1,18.578,50.228Z" transform="translate(-12.656 -49.639)" fill="rgba(25,41,70,0.41)"/>
          </g>
          <g id="Group_56416" data-name="Group 56416" transform="translate(76.988 66.56)">
            <path id="Path_132319" data-name="Path 132319" d="M21.109,48.763c1.359.786,1.359,2.053,0,2.834a5.4,5.4,0,0,1-4.907,0c-1.354-.781-1.354-2.048,0-2.834A5.434,5.434,0,0,1,21.109,48.763Z" transform="translate(-15.187 -48.178)" fill="rgba(25,41,70,0.41)"/>
          </g>
          <g id="Group_56417" data-name="Group 56417" transform="translate(51.326 66.56)">
            <ellipse id="Ellipse_11320" data-name="Ellipse 11320" cx="3.47" cy="2.004" rx="3.47" ry="2.004" fill="rgba(25,41,70,0.41)"/>
          </g>
          <g id="Group_56418" data-name="Group 56418" transform="translate(64.158 59.153)">
            <path id="Path_132320" data-name="Path 132320" d="M18.578,47.3c1.359.781,1.359,2.048,0,2.834a5.434,5.434,0,0,1-4.907,0c-1.354-.786-1.354-2.053,0-2.834A5.433,5.433,0,0,1,18.578,47.3Z" transform="translate(-12.656 -46.717)" fill="rgba(25,41,70,0.41)"/>
          </g>
          <g id="Group_56419" data-name="Group 56419" transform="translate(38.497 59.153)">
            <path id="Path_132321" data-name="Path 132321" d="M13.516,47.3c1.354.781,1.354,2.048,0,2.834a5.434,5.434,0,0,1-4.907,0c-1.354-.786-1.354-2.053,0-2.834A5.433,5.433,0,0,1,13.516,47.3Z" transform="translate(-7.594 -46.717)" fill="rgba(25,41,70,0.41)"/>
          </g>
          <g id="Group_56420" data-name="Group 56420" transform="translate(51.327 51.743)">
            <path id="Path_132322" data-name="Path 132322" d="M16.047,45.844c1.354.781,1.354,2.048,0,2.829a5.4,5.4,0,0,1-4.907,0c-1.354-.781-1.354-2.048,0-2.829A5.4,5.4,0,0,1,16.047,45.844Z" transform="translate(-10.125 -45.255)" fill="rgba(25,41,70,0.41)"/>
          </g>
          <g id="Group_56421" data-name="Group 56421" transform="translate(25.662 51.743)">
            <path id="Path_132323" data-name="Path 132323" d="M10.988,45.844c1.354.781,1.354,2.048,0,2.829a5.4,5.4,0,0,1-4.907,0c-1.359-.781-1.359-2.048,0-2.829A5.4,5.4,0,0,1,10.988,45.844Z" transform="translate(-5.062 -45.255)" fill="rgba(25,41,70,0.41)"/>
          </g>
          <g id="Group_56422" data-name="Group 56422" transform="translate(38.495 44.335)">
            <ellipse id="Ellipse_11321" data-name="Ellipse 11321" cx="3.47" cy="2.004" rx="3.47" ry="2.004" fill="rgba(25,41,70,0.41)"/>
          </g>
          <g id="Group_56423" data-name="Group 56423" transform="translate(12.832 44.336)">
            <path id="Path_132324" data-name="Path 132324" d="M8.457,44.379c1.354.786,1.354,2.053,0,2.834a5.433,5.433,0,0,1-4.907,0c-1.359-.781-1.359-2.048,0-2.834A5.433,5.433,0,0,1,8.457,44.379Z" transform="translate(-2.531 -43.793)" fill="rgba(25,41,70,0.41)"/>
          </g>
          <g id="Group_56424" data-name="Group 56424" transform="translate(25.662 36.926)">
            <path id="Path_132325" data-name="Path 132325" d="M10.988,42.921c1.354.781,1.354,2.048,0,2.834a5.434,5.434,0,0,1-4.907,0c-1.359-.786-1.359-2.053,0-2.834A5.4,5.4,0,0,1,10.988,42.921Z" transform="translate(-5.062 -42.332)" fill="rgba(25,41,70,0.41)"/>
          </g>
          <g id="Group_56425" data-name="Group 56425" transform="translate(0.001 36.928)">
            <ellipse id="Ellipse_11322" data-name="Ellipse 11322" cx="3.47" cy="2.004" rx="3.47" ry="2.004" transform="translate(0)" fill="rgba(25,41,70,0.41)"/>
          </g>
          <g id="Group_56426" data-name="Group 56426" transform="translate(12.832 29.518)">
            <path id="Path_132326" data-name="Path 132326" d="M8.457,41.456c1.354.786,1.354,2.053,0,2.834a5.4,5.4,0,0,1-4.907,0c-1.359-.781-1.359-2.048,0-2.834A5.434,5.434,0,0,1,8.457,41.456Z" transform="translate(-2.531 -40.871)" fill="rgba(25,41,70,0.41)"/>
          </g>
          <g id="Group_56427" data-name="Group 56427" transform="translate(0 22.112)">
            <path id="Path_132327" data-name="Path 132327" d="M5.927,40c1.354.781,1.354,2.053,0,2.834a5.444,5.444,0,0,1-4.912,0c-1.354-.781-1.354-2.053,0-2.834A5.444,5.444,0,0,1,5.927,40Z" transform="translate(0 -39.41)" fill="rgba(25,41,70,0.41)"/>
          </g>
          <g id="Group_56428" data-name="Group 56428" transform="translate(282.492 7.442)">
            <path id="Path_132328" data-name="Path 132328" d="M56.737,37.106a5.418,5.418,0,0,1,4.907-.005c1.359.781,1.364,2.048.01,2.834a5.433,5.433,0,0,1-4.907.005C55.389,39.159,55.384,37.886,56.737,37.106Z" transform="translate(-55.725 -36.516)" fill="rgba(25,41,70,0.41)"/>
          </g>
          <g id="Group_56429" data-name="Group 56429" transform="translate(295.324 14.746)">
            <path id="Path_132329" data-name="Path 132329" d="M64.179,38.542c1.359.786,1.359,2.053,0,2.834a5.4,5.4,0,0,1-4.907,0c-1.354-.781-1.354-2.048,0-2.834A5.433,5.433,0,0,1,64.179,38.542Z" transform="translate(-58.257 -37.957)" fill="rgba(25,41,70,0.41)"/>
          </g>
          <g id="Group_56430" data-name="Group 56430" transform="translate(295.416)">
            <path id="Path_132330" data-name="Path 132330" d="M59.285,35.638a5.428,5.428,0,0,1,4.912-.005c1.353.781,1.359,2.048.005,2.834a5.434,5.434,0,0,1-4.907.005C57.936,37.691,57.936,36.423,59.285,35.638Z" transform="translate(-58.275 -35.048)" fill="rgba(25,41,70,0.41)"/>
          </g>
        </g>
      </g>
    </g>
    <g id="Artwork_1" data-name="Artwork 1" transform="translate(1099.609 522.754)">
      <g id="Group_56337" data-name="Group 56337" transform="translate(-28.609 -35.297)">
        <g id="Group_56315" data-name="Group 56315" transform="translate(0 130.422)">
          <g id="Group_56235" data-name="Group 56235" transform="translate(89.119 65.483)">
            <path id="Path_132210" data-name="Path 132210" d="M31.6,61.625a.943.943,0,0,1,0,1.788,3.428,3.428,0,0,1-3.1,0,.944.944,0,0,1,0-1.788A3.408,3.408,0,0,1,31.6,61.625Z" transform="translate(-27.865 -61.253)" fill="rgba(25,41,70,0.41)" stroke="rgba(0,0,0,0)" stroke-width="1"/>
          </g>
          <g id="Group_56236" data-name="Group 56236" transform="translate(97.214 60.809)">
            <path id="Path_132211" data-name="Path 132211" d="M34.132,60.161a.943.943,0,0,1,0,1.788,3.408,3.408,0,0,1-3.1,0,.944.944,0,0,1,0-1.788A3.428,3.428,0,0,1,34.132,60.161Z" transform="translate(-30.396 -59.792)" fill="rgba(25,41,70,0.41)" stroke="rgba(0,0,0,0)" stroke-width="1"/>
          </g>
          <g id="Group_56237" data-name="Group 56237" transform="translate(105.309 56.136)">
            <path id="Path_132212" data-name="Path 132212" d="M36.666,58.7a.944.944,0,0,1,0,1.788,3.435,3.435,0,0,1-3.1,0,.944.944,0,0,1,0-1.788A3.435,3.435,0,0,1,36.666,58.7Z" transform="translate(-32.927 -58.331)" fill="rgba(25,41,70,0.41)" stroke="rgba(0,0,0,0)" stroke-width="1"/>
          </g>
          <g id="Group_56238" data-name="Group 56238" transform="translate(81.024 60.81)">
            <ellipse id="Ellipse_11277" data-name="Ellipse 11277" cx="2.189" cy="1.264" rx="2.189" ry="1.264" fill="rgba(25,41,70,0.41)" stroke="rgba(0,0,0,0)" stroke-width="1"/>
          </g>
          <g id="Group_56239" data-name="Group 56239" transform="translate(89.119 56.136)">
            <path id="Path_132213" data-name="Path 132213" d="M31.6,58.7a.943.943,0,0,1,0,1.788,3.428,3.428,0,0,1-3.1,0,.944.944,0,0,1,0-1.788A3.428,3.428,0,0,1,31.6,58.7Z" transform="translate(-27.865 -58.331)" fill="rgba(25,41,70,0.41)" stroke="rgba(0,0,0,0)" stroke-width="1"/>
          </g>
          <g id="Group_56240" data-name="Group 56240" transform="translate(97.214 51.462)">
            <ellipse id="Ellipse_11278" data-name="Ellipse 11278" cx="2.189" cy="1.264" rx="2.189" ry="1.264" fill="rgba(25,41,70,0.41)" stroke="rgba(0,0,0,0)" stroke-width="1"/>
          </g>
          <g id="Group_56241" data-name="Group 56241" transform="translate(72.928 56.136)">
            <ellipse id="Ellipse_11279" data-name="Ellipse 11279" cx="2.189" cy="1.264" rx="2.189" ry="1.264" fill="rgba(25,41,70,0.41)" stroke="rgba(0,0,0,0)" stroke-width="1"/>
          </g>
          <g id="Group_56242" data-name="Group 56242" transform="translate(81.025 51.461)">
            <path id="Path_132214" data-name="Path 132214" d="M29.07,57.241a.944.944,0,0,1,0,1.788,3.428,3.428,0,0,1-3.1,0,.944.944,0,0,1,0-1.788A3.408,3.408,0,0,1,29.07,57.241Z" transform="translate(-25.334 -56.869)" fill="rgba(25,41,70,0.41)" stroke="rgba(0,0,0,0)" stroke-width="1"/>
          </g>
          <g id="Group_56243" data-name="Group 56243" transform="translate(89.119 46.788)">
            <path id="Path_132215" data-name="Path 132215" d="M31.6,55.777a.943.943,0,0,1,0,1.788,3.408,3.408,0,0,1-3.1,0,.944.944,0,0,1,0-1.788A3.428,3.428,0,0,1,31.6,55.777Z" transform="translate(-27.865 -55.408)" fill="rgba(25,41,70,0.41)" stroke="rgba(0,0,0,0)" stroke-width="1"/>
          </g>
          <g id="Group_56244" data-name="Group 56244" transform="translate(48.642 60.809)">
            <path id="Path_132216" data-name="Path 132216" d="M18.945,60.161a.943.943,0,0,1,0,1.788,3.408,3.408,0,0,1-3.1,0,.944.944,0,0,1,0-1.788A3.428,3.428,0,0,1,18.945,60.161Z" transform="translate(-15.209 -59.792)" fill="rgba(25,41,70,0.41)" stroke="rgba(0,0,0,0)" stroke-width="1"/>
          </g>
          <g id="Group_56245" data-name="Group 56245" transform="translate(56.737 56.136)">
            <ellipse id="Ellipse_11280" data-name="Ellipse 11280" cx="2.189" cy="1.264" rx="2.189" ry="1.264" fill="rgba(25,41,70,0.41)" stroke="rgba(0,0,0,0)" stroke-width="1"/>
          </g>
          <g id="Group_56246" data-name="Group 56246" transform="translate(64.833 51.462)">
            <ellipse id="Ellipse_11281" data-name="Ellipse 11281" cx="2.189" cy="1.264" rx="2.189" ry="1.264" fill="rgba(25,41,70,0.41)" stroke="rgba(0,0,0,0)" stroke-width="1"/>
          </g>
          <g id="Group_56247" data-name="Group 56247" transform="translate(72.929 46.788)">
            <ellipse id="Ellipse_11282" data-name="Ellipse 11282" cx="2.189" cy="1.264" rx="2.189" ry="1.264" fill="rgba(25,41,70,0.41)" stroke="rgba(0,0,0,0)" stroke-width="1"/>
          </g>
          <g id="Group_56248" data-name="Group 56248" transform="translate(81.024 42.114)">
            <ellipse id="Ellipse_11283" data-name="Ellipse 11283" cx="2.189" cy="1.264" rx="2.189" ry="1.264" fill="rgba(25,41,70,0.41)" stroke="rgba(0,0,0,0)" stroke-width="1"/>
          </g>
          <g id="Group_56249" data-name="Group 56249" transform="translate(32.451 60.81)">
            <ellipse id="Ellipse_11284" data-name="Ellipse 11284" cx="2.189" cy="1.264" rx="2.189" ry="1.264" fill="rgba(25,41,70,0.41)" stroke="rgba(0,0,0,0)" stroke-width="1"/>
          </g>
          <g id="Group_56250" data-name="Group 56250" transform="translate(40.547 56.136)">
            <ellipse id="Ellipse_11285" data-name="Ellipse 11285" cx="2.189" cy="1.264" rx="2.189" ry="1.264" fill="rgba(25,41,70,0.41)" stroke="rgba(0,0,0,0)" stroke-width="1"/>
          </g>
          <g id="Group_56251" data-name="Group 56251" transform="translate(48.642 51.461)">
            <path id="Path_132217" data-name="Path 132217" d="M18.945,57.241a.943.943,0,0,1,0,1.788,3.428,3.428,0,0,1-3.1,0,.944.944,0,0,1,0-1.788A3.408,3.408,0,0,1,18.945,57.241Z" transform="translate(-15.209 -56.869)" fill="rgba(25,41,70,0.41)" stroke="rgba(0,0,0,0)" stroke-width="1"/>
          </g>
          <g id="Group_56252" data-name="Group 56252" transform="translate(56.737 46.788)">
            <path id="Path_132218" data-name="Path 132218" d="M21.479,55.777a.944.944,0,0,1,0,1.788,3.415,3.415,0,0,1-3.1,0,.944.944,0,0,1,0-1.788A3.428,3.428,0,0,1,21.479,55.777Z" transform="translate(-17.74 -55.408)" fill="rgba(25,41,70,0.41)" stroke="rgba(0,0,0,0)" stroke-width="1"/>
          </g>
          <g id="Group_56253" data-name="Group 56253" transform="translate(64.832 42.115)">
            <path id="Path_132219" data-name="Path 132219" d="M24.01,54.316a.944.944,0,0,1,0,1.788,3.428,3.428,0,0,1-3.1,0,.943.943,0,0,1,0-1.788A3.428,3.428,0,0,1,24.01,54.316Z" transform="translate(-20.271 -53.946)" fill="rgba(25,41,70,0.41)" stroke="rgba(0,0,0,0)" stroke-width="1"/>
          </g>
          <g id="Group_56254" data-name="Group 56254" transform="translate(72.93 37.44)">
            <path id="Path_132220" data-name="Path 132220" d="M26.539,52.857a.944.944,0,0,1,0,1.788,3.428,3.428,0,0,1-3.1,0,.944.944,0,0,1,0-1.788A3.408,3.408,0,0,1,26.539,52.857Z" transform="translate(-22.803 -52.485)" fill="rgba(25,41,70,0.41)" stroke="rgba(0,0,0,0)" stroke-width="1"/>
          </g>
          <g id="Group_56255" data-name="Group 56255" transform="translate(24.286 56.087)">
            <ellipse id="Ellipse_11286" data-name="Ellipse 11286" cx="2.189" cy="1.264" rx="2.189" ry="1.264" fill="rgba(25,41,70,0.41)" stroke="rgba(0,0,0,0)" stroke-width="1"/>
          </g>
          <g id="Group_56256" data-name="Group 56256" transform="translate(32.381 51.413)">
            <ellipse id="Ellipse_11287" data-name="Ellipse 11287" cx="2.189" cy="1.264" rx="2.189" ry="1.264" fill="rgba(25,41,70,0.41)" stroke="rgba(0,0,0,0)" stroke-width="1"/>
          </g>
          <g id="Group_56257" data-name="Group 56257" transform="translate(40.477 46.739)">
            <ellipse id="Ellipse_11288" data-name="Ellipse 11288" cx="2.189" cy="1.264" rx="2.189" ry="1.264" fill="rgba(25,41,70,0.41)" stroke="rgba(0,0,0,0)" stroke-width="1"/>
          </g>
          <g id="Group_56258" data-name="Group 56258" transform="translate(48.572 42.065)">
            <path id="Path_132221" data-name="Path 132221" d="M18.923,54.3a.943.943,0,0,1,0,1.788,3.428,3.428,0,0,1-3.1,0,.944.944,0,0,1,0-1.788A3.408,3.408,0,0,1,18.923,54.3Z" transform="translate(-15.187 -53.931)" fill="rgba(25,41,70,0.41)" stroke="rgba(0,0,0,0)" stroke-width="1"/>
          </g>
          <g id="Group_56259" data-name="Group 56259" transform="translate(56.667 37.391)">
            <path id="Path_132222" data-name="Path 132222" d="M21.457,52.839a.944.944,0,0,1,0,1.788,3.408,3.408,0,0,1-3.1,0,.943.943,0,0,1,0-1.788A3.428,3.428,0,0,1,21.457,52.839Z" transform="translate(-17.718 -52.47)" fill="rgba(25,41,70,0.41)" stroke="rgba(0,0,0,0)" stroke-width="1"/>
          </g>
          <g id="Group_56260" data-name="Group 56260" transform="translate(64.762 32.718)">
            <path id="Path_132223" data-name="Path 132223" d="M23.988,51.378a.944.944,0,0,1,0,1.788,3.428,3.428,0,0,1-3.1,0,.943.943,0,0,1,0-1.788A3.428,3.428,0,0,1,23.988,51.378Z" transform="translate(-20.249 -51.008)" fill="rgba(25,41,70,0.41)" stroke="rgba(0,0,0,0)" stroke-width="1"/>
          </g>
          <g id="Group_56261" data-name="Group 56261" transform="translate(24.286 46.739)">
            <ellipse id="Ellipse_11289" data-name="Ellipse 11289" cx="2.189" cy="1.264" rx="2.189" ry="1.264" fill="rgba(25,41,70,0.41)" stroke="rgba(0,0,0,0)" stroke-width="1"/>
          </g>
          <g id="Group_56262" data-name="Group 56262" transform="translate(32.382 42.065)">
            <path id="Path_132224" data-name="Path 132224" d="M13.861,54.3a.943.943,0,0,1,0,1.788,3.428,3.428,0,0,1-3.1,0,.944.944,0,0,1,0-1.788A3.408,3.408,0,0,1,13.861,54.3Z" transform="translate(-10.125 -53.931)" fill="rgba(25,41,70,0.41)" stroke="rgba(0,0,0,0)" stroke-width="1"/>
          </g>
          <g id="Group_56263" data-name="Group 56263" transform="translate(24.286 37.391)">
            <ellipse id="Ellipse_11290" data-name="Ellipse 11290" cx="2.189" cy="1.264" rx="2.189" ry="1.264" fill="rgba(25,41,70,0.41)" stroke="rgba(0,0,0,0)" stroke-width="1"/>
          </g>
          <g id="Group_56264" data-name="Group 56264" transform="translate(32.382 32.718)">
            <path id="Path_132225" data-name="Path 132225" d="M13.861,51.378a.943.943,0,0,1,0,1.788,3.428,3.428,0,0,1-3.1,0,.944.944,0,0,1,0-1.788A3.428,3.428,0,0,1,13.861,51.378Z" transform="translate(-10.125 -51.008)" fill="rgba(25,41,70,0.41)" stroke="rgba(0,0,0,0)" stroke-width="1"/>
          </g>
          <g id="Group_56265" data-name="Group 56265" transform="translate(24.286 28.044)">
            <ellipse id="Ellipse_11291" data-name="Ellipse 11291" cx="2.189" cy="1.264" rx="2.189" ry="1.264" fill="rgba(25,41,70,0.41)" stroke="rgba(0,0,0,0)" stroke-width="1"/>
          </g>
          <g id="Group_56266" data-name="Group 56266" transform="translate(32.382 23.37)">
            <ellipse id="Ellipse_11292" data-name="Ellipse 11292" cx="2.189" cy="1.264" rx="2.189" ry="1.264" fill="rgba(25,41,70,0.41)" stroke="rgba(0,0,0,0)" stroke-width="1"/>
          </g>
          <g id="Group_56267" data-name="Group 56267" transform="translate(16.191 23.37)">
            <ellipse id="Ellipse_11293" data-name="Ellipse 11293" cx="2.189" cy="1.264" rx="2.189" ry="1.264" fill="rgba(25,41,70,0.41)" stroke="rgba(0,0,0,0)" stroke-width="1"/>
          </g>
          <g id="Group_56268" data-name="Group 56268" transform="translate(24.287 18.695)">
            <path id="Path_132226" data-name="Path 132226" d="M11.33,47a.944.944,0,0,1,0,1.788,3.428,3.428,0,0,1-3.1,0,.944.944,0,0,1,0-1.788A3.408,3.408,0,0,1,11.33,47Z" transform="translate(-7.594 -46.624)" fill="rgba(25,41,70,0.41)" stroke="rgba(0,0,0,0)" stroke-width="1"/>
          </g>
          <g id="Group_56269" data-name="Group 56269" transform="translate(32.382 14.022)">
            <ellipse id="Ellipse_11294" data-name="Ellipse 11294" cx="2.189" cy="1.264" rx="2.189" ry="1.264" fill="rgba(25,41,70,0.41)" stroke="rgba(0,0,0,0)" stroke-width="1"/>
          </g>
          <g id="Group_56270" data-name="Group 56270" transform="translate(8.095 18.696)">
            <ellipse id="Ellipse_11295" data-name="Ellipse 11295" cx="2.189" cy="1.264" rx="2.189" ry="1.264" fill="rgba(25,41,70,0.41)" stroke="rgba(0,0,0,0)" stroke-width="1"/>
          </g>
          <g id="Group_56271" data-name="Group 56271" transform="translate(16.191 14.022)">
            <ellipse id="Ellipse_11296" data-name="Ellipse 11296" cx="2.189" cy="1.264" rx="2.189" ry="1.264" fill="rgba(25,41,70,0.41)" stroke="rgba(0,0,0,0)" stroke-width="1"/>
          </g>
          <g id="Group_56272" data-name="Group 56272" transform="translate(24.286 9.348)">
            <ellipse id="Ellipse_11297" data-name="Ellipse 11297" cx="2.189" cy="1.264" rx="2.189" ry="1.264" fill="rgba(25,41,70,0.41)" stroke="rgba(0,0,0,0)" stroke-width="1"/>
          </g>
          <g id="Group_56273" data-name="Group 56273" transform="translate(0 14.021)">
            <path id="Path_132227" data-name="Path 132227" d="M3.739,45.532a.944.944,0,0,1,0,1.788,3.408,3.408,0,0,1-3.1,0,.943.943,0,0,1,0-1.788A3.428,3.428,0,0,1,3.739,45.532Z" transform="translate(0 -45.163)" fill="rgba(25,41,70,0.41)" stroke="rgba(0,0,0,0)" stroke-width="1"/>
          </g>
          <g id="Group_56274" data-name="Group 56274" transform="translate(8.095 9.349)">
            <path id="Path_132228" data-name="Path 132228" d="M6.27,44.071a.944.944,0,0,1,0,1.788,3.428,3.428,0,0,1-3.1,0,.943.943,0,0,1,0-1.788A3.428,3.428,0,0,1,6.27,44.071Z" transform="translate(-2.531 -43.701)" fill="rgba(25,41,70,0.41)" stroke="rgba(0,0,0,0)" stroke-width="1"/>
          </g>
          <g id="Group_56275" data-name="Group 56275" transform="translate(16.191 4.674)">
            <ellipse id="Ellipse_11298" data-name="Ellipse 11298" cx="2.189" cy="1.264" rx="2.189" ry="1.264" fill="rgba(25,41,70,0.41)" stroke="rgba(0,0,0,0)" stroke-width="1"/>
          </g>
          <g id="Group_56276" data-name="Group 56276" transform="translate(0 4.673)">
            <path id="Path_132229" data-name="Path 132229" d="M3.739,42.612a.944.944,0,0,1,0,1.788,3.428,3.428,0,0,1-3.1,0,.943.943,0,0,1,0-1.788A3.408,3.408,0,0,1,3.739,42.612Z" transform="translate(0 -42.24)" fill="rgba(25,41,70,0.41)" stroke="rgba(0,0,0,0)" stroke-width="1"/>
          </g>
          <g id="Group_56277" data-name="Group 56277" transform="translate(8.095)">
            <path id="Path_132230" data-name="Path 132230" d="M6.27,41.148a.944.944,0,0,1,0,1.788,3.408,3.408,0,0,1-3.1,0,.943.943,0,0,1,0-1.788A3.428,3.428,0,0,1,6.27,41.148Z" transform="translate(-2.531 -40.778)" fill="rgba(25,41,70,0.41)" stroke="rgba(0,0,0,0)" stroke-width="1"/>
          </g>
          <g id="Group_56278" data-name="Group 56278" transform="translate(154.269 92.828)">
            <ellipse id="Ellipse_11299" data-name="Ellipse 11299" cx="2.189" cy="1.264" rx="2.189" ry="1.264" fill="rgba(25,41,70,0.41)" stroke="rgba(0,0,0,0)" stroke-width="1"/>
          </g>
          <g id="Group_56279" data-name="Group 56279" transform="translate(162.364 88.154)">
            <path id="Path_132231" data-name="Path 132231" d="M54.5,68.711a.944.944,0,0,1,0,1.788,3.428,3.428,0,0,1-3.1,0,.943.943,0,0,1,0-1.788A3.428,3.428,0,0,1,54.5,68.711Z" transform="translate(-50.766 -68.342)" fill="rgba(25,41,70,0.41)" stroke="rgba(0,0,0,0)" stroke-width="1"/>
          </g>
          <g id="Group_56280" data-name="Group 56280" transform="translate(138.078 92.828)">
            <ellipse id="Ellipse_11300" data-name="Ellipse 11300" cx="2.189" cy="1.264" rx="2.189" ry="1.264" fill="rgba(25,41,70,0.41)" stroke="rgba(0,0,0,0)" stroke-width="1"/>
          </g>
          <g id="Group_56281" data-name="Group 56281" transform="translate(146.174 88.154)">
            <ellipse id="Ellipse_11301" data-name="Ellipse 11301" cx="2.189" cy="1.264" rx="2.189" ry="1.264" fill="rgba(25,41,70,0.41)" stroke="rgba(0,0,0,0)" stroke-width="1"/>
          </g>
          <g id="Group_56282" data-name="Group 56282" transform="translate(154.269 83.48)">
            <ellipse id="Ellipse_11302" data-name="Ellipse 11302" cx="2.189" cy="1.264" rx="2.189" ry="1.264" fill="rgba(25,41,70,0.41)" stroke="rgba(0,0,0,0)" stroke-width="1"/>
          </g>
          <g id="Group_56283" data-name="Group 56283" transform="translate(129.984 88.154)">
            <path id="Path_132232" data-name="Path 132232" d="M44.378,68.711a.944.944,0,0,1,0,1.788,3.428,3.428,0,0,1-3.1,0,.944.944,0,0,1,0-1.788A3.428,3.428,0,0,1,44.378,68.711Z" transform="translate(-40.642 -68.342)" fill="rgba(25,41,70,0.41)" stroke="rgba(0,0,0,0)" stroke-width="1"/>
          </g>
          <g id="Group_56284" data-name="Group 56284" transform="translate(138.079 83.479)">
            <path id="Path_132233" data-name="Path 132233" d="M46.909,67.252a.943.943,0,0,1,0,1.788,3.428,3.428,0,0,1-3.1,0,.944.944,0,0,1,0-1.788A3.408,3.408,0,0,1,46.909,67.252Z" transform="translate(-43.173 -66.88)" fill="rgba(25,41,70,0.41)" stroke="rgba(0,0,0,0)" stroke-width="1"/>
          </g>
          <g id="Group_56285" data-name="Group 56285" transform="translate(146.174 78.806)">
            <path id="Path_132234" data-name="Path 132234" d="M49.44,65.788a.943.943,0,0,1,0,1.788,3.408,3.408,0,0,1-3.1,0,.944.944,0,0,1,0-1.788A3.428,3.428,0,0,1,49.44,65.788Z" transform="translate(-45.704 -65.419)" fill="rgba(25,41,70,0.41)" stroke="rgba(0,0,0,0)" stroke-width="1"/>
          </g>
          <g id="Group_56286" data-name="Group 56286" transform="translate(121.817 83.431)">
            <ellipse id="Ellipse_11303" data-name="Ellipse 11303" cx="2.189" cy="1.264" rx="2.189" ry="1.264" fill="rgba(25,41,70,0.41)" stroke="rgba(0,0,0,0)" stroke-width="1"/>
          </g>
          <g id="Group_56287" data-name="Group 56287" transform="translate(129.914 78.758)">
            <path id="Path_132235" data-name="Path 132235" d="M44.356,65.773a.944.944,0,0,1,0,1.788,3.428,3.428,0,0,1-3.1,0,.944.944,0,0,1,0-1.788A3.428,3.428,0,0,1,44.356,65.773Z" transform="translate(-40.62 -65.403)" fill="rgba(25,41,70,0.41)" stroke="rgba(0,0,0,0)" stroke-width="1"/>
          </g>
          <g id="Group_56288" data-name="Group 56288" transform="translate(138.009 74.083)">
            <path id="Path_132236" data-name="Path 132236" d="M46.887,64.314a.943.943,0,0,1,0,1.788,3.428,3.428,0,0,1-3.1,0,.944.944,0,0,1,0-1.788A3.408,3.408,0,0,1,46.887,64.314Z" transform="translate(-43.151 -63.942)" fill="rgba(25,41,70,0.41)" stroke="rgba(0,0,0,0)" stroke-width="1"/>
          </g>
          <g id="Group_56289" data-name="Group 56289" transform="translate(113.722 78.757)">
            <ellipse id="Ellipse_11304" data-name="Ellipse 11304" cx="2.189" cy="1.264" rx="2.189" ry="1.264" fill="rgba(25,41,70,0.41)" stroke="rgba(0,0,0,0)" stroke-width="1"/>
          </g>
          <g id="Group_56290" data-name="Group 56290" transform="translate(121.819 74.083)">
            <path id="Path_132237" data-name="Path 132237" d="M41.825,64.314a.944.944,0,0,1,0,1.788,3.428,3.428,0,0,1-3.1,0,.944.944,0,0,1,0-1.788A3.408,3.408,0,0,1,41.825,64.314Z" transform="translate(-38.089 -63.942)" fill="rgba(25,41,70,0.41)" stroke="rgba(0,0,0,0)" stroke-width="1"/>
          </g>
          <g id="Group_56291" data-name="Group 56291" transform="translate(129.913 69.409)">
            <ellipse id="Ellipse_11305" data-name="Ellipse 11305" cx="2.189" cy="1.264" rx="2.189" ry="1.264" fill="rgba(25,41,70,0.41)" stroke="rgba(0,0,0,0)" stroke-width="1"/>
          </g>
          <g id="Group_56292" data-name="Group 56292" transform="translate(105.627 74.083)">
            <path id="Path_132238" data-name="Path 132238" d="M36.765,64.314a.944.944,0,0,1,0,1.788,3.428,3.428,0,0,1-3.1,0,.943.943,0,0,1,0-1.788A3.408,3.408,0,0,1,36.765,64.314Z" transform="translate(-33.026 -63.942)" fill="rgba(25,41,70,0.41)" stroke="rgba(0,0,0,0)" stroke-width="1"/>
          </g>
          <g id="Group_56293" data-name="Group 56293" transform="translate(113.722 69.409)">
            <path id="Path_132239" data-name="Path 132239" d="M39.3,62.85a.944.944,0,0,1,0,1.788,3.408,3.408,0,0,1-3.1,0,.943.943,0,0,1,0-1.788A3.428,3.428,0,0,1,39.3,62.85Z" transform="translate(-35.557 -62.481)" fill="rgba(25,41,70,0.41)" stroke="rgba(0,0,0,0)" stroke-width="1"/>
          </g>
          <g id="Group_56294" data-name="Group 56294" transform="translate(121.819 64.737)">
            <path id="Path_132240" data-name="Path 132240" d="M41.825,61.389a.944.944,0,0,1,0,1.788,3.428,3.428,0,0,1-3.1,0,.944.944,0,0,1,0-1.788A3.428,3.428,0,0,1,41.825,61.389Z" transform="translate(-38.089 -61.019)" fill="rgba(25,41,70,0.41)" stroke="rgba(0,0,0,0)" stroke-width="1"/>
          </g>
          <g id="Group_56295" data-name="Group 56295" transform="translate(97.531 69.409)">
            <path id="Path_132241" data-name="Path 132241" d="M34.231,62.85a.943.943,0,0,1,0,1.788,3.408,3.408,0,0,1-3.1,0,.944.944,0,0,1,0-1.788A3.428,3.428,0,0,1,34.231,62.85Z" transform="translate(-30.495 -62.481)" fill="rgba(25,41,70,0.41)" stroke="rgba(0,0,0,0)" stroke-width="1"/>
          </g>
          <g id="Group_56296" data-name="Group 56296" transform="translate(105.627 64.737)">
            <path id="Path_132242" data-name="Path 132242" d="M36.765,61.389a.944.944,0,0,1,0,1.788,3.428,3.428,0,0,1-3.1,0,.943.943,0,0,1,0-1.788A3.428,3.428,0,0,1,36.765,61.389Z" transform="translate(-33.026 -61.019)" fill="rgba(25,41,70,0.41)" stroke="rgba(0,0,0,0)" stroke-width="1"/>
          </g>
          <g id="Group_56297" data-name="Group 56297" transform="translate(113.722 60.062)">
            <ellipse id="Ellipse_11306" data-name="Ellipse 11306" cx="2.189" cy="1.264" rx="2.189" ry="1.264" fill="rgba(25,41,70,0.41)" stroke="rgba(0,0,0,0)" stroke-width="1"/>
          </g>
          <g id="Group_56298" data-name="Group 56298" transform="translate(97.272 42.444)">
            <path id="Path_132243" data-name="Path 132243" d="M34.153,55.919a3.418,3.418,0,0,1-3.1,0,.944.944,0,0,1,0-1.788C31.9,53.642,35.007,55.423,34.153,55.919Z" transform="translate(-30.414 -54.049)" fill="rgba(25,41,70,0.41)" stroke="rgba(0,0,0,0)" stroke-width="1"/>
          </g>
          <g id="Group_56299" data-name="Group 56299" transform="translate(89.177 37.77)">
            <path id="Path_132244" data-name="Path 132244" d="M31.622,54.459a3.428,3.428,0,0,1-3.1,0,.944.944,0,0,1-.006-1.788C29.374,52.178,32.476,53.963,31.622,54.459Z" transform="translate(-27.883 -52.588)" fill="rgba(25,41,70,0.41)" stroke="rgba(0,0,0,0)" stroke-width="1"/>
          </g>
          <g id="Group_56300" data-name="Group 56300" transform="translate(81.081 33.096)">
            <path id="Path_132245" data-name="Path 132245" d="M29.092,53A3.418,3.418,0,0,1,26,53a.944.944,0,0,1-.006-1.788C26.844,50.719,29.946,52.5,29.092,53Z" transform="translate(-25.351 -51.126)" fill="rgba(25,41,70,0.41)" stroke="rgba(0,0,0,0)" stroke-width="1"/>
          </g>
          <g id="Group_56301" data-name="Group 56301" transform="translate(72.916 28.374)">
            <path id="Path_132246" data-name="Path 132246" d="M26.539,51.521a3.428,3.428,0,0,1-3.1,0,.944.944,0,0,1-.006-1.788C24.291,49.24,27.393,51.025,26.539,51.521Z" transform="translate(-22.798 -49.65)" fill="rgba(25,41,70,0.41)" stroke="rgba(0,0,0,0)" stroke-width="1"/>
          </g>
          <g id="Group_56302" data-name="Group 56302" transform="translate(170.518 83.524)">
            <path id="Path_132247" data-name="Path 132247" d="M53.954,67.266a3.418,3.418,0,0,1,3.1,0,.944.944,0,0,1,.006,1.788,3.428,3.428,0,0,1-3.1,0A.944.944,0,0,1,53.954,67.266Z" transform="translate(-53.315 -66.894)" fill="rgba(25,41,70,0.41)" stroke="rgba(0,0,0,0)" stroke-width="1"/>
          </g>
          <g id="Group_56303" data-name="Group 56303" transform="translate(178.621 78.846)">
            <ellipse id="Ellipse_11307" data-name="Ellipse 11307" cx="2.189" cy="1.264" rx="2.189" ry="1.264" fill="rgba(25,41,70,0.41)" stroke="rgba(0,0,0,0)" stroke-width="1"/>
          </g>
          <g id="Group_56304" data-name="Group 56304" transform="translate(162.423 78.851)">
            <path id="Path_132248" data-name="Path 132248" d="M51.423,65.8a3.418,3.418,0,0,1,3.1,0,.944.944,0,0,1,.006,1.788,3.428,3.428,0,0,1-3.1,0A.944.944,0,0,1,51.423,65.8Z" transform="translate(-50.784 -65.433)" fill="rgba(25,41,70,0.41)" stroke="rgba(0,0,0,0)" stroke-width="1"/>
          </g>
          <g id="Group_56305" data-name="Group 56305" transform="translate(170.525 74.171)">
            <path id="Path_132249" data-name="Path 132249" d="M57.054,64.339a.943.943,0,0,1,0,1.788,3.408,3.408,0,0,1-3.1,0,.944.944,0,0,1,0-1.788A3.428,3.428,0,0,1,57.054,64.339Z" transform="translate(-53.318 -63.969)" fill="rgba(25,41,70,0.41)" stroke="rgba(0,0,0,0)" stroke-width="1"/>
          </g>
          <g id="Group_56306" data-name="Group 56306" transform="translate(178.62 69.499)">
            <path id="Path_132250" data-name="Path 132250" d="M59.585,62.878a.943.943,0,0,1,0,1.788,3.428,3.428,0,0,1-3.1,0,.944.944,0,0,1,0-1.788A3.428,3.428,0,0,1,59.585,62.878Z" transform="translate(-55.849 -62.509)" fill="rgba(25,41,70,0.41)" stroke="rgba(0,0,0,0)" stroke-width="1"/>
          </g>
          <g id="Group_56307" data-name="Group 56307" transform="translate(154.328 74.176)">
            <path id="Path_132251" data-name="Path 132251" d="M48.892,64.342a3.428,3.428,0,0,1,3.1,0,.944.944,0,0,1,.006,1.788,3.425,3.425,0,0,1-3.1,0A.944.944,0,0,1,48.892,64.342Z" transform="translate(-48.253 -63.971)" fill="rgba(25,41,70,0.41)" stroke="rgba(0,0,0,0)" stroke-width="1"/>
          </g>
          <g id="Group_56308" data-name="Group 56308" transform="translate(162.43 69.498)">
            <ellipse id="Ellipse_11308" data-name="Ellipse 11308" cx="2.189" cy="1.264" rx="2.189" ry="1.264" fill="rgba(25,41,70,0.41)" stroke="rgba(0,0,0,0)" stroke-width="1"/>
          </g>
          <g id="Group_56309" data-name="Group 56309" transform="translate(170.526 64.824)">
            <ellipse id="Ellipse_11309" data-name="Ellipse 11309" cx="2.189" cy="1.264" rx="2.189" ry="1.264" fill="rgba(25,41,70,0.41)" stroke="rgba(0,0,0,0)" stroke-width="1"/>
          </g>
          <g id="Group_56310" data-name="Group 56310" transform="translate(146.163 69.74)">
            <path id="Path_132252" data-name="Path 132252" d="M49.438,64.452a3.408,3.408,0,0,1-3.1,0,.942.942,0,0,1,0-1.785C47.19,62.174,50.292,63.959,49.438,64.452Z" transform="translate(-45.7 -62.584)" fill="rgba(25,41,70,0.41)" stroke="rgba(0,0,0,0)" stroke-width="1"/>
          </g>
          <g id="Group_56311" data-name="Group 56311" transform="translate(154.758 65.059)">
            <path id="Path_132253" data-name="Path 132253" d="M51.631,61.205a.944.944,0,0,1,0,1.788,3.408,3.408,0,0,1-3.1,0C47.681,62.5,50.777,60.713,51.631,61.205Z" transform="translate(-48.388 -61.12)" fill="rgba(25,41,70,0.41)" stroke="rgba(0,0,0,0)" stroke-width="1"/>
          </g>
          <g id="Group_56312" data-name="Group 56312" transform="translate(138.066 65.065)">
            <path id="Path_132254" data-name="Path 132254" d="M46.908,62.992a3.418,3.418,0,0,1-3.1,0,.944.944,0,0,1-.006-1.788C44.66,60.715,47.762,62.5,46.908,62.992Z" transform="translate(-43.169 -61.122)" fill="rgba(25,41,70,0.41)" stroke="rgba(0,0,0,0)" stroke-width="1"/>
          </g>
          <g id="Group_56313" data-name="Group 56313" transform="translate(129.97 60.392)">
            <path id="Path_132255" data-name="Path 132255" d="M44.378,61.532a3.428,3.428,0,0,1-3.1,0,.944.944,0,0,1-.006-1.788C42.13,59.251,45.232,61.036,44.378,61.532Z" transform="translate(-40.637 -59.661)" fill="rgba(25,41,70,0.41)" stroke="rgba(0,0,0,0)" stroke-width="1"/>
          </g>
          <g id="Group_56314" data-name="Group 56314" transform="translate(121.875 55.717)">
            <path id="Path_132256" data-name="Path 132256" d="M41.847,60.069a3.418,3.418,0,0,1-3.1,0,.944.944,0,0,1-.006-1.788C39.6,57.792,42.7,59.577,41.847,60.069Z" transform="translate(-38.106 -58.199)" fill="rgba(25,41,70,0.41)" stroke="rgba(0,0,0,0)" stroke-width="1"/>
          </g>
        </g>
        <g id="Group_56336" data-name="Group 56336" transform="translate(0.656)">
          <g id="Group_56320" data-name="Group 56320" transform="translate(4.289)">
            <g id="Group_56316" data-name="Group 56316" transform="translate(0.83 0.831)">
              <path id="Path_132257" data-name="Path 132257" d="M164.267,75.929,36.025,1.889C32.91.091,30.083-.161,27.94.849h0a5.47,5.47,0,0,0-.867.505l-24.9,14.53a.749.749,0,0,0,.077,1.334L14.638,22.63l9.313,12.825v55.1c0,7.74,5.405,17.136,12.074,20.987l23.7,13.682a10.478,10.478,0,0,1,4.721,8.181v16.366c0,3.7,3.844,7.788,6.118,6.5L88.279,146.24c2.536-1.436,5.949-1.091,9.509.963l12.6,7.276,34.788,47.9L173.4,186l.217-.179c1.829-1.4,2.728-3.774,2.728-7.279V96.916C176.344,89.176,170.935,79.78,164.267,75.929Z" transform="translate(-1.806 -0.26)" fill="#2554a4"/>
              <path id="Path_132516" data-name="Path 132516" d="M164.267,75.929,36.025,1.889C32.91.091,30.083-.161,27.94.849h0a5.47,5.47,0,0,0-.867.505l-24.9,14.53a.749.749,0,0,0,.077,1.334L14.638,22.63l9.313,12.825v55.1c0,7.74,5.405,17.136,12.074,20.987l23.7,13.682a10.478,10.478,0,0,1,4.721,8.181v16.366c0,3.7,3.844,7.788,6.118,6.5L88.279,146.24c2.536-1.436,5.949-1.091,9.509.963l12.6,7.276,34.788,47.9L173.4,186l.217-.179c1.829-1.4,2.728-3.774,2.728-7.279V96.916C176.344,89.176,170.935,79.78,164.267,75.929Z" transform="translate(-1.806 -0.26)" fill="#2554a4"/>
            </g>
            <g id="Group_56317" data-name="Group 56317" transform="translate(9.553 10.404)">
              <path id="Path_132258" data-name="Path 132258" d="M158.329,78.922,30.087,4.882c-3.115-1.8-5.946-2.05-8.085-1.039h0a5.856,5.856,0,0,0-.864.505l-16.6,9.691L8.7,15.858l9.313,12.825v55.1c0,7.743,5.408,17.14,12.077,20.99l23.7,13.682a10.482,10.482,0,0,1,4.724,8.181V143c0,3.7,3.844,7.791,6.115,6.5l17.715-10.036c2.533-1.436,5.949-1.091,9.509.966l12.6,7.276,34.785,47.9L167.46,179.23l.217-.179c1.829-1.4,2.725-3.777,2.725-7.279V99.909C170.4,92.169,165,82.773,158.329,78.922Z" transform="translate(-4.533 -3.253)" fill="#2554a4"/>
              <path id="Path_132517" data-name="Path 132517" d="M158.329,78.922,30.087,4.882c-3.115-1.8-5.946-2.05-8.085-1.039h0a5.856,5.856,0,0,0-.864.505l-16.6,9.691L8.7,15.858l9.313,12.825v55.1c0,7.743,5.408,17.14,12.077,20.99l23.7,13.682a10.482,10.482,0,0,1,4.724,8.181V143c0,3.7,3.844,7.791,6.115,6.5l17.715-10.036c2.533-1.436,5.949-1.091,9.509.966l12.6,7.276,34.785,47.9L167.46,179.23l.217-.179c1.829-1.4,2.725-3.777,2.725-7.279V99.909C170.4,92.169,165,82.773,158.329,78.922Z" transform="translate(-4.533 -3.253)" fill="rgba(255,255,255,0.38)"/>
            </g>
            <g id="Group_56318" data-name="Group 56318" transform="translate(60.105 95.956)">
              <path id="Path_132259" data-name="Path 132259" d="M107.547,46.221c-5.14,2.044-40.89,8.555-87.208,14.952a10.6,10.6,0,0,1,3.368,7.142V84.677c0,3.7,3.844,7.791,6.118,6.5L47.537,81.143c2.536-1.436,5.949-1.091,9.509.966l12.6,7.276,34.788,47.9L132.656,120.9l.217-.179c1.829-1.4,2.728-3.777,2.728-7.279V31.822c0-.6-.045-1.206-.106-1.82Z" transform="translate(-20.339 -30.002)" fill="#153365"/>
            </g>
            <g id="Group_56319" data-name="Group 56319">
              <path id="Path_132260" data-name="Path 132260" d="M145.513,204.045,110.39,155.684,97.942,148.5c-3.31-1.916-6.393-2.255-8.683-.966L71.547,157.571a3.27,3.27,0,0,1-3.342-.249,8.822,8.822,0,0,1-4.017-6.975V133.983a9.689,9.689,0,0,0-4.3-7.465l-23.7-13.682c-6.886-3.975-12.489-13.714-12.489-21.707V36.295L14.668,23.873,2.492,18.551a1.58,1.58,0,0,1-.163-2.811l24.9-14.533a6.562,6.562,0,0,1,.931-.541c2.485-1.171,5.626-.79,8.856,1.075l128.242,74.04c6.886,3.975,12.489,13.714,12.489,21.71v81.62c0,3.774-1,6.371-3.051,7.941l-.2.16ZM92.332,145.1a13.093,13.093,0,0,1,6.441,1.957l12.86,7.506,34.343,47.293,27.681-16.107c1.638-1.251,2.421-3.416,2.421-6.636V97.491c0-7.468-5.229-16.561-11.658-20.268L36.18,3.18C33.442,1.6,30.845,1.238,28.866,2.172a5.247,5.247,0,0,0-.745.432L3.167,17.179l12.582,5.351.131.182,9.473,13.043V91.129c0,7.462,5.229,16.554,11.658,20.268l23.7,13.682a11.381,11.381,0,0,1,5.136,8.9v16.362a7.12,7.12,0,0,0,3.192,5.543,1.779,1.779,0,0,0,1.686.237L88.44,146.086A7.818,7.818,0,0,1,92.332,145.1Z" transform="translate(-1.546 0)" fill="#153365"/>
            </g>
          </g>
          <g id="Group_56323" data-name="Group 56323" transform="translate(0 15.442)">
            <g id="Group_56321" data-name="Group 56321" transform="translate(0.828 0.837)">
              <path id="Path_132261" data-name="Path 132261" d="M12.541,6.732l128.242,74.04c6.668,3.851,12.074,13.247,12.074,20.987v81.624c0,7.743-5.405,10.9-12.074,7.046L74.3,152.046c-3.56-2.053-6.975-2.4-9.509-.963L47.082,161.119c-2.274,1.286-6.118-2.8-6.118-6.5V138.283a10.46,10.46,0,0,0-4.724-8.21l-23.7-13.685C5.872,112.537.464,103.141.464,95.4V13.777C.464,6.034,5.872,2.881,12.541,6.732Z" transform="translate(-0.464 -5.09)" fill="#2554a4"/>
            </g>
            <g id="Group_56322" data-name="Group 56322">
              <path id="Path_132262" data-name="Path 132262" d="M146.725,193.483a11.73,11.73,0,0,1-5.789-1.759l-66.48-38.379c-3.313-1.916-6.4-2.258-8.683-.963L48.061,162.418a3.277,3.277,0,0,1-3.345-.249,8.828,8.828,0,0,1-4.014-6.975V138.856a9.714,9.714,0,0,0-4.3-7.487l-23.7-13.685C5.808,113.708.205,103.969.205,95.973V14.353c0-4.068,1.41-7.126,3.975-8.6,2.546-1.471,5.862-1.174,9.345.841L141.768,80.628c6.886,3.975,12.489,13.714,12.489,21.71v81.62c0,4.068-1.41,7.126-3.975,8.6A7.028,7.028,0,0,1,146.725,193.483ZM68.847,149.944a13.093,13.093,0,0,1,6.441,1.957l66.48,38.379c2.946,1.7,5.674,2,7.682.841,2.028-1.171,3.144-3.713,3.144-7.164v-81.62c0-7.468-5.229-16.561-11.658-20.268L12.694,8.027c-2.942-1.7-5.671-2-7.682-.838C2.984,8.359,1.868,10.9,1.868,14.353v81.62c0,7.465,5.229,16.558,11.658,20.271l23.7,13.682a11.237,11.237,0,0,1,5.136,8.93v16.337a7.125,7.125,0,0,0,3.189,5.543,1.776,1.776,0,0,0,1.689.237l17.712-10.039A7.818,7.818,0,0,1,68.847,149.944Z" transform="translate(-0.205 -4.828)" fill="#153365"/>
            </g>
          </g>
          <g id="Group_56335" data-name="Group 56335" transform="translate(28.382 56.449)">
            <g id="Group_56328" data-name="Group 56328" transform="translate(1.909)">
              <g id="Group_56324" data-name="Group 56324" transform="translate(0.871 0.828)">
                <path id="Path_132263" data-name="Path 132263" d="M97.136,67.66c0-3.422-2.079-7.4-4.647-8.878L22.644,18.458a2.892,2.892,0,0,0-3.17-.144v0l-.029.019c-.032.022-.07.035-.1.061L10,23.988a.1.1,0,0,0-.029.147L18,34.817V69.272c0,3.425,2.082,7.4,4.647,8.882l49.33,28.481,12.959,17.242a1.1,1.1,0,0,0,1.446.281l9.56-5.77a4.52,4.52,0,0,0,1.2-3.425Z" transform="translate(-9.948 -17.908)" fill="#2554a4"/>
              </g>
              <g id="Group_56325" data-name="Group 56325" transform="translate(2.904 4.764)">
                <path id="Path_132264" data-name="Path 132264" d="M16.769,36.048V68.265c.525,2.958,2.322,5.962,4.478,7.209l49.33,28.481,12.959,17.239a1.1,1.1,0,0,0,1.446.281l9.56-5.767a4.526,4.526,0,0,0,1.2-3.425V67.219c-.525-2.958-2.322-5.962-4.478-7.209L21.42,19.686a2.9,2.9,0,0,0-3.17-.141l0,0-.029.016c-.032.026-.07.038-.1.064l-7.532,4.51,6.016,8v3.688Z" transform="translate(-10.584 -19.139)" fill="#7895c7"/>
              </g>
              <g id="Group_56326" data-name="Group 56326" transform="translate(9.003 47.372)">
                <path id="Path_132265" data-name="Path 132265" d="M82.044,40.665a1.1,1.1,0,0,1-1.446-.281L12.491,32.461v4.545c0,3.422,2.082,7.4,4.647,8.878l49.33,28.481L79.428,91.607a1.094,1.094,0,0,0,1.442.281l9.563-5.77a4.518,4.518,0,0,0,1.2-3.422V35.391c0-.16-.026-.326-.035-.486Z" transform="translate(-12.491 -32.461)" fill="#153365"/>
              </g>
              <g id="Group_56327" data-name="Group 56327">
                <path id="Path_132266" data-name="Path 132266" d="M86.409,125.715a1.914,1.914,0,0,1-1.542-.771L72.011,107.837,22.831,79.445c-2.843-1.641-5.066-5.859-5.066-9.6V35.664L9.676,24.9l.134-.812.368-.253,9.339-5.591a3.751,3.751,0,0,1,4.145.058L93.5,58.628c2.84,1.641,5.063,5.859,5.063,9.6v47.3a5.368,5.368,0,0,1-1.468,4.043l-9.691,5.862A1.923,1.923,0,0,1,86.409,125.715ZM11.72,24.854l7.708,10.257v34.73c0,3.1,1.938,6.838,4.235,8.162l49.577,28.7L86.2,123.946a.262.262,0,0,0,.349.067l9.563-5.767a3.962,3.962,0,0,0,.793-2.715v-47.3c0-3.1-1.938-6.838-4.231-8.162L22.831,19.746a2.166,2.166,0,0,0-2.293-.173Z" transform="translate(-9.676 -17.649)" fill="#153365"/>
              </g>
            </g>
            <g id="Group_56331" data-name="Group 56331" transform="translate(0 5.953)">
              <g id="Group_56329" data-name="Group 56329" transform="translate(0.832 0.832)">
                <path id="Path_132267" data-name="Path 132267" d="M83.83,120.351,13.986,80.027c-2.565-1.481-4.647-5.459-4.647-8.882v-47.3c0-3.422,2.082-5,4.647-3.515L83.83,60.652c2.565,1.484,4.647,5.459,4.647,8.882v47.3C88.477,120.258,86.4,121.832,83.83,120.351Z" transform="translate(-9.339 -19.771)" fill="#2554a4"/>
              </g>
              <g id="Group_56330" data-name="Group 56330">
                <path id="Path_132268" data-name="Path 132268" d="M86.25,122.311a4.566,4.566,0,0,1-2.264-.668L14.142,81.318c-2.84-1.638-5.063-5.856-5.063-9.6v-47.3c0-2.1.739-3.739,2.025-4.478a3.769,3.769,0,0,1,3.87.246L84.818,60.5c2.84,1.638,5.063,5.856,5.063,9.6v47.3c0,2.1-.736,3.736-2.021,4.478A3.177,3.177,0,0,1,86.25,122.311ZM12.715,21.171a1.56,1.56,0,0,0-.784.2c-.742.432-1.19,1.564-1.19,3.038v47.3c0,3.1,1.938,6.838,4.231,8.159L84.818,120.2a2.245,2.245,0,0,0,2.21.246c.745-.432,1.19-1.564,1.19-3.038v-47.3c0-3.1-1.938-6.838-4.231-8.159L14.142,21.622A2.969,2.969,0,0,0,12.715,21.171Z" transform="translate(-9.079 -19.511)" fill="#153365"/>
              </g>
            </g>
            <g id="Group_56334" data-name="Group 56334" transform="translate(0.704 6.239)">
              <g id="Group_56332" data-name="Group 56332" transform="translate(1.007 0.827)">
                <path id="Path_132269" data-name="Path 132269" d="M45.31,66.286c1.823,2.354,4.135,3.64,5.92,3.3l34.5-6.64a8,8,0,0,0-2.853-2.683L13.73,20.336c-1.663-.959-3.841-.249-4.116.2Z" transform="translate(-9.614 -19.859)" fill="#2554a4"/>
              </g>
              <g id="Group_56333" data-name="Group 56333">
                <path id="Path_132270" data-name="Path 132270" d="M51.328,71.038c-1.951,0-4.177-1.35-5.981-3.675L9.3,21.17l.294-.489c.534-.883,3.243-1.65,5.245-.5L83.985,60.106a8.778,8.778,0,0,1,3.176,3.029l.505.985L52.079,70.967A3.913,3.913,0,0,1,51.328,71.038ZM11.57,21.378,46.658,66.346c1.609,2.069,3.691,3.256,5.1,2.987l33.192-6.384a8.614,8.614,0,0,0-1.8-1.4L14.007,21.624A3.386,3.386,0,0,0,11.57,21.378Z" transform="translate(-9.299 -19.6)" fill="#153365"/>
              </g>
            </g>
          </g>
        </g>
      </g>
    </g>
  </g>
</svg>
