<svg id="title-shape" xmlns="http://www.w3.org/2000/svg" width="31.581" height="52.79" viewBox="0 0 31.581 52.79">
  <path id="Path_107171" data-name="Path 107171" d="M20.333,6.534,10.116.884,8.5,0,7.891,1.731.052,24.036A.777.777,0,1,0,1.5,24.6V24.55L10.116,4.433l8.733,4.8a1.542,1.542,0,1,0,1.485-2.7" transform="translate(7.941 27.835) rotate(-6)" fill="#43a6c5"/>
  <path id="Path_107172" data-name="Path 107172" d="M7.824,14.522,3.293,8.7,3.909.991V.853A.771.771,0,0,0,2.394.591L.2,8.81,0,9.555l.473.611,4.88,6.272a1.563,1.563,0,0,0,2.471-1.916" transform="translate(16.243 11.183) rotate(-6)" fill="#7666a1"/>
  <path id="Path_107173" data-name="Path 107173" d="M15.635,6.795H8.248L1.37.271,1.283.189A.776.776,0,0,0,.137,1.216L6.425,9.3l.467.6h8.733a1.559,1.559,0,0,0,0-3.118" transform="translate(0 1.796) rotate(-6)" fill="#804d98"/>
</svg>
