<svg xmlns="http://www.w3.org/2000/svg" xmlns:xlink="http://www.w3.org/1999/xlink" width="310" height="310" viewBox="0 0 310 310">
  <defs>
    <linearGradient id="linear-gradient" x1="1" x2="0" y2="1" gradientUnits="objectBoundingBox">
      <stop offset="0" stop-color="#1d4487"/>
      <stop offset="1" stop-color="#f2eff3"/>
    </linearGradient>
  </defs>
  <g id="tour-Ellipse1" transform="translate(155 155)">
    <g id="Ellipse_6534" data-name="Ellipse 6534" transform="translate(-153 -153)">
      <path id="Ellipse_6534-2" data-name="Ellipse 6534" d="M0,308a2,2,0,0,1-2-2c0-7.7.288-15.483.855-23.128a2,2,0,0,1,3.989.3C2.284,290.715,2,298.4,2,306A2,2,0,0,1,0,308Zm3.412-45.833a2,2,0,0,1-1.98-2.3c1.142-7.606,2.589-15.258,4.3-22.744a2,2,0,0,1,3.9.891c-1.688,7.388-3.115,14.941-4.243,22.447A2,2,0,0,1,3.412,262.167Zm10.235-44.8a2,2,0,0,1-1.911-2.592c2.273-7.34,4.857-14.686,7.679-21.835a2,2,0,1,1,3.72,1.469c-2.786,7.056-5.336,14.306-7.579,21.549A2,2,0,0,1,13.647,217.364Zm16.874-42.746a2,2,0,0,1-1.8-2.873c3.352-6.91,7.012-13.783,10.879-20.429a2,2,0,1,1,3.457,2.012c-3.817,6.559-7.429,13.343-10.738,20.163A2,2,0,0,1,30.521,174.618ZM53.633,134.9a2,2,0,0,1-1.646-3.133c4.35-6.33,9-12.578,13.814-18.57a2,2,0,0,1,3.118,2.506c-4.754,5.915-9.341,12.082-13.635,18.33A2,2,0,0,1,53.633,134.9ZM82.424,99.073a2,2,0,0,1-1.461-3.366c5.248-5.613,10.774-11.1,16.426-16.3a2,2,0,0,1,2.71,2.942C94.521,87.483,89.065,92.9,83.885,98.439A2,2,0,0,1,82.424,99.073ZM116.23,67.937a2,2,0,0,1-1.243-3.568C121.015,59.6,127.3,55,133.659,50.693a2,2,0,0,1,2.241,3.313c-6.28,4.247-12.481,8.789-18.43,13.5A1.992,1.992,0,0,1,116.23,67.937ZM154.3,42.192a2,2,0,0,1-.995-3.736c6.674-3.817,13.575-7.426,20.51-10.727a2,2,0,0,1,1.719,3.612c-6.845,3.257-13.655,6.819-20.243,10.587A1.991,1.991,0,0,1,154.3,42.192Zm41.5-19.746a2,2,0,0,1-.721-3.866c7.17-2.769,14.536-5.3,21.893-7.516a2,2,0,0,1,1.155,3.83c-7.261,2.189-14.531,4.684-21.607,7.417A2,2,0,0,1,195.8,22.446Zm44-13.265a2,2,0,0,1-.429-3.953c7.5-1.654,15.16-3.042,22.774-4.128a2,2,0,0,1,.565,3.96c-7.515,1.071-15.077,2.442-22.477,4.074A2.008,2.008,0,0,1,239.795,9.181ZM285.289,2.69a2,2,0,0,1-.131-4C292.05-1.766,299.063-2,306-2a2,2,0,0,1,2,2,2,2,0,0,1-2,2c-6.849,0-13.771.231-20.575.685Q285.357,2.69,285.289,2.69Z" fill="url(#linear-gradient)"/>
    </g>
  </g>
</svg>
