<svg xmlns="http://www.w3.org/2000/svg" xmlns:xlink="http://www.w3.org/1999/xlink" width="310" height="310" viewBox="0 0 310 310">
  <defs>
    <linearGradient id="linear-gradient" x2="1" y2="1" gradientUnits="objectBoundingBox">
      <stop offset="0" stop-color="#1d4487"/>
      <stop offset="1" stop-color="#f2eff3"/>
    </linearGradient>
  </defs>
  <g id="tour-Ellipse1-en" transform="translate(155 155)">
    <g id="Ellipse_6534" data-name="Ellipse 6534" transform="translate(-155 -155)">
      <path id="Ellipse_6534-2" data-name="Ellipse 6534" d="M306,308a2,2,0,0,0,2-2c0-7.7-.288-15.483-.855-23.128a2,2,0,0,0-3.989.3c.56,7.547.844,15.228.844,22.832A2,2,0,0,0,306,308Zm-3.412-45.833a2,2,0,0,0,1.98-2.3c-1.142-7.606-2.589-15.258-4.3-22.744a2,2,0,0,0-3.9.891c1.688,7.388,3.115,14.941,4.243,22.447A2,2,0,0,0,302.588,262.167Zm-10.235-44.8a2,2,0,0,0,1.911-2.592c-2.273-7.34-4.857-14.686-7.679-21.835a2,2,0,0,0-3.721,1.469c2.786,7.056,5.336,14.306,7.579,21.549A2,2,0,0,0,292.353,217.364Zm-16.874-42.746a2,2,0,0,0,1.8-2.873c-3.352-6.91-7.012-13.783-10.879-20.429a2,2,0,0,0-3.457,2.012c3.817,6.559,7.429,13.343,10.738,20.163A2,2,0,0,0,275.479,174.618ZM252.368,134.9a2,2,0,0,0,1.646-3.133c-4.351-6.33-9-12.578-13.814-18.57a2,2,0,1,0-3.118,2.506c4.754,5.915,9.341,12.082,13.635,18.33A2,2,0,0,0,252.368,134.9ZM223.576,99.073a2,2,0,0,0,1.461-3.366c-5.248-5.613-10.774-11.1-16.426-16.3a2,2,0,0,0-2.71,2.942c5.579,5.139,11.034,10.554,16.214,16.094A2,2,0,0,0,223.576,99.073ZM189.77,67.937a2,2,0,0,0,1.243-3.568C184.985,59.6,178.7,55,172.341,50.693a2,2,0,0,0-2.241,3.313c6.28,4.247,12.481,8.789,18.43,13.5A1.992,1.992,0,0,0,189.77,67.937ZM151.7,42.192a2,2,0,0,0,.995-3.736c-6.674-3.817-13.575-7.426-20.51-10.727a2,2,0,0,0-1.719,3.612c6.845,3.257,13.655,6.819,20.243,10.587A1.991,1.991,0,0,0,151.7,42.192ZM110.2,22.446a2,2,0,0,0,.721-3.866c-7.17-2.769-14.536-5.3-21.894-7.516a2,2,0,0,0-1.155,3.83c7.261,2.189,14.531,4.684,21.607,7.417A2,2,0,0,0,110.2,22.446Zm-44-13.265a2,2,0,0,0,.429-3.953C59.137,3.574,51.475,2.185,43.861,1.1a2,2,0,0,0-.565,3.96C50.811,6.131,58.373,7.5,65.773,9.134A2.008,2.008,0,0,0,66.205,9.181ZM20.711,2.69a2,2,0,0,0,.131-4C13.95-1.766,6.937-2,0-2A2,2,0,0,0-2,0,2,2,0,0,0,0,2c6.849,0,13.771.231,20.575.685Q20.643,2.69,20.711,2.69Z" transform="translate(2 2)" fill="url(#linear-gradient)"/>
    </g>
  </g>
</svg>
