<svg xmlns="http://www.w3.org/2000/svg" width="344.87" height="280.78" viewBox="0 0 344.87 280.78">
  <g id="tour-cont-bg" transform="translate(116.069 93.902)">
    <g id="Group_45016" data-name="Group 45016" transform="translate(-112.733 -90.565)">
      <g id="Group_45011" data-name="Group 45011" transform="translate(0 0)">
        <path id="Path_97798" data-name="Path 97798" d="M155.734,11.572S7.9-1.037,12.64,139.476s135.188,124.3,173.136,121.6,134.4-9.007,136.768-127.9S229.257,6.169,155.734,11.572Z" transform="translate(1.494 1.276)" fill="#f2eff3"/>
        <g id="Group_45010" data-name="Group 45010">
          <path id="Path_97799" data-name="Path 97799" d="M124.177,2.67A196.929,196.929,0,0,0,62.67,10.731" transform="translate(26.55 -2.601)" fill="none" stroke="#804d98" stroke-linecap="round" stroke-miterlimit="10" stroke-width="6.667" opacity="0.6"/>
          <path id="Path_97800" data-name="Path 97800" d="M265.279,102C254.824,32.273,204.892,8.8,150.784,3" transform="translate(70.58 -2.403)" fill="none" stroke="#ad3a74" stroke-linecap="round" stroke-miterlimit="10" stroke-width="6.667" opacity="0.6"/>
          <path id="Path_97801" data-name="Path 97801" d="M182.535,218.755c53.559-23,73.211-86.167,68.467-139.619" transform="translate(86.447 35.643)" fill="none" stroke="#923c80" stroke-linecap="round" stroke-miterlimit="10" stroke-width="6.667" opacity="0.6"/>
          <path id="Path_97802" data-name="Path 97802" d="M16.654,146.792c41.573,69.448,136.212,58.073,168.679,55.762,10.42-.742,24.891-1.737,40.745-4.88" transform="translate(3.555 69.451)" fill="none" stroke="#43a6c5" stroke-linecap="round" stroke-miterlimit="10" stroke-width="6.667" opacity="0.6"/>
          <path id="Path_97803" data-name="Path 97803" d="M54.8,16.658C25.048,36.633,1.248,71.57,3.3,132.456c.909,26.932,5.991,48.659,13.983,66.176" transform="translate(-3.178 4.423)" fill="none" stroke="#7666a1" stroke-linecap="round" stroke-miterlimit="10" stroke-width="6.667" opacity="0.6"/>
        </g>
      </g>
    </g>
  </g>
</svg>
