<svg xmlns="http://www.w3.org/2000/svg" width="764" height="606.03" viewBox="0 0 764 606.03">
  <g id="tour-bg" transform="translate(0 -99)">
    <g id="Group_26604" data-name="Group 26604" transform="translate(0 99)">
      <path id="Path_51742" data-name="Path 51742" d="M.793,134.117c-2.512,2.324,1.526,5.82,4.055,3.479q15.5-14.349,31.776-28.059v-6.9Q18.243,117.979.793,134.117Z" transform="translate(727.376 -9.229)" fill="rgba(25,41,70,0.11)"/>
      <path id="Path_51743" data-name="Path 51743" d="M.908,203.423c-2.736,2.147,1.323,5.624,4.055,3.479q1.07-.838,2.139-1.678v-6.662Z" transform="translate(756.898 -17.854)" fill="rgba(25,41,70,0.11)"/>
      <path id="Path_51744" data-name="Path 51744" d="M.459,185.773c-1.984,2.689,2.981,5.153,4.965,2.465a356.894,356.894,0,0,1,41.552-46.911v-7.268A365.443,365.443,0,0,0,.459,185.773Z" transform="translate(717.025 -12.054)" fill="rgba(25,41,70,0.11)"/>
      <path id="Path_51745" data-name="Path 51745" d="M8.662,250.617a568.6,568.6,0,0,1,54.963-65.4c2.359-2.416-1.669-5.925-4.056-3.48A578,578,0,0,0,3.7,248.152C1.75,250.86,6.714,253.326,8.662,250.617Z" transform="translate(696.7 -16.267)" fill="rgba(25,41,70,0.11)"/>
      <path id="Path_51746" data-name="Path 51746" d="M82.6,256.233a437.161,437.161,0,0,1,42.207-93.5c1.689-2.816-3.262-5.3-4.964-2.465A442.841,442.841,0,0,0,77.072,254.93C76.1,258,81.637,259.306,82.6,256.233Z" transform="translate(568.803 -14.298)" fill="rgba(25,41,70,0.11)"/>
      <path id="Path_51747" data-name="Path 51747" d="M.392,319.534c-1.811,2.77,3.145,5.248,4.964,2.465q19.636-30.041,41.018-59.2v-9.162Q22.316,286.028.392,319.534Z" transform="translate(717.626 -22.806)" fill="rgba(25,41,70,0.11)"/>
      <path id="Path_51748" data-name="Path 51748" d="M.023,369.142v-.577A1.858,1.858,0,0,0,.023,369.142Z" transform="translate(763.977 -33.14)" fill="rgba(25,41,70,0.11)"/>
      <path id="Path_51749" data-name="Path 51749" d="M52.428,352.993l30.033-71.8c1.254-3-4.287-4.279-5.533-1.3l-30.033,71.8C45.641,354.689,51.183,355.97,52.428,352.993Z" transform="translate(638.844 -25.015)" fill="rgba(25,41,70,0.11)"/>
      <path id="Path_51750" data-name="Path 51750" d="M99.163,310.075a303.357,303.357,0,0,0,32.878-63.742c1.129-3.035-4.408-4.326-5.533-1.3A297.765,297.765,0,0,1,94.2,307.61C92.344,310.361,97.3,312.835,99.163,310.075Z" transform="translate(546.45 -21.877)" fill="rgba(25,41,70,0.11)"/>
      <path id="Path_51751" data-name="Path 51751" d="M143.634,283.844A217.68,217.68,0,0,0,172,225.536c.953-3.074-4.58-4.379-5.533-1.3a213.089,213.089,0,0,1-27.795,57.146C136.8,284.122,141.755,286.593,143.634,283.844Z" transform="translate(466.069 -20.004)" fill="rgba(25,41,70,0.11)"/>
      <path id="Path_51752" data-name="Path 51752" d="M101.37,390.382c23.927-17.259,43.422-38.859,56.908-63.045,1.588-2.847-3.359-5.342-4.964-2.465-13.3,23.852-32.4,45.01-56,62.03C94.479,388.949,98.549,392.417,101.37,390.382Z" transform="translate(517.722 -29.097)" fill="rgba(25,41,70,0.11)"/>
      <path id="Path_51753" data-name="Path 51753" d="M16.736,415.8c25.059-23.456,43.312-51.943,52.881-82.666.957-3.072-4.575-4.378-5.533-1.3-9.314,29.9-27.008,57.652-51.4,80.488C10.185,414.658,14.223,418.154,16.736,415.8Z" transform="translate(683.446 -29.68)" fill="rgba(25,41,70,0.11)"/>
      <path id="Path_51754" data-name="Path 51754" d="M265.636,345.2c2.13-2.6-2.845-5.055-4.964-2.465-24.167,29.535-56,54.191-92.635,71.9-3.231,1.562-.4,5.842,2.829,4.281C208.41,400.763,240.877,375.458,265.636,345.2Z" transform="translate(346.215 -30.719)" fill="rgba(25,41,70,0.11)"/>
      <path id="Path_51755" data-name="Path 51755" d="M194.52,401.08c1.533-2.861-3.413-5.362-4.964-2.465C172.777,429.945,138.041,449.2,105.3,467.04c-3.12,1.7-.307,5.988,2.828,4.281C141.668,453.048,177.332,433.175,194.52,401.08Z" transform="translate(474.594 -35.726)" fill="rgba(25,41,70,0.11)"/>
      <path id="Path_51756" data-name="Path 51756" d="M46.638,496.659a344.18,344.18,0,0,0,64.132-56.294c2.238-2.527-2.747-4.97-4.964-2.465a339.393,339.393,0,0,1-63.223,55.28C39.684,495.153,43.762,498.616,46.638,496.659Z" transform="translate(614.816 -39.28)" fill="rgba(25,41,70,0.11)"/>
      <path id="Path_51757" data-name="Path 51757" d="M69.936,170.873a492.883,492.883,0,0,1,53.358-72.4c2.239-2.525-2.745-4.968-4.965-2.465a492.826,492.826,0,0,0-53.358,72.4C63.276,171.221,68.227,173.708,69.936,170.873Z" transform="translate(581.329 -8.538)" fill="rgba(25,41,70,0.11)"/>
      <path id="Path_51758" data-name="Path 51758" d="M393.657,369.7a817.394,817.394,0,0,1-97.665,32.856c-3.529.945-2.139,5.724,1.4,4.776a829.477,829.477,0,0,0,99.094-33.351C399.835,372.609,396.984,368.338,393.657,369.7Z" transform="translate(98.506 -33.218)" fill="rgba(25,41,70,0.11)"/>
      <path id="Path_51759" data-name="Path 51759" d="M361.837,444.688c3.2-1.605.373-5.888-2.829-4.281A442.3,442.3,0,0,1,252.323,477.6c-3.6.764-2.193,5.539,1.4,4.777A448.707,448.707,0,0,0,361.837,444.688Z" transform="translate(173.033 -39.568)" fill="rgba(25,41,70,0.11)"/>
      <path id="Path_51760" data-name="Path 51760" d="M263.371,472.022c2.9-1.967-1.176-5.43-4.055-3.479a580.715,580.715,0,0,1-124.933,63.745c-3.4,1.253-.538,5.521,2.829,4.281A586.168,586.168,0,0,0,263.371,472.022Z" transform="translate(378.726 -42.078)" fill="rgba(25,41,70,0.11)"/>
      <path id="Path_51761" data-name="Path 51761" d="M158.753,500.722c2.91-1.959-1.17-5.422-4.055-3.48A466.787,466.787,0,0,1,43.246,551.965c-3.408,1.149-2.041,5.936,1.4,4.777A476.875,476.875,0,0,0,158.753,500.722Z" transform="translate(566.684 -44.659)" fill="rgba(25,41,70,0.11)"/>
      <path id="Path_51762" data-name="Path 51762" d="M401.332,507.438Q350.5,528.253,297.881,545.606c-3.422,1.129-2.052,5.914,1.4,4.777q53.3-17.561,104.881-38.664C407.509,510.348,404.658,506.077,401.332,507.438Z" transform="translate(89.047 -45.604)" fill="rgba(25,41,70,0.11)"/>
      <path id="Path_51763" data-name="Path 51763" d="M328.467,556.7a243.194,243.194,0,0,1-89.83,23.335c-3.673.234-3.773,5.163-.081,4.927a250.79,250.79,0,0,0,92.738-23.982C334.528,559.426,331.7,555.146,328.467,556.7Z" transform="translate(216.649 -50.027)" fill="rgba(25,41,70,0.11)"/>
      <path id="Path_51764" data-name="Path 51764" d="M457,439.759a959.045,959.045,0,0,1-117.213,33.255c-3.6.78-2.19,5.554,1.4,4.776a970.427,970.427,0,0,0,118.643-33.75C463.251,442.828,460.382,438.562,457,439.759Z" transform="translate(-4.703 -39.523)" fill="rgba(25,41,70,0.11)"/>
      <path id="Path_51765" data-name="Path 51765" d="M500.389,496.842a775.967,775.967,0,0,0-98.912,44.431c-3.134,1.684-.319,5.971,2.828,4.281a776.051,776.051,0,0,1,98.912-44.431C506.621,499.87,503.756,495.6,500.389,496.842Z" transform="translate(-104.881 -44.655)" fill="rgba(25,41,70,0.11)"/>
      <path id="Path_51766" data-name="Path 51766" d="M426.2,555.41a887.911,887.911,0,0,0-86.565,41.057c-3.122,1.7-.31,5.984,2.829,4.281a887.9,887.9,0,0,1,86.564-41.057C432.378,558.319,429.527,554.047,426.2,555.41Z" transform="translate(25.611 -49.917)" fill="rgba(25,41,70,0.11)"/>
      <path id="Path_51767" data-name="Path 51767" d="M398.477,605.506a817.944,817.944,0,0,0-97.64,37.688c-3.266,1.511-.431,5.788,2.828,4.281a806.205,806.205,0,0,1,96.21-37.192C403.325,609.2,401.95,604.412,398.477,605.506Z" transform="translate(89.658 -54.431)" fill="rgba(25,41,70,0.11)"/>
      <path id="Path_51768" data-name="Path 51768" d="M451,486.157c25.242-19.6,52-40.126,85.879-47.328,3.6-.766,2.192-5.54-1.4-4.777-34.9,7.421-62.522,28.427-88.537,48.625C444.2,484.812,448.257,488.287,451,486.157Z" transform="translate(-180.905 -39.021)" fill="rgba(25,41,70,0.11)"/>
      <path id="Path_51769" data-name="Path 51769" d="M503.47,569.479a365.562,365.562,0,0,1,83.487-52.267c3.279-1.491.441-5.768-2.829-4.281A371.351,371.351,0,0,0,499.415,566C496.764,568.221,500.814,571.7,503.47,569.479Z" transform="translate(-278.136 -46.094)" fill="rgba(25,41,70,0.11)"/>
      <path id="Path_51770" data-name="Path 51770" d="M459,640.755a739.31,739.31,0,0,1,91.077-66.935c2.964-1.849.169-6.15-2.828-4.281a748.788,748.788,0,0,0-92.3,67.735C452.334,639.527,456.381,643.013,459,640.755Z" transform="translate(-200.615 -51.17)" fill="rgba(25,41,70,0.11)"/>
      <path id="Path_51771" data-name="Path 51771" d="M472.98,634.024c2.918-1.948-1.163-5.411-4.055-3.48q-22.69,15.152-43.567,32.131h8.378Q452.615,647.63,472.98,634.024Z" transform="translate(-97.096 -56.646)" fill="rgba(25,41,70,0.11)"/>
      <path id="Path_51772" data-name="Path 51772" d="M295.945,601.594a805.591,805.591,0,0,0-75.2,29.523c-3.283,1.485-.445,5.762,2.828,4.281a790.411,790.411,0,0,1,73.773-29.028C300.753,605.224,299.385,600.437,295.945,601.594Z" transform="translate(265.117 -54.077)" fill="rgba(25,41,70,0.11)"/>
      <path id="Path_51773" data-name="Path 51773" d="M353.92,295.875c2.2-2.555-2.781-5-4.964-2.465-21.187,24.616-53.274,41.621-88.266,47.171-3.653.579-2.221,5.35,1.4,4.776C298.678,339.553,331.824,321.548,353.92,295.875Z" transform="translate(174.219 -26.286)" fill="rgba(25,41,70,0.11)"/>
      <path id="Path_51774" data-name="Path 51774" d="M1.386,538.772c-3.165,1.646-.346,5.932,2.828,4.281.244-.126.484-.256.727-.383V536.9C3.756,537.521,2.576,538.153,1.386,538.772Z" transform="translate(759.059 -48.276)" fill="rgba(25,41,70,0.11)"/>
      <path id="Path_51775" data-name="Path 51775" d="M52.052,94.7A303.343,303.343,0,0,1,103.77,42.283c2.717-2.165-1.341-5.644-4.055-3.479A309.013,309.013,0,0,0,47.089,92.236C45.049,94.9,50.018,97.355,52.052,94.7Z" transform="translate(616.916 -3.427)" fill="rgba(25,41,70,0.11)"/>
      <path id="Path_51776" data-name="Path 51776" d="M31.788,41.6A435.853,435.853,0,0,1,96.363,4.6c3.261-1.52.427-5.8-2.828-4.281a444.251,444.251,0,0,0-65.8,37.795C24.856,40.115,28.931,43.58,31.788,41.6Z" transform="translate(641.848 0)" fill="rgba(25,41,70,0.11)"/>
      <path id="Path_51777" data-name="Path 51777" d="M220.682,259.6c34.924-21,71.754-43.517,90.905-77.337,1.609-2.841-3.339-5.335-4.964-2.465-18.709,33.037-54.648,55-88.769,75.521C214.845,257.125,217.645,261.422,220.682,259.6Z" transform="translate(255.003 -16.052)" fill="rgba(25,41,70,0.11)"/>
      <path id="Path_51778" data-name="Path 51778" d="M193,646.368c11.584-4.7,22.932-9.826,33.932-15.471,9.833-5.046,19.914-10.39,26.466-18.676,2.082-2.633-2.89-5.088-4.965-2.464-6.348,8.027-16.768,13.012-26.273,17.853-10.7,5.447-21.771,10.333-33.011,14.893-16.509,6.7-33.434,12.581-50.45,18.254h15.491C167.275,656.252,180.255,651.54,193,646.368Z" transform="translate(383.868 -54.727)" fill="rgba(25,41,70,0.11)"/>
      <path id="Path_51779" data-name="Path 51779" d="M564.8,518.957A471.194,471.194,0,0,1,653.4,443.3c2.925-1.938-1.157-5.4-4.055-3.479a471.1,471.1,0,0,0-88.606,75.652C558.495,517.95,562.516,521.467,564.8,518.957Z" transform="translate(-400.131 -39.497)" fill="rgba(25,41,70,0.11)"/>
      <path id="Path_51780" data-name="Path 51780" d="M569.559,628.053l40.058-35.4c2.578-2.278-1.466-5.768-4.055-3.479L565.5,624.574C562.925,626.852,566.97,630.342,569.559,628.053Z" transform="translate(-360.346 -52.909)" fill="rgba(25,41,70,0.11)"/>
      <path id="Path_51781" data-name="Path 51781" d="M623.165,610.957l53.741-72.688c1.988-2.687-2.979-5.151-4.964-2.465L618.2,608.492C616.214,611.179,621.18,613.642,623.165,610.957Z" transform="translate(-475.561 -48.074)" fill="rgba(25,41,70,0.11)"/>
      <path id="Path_51782" data-name="Path 51782" d="M663.921,533.538a719.6,719.6,0,0,1,49.851-70.148c2.105-2.619-2.868-5.072-4.964-2.465a719.419,719.419,0,0,0-49.85,70.148C657.214,533.869,662.166,536.352,663.921,533.538Z" transform="translate(-549.653 -41.345)" fill="rgba(25,41,70,0.11)"/>
      <path id="Path_51783" data-name="Path 51783" d="M718.033,649.063a423.272,423.272,0,0,1,44.08-75.834c1.963-2.7-3-5.166-4.964-2.465a429.278,429.278,0,0,0-44.65,77C711.17,650.733,716.715,652.007,718.033,649.063Z" transform="translate(-646.812 -51.216)" fill="rgba(25,41,70,0.11)"/>
      <path id="Path_51784" data-name="Path 51784" d="M668.976,650.653c1.621-2.838-3.327-5.33-4.964-2.465q-4.682,8.2-10.177,16.011h6.672Q665.018,657.564,668.976,650.653Z" transform="translate(-500.342 -58.169)" fill="rgba(25,41,70,0.11)"/>
      <path id="Path_51785" data-name="Path 51785" d="M733.424,660.354c2.52-2.319-1.519-5.814-4.055-3.479-3,2.758-6.055,5.467-9.141,8.15h8.025Q730.856,662.7,733.424,660.354Z" transform="translate(-625.687 -58.995)" fill="rgba(25,41,70,0.11)"/>
      <path id="Path_51786" data-name="Path 51786" d="M833.972,663.8c-.659.619-1.327,1.23-1.99,1.847h6.827A2.9,2.9,0,0,0,833.972,663.8Z" transform="translate(-831.982 -59.617)" fill="rgba(25,41,70,0.11)"/>
    </g>
  </g>
</svg>
