<svg xmlns="http://www.w3.org/2000/svg" width="811.989" height="783.372" viewBox="0 0 811.989 783.372">
  <g id="tour-bg2" transform="translate(546.715 113.503) rotate(60)">
    <path id="Path_9" data-name="Path 9" d="M358.882,197.8a8.365,8.365,0,0,0-11.935,0L311.34,233.439,195.426,127.7l-.167-.139a4.657,4.657,0,0,0-6.413,6.72L305.763,251.09l5.967,5.967,5.967-5.967,41.324-41.352a8.366,8.366,0,0,0,0-11.935" transform="translate(-107.975 226.304)" fill="#7666a1"/>
    <path id="Path_10" data-name="Path 10" d="M257.117,68.839,250.648,7.494a8.413,8.413,0,1,0-16.73,1.785l5.577,53.147-53.788,7.334h-.558a4.21,4.21,0,0,0,.558,8.365h72.5Z" transform="translate(-118.751 0.027)" fill="#7666a1"/>
    <path id="Path_11" data-name="Path 11" d="M283.89,320.422l-30.282-250.4-.53-4.294-3.792-2.063-49.494-27.3A8.488,8.488,0,1,0,191.538,51.2L237.38,76.493l38.145,244.989v.2a4.223,4.223,0,1,0,8.365-1.171" transform="translate(-108.801 63.198)" fill="#43a6c5"/>
    <path id="Path_12" data-name="Path 12" d="M333.679,97.749,278.217,67.076l-8.755-4.8-3.318,9.4L223.593,192.749a4.215,4.215,0,1,0,7.863,3.039v-.251L278.217,86.344l47.4,26.072a8.367,8.367,0,0,0,8.058-14.667" transform="translate(-44.181 111.457)" fill="#923c80"/>
    <path id="Path_13" data-name="Path 13" d="M285.237,110.558l-24.594-31.62,3.346-41.826v-.753a4.183,4.183,0,0,0-8.226-1.422L243.858,79.551l-1.088,4.043,2.565,3.318,26.49,34.046a8.486,8.486,0,0,0,13.412-10.4" transform="translate(-9.375 56.82)" fill="#ad3a74"/>
    <path id="Path_14" data-name="Path 14" d="M298.1,47.135h-40.1L220.669,11.722l-.474-.446a4.211,4.211,0,0,0-6.218,5.577l34.13,43.889L250.645,64h47.4a8.463,8.463,0,0,0,0-16.926" transform="translate(-62.199 18.411)" fill="#804d98"/>
    <path id="Path_15" data-name="Path 15" d="M407.183,111.272a4.238,4.238,0,0,0-5.967-.2h0L237.76,262.989l-35.58-35.58a8.439,8.439,0,0,0-11.934,11.934L231.57,280.7l5.967,5.967,6-5.967,163.54-163.54a4.294,4.294,0,0,0,0-5.883" transform="translate(-107.731 196.697)" fill="#43a6c5"/>
  </g>
</svg>
