<svg xmlns="http://www.w3.org/2000/svg" xmlns:xlink="http://www.w3.org/1999/xlink" width="95.832" height="95.832" viewBox="0 0 95.832 95.832">
  <defs>
    <linearGradient id="linear-gradient" x1="1.377" y1="-0.737" x2="-0.098" y2="2.808" gradientUnits="objectBoundingBox">
      <stop offset="0" stop-color="#42a7c6"/>
      <stop offset="1" stop-color="#0f556b"/>
    </linearGradient>
    <filter id="Vector" x="19.92" y="27.16" width="55.957" height="41.522" filterUnits="userSpaceOnUse">
      <feOffset dy="3" input="SourceAlpha"/>
      <feGaussianBlur stdDeviation="3" result="blur"/>
      <feFlood flood-opacity="0.161"/>
      <feComposite operator="in" in2="blur"/>
      <feComposite in="SourceGraphic"/>
    </filter>
    <filter id="Vector-2" x="45.251" y="27.151" width="30.67" height="30.67" filterUnits="userSpaceOnUse">
      <feOffset dy="3" input="SourceAlpha"/>
      <feGaussianBlur stdDeviation="3" result="blur-2"/>
      <feFlood flood-opacity="0.161"/>
      <feComposite operator="in" in2="blur-2"/>
      <feComposite in="SourceGraphic"/>
    </filter>
    <filter id="Vector-3" x="0" y="0" width="95.832" height="95.832" filterUnits="userSpaceOnUse">
      <feOffset dy="3" input="SourceAlpha"/>
      <feGaussianBlur stdDeviation="3" result="blur-3"/>
      <feFlood flood-opacity="0.161"/>
      <feComposite operator="in" in2="blur-3"/>
      <feComposite in="SourceGraphic"/>
    </filter>
  </defs>
  <g id="trend-up" transform="translate(4.475 1.475)">
    <g transform="matrix(1, 0, 0, 1, -4.47, -1.47)" filter="url(#Vector)">
      <path id="Vector-4" data-name="Vector" d="M2.706,23.522a2.685,2.685,0,0,1-1.919-.8,2.731,2.731,0,0,1,0-3.837L12.372,7.3a2.683,2.683,0,0,1,2.172-.8A2.715,2.715,0,0,1,16.535,7.7l3.946,5.937L33.332.787a2.713,2.713,0,0,1,3.837,3.837l-15.2,15.2a2.683,2.683,0,0,1-2.172.8A2.715,2.715,0,0,1,17.8,19.431l-3.946-5.937L4.625,22.725A2.685,2.685,0,0,1,2.706,23.522Z" transform="translate(28.92 33.16)" fill="url(#linear-gradient)"/>
    </g>
    <g transform="matrix(1, 0, 0, 1, -4.47, -1.47)" filter="url(#Vector-2)">
      <path id="Vector-5" data-name="Vector" d="M9.955,12.67A2.735,2.735,0,0,1,7.24,9.955V5.43H2.715A2.735,2.735,0,0,1,0,2.715,2.735,2.735,0,0,1,2.715,0h7.24A2.735,2.735,0,0,1,12.67,2.715v7.24A2.735,2.735,0,0,1,9.955,12.67Z" transform="translate(54.25 33.15)" fill="url(#linear-gradient)"/>
    </g>
    <g transform="matrix(1, 0, 0, 1, -4.47, -1.47)" filter="url(#Vector-3)">
      <path id="Vector-6" data-name="Vector" d="M49.776,77.832H28.056C8.4,77.832,0,69.434,0,49.776V28.056C0,8.4,8.4,0,28.056,0H49.776C69.434,0,77.832,8.4,77.832,28.056V49.776C77.832,69.434,69.434,77.832,49.776,77.832ZM28.056,5.43C11.367,5.43,5.43,11.367,5.43,28.056V49.776C5.43,66.465,11.367,72.4,28.056,72.4H49.776C66.465,72.4,72.4,66.465,72.4,49.776V28.056C72.4,11.367,66.465,5.43,49.776,5.43Z" transform="translate(9 6)" opacity="0.39" fill="url(#linear-gradient)"/>
    </g>
    <path id="Vector-7" data-name="Vector" d="M0,0H86.882V86.882H0Z" fill="none" opacity="0"/>
  </g>
</svg>
