<svg id="twitter-outline" xmlns="http://www.w3.org/2000/svg" width="30" height="30" viewBox="0 0 30 30">
  <g id="twitter">
    <path id="Path_107138" data-name="Path 107138" d="M0,0H30V30H0" fill="#1d4487" opacity="0"/>
    <path id="Path_107139" data-name="Path 107139" d="M9.891,24h-.1a13.588,13.588,0,0,1-5.812-1.363A1.725,1.725,0,0,1,3,20.838a1.763,1.763,0,0,1,1.45-1.475A8.288,8.288,0,0,0,7.628,18.25,11.862,11.862,0,0,1,3.241,6.913a1.763,1.763,0,0,1,1.25-1.437,1.687,1.687,0,0,1,1.787.513,8.863,8.863,0,0,0,6.1,3.437A5.617,5.617,0,0,1,22.1,5.788a.875.875,0,0,0,.975.125,1.737,1.737,0,0,1,2.425,2,8.325,8.325,0,0,1-1.6,3.25A13.488,13.488,0,0,1,9.891,24Zm0-2.5h.1A10.988,10.988,0,0,0,21.353,10.763,1.65,1.65,0,0,1,21.816,9.7a6.487,6.487,0,0,0,.775-1.25A3.2,3.2,0,0,1,20.2,7.388,3.063,3.063,0,0,0,18,6.5a3.125,3.125,0,0,0-2.238.863,3.163,3.163,0,0,0-.9,3.025l.325,1.425-1.462.1a10.375,10.375,0,0,1-8.175-3,8.9,8.9,0,0,0,4.662,8.075l1.188.675-.788,1.125a7.025,7.025,0,0,1-3.35,2.4,10.425,10.425,0,0,0,2.613.313ZM23,7.313Z" transform="translate(0.747 1)" fill="#1d4487"/>
  </g>
</svg>
