<svg xmlns="http://www.w3.org/2000/svg" width="48" height="48" viewBox="0 0 48 48">
  <g id="video-play" transform="translate(-17212.5 -11526.5)">
    <circle id="Ellipse_11173" data-name="Ellipse 11173" cx="24" cy="24" r="24" transform="translate(17212.5 11526.5)" fill="#fff"/>
    <g id="video-circle" transform="translate(17224.5 11538.5)">
      <g id="vuesax_outline_video-circle" data-name="vuesax/outline/video-circle">
        <g id="video-circle-2" data-name="video-circle">
          <path id="Vector" d="M2.42,8.739a2.306,2.306,0,0,1-1.16-.3A2.842,2.842,0,0,1,0,5.849V2.889A2.853,2.853,0,0,1,1.26.3a2.834,2.834,0,0,1,2.87.21L6.7,1.989a2.852,2.852,0,0,1,1.61,2.38A2.852,2.852,0,0,1,6.7,6.749L4.13,8.229A3.424,3.424,0,0,1,2.42,8.739ZM2.43,1.5a.756.756,0,0,0-.41.1,1.452,1.452,0,0,0-.51,1.29v2.96a1.427,1.427,0,0,0,.51,1.29,1.42,1.42,0,0,0,1.37-.21l2.57-1.48c.55-.32.86-.71.86-1.08s-.31-.77-.86-1.08L3.39,1.809A1.979,1.979,0,0,0,2.43,1.5Z" transform="translate(8.34 7.631)" fill="#1d4487"/>
          <path id="Vector-2" data-name="Vector" d="M10.75,21.5A10.75,10.75,0,1,1,21.5,10.75,10.759,10.759,0,0,1,10.75,21.5Zm0-20A9.25,9.25,0,1,0,20,10.75,9.261,9.261,0,0,0,10.75,1.5Z" transform="translate(1.25 1.25)" fill="#1d4487"/>
          <path id="Vector-3" data-name="Vector" d="M0,0H24V24H0Z" fill="none" opacity="0"/>
        </g>
      </g>
    </g>
  </g>
</svg>
