<svg xmlns="http://www.w3.org/2000/svg" xmlns:xlink="http://www.w3.org/1999/xlink" width="172.924" height="172.924" viewBox="0 0 172.924 172.924">
  <defs>
    <filter id="Rectangle_13609" x="0" y="0" width="172.924" height="172.924" filterUnits="userSpaceOnUse">
      <feOffset dy="8" input="SourceAlpha"/>
      <feGaussianBlur stdDeviation="8" result="blur"/>
      <feFlood flood-color="#2eb67d" flood-opacity="0.149"/>
      <feComposite operator="in" in2="blur"/>
      <feComposite in="SourceGraphic"/>
    </filter>
  </defs>
  <g id="who-we-are4" transform="matrix(0.966, -0.259, 0.259, 0.966, 24, 42.4)">
    <g transform="matrix(0.97, 0.26, -0.26, 0.97, -12.21, -47.17)" filter="url(#Rectangle_13609)">
      <rect id="Rectangle_13609-2" data-name="Rectangle 13609" width="102" height="102" rx="9" transform="matrix(0.97, -0.26, 0.26, 0.97, 24, 42.4)" fill="#f1fff9"/>
    </g>
    <g id="Artwork_67" data-name="Artwork 67" transform="translate(26.935 27.818)">
      <g id="Group_39555" data-name="Group 39555" transform="translate(0 0)">
        <rect id="Rectangle_13602" data-name="Rectangle 13602" width="12.589" height="29.486" rx="1.196" transform="translate(3.278 18.836)" fill="#2eb67d"/>
        <rect id="Rectangle_13608" data-name="Rectangle 13608" width="12.589" height="29.486" rx="1.196" transform="translate(3.278 18.836)" fill="rgba(27,34,44,0.2)"/>
        <rect id="Rectangle_13603" data-name="Rectangle 13603" width="12.589" height="45.331" rx="1.196" transform="translate(19.857 2.991)" fill="#2eb67d"/>
        <rect id="Rectangle_13604" data-name="Rectangle 13604" width="12.589" height="18.494" rx="1.196" transform="translate(36.552 29.828)" fill="#2eb67d"/>
        <rect id="Rectangle_13607" data-name="Rectangle 13607" width="12.589" height="18.494" rx="1.196" transform="translate(36.552 29.828)" fill="rgba(27,34,44,0.2)"/>
        <path id="Path_74291" data-name="Path 74291" d="M10.39,37.466H3.345A3.349,3.349,0,0,1,0,34.121V10.181A3.349,3.349,0,0,1,3.345,6.836H10.39a3.348,3.348,0,0,1,3.345,3.345v23.94A3.348,3.348,0,0,1,10.39,37.466ZM3.345,7.981a2.2,2.2,0,0,0-2.2,2.2v23.94a2.2,2.2,0,0,0,2.2,2.2H10.39a2.2,2.2,0,0,0,2.2-2.2V10.181a2.2,2.2,0,0,0-2.2-2.2Z" transform="translate(0 9.011)" fill="#2eb67d"/>
        <path id="Path_75077" data-name="Path 75077" d="M10.39,37.466H3.345A3.349,3.349,0,0,1,0,34.121V10.181A3.349,3.349,0,0,1,3.345,6.836H10.39a3.348,3.348,0,0,1,3.345,3.345v23.94A3.348,3.348,0,0,1,10.39,37.466ZM3.345,7.981a2.2,2.2,0,0,0-2.2,2.2v23.94a2.2,2.2,0,0,0,2.2,2.2H10.39a2.2,2.2,0,0,0,2.2-2.2V10.181a2.2,2.2,0,0,0-2.2-2.2Z" transform="translate(0 9.011)" fill="rgba(27,34,44,0.6)"/>
        <path id="Path_74292" data-name="Path 74292" d="M17.54,46.477H10.5a3.348,3.348,0,0,1-3.345-3.345V3.345A3.348,3.348,0,0,1,10.5,0H17.54a3.35,3.35,0,0,1,3.347,3.345V43.132A3.35,3.35,0,0,1,17.54,46.477ZM10.5,1.148a2.2,2.2,0,0,0-2.2,2.2V43.132a2.2,2.2,0,0,0,2.2,2.2H17.54a2.2,2.2,0,0,0,2.2-2.2V3.345a2.2,2.2,0,0,0-2.2-2.2Z" transform="translate(9.428)" fill="#2eb67d"/>
        <path id="Path_75078" data-name="Path 75078" d="M17.54,46.477H10.5a3.348,3.348,0,0,1-3.345-3.345V3.345A3.348,3.348,0,0,1,10.5,0H17.54a3.35,3.35,0,0,1,3.347,3.345V43.132A3.35,3.35,0,0,1,17.54,46.477ZM10.5,1.148a2.2,2.2,0,0,0-2.2,2.2V43.132a2.2,2.2,0,0,0,2.2,2.2H17.54a2.2,2.2,0,0,0,2.2-2.2V3.345a2.2,2.2,0,0,0-2.2-2.2Z" transform="translate(9.428)" fill="rgba(27,34,44,0.6)"/>
        <path id="Path_74293" data-name="Path 74293" d="M24.743,31.217H17.7a3.35,3.35,0,0,1-3.347-3.345V14.922A3.35,3.35,0,0,1,17.7,11.577h7.043a3.35,3.35,0,0,1,3.347,3.345V27.872A3.35,3.35,0,0,1,24.743,31.217ZM17.7,12.722a2.2,2.2,0,0,0-2.2,2.2V27.872a2.2,2.2,0,0,0,2.2,2.2h7.043a2.2,2.2,0,0,0,2.2-2.2V14.922a2.2,2.2,0,0,0-2.2-2.2Z" transform="translate(18.92 15.261)" fill="#2eb67d"/>
        <path id="Path_75079" data-name="Path 75079" d="M24.743,31.217H17.7a3.35,3.35,0,0,1-3.347-3.345V14.922A3.35,3.35,0,0,1,17.7,11.577h7.043a3.35,3.35,0,0,1,3.347,3.345V27.872A3.35,3.35,0,0,1,24.743,31.217ZM17.7,12.722a2.2,2.2,0,0,0-2.2,2.2V27.872a2.2,2.2,0,0,0,2.2,2.2h7.043a2.2,2.2,0,0,0,2.2-2.2V14.922a2.2,2.2,0,0,0-2.2-2.2Z" transform="translate(18.92 15.261)" fill="rgba(27,34,44,0.6)"/>
      </g>
    </g>
  </g>
</svg>
