<svg xmlns="http://www.w3.org/2000/svg" xmlns:xlink="http://www.w3.org/1999/xlink" width="155.198" height="155.198" viewBox="0 0 155.198 155.198">
  <defs>
    <filter id="Rectangle_13609" x="0" y="0" width="155.198" height="155.198" filterUnits="userSpaceOnUse">
      <feOffset dy="8" input="SourceAlpha"/>
      <feGaussianBlur stdDeviation="8" result="blur"/>
      <feFlood flood-color="#5f3c70" flood-opacity="0.2"/>
      <feComposite operator="in" in2="blur"/>
      <feComposite in="SourceGraphic"/>
    </filter>
  </defs>
  <g id="who-we-are2" transform="translate(29.338 16) rotate(3)">
    <g transform="matrix(1, -0.05, 0.05, 1, -30.14, -14.44)" filter="url(#Rectangle_13609)">
      <rect id="Rectangle_13609-2" data-name="Rectangle 13609" width="102" height="102" rx="9" transform="translate(29.34 16) rotate(3)" fill="#f2eff3"/>
    </g>
    <g id="Artwork_69" data-name="Artwork 69" transform="translate(36.696 37.66)">
      <g id="Group_39561" data-name="Group 39561" transform="translate(-10.696 -10.66)">
        <g id="Group_39560" data-name="Group 39560" transform="translate(3.682 4.045)">
          <rect id="Rectangle_13606" data-name="Rectangle 13606" width="45.318" height="44.793" rx="2.168" fill="#7566a0"/>
        </g>
        <path id="Path_74300" data-name="Path 74300" d="M26.072,30.624a1.06,1.06,0,0,1-1.794.057l-7.1-10.5a1.063,1.063,0,0,0-1.764.007L3.509,37.744l-.582,1a4.911,4.911,0,0,0,3.095,1.111h31.21A4.968,4.968,0,0,0,42.2,34.885V6.678a4.927,4.927,0,0,0-.657-2.426Z" transform="translate(3.778 5.488)" fill="#f2eff3"/>
        <g id="Group_39614" data-name="Group 39614">
          <path id="Path_74299" data-name="Path 74299" d="M40.918,45.925H5.532A5.539,5.539,0,0,1,0,40.393V5.534A5.539,5.539,0,0,1,5.532,0H40.918A5.539,5.539,0,0,1,46.45,5.534V40.393A5.539,5.539,0,0,1,40.918,45.925ZM5.532,1.134a4.4,4.4,0,0,0-4.4,4.4V40.393a4.4,4.4,0,0,0,4.4,4.4H40.918a4.406,4.406,0,0,0,4.4-4.4V5.534a4.4,4.4,0,0,0-4.4-4.4Z" fill="#7566a0"/>
          <path id="Path_74301" data-name="Path 74301" d="M39.963,44.793H4.577a5.471,5.471,0,0,1-3.452-1.235L.74,43.249l.832-1.422,16.1-24.242a1.63,1.63,0,0,1,1.354-.728,1.652,1.652,0,0,1,1.361.719l7.1,10.5a.486.486,0,0,0,.419.213.479.479,0,0,0,.405-.241L44.283.822l.488.868A5.448,5.448,0,0,1,45.5,4.4V39.255A5.544,5.544,0,0,1,39.963,44.793ZM2.24,42.952a4.271,4.271,0,0,0,2.336.7H39.963a4.4,4.4,0,0,0,4.393-4.393V4.4a4.208,4.208,0,0,0-.163-1.154L29.3,28.633a1.624,1.624,0,0,1-1.356.806,1.663,1.663,0,0,1-1.4-.719l-7.1-10.5A.483.483,0,0,0,19.033,18h0a.475.475,0,0,0-.4.218Z" transform="translate(0.955 1.061)" fill="#7566a0"/>
        </g>
        <g id="Group_39615" data-name="Group 39615">
          <path id="Path_74299-2" data-name="Path 74299" d="M40.918,45.925H5.532A5.539,5.539,0,0,1,0,40.393V5.534A5.539,5.539,0,0,1,5.532,0H40.918A5.539,5.539,0,0,1,46.45,5.534V40.393A5.539,5.539,0,0,1,40.918,45.925ZM5.532,1.134a4.4,4.4,0,0,0-4.4,4.4V40.393a4.4,4.4,0,0,0,4.4,4.4H40.918a4.406,4.406,0,0,0,4.4-4.4V5.534a4.4,4.4,0,0,0-4.4-4.4Z" fill="rgba(27,34,44,0.2)"/>
          <path id="Path_74301-2" data-name="Path 74301" d="M39.963,44.793H4.577a5.471,5.471,0,0,1-3.452-1.235L.74,43.249l.832-1.422,16.1-24.242a1.63,1.63,0,0,1,1.354-.728,1.652,1.652,0,0,1,1.361.719l7.1,10.5a.486.486,0,0,0,.419.213.479.479,0,0,0,.405-.241L44.283.822l.488.868A5.448,5.448,0,0,1,45.5,4.4V39.255A5.544,5.544,0,0,1,39.963,44.793ZM2.24,42.952a4.271,4.271,0,0,0,2.336.7H39.963a4.4,4.4,0,0,0,4.393-4.393V4.4a4.208,4.208,0,0,0-.163-1.154L29.3,28.633a1.624,1.624,0,0,1-1.356.806,1.663,1.663,0,0,1-1.4-.719l-7.1-10.5A.483.483,0,0,0,19.033,18h0a.475.475,0,0,0-.4.218Z" transform="translate(0.955 1.061)" fill="rgba(27,34,44,0.2)"/>
        </g>
      </g>
    </g>
  </g>
</svg>
